<?xml version="1.0" encoding="utf-8"?>
<svg version="1.1" id="_x31_" xmlns="http://www.w3.org/2000/svg" xmlns:xlink="http://www.w3.org/1999/xlink" x="0px" y="0px"
	 viewBox="0 0 16 16" style="enable-background:new 0 0 16 16;" xml:space="preserve">
<style type="text/css">
	.st0{fill-rule:evenodd;clip-rule:evenodd;}
</style>
<path id="_x32_" class="st0" d="M13,6H5v2h2.3c0.3-0.6,1-1,1.7-1h5c1.1,0,2,0.9,2,2s-0.9,2-2,2H9c-0.7,0-1.4-0.4-1.7-1H5v3h2.3
	c0.3-0.6,1-1,1.7-1h5c1.1,0,2,0.9,2,2s-0.9,2-2,2H9c-0.7,0-1.4-0.4-1.7-1H3v-2v-3V8V6l0,0C1.3,6,0,4.7,0,3s1.3-3,3-3h10
	c1.7,0,3,1.3,3,3S14.7,6,13,6z M13,2H3C2.4,2,2,2.4,2,3s0.4,1,1,1h10c0.6,0,1-0.4,1-1S13.6,2,13,2z" fill="currentColor" />
</svg>
