<?xml version="1.0" encoding="utf-8"?>
<svg version="1.1" id="_x31_" xmlns="http://www.w3.org/2000/svg" xmlns:xlink="http://www.w3.org/1999/xlink" x="0px" y="0px"
	 viewBox="0 0 16 16" style="enable-background:new 0 0 16 16;" xml:space="preserve">
<style type="text/css">
	.st0{fill-rule:evenodd;clip-rule:evenodd;}
</style>
<path id="_x32_" class="st0" d="M14,9H8C7.4,9,7,8.6,7,8s0.4-1,1-1h1c0-0.6,0.4-1,1-1h2c0.6,0,1,0.4,1,1h1c0.6,0,1,0.4,1,1
	S14.6,9,14,9z M10,4L8,2H2v10h4v2H0V0h9l3,3v2h-2V4z M14,14c0,1.1-0.9,2-2,2h-2c-1.1,0-2-0.9-2-2v-4h6V14z" fill="currentColor" />
</svg>
