<?xml version="1.0" encoding="utf-8"?>
<svg version="1.1" id="_x31_" xmlns="http://www.w3.org/2000/svg" xmlns:xlink="http://www.w3.org/1999/xlink" x="0px" y="0px"
	 viewBox="0 0 16 16" style="enable-background:new 0 0 16 16;" xml:space="preserve">
<style type="text/css">
	.st0{}
</style>
<path id="_x34_" class="st0" d="M9,13c0,1.1,0.9,2,2,2h2c1.1,0,2-0.9,2-2V9H9V13z" fill="currentColor" />
<path id="_x33_" class="st0" d="M7,3H3.7C3.4,2.4,2.7,2,2,2C0.9,2,0,2.9,0,4s0.9,2,2,2c0.7,0,1.4-0.4,1.7-1H5v7h3v-2H7V3z" fill="currentColor" />
<path id="_x32_" class="st0" d="M15,6h-1c0-0.6-0.4-1-1-1h-2c-0.6,0-1,0.4-1,1H9C8.4,6,8,6.4,8,7s0.4,1,1,1h6c0.6,0,1-0.4,1-1
	S15.6,6,15,6z" fill="currentColor" />
</svg>
