<?xml version="1.0" encoding="utf-8"?>
<svg version="1.1" id="_x31_" xmlns="http://www.w3.org/2000/svg" xmlns:xlink="http://www.w3.org/1999/xlink" x="0px" y="0px"
	 viewBox="0 0 16 16" style="enable-background:new 0 0 16 16;" xml:space="preserve">
<style type="text/css">
	.st0{fill-rule:evenodd;clip-rule:evenodd;}
</style>
<path id="_x32_" class="st0" d="M10,15c-2.3,0-4.2-1.7-5-4c0.8-2.3,2.7-4,5-4s4.2,1.7,5,4C14.2,13.3,12.3,15,10,15z M10,9
	c-1.1,0-2,0.9-2,2s0.9,2,2,2s2-0.9,2-2S11.1,9,10,9z M10,12c-0.6,0-1-0.4-1-1s0.4-1,1-1c0.6,0,1,0.4,1,1S10.6,12,10,12z M10,4L8,2H2
	v10h2v2H0V0h9l3,3v2h-2V4z" fill="currentColor" />
</svg>
