<?xml version="1.0" encoding="utf-8"?>
<svg version="1.1" id="_x31_" xmlns="http://www.w3.org/2000/svg" xmlns:xlink="http://www.w3.org/1999/xlink" x="0px" y="0px"
	 viewBox="0 0 16 16" style="enable-background:new 0 0 16 16;" xml:space="preserve">
<style type="text/css">
	.st0{fill-rule:evenodd;clip-rule:evenodd;}
</style>
<path id="_x32_" class="st0" d="M15.7,14.3l-1.4,1.4l-3.1-3.1C10,13.5,8.6,14,7,14c-3.9,0-7-3.1-7-7s3.1-7,7-7s7,3.1,7,7
	c0,1.6-0.5,3-1.4,4.2L15.7,14.3z M7,2C4.2,2,2,4.2,2,7s2.2,5,5,5s5-2.2,5-5S9.8,2,7,2z M4,8V6h6v2H4z" fill="currentColor" />
</svg>
