<?xml version="1.0" encoding="utf-8"?>
<svg version="1.1" id="_x31_" xmlns="http://www.w3.org/2000/svg" xmlns:xlink="http://www.w3.org/1999/xlink" x="0px" y="0px"
	 viewBox="0 0 18 18" style="enable-background:new 0 0 18 18;" xml:space="preserve">
<style type="text/css">
	.st0{fill-rule:evenodd;clip-rule:evenodd;}
</style>
<path id="_x32_" class="st0" d="M17.7,16.3l-1.4,1.4l-4.1-4.1C11,14.5,9.6,15,8,15c-3.9,0-7-3.1-7-7s3.1-7,7-7s7,3.1,7,7
	c0,1.6-0.5,3-1.4,4.2L17.7,16.3z M8,3C5.2,3,3,5.2,3,8s2.2,5,5,5s5-2.2,5-5S10.8,3,8,3z M5,9V7h6v2H5z" fill="currentColor"/>
</svg>
