<?xml version="1.0" standalone="no"?>
<!DOCTYPE svg PUBLIC "-//W3C//DTD SVG 1.1//EN" "http://www.w3.org/Graphics/SVG/1.1/DTD/svg11.dtd" >
<svg xmlns="http://www.w3.org/2000/svg">
<metadata>Generated by IcoMoon</metadata>
<defs>
<font id="dxiconsgeneric" horiz-adv-x="1024">
<font-face units-per-em="1024" ascent="960" descent="-64" />
<missing-glyph horiz-adv-x="1024" />
<glyph unicode="&#x20;" horiz-adv-x="512" d="" />
<glyph unicode="&#xf000;" glyph-name="airplane" d="M386.844 56.889h78.507l217.316 341.333h170.667c2.422-0.42 5.211-0.66 8.056-0.66 27.334 0 49.493 22.159 49.493 49.493 0 2.845-0.24 5.634-0.701 8.347l0.041-0.292c0.42 2.422 0.66 5.211 0.66 8.056 0 27.334-22.159 49.493-49.493 49.493-2.845 0-5.634-0.24-8.347-0.701l0.292 0.041h-170.667l-217.316 341.333h-78.507l125.156-341.333h-227.556l-113.778 113.778h-56.889l51.769-170.667-51.769-170.667h56.889l113.778 113.778h227.556z" />
<glyph unicode="&#xf001;" glyph-name="spindown" d="M512 341.333l-227.556 227.556h455.111l-227.556-227.556z" />
<glyph unicode="&#xf002;" glyph-name="spinup" d="M512 568.889l227.556-227.556h-455.111l227.556 227.556z" />
<glyph unicode="&#xf003;" glyph-name="tel" d="M841.387 211.627c7.031-5.782 11.481-14.482 11.481-24.221 0-6.448-1.951-12.441-5.294-17.421l0.071 0.112-71.68-101.831c-5.676-7.144-14.364-11.685-24.112-11.685-1.528 0-3.031 0.112-4.499 0.327l0.167-0.020c-81.571 5.122-155.767 32.917-217.436 77.088l1.259-0.857c-73.361 49.419-136.050 107.586-188.697 174.070l-1.312 1.717q-197.973 244.622-170.667 455.111c-0.072 0.811-0.113 1.754-0.113 2.707 0 13.217 7.907 24.587 19.249 29.637l0.206 0.082 108.089 56.889c3.25 1.558 7.066 2.468 11.093 2.468s7.843-0.91 11.251-2.536l-0.158 0.068c7.304-2.92 13.092-8.34 16.418-15.178l0.080-0.182 97.849-203.093c1.216-3.39 1.918-7.302 1.918-11.378s-0.703-7.987-1.993-11.62l0.075 0.243c-2.043-7.618-7.238-13.744-14.064-16.999l-0.158-0.068-67.129-34.702c-10.809-88.747 147.911-279.324 227.556-284.444l44.942 65.422c4.279 6.157 10.952 10.394 18.642 11.364l0.132 0.014c1.649 0.406 3.543 0.639 5.491 0.639 5.957 0 11.405-2.18 15.589-5.786l-0.031 0.026z" />
<glyph unicode="&#xf004;" glyph-name="tips" d="M398.222 227.555v-85.333c0-47.128 38.205-85.333 85.333-85.333v0h56.889c47.128 0 85.333 38.205 85.333 85.333v0 85.333zM512 853.333c-157.094 0-284.444-127.35-284.444-284.444 0-92.738 44.381-175.111 113.062-227.037l0.716-0.518c16.798-16.109 30.865-34.899 41.548-55.711l0.549-1.178h261.12c10.004 21.911 22.79 40.705 38.204 56.983l-0.089-0.095c69.397 52.445 113.778 134.817 113.778 227.556 0 157.094-127.35 284.444-284.444 284.444v0zM614.969 432.924c-29.528-17.387-53.659-40.972-71.175-69.104l-0.505-0.87h-63.716c-17.867 29.133-41.802 52.887-70.183 70.022l-0.929 0.52c-40.978 31.498-67.129 80.531-67.129 135.673 0 94.257 76.41 170.667 170.667 170.667s170.667-76.41 170.667-170.667c0-55.141-26.151-104.175-66.727-135.375l-0.402-0.297z" />
<glyph unicode="&#xf005;" glyph-name="check" d="M979.2 678.471l-90.24 90.24-504.96-499.2-248.96 243.2-90.24-90.24 339.2-344.96 595.2 600.96z" />
<glyph unicode="&#xf006;" glyph-name="upload" d="M847.076 517.689l-80.782-64.853-197.404 197.404v-422.684h-113.778v422.684l-197.404-197.404-80.782 64.853 335.076 335.644 335.076-335.644zM170.667 170.667h682.667v-113.778h-682.667v113.778z" />
<glyph unicode="&#xf007;" glyph-name="toolbox" d="M739.556 682.667v170.667h-455.111v-170.667h-170.667v-113.778h796.444v113.778zM625.778 682.667h-227.556v56.889h227.556zM398.222 512h227.556v-170.667h-227.556v170.667zM796.444 512v-341.333h-568.889v341.333h-113.778v-455.111h796.444v455.111h-113.778z" />
<glyph unicode="&#xf008;" glyph-name="clear" d="M512 910.222c-251.351 0-455.111-203.76-455.111-455.111s203.76-455.111 455.111-455.111c251.351 0 455.111 203.76 455.111 455.111v0c0 251.351-203.76 455.111-455.111 455.111v0zM779.947 267.947l-80.213-80.213-187.733 187.164-187.164-187.733-80.782 80.782 187.733 187.164-187.733 187.164 80.782 80.782 187.164-187.733 187.164 187.164 80.213-80.213-187.164-187.164z" />
<glyph unicode="&#xf009;" glyph-name="tag" d="M1012.622 489.244l-244.622 227.556c-10.489 13.881-26.964 22.758-45.513 22.758-0.199 0-0.398-0.001-0.597-0.003h-608.112c-31.419 0-56.889-25.47-56.889-56.889v0-455.111c0-31.419 25.47-56.889 56.889-56.889v0h608.142c0.168-0.002 0.368-0.003 0.567-0.003 18.549 0 35.024 8.877 45.41 22.615l0.104 0.143 244.622 227.556c7.103 9.389 11.378 21.262 11.378 34.133s-4.275 24.744-11.481 34.276l0.104-0.143z" />
<glyph unicode="&#xf00a;" glyph-name="close" d="M890.88 753.209l-80.782 80.782-298.098-298.667-298.098 298.667-80.782-80.782 298.667-298.098-298.667-298.098 80.782-80.782 298.098 298.667 298.098-298.667 80.782 80.782-298.667 298.098 298.667 298.098z" />
<glyph unicode="&#xf00b;" glyph-name="add" d="M910.222 512h-341.333v341.333h-113.778v-341.333h-341.333v-113.778h341.333v-341.333h113.778v341.333h341.333v113.778z" />
<glyph unicode="&#xf00c;" glyph-name="menu" d="M56.889 398.222v113.778h910.222v-113.778h-910.222zM56.889 682.667v113.778h910.222v-113.778h-910.222zM56.889 113.778v113.778h910.222v-113.778h-910.222z" />
<glyph unicode="&#xf00d;" glyph-name="overflow" d="M455.111 796.444h113.778v-113.778h-113.778v113.778zM455.111 512h113.778v-113.778h-113.778v113.778zM455.111 227.555h113.778v-113.778h-113.778v113.778z" />
<glyph unicode="&#xf00e;" glyph-name="arrowright" d="M574.578 790.187l-64.853-80.782 197.404-197.404h-593.351v-113.778h593.351l-197.404-197.404 64.853-80.782 335.644 335.076-335.644 335.076z" />
<glyph unicode="&#xf010;" glyph-name="chevronright" d="M284.444 130.275l310.613 324.836-310.613 324.836 73.956 73.387 381.156-398.222-381.156-398.222-73.956 73.387z" />
<glyph unicode="&#xf011;" glyph-name="arrowleft" d="M449.422 790.187l64.853-80.782-197.404-197.404h593.351v-113.778h-593.351l197.404-197.404-64.853-80.782-335.644 335.076 335.644 335.076z" />
<glyph unicode="&#xf012;" glyph-name="chevronleft" d="M739.556 130.275l-310.613 324.836 310.613 324.836-73.956 73.387-381.156-398.222 381.156-398.222 73.956 73.387z" />
<glyph unicode="&#xf013;" glyph-name="arrowup" d="M847.076 517.689l-80.782-64.853-197.404 197.404v-593.351h-113.778v593.351l-197.404-197.404-80.782 64.853 335.076 335.644 335.076-335.644z" />
<glyph unicode="&#xf014;" glyph-name="chevronup" d="M836.836 227.555l-324.836 310.613-324.836-310.613-73.387 73.956 398.222 381.156 398.222-381.156-73.387-73.956z" />
<glyph unicode="&#xf015;" glyph-name="arrowdown" d="M847.076 392.533l-80.782 64.853-197.404-197.404v593.351h-113.778v-593.351l-197.404 197.404-80.782-64.853 335.076-335.644 335.076 335.644z" />
<glyph unicode="&#xf016;" glyph-name="chevrondown" d="M836.836 682.667l-324.836-310.613-324.836 310.613-73.387-73.956 398.222-381.156 398.222 381.156-73.387 73.956z" />
<glyph unicode="&#xf017;" glyph-name="bookmark" d="M796.444 56.889l-284.444 227.556-284.444-227.556v796.444h568.889v-796.444z" />
<glyph unicode="&#xf018;" glyph-name="box" d="M773.689 853.333h-523.378l-136.533-227.556v-568.889h796.444v568.889zM284.444 625.778l56.889 113.778h341.333l56.889-113.778z" />
<glyph unicode="&#xf019;" glyph-name="card" d="M113.778 853.333v-796.444h796.444v796.444zM512 739.555c62.838 0 113.778-50.94 113.778-113.778s-50.94-113.778-113.778-113.778c-62.838 0-113.778 50.94-113.778 113.778v0c0 62.838 50.94 113.778 113.778 113.778v0zM700.302 170.667h-377.173v94.436c0.406 13.005 1.632 25.366 3.636 37.465l-0.222-1.625c19.244 58.842 43.535 109.853 73.361 157.015l-1.681-2.846c39.253-31.858 56.889-56.889 113.778-56.889s74.524 25.031 113.778 56.889c28.187-44.479 52.484-95.686 70.286-149.84l1.394-4.898c1.813-11.498 2.849-24.757 2.849-38.257 0-0.55-0.002-1.1-0.005-1.649v0.084z" />
<glyph unicode="&#xf01a;" glyph-name="cart" d="M455.111 170.667c0-62.838-50.94-113.778-113.778-113.778s-113.778 50.94-113.778 113.778c0 62.838 50.94 113.778 113.778 113.778s113.778-50.94 113.778-113.778zM796.444 170.667c0-62.838-50.94-113.778-113.778-113.778s-113.778 50.94-113.778 113.778c0 62.838 50.94 113.778 113.778 113.778s113.778-50.94 113.778-113.778zM341.333 682.667v170.667h-227.556v-113.778h113.778v-398.222h625.778l56.889 341.333h-568.889z" />
<glyph unicode="&#xf01b;" glyph-name="car" d="M853.333 512l-113.778 284.444h-455.111l-113.778-284.444h-56.889v-455.111h113.778v113.778h568.889v-113.778h113.778v455.111zM341.333 682.667h341.333l56.889-170.667h-455.111zM256 284.444c-47.128 0-85.333 38.205-85.333 85.333s38.205 85.333 85.333 85.333c47.128 0 85.333-38.205 85.333-85.333v0c0-47.128-38.205-85.333-85.333-85.333v0zM768 284.444c-47.128 0-85.333 38.205-85.333 85.333s38.205 85.333 85.333 85.333c47.128 0 85.333-38.205 85.333-85.333v0c0-47.128-38.205-85.333-85.333-85.333v0z" />
<glyph unicode="&#xf01c;" glyph-name="chart" d="M113.778 398.222h227.556v-341.333h-227.556v341.333zM398.222 853.333h227.556v-796.444h-227.556v796.444zM682.667 625.778h227.556v-568.889h-227.556v568.889z" />
<glyph unicode="&#xf01d;" glyph-name="clock" d="M512 910.222c-251.351 0-455.111-203.76-455.111-455.111s203.76-455.111 455.111-455.111c251.351 0 455.111 203.76 455.111 455.111v0c0 251.351-203.76 455.111-455.111 455.111v0zM512 113.778c-188.513 0-341.333 152.82-341.333 341.333s152.82 341.333 341.333 341.333c188.513 0 341.333-152.82 341.333-341.333v0c0-188.513-152.82-341.333-341.333-341.333v0zM641.138 265.102l-186.027 187.164v230.4h113.778v-213.902l137.671-138.24-65.422-65.422z" />
<glyph unicode="&#xf01e;" glyph-name="comment" d="M853.333 853.333h-682.667c-31.419 0-56.889-25.47-56.889-56.889v0-739.556l170.667 170.667h568.889c31.419 0 56.889 25.47 56.889 56.889v0 512c0 31.419-25.47 56.889-56.889 56.889v0zM568.889 398.222h-284.444v56.889h284.444zM739.556 512h-455.111v56.889h455.111zM739.556 625.778h-455.111v56.889h455.111z" />
<glyph unicode="&#xf021;" glyph-name="doc1" d="M653.084 853.333h-482.418v-796.444h682.667v549.547c0 12.871-4.275 24.744-11.481 34.276l0.104-0.143-143.36 190.009c-10.489 13.879-26.963 22.756-45.511 22.756v0zM284.444 170.667v568.889h284.444v-170.667h170.667v-398.222z" />
<glyph unicode="&#xf022;" glyph-name="download" d="M851.506 565.011l-81.343 65.767-200.185-200.185v428.061h-115.38v-428.061l-200.762 200.185-81.343-65.767 339.795-340.949 339.218 340.949zM166.148 166.372h692.282v-115.38h-692.282v115.38z" />
<glyph unicode="&#xf023;" glyph-name="edit" d="M796.444 579.129l110.364 110.364c10.224 10.283 16.543 24.457 16.543 40.107s-6.319 29.824-16.546 40.109l0.003-0.003-79.644 80.782c-10.283 10.224-24.457 16.543-40.107 16.543s-29.824-6.319-40.109-16.546l-110.93-110.93zM562.062 667.307l-391.396-382.862v-170.667h170.667l382.862 391.396-162.133 162.133z" />
<glyph unicode="&#xf024;" glyph-name="email" d="M853.333 796.444h-682.667c-62.838 0-113.778-50.94-113.778-113.778v0-455.111c0-62.838 50.94-113.778 113.778-113.778v0h682.667c62.838 0 113.778 50.94 113.778 113.778v0 455.111c0 62.838-50.94 113.778-113.778 113.778v0zM910.222 625.778l-398.222-298.667-398.222 298.667v85.333l398.222-298.667 398.222 298.667z" />
<glyph unicode="&#xf025;" glyph-name="favorites" d="M512 853.333l131.413-250.311 266.809-54.044-186.027-207.644 33.564-284.444-245.76 121.173-246.329-121.173 33.564 284.444-185.458 207.644 266.809 54.044 131.413 250.311z" />
<glyph unicode="&#xf026;" glyph-name="event" d="M113.778 739.555v-568.889c0-62.838 50.94-113.778 113.778-113.778v0h568.889c62.838 0 113.778 50.94 113.778 113.778v0 568.889c0 62.838-50.94 113.778-113.778 113.778v0h-568.889c-62.838 0-113.778-50.94-113.778-113.778v0zM796.444 170.667h-568.889v455.111h568.889zM512 455.111h227.556v-227.556h-227.556v227.556zM227.556 910.222h113.778v-56.889h-113.778v56.889zM682.667 910.222h113.778v-56.889h-113.778v56.889z" />
<glyph unicode="&#xf027;" glyph-name="find" d="M940.942 106.951l-264.533 264.533c39.534 54.987 63.223 123.675 63.223 197.897 0 188.513-152.82 341.333-341.333 341.333s-341.333-152.82-341.333-341.333c0-188.513 152.82-341.333 341.333-341.333 74.221 0 142.91 23.689 198.917 63.92l-1.020-0.697 264.533-264.533zM398.222 341.333c-125.675 0-227.556 101.88-227.556 227.556s101.88 227.556 227.556 227.556c125.675 0 227.556-101.88 227.556-227.556v0c0-125.675-101.88-227.556-227.556-227.556v0z" />
<glyph unicode="&#xf028;" glyph-name="folder" d="M853.333 512v227.556h-398.222l-56.889 113.778h-398.222v-796.444h853.333l170.667 455.111zM227.556 512l-113.778-303.218v530.773h227.556l56.889-113.778h341.333v-113.778z" />
<glyph unicode="&#xf029;" glyph-name="food" d="M410.169 285.582h-47.218l-52.338 52.338-196.836-198.542 81.92-82.489 226.987 228.693h-12.516zM122.88 770.844v-82.489l287.289-288.996h81.92l304.356-306.062 81.92 82.489-673.564 677.547-81.92-82.489zM664.462 552.391l163.84 164.978-40.96 41.529-163.84-164.978 40.96-41.529zM746.382 469.902l163.84 164.978-40.96 40.96-163.84-164.409 40.96-41.529zM581.973 634.88l164.409 164.978-41.529 41.529-163.84-164.978 40.96-41.529z" />
<glyph unicode="&#xf02a;" glyph-name="coffee" d="M796.444 56.889h-568.889l-113.778 113.778h796.444l-113.778-113.778zM835.698 796.444h-47.787l8.533 56.889h-568.889l56.889-398.222 56.889-227.556h341.333l42.667 170.667h86.471c0.333-0.004 0.726-0.006 1.12-0.006 57.221 0 104.576 42.24 112.585 97.24l0.073 0.615 24.462 170.667c0.714 4.79 1.122 10.318 1.122 15.941 0 62.838-50.94 113.778-113.778 113.778-0.595 0-1.188-0.005-1.781-0.014l0.090 0.001zM828.302 607.573l-31.858-95.573h-56.889v170.667h34.702c0.044 0 0.095 0 0.147 0 31.419 0 56.889-25.47 56.889-56.889 0-6.515-1.095-12.775-3.112-18.604l0.12 0.4z" />
<glyph unicode="&#xf02b;" glyph-name="gift" d="M568.889 227.555h-113.778v170.667h-284.444v-227.556c0-62.838 50.94-113.778 113.778-113.778v0h455.111c62.838 0 113.778 50.94 113.778 113.778v0 227.556h-284.444zM369.778 910.222c-0.341 0.003-0.744 0.005-1.147 0.005-78.233 0-141.653-63.42-141.653-141.653 0-32.453 10.913-62.356 29.27-86.241l-0.247 0.335h-142.222v-227.556h341.333v227.556h56.889c0 78.507-63.716 227.556-142.222 227.556zM434.062 682.667h-69.973c-45.915 1.578-82.536 39.179-82.536 85.333 0 47.154 38.226 85.381 85.381 85.381 1 0 1.997-0.017 2.989-0.051l-0.144 0.004c47.218 0 85.333-89.884 85.333-137.102 0-21.618-7.964-30.151-21.049-33.564zM767.431 682.667c18.109 23.55 29.023 53.454 29.023 85.907 0 78.233-63.42 141.653-141.653 141.653-0.403 0-0.806-0.002-1.209-0.005h0.061c-77.938 0-141.653-149.049-141.653-227.556h56.889v-227.556h341.333v227.556zM659.911 682.667h-69.973c-13.084 3.413-21.049 11.947-21.049 33.564 0 47.218 38.116 136.533 85.333 136.533 0.848 0.030 1.844 0.047 2.844 0.047 47.154 0 85.381-38.226 85.381-85.381 0-46.154-36.622-83.755-82.392-85.329l-0.144-0.004z" />
<glyph unicode="&#xf02c;" glyph-name="globe" d="M113.778 455.111c-0.066-2.651-0.103-5.774-0.103-8.906 0-106.663 43.553-203.154 113.845-272.659l0.036-0.035c70.147-72.026 168.066-116.706 276.42-116.706 2.822 0 5.636 0.030 8.443 0.091l-0.419-0.007c1.462-0.020 3.188-0.031 4.916-0.031 102.702 0 195.988 40.318 264.891 105.991l-0.154-0.146-3.413 2.844-6.258 5.12c2.743 12.78 4.314 27.461 4.314 42.51 0 6.865-0.327 13.654-0.966 20.352l0.066-0.854c0.005 0.128 0.008 0.279 0.008 0.431 0 4.046-2.012 7.623-5.090 9.784l-0.038 0.025c-5.237 3.421-11.267 6.318-17.669 8.384l-0.535 0.149c-5.242 1.016-9.853 3.213-13.715 6.306l0.062-0.048c-0.255 0.588-0.403 1.272-0.403 1.991s0.148 1.403 0.416 2.024l-0.013-0.033v4.551c-0.033 0.51-0.051 1.106-0.051 1.707s0.019 1.196 0.055 1.788l-0.004-0.081c-0.038 0.626-0.059 1.358-0.059 2.096 0 11.831 5.556 22.364 14.201 29.132l0.081 0.061 5.12 3.982 9.671 6.258 7.964 5.689 5.689 4.551c2.815 2.785 4.558 6.649 4.558 10.92 0 0.161-0.002 0.321-0.007 0.481l0.001-0.023c0.099 1.023 0.155 2.212 0.155 3.413s-0.056 2.39-0.167 3.563l0.011-0.15c-3.588 7.884-8.168 14.649-13.689 20.518l0.036-0.038c-5.905 6.369-14.058 10.581-23.191 11.368l-0.134 0.009h-10.24c-0.224-0.002-0.489-0.004-0.754-0.004-17.96 0-34.521 5.987-47.797 16.075l0.195-0.142c-11.662 7.082-19.335 19.711-19.342 34.132v0.001c-0.106 0.939-0.166 2.027-0.166 3.129s0.060 2.19 0.178 3.261l-0.012-0.132v5.689c0.010 0.336 0.016 0.731 0.016 1.128 0 11.144-4.578 21.22-11.956 28.448l-0.007 0.007c-10.303 7.968-22.144 14.683-34.883 19.587l-0.957 0.324c-11.552 3.733-21.572 9.159-30.355 16.084l0.204-0.155c-3.178 7.209-5.055 15.608-5.12 24.438v0.024c0.227 12.365 3.575 23.901 9.286 33.914l-0.184-0.35c8.194 17.556 23.248 30.752 41.623 36.286l0.475 0.123c26.174 7.313 48.626 20.741 66.559 38.684l0.001 0.001c15.863 14.037 26.022 34.21 26.735 56.766l0.003 0.123v11.378c-1.971 50.934-27.315 95.566-65.546 123.705l-0.445 0.312c-38.855 16.627-83.945 27.113-131.248 28.99l-0.734 0.023c-18.4-0.331-35.962-3.428-52.446-8.891l1.246 0.358q-21.618-7.964-21.618-19.342v0q0-17.636 35.271-35.84l29.582-14.222c10.31-4.16 19.107-8.74 27.394-14.046l-0.656 0.393q20.48-13.084 20.48-25.6c0.3-1.368 0.472-2.94 0.472-4.551s-0.172-3.183-0.498-4.697l0.026 0.146c-2.187-3.334-4.83-6.158-7.881-8.473l-0.083-0.061c-6.732-6.189-14.175-11.823-22.128-16.708l-0.628-0.359-15.929-10.809-14.791-7.964q-23.893-18.204-23.893-32.427c-0.37-1.279-0.582-2.748-0.582-4.267s0.213-2.988 0.609-4.379l-0.027 0.112q0-5.689 19.911-14.222 7.396-3.413 7.396-17.067c0.25-1.879 0.393-4.052 0.393-6.258s-0.143-4.379-0.419-6.509l0.027 0.251c-3.835-13.047-8.674-24.366-14.65-34.958l0.428 0.825c-7.038-10.847-17.76-18.791-30.359-22.106l-0.361-0.081c-6.361 1.507-11.693 5.172-15.307 10.164l-0.053 0.076-5.12 3.982-6.258 6.258-9.102 6.827-4.551 5.689c-18.76 20.096-44.607 33.367-73.538 35.812l-0.418 0.028c-9.997-0.355-19.195-3.491-26.926-8.652l0.189 0.118c-8.565-5.633-15.483-13.097-20.32-21.87l-0.16-0.317c-5.125-7.513-8.277-16.733-8.532-26.674l-0.001-0.064c0.384-12.492 6.010-23.598 14.741-31.246l0.050-0.043c4.026-4.192 9.67-6.803 15.924-6.827h14.226l15.36 3.982c5.355 1.486 11.582 2.503 17.989 2.836l0.216 0.009h3.413q9.671 1.707 15.929-9.671v-10.24q0-6.258 0-14.222t0-18.773 0-11.947c2.482-22.621 15.422-41.772 33.812-52.729l0.321-0.177c9.475-5.030 21.284-10.388 33.415-15.1l2.425-0.829c16.15-6.58 30.001-14.021 42.937-22.718l-0.84 0.532c32.77-18.262 55.985-50.29 61.919-88.056l0.089-0.691c0.105-1.108 0.165-2.396 0.165-3.698s-0.060-2.59-0.177-3.861l0.012 0.163c-1.825-21.114-14.936-38.782-33.207-47.073l-0.357-0.145-44.373-26.169-18.204-11.947c-4.745-5.061-9.060-10.643-12.817-16.611l-0.267-0.455c-3.549-5.684-6.804-12.247-9.411-19.129l-0.26-0.782c-0.262-12.033-1.699-23.583-4.202-34.73l0.22 1.166c-5.914-8.634-15.722-14.226-26.837-14.226-0.165 0-0.33 0.001-0.495 0.004h-8.508c-6.719 0.513-12.403 4.492-15.311 10.135l-0.049 0.105c-2.493 2.947-4.009 6.792-4.009 10.99 0 0.337 0.010 0.671 0.029 1.003l-0.002-0.046c-0.205 0.941-0.322 2.021-0.322 3.129s0.117 2.188 0.34 3.23l-0.018-0.101c0.267 2.559 0.419 5.528 0.419 8.533s-0.152 5.975-0.45 8.901l0.030-0.368c-0.371 14.553-3.901 28.197-9.924 40.388l0.253-0.566c-3.414 6.438-5.66 13.989-6.247 22l-0.011 0.186c0.274 10.193 3.42 19.599 8.654 27.501l-0.121-0.194c2.621 2.83 4.229 6.632 4.229 10.809s-1.608 7.978-4.238 10.819l0.010-0.010c-7.243 7.609-15.942 13.756-25.66 18.006l-0.509 0.198-19.342 10.24-11.378 6.827c-8.432 5.431-14.572 13.796-17.010 23.623l-0.057 0.27v3.413c0.371 7.3 3.334 13.843 7.979 18.789l-0.015-0.016c6.48 5.849 13.53 11.454 20.919 16.605l0.699 0.461c8.216 4.608 15.055 10.721 20.355 18.023l0.125 0.181c4.385 6.065 7.014 13.652 7.014 21.852 0 1.32-0.068 2.624-0.201 3.909l0.013-0.161v3.982c-3.004 11.385-10.421 20.659-20.264 26.060l-0.216 0.108c-11.131 5.955-24.036 10.847-37.604 14.010l-1.080 0.212c-36.906 8.69-69.074 25.322-95.904 48.060l0.331-0.274c-14.286 16.072-25.847 34.95-33.718 55.646l-0.415 1.243c-13.249 27.644-21.341 59.995-22.181 94.144l-0.006 0.292c-28.325-52.942-44.963-115.808-44.963-182.561 0-1.419 0.008-2.836 0.023-4.251l-0.002 0.216zM543.289 910.222c119.372-6.95 225.037-60.456 300.072-142.457l0.301-0.334c76.407-78.673 123.516-186.162 123.516-304.654 0-2.695-0.024-5.385-0.073-8.069l0.006 0.403c0.004-0.731 0.007-1.596 0.007-2.462 0-82.947-22.614-160.611-62.013-227.166l1.135 2.072c-39.505-67.447-93.673-122.343-158.398-161.561l-2.028-1.141c-66.26-40.729-146.518-64.856-232.411-64.856-0.493 0-0.985 0.001-1.478 0.002h0.076c-1.956-0.031-4.263-0.049-6.575-0.049-123.568 0-235.17 51.231-314.725 133.611l-0.122 0.127c-82.499 79.142-133.763 190.293-133.763 313.417 0 2.815 0.027 5.624 0.080 8.426l-0.006-0.421c-0.029 1.885-0.046 4.109-0.046 6.337 0 123.642 51.226 235.319 133.612 314.967l0.123 0.118c79.499 82.504 190.951 133.746 314.37 133.746 2.479 0 4.954-0.021 7.424-0.062l-0.372 0.005h31.858z" />
<glyph unicode="&#xf02d;" glyph-name="user" d="M682.667 682.667c0-94.257-76.41-170.667-170.667-170.667s-170.667 76.41-170.667 170.667c0 94.257 76.41 170.667 170.667 170.667s170.667-76.41 170.667-170.667zM796.444 56.889h-568.889v131.982c0.61 18.168 2.448 35.415 5.444 52.262l-0.324-2.2c29.252 82.505 65.959 153.93 110.738 219.398l-2.080-3.221c40.034-35.812 93.177-57.703 151.432-57.703 6.771 0 13.473 0.296 20.093 0.875l-0.859-0.061c5.762-0.519 12.464-0.814 19.234-0.814 58.256 0 111.399 21.891 151.651 57.896l-0.219-0.192c42.497-62.241 79.021-133.676 106.051-209.613l2.038-6.565c2.899-16.583 4.556-35.677 4.556-55.159 0-0.608-0.002-1.216-0.005-1.824v0.094z" />
<glyph unicode="&#xf02e;" glyph-name="group" d="M568.889 682.667c0-94.257-76.41-170.667-170.667-170.667s-170.667 76.41-170.667 170.667c0 94.257 76.41 170.667 170.667 170.667s170.667-76.41 170.667-170.667zM682.667 56.889h-568.889v131.982c0.61 18.168 2.448 35.415 5.444 52.262l-0.324-2.2c29.252 82.505 65.959 153.93 110.738 219.398l-2.080-3.221c40.034-35.812 93.177-57.703 151.432-57.703 6.771 0 13.473 0.296 20.093 0.875l-0.859-0.061c5.762-0.519 12.464-0.814 19.234-0.814 58.256 0 111.399 21.891 151.651 57.896l-0.219-0.192c42.497-62.241 79.021-133.676 106.051-209.613l2.038-6.565c2.899-16.583 4.556-35.677 4.556-55.159 0-0.608-0.002-1.216-0.005-1.824v0.094zM905.671 238.933c-29.437 82.508-66.327 153.925-111.293 219.36l2.067-3.182c-20.486-16.768-43.928-31.085-69.208-41.94l-1.903-0.727c27.78-44.505 49.714-96.141 62.985-151.154l0.73-3.584c4.27-22.161 6.942-47.873 7.39-74.127l0.005-0.397v-126.293h113.778v126.293c0 0.183 0.001 0.399 0.001 0.615 0 19.473-1.656 38.56-4.834 57.127l0.282-1.992zM682.667 682.667c-0.374-49.34-13.405-95.556-36-135.666l0.729 1.408 18.204-31.289c74.806 19.196 129.208 86.022 129.208 165.555 0 93.681-75.48 169.733-168.943 170.658l-0.088 0.001c35.516-46.946 56.889-106.311 56.889-170.667v0z" />
<glyph unicode="&#xf02f;" glyph-name="help" d="M512 910.222c-251.351 0-455.111-203.76-455.111-455.111s203.76-455.111 455.111-455.111c251.351 0 455.111 203.76 455.111 455.111v0c0 251.351-203.76 455.111-455.111 455.111v0zM512 113.778c-188.513 0-341.333 152.82-341.333 341.333s152.82 341.333 341.333 341.333c188.513 0 341.333-152.82 341.333-341.333v0c0-188.513-152.82-341.333-341.333-341.333v0zM479.573 353.849c-0.156 2.328-0.245 5.047-0.245 7.786 0 19.954 4.712 38.807 13.085 55.507l-0.325-0.715c13.904 18.821 30.265 34.82 48.825 47.909l0.668 0.447c13.524 10.783 25.020 23.364 34.33 37.513l0.372 0.603c8.212 12.715 13.092 28.251 13.092 44.926 0 0.406-0.003 0.811-0.009 1.215l0.001-0.061c0.063 1.044 0.099 2.265 0.099 3.495 0 15.429-5.635 29.541-14.959 40.392l0.069-0.082c-10.222 9.891-24.169 15.986-39.539 15.986-0.9 0-1.795-0.021-2.685-0.062l0.126 0.005c-0.336 0.007-0.732 0.011-1.129 0.011-14.157 0-27.106-5.171-37.062-13.728l0.075 0.063c-9.852-9.168-15.995-22.208-15.995-36.683 0-0.904 0.024-1.803 0.071-2.695l-0.005 0.125h-87.609c-0.199 2.427-0.313 5.253-0.313 8.106 0 32.931 15.124 62.329 38.806 81.627l0.191 0.151c26.443 19.645 59.731 31.449 95.776 31.449 2.53 0 5.046-0.058 7.547-0.173l-0.354 0.013c2.731 0.171 5.923 0.268 9.138 0.268 37.434 0 71.787-13.196 98.659-35.19l-0.277 0.22c23.912-21.92 38.849-53.298 38.849-88.165 0-2.206-0.060-4.397-0.178-6.574l0.013 0.303c0-0.024 0-0.053 0-0.081 0-26.836-8.524-51.681-23.012-71.976l0.256 0.378c-15.235-22.711-34.178-41.654-56.159-56.427l-0.73-0.462c-10.507-7.357-18.835-17.144-24.274-28.573l-0.189-0.441c-3.668-10.491-5.787-22.586-5.787-35.176 0-1.634 0.036-3.26 0.106-4.877l-0.008 0.23zM568.889 227.555h-89.884v76.231h89.884z" />
<glyph unicode="&#xf030;" glyph-name="home" d="M512 853.333l-455.111-398.222h170.667v-398.222h170.667v341.333h227.556v-341.333h170.667v398.222h170.667l-455.111 398.222z" />
<glyph unicode="&#xf031;" glyph-name="image" d="M796.444 853.333h-568.889c-62.838 0-113.778-50.94-113.778-113.778v0-568.889c0-62.838 50.94-113.778 113.778-113.778v0h568.889c62.838 0 113.778 50.94 113.778 113.778v0 568.889c0 62.838-50.94 113.778-113.778 113.778v0zM369.778 682.667c47.128 0 85.333-38.205 85.333-85.333s-38.205-85.333-85.333-85.333c-47.128 0-85.333 38.205-85.333 85.333v0c0 47.128 38.205 85.333 85.333 85.333v0zM568.889 227.555h-341.333l170.667 227.556 98.418-130.844 129.138 301.511 170.667-398.222z" />
<glyph unicode="&#xf032;" glyph-name="info" d="M512 910.222c-251.351 0-455.111-203.76-455.111-455.111s203.76-455.111 455.111-455.111c251.351 0 455.111 203.76 455.111 455.111v0c0 251.351-203.76 455.111-455.111 455.111v0zM512 113.778c-188.513 0-341.333 152.82-341.333 341.333s152.82 341.333 341.333 341.333c188.513 0 341.333-152.82 341.333-341.333v0c0-188.513-152.82-341.333-341.333-341.333v0zM455.111 512h113.778v-284.444h-113.778v284.444zM455.111 682.667h113.778v-113.778h-113.778v113.778z" />
<glyph unicode="&#xf033;" glyph-name="key" d="M455.111 512c0 62.838-50.94 113.778-113.778 113.778v0h-113.778c-62.838 0-113.778-50.94-113.778-113.778v0-113.778c0-62.838 50.94-113.778 113.778-113.778v0h113.778c62.838 0 113.778 50.94 113.778 113.778v0h170.667v-113.778h113.778v113.778h56.889v-113.778h113.778v227.556zM341.333 398.222h-113.778v113.778h113.778z" />
<glyph unicode="&#xf034;" glyph-name="like" d="M511.987 688.814c75.328 101.817 223.694 158.694 333.831 44.944 221.48-230.344-187.711-525.045-333.831-676.887-146.112 151.842-555.26 446.54-333.833 676.887 110.14 114.88 258.509 54.6 333.833-44.944z" />
<glyph unicode="&#xf035;" glyph-name="map" d="M512 739.555c62.898-0.087 119.617-26.469 159.768-68.74l0.090-0.096c42.081-44.518 67.952-104.745 67.952-171.015 0-54.291-17.363-104.527-46.84-145.457l0.506 0.738-10.809-13.653-170.667-177.493-157.582 162.702-13.084 14.791-11.378 15.929c-28.97 40.192-46.334 90.427-46.334 144.719 0 66.269 25.87 126.496 68.062 171.133l-0.111-0.118c40.124 41.091 96.076 66.574 157.979 66.574 0.861 0 1.72-0.005 2.578-0.015l-0.13 0.001zM512 853.333c-95.037-0.055-180.795-39.735-241.658-103.411l-0.12-0.127c-61.878-64.888-99.955-152.95-99.955-249.905 0-79.388 25.528-152.813 68.823-212.515l-0.726 1.051 34.702-35.84 238.933-252.587 275.911 284.444c42.569 58.651 68.097 132.076 68.097 211.464 0 96.955-38.076 185.018-100.091 250.049l0.136-0.144c-60.935 65.816-147.634 107.027-243.964 107.52h-0.090zM625.778 512c0-62.838-50.94-113.778-113.778-113.778s-113.778 50.94-113.778 113.778c0 62.838 50.94 113.778 113.778 113.778s113.778-50.94 113.778-113.778z" />
<glyph unicode="&#xf036;" glyph-name="money" d="M645.689 304.355c-28.755-17.616-63.347-28.473-100.388-29.575l-0.305-0.007v-47.218h-56.889v47.218c-39.695 1.708-76.345 13.329-107.971 32.429l1.020-0.572c-24.252 15.46-40.105 42.217-40.105 72.676 0 2.453 0.103 4.881 0.304 7.282l-0.021-0.314h99.556c-0.125-1.333-0.196-2.883-0.196-4.45 0-17.184 8.561-32.369 21.65-41.522l0.164-0.108c14.297-8.725 31.593-13.891 50.096-13.891 2.39 0 4.76 0.086 7.107 0.256l-0.315-0.018c1.68-0.119 3.64-0.186 5.616-0.186 15.75 0 30.497 4.296 43.133 11.779l-0.393-0.215c10.312 6.414 17.075 17.685 17.075 30.535 0 0.265-0.003 0.53-0.009 0.794l0.001-0.039c0.006 0.255 0.010 0.556 0.010 0.858 0 12.729-6.239 24-15.826 30.923l-0.112 0.077c-16.322 10.414-35.383 18.309-55.78 22.562l-1.108 0.193c-42.96 9.408-80.979 24.331-115.748 44.277l1.97-1.041c-23.569 12.979-39.273 37.655-39.273 65.999 0 0.597 0.007 1.193 0.021 1.787l-0.002-0.088c0.505 28.199 16.021 52.663 38.877 65.792l0.377 0.199c27.964 17.871 61.728 29.097 97.991 30.705l0.426 0.015v51.2h56.889v-51.769c36.494-2.033 69.617-14.972 96.563-35.58l-0.421 0.309c20.292-16.92 33.111-42.209 33.111-70.491 0-1.619-0.042-3.228-0.125-4.826l0.009 0.224h-100.693c0.054 0.925 0.084 2.006 0.084 3.095 0 15.951-6.565 30.369-17.14 40.698l-0.011 0.011c-11.389 9.616-26.234 15.46-42.444 15.46-1.279 0-2.55-0.036-3.811-0.108l0.175 0.008c-2.001 0.205-4.325 0.322-6.675 0.322-14.012 0-27.054-4.152-37.963-11.293l0.265 0.163c-9.047-7.147-14.801-18.117-14.801-30.431 0-0.302 0.003-0.602 0.010-0.902l-0.001 0.045c-0.002-0.131-0.003-0.286-0.003-0.441 0-12.218 6.018-23.031 15.252-29.635l0.11-0.075c16.353-10.206 35.383-18.076 55.691-22.535l1.198-0.221c43.051-10.152 81-25.414 115.842-45.469l-2.064 1.095c22.365-13.141 37.141-37.080 37.141-64.47 0-1.736-0.059-3.458-0.176-5.165l0.013 0.231c0.003-0.264 0.005-0.576 0.005-0.888 0-27.698-14.663-51.971-36.649-65.482l-0.334-0.191zM512 910.222c-251.351 0-455.111-203.76-455.111-455.111s203.76-455.111 455.111-455.111c251.351 0 455.111 203.76 455.111 455.111v0c0 251.351-203.76 455.111-455.111 455.111v0zM512 113.778c-188.513 0-341.333 152.82-341.333 341.333s152.82 341.333 341.333 341.333c188.513 0 341.333-152.82 341.333-341.333v0c0-188.513-152.82-341.333-341.333-341.333v0z" />
<glyph unicode="&#xf037;" glyph-name="music" d="M884.053 910.222c0.27 0.011 0.587 0.017 0.905 0.017 6.802 0 12.939-2.842 17.291-7.403l0.009-0.009c4.881-4.558 7.933-11.022 7.964-18.199v-538.744q0-100.693-123.449-113.778h-42.098c-3.124-0.167-6.782-0.262-10.462-0.262-43.156 0-83.262 13.058-116.583 35.439l0.752-0.475c-27.517 17.498-45.511 47.828-45.511 82.361 0 0.045 0 0.090 0 0.134v-0.007c2.587 36.475 24.924 67.176 56.286 81.67l0.603 0.25c37.868 21.201 83.096 33.686 131.24 33.686 2.862 0 5.713-0.044 8.553-0.132l-0.416 0.010h27.307v271.36c0 7.396 3.413 42.098-11.947 35.84l-307.2-56.889c-13.653-7.396-22.187-9.671-22.187-35.84v-508.587c0-65.991-44.942-103.538-127.431-113.778h-43.236c-3.306-0.183-7.175-0.287-11.069-0.287-43.259 0-83.518 12.841-117.175 34.92l0.812-0.5c-26.033 17.339-43.010 46.485-43.235 79.61v0.034c1.418 37.788 24.057 69.966 56.29 85.081l0.599 0.253c38.016 21.541 83.496 34.235 131.94 34.235 2.616 0 5.222-0.037 7.82-0.111l-0.382 0.009h19.911c6.827 0 2.844-4.551 9.671-5.12v454.542c-0.001 0.157-0.002 0.342-0.002 0.528 0 25.087 15.036 46.663 36.588 56.206l0.392 0.155z" />
<glyph unicode="&#xf038;" glyph-name="drag" d="M341.333 796.444h113.778v-113.778h-113.778v113.778zM341.333 512h113.778v-113.778h-113.778v113.778zM341.333 227.555h113.778v-113.778h-113.778v113.778zM568.889 796.444h113.778v-113.778h-113.778v113.778zM568.889 512h113.778v-113.778h-113.778v113.778zM568.889 227.555h113.778v-113.778h-113.778v113.778z" />
<glyph unicode="&#xf039;" glyph-name="percent" d="M351.004 133.689l-92.16 38.116 391.396 604.729 92.16-38.116-391.396-604.729zM815.218 354.987c-24.242 26.693-59.084 43.385-97.826 43.385-2.209 0-4.406-0.054-6.588-0.162l0.307 0.012c-1.637 0.073-3.556 0.115-5.486 0.115-38.915 0-73.879-16.915-97.942-43.794l-0.11-0.125c-24.054-27.446-38.728-63.637-38.728-103.256 0-1.299 0.016-2.595 0.047-3.887l-0.004 0.192v-39.253c-0.053-1.516-0.083-3.298-0.083-5.086 0-39.266 14.466-75.154 38.36-102.624l-0.162 0.19c24.337-26.706 59.264-43.399 98.090-43.399 2.316 0 4.619 0.059 6.906 0.177l-0.321-0.013c1.857-0.094 4.032-0.148 6.22-0.148 38.584 0 73.266 16.7 97.215 43.267l0.104 0.117c23.741 27.357 38.209 63.318 38.209 102.659 0 1.91-0.034 3.811-0.102 5.704l0.008-0.274v39.253c0.038 1.29 0.060 2.809 0.060 4.332 0 39.322-14.455 75.268-38.341 102.815l0.166-0.195zM775.396 208.213c0.072-1.368 0.113-2.971 0.113-4.583 0-19.523-5.996-37.645-16.248-52.626l0.207 0.32c-10.511-13.267-26.621-21.702-44.701-21.702-1.085 0-2.164 0.030-3.234 0.090l0.149-0.007c-0.669-0.028-1.454-0.044-2.242-0.044-18.567 0-35.057 8.895-45.44 22.656l-0.104 0.144c-10.74 14.376-17.196 32.498-17.196 52.128 0 1.675 0.047 3.338 0.14 4.99l-0.010-0.229v39.253c-0.076 1.386-0.119 3.008-0.119 4.64 0 19.585 6.225 37.717 16.803 52.524l-0.186-0.275c10.488 13.894 26.971 22.781 45.53 22.781 0.594 0 1.185-0.009 1.774-0.027l-0.086 0.002c0.669 0.028 1.454 0.044 2.242 0.044 18.567 0 35.057-8.895 45.44-22.656l0.104-0.144c10.727-14.56 17.167-32.852 17.167-52.649 0-1.491-0.037-2.974-0.109-4.447l0.008 0.207zM416.996 810.098c-24.242 26.693-59.084 43.385-97.826 43.385-2.209 0-4.406-0.054-6.588-0.162l0.307 0.012c-1.637 0.073-3.556 0.115-5.486 0.115-38.915 0-73.879-16.915-97.942-43.794l-0.11-0.125c-24.054-27.446-38.728-63.637-38.728-103.256 0-1.299 0.016-2.595 0.047-3.887l-0.004 0.192v-39.253c-0.053-1.516-0.083-3.298-0.083-5.086 0-39.266 14.466-75.154 38.36-102.624l-0.162 0.19c24.365-27.028 59.499-43.945 98.583-43.945 2.143 0 4.274 0.051 6.392 0.151l-0.299-0.011c1.857-0.094 4.032-0.148 6.22-0.148 38.584 0 73.266 16.7 97.215 43.267l0.104 0.117c23.73 27.354 38.191 63.307 38.191 102.638 0 1.717-0.028 3.427-0.082 5.13l0.006-0.248v39.822c0.048 1.455 0.076 3.165 0.076 4.882 0 39.331-14.461 75.284-38.357 102.833l0.165-0.195zM377.173 663.324c0.072-1.368 0.113-2.971 0.113-4.583 0-19.523-5.996-37.645-16.248-52.626l0.207 0.32c-10.511-13.267-26.621-21.702-44.701-21.702-1.085 0-2.164 0.030-3.234 0.090l0.149-0.007c-0.669-0.028-1.454-0.044-2.242-0.044-18.567 0-35.057 8.895-45.44 22.656l-0.104 0.144c-10.74 14.376-17.196 32.498-17.196 52.128 0 1.675 0.047 3.338 0.14 4.99l-0.010-0.229v38.116c-0.076 1.386-0.119 3.008-0.119 4.64 0 19.585 6.225 37.717 16.803 52.524l-0.186-0.275c10.488 13.894 26.971 22.781 45.53 22.781 0.594 0 1.185-0.009 1.774-0.027l-0.086 0.002c0.669 0.028 1.454 0.044 2.242 0.044 18.567 0 35.057-8.895 45.44-22.656l0.104-0.144c10.727-14.56 17.167-32.852 17.167-52.649 0-1.491-0.037-2.974-0.109-4.447l0.008 0.207z" />
<glyph unicode="&#xf03a;" glyph-name="photo" d="M682.667 398.222c0-94.257-76.41-170.667-170.667-170.667s-170.667 76.41-170.667 170.667c0 94.257 76.41 170.667 170.667 170.667s170.667-76.41 170.667-170.667zM910.222 682.667h-170.667l-56.889 113.778h-341.333l-56.889-113.778h-170.667c-31.419 0-56.889-25.47-56.889-56.889v0-512c0-31.419 25.47-56.889 56.889-56.889v0h796.444c31.419 0 56.889 25.47 56.889 56.889v0 512c0 31.419-25.47 56.889-56.889 56.889v0zM512 139.947c-142.642 0-258.276 115.634-258.276 258.276s115.634 258.276 258.276 258.276c142.642 0 258.276-115.634 258.276-258.276v0c0-142.642-115.634-258.276-258.276-258.276v0z" />
<glyph unicode="&#xf03b;" glyph-name="preferences" d="M897.138 535.893l-76.8 6.258c-7.895 26.109-17.755 48.731-29.872 69.894l0.859-1.628 49.493 56.889c1.714 2.755 2.762 6.083 2.844 9.649v0.023c0.012 0.221 0.018 0.479 0.018 0.739 0 4.471-1.984 8.479-5.12 11.191l-0.019 0.016-91.022 90.453c-2.968 3.317-7.186 5.462-11.908 5.687l-0.039 0.001c-3.21-0.081-6.158-1.135-8.579-2.876l0.046 0.031-56.889-48.924c-19.631 10.91-42.448 20.58-66.33 27.794l-2.506 0.65-6.827 76.231c0.001 0.079 0.002 0.173 0.002 0.266 0 8.483-6.877 15.36-15.36 15.36-1.007 0-1.991-0.097-2.944-0.282l0.097 0.016h-128.569c-0.218 0.011-0.473 0.017-0.73 0.017-8 0-14.623-5.898-15.757-13.583l-0.011-0.087-6.827-76.231c-26.34-7.742-49.165-17.419-70.575-29.333l1.739 0.888-56.889 48.924c-2.422 1.579-5.337 2.607-8.473 2.841l-0.060 0.004c-4.76-0.227-8.979-2.372-11.932-5.673l-0.014-0.016-93.298-90.453c-3.426-2.888-5.609-7.154-5.689-11.933v-0.014c0-0.020 0-0.043 0-0.067 0-3.571 1.061-6.894 2.886-9.671l-0.041 0.067 49.493-56.889c-11.598-19.629-21.312-42.312-27.97-66.267l-0.474-2-76.8-6.258c-7.261-1.834-12.549-8.309-12.549-16.018 0-0.369 0.012-0.735 0.036-1.098l-0.003 0.049v-128.569c-0.075-0.56-0.118-1.207-0.118-1.865 0-7.408 5.445-13.543 12.552-14.623l0.082-0.010 76.8-6.827c7.545-25.835 17.227-48.289 29.253-69.226l-0.809 1.528-49.493-56.889c-1.645-2.775-2.681-6.086-2.843-9.625l-0.002-0.046c0.319-4.563 2.449-8.574 5.668-11.36l0.021-0.018 91.022-90.453c2.722-3.346 6.78-5.515 11.349-5.688l0.028-0.001c3.585 0.163 6.896 1.199 9.769 2.898l-0.098-0.054 56.889 48.924c19.782-11.526 42.65-21.238 66.767-27.953l2.068-0.492 6.258-76.8c1.387-7.5 7.877-13.106 15.677-13.106 0.289 0 0.576 0.008 0.861 0.023l-0.040-0.002h128.569c0.389-0.035 0.842-0.055 1.299-0.055 7.7 0 14.076 5.665 15.188 13.055l0.010 0.085 6.827 76.8c26.033 7.471 48.686 17.161 69.79 29.248l-1.524-0.804 56.889-48.924c2.375-1.709 5.324-2.763 8.514-2.844h0.020c4.76 0.227 8.979 2.372 11.932 5.673l0.014 0.016 91.022 90.453c3.077 2.847 5.025 6.876 5.12 11.361v0.017c-0.163 3.585-1.199 6.896-2.898 9.769l0.054-0.098-49.493 56.889c5.884 9.378 11.421 20.236 15.996 31.585l0.502 1.411q6.827 17.067 12.516 35.271l76.8 6.827c7.474 1.123 13.139 7.499 13.139 15.199 0 0.457-0.020 0.91-0.059 1.357l0.004-0.058v126.293c0.123 0.756 0.193 1.627 0.193 2.514 0 6.266-3.494 11.716-8.639 14.509l-0.087 0.043zM632.604 333.938c-29.793-30.566-71.367-49.525-117.37-49.525-1.137 0-2.272 0.012-3.404 0.035l0.169-0.003c-94.257 0-170.667 76.41-170.667 170.667v0c0 94.257 76.41 170.667 170.667 170.667v0c0.801 0.014 1.746 0.022 2.693 0.022 46.277 0 88.072-19.186 117.866-50.037l0.046-0.048c30.904-30.106 50.074-72.126 50.074-118.625 0-0.696-0.004-1.391-0.013-2.086l0.001 0.106c0.012-0.756 0.020-1.648 0.020-2.541 0-46.502-19.173-88.526-50.046-118.597l-0.036-0.035z" />
<glyph unicode="&#xf03c;" glyph-name="product" d="M625.778 398.222h-227.556v113.778h-284.444v-455.111h796.444v455.111h-284.444v-113.778zM739.556 682.667v170.667h-455.111v-170.667h-170.667v-113.778h796.444v113.778zM625.778 682.667h-227.556v56.889h227.556z" />
<glyph unicode="&#xf03d;" glyph-name="refresh" d="M790.756 398.222c-27.392-130.763-141.741-227.556-278.698-227.556-0.020 0-0.041 0-0.061 0h0.003c-78.414 0.097-149.29 32.294-200.207 84.153l-0.042 0.043 143.36 143.36h-341.333v-341.333l117.76 117.76c71.938-71.326 170.994-115.4 280.343-115.4 199.023 0 363.945 146.001 393.505 336.741l0.285 2.233zM233.244 512c27.392 130.763 141.741 227.556 278.698 227.556 0.020 0 0.041 0 0.061 0h-0.003c78.414-0.097 149.29-32.294 200.207-84.153l0.042-0.043-143.36-143.36h341.333v341.333l-117.76-117.76c-71.938 71.326-170.994 115.4-280.343 115.4-199.023 0-363.945-146.001-393.505-336.741l-0.285-2.233z" />
<glyph unicode="&#xf03e;" glyph-name="trash" d="M227.556 625.778h568.889v-455.111c0-62.838-50.94-113.778-113.778-113.778v0h-341.333c-62.838 0-113.778 50.94-113.778 113.778v0 455.111zM625.778 796.444v56.889h-227.556v-56.889h-227.556v-113.778h682.667v113.778h-227.556z" />
<glyph unicode="&#xf03f;" glyph-name="chevrondoubleright" d="M455.111 130.275l310.613 324.836-310.613 324.836 73.956 73.387 381.156-398.222-381.156-398.222-73.956 73.387zM113.778 130.275l310.613 324.836-310.613 324.836 73.956 73.387 381.156-398.222-381.156-398.222-73.956 73.387z" />
<glyph unicode="&#xf040;" glyph-name="runner" d="M725.333 717.938c-0.272-0.003-0.594-0.005-0.917-0.005-25.584 0-48.672 10.689-65.041 27.845l-0.034 0.035c-16.541 16.739-26.759 39.759-26.759 65.166 0 0.69 0.008 1.379 0.023 2.066l-0.002-0.102c-0.015 0.624-0.024 1.359-0.024 2.096 0 25.186 10.229 47.983 26.76 64.462l0.002 0.002c16.94 17.238 40.503 27.92 66.56 27.92s49.62-10.682 66.547-27.907l0.013-0.013c16.534-16.222 26.781-38.8 26.781-63.771 0-0.981-0.016-1.958-0.047-2.931l0.004 0.142c0.010-0.516 0.016-1.125 0.016-1.735 0-25.478-10.212-48.57-26.767-65.407l0.013 0.013c-16.494-17.203-39.664-27.893-65.33-27.893-0.632 0-1.263 0.006-1.893 0.019l0.094-0.002zM393.102 393.102c8.281-18.728 21.139-34.145 37.193-45.279l0.353-0.232 44.373-30.151-76.8-75.662v-3.413c-6.339-6.684-15.283-10.843-25.199-10.843-0.541 0-1.080 0.012-1.615 0.037l0.076-0.003h-225.28c-0.088-0.001-0.193-0.001-0.297-0.001-10.405 0-19.79 4.365-26.425 11.363l-0.015 0.016c-6.674 6.515-10.813 15.601-10.813 25.654 0 0.181 0.001 0.362 0.004 0.542v-0.027c-0.012 0.347-0.018 0.754-0.018 1.163 0 10.209 4.138 19.453 10.827 26.144v0c6.293 6.362 15.024 10.301 24.675 10.301 0.726 0 1.446-0.022 2.161-0.066l-0.098 0.005h201.387zM930.133 528.498c0.112 0.001 0.244 0.002 0.376 0.002 10.275 0 19.586-4.127 26.366-10.815l-0.004 0.004c6.362-6.293 10.301-15.024 10.301-24.675 0-0.726-0.022-1.446-0.066-2.161l0.005 0.098c0.008-0.284 0.012-0.619 0.012-0.955 0-9.992-3.903-19.073-10.269-25.8l0.016 0.017c-6.65-7.014-16.036-11.379-26.441-11.379-0.104 0-0.209 0-0.313 0.001h-117.744c-3.387-0.397-7.311-0.624-11.287-0.624-14.851 0-28.963 3.161-41.701 8.848l0.65-0.259c-3.839 3.671-7.379 7.57-10.628 11.708l-0.181 0.239-16.498 21.049-39.253 56.889c-3.848 5.247-9.687 8.838-16.382 9.66l-0.116 0.012c-7.395-0.311-13.657-4.853-16.451-11.257l-0.047-0.121-65.991-113.209c-3.223-5.525-5.126-12.162-5.126-19.243 0-0.235 0.002-0.469 0.006-0.703v0.035c-0.13-0.855-0.204-1.841-0.204-2.844s0.074-1.99 0.218-2.953l-0.013 0.109c0.603-9.383 4.619-17.727 10.808-23.892l95.005-95.005c6.674-6.556 10.943-15.541 11.375-25.521l0.003-0.079c-0.306-6.475-1.953-12.497-4.667-17.89l0.116 0.255-113.778-227.556c-5.432-12.503-17.674-21.088-31.92-21.088-0.578 0-1.153 0.014-1.725 0.042l0.080-0.003c-0.070 0-0.154-0.001-0.237-0.001-6.136 0-11.928 1.472-17.042 4.081l0.213-0.098c-8.776 4.621-15.327 12.47-18.139 21.929l-0.066 0.258c-0.452 1.88-0.711 4.039-0.711 6.258s0.259 4.378 0.749 6.447l-0.038-0.189c-0.039 0.627-0.061 1.36-0.061 2.099 0 6.090 1.495 11.83 4.138 16.875l-0.096-0.2 102.4 200.249-3.413 2.844-170.667 117.76c-16.093 8.475-27.486 24.005-30.115 42.363l-0.036 0.304c-0.237 2.557-0.373 5.529-0.373 8.533s0.135 5.977 0.4 8.912l-0.028-0.378c-0.001 0.165-0.002 0.36-0.002 0.556 0 12.828 3.598 24.816 9.84 35.009l-0.167-0.293 100.124 164.409c2.686 4.388 4.352 9.66 4.55 15.305l0.002 0.055c0.126 1.025 0.198 2.211 0.198 3.413s-0.072 2.389-0.211 3.554l0.014-0.141c-2.621 7.793-8.112 14.025-15.185 17.557l-0.175 0.079-42.667 21.049c-6.64 3.303-14.42 5.368-22.649 5.686l-0.107 0.003c-11.704-0.439-22.345-4.656-30.823-11.457l0.103 0.080-106.382-80.213c-5.32-4.317-12.174-6.931-19.638-6.931-0.897 0-1.785 0.038-2.663 0.112l0.115-0.008c-0.422-0.018-0.917-0.028-1.415-0.028-11.809 0-22.263 5.804-28.664 14.714l-0.072 0.105c-4.28 5.237-6.873 11.999-6.873 19.366 0 0.592 0.017 1.18 0.050 1.764l-0.004-0.081c-0.106 0.939-0.166 2.027-0.166 3.129s0.060 2.19 0.178 3.261l-0.012-0.132c0.803 10.247 5.945 19.151 13.569 24.969l0.084 0.062 125.724 94.436c13.588 12.339 30.578 21.167 49.399 24.921l0.664 0.11c15.662-3.047 29.59-8.585 42.077-16.241l-0.548 0.313 122.311-56.889 75.662-36.409c35.3-36.852 66.555-78.068 92.747-122.618l1.689-3.106c10.325-15.525 27.745-25.617 47.523-25.617 0.493 0 0.984 0.006 1.474 0.019l-0.073-0.001z" />
<glyph unicode="&#xf041;" glyph-name="save" d="M113.778 739.555v-568.889c0-62.838 50.94-113.778 113.778-113.778v0h568.889c62.838 0 113.778 50.94 113.778 113.778v0 568.889c0 62.838-50.94 113.778-113.778 113.778v0h-568.889c-62.838 0-113.778-50.94-113.778-113.778v0zM284.444 739.555h113.778v-170.667h-113.778zM796.444 170.667h-568.889v284.444h568.889z" />
<glyph unicode="&#xf042;" glyph-name="chevrondoubleleft" d="M568.889 130.275l-310.613 324.836 310.613 324.836-73.956 73.387-381.156-398.222 381.156-398.222 73.956 73.387zM910.222 130.275l-310.613 324.836 310.613 324.836-73.956 73.387-381.156-398.222 381.156-398.222 73.956 73.387z" />
<glyph unicode="&#xf043;" glyph-name="eventall" d="M113.778 739.555v-568.889c0-62.756 51.022-113.778 113.778-113.778v0h568.889c62.756 0 113.778 51.022 113.778 113.778v0 568.889c0 62.756-51.022 113.778-113.778 113.778v0h-568.889c-62.756 0-113.778-51.022-113.778-113.778v0zM796.444 170.667h-568.889v455.111h568.889v-455.111zM227.556 910.222h113.778v-56.889h-113.778v56.889zM682.667 910.222h113.778v-56.889h-113.778v56.889z" />
<glyph unicode="&#xf044;" glyph-name="equal" d="M146.286 512v73.143h731.429v-73.143h-731.429zM146.286 292.571v73.143h731.429v-73.143h-731.429z" />
<glyph unicode="&#xf045;" glyph-name="notequal" d="M775.314 804.571h-94.354l-122.88-219.429h-411.794v-73.143h370.103l-81.92-146.286h-288.183v-73.143h247.223l-123.611-219.429h94.354l123.611 219.429h389.851v73.143h-348.891l81.92 146.286h266.971v73.143h-225.28l122.88 219.429z" />
<glyph unicode="&#xf046;" glyph-name="less" d="M796.444 227.799l-481.28 211.058 481.28 211.058-73.956 73.387-551.822-284.444 551.822-284.444 73.956 73.387z" />
<glyph unicode="&#xf047;" glyph-name="greater" d="M227.556 227.799l481.28 211.058-481.28 211.058 73.956 73.387 551.822-284.444-551.822-284.444-73.956 73.387z" />
<glyph unicode="&#xf048;" glyph-name="lessorequal" d="M796.444 341.577l-481.28 211.058 481.28 211.058-73.956 73.387-551.822-284.444 551.822-284.444 73.956 73.387zM796.444 114.021l-568.889 267.947-56.889-56.889 551.822-284.444 73.956 73.387z" />
<glyph unicode="&#xf049;" glyph-name="greaterorequal" d="M227.556 341.577l481.28 211.058-481.28 211.058 73.956 73.387 551.822-284.444-551.822-284.444-73.956 73.387zM227.556 114.021l568.889 267.947 56.889-56.889-551.822-284.444-73.956 73.387z" />
<glyph unicode="&#xf04a;" glyph-name="expand" d="M568.889 682.667v-170.667h-113.778v170.667h-113.778l170.667 170.667 170.667-170.667h-113.778zM682.667 227.555l-170.667-170.667-170.667 170.667h113.778v170.667h113.778v-170.667h113.778z" />
<glyph unicode="&#xf04b;" glyph-name="collapse" d="M568.889 682.667v170.667h-113.778v-170.667h-113.778l170.667-170.667 170.667 170.667h-113.778zM682.667 227.555l-170.667 170.667-170.667-170.667h113.778v-170.667h113.778v170.667h113.778z" />
<glyph unicode="&#xf04c;" glyph-name="revert" d="M512 853.333c-109.778-0.235-208.999-45.237-280.415-117.712l-0.047-0.048-117.76 117.76v-341.333h341.333l-143.36 143.36c50.959 51.902 121.834 84.099 200.23 84.196h0.019c157.094 0 284.444-127.35 284.444-284.444s-127.35-284.444-284.444-284.444v0-113.778c219.932 0 398.222 178.29 398.222 398.222s-178.29 398.222-398.222 398.222v0z" />
<glyph unicode="&#xf04d;" glyph-name="columnchooser" d="M56.889 170.667h455.111v-170.667h455.111v625.778h-227.556v227.556h-682.667zM625.778 170.667h227.556v-56.889h-227.556zM625.778 341.333h227.556v-56.889h-227.556zM625.778 512h227.556v-56.889h-227.556zM170.667 739.555h455.111v-113.778h-113.778v-341.333h-341.333z" />
<glyph unicode="&#xf04e;" glyph-name="spinright" d="M625.778 455.111l-227.556-227.556v455.111l227.556-227.556z" />
<glyph unicode="&#xf04f;" glyph-name="spinleft" d="M398.222 455.111l227.556-227.556v455.111l-227.556-227.556z" />
<glyph unicode="&#xf050;" glyph-name="filter" d="M113.778 853.333v-197.936c0-18.564 9.057-35.96 24.265-46.606l260.179-182.125v-369.778h227.556v369.778l260.187 182.13c15.201 10.643 24.257 28.033 24.263 46.591l0.051 197.945h-796.501z" />
<glyph unicode="&#xf051;" glyph-name="sortup" d="M512 731.428v-804.571h-73.143v804.571h-146.286l182.857 219.429 182.857-219.429h-146.286z" />
<glyph unicode="&#xf052;" glyph-name="sortdown" d="M512 146.286v804.571h-73.143v-804.571h-146.286l182.857-219.429 182.857 219.429h-146.286z" />
<glyph unicode="&#xf053;" glyph-name="sortuptext" d="M804.571 731.428v-804.571h-73.143v804.571h-146.286l182.857 219.429 182.857-219.429h-146.286zM365.714 0h73.143l-109.714 365.714h-73.143l-109.714-365.714h73.143l16.823 73.143h111.909zM253.074 146.286l39.497 166.034 38.034-166.034zM438.857 877.714h-292.571v-73.143h205.531l-205.531-219.429v-73.143h292.571v73.143h-205.531l205.531 219.429v73.143z" />
<glyph unicode="&#xf054;" glyph-name="sortdowntext" d="M804.571 146.286v804.571h-73.143v-804.571h-146.286l182.857-219.429 182.857 219.429h-146.286zM365.714 0h73.143l-109.714 365.714h-73.143l-109.714-365.714h73.143l16.823 73.143h111.909zM253.074 146.286l39.497 166.034 38.034-166.034zM438.857 877.714h-292.571v-73.143h205.531l-205.531-219.429v-73.143h292.571v73.143h-205.531l205.531 219.429v73.143z" />
<glyph unicode="&#xf055;" glyph-name="sorted" d="M365.714 731.428v-804.571h-73.143v804.571h-146.286l182.857 219.429 182.857-219.429h-146.286zM731.429 146.286v804.571h-73.143v-804.571h-146.286l182.857-219.429 182.857 219.429h-146.286z" />
<glyph unicode="&#xf056;" glyph-name="formula" d="M796.444 853.333h-568.889v-113.778l216.178-284.444-216.178-284.444v-113.778h568.889v113.778h-415.289l199.111 284.444-199.111 284.444h415.289v113.778z" />
<glyph unicode="&#xf057;" glyph-name="columnfield" d="M682.667 853.333h227.556v-227.556h-227.556v227.556zM113.778 853.333h227.556v-227.556h-227.556v227.556zM682.667 568.889h227.556v-227.556h-227.556v227.556zM113.778 568.889h227.556v-227.556h-227.556v227.556zM682.667 284.444h227.556v-227.556h-227.556v227.556zM113.778 284.444h227.556v-227.556h-227.556v227.556zM398.222 853.333v-796.444h227.556v796.444zM568.889 113.778h-113.778v682.667h113.778z" />
<glyph unicode="&#xf058;" glyph-name="rowfield" d="M113.778 625.778v227.556h227.556v-227.556h-227.556zM113.778 56.889v227.556h227.556v-227.556h-227.556zM398.222 625.778v227.556h227.556v-227.556h-227.556zM398.222 56.889v227.556h227.556v-227.556h-227.556zM682.667 625.778v227.556h227.556v-227.556h-227.556zM682.667 56.889v227.556h227.556v-227.556h-227.556zM113.778 341.333h796.444v227.556h-796.444zM853.333 512v-113.778h-682.667v113.778z" />
<glyph unicode="&#xf059;" glyph-name="fields" d="M796.444 739.555v-113.778h-568.889v113.778h568.889zM910.222 853.333h-796.444v-341.333h796.444v341.333zM796.444 341.333v-113.778h-568.889v113.778h568.889zM910.222 455.111h-796.444v-341.333h796.444v341.333z" />
<glyph unicode="&#xf05a;" glyph-name="fieldchooser" d="M796.444 739.555v-113.778h-568.889v113.778h568.889zM910.222 853.333h-796.444v-341.333h796.444v341.333zM455.111 227.555h-227.556v113.778h625.778v113.778h-739.556v-341.333h341.333v113.778zM1024 287.858l-49.493 51.2-276.48-282.169-136.533 137.671-49.493-51.2 186.027-194.56 325.973 339.058z" />
<glyph unicode="&#xf05b;" glyph-name="pin" d="M910.222 512h-398.222v227.556h-113.778v-113.778h-284.444v-341.333h284.444v-113.778h113.778v227.556h398.222v113.778z" />
<glyph unicode="&#xf05c;" glyph-name="unpin" d="M853.333 512h-341.333v227.556h-113.778v-113.778h-284.444v-341.333h284.444v-113.778h113.778v227.556h398.222v113.778zM398.222 398.222h-170.667v113.778h170.667z" />
<glyph unicode="&#xf05d;" glyph-name="pinleft" d="M113.778 853.333h341.333v-796.444h-341.333v796.444zM512 853.333v-113.778h284.444v-568.889h-284.444v-113.778h398.222v796.444h-398.222z" />
<glyph unicode="&#xf05e;" glyph-name="pinright" d="M910.222 56.889h-341.333v796.444h341.333v-796.444zM512 853.333v-113.778h-284.444v-568.889h284.444v-113.778h-398.222v796.444h398.222z" />
<glyph unicode="&#xf05f;" glyph-name="export" d="M284.444 170.667v568.889h284.444l113.778 113.778h-455.111c-31.419 0-56.889-25.47-56.889-56.889v-682.667c0-31.42 25.47-56.889 56.889-56.889h568.889c31.42 0 56.889 25.469 56.889 56.889v284.444h-113.778v-227.556h-455.111zM1023.869 625.778l-170.667-170.667v113.778h-113.647c-0.046 0-0.091 0-0.137 0-110.546 0-247.954-53.708-255.657-213.311-0.378-7.845-6.707-14.245-14.562-14.245s-14.238 6.423-14.086 14.279c4.028 208.364 97.155 327.054 284.305 327.054 0 0 0 0 0.006 0v0h113.778v113.778l170.667-170.667z" />
<glyph unicode="&#xf060;" glyph-name="exportxlsx" d="M284.444 170.667v568.889h351.095l104.016-104.017v-9.76h113.778v33.325c0 15.088-5.996 29.558-16.663 40.226l-137.341 137.342c-10.667 10.668-25.139 16.662-40.226 16.662h-431.548c-31.419 0-56.889-25.47-56.889-56.889v-682.667c0-31.42 25.47-56.889 56.889-56.889h568.889c31.42 0 56.889 25.469 56.889 56.889v56.889h-568.889zM512 568.889h142.222l284.444-341.333h-142.222l-284.444 341.333zM820.15 426.667l118.517 142.222h-142.222l-47.406-56.889 71.111-85.333zM512 227.555l116.184 139.418 72.112-84.133-46.074-55.285h-142.222z" />
<glyph unicode="&#xf061;" glyph-name="exportpdf" d="M284.444 170.667v568.889h351.095l104.016-104.017v-9.76h113.778v33.325c0 15.088-5.996 29.558-16.663 40.226l-137.341 137.342c-10.667 10.668-25.139 16.662-40.226 16.662h-431.548c-31.419 0-56.889-25.47-56.889-56.889v-682.667c0-31.42 25.47-56.889 56.889-56.889h568.889c31.42 0 56.889 25.469 56.889 56.889v56.889h-568.889zM568.889 682.667l312.889-369.778-483.556-85.333 170.667 455.111zM625.778 455.111l-56.889-113.778 142.222 28.444-85.333 85.333z" />
<glyph unicode="&#xf062;" glyph-name="pulldown" d="M910.222 512v341.333l-117.76-117.76c-71.95 71.392-171.050 115.511-280.456 115.511-219.932 0-398.222-178.29-398.222-398.222s178.29-398.222 398.222-398.222c219.932 0 398.222 178.29 398.222 398.222 0 0.791-0.002 1.581-0.007 2.37l0.001-0.121h-113.778c0-157.094-127.35-284.444-284.444-284.444s-284.444 127.35-284.444 284.444c0 157.094 127.35 284.444 284.444 284.444v0c78.414-0.097 149.29-32.294 200.207-84.153l0.042-0.043-143.36-143.36z" />
<glyph unicode="&#xf063;" glyph-name="contains" d="M196.754 170.585l-4.389 43.886c-20.333-31.442-55.219-51.957-94.896-51.957-0.838 0-1.674 0.009-2.508 0.027l0.124-0.002c-0.504-0.010-1.099-0.015-1.696-0.015-51.706 0-93.623 41.916-93.623 93.623 0 2.322 0.085 4.624 0.251 6.903l-0.018-0.305c0 83.383 66.56 129.463 186.514 128.731v7.314c0 28.526-7.314 80.457-73.143 80.457-29.195-0.465-56.209-9.41-78.797-24.472l0.534 0.335-12.434 40.229c28.267 20.322 63.503 32.609 101.594 32.914h0.074c95.086 0 118.491-73.143 118.491-146.286v-128c-0.043-2.55-0.068-5.559-0.068-8.573 0-26.387 1.886-52.334 5.53-77.713l-0.342 2.903zM187.977 347.591c-61.44 0-131.657-10.971-131.657-78.263-0.259-1.977-0.408-4.263-0.408-6.584 0-29.489 23.905-53.394 53.394-53.394 0.143 0 0.286 0.001 0.429 0.002h-0.022c35.145 1.204 64.319 25.404 73.019 57.967l0.124 0.547c0.426 2.966 0.67 6.392 0.67 9.874s-0.243 6.908-0.714 10.261l0.044-0.386zM512 455.111c-42.575-1.372-77.583-32.123-85.485-72.575l-0.092-0.568c-0.383-3.619-0.601-7.818-0.601-12.069s0.218-8.45 0.645-12.587l-0.043 0.519v-58.514c-0.297-3.178-0.467-6.872-0.467-10.606s0.17-7.428 0.501-11.075l-0.034 0.469c6.776-40.886 41.278-71.872 83.253-73.14l0.13-0.003c58.514 0 92.891 50.469 92.891 125.806s-31.451 124.343-90.697 124.343zM292.571 747.682v-658.286h438.857v658.286zM520.777 162.54c-1.416-0.066-3.075-0.104-4.744-0.104-42.806 0-79.809 24.846-97.374 60.902l-0.282 0.642v-54.126h-52.663c0 21.943 0 55.589 0 84.114v395.703h54.857v-205.531c19.281 36.008 56.643 60.087 99.629 60.087 1.746 0 3.484-0.040 5.211-0.118l-0.245 0.009c73.143 0 129.463-67.291 129.463-166.766 3.657-117.029-65.097-174.811-133.851-174.811zM1024 183.020c-23.187-12.909-50.861-20.508-80.309-20.508-1.081 0-2.159 0.010-3.235 0.031l0.161-0.002c-87.771 0-146.286 73.143-146.286 177.737-1.147 7.282-1.802 15.679-1.802 24.23 0 88.548 70.244 160.689 158.048 163.74l0.279 0.008c0.299 0.002 0.653 0.003 1.007 0.003 26.436 0 51.29-6.775 72.919-18.684l-0.783 0.395-11.703-54.857c-17.063 12.31-38.384 19.705-61.429 19.749h-0.011c-66.56 0-102.4-59.246-102.4-131.657s43.154-130.194 100.937-130.194c0.001 0 0.003 0 0.004 0 23.98 0 46.438 6.52 65.697 17.884l-0.604-0.33z" />
<glyph unicode="&#xf064;" glyph-name="startswith" d="M0 747.682v-658.286h731.429v658.286zM269.897 170.585l-4.389 43.886c-20.333-31.442-55.219-51.957-94.896-51.957-0.838 0-1.674 0.009-2.508 0.027l0.124-0.002c-0.504-0.010-1.099-0.015-1.696-0.015-51.706 0-93.623 41.916-93.623 93.623 0 2.322 0.085 4.624 0.251 6.903l-0.018-0.305c0 84.114 66.56 130.194 186.514 129.463v7.314c0 28.526-7.314 80.457-73.143 80.457-29.274-0.699-56.268-9.892-78.772-25.195l0.509 0.327-13.166 41.691c28.205 19.688 63.208 31.457 100.959 31.457 0.507 0 1.013-0.002 1.519-0.006l-0.078 0.001c95.086 0 118.491-73.143 118.491-146.286v-128c-0.043-2.55-0.068-5.559-0.068-8.573 0-26.387 1.886-52.334 5.53-77.713l-0.342 2.903zM520.777 162.54c-1.416-0.066-3.075-0.104-4.744-0.104-42.806 0-79.809 24.846-97.374 60.902l-0.282 0.642v-54.126h-52.663c0 21.943 0 55.589 0 84.114v395.703h54.857v-205.531c19.281 36.008 56.643 60.087 99.629 60.087 1.746 0 3.484-0.040 5.211-0.118l-0.245 0.009c73.143 0 129.463-67.291 129.463-166.766 3.657-117.029-65.097-174.811-133.851-174.811zM129.463 269.328c-0.259-1.977-0.408-4.263-0.408-6.584 0-29.489 23.905-53.394 53.394-53.394 0.143 0 0.286 0.001 0.429 0.002h-0.022c35.145 1.204 64.319 25.404 73.019 57.967l0.124 0.547c0.426 2.966 0.67 6.392 0.67 9.874s-0.243 6.908-0.714 10.261l0.044-0.386v59.977c-56.32 1.463-126.537-10.24-126.537-78.263zM512 455.111c-42.575-1.372-77.583-32.123-85.485-72.575l-0.092-0.568c-0.383-3.619-0.601-7.818-0.601-12.069s0.218-8.45 0.645-12.587l-0.043 0.519v-58.514c-0.297-3.178-0.467-6.872-0.467-10.606s0.17-7.428 0.501-11.075l-0.034 0.469c6.776-40.886 41.278-71.872 83.253-73.14l0.13-0.003c58.514 0 92.891 50.469 92.891 125.806s-31.451 124.343-90.697 124.343zM1024 183.020c-23.187-12.909-50.861-20.508-80.309-20.508-1.081 0-2.159 0.010-3.235 0.031l0.161-0.002c-87.771 0-146.286 73.143-146.286 177.737-1.147 7.282-1.802 15.679-1.802 24.23 0 88.548 70.244 160.689 158.048 163.74l0.279 0.008c0.299 0.002 0.653 0.003 1.007 0.003 26.436 0 51.29-6.775 72.919-18.684l-0.783 0.395-11.703-54.857c-17.063 12.31-38.384 19.705-61.429 19.749h-0.011c-66.56 0-102.4-59.246-102.4-131.657s43.154-130.194 100.937-130.194c0.001 0 0.003 0 0.004 0 23.98 0 46.438 6.52 65.697 17.884l-0.604-0.33z" />
<glyph unicode="&#xf065;" glyph-name="endswith" d="M196.754 170.585l-4.389 43.886c-20.333-31.442-55.219-51.957-94.896-51.957-0.838 0-1.674 0.009-2.508 0.027l0.124-0.002c-0.504-0.010-1.099-0.015-1.696-0.015-51.706 0-93.623 41.916-93.623 93.623 0 2.322 0.085 4.624 0.251 6.903l-0.018-0.305c0 83.383 66.56 129.463 186.514 128.731v7.314c0 28.526-7.314 80.457-73.143 80.457-29.195-0.465-56.209-9.41-78.797-24.472l0.534 0.335-12.434 40.229c28.267 20.322 63.503 32.609 101.594 32.914h0.074c95.086 0 118.491-73.143 118.491-146.286v-128c-0.043-2.55-0.068-5.559-0.068-8.573 0-26.387 1.886-52.334 5.53-77.713l-0.342 2.903zM187.977 347.591c-61.44 0-131.657-10.971-131.657-78.263-0.259-1.977-0.408-4.263-0.408-6.584 0-29.489 23.905-53.394 53.394-53.394 0.143 0 0.286 0.001 0.429 0.002h-0.022c35.145 1.204 64.319 25.404 73.019 57.967l0.124 0.547c0.426 2.966 0.67 6.392 0.67 9.874s-0.243 6.908-0.714 10.261l0.044-0.386zM512 455.111c-42.575-1.372-77.583-32.123-85.485-72.575l-0.092-0.568c-0.383-3.619-0.601-7.818-0.601-12.069s0.218-8.45 0.645-12.587l-0.043 0.519v-58.514c-0.297-3.178-0.467-6.872-0.467-10.606s0.17-7.428 0.501-11.075l-0.034 0.469c6.776-40.886 41.278-71.872 83.253-73.14l0.13-0.003c58.514 0 92.891 50.469 92.891 125.806s-31.451 124.343-90.697 124.343zM292.571 747.682v-658.286h731.429v658.286zM520.777 162.54c-1.416-0.066-3.075-0.104-4.744-0.104-42.806 0-79.809 24.846-97.374 60.902l-0.282 0.642v-54.126h-52.663c0 21.943 0 55.589 0 84.114v395.703h54.857v-205.531c19.281 36.008 56.643 60.087 99.629 60.087 1.746 0 3.484-0.040 5.211-0.118l-0.245 0.009c73.143 0 129.463-67.291 129.463-166.766 3.657-117.029-65.097-174.811-133.851-174.811zM877.714 213.008c0.001 0 0.003 0 0.004 0 23.98 0 46.438 6.52 65.697 17.884l-0.604-0.33 8.777-47.543c-23.187-12.909-50.861-20.508-80.309-20.508-1.081 0-2.159 0.010-3.235 0.031l0.161-0.002c-87.771 0-146.286 73.143-146.286 177.737-1.149 7.29-1.805 15.696-1.805 24.256 0 88.292 69.839 160.272 157.287 163.711l0.312 0.010c0.299 0.002 0.653 0.003 1.007 0.003 26.436 0 51.29-6.775 72.919-18.684l-0.783 0.395-11.703-54.857c-17.063 12.31-38.384 19.705-61.429 19.749h-0.011c-66.56 0-102.4-59.246-102.4-131.657s43.154-130.194 102.4-130.194z" />
<glyph unicode="&#xf066;" glyph-name="doesnotcontain" d="M182.857 209.351c35.145 1.204 64.319 25.404 73.019 57.967l0.124 0.547c0.426 2.966 0.67 6.392 0.67 9.874s-0.243 6.908-0.714 10.261l0.044-0.386v21.211h-115.566c-6.901-10.538-11.006-23.446-11.006-37.314 0-0.768 0.013-1.533 0.038-2.295l-0.003 0.111c-0.259-1.977-0.408-4.263-0.408-6.584 0-29.489 23.905-53.394 53.394-53.394 0.143 0 0.286 0.001 0.429 0.002h-0.022zM877.714 213.008c0.001 0 0.003 0 0.004 0 23.98 0 46.438 6.52 65.697 17.884l-0.604-0.33 8.777-47.543c-23.187-12.909-50.861-20.508-80.309-20.508-1.081 0-2.159 0.010-3.235 0.031l0.161-0.002c-79.842 1.236-144.091 66.249-144.091 146.269 0 0.006 0 0.012 0 0.018v-0.001h-65.829c0-0.122 0.001-0.267 0.001-0.412 0-76.93-59.384-139.991-134.813-145.842l-0.502-0.031c-1.416-0.066-3.075-0.104-4.744-0.104-42.806 0-79.809 24.846-97.374 60.902l-0.282 0.642v-54.126h-54.857c0 21.943 0 55.589 0 84.114v54.857h-49.737v-54.857c-0.043-2.55-0.068-5.559-0.068-8.573 0-26.387 1.886-52.334 5.53-77.713l-0.342 2.903h-51.2l-4.389 43.886c-20.333-31.442-55.219-51.957-94.896-51.957-0.838 0-1.674 0.009-2.508 0.027l0.124-0.002c-0.504-0.010-1.099-0.015-1.696-0.015-51.706 0-93.623 41.916-93.623 93.623 0 2.322 0.085 4.624 0.251 6.903l-0.018-0.305c0 0.057 0 0.124 0 0.192 0 16.525 3.224 32.297 9.076 46.721l-0.299-0.833h-81.92v-219.429h1024v219.429h-245.76c3.481-52.726 46.389-94.364 99.334-95.814l0.14-0.003zM0 747.682v-365.714h174.811c23.502 6.083 50.482 9.575 78.277 9.575 2.31 0 4.613-0.024 6.911-0.072l-0.343 0.006v7.314c0 28.526-7.314 80.457-73.143 80.457-29.195-0.465-56.209-9.41-78.797-24.472l0.534 0.335-13.166 41.691c28.205 19.688 63.208 31.457 100.959 31.457 0.507 0 1.013-0.002 1.519-0.006l-0.078 0.001c95.086 0 118.491-73.143 118.491-146.286v0h49.737v267.703h54.857v-205.531c19.281 36.008 56.643 60.087 99.629 60.087 1.746 0 3.484-0.040 5.211-0.118l-0.245 0.009c68.271-1.382 123.7-54.525 128.705-121.712l0.026-0.437h73.143c4.666 80.366 69.884 144.058 150.461 146.281l0.213 0.005c0.299 0.002 0.653 0.003 1.007 0.003 26.436 0 51.29-6.775 72.919-18.684l-0.783 0.395-11.703-54.857c-17.063 12.31-38.384 19.705-61.429 19.749h-0.011c-51.983-1.345-94.174-41.508-98.715-92.503l-0.028-0.389h245.029v365.714zM425.691 279.568c6.776-40.886 41.278-71.872 83.253-73.14l0.13-0.003c51.2 0 84.114 38.766 91.429 98.743h-177.006v-8.046c0.336-6.444 1.119-12.467 2.329-18.334l-0.134 0.78zM512 455.111c-42.575-1.372-77.583-32.123-85.485-72.575l-0.092-0.568h170.423c-7.681 40.927-42.467 71.705-84.697 73.139l-0.149 0.004z" />
<glyph unicode="&#xf067;" glyph-name="square" d="M219.429 877.714h585.143c80.791 0 146.286-65.494 146.286-146.286v-585.143c0-80.791-65.494-146.286-146.286-146.286h-585.143c-80.791 0-146.286 65.494-146.286 146.286v585.143c0 80.791 65.494 146.286 146.286 146.286z" />
<glyph unicode="&#xf068;" glyph-name="clearsquare" d="M113.778 853.333v-796.444h796.444v796.444zM779.947 267.947l-80.213-80.213-187.733 187.164-187.164-187.733-80.782 80.782 187.733 187.164-187.733 187.164 80.782 80.782 187.164-187.733 187.164 187.164 80.213-80.213-187.164-187.164z" />
<glyph unicode="&#xf069;" glyph-name="repeat" d="M625.778 796.444v-113.778h227.556v-455.111h-682.667v455.111h170.667v-170.667l227.556 227.556-227.556 227.556v-170.667h-284.444v-682.667h910.222v682.667h-341.333z" />
<glyph unicode="&#xf06a;" glyph-name="range" d="M804.571 585.143v-146.286h-585.143v146.286h-73.143v-365.714h73.143v146.286h585.143v-146.286h73.143v365.714h-73.143z" />
<glyph unicode="&#xf06b;" glyph-name="warning" d="M956.871 165.547l-382.293 651.947c-12.869 21.726-36.191 36.065-62.862 36.065s-49.993-14.339-62.677-35.728l-0.185-0.337-381.724-651.947c-6.188-10.43-9.845-22.993-9.845-36.409 0-39.902 32.347-72.249 72.249-72.249 0.061 0 0.122 0 0.183 0h764.578c0.052 0 0.113 0 0.174 0 39.902 0 72.249 32.347 72.249 72.249 0 13.416-3.657 25.979-10.028 36.744l0.184-0.335zM568.889 170.667h-113.778v113.778h113.778zM568.889 341.333h-113.778v227.556h113.778z" />
<glyph unicode="&#xf06c;" glyph-name="more" d="M170.667 512h113.778v-113.778h-113.778v113.778zM455.111 512h113.778v-113.778h-113.778v113.778zM739.556 512h113.778v-113.778h-113.778v113.778z" />
<glyph unicode="&#xf06d;" glyph-name="exportselected" d="M1023.869 625.778l-170.667-170.667v113.778h-113.647c-0.046 0-0.091 0-0.137 0-110.546 0-247.954-53.708-255.657-213.311-0.378-7.845-6.707-14.245-14.562-14.245s-14.238 6.423-14.086 14.279c4.028 208.364 97.155 327.054 284.305 327.054 0 0 0 0 0.006 0v0h113.778v113.778l170.667-170.667zM284.444 739.555v-568.889h56.889l105.026-113.778h-218.804c-31.419 0-56.889 25.469-56.889 56.889v682.667c0 31.419 25.47 56.889 56.889 56.889h431.548c6.878 0 13.631-1.246 19.951-3.613l-110.165-110.165h-284.444zM1024 307.2l-341.333-364.089-227.556 242.728 85.333 91.022 138.684-151.706 259.538 273.067 85.333-91.022z" />
<glyph unicode="&#xf06e;" glyph-name="ordersbox" d="M284.444 625.778h113.778v-113.778h-113.778v113.778zM398.222 398.222h-113.778v-113.778h113.778v113.778zM512 625.778h227.556v-113.778h-227.556v113.778zM739.556 398.222h-227.556v-113.778h227.556v113.778zM967.111 910.222v-910.222h-910.222v910.222h910.222zM853.333 796.444h-682.667v-682.667h682.667v682.667z" />
<glyph unicode="&#xf06f;" glyph-name="taskhelpneeded" d="M568.889 113.778h-398.222v682.667h625.778v-284.444h113.778v398.222h-853.333v-910.222h512v113.778zM284.444 398.222h284.444v-113.778h-284.444v113.778zM284.444 512h398.222v113.778h-398.222v-113.778zM682.667 398.222h113.778v-199.111h-113.778v199.111zM682.667 113.778h113.778v-113.778h-113.778v113.778z" />
<glyph unicode="&#xf070;" glyph-name="selectall" d="M56.889 910.222v-739.556h113.778v625.778h625.778v113.778h-739.556zM227.556 739.555v-682.667h682.667v682.667zM506.311 205.938l-164.978 180.907 63.147 68.267 107.52-113.778 227.556 242.916 56.889-62.578z" />
<glyph unicode="&#xf071;" glyph-name="unselectall" d="M56.889 910.222v-739.556h113.778v625.778h625.778v113.778h-739.556zM227.556 739.555v-682.667h682.667v682.667zM796.444 170.667h-455.111v455.111h455.111z" />
<glyph unicode="&#xf072;" glyph-name="print" d="M284.444 853.333h455.111v-170.667h-455.111v170.667zM796.444 625.778h-568.889c-62.838 0-113.778-50.94-113.778-113.778v0-227.556h113.778v-227.556h568.889v227.556h113.778v227.556c0 62.838-50.94 113.778-113.778 113.778v0zM682.667 170.667h-341.333v284.444h341.333z" />
<glyph unicode="&#xf073;" glyph-name="floppy" d="M113.778 739.555v-568.889c0-62.838 50.94-113.778 113.778-113.778v0h568.889c62.838 0 113.778 50.94 113.778 113.778v0 568.889c0 62.838-50.94 113.778-113.778 113.778v0h-568.889c-62.838 0-113.778-50.94-113.778-113.778v0zM284.444 739.555h113.778v-170.667h-113.778zM796.444 170.667h-568.889v284.444h568.889z" />
<glyph unicode="&#xf074;" glyph-name="minus" d="M113.778 398.222v113.778h796.444v-113.778h-796.444z" />
<glyph unicode="&#xf075;" glyph-name="isblank" d="M512 910.222c-251.351 0-455.111-203.76-455.111-455.111s203.76-455.111 455.111-455.111c251.351 0 455.111 203.76 455.111 455.111v0c0 251.351-203.76 455.111-455.111 455.111v0zM512 113.778c-188.513 0-341.333 152.82-341.333 341.333s152.82 341.333 341.333 341.333c188.513 0 341.333-152.82 341.333-341.333v0c0-188.513-152.82-341.333-341.333-341.333v0z" />
<glyph unicode="&#xf076;" glyph-name="isnotblank" d="M967.111 455.111c0-251.351-203.76-455.111-455.111-455.111s-455.111 203.76-455.111 455.111c0 251.351 203.76 455.111 455.111 455.111s455.111-203.76 455.111-455.111z" />
<glyph unicode="&#xf077;" glyph-name="bold" d="M227.556 56.889v796.444h269.084c5.511 0.286 11.966 0.449 18.458 0.449 74.299 0 143.61-21.354 202.131-58.261l-1.567 0.923c49.158-33.975 80.957-90.030 80.957-153.513 0-2.832-0.063-5.649-0.188-8.45l0.014 0.398c0.026-1.112 0.041-2.421 0.041-3.734 0-35.53-10.857-68.525-29.435-95.847l0.381 0.594c-20.836-29.467-49.76-51.97-83.539-64.457l-1.225-0.397c44.174-7.728 81.74-31.516 107.214-65.003l0.306-0.42c22.417-31.41 35.842-70.581 35.842-112.888 0-0.313-0.001-0.625-0.002-0.938v0.048c0.185-3.267 0.291-7.088 0.291-10.935 0-64.277-29.447-121.675-75.587-159.441l-0.366-0.29c-53.335-36.161-119.12-57.731-189.942-57.731-8.431 0-16.791 0.306-25.069 0.907l1.109-0.065zM387.413 519.395h113.778c3.071-0.21 6.657-0.33 10.27-0.33 32.827 0 63.343 9.895 88.728 26.864l-0.581-0.365c21.305 16.707 34.866 42.449 34.866 71.357 0 1.915-0.059 3.816-0.177 5.701l0.013-0.258c0.184 2.225 0.289 4.816 0.289 7.431 0 29.713-13.559 56.26-34.828 73.789l-0.164 0.131c-25.905 16.682-57.54 26.595-91.49 26.595-4.24 0-8.443-0.155-12.605-0.458l0.557 0.033h-108.658zM387.413 409.031v-227.556h146.773c3.109-0.232 6.734-0.364 10.39-0.364 32.388 0 62.355 10.37 86.76 27.971l-0.438-0.301c20.76 18.334 33.784 45.014 33.784 74.736 0 2.328-0.080 4.636-0.237 6.924l0.017-0.309c0.198 2.658 0.311 5.758 0.311 8.884 0 30.631-10.856 58.726-28.929 80.648l0.174-0.217c-20.228 18.767-47.414 30.281-77.29 30.281-4.437 0-8.815-0.254-13.12-0.748l0.526 0.049z" />
<glyph unicode="&#xf078;" glyph-name="italic" d="M457.956 783.929l16.498 69.404h288.427l-16.498-69.404-93.298-15.36-149.618-625.778 86.471-15.36-17.067-70.542h-288.427l16.498 68.836 93.298 15.36 149.618 625.778z" />
<glyph unicode="&#xf079;" glyph-name="underline" d="M796.444 853.333v-526.222c0.311-4.693 0.488-10.174 0.488-15.696 0-72.758-30.763-138.331-79.992-184.422l-0.141-0.13c-52.164-43.655-119.976-70.166-193.98-70.166-3.805 0-7.594 0.070-11.366 0.209l0.545-0.016c-3.969-0.192-8.619-0.302-13.295-0.302-72.856 0-139.501 26.593-190.758 70.603l0.391-0.328c-49.992 46.657-81.154 112.937-81.154 186.494 0 4.838 0.135 9.645 0.401 14.417l-0.029-0.663v526.222h113.778v-525.653c-0.005-0.468-0.007-1.021-0.007-1.575 0-48.011 19.825-91.392 51.736-122.403l0.041-0.039c28.448-25.823 66.396-41.631 108.036-41.631 2.019 0 4.030 0.037 6.031 0.111l-0.289-0.008c2.456-0.126 5.332-0.198 8.224-0.198 42.866 0 82.041 15.804 112.017 41.903l-0.206-0.175c34.264 30.373 55.752 74.498 55.752 123.642 0 0.132 0 0.264 0 0.397v-0.021 525.653zM170.667 0h682.667v-56.889h-682.667v56.889z" />
<glyph unicode="&#xf07a;" glyph-name="strike" d="M910.222 455.111h-241.778c-38.467 23.556-82.906 42.999-130.012 56.022l-3.677 0.867c-50.077 12.367-94.116 31.943-133.598 57.886l1.616-0.997c-21.545 15.214-35.442 40.011-35.442 68.054 0 1.876 0.062 3.738 0.185 5.583l-0.013-0.25c1.908 32.855 18.614 61.45 43.496 79.432l0.309 0.212c31.449 23.277 70.952 37.334 113.727 37.546h0.050c4.291 0.415 9.276 0.652 14.317 0.652 37.845 0 72.574-13.341 99.74-35.576l-0.28 0.222c27.66-26.945 45.113-64.251 46.077-105.634l0.003-0.179h105.813v3.413c0.074 2.075 0.117 4.513 0.117 6.961 0 63.14-28.182 119.698-72.652 157.781l-0.282 0.236c-49.063 41.359-112.983 66.494-182.774 66.494-5.948 0-11.853-0.183-17.71-0.542l0.803 0.039c-3.691 0.161-8.020 0.253-12.371 0.253-68.76 0-132.155-22.974-182.927-61.664l0.738 0.539c-46.159-34.819-75.686-89.561-75.686-151.2 0-1.044 0.008-2.086 0.025-3.126l-0.002 0.157c-0.047-1.536-0.073-3.342-0.073-5.154 0-57.195 26.542-108.19 67.98-141.341l0.36-0.278c20.749-12.172 45.445-24.382 71.008-34.918l4.085-1.491h-277.618v-56.889h422.116c38.629-9.433 72.166-27.45 99.794-51.977l-0.239 0.208c25.551-18.241 43.1-46.278 47.16-78.515l0.058-0.56c-1.626-35.465-19.252-66.503-45.778-86.256l-0.302-0.215c-30.792-20.701-68.707-33.042-109.503-33.042-1.503 0-3.002 0.017-4.497 0.050l0.222-0.004c-51.454 1.403-98.765 18.016-137.909 45.479l0.807-0.537c-27.556 23.116-44.951 57.566-44.951 96.079 0 4.229 0.21 8.409 0.619 12.531l-0.042-0.521h-113.778v-3.413c-0.216-3.478-0.339-7.542-0.339-11.636 0-68.104 34.095-128.245 86.147-164.285l0.663-0.434c55.742-40.242 125.44-64.365 200.772-64.365 2.617 0 5.226 0.029 7.829 0.087l-0.388-0.007c4.657-0.242 10.11-0.379 15.595-0.379 68.446 0 131.887 21.432 183.977 57.952l-1.030-0.684c46.124 33.564 75.763 87.366 75.763 148.090 0 2.138-0.037 4.267-0.11 6.387l0.008-0.308c-3.519 50.758-24.532 96.028-56.983 130.376l0.094-0.101h170.667z" />
<glyph unicode="&#xf07b;" glyph-name="indent" d="M568.889 398.222v113.778h341.333v-113.778h-341.333zM568.889 568.889v113.778h227.556v-113.778h-227.556zM568.889 739.555v113.778h341.333v-113.778h-341.333zM568.889 56.889v113.778h341.333v-113.778h-341.333zM568.889 227.555v113.778h227.556v-113.778h-227.556zM341.333 682.667v-170.667h-113.778v170.667h-113.778l170.667 170.667 170.667-170.667h-113.778zM455.111 227.555l-170.667-170.667-170.667 170.667h113.778v170.667h113.778v-170.667h113.778z" />
<glyph unicode="&#xf07c;" glyph-name="fontsize" d="M910.222 739.555v-113.778h-113.778v113.778h-113.778l170.667 170.667 170.667-170.667h-113.778zM1024 455.111l-170.667-170.667-170.667 170.667h113.778v113.778h113.778v-113.778h113.778zM409.6 853.333h-136.533l-273.067-796.444h118.898l71.111 227.556h302.649l71.111-227.556h118.898zM220.16 398.222s113.778 308.907 113.778 318.009h9.671c0-9.102 113.778-318.009 113.778-318.009z" />
<glyph unicode="&#xf07d;" glyph-name="shrinkfont" d="M910.222 682.667v227.556h-113.778v-227.556h-113.778l170.667-170.667 170.667 170.667h-113.778zM409.6 853.333h-136.533l-273.067-796.444h118.898l71.111 227.556h302.649l71.111-227.556h118.898zM220.16 398.222s113.778 308.907 113.778 318.009h9.671c0-9.102 113.778-318.009 113.778-318.009z" />
<glyph unicode="&#xf07e;" glyph-name="growfont" d="M910.222 739.555v-227.556h-113.778v227.556h-113.778l170.667 170.667 170.667-170.667h-113.778zM409.6 853.333h-136.533l-273.067-796.444h118.898l71.111 227.556h302.649l71.111-227.556h118.898zM220.16 398.222s113.778 308.907 113.778 318.009h9.671c0-9.102 113.778-318.009 113.778-318.009z" />
<glyph unicode="&#xf07f;" glyph-name="color" d="M1013.191 682.667c-7.678 20.445-16.874 38.081-27.888 54.388l0.581-0.913c-11.973 17.676-24.127 33.082-37.285 47.56l0.307-0.343-38.684 42.667q-18.773 21.049-33.564 41.529c-9.822 12.136-17.749 26.301-23.034 41.694l-0.29 0.972c-4.697-16.355-12.112-30.588-21.82-42.933l0.202 0.267c-11.806-15.34-23.354-28.872-35.53-41.806l0.258 0.277-40.96-43.236c-13.8-14.284-26.682-29.692-38.41-45.986l-0.843-1.232c-10.979-15.429-20.717-33.036-28.375-51.716l-0.638-1.76c-7.205-17.715-11.386-38.267-11.386-59.795 0-0.578 0.003-1.156 0.009-1.733l-0.001 0.088c-0.003-0.331-0.004-0.722-0.004-1.114 0-23.341 5.245-45.457 14.621-65.234l-0.395 0.926c9.593-20.447 22.414-37.818 38.005-52.237l0.11-0.101c16.014-14.582 34.904-26.34 55.676-34.294l1.212-0.408c20.22-8.233 43.675-13.033 68.246-13.084h0.021c0.424-0.004 0.926-0.006 1.428-0.006 23.655 0 46.237 4.598 66.899 12.949l-1.199-0.428c20.767 8.419 38.53 20.157 53.512 34.738l-0.037-0.036c14.769 14.548 26.69 31.941 34.88 51.297l0.391 1.041c8.922 19.197 14.323 41.622 14.789 65.257l0.003 0.166c0.009 0.67 0.015 1.462 0.015 2.255 0 21.662-3.969 42.396-11.221 61.516l0.397-1.193zM894.862 658.204c-15.824-9.312-29.466-20.056-41.489-32.386l-0.040-0.041-26.169-22.756c-6.521-5.976-13.567-11.758-20.919-17.147l-0.698-0.488c-6.392-4.712-13.716-8.739-21.551-11.733l-0.636-0.213c-7.661-2.887-16.517-4.557-25.762-4.557-0.343 0-0.685 0.002-1.027 0.007l0.052-0.001c-3.13 5.756-5.507 12.439-6.767 19.508l-0.060 0.403c-0.208 3.062-0.327 6.637-0.327 10.24s0.119 7.178 0.353 10.721l-0.025-0.481c-0.001 0.224-0.002 0.488-0.002 0.752 0 14.603 2.501 28.623 7.098 41.653l-0.269-0.876c5.298 14.87 11.439 27.636 18.735 39.622l-0.53-0.938c8.624 14.414 17.073 26.669 26.212 38.359l-0.612-0.812c9.671 12.516 49.493 52.338 53.476 56.889s39.822-49.493 51.769-63.147c11.151-13.072 20.998-27.827 29.001-43.672l0.582-1.27c-15.326-5.515-28.464-11.845-40.82-19.335l0.998 0.562zM409.6 853.333h-136.533l-273.067-796.444h118.898l71.111 227.556h302.649l71.111-227.556h118.898zM220.16 398.222s113.778 308.907 113.778 318.009h9.671c0-9.102 113.778-318.009 113.778-318.009z" />
<glyph unicode="&#xf080;" glyph-name="background" d="M184.32 233.244l-127.431-176.356h170.667l51.769 63.716 5.12-2.276 4.551 2.276-104.676 112.64zM877.227 826.595l-44.373 47.787c-21.735 20.879-51.312 33.737-83.892 33.737-21.397 0-41.499-5.546-58.946-15.279l0.615 0.315-366.364-398.222 205.369-220.729 362.951 393.102c10.947 19.725 17.39 43.256 17.39 68.293 0 34.689-12.37 66.489-32.938 91.229l0.188-0.233zM275.911 440.889c-19.508-39.852-37.54-87.080-51.414-136.056l-1.493-6.166 131.413-141.084 77.938 43.804c17.774 4.106 33.286 12.031 46.251 22.895l-0.171-0.14z" />
<glyph unicode="&#xf081;" glyph-name="superscript" d="M1024 625.778h-222.436v38.684l108.658 119.467c13.726 14.227 25.947 30.069 36.307 47.164l0.67 1.191c6.198 10.622 9.965 23.332 10.239 36.899l0.001 0.079c0.018 0.532 0.028 1.157 0.028 1.784 0 13.856-4.953 26.555-13.186 36.422l0.074-0.091c-8.161 9.103-19.957 14.803-33.085 14.803-0.369 0-0.736-0.004-1.103-0.013l0.054 0.001c-1.085 0.074-2.351 0.116-3.627 0.116-15.685 0-29.888-6.348-40.179-16.615l0.001 0.001c-8.931-11.429-14.321-26.003-14.321-41.836 0-1.293 0.036-2.577 0.107-3.852l-0.008 0.177h-55.751c-0.117 1.804-0.184 3.91-0.184 6.033 0 27.436 11.162 52.265 29.193 70.194l0.005 0.005c20.314 19.152 47.771 30.923 77.977 30.923 2.388 0 4.758-0.074 7.11-0.219l-0.322 0.016c1.717 0.099 3.725 0.156 5.746 0.156 27.122 0 51.86-10.204 70.586-26.982l-0.1 0.088c17.252-16.767 27.956-40.191 27.956-66.116 0-1.357-0.029-2.706-0.087-4.049l0.007 0.191c0.001-0.192 0.002-0.419 0.002-0.646 0-20.89-6.153-40.344-16.746-56.646l0.246 0.404c-15.715-24.111-32.198-45.112-50.321-64.565l0.258 0.28-75.093-76.8h151.324zM409.6 853.333h-136.533l-273.067-796.444h118.898l71.111 227.556h302.649l71.111-227.556h118.898zM220.16 398.222s113.778 308.907 113.778 318.009h9.671c0-9.102 113.778-318.009 113.778-318.009z" />
<glyph unicode="&#xf082;" glyph-name="subscript" d="M1024-56.889h-222.436v38.684l108.658 119.467c13.726 14.227 25.947 30.069 36.307 47.164l0.67 1.191c6.198 10.622 9.965 23.332 10.239 36.899l0.001 0.079c0.018 0.532 0.028 1.157 0.028 1.784 0 13.856-4.953 26.555-13.186 36.422l0.074-0.091c-8.183 9.449-20.198 15.391-33.601 15.391-0.587 0-1.172-0.011-1.754-0.034l0.084 0.003c-1.085 0.074-2.351 0.116-3.627 0.116-15.685 0-29.888-6.348-40.179-16.615l0.001 0.001c-8.931-11.429-14.321-26.003-14.321-41.836 0-1.293 0.036-2.577 0.107-3.852l-0.008 0.177h-54.613c-0.097 1.642-0.153 3.562-0.153 5.495 0 27.421 11.149 52.237 29.162 70.163l0.004 0.004c20.314 19.152 47.771 30.923 77.977 30.923 2.388 0 4.758-0.074 7.11-0.219l-0.322 0.016c1.717 0.099 3.725 0.156 5.746 0.156 27.122 0 51.86-10.204 70.586-26.982l-0.1 0.088c17.252-16.767 27.956-40.191 27.956-66.116 0-1.357-0.029-2.706-0.087-4.049l0.007 0.191c0.001-0.192 0.002-0.419 0.002-0.646 0-20.89-6.153-40.344-16.746-56.646l0.246 0.404c-15.715-24.111-32.198-45.112-50.321-64.565l0.258 0.28-74.524-79.076h150.756zM409.6 853.333h-136.533l-273.067-796.444h118.898l71.111 227.556h302.649l71.111-227.556h118.898zM220.16 398.222s113.778 308.907 113.778 318.009h9.671c0-9.102 113.778-318.009 113.778-318.009z" />
<glyph unicode="&#xf083;" glyph-name="header" d="M682.667 853.333v-341.333h-341.333v341.333h-113.778v-796.444h113.778v341.333h341.333v-341.333h113.778v796.444h-113.778z" />
<glyph unicode="&#xf084;" glyph-name="blockquote" d="M812.942 697.458c24.975-25.265 40.402-60.014 40.402-98.366 0-0.618-0.004-1.235-0.012-1.851l0.001 0.093c0-142.222-194.56-426.667-194.56-426.667h-89.884l142.222 287.289c-43.42 7.663-81.854 24.872-114.457 49.414l0.679-0.489c-17.87 22.524-28.668 51.363-28.668 82.724 0 2.719 0.081 5.419 0.241 8.098l-0.018-0.369c-0.027 1.029-0.043 2.241-0.043 3.456 0 76.662 62.147 138.809 138.809 138.809 1.215 0 2.427-0.016 3.635-0.047l-0.179 0.004c1.163 0.036 2.53 0.056 3.902 0.056 38.538 0 73.3-16.169 97.872-42.094l0.057-0.061zM414.72 697.458c24.975-25.265 40.402-60.014 40.402-98.366 0-0.618-0.004-1.235-0.012-1.851l0.001 0.093c0-142.222-194.56-426.667-194.56-426.667h-89.884l142.222 287.289c-43.42 7.663-81.854 24.872-114.457 49.414l0.679-0.489c-17.87 22.524-28.668 51.363-28.668 82.724 0 2.719 0.081 5.419 0.241 8.098l-0.018-0.369c-0.027 1.029-0.043 2.241-0.043 3.456 0 76.662 62.147 138.809 138.809 138.809 1.215 0 2.427-0.016 3.635-0.047l-0.179 0.004c1.163 0.036 2.53 0.056 3.902 0.056 38.538 0 73.3-16.169 97.872-42.094l0.057-0.061z" />
<glyph unicode="&#xf085;" glyph-name="codeblock" d="M568.889 130.275l310.613 324.836-310.613 324.836 73.956 73.387 381.156-398.222-381.156-398.222-73.956 73.387zM455.111 130.275l-310.613 324.836 310.613 324.836-73.956 73.387-381.156-398.222 381.156-398.222 73.956 73.387z" />
<glyph unicode="&#xf086;" glyph-name="orderedlist" d="M398.222 398.222v113.778h512v-113.778h-512zM398.222 682.667v113.778h512v-113.778h-512zM398.222 113.778v113.778h512v-113.778h-512zM170.667 568.889v-56.889h113.778l-113.778-82.489v-31.289c0-31.419 25.47-56.889 56.889-56.889v0h113.778v56.889h-113.778l113.778 85.902v27.876c0 31.419-25.47 56.889-56.889 56.889v0zM170.667 853.333v-56.889h56.889v-170.667h56.889v227.556h-113.778zM170.667 284.444v-56.889h113.778v-28.444h-56.889v-56.889h56.889v-28.444h-113.778v-56.889h170.667v227.556h-170.667z" />
<glyph unicode="&#xf087;" glyph-name="bulletlist" d="M398.222 398.222v113.778h512v-113.778h-512zM398.222 682.667v113.778h512v-113.778h-512zM398.222 227.555h512v-113.778h-512v113.778zM308.907 739.555c0-44.929-36.422-81.351-81.351-81.351s-81.351 36.422-81.351 81.351c0 44.929 36.422 81.351 81.351 81.351s81.351-36.422 81.351-81.351zM308.907 455.111c0-44.929-36.422-81.351-81.351-81.351s-81.351 36.422-81.351 81.351c0 44.929 36.422 81.351 81.351 81.351s81.351-36.422 81.351-81.351zM308.907 170.667c0-44.929-36.422-81.351-81.351-81.351s-81.351 36.422-81.351 81.351c0 44.929 36.422 81.351 81.351 81.351s81.351-36.422 81.351-81.351z" />
<glyph unicode="&#xf088;" glyph-name="increaseindent" d="M455.111 398.222v113.778h455.111v-113.778h-455.111zM455.111 568.889v113.778h455.111v-113.778h-455.111zM113.778 739.555v113.778h796.444v-113.778h-796.444zM113.778 56.889v113.778h796.444v-113.778h-796.444zM455.111 227.555v113.778h455.111v-113.778h-455.111zM227.556 398.222h-170.667v113.778h170.667v113.778l170.667-170.667-170.667-170.667v113.778z" />
<glyph unicode="&#xf089;" glyph-name="decreaseindent" d="M455.111 398.222v113.778h455.111v-113.778h-455.111zM455.111 568.889v113.778h455.111v-113.778h-455.111zM113.778 739.555v113.778h796.444v-113.778h-796.444zM113.778 56.889v113.778h796.444v-113.778h-796.444zM455.111 227.555v113.778h455.111v-113.778h-455.111zM227.556 398.222h170.667v113.778h-170.667v113.778l-170.667-170.667 170.667-170.667v113.778z" />
<glyph unicode="&#xf08a;" glyph-name="alignleft" d="M113.778 398.222v113.778h796.444v-113.778h-796.444zM113.778 568.889v113.778h568.889v-113.778h-568.889zM113.778 739.555v113.778h796.444v-113.778h-796.444zM113.778 56.889v113.778h796.444v-113.778h-796.444zM113.778 227.555v113.778h568.889v-113.778h-568.889z" />
<glyph unicode="&#xf08b;" glyph-name="alignright" d="M113.778 398.222v113.778h796.444v-113.778h-796.444zM341.333 568.889v113.778h568.889v-113.778h-568.889zM113.778 739.555v113.778h796.444v-113.778h-796.444zM113.778 56.889v113.778h796.444v-113.778h-796.444zM341.333 227.555v113.778h568.889v-113.778h-568.889z" />
<glyph unicode="&#xf08c;" glyph-name="aligncenter" d="M113.778 398.222v113.778h796.444v-113.778h-796.444zM227.556 568.889v113.778h568.889v-113.778h-568.889zM113.778 739.555v113.778h796.444v-113.778h-796.444zM113.778 56.889v113.778h796.444v-113.778h-796.444zM227.556 227.555v113.778h568.889v-113.778h-568.889z" />
<glyph unicode="&#xf08d;" glyph-name="alignjustify" d="M113.778 398.222v113.778h796.444v-113.778h-796.444zM113.778 568.889v113.778h796.444v-113.778h-796.444zM113.778 739.555v113.778h796.444v-113.778h-796.444zM113.778 56.889v113.778h568.889v-113.778h-568.889zM113.778 227.555v113.778h796.444v-113.778h-796.444z" />
<glyph unicode="&#xf08e;" glyph-name="link" d="M617.813 564.338c-6.747 6.554-13.984 12.708-21.612 18.366l-0.575 0.407-62.578-62.578c76.231-67.129 83.627-131.982 18.773-193.991l-193.991-193.991c-21.107-21.119-50.272-34.182-82.489-34.182s-61.382 13.063-82.488 34.182l-3.414 3.414c-21.119 21.107-34.182 50.272-34.182 82.489s13.063 61.382 34.182 82.488l87.609 87.609c-13.71 33.192-21.67 71.732-21.67 112.132 0 1.979 0.019 3.954 0.057 5.924l-0.005-0.295-135.964-135.396c-38.85-38.989-62.87-92.778-62.87-152.178s24.020-113.188 62.876-152.184l3.407-3.407c38.989-38.85 92.778-62.87 152.178-62.87s113.188 24.020 152.184 62.876l193.985 193.985c38.85 38.989 62.87 92.778 62.87 152.178s-24.020 113.188-62.876 152.184l0.006-0.006zM406.187 345.315c6.747-6.554 13.984-12.708 21.612-18.366l0.575-0.407 63.147 63.147c-76.231 65.422-83.627 131.413-19.342 193.991l193.991 193.991c21.107 21.119 50.272 34.182 82.489 34.182s61.382-13.063 82.488-34.182l3.414-3.414c21.119-21.107 34.182-50.272 34.182-82.489s-13.063-61.382-34.182-82.488v0l-87.609-88.178c13.71-33.192 21.67-71.732 21.67-112.132 0-1.979-0.019-3.954-0.057-5.924l0.005 0.295 135.964 135.964c38.85 38.989 62.87 92.778 62.87 152.178s-24.020 113.188-62.876 152.184l-3.407 3.407c-38.989 38.85-92.778 62.87-152.178 62.87s-113.188-24.020-152.184-62.876l-193.985-193.985c-38.85-38.989-62.87-92.778-62.87-152.178s24.020-113.188 62.876-152.184l-0.006 0.006z" />
<glyph unicode="&#xf08f;" glyph-name="video" d="M512 910.222c-251.351 0-455.111-203.76-455.111-455.111s203.76-455.111 455.111-455.111c251.351 0 455.111 203.76 455.111 455.111v0c0 251.351-203.76 455.111-455.111 455.111v0zM398.222 227.555v455.111l284.444-227.556z" />
<glyph unicode="&#xf090;" glyph-name="mention" d="M910.222 468.195c-0.874-60.729-22.166-116.321-57.299-160.39l0.41 0.532c-37.195-42.148-91.339-68.594-151.66-68.594-6.693 0-13.309 0.326-19.835 0.962l0.828-0.065c-0.705-0.017-1.536-0.027-2.369-0.027-22.519 0-43.396 7.035-60.551 19.027l0.342-0.227c-17.601 12.799-30.765 30.75-37.351 51.621l-0.195 0.717c-22.79-42.026-66.573-70.083-116.908-70.083-1.9 0-3.791 0.040-5.671 0.119l0.269-0.009c-1.775-0.099-3.853-0.155-5.944-0.155-39.367 0-74.064 19.993-94.491 50.379l-0.258 0.408c-17.119 28.128-27.253 62.142-27.253 98.524 0 12.638 1.223 24.99 3.557 36.945l-0.197-1.211c5.056 65.159 29.314 123.832 67.053 171.309l-0.493-0.642c31.002 40.688 79.204 66.898 133.56 67.696l0.129 0.001c2.729 0.096 5.937 0.151 9.157 0.151 27.546 0 54.157-4.004 79.282-11.461l-1.968 0.501c27.543-9.935 51.191-21.444 73.373-35.103l-1.693 0.97-23.893-244.053c-1.146-5.554-1.802-11.937-1.802-18.474 0-13.9 2.967-27.106 8.303-39.021l-0.242 0.606c5.345-8.922 14.962-14.801 25.951-14.801 0.277 0 0.552 0.004 0.827 0.011l-0.041-0.001c0.371-0.005 0.81-0.008 1.249-0.008 35.466 0 66.625 18.44 84.412 46.255l0.24 0.402c21.909 33.252 35.191 73.891 35.838 117.591l0.002 0.169c1.374 11.26 2.158 24.296 2.158 37.515 0 74.274-24.754 142.766-66.463 197.676l0.589-0.809c-49.448 52.051-119.174 84.431-196.463 84.431-7.339 0-14.61-0.292-21.801-0.865l0.949 0.061c-4.687 0.268-10.171 0.421-15.69 0.421-83.315 0-158.492-34.844-211.753-90.755l-0.113-0.119c-55.161-64.134-88.748-148.204-88.748-240.119 0-0.383 0.001-0.766 0.002-1.149v0.059c-1.371-11.199-2.154-24.165-2.154-37.313 0-76.247 26.316-146.347 70.36-201.714l-0.508 0.662c50.152-55.188 122.215-89.696 202.338-89.696 5.069 0 10.105 0.138 15.105 0.411l-0.697-0.030c28.879 0.138 56.953 3.239 84.038 9.013l-2.687-0.48c27.494 5.219 51.713 12.502 74.801 21.976l-2.552-0.927 17.636-62.578c-22.84-12.593-49.346-22.273-77.392-27.609l-1.683-0.266c-27.645-6.010-59.45-9.525-92.052-9.671h-0.108c-7.243-0.504-15.697-0.791-24.217-0.791-101.41 0-193.315 40.697-260.274 106.65l0.046-0.046c-58.324 66.606-93.899 154.412-93.899 250.526 0 14.756 0.838 29.315 2.47 43.634l-0.162-1.751c0.979 112.549 46.152 214.36 118.984 289.085l-0.087-0.089c71.27 67.832 167.927 109.563 274.33 109.563 5.758 0 11.487-0.122 17.185-0.364l-0.813 0.027c7.157 0.51 15.508 0.801 23.927 0.801 98.296 0 187.335-39.634 252.007-103.793l-0.023 0.023c56.345-65.147 90.672-150.692 90.672-244.255 0-13.353-0.699-26.543-2.063-39.535l0.138 1.621zM440.889 427.235c-1.174-7.421-1.845-15.978-1.845-24.692 0-20.755 3.806-40.621 10.759-58.938l-0.38 1.142c6.716-16.501 22.63-27.922 41.211-27.922 0.712 0 1.42 0.017 2.124 0.050l-0.1-0.004c0.295-0.003 0.643-0.005 0.992-0.005 16.902 0 32.821 4.212 46.763 11.644l-0.537-0.261c16.404 9.797 29.43 23.737 37.858 40.398l0.258 0.562 20.48 211.627-21.618 4.551c-3.321 0.272-7.189 0.426-11.093 0.426s-7.772-0.155-11.598-0.459l0.505 0.032c-1.188 0.057-2.58 0.090-3.98 0.090-31.218 0-58.646-16.222-74.316-40.697l-0.211-0.353c-19.414-33.77-32.27-73.643-35.772-116.168l-0.068-1.023z" />
<glyph unicode="&#xf091;" glyph-name="variable" d="M538.738 333.369h-92.16l-30.72-159.289h-68.267l30.72 159.289h-93.867v61.44h106.382l23.893 121.742h-99.556v61.44h113.778l29.582 161.564h68.267l-31.858-161.564h91.022l31.858 161.564h68.267l-31.858-161.564h85.333v-61.44h-97.28l-23.893-121.742h89.884v-61.44h-102.4l-30.72-159.289h-67.698zM459.093 394.809h91.591l23.893 121.742h-92.16zM836.267 264.533l-39.822 39.822 148.48 150.756-148.48 150.756 39.822 39.822 187.733-190.578-187.733-190.578zM187.733 264.533l39.822 39.822-148.48 150.756 148.48 150.756-39.822 39.822-187.733-190.578 187.733-190.578z" />
<glyph unicode="&#xf092;" glyph-name="clearformat" d="M515.982 56.889l14.791 14.791-402.204 402.204-56.889-56.889c-20.616-20.594-33.37-49.057-33.37-80.498s12.753-59.904 33.368-80.497l0.001-0.001 195.129-199.111zM954.596 656.498l-241.209 241.209c-20.594 20.616-49.057 33.37-80.498 33.37s-59.904-12.753-80.497-33.368l-341.334-341.334 402.204-402.204 341.333 341.333c20.616 20.594 33.37 49.057 33.37 80.498s-12.753 59.904-33.368 80.497l-0.001 0.001z" />
<glyph unicode="&#xf093;" glyph-name="redo" d="M512 853.333c109.778-0.235 208.999-45.237 280.415-117.712l0.047-0.048 117.76 117.76v-341.333h-341.333l143.36 143.36c-50.959 51.902-121.834 84.099-200.23 84.196h-0.019c-157.094 0-284.444-127.35-284.444-284.444s127.35-284.444 284.444-284.444v0-113.778c-219.932 0-398.222 178.29-398.222 398.222s178.29 398.222 398.222 398.222v0z" />
<glyph unicode="&#xf094;" glyph-name="accountbox" d="M56.889 910.222v-910.222h910.222v910.222h-910.222zM170.667 796.444h682.667v-682.667h-682.667v682.667zM625.778 568.889c0-62.843-50.933-113.778-113.778-113.778-62.843 0-113.778 50.934-113.778 113.778s50.934 113.778 113.778 113.778c62.845 0 113.778-50.934 113.778-113.778zM284.444 227.555v27.466c0.501 9.643 1.957 18.836 4.369 27.785l-0.273-1.183c23.393 43.839 52.747 81.806 88.61 116.599l-1.684-1.724c32.040-19.046 74.547-30.652 121.151-30.652 5.206 0 10.371 0.137 15.453 0.421 4.581-0.273 9.924-0.421 15.313-0.421 46.524 0 88.963 11.594 121.162 30.674 33.991-33.070 63.204-71.037 84.821-111.388l1.638-3.476c2.321-8.801 3.641-18.955 3.641-29.326v-0.905l0.91-23.871h-455.111zM648.545 396.521v0zM512.070 366.268h-0.070l0.683 0.034-0.613-0.034z" />
<glyph unicode="&#xf09a;" glyph-name="sendfilled" d="M910.222 455.111l-796.444 398.222v-303.388l227.556-94.834-227.556-94.834v-303.388l796.444 398.222z" />
<glyph unicode="&#xf101;" glyph-name="datafield" d="M796.444 739.555v-113.778h-568.889v113.778h568.889zM910.222 853.333h-796.444v-341.333h796.444v341.333zM682.667 227.555h-455.111v113.778h455.111v113.778h-568.889v-341.333h568.889v113.778zM1024 398.222h-284.444v-56.889l128.569-170.667-128.569-170.667v-56.889h284.444v56.889h-207.644l120.036 170.667-120.036 170.667h207.644v56.889z" />
<glyph unicode="&#xf105;" glyph-name="folderclose" d="M512 739.555l-56.889 113.778h-398.222v-796.444h853.333v682.667zM796.444 568.889h-625.778v170.667h227.556l56.889-113.778h341.333z" />
<glyph unicode="&#xf106;" glyph-name="indent1" d="M568.889 398.222v113.778h341.333v-113.778h-341.333zM568.889 568.889v113.778h227.556v-113.778h-227.556zM568.889 739.555v113.778h341.333v-113.778h-341.333zM568.889 56.889v113.778h341.333v-113.778h-341.333zM568.889 227.555v113.778h227.556v-113.778h-227.556zM341.333 227.555v-170.667h-113.778v170.667h-113.778l170.667 170.667 170.667-170.667h-113.778zM455.111 682.667l-170.667-170.667-170.667 170.667h113.778v170.667h113.778v-170.667h113.778z" />
<glyph unicode="&#xf107;" glyph-name="copy" d="M284.444 853.333v-113.778h455.111v-568.889h113.778v682.667h-568.889zM170.667 682.667v-625.778h512v625.778zM568.889 170.667h-284.444v398.222h284.444z" />
<glyph unicode="&#xf108;" glyph-name="past" d="M398.222 796.444c0 31.419 25.47 56.889 56.889 56.889h113.778c31.42 0 56.889-25.47 56.889-56.889h170.667c31.42 0 56.889-25.47 56.889-56.889v-625.778c0-31.42-25.469-56.889-56.889-56.889h-568.889c-31.419 0-56.889 25.469-56.889 56.889v625.778c0 31.419 25.47 56.889 56.889 56.889h170.667zM341.333 682.667h-56.889v-512h455.111v512h-56.889v-56.889h-341.333v56.889z" />
<glyph unicode="&#xf109;" glyph-name="rename" d="M728.747 568.889l108.089 108.089c9.89 10.222 15.985 24.168 15.985 39.538s-6.095 29.316-16 39.553l0.015-0.016-79.076 80.782c-10.222 9.89-24.168 15.985-39.538 15.985s-29.316-6.095-39.553-16l0.016 0.015-109.796-108.089zM497.778 657.067l-384-375.467v-167.822h167.822l375.467 384-159.289 159.289zM910.222 227.555h-398.222l-56.889-113.778h455.111v113.778z" />
<glyph unicode="&#xf10a;" glyph-name="cut" d="M552.391 512l357.831 341.333h-154.738l-267.378-277.049 64.284-64.284zM754.916 56.889h155.307l-394.24 409.031-29.013 29.582-73.387 76.8c25.172 29.548 40.484 68.166 40.484 110.361 0 94.257-76.41 170.667-170.667 170.667s-170.667-76.41-170.667-170.667c0-94.257 76.41-170.667 170.667-170.667 0.367 0 0.735 0.001 1.101 0.003h-0.057c19.454 0.311 37.989 3.829 55.234 10.046l-1.19-0.374 46.649-52.338-55.182-71.111c-6.799 0.405-14.751 0.635-22.756 0.635s-15.956-0.231-23.847-0.686l1.091 0.050c-0.042 0-0.091 0-0.141 0-94.257 0-170.667-76.41-170.667-170.667s76.41-170.667 170.667-170.667c94.257 0 170.667 76.41 170.667 170.667 0 47.659-19.535 90.755-51.035 121.718l-0.024 0.024 46.080 48.924zM284.444 603.022c-43.986 0-79.644 35.658-79.644 79.644s35.658 79.644 79.644 79.644c43.986 0 79.644-35.658 79.644-79.644v0c0-43.986-35.658-79.644-79.644-79.644v0zM284.444 147.911c-43.986 0-79.644 35.658-79.644 79.644s35.658 79.644 79.644 79.644c43.986 0 79.644-35.658 79.644-79.644v0c0-43.986-35.658-79.644-79.644-79.644v0zM419.271 455.111c0 19.794 16.046 35.84 35.84 35.84s35.84-16.046 35.84-35.84c0-19.794-16.046-35.84-35.84-35.84v0c-19.794 0-35.84 16.046-35.84 35.84v0z" />
<glyph unicode="&#xf10b;" glyph-name="detailsview" d="M113.778 853.333h455.111v-113.778h-455.111v113.778zM113.778 625.778h455.111v-113.778h-455.111v113.778zM113.778 398.222h455.111v-113.778h-455.111v113.778zM113.778 170.667h455.111v-113.778h-455.111v113.778zM682.667 853.333h227.556v-113.778h-227.556v113.778zM682.667 625.778h227.556v-113.778h-227.556v113.778zM682.667 398.222h227.556v-113.778h-227.556v113.778zM682.667 170.667h227.556v-113.778h-227.556v113.778z" />
<glyph unicode="&#xf10c;" glyph-name="thumbnailsview" d="M113.778 853.333h341.333v-341.333h-341.333v341.333zM113.778 398.222h341.333v-341.333h-341.333v341.333zM568.889 853.333h341.333v-341.333h-341.333v341.333zM568.889 398.222h341.333v-341.333h-341.333v341.333z" />
<glyph unicode="&#xf10d;" glyph-name="fill" d="M901.12 189.44c-6.422 16.967-14.083 31.598-23.241 45.134l0.485-0.76c-10.113 14.9-20.397 27.894-31.534 40.095l0.245-0.273-32.427 36.409q-15.36 17.636-27.876 34.702c-7.533 10.067-13.554 21.796-17.424 34.465l-0.212 0.806c-3.836-13.506-9.886-25.27-17.812-35.509l0.177 0.238c-9.76-12.873-19.262-24.179-29.284-34.998l0.271 0.296-34.133-36.409c-11.37-12.003-22.017-24.998-31.694-38.726l-0.733-1.096c-9.233-12.811-17.436-27.415-23.922-42.916l-0.541-1.457c-6.123-14.918-9.678-32.234-9.678-50.38 0-0.488 0.003-0.976 0.008-1.463l-0.001 0.074c-0.022-0.877-0.034-1.91-0.034-2.945 0-19.584 4.418-38.136 12.311-54.714l-0.33 0.771c8.011-17.114 18.728-31.653 31.766-43.721l0.091-0.083c13.141-12.107 28.619-21.92 45.648-28.664l1.001-0.35c16.495-6.486 35.598-10.246 55.579-10.246 0.46 0 0.92 0.002 1.38 0.006h-0.070c0.756-0.014 1.648-0.022 2.541-0.022 19.559 0 38.239 3.768 55.352 10.616l-1.004-0.355c17.452 7.016 32.383 16.834 44.977 29.047l-0.035-0.034c12.391 12.169 22.39 26.728 29.255 42.935l0.327 0.869c6.856 15.878 10.844 34.366 10.844 53.785 0 1.091-0.013 2.18-0.038 3.266l0.003-0.161c-0.239 18.697-3.977 36.455-10.589 52.74l0.349-0.972zM802.702 170.667c-12.992-7.384-24.199-15.873-34.162-25.628l0.028 0.028-21.618-18.773-18.204-14.791c-5.246-3.796-11.255-7.055-17.669-9.492l-0.535-0.179c-6.096-2.178-13.128-3.437-20.454-3.437-0.609 0-1.216 0.009-1.821 0.026l0.089-0.002c-2.467 4.429-4.43 9.561-5.62 14.983l-0.069 0.377c-0.173 2.552-0.271 5.531-0.271 8.533s0.099 5.982 0.293 8.935l-0.021-0.402c-0.001 0.195-0.002 0.427-0.002 0.658 0 12.192 2.084 23.896 5.916 34.777l-0.225-0.733c4.471 12.462 9.651 23.162 15.802 33.202l-0.442-0.775c7.273 11.987 14.404 22.198 22.11 31.933l-0.492-0.644c7.964 10.24 41.529 43.804 44.373 46.649s33.564-41.529 43.236-52.907c9.22-10.917 17.366-23.245 23.977-36.474l0.485-1.073c-13.339-4.201-24.825-9.217-35.648-15.277l0.945 0.486zM398.222 830.578l-75.662 79.644-76.231-79.644 76.231-79.644-265.671-278.756 341.333-358.4 341.333 358.4zM170.667 455.111l227.556 227.556 227.556-227.556z" />
<glyph unicode="&#xf110;" glyph-name="docx" d="M284.444 739.555v-113.778h-113.778v170.667c0 31.419 25.47 56.889 56.889 56.889h431.548c15.087 0 29.559-5.994 40.226-16.662l137.341-137.342c10.667-10.668 16.663-25.139 16.663-40.226v-90.214h-113.778v66.649l-104.016 104.017h-351.095zM284.444 227.555v-56.889h455.111v56.889h113.778v-113.778c0-31.42-25.469-56.889-56.889-56.889h-568.889c-31.419 0-56.889 25.469-56.889 56.889v113.778h113.778zM227.556 568.889v-56.889h-113.778v-227.556h170.667v284.444h-56.889zM227.556 341.333h-56.889v113.778h56.889v-113.778zM341.333 512v-227.556h170.667v227.556h-170.667zM455.111 341.333h-56.889v113.778h56.889v-113.778zM739.556 455.111v56.889h-170.667v-227.556h170.667v56.889h-113.778v113.778h113.778zM967.111 455.111v56.889h-56.889l-28.444-56.889-28.444 56.889h-56.889v-56.889l56.889-36.978v-39.822l-56.889-36.978v-56.889h56.889l28.444 56.889 28.444-56.889h56.889v56.889l-56.889 36.978v39.822l56.889 36.978z" />
<glyph unicode="&#xf111;" glyph-name="doc_1" d="M284.444 625.778v113.778h351.095l104.016-104.017v-464.872h-455.111v56.889h-113.778v-113.778c0-31.42 25.47-56.889 56.889-56.889h568.889c31.42 0 56.889 25.469 56.889 56.889v545.325c0 15.088-5.996 29.558-16.663 40.226l-137.341 137.342c-10.667 10.668-25.139 16.662-40.226 16.662h-431.548c-31.419 0-56.889-25.47-56.889-56.889v-170.667h113.778zM170.667 568.889v-56.889h-113.778v-227.556h170.667v284.444h-56.889zM170.667 341.333h-56.889v113.778h56.889v-113.778zM284.444 512v-227.556h170.667v227.556h-170.667zM398.222 341.333h-56.889v113.778h56.889v-113.778zM682.667 455.111v56.889h-170.667v-227.556h170.667v56.889h-113.778v113.778h113.778z" />
<glyph unicode="&#xf112;" glyph-name="rtf" d="M284.444 568.889v170.667h351.095l104.016-104.017v-464.872h-455.111v56.889h-113.778v-113.778c0-31.42 25.47-56.889 56.889-56.889h568.889c31.42 0 56.889 25.469 56.889 56.889v545.325c0 15.088-5.996 29.558-16.663 40.226l-137.341 137.342c-10.667 10.668-25.139 16.662-40.226 16.662h-431.548c-31.419 0-56.889-25.47-56.889-56.889v-227.556h113.778zM455.111 455.111v56.889h-56.889v56.889h-56.889v-284.444h113.778v56.889h-56.889v113.778h56.889zM170.667 512v-227.556h56.889v170.667h56.889v56.889h-113.778zM625.778 512v56.889h-56.889l-56.889-56.889v-227.556h56.889v113.778h56.889v56.889h-56.889v56.889h56.889z" />
<glyph unicode="&#xf113;" glyph-name="txt" d="M284.444 625.778v113.778h351.095l104.016-104.017v-464.872h-455.111v56.889h-113.778v-113.778c0-31.42 25.47-56.889 56.889-56.889h568.889c31.42 0 56.889 25.469 56.889 56.889v545.325c0 15.088-5.996 29.558-16.663 40.226l-137.341 137.342c-10.667 10.668-25.139 16.662-40.226 16.662h-431.548c-31.419 0-56.889-25.47-56.889-56.889v-170.667h113.778zM512 455.111v56.889h-56.889l-28.444-56.889-28.444 56.889h-56.889v-56.889l56.889-36.978v-39.822l-56.889-36.978v-56.889h56.889l28.444 56.889 28.444-56.889h56.889v56.889l-56.889 36.978v39.822l56.889 36.978zM284.444 455.111v56.889h-56.889v56.889h-56.889v-284.444h113.778v56.889h-56.889v113.778h56.889zM682.667 455.111v56.889h-56.889v56.889h-56.889v-284.444h113.778v56.889h-56.889v113.778h56.889z" />
<glyph unicode="&#xf114;" glyph-name="ppt" d="M682.667 455.111v56.889h-56.889v56.889h-56.889v-284.444h113.778v56.889h-56.889v113.778h56.889zM170.667 284.444v56.889h113.778v170.667h-170.667v-227.556h56.889zM170.667 455.111h56.889v-56.889h-56.889v56.889zM398.222 284.444v56.889h113.778v170.667h-170.667v-227.556h56.889zM398.222 455.111h56.889v-56.889h-56.889v56.889zM284.444 739.555v-170.667h-113.778v227.556c0 31.419 25.47 56.889 56.889 56.889h431.548c15.087 0 29.559-5.994 40.226-16.662l137.341-137.342c10.667-10.668 16.663-25.139 16.663-40.226v-545.325c0-31.42-25.469-56.889-56.889-56.889h-568.889c-31.419 0-56.889 25.469-56.889 56.889v113.778h113.778v-56.889h455.111v464.872l-104.016 104.017h-351.095z" />
<glyph unicode="&#xf115;" glyph-name="pptx" d="M284.444 568.889v170.667h351.095l104.016-104.017v-66.649h113.778v90.214c0 15.088-5.996 29.558-16.663 40.226l-137.341 137.342c-10.667 10.668-25.139 16.662-40.226 16.662h-431.548c-31.419 0-56.889-25.47-56.889-56.889v-227.556h113.778zM284.444 227.555h-113.778v-113.778c0-31.42 25.47-56.889 56.889-56.889h568.889c31.42 0 56.889 25.469 56.889 56.889v113.778h-113.778v-56.889h-455.111v56.889zM910.222 455.111v56.889h-56.889l-28.444-56.889-28.444 56.889h-56.889v-56.889l56.889-36.978v-39.822l-56.889-36.978v-56.889h56.889l28.444 56.889 28.444-56.889h56.889v56.889l-56.889 36.978v39.822l56.889 36.978zM170.667 284.444v56.889h113.778v170.667h-170.667v-227.556h56.889zM170.667 455.111h56.889v-56.889h-56.889v56.889zM398.222 284.444v56.889h113.778v170.667h-170.667v-227.556h56.889zM398.222 455.111h56.889v-56.889h-56.889v56.889zM682.667 455.111v56.889h-56.889v56.889h-56.889v-284.444h113.778v56.889h-56.889v113.778h56.889z" />
</font>
</defs>
</svg>
