<svg version="1.1" xmlns="http://www.w3.org/2000/svg" width="20" height="20" viewBox="0 0 20 20">
<title>background</title>
<path d="M3.125 1.25c0.345 0 0.625 0.28 0.625 0.625v3.75c0 0.345 0.28 0.625 0.625 0.625h11.253c0.345 0 0.625-0.28 0.625-0.625v-3.75c0-0.345 0.28-0.625 0.625-0.625s0.625 0.28 0.625 0.625v3.75c0 0.817-0.522 1.512-1.251 1.769v1.356c0 1.381-1.119 2.5-2.5 2.5h-0.002l0.004 2.175c0.001 0.639-0.324 1.236-0.862 1.581l-5.676 3.645c-0.192 0.124-0.437 0.132-0.637 0.023s-0.325-0.32-0.325-0.548v-6.875h-0.002c-1.381 0-2.5-1.119-2.5-2.5v-1.356c-0.729-0.257-1.251-0.952-1.251-1.769v-3.75c0-0.345 0.28-0.625 0.625-0.625zM7.503 11.25v5.731l4.713-3.027c0.179-0.115 0.288-0.314 0.287-0.527l-0.004-2.177h-4.996zM5.001 8.75c0 0.69 0.56 1.25 1.25 1.25h7.5c0.69 0 1.25-0.56 1.25-1.25v-1.25h-10v1.25z"></path>
</svg>
