<svg version="1.1" xmlns="http://www.w3.org/2000/svg" width="20" height="20" viewBox="0 0 20 20">
<title>bell</title>
<path d="M10 2c1.090 0 2.113 0.28 2.995 0.77-0.252 0.227-0.466 0.496-0.629 0.797-0.704-0.362-1.51-0.567-2.366-0.567-2.623 0-4.77 1.924-4.981 4.385l-0.013 0.212-0.004 0.205v3.698l-0.038 0.192-0.963 2.312 12.003-0-0.963-2.312-0.038-0.192 0-3.5c0.351-0 0.687-0.060 1-0.171l-0.001 3.569 0.925 2.222c0.023 0.054 0.040 0.11 0.053 0.167l0.015 0.086 0.009 0.131c0 0.448-0.297 0.834-0.749 0.963l-0.116 0.027-0.134 0.010-3.502-0.001-0.005 0.161c-0.085 1.304-1.169 2.335-2.495 2.335s-2.41-1.032-2.495-2.336l-0.006-0.16-3.501 0.001c-0.088 0-0.175-0.012-0.26-0.034l-0.124-0.043c-0.411-0.171-0.653-0.588-0.602-1.052l0.021-0.127 0.042-0.128 0.923-2.219 0.001-3.608 0.004-0.225c0.123-3.117 2.767-5.568 5.993-5.568zM11.502 15.004h-3l0.007 0.141c0.069 0.713 0.636 1.28 1.349 1.348l0.144 0.007c0.78 0 1.421-0.595 1.493-1.356l0.007-0.141zM13.209 4.113c0.151-0.304 0.377-0.565 0.653-0.757 0.323-0.225 0.716-0.357 1.14-0.357 1.104 0 2 0.895 2 2 0 0.778-0.444 1.452-1.093 1.783-0.272 0.139-0.581 0.217-0.907 0.217-0.023 0-0.046-0-0.069-0.001-1.073-0.036-1.931-0.917-1.931-1.999 0-0.318 0.074-0.619 0.207-0.887z"></path>
</svg>
