<svg version="1.1" xmlns="http://www.w3.org/2000/svg" width="20" height="20" viewBox="0 0 20 20">
<title>car</title>
<path d="M4.742 3c-0.97 0-1.799 0.695-1.969 1.65l-0.333 1.874c-0.061-0.016-0.124-0.024-0.19-0.024h-0.5c-0.414 0-0.75 0.336-0.75 0.75s0.336 0.75 0.75 0.75h0.428l-0.006 0.036c-0.67 0.15-1.171 0.749-1.171 1.464v3.633c-0.299 0.173-0.5 0.496-0.5 0.866v3c0 0.552 0.448 1 1 1h3.5c0.552 0 1-0.448 1-1v-0.999h8v0.999c0 0.552 0.448 1 1 1h3.5c0.552 0 1-0.448 1-1v-3c0-0.37-0.201-0.693-0.5-0.866v-3.633c0-0.715-0.501-1.314-1.171-1.464l-0.006-0.036h0.428c0.414 0 0.75-0.336 0.75-0.75s-0.336-0.75-0.75-0.75h-0.5c-0.066 0-0.129 0.008-0.19 0.024l-0.333-1.874c-0.17-0.955-1-1.65-1.969-1.65h-10.515zM16.5 8h-13l0.287-3.092c0.048-0.514 0.479-0.908 0.996-0.908h10.338c0.505 0 0.93 0.376 0.992 0.877l0.387 3.123zM2 10c0-0.551 0.445-1 1-1h14c0.555 0 1 0.449 1 1v5h-4v-1c0-0.586-0.25-1.113-0.648-1.481-0.109-0.098-0.227-0.184-0.352-0.254-0.297-0.168-0.641-0.266-1-0.266h-4c-0.445 0-0.852 0.144-1.188 0.391-0.492 0.363-0.813 0.949-0.813 1.609v1h-4v-5zM13 15h-6v-1c0-0.551 0.445-1 1-1h4c0.555 0 1 0.449 1 1v1zM1.5 16h3.5v0.5c0 0.276-0.224 0.5-0.5 0.5h-2.5c-0.276 0-0.5-0.224-0.5-0.5v-0.5zM18.5 16v0.5c0 0.276-0.224 0.5-0.5 0.5h-2.5c-0.276 0-0.5-0.224-0.5-0.5v-0.5h3.5zM3 11c0-0.552 0.448-1 1-1h0.586c0.265 0 0.52 0.105 0.707 0.293l0.293 0.293c0.522 0.522 0.152 1.414-0.586 1.414h-1c-0.552 0-1-0.448-1-1zM17 11c0-0.552-0.448-1-1-1h-0.586c-0.265 0-0.52 0.105-0.707 0.293l-0.293 0.293c-0.522 0.522-0.152 1.414 0.586 1.414h1c0.552 0 1-0.448 1-1z"></path>
</svg>
