<svg version="1.1" xmlns="http://www.w3.org/2000/svg" width="20" height="20" viewBox="0 0 20 20">
<title>clearsquare</title>
<path d="M7.146 7.146c0.195-0.195 0.512-0.195 0.707 0l2.146 2.146 2.146-2.146c0.195-0.195 0.512-0.195 0.707 0s0.195 0.512 0 0.707l-2.147 2.146 2.147 2.146c0.195 0.195 0.195 0.512 0 0.707s-0.512 0.195-0.707 0l-2.146-2.147-2.146 2.147c-0.195 0.195-0.512 0.195-0.707 0s-0.195-0.512 0-0.707l2.146-2.146-2.146-2.146c-0.195-0.195-0.195-0.512 0-0.707zM3 6c0-1.657 1.343-3 3-3h8c1.657 0 3 1.343 3 3v8c0 1.657-1.343 3-3 3h-8c-1.657 0-3-1.343-3-3v-8zM6 4c-1.105 0-2 0.895-2 2v8c0 1.105 0.895 2 2 2h8c1.105 0 2-0.895 2-2v-8c0-1.105-0.895-2-2-2h-8z"></path>
</svg>
