<svg version="1.1" xmlns="http://www.w3.org/2000/svg" width="20" height="20" viewBox="0 0 20 20">
<title>comment</title>
<path d="M10.481 13.842h4.919c0.896 0 1.6-0.713 1.6-1.566v-6.711c0-0.852-0.704-1.566-1.6-1.566h-10.8c-0.896 0-1.6 0.713-1.6 1.566v6.711c0 0.852 0.704 1.566 1.6 1.566h1.599l0.001 3.158 0.003-0 0.002-0.001 4.276-3.157zM6.799 17.803c-0.442 0.326-1.069 0.237-1.4-0.199-0.129-0.171-0.199-0.378-0.199-0.591l-0.001-2.171h-0.599c-1.436 0-2.6-1.149-2.6-2.566v-6.711c0-1.417 1.164-2.566 2.6-2.566h10.8c1.436 0 2.6 1.149 2.6 2.566v6.711c0 1.417-1.164 2.566-2.6 2.566h-4.59l-4.011 2.961z"></path>
</svg>
