<svg version="1.1" xmlns="http://www.w3.org/2000/svg" width="20" height="20" viewBox="0 0 20 20">
<title>edit</title>
<path d="M17.179 2.925c-1.152-1.212-3.077-1.236-4.259-0.054l-9.375 9.374c-0.328 0.328-0.555 0.742-0.656 1.195l-0.878 3.95c-0.037 0.167 0.014 0.341 0.135 0.462s0.295 0.172 0.462 0.134l3.926-0.873c0.467-0.104 0.896-0.339 1.234-0.678l9.358-9.358c1.141-1.141 1.164-2.984 0.052-4.153zM13.627 3.578c0.785-0.785 2.062-0.769 2.827 0.036 0.738 0.776 0.723 2-0.035 2.757l-0.671 0.671-2.793-2.793 0.671-0.671zM12.249 4.957l2.793 2.793-7.98 7.98c-0.204 0.204-0.462 0.346-0.744 0.408l-3.159 0.703 0.707-3.183c0.059-0.267 0.193-0.511 0.387-0.705l7.996-7.996z"></path>
</svg>
