<svg version="1.1" xmlns="http://www.w3.org/2000/svg" width="20" height="20" viewBox="0 0 20 20">
<title>favorites</title>
<path d="M9.104 2.897c0.367-0.743 1.427-0.743 1.793 0l1.93 3.912 4.317 0.627c0.82 0.119 1.148 1.127 0.554 1.706l-3.123 3.045 0.737 4.299c0.14 0.817-0.717 1.44-1.451 1.054l-3.861-2.030-3.861 2.030c-0.734 0.386-1.591-0.237-1.451-1.054l0.737-4.299-3.124-3.045c-0.594-0.579-0.266-1.587 0.554-1.706l4.317-0.627 1.93-3.912zM10.001 3.34l-1.93 3.912c-0.146 0.295-0.427 0.5-0.753 0.547l-4.317 0.627 3.124 3.045c0.236 0.23 0.343 0.561 0.288 0.885l-0.737 4.299 3.861-2.030c0.291-0.153 0.639-0.153 0.931 0l3.861 2.030-0.737-4.299c-0.056-0.324 0.052-0.655 0.288-0.885l3.123-3.045-4.317-0.627c-0.326-0.047-0.607-0.252-0.753-0.547l-1.93-3.912z"></path>
</svg>
