<svg version="1.1" xmlns="http://www.w3.org/2000/svg" width="20" height="20" viewBox="0 0 20 20">
<title>filter</title>
<path d="M7.5 13h5c0.276 0 0.5 0.224 0.5 0.5 0 0.246-0.177 0.45-0.41 0.492l-0.090 0.008h-5c-0.276 0-0.5-0.224-0.5-0.5 0-0.246 0.177-0.45 0.41-0.492l0.090-0.008zM5.5 9h9c0.276 0 0.5 0.224 0.5 0.5 0 0.245-0.177 0.45-0.41 0.492l-0.090 0.008h-9c-0.276 0-0.5-0.224-0.5-0.5 0-0.245 0.177-0.45 0.41-0.492l0.090-0.008zM3.5 5h13c0.276 0 0.5 0.224 0.5 0.5 0 0.245-0.177 0.45-0.41 0.492l-0.090 0.008h-13c-0.276 0-0.5-0.224-0.5-0.5 0-0.245 0.177-0.45 0.41-0.492l0.090-0.008z"></path>
</svg>
