<svg version="1.1" xmlns="http://www.w3.org/2000/svg" width="20" height="20" viewBox="0 0 20 20">
<path d="M10 16.5c0-0.276-0.224-0.5-0.5-0.5h-1.5v-12h3v5c0 0.276 0.224 0.5 0.5 0.5s0.5-0.224 0.5-0.5v-5h2c0.552 0 1 0.448 1 1v2c0 0.276 0.224 0.5 0.5 0.5s0.5-0.224 0.5-0.5v-2c0-1.105-0.895-2-2-2h-9c-1.105 0-2 0.895-2 2v10c0 1.105 0.895 2 2 2h4.5c0.276 0 0.5-0.224 0.5-0.5zM7 16h-2c-0.552 0-1-0.448-1-1v-10c0-0.552 0.448-1 1-1h2v12z"></path>
<path d="M12.5 11c0-1.105 0.895-2 2-2s2 0.895 2 2v1h-1v-1c0-0.552-0.448-1-1-1s-1 0.448-1 1v1h-1v-1z"></path>
<path d="M12 12h5c0.552 0 1 0.448 1 1v4c0 0.552-0.448 1-1 1h-5c-0.552 0-1-0.448-1-1v-4c0-0.552 0.448-1 1-1zM15.25 15c0-0.414-0.336-0.75-0.75-0.75s-0.75 0.336-0.75 0.75c0 0.414 0.336 0.75 0.75 0.75s0.75-0.336 0.75-0.75z"></path>
</svg>
