<svg version="1.1" xmlns="http://www.w3.org/2000/svg" width="20" height="20" viewBox="0 0 20 20">
<title>food</title>
<path d="M9.5 3c0.245 0 0.45 0.177 0.492 0.41l0.008 0.090v3c0 1.209-0.859 2.218-2 2.45l-0 7.55c0 0.276-0.224 0.5-0.5 0.5-0.245 0-0.45-0.177-0.492-0.41l-0.008-0.090 0.001-7.55c-1.087-0.22-1.918-1.146-1.995-2.279l-0.006-0.171v-3c0-0.276 0.224-0.5 0.5-0.5 0.245 0 0.45 0.177 0.492 0.41l0.008 0.090v3c0 0.653 0.418 1.209 1 1.415l-0-4.415c0-0.276 0.224-0.5 0.5-0.5 0.245 0 0.45 0.177 0.492 0.41l0.008 0.090 0.001 4.414c0.537-0.19 0.934-0.678 0.992-1.266l0.007-0.149v-3c0-0.276 0.224-0.5 0.5-0.5zM14.5 3c0.246 0 0.45 0.177 0.492 0.41l0.008 0.090v13c0 0.276-0.224 0.5-0.5 0.5-0.246 0-0.45-0.177-0.492-0.41l-0.008-0.090v-5.5h-1.5c-0.246 0-0.45-0.177-0.492-0.41l-0.008-0.090v-5c0-1.381 1.119-2.5 2.5-2.5zM14 10v-5.915c-0.538 0.19-0.935 0.678-0.993 1.266l-0.007 0.149v4.5h1z"></path>
</svg>
