<svg version="1.1" xmlns="http://www.w3.org/2000/svg" width="20" height="20" viewBox="0 0 20 20">
<title>gift</title>
<path d="M12 2c1.381 0 2.5 1.119 2.5 2.5 0 0.563-0.186 1.083-0.501 1.501l2.001-0.001c0.552 0 1 0.448 1 1v3c0 0.552-0.448 1-1 1v4.5c0 1.381-1.119 2.5-2.5 2.5h-7c-1.381 0-2.5-1.119-2.5-2.5v-4.5c-0.552 0-1-0.448-1-1v-3c0-0.552 0.448-1 1-1l2.001 0.001c-0.314-0.418-0.501-0.938-0.501-1.501 0-1.381 1.119-2.5 2.5-2.5 0.818 0 1.545 0.393 2.001 1.001 0.454-0.608 1.181-1.001 1.999-1.001zM9.5 11h-4.5v4.5c0 0.828 0.672 1.5 1.5 1.5h3v-6zM15 11h-4.5v6h3c0.828 0 1.5-0.672 1.5-1.5v-4.5zM9.5 7h-5.5v3h5.5v-3zM16 7h-5.5v3h5.5v-3zM12 3c-0.828 0-1.5 0.672-1.5 1.5v1.5h1.5c0.828 0 1.5-0.672 1.5-1.5s-0.672-1.5-1.5-1.5zM8 3c-0.828 0-1.5 0.672-1.5 1.5 0 0.78 0.595 1.42 1.356 1.493l0.144 0.007h1.5v-1.5l-0.007-0.144c-0.073-0.761-0.713-1.356-1.493-1.356z"></path>
</svg>
