<svg version="1.1" xmlns="http://www.w3.org/2000/svg" width="20" height="20" viewBox="0 0 20 20">
<title>grouped</title>
<path d="M10.499 3.501c0-0.353-0.356-0.595-0.684-0.465l-5.868 2.324c-0.572 0.227-0.948 0.779-0.948 1.395v5.743c0 0.353 0.356 0.595 0.684 0.465l0.316-0.125v1.075c-0.97 0.344-2-0.374-2-1.414v-5.743c0-1.025 0.626-1.947 1.579-2.324l5.868-2.324c0.955-0.378 1.989 0.293 2.050 1.301l-0.997 0.395v-0.302zM13.499 5.502c0-0.353-0.356-0.595-0.684-0.465l-6.184 2.449c-0.381 0.151-0.632 0.52-0.632 0.93v6.082c0 0.353 0.356 0.595 0.684 0.465l1.316-0.522v1.076l-0.947 0.376c-0.985 0.39-2.053-0.335-2.053-1.394v-6.082c0-0.82 0.501-1.557 1.264-1.859l6.183-2.449c0.985-0.39 2.052 0.336 2.052 1.395v0.102l-1 0.396v-0.498zM16.316 7.036c0.328-0.13 0.684 0.112 0.684 0.465v6.623c0 0.205-0.125 0.389-0.316 0.465l-6 2.376c-0.328 0.13-0.684-0.112-0.684-0.465v-6.623c0-0.205 0.125-0.389 0.316-0.465l6-2.376zM18 7.501c0-1.059-1.068-1.785-2.052-1.395l-6 2.376c-0.572 0.227-0.948 0.779-0.948 1.395v6.623c0 1.059 1.068 1.785 2.052 1.395l6-2.376c0.572-0.227 0.948-0.779 0.948-1.395v-6.623z"></path>
</svg>
