<svg version="1.1" xmlns="http://www.w3.org/2000/svg" width="20" height="20" viewBox="0 0 20 20">
<title>imgarunlock</title>
<path d="M11 12c0 0.552-0.448 1-1 1s-1-0.448-1-1c0-0.552 0.448-1 1-1s1 0.448 1 1z"></path>
<path d="M12 6c0-1.105 0.895-2 2-2s2 0.895 2 2v0.5c0 0.276 0.224 0.5 0.5 0.5s0.5-0.224 0.5-0.5v-0.5c0-1.657-1.343-3-3-3s-3 1.343-3 3v1h-4c-1.657 0-3 1.343-3 3v4c0 1.657 1.343 3 3 3h6c1.657 0 3-1.343 3-3v-4c0-1.657-1.343-3-3-3h-1v-1zM7 8h6c1.105 0 2 0.895 2 2v4c0 1.105-0.895 2-2 2h-6c-1.105 0-2-0.895-2-2v-4c0-1.105 0.895-2 2-2z"></path>
<path d="M0 2c0-1.105 0.895-2 2-2 0.74 0 1.387 0.402 1.732 1h12.535c0.346-0.598 0.992-1 1.732-1 1.105 0 2 0.895 2 2 0 0.74-0.402 1.387-1 1.732v12.535c0.598 0.346 1 0.992 1 1.732 0 1.105-0.895 2-2 2-0.74 0-1.387-0.402-1.732-1h-12.535c-0.346 0.598-0.992 1-1.732 1-1.105 0-2-0.895-2-2 0-0.74 0.402-1.387 1-1.732v-12.535c-0.598-0.346-1-0.992-1-1.732zM2 4v12c1.105 0 2 0.895 2 2h12c0-1.105 0.895-2 2-2v-12c-1.105 0-2-0.895-2-2h-12c0 1.105-0.895 2-2 2zM3 2c0 0.552-0.448 1-1 1s-1-0.448-1-1c0-0.552 0.448-1 1-1s1 0.448 1 1zM19 2c0 0.552-0.448 1-1 1s-1-0.448-1-1c0-0.552 0.448-1 1-1s1 0.448 1 1zM19 18c0 0.552-0.448 1-1 1s-1-0.448-1-1c0-0.552 0.448-1 1-1s1 0.448 1 1zM3 18c0 0.552-0.448 1-1 1s-1-0.448-1-1c0-0.552 0.448-1 1-1s1 0.448 1 1z"></path>
</svg>
