<svg version="1.1" xmlns="http://www.w3.org/2000/svg" width="20" height="20" viewBox="0 0 20 20">
<title>Info</title>
<path d="M10.492 8.91c-0.042-0.233-0.247-0.41-0.492-0.41-0.276 0-0.5 0.224-0.5 0.5v4.502l0.008 0.090c0.042 0.233 0.246 0.41 0.492 0.41 0.276 0 0.5-0.224 0.5-0.5v-4.502l-0.008-0.090zM10.799 6.75c0-0.414-0.336-0.75-0.75-0.75s-0.75 0.336-0.75 0.75c0 0.414 0.336 0.75 0.75 0.75s0.75-0.336 0.75-0.75zM18 10c0-4.418-3.582-8-8-8s-8 3.582-8 8c0 4.418 3.582 8 8 8s8-3.582 8-8zM3 10c0-3.866 3.134-7 7-7s7 3.134 7 7c0 3.866-3.134 7-7 7s-7-3.134-7-7z"></path>
</svg>
