<svg version="1.1" xmlns="http://www.w3.org/2000/svg" width="20" height="20" viewBox="0 0 20 20">
<title>key</title>
<path d="M15 6c0 0.552-0.448 1-1 1s-1-0.448-1-1c0-0.552 0.448-1 1-1s1 0.448 1 1zM12.5 2c-3.076 0-5.5 2.424-5.5 5.5 0 0.397 0.040 0.796 0.122 1.175 0.058 0.27-0.008 0.505-0.141 0.638l-4.541 4.541c-0.281 0.281-0.439 0.663-0.439 1.061v1.586c0 0.828 0.672 1.5 1.5 1.5h2c0.828 0 1.5-0.672 1.5-1.5v-0.5h1c0.552 0 1-0.448 1-1v-1h1c0.552 0 1-0.448 1-1v-0.18c0.493 0.134 1.007 0.18 1.5 0.18 3.076 0 5.5-2.424 5.5-5.5s-2.424-5.5-5.5-5.5zM8 7.5c0-2.524 1.976-4.5 4.5-4.5s4.5 1.976 4.5 4.5c0 2.524-1.976 4.5-4.5 4.5-0.659 0-1.273-0.095-1.776-0.347-0.155-0.078-0.339-0.069-0.487 0.022s-0.237 0.252-0.237 0.425v0.9h-1c-0.552 0-1 0.448-1 1v1h-1c-0.552 0-1 0.448-1 1v0.5c0 0.276-0.224 0.5-0.5 0.5h-2c-0.276 0-0.5-0.224-0.5-0.5v-1.586c0-0.133 0.053-0.26 0.146-0.353l4.541-4.541c0.432-0.432 0.522-1.044 0.412-1.556-0.066-0.305-0.099-0.633-0.099-0.964z"></path>
</svg>
