<svg version="1.1" xmlns="http://www.w3.org/2000/svg" width="20" height="20" viewBox="0 0 20 20">
<title>money</title>
<path d="M18 10c0-4.418-3.582-8-8-8s-8 3.582-8 8c0 4.418 3.582 8 8 8s8-3.582 8-8zM3 10c0-3.866 3.134-7 7-7s7 3.134 7 7c0 3.866-3.134 7-7 7s-7-3.134-7-7zM9.351 5.417c0-0.23 0.207-0.417 0.463-0.417s0.463 0.186 0.463 0.417v0.206c1.251 0.124 2.224 1.078 2.224 2.237v0.612c0 0.23-0.207 0.417-0.463 0.417s-0.463-0.186-0.463-0.417v-0.612c0-0.698-0.56-1.278-1.298-1.396v3.19l0.698 0.282c0.928 0.375 1.526 1.205 1.526 2.121v0.073c0 1.158-0.972 2.113-2.224 2.237v0.217c0 0.23-0.207 0.417-0.463 0.417s-0.463-0.187-0.463-0.417v-0.28c-1.065-0.257-1.851-1.133-1.851-2.174v-0.602c0-0.23 0.207-0.417 0.463-0.417s0.463 0.187 0.463 0.417v0.602c0 0.575 0.38 1.069 0.925 1.292v-3.228l-0.322-0.13c-0.93-0.375-1.529-1.208-1.529-2.125v-0.079c0-1.041 0.785-1.916 1.851-2.174v-0.269zM9.351 6.568c-0.546 0.223-0.925 0.717-0.925 1.292v0.079c0 0.571 0.36 1.090 0.925 1.341v-2.711zM10.276 10.567v2.959c0.738-0.118 1.298-0.698 1.298-1.396v-0.073c0-0.588-0.383-1.12-0.979-1.361l-0.319-0.129z"></path>
</svg>
