<svg version="1.1" xmlns="http://www.w3.org/2000/svg" width="20" height="20" viewBox="0 0 20 20">
<title>pin</title>
<path d="M10.122 3.137c0.611-1.221 2.238-1.485 3.203-0.52l4.057 4.057c0.965 0.965 0.701 2.593-0.52 3.203l-3.458 1.729c-0.329 0.164-0.585 0.443-0.722 0.784l-1.436 3.59c-0.267 0.667-1.128 0.843-1.636 0.336l-2.61-2.61-3.293 3.293h-0.707v-0.707l3.293-3.293-2.61-2.61c-0.508-0.508-0.331-1.369 0.336-1.636l3.59-1.436c0.341-0.136 0.62-0.393 0.785-0.722l1.729-3.458zM12.618 3.324c-0.483-0.483-1.296-0.351-1.602 0.26l-1.729 3.458c-0.274 0.548-0.739 0.976-1.308 1.203l-3.59 1.436 5.928 5.928 1.436-3.59c0.227-0.568 0.656-1.034 1.203-1.308l3.458-1.729c0.611-0.305 0.742-1.119 0.26-1.602l-4.057-4.057z"></path>
</svg>
