<svg version="1.1" xmlns="http://www.w3.org/2000/svg" width="20" height="20" viewBox="0 0 20 20">
<title>range</title>
<path d="M6.5 8c-0.276 0-0.5-0.224-0.5-0.5s0.224-0.5 0.5-0.5h5.793l-0.146-0.146c-0.195-0.195-0.195-0.512 0-0.707s0.512-0.195 0.707 0l1 1c0.048 0.048 0.084 0.103 0.109 0.162s0.038 0.124 0.038 0.191c0 0.068-0.013 0.132-0.038 0.191s-0.061 0.114-0.109 0.162l-1 1c-0.195 0.195-0.512 0.195-0.707 0s-0.195-0.512 0-0.707l0.146-0.146h-5.793zM6.95 12h6.1c0.232 1.141 1.241 2 2.45 2 1.381 0 2.5-1.119 2.5-2.5s-1.119-2.5-2.5-2.5c-1.209 0-2.218 0.859-2.45 2h-6.1c-0.232-1.141-1.241-2-2.45-2-1.381 0-2.5 1.119-2.5 2.5s1.119 2.5 2.5 2.5c1.209 0 2.218-0.859 2.45-2zM15.5 13c-0.828 0-1.5-0.672-1.5-1.5s0.672-1.5 1.5-1.5c0.828 0 1.5 0.672 1.5 1.5s-0.672 1.5-1.5 1.5zM6 11.5c0 0.828-0.672 1.5-1.5 1.5s-1.5-0.672-1.5-1.5c0-0.828 0.672-1.5 1.5-1.5s1.5 0.672 1.5 1.5zM4.5 12c-0.276 0-0.5-0.224-0.5-0.5s0.224-0.5 0.5-0.5c0.276 0 0.5 0.224 0.5 0.5s-0.224 0.5-0.5 0.5z"></path>
</svg>
