<svg version="1.1" xmlns="http://www.w3.org/2000/svg" width="20" height="20" viewBox="0 0 20 20">
<title>refresh</title>
<path d="M11.414 3.635c0.195-0.195 0.195-0.512 0-0.707l-2.121-2.121c-0.195-0.195-0.512-0.195-0.707 0s-0.195 0.512 0 0.707l0.997 0.997c-1.777 0.099-3.528 0.827-4.886 2.185-2.929 2.929-2.929 7.678 0 10.607 0.257 0.257 0.528 0.491 0.811 0.703 0.221 0.166 0.534 0.121 0.7-0.1s0.121-0.534-0.1-0.7c-0.245-0.184-0.48-0.387-0.704-0.611-2.538-2.538-2.538-6.654 0-9.192 1.286-1.286 2.976-1.921 4.663-1.903 0.025 0 0.050-0.001 0.074-0.005l-1.555 1.555c-0.195 0.195-0.195 0.512 0 0.707s0.512 0.195 0.707 0l2.121-2.121zM8.586 16.363c-0.195 0.195-0.195 0.512 0 0.707l2.121 2.121c0.195 0.195 0.512 0.195 0.707 0s0.195-0.512 0-0.707l-0.997-0.997c1.777-0.098 3.528-0.827 4.886-2.185 2.929-2.929 2.929-7.678 0-10.607-0.257-0.257-0.528-0.491-0.811-0.703-0.221-0.166-0.534-0.121-0.7 0.1s-0.121 0.534 0.1 0.7c0.245 0.184 0.48 0.387 0.704 0.61 2.538 2.538 2.538 6.654 0 9.192-1.286 1.286-2.976 1.921-4.663 1.903-0.025-0-0.050 0.001-0.074 0.005l1.555-1.555c0.195-0.195 0.195-0.512 0-0.707s-0.512-0.195-0.707 0l-2.121 2.121z"></path>
</svg>
