<svg version="1.1" xmlns="http://www.w3.org/2000/svg" width="20" height="20" viewBox="0 0 20 20">
<title>restore</title>
<path d="M4 10c0-3.314 2.686-6 6-6 1.777 0 3.373 0.772 4.472 2h-1.972c-0.276 0-0.5 0.224-0.5 0.5s0.224 0.5 0.5 0.5h3c0.276 0 0.5-0.224 0.5-0.5v-3c0-0.276-0.224-0.5-0.5-0.5s-0.5 0.224-0.5 0.5v1.601c-1.27-1.296-3.041-2.101-5-2.101-3.866 0-7 3.134-7 7s3.134 7 7 7c3.866 0 7-3.134 7-7 0-0.181-0.007-0.36-0.020-0.538-0.021-0.275-0.261-0.482-0.537-0.461s-0.482 0.261-0.461 0.536c0.012 0.152 0.017 0.307 0.017 0.462 0 3.314-2.686 6-6 6s-6-2.686-6-6z"></path>
</svg>
