<svg version="1.1" xmlns="http://www.w3.org/2000/svg" width="20" height="20" viewBox="0 0 20 20">
<title>sorted</title>
<path d="M2.354 7.354l2.644-2.644v11.79c0 0.276 0.224 0.5 0.5 0.5s0.5-0.224 0.5-0.5v-11.795l2.649 2.649c0.195 0.195 0.512 0.195 0.707 0s0.195-0.512 0-0.707l-3.5-3.5c-0.038-0.038-0.080-0.068-0.125-0.091-0.072-0.037-0.15-0.055-0.229-0.055h-0.002c-0.154 0-0.291 0.069-0.383 0.179l-3.468 3.468c-0.195 0.195-0.195 0.512 0 0.707s0.512 0.195 0.707 0zM17.647 12.646l-2.644 2.644v-11.79c0-0.276-0.224-0.5-0.5-0.5s-0.5 0.224-0.5 0.5v11.795l-2.649-2.649c-0.195-0.195-0.512-0.195-0.707 0s-0.195 0.512 0 0.707l3.5 3.5c0.038 0.038 0.080 0.068 0.125 0.091 0.072 0.037 0.15 0.055 0.229 0.055h0.002c0.154 0 0.291-0.069 0.383-0.179l3.468-3.468c0.195-0.195 0.195-0.512 0-0.707s-0.512-0.195-0.707 0z"></path>
</svg>
