<svg version="1.1" xmlns="http://www.w3.org/2000/svg" width="20" height="20" viewBox="0 0 20 20">
<title>subscript</title>
<path d="M13.539 4.12c0.21 0.18 0.234 0.495 0.054 0.705l-4.435 5.175 4.085 4.766c-0.187 0.294-0.341 0.638-0.425 1.041l-4.319-5.039-4.335 5.057c-0.18 0.21-0.495 0.234-0.705 0.054s-0.234-0.495-0.054-0.705l4.435-5.175-4.435-5.175c-0.18-0.21-0.155-0.525 0.054-0.705s0.525-0.155 0.705 0.054l4.335 5.057 4.335-5.057c0.18-0.21 0.495-0.234 0.705-0.054zM15.584 12c-0.465 0-0.835 0.421-0.835 0.864 0 0.276-0.224 0.5-0.5 0.5s-0.5-0.224-0.5-0.5c0-0.921 0.747-1.864 1.835-1.864 0.635 0 1.247 0.297 1.59 0.824 0.358 0.55 0.37 1.267-0.046 1.975-0.212 0.361-0.503 0.633-0.785 0.856-0.142 0.112-0.288 0.216-0.425 0.313l-0.059 0.042c-0.118 0.083-0.228 0.161-0.335 0.241-0.322 0.243-0.556 0.466-0.677 0.748h2.096c0.276 0 0.5 0.224 0.5 0.5s-0.224 0.5-0.5 0.5h-2.642c-0.009 0-0.017-0-0.026-0.001s-0.017 0.001-0.026 0.001c-0.276 0-0.5-0.224-0.5-0.5 0-1.037 0.607-1.621 1.173-2.047 0.12-0.090 0.244-0.178 0.362-0.261l0.057-0.040c0.137-0.097 0.263-0.187 0.383-0.282 0.239-0.188 0.421-0.371 0.543-0.578 0.252-0.429 0.193-0.734 0.070-0.923-0.138-0.212-0.416-0.369-0.752-0.369z"></path>
</svg>
