<svg version="1.1" xmlns="http://www.w3.org/2000/svg" width="20" height="20" viewBox="0 0 20 20">
<title>tablerowproperties</title>
<path d="M3.5 14c0.276 0 0.5 0.224 0.5 0.5 0 0.78 0.595 1.42 1.356 1.493l0.144 0.007h1.5v-1.5c0-0.276 0.224-0.5 0.5-0.5s0.5 0.224 0.5 0.5v1.5h1.62c-0.002 0.008-0.004 0.015-0.006 0.023l-0.244 0.977h-3.869c-1.381 0-2.5-1.119-2.5-2.5 0-0.276 0.224-0.5 0.5-0.5zM17 9.004c-0.342 0.017-0.681 0.095-1 0.234v-1.238h-3v3.96l-1.040 1.040h-7.96c-0.552 0-1-0.448-1-1v-4c0-0.552 0.448-1 1-1h12c0.552 0 1 0.448 1 1v1.004zM16.5 6c-0.276 0-0.5-0.224-0.5-0.5 0-0.78-0.595-1.42-1.356-1.493l-0.144-0.007h-1.5v1.5c0 0.276-0.224 0.5-0.5 0.5s-0.5-0.224-0.5-0.5v-1.5h-4v1.5c0 0.276-0.224 0.5-0.5 0.5s-0.5-0.224-0.5-0.5v-1.5h-1.5c-0.78 0-1.42 0.595-1.493 1.356l-0.007 0.144c0 0.276-0.224 0.5-0.5 0.5s-0.5-0.224-0.5-0.5c0-1.381 1.119-2.5 2.5-2.5h9c1.381 0 2.5 1.119 2.5 2.5 0 0.276-0.224 0.5-0.5 0.5zM4 8v4h3v-4h-3zM8 8v4h4v-4h-4z"></path>
<path d="M10.98 15.377l4.829-4.829c0.73-0.73 1.914-0.73 2.645 0s0.73 1.914 0 2.645l-4.829 4.829c-0.282 0.282-0.634 0.481-1.021 0.578l-1.498 0.374c-0.651 0.163-1.241-0.427-1.079-1.079l0.374-1.498c0.097-0.386 0.296-0.739 0.578-1.021z"></path>
</svg>
