<svg version="1.1" xmlns="http://www.w3.org/2000/svg" width="20" height="20" viewBox="0 0 20 20">
<title>tableaddcolumnbefore</title>
<path d="M3 5.5c0-1.381 1.119-2.5 2.5-2.5h5c0.276 0 0.5 0.224 0.5 0.5s-0.224 0.5-0.5 0.5h-5c-0.78 0-1.42 0.595-1.493 1.356l-0.007 0.144v9c0 0.78 0.595 1.42 1.356 1.493l0.144 0.007h5c0.276 0 0.5 0.224 0.5 0.5s-0.224 0.5-0.5 0.5h-5c-1.381 0-2.5-1.119-2.5-2.5v-9zM14.5 17h-2.5v-14h2.5c1.381 0 2.5 1.119 2.5 2.5v9c0 1.381-1.119 2.5-2.5 2.5zM13 16h1.5c0.78 0 1.42-0.595 1.493-1.356l0.007-0.144v-1.5h-3v3zM16 7v-1.5c0-0.78-0.595-1.42-1.356-1.493l-0.144-0.007h-1.5v3h3zM5.5 10.5c-0.276 0-0.5-0.224-0.5-0.5s0.224-0.5 0.5-0.5h1.5v-1.5c0-0.276 0.224-0.5 0.5-0.5s0.5 0.224 0.5 0.5v1.5h1.5c0.276 0 0.5 0.224 0.5 0.5s-0.224 0.5-0.5 0.5h-1.5v1.5c0 0.276-0.224 0.5-0.5 0.5s-0.5-0.224-0.5-0.5v-1.5h-1.5zM16 12v-4h-3v4h3z"></path>
</svg>
