<svg version="1.1" xmlns="http://www.w3.org/2000/svg" width="20" height="20" viewBox="0 0 20 20">
<title>taskinprogress</title>
<path d="M5.75 16h3.457c0.099 0.349 0.231 0.683 0.393 1h-3.85c-1.519 0-2.75-1.231-2.75-2.75v-8.5c0-1.519 1.231-2.75 2.75-2.75h8.5c1.519 0 2.75 1.231 2.75 2.75v3.85c-0.317-0.162-0.651-0.294-1-0.393v-3.457c0-0.967-0.783-1.75-1.75-1.75h-8.5c-0.967 0-1.75 0.783-1.75 1.75v8.5c0 0.967 0.783 1.75 1.75 1.75z"></path>
<path d="M6.75 8c0.414 0 0.75-0.336 0.75-0.75s-0.336-0.75-0.75-0.75c-0.414 0-0.75 0.336-0.75 0.75s0.336 0.75 0.75 0.75z"></path>
<path d="M7.5 10.25c0 0.414-0.336 0.75-0.75 0.75s-0.75-0.336-0.75-0.75c0-0.414 0.336-0.75 0.75-0.75s0.75 0.336 0.75 0.75z"></path>
<path d="M7.5 13.25c0 0.414-0.336 0.75-0.75 0.75s-0.75-0.336-0.75-0.75c0-0.414 0.336-0.75 0.75-0.75s0.75 0.336 0.75 0.75z"></path>
<path d="M9 7.5c0-0.276 0.224-0.5 0.5-0.5h4c0.276 0 0.5 0.224 0.5 0.5s-0.224 0.5-0.5 0.5h-4c-0.276 0-0.5-0.224-0.5-0.5z"></path>
<path d="M9 10.5c0-0.276 0.224-0.5 0.5-0.5h1.837c-0.403 0.284-0.766 0.621-1.080 1h-0.757c-0.276 0-0.5-0.224-0.5-0.5z"></path>
<path d="M19 14.5c0-2.485-2.015-4.5-4.5-4.5s-4.5 2.015-4.5 4.5c0 2.485 2.015 4.5 4.5 4.5s4.5-2.015 4.5-4.5zM13 12.85c0-0.381 0.41-0.622 0.743-0.437l2.971 1.65c0.343 0.191 0.343 0.684 0 0.874l-2.971 1.65c-0.333 0.185-0.743-0.056-0.743-0.437v-3.3z"></path>
</svg>
