<svg version="1.1" xmlns="http://www.w3.org/2000/svg" width="20" height="20" viewBox="0 0 20 20">
<title>tel</title>
<path d="M6.986 2.066l-0.717 0.216c-1.304 0.393-2.261 1.506-2.454 2.854-0.297 2.069 0.367 4.487 1.968 7.259 1.597 2.766 3.355 4.549 5.29 5.329 1.27 0.512 2.721 0.236 3.715-0.705l0.543-0.514c0.727-0.689 0.833-1.81 0.247-2.622l-1.357-1.88c-0.376-0.521-1.041-0.744-1.655-0.557l-2.051 0.627-0.053 0.010c-0.226 0.033-0.747-0.456-1.398-1.582-0.68-1.178-0.821-1.867-0.633-2.044l1.043-0.973c0.782-0.729 1.013-1.875 0.575-2.85l-0.661-1.471c-0.412-0.916-1.44-1.385-2.401-1.095zM8.475 3.571l0.661 1.471c0.263 0.585 0.124 1.272-0.344 1.709l-1.046 0.975c-0.669 0.633-0.447 1.716 0.452 3.273 0.846 1.466 1.618 2.19 2.448 2.064l0.124-0.027 2.088-0.637c0.205-0.063 0.426 0.012 0.552 0.186l1.357 1.88c0.293 0.406 0.24 0.967-0.123 1.311l-0.543 0.514c-0.71 0.672-1.747 0.869-2.653 0.504-1.698-0.684-3.303-2.312-4.798-4.901-1.498-2.595-2.104-4.802-1.844-6.617 0.138-0.963 0.822-1.758 1.753-2.038l0.717-0.216c0.481-0.145 0.995 0.089 1.201 0.547z"></path>
</svg>
