<svg version="1.1" xmlns="http://www.w3.org/2000/svg" width="20" height="20" viewBox="0 0 20 20">
<title>thumbnailsview</title>
<path d="M7.5 11c0.828 0 1.5 0.672 1.5 1.5v4c0 0.828-0.672 1.5-1.5 1.5h-4c-0.828 0-1.5-0.672-1.5-1.5v-4c0-0.828 0.672-1.5 1.5-1.5h4zM16.5 11c0.828 0 1.5 0.672 1.5 1.5v4c0 0.828-0.672 1.5-1.5 1.5h-4c-0.828 0-1.5-0.672-1.5-1.5v-4c0-0.828 0.672-1.5 1.5-1.5h4zM7.5 12h-4c-0.276 0-0.5 0.224-0.5 0.5v4c0 0.276 0.224 0.5 0.5 0.5h4c0.276 0 0.5-0.224 0.5-0.5v-4c0-0.276-0.224-0.5-0.5-0.5zM16.5 12h-4c-0.276 0-0.5 0.224-0.5 0.5v4c0 0.276 0.224 0.5 0.5 0.5h4c0.276 0 0.5-0.224 0.5-0.5v-4c0-0.276-0.224-0.5-0.5-0.5zM7.5 2c0.828 0 1.5 0.672 1.5 1.5v4c0 0.828-0.672 1.5-1.5 1.5h-4c-0.828 0-1.5-0.672-1.5-1.5v-4c0-0.828 0.672-1.5 1.5-1.5h4zM16.5 2c0.828 0 1.5 0.672 1.5 1.5v4c0 0.828-0.672 1.5-1.5 1.5h-4c-0.828 0-1.5-0.672-1.5-1.5v-4c0-0.828 0.672-1.5 1.5-1.5h4zM7.5 3h-4c-0.276 0-0.5 0.224-0.5 0.5v4c0 0.276 0.224 0.5 0.5 0.5h4c0.276 0 0.5-0.224 0.5-0.5v-4c0-0.276-0.224-0.5-0.5-0.5zM16.5 3h-4c-0.276 0-0.5 0.224-0.5 0.5v4c0 0.276 0.224 0.5 0.5 0.5h4c0.276 0 0.5-0.224 0.5-0.5v-4c0-0.276-0.224-0.5-0.5-0.5z"></path>
</svg>
