<svg version="1.1" xmlns="http://www.w3.org/2000/svg" width="20" height="20" viewBox="0 0 20 20">
<path d="M15 11v1h-3c-0.552 0-1 0.448-1 1v4c0 0.552 0.448 1 1 1h5c0.552 0 1-0.448 1-1v-4c0-0.552-0.448-1-1-1h-1v-1c0-0.552 0.448-1 1-1s1 0.448 1 1c0 0.276 0.224 0.5 0.5 0.5s0.5-0.224 0.5-0.5c0-1.105-0.895-2-2-2s-2 0.895-2 2zM14.5 14.25c0.414 0 0.75 0.336 0.75 0.75s-0.336 0.75-0.75 0.75c-0.414 0-0.75-0.336-0.75-0.75s0.336-0.75 0.75-0.75z"></path>
<path d="M9.5 17h-4.5c-1.105 0-2-0.895-2-2v-10c0-1.105 0.895-2 2-2h9c1.105 0 2 0.895 2 2v2.5c0 0.276-0.224 0.5-0.5 0.5s-0.5-0.224-0.5-0.5v-2.5c0-0.552-0.448-1-1-1h-2v6.5c0 0.276-0.224 0.5-0.5 0.5s-0.5-0.224-0.5-0.5v-6.5h-3v12h1.5c0.276 0 0.5 0.224 0.5 0.5s-0.224 0.5-0.5 0.5zM5 16h2v-12h-2c-0.552 0-1 0.448-1 1v10c0 0.552 0.448 1 1 1z"></path>
</svg>
