<?xml version="1.0" encoding="utf-8"?>
<!DOCTYPE svg PUBLIC "-//W3C//DTD SVG 1.1//EN" "http://www.w3.org/Graphics/SVG/1.1/DTD/svg11.dtd">
<svg version="1.1" id="Layer_1" xmlns="http://www.w3.org/2000/svg" xmlns:xlink="http://www.w3.org/1999/xlink" x="0px" y="0px"
	 width="191px" height="191px" viewBox="0 0 191 191" enable-background="new 0 0 191 191" xml:space="preserve">
<path fill="#FFFFFF" d="M95.5,0C42.8,0,0,42.8,0,95.5S42.8,191,95.5,191S191,148.2,191,95.5S148.2,0,95.5,0z M95.5,187.6
	c-50.848,0-92.1-41.25-92.1-92.1c0-50.848,41.252-92.1,92.1-92.1c50.85,0,92.1,41.252,92.1,92.1
	C187.6,146.35,146.35,187.6,95.5,187.6z"/>
<g>
	<path fill="#FFFFFF" d="M92.9,10v8.6H91v-6.5c-0.1,0.1-0.2,0.2-0.4,0.3c-0.2,0.1-0.3,0.2-0.4,0.2c-0.1,0-0.3,0.1-0.5,0.2
		c-0.2,0.1-0.3,0.1-0.5,0.1v-1.6c0.5-0.1,0.9-0.3,1.4-0.5c0.5-0.2,0.8-0.5,1.2-0.7h1.1V10z"/>
	<path fill="#FFFFFF" d="M97.1,17.1h3.602v1.5h-5.6V18c0-0.4,0.1-0.8,0.2-1.2c0.1-0.4,0.3-0.6,0.5-0.9c0.2-0.3,0.5-0.5,0.7-0.7
		c0.2-0.2,0.5-0.4,0.7-0.6c0.199-0.2,0.5-0.3,0.6-0.5c0.102-0.2,0.301-0.3,0.5-0.5c0.2-0.2,0.2-0.3,0.301-0.5
		c0.101-0.2,0.101-0.3,0.101-0.5c0-0.4-0.101-0.6-0.3-0.8c-0.2-0.2-0.4-0.3-0.801-0.3c-0.699,0-1.399,0.3-2.101,0.9v-1.6
		c0.7-0.5,1.5-0.7,2.5-0.7c0.399,0,0.8,0.1,1.101,0.2c0.301,0.1,0.601,0.3,0.899,0.5c0.3,0.2,0.399,0.5,0.5,0.8
		c0.101,0.3,0.2,0.6,0.2,1s-0.102,0.7-0.2,1c-0.099,0.3-0.3,0.6-0.5,0.8c-0.2,0.2-0.399,0.5-0.7,0.7c-0.3,0.2-0.5,0.4-0.8,0.6
		c-0.2,0.1-0.399,0.3-0.5,0.4s-0.3,0.3-0.5,0.4s-0.2,0.3-0.3,0.4C97.1,17,97.1,17,97.1,17.1z"/>
</g>
<g>
	<path fill="#FFFFFF" d="M15,95.4c0,0.7-0.1,1.4-0.2,2c-0.1,0.6-0.4,1.1-0.7,1.5C13.8,99.3,13.4,99.6,12.9,99.8s-1,0.3-1.5,0.3
		c-0.7,0-1.3-0.1-1.8-0.3v-1.5c0.4,0.3,1,0.4,1.6,0.4c0.6,0,1.1-0.2,1.5-0.7c0.4-0.5,0.5-1.1,0.5-1.9l0,0
		C12.8,96.7,12.3,96.9,11.5,96.9c-0.3,0-0.7-0.102-1-0.2c-0.3-0.101-0.5-0.3-0.8-0.5c-0.3-0.2-0.4-0.5-0.5-0.8
		c-0.1-0.3-0.2-0.7-0.2-1c0-0.4,0.1-0.8,0.2-1.2c0.1-0.4,0.3-0.7,0.6-0.9c0.3-0.2,0.6-0.5,0.9-0.6c0.3-0.1,0.8-0.2,1.2-0.2
		c0.5,0,0.9,0.1,1.2,0.3c0.3,0.2,0.7,0.4,0.9,0.8s0.5,0.7,0.6,1.2S15,94.8,15,95.4z M13.1,94.4c0-0.2,0-0.4-0.1-0.6
		c-0.1-0.2-0.1-0.4-0.2-0.5c-0.1-0.1-0.2-0.2-0.4-0.3c-0.2-0.1-0.3-0.1-0.5-0.1c-0.2,0-0.3,0-0.4,0.1s-0.3,0.2-0.3,0.3
		c0,0.1-0.2,0.3-0.2,0.4c0,0.1-0.1,0.4-0.1,0.6c0,0.2,0,0.4,0.1,0.6c0.1,0.2,0.1,0.3,0.2,0.4c0.1,0.1,0.2,0.2,0.4,0.3
		c0.2,0.1,0.3,0.1,0.5,0.1c0.2,0,0.3,0,0.4-0.1s0.2-0.2,0.3-0.3c0.1-0.1,0.2-0.2,0.2-0.4C13,94.7,13.1,94.6,13.1,94.4z"/>
</g>
<g>
	<path fill="#FFFFFF" d="M176,99.7V98.1c0.6,0.4,1.2,0.602,2,0.602c0.5,0,0.8-0.102,1.1-0.301c0.301-0.199,0.4-0.5,0.4-0.801
		c0-0.398-0.2-0.699-0.5-0.898c-0.3-0.2-0.8-0.301-1.3-0.301h-0.802V95h0.701c1.101,0,1.601-0.4,1.601-1.1c0-0.7-0.4-1-1.302-1
		c-0.6,0-1.1,0.2-1.6,0.5v-1.5c0.6-0.3,1.301-0.4,2.1-0.4c0.9,0,1.5,0.2,2,0.6s0.701,0.9,0.701,1.5c0,1.1-0.601,1.8-1.701,2.1l0,0
		c0.602,0.1,1.102,0.3,1.4,0.6s0.5,0.8,0.5,1.3c0,0.801-0.3,1.4-0.9,1.9c-0.6,0.5-1.398,0.7-2.398,0.7
		C177.2,100.1,176.5,100,176,99.7z"/>
</g>
<g>
	<path fill="#FFFFFF" d="M98.5,179.102c0,0.398-0.1,0.799-0.2,1.199C98.2,180.7,98,181,97.7,181.2s-0.601,0.5-0.9,0.601
		c-0.3,0.1-0.7,0.199-1.2,0.199c-0.5,0-0.9-0.1-1.3-0.3c-0.4-0.2-0.7-0.399-0.9-0.8c-0.2-0.4-0.5-0.7-0.6-1.2
		c-0.1-0.5-0.2-1-0.2-1.601c0-0.699,0.1-1.399,0.3-2c0.2-0.601,0.4-1.101,0.8-1.5c0.4-0.399,0.7-0.699,1.2-1c0.5-0.3,1-0.3,1.6-0.3
		c0.6,0,1.2,0.101,1.5,0.199v1.5c-0.4-0.199-0.9-0.399-1.4-0.399c-0.3,0-0.6,0.101-0.8,0.2c-0.2,0.101-0.5,0.3-0.7,0.5
		c-0.2,0.199-0.3,0.5-0.4,0.8c-0.1,0.301-0.2,0.7-0.2,1.101l0,0c0.4-0.601,1-0.8,1.8-0.8c0.3,0,0.7,0.1,0.9,0.199
		c0.2,0.101,0.5,0.301,0.7,0.5c0.199,0.2,0.398,0.5,0.5,0.801C98.5,178.2,98.5,178.7,98.5,179.102z M96.7,179.2
		c0-0.899-0.4-1.399-1.1-1.399c-0.2,0-0.3,0-0.5,0.1c-0.2,0.101-0.3,0.201-0.4,0.301c-0.1,0.101-0.2,0.199-0.2,0.4
		c0,0.199-0.1,0.299-0.1,0.5c0,0.199,0,0.398,0.1,0.6s0.1,0.3,0.2,0.5c0.1,0.199,0.2,0.199,0.4,0.3c0.2,0.101,0.3,0.101,0.5,0.101
		c0.2,0,0.3,0,0.5-0.101c0.2-0.101,0.301-0.199,0.301-0.3c0-0.1,0.199-0.301,0.199-0.399C96.6,179.7,96.7,179.4,96.7,179.2z"/>
</g>
<circle fill="#FFFFFF" cx="95" cy="95" r="7"/>
</svg>
