<?xml version="1.0" encoding="utf-8"?>
<!-- Generator: Adobe Illustrator 16.0.3, SVG Export Plug-In . SVG Version: 6.00 Build 0)  -->
<!DOCTYPE svg PUBLIC "-//W3C//DTD SVG 1.1//EN" "http://www.w3.org/Graphics/SVG/1.1/DTD/svg11.dtd">
<svg version="1.1" id="Layer_2" xmlns="http://www.w3.org/2000/svg" xmlns:xlink="http://www.w3.org/1999/xlink" x="0px" y="0px"
	 width="64px" height="64px" viewBox="0 0 64 64" enable-background="new 0 0 64 64" xml:space="preserve">
<path fill="#337AB7" d="M58,5H6C4.9,5,4,5.9,4,7v50c0,1.1,0.9,2,2,2h52c1.1,0,2-0.9,2-2V7C60,5.9,59.1,5,58,5z M16,32
	c0-1.7,1.3-3,3-3s3,1.3,3,3c0,1.7-1.3,3-3,3S16,33.7,16,32z M22.5,43c-1.4,0-2.5-1.1-2.5-2.5s1.1-2.5,2.5-2.5s2.5,1.1,2.5,2.5
	S23.9,43,22.5,43z M22.5,26c-1.9,0-3.5-1.6-3.5-3.5s1.6-3.5,3.5-3.5s3.5,1.6,3.5,3.5S24.4,26,22.5,26z M32,47c-1.1,0-2-0.9-2-2
	s0.9-2,2-2s2,0.9,2,2S33.1,47,32,47z M32,23c-2.2,0-4-1.8-4-4s1.8-4,4-4s4,1.8,4,4S34.2,23,32,23z M36,22.5c0-2.5,2-4.5,4.5-4.5
	s4.5,2,4.5,4.5S43,27,40.5,27S36,25,36,22.5z M39.5,44c-0.8,0-1.5-0.7-1.5-1.5s0.7-1.5,1.5-1.5s1.5,0.7,1.5,1.5S40.3,44,39.5,44z
	 M45,37c-2.8,0-5-2.2-5-5c0-2.8,2.2-5,5-5s5,2.2,5,5C50,34.8,47.8,37,45,37z"/>
</svg>
