<?xml version="1.0" encoding="utf-8"?>
<!-- Generator: Adobe Illustrator 16.0.3, SVG Export Plug-In . SVG Version: 6.00 Build 0)  -->
<!DOCTYPE svg PUBLIC "-//W3C//DTD SVG 1.1//EN" "http://www.w3.org/Graphics/SVG/1.1/DTD/svg11.dtd">
<svg version="1.1" id="Layer_2" xmlns="http://www.w3.org/2000/svg" xmlns:xlink="http://www.w3.org/1999/xlink" x="0px" y="0px"
	 width="64px" height="64px" viewBox="0 0 64 64" enable-background="new 0 0 64 64" xml:space="preserve">
<path opacity="0.5" fill="#337AB7" d="M4,53v3c0,1.1,0.9,2,2,2h52c1.1,0,2-0.9,2-2v-3H4z"/>
<path fill="#337AB7" d="M58,9H6c-1.1,0-2,0.9-2,2v42c0,1.1,0.9,2,2,2h52c1.1,0,2-0.9,2-2V11C60,9.9,59.1,9,58,9z M51.3,14.5L49.7,13
	c-0.1-0.1-0.1-0.3,0-0.5l0.7-0.7c0.1-0.1,0.4-0.1,0.5,0l1.6,1.6c0.1,0.1,0.3,0.1,0.5,0l1.6-1.6c0.1-0.1,0.3-0.1,0.5,0l0.7,0.7
	c0.1,0.1,0.1,0.3,0,0.5l-1.6,1.6c-0.1,0.1-0.1,0.3,0,0.5l1.6,1.6c0.1,0.1,0.1,0.3,0,0.5L55,17.8c-0.1,0.1-0.3,0.1-0.5,0L53,16.2
	c-0.1-0.1-0.3-0.1-0.5,0L51,17.8c-0.1,0.1-0.3,0.1-0.5,0L49.7,17c-0.1-0.1-0.1-0.3,0-0.5l1.6-1.6C51.4,14.9,51.4,14.6,51.3,14.5z
	 M57,51c0,0.5-0.5,1-1,1H8c-0.5,0-1-0.5-1-1V22c0-0.5,0.5-1,1-1h48c0.5,0,1,0.5,1,1V51z"/>
<rect x="18" y="32" fill="#337AB7" width="28" height="3"/>
<rect x="18" y="38" fill="#337AB7" width="28" height="3"/>
</svg>
