<?xml version="1.0" encoding="utf-8"?>
<!-- Generator: Adobe Illustrator 16.0.3, SVG Export Plug-In . SVG Version: 6.00 Build 0)  -->
<!DOCTYPE svg PUBLIC "-//W3C//DTD SVG 1.1//EN" "http://www.w3.org/Graphics/SVG/1.1/DTD/svg11.dtd">
<svg version="1.1" id="Layer_2" xmlns="http://www.w3.org/2000/svg" xmlns:xlink="http://www.w3.org/1999/xlink" x="0px" y="0px"
	 width="64px" height="64px" viewBox="0 0 64 64" enable-background="new 0 0 64 64" xml:space="preserve">
	<rect fill="#337AB7" x="6" y="8" width="7" height="2"></rect>
	<rect fill="#337AB7"fill="#337AB7" x="6" y="18" width="7" height="2"></rect>
	<path fill="#337AB7" d="M37,3H3C2.5,3,2,3.5,2,4v32c0,0.5,0.5,1,1,1h34c0.5,0,1-0.5,1-1V4C38,3.5,37.5,3,37,3z M4,5h12v6H4V5z 	 M13,13v2H6v-2H13z M4,17h12v18H4V17z M36,35H18V5h18V35z"></path>
	<rect fill="#337AB7" x="6" y="22" width="7" height="2"></rect>
	<rect fill="#337AB7" x="6" y="26" width="7" height="2"></rect>
	<rect fill="#337AB7" x="6" y="30" width="7" height="2"></rect>
	<polygon fill="#337AB7" points="34,20 28,14 28,18 20,18 20,22 28,22 28,26 "></polygon>
</svg>