<?xml version="1.0" encoding="utf-8"?>
<!-- Generator: Adobe Illustrator 16.0.3, SVG Export Plug-In . SVG Version: 6.00 Build 0)  -->
<!DOCTYPE svg PUBLIC "-//W3C//DTD SVG 1.1//EN" "http://www.w3.org/Graphics/SVG/1.1/DTD/svg11.dtd">
<svg version="1.1" id="Layer_3" xmlns="http://www.w3.org/2000/svg" xmlns:xlink="http://www.w3.org/1999/xlink" x="0px" y="0px"
	 width="64px" height="64px" viewBox="0 0 64 64" enable-background="new 0 0 64 64" xml:space="preserve">
<path fill="#337AB7" d="M58,4H6C4.9,4,4,4.9,4,6v39c0,1.1,0.9,2,2,2h42.9L60,59V6C60,4.9,59.1,4,58,4z M46,33H18v-3h28V33z M46,27
	H18v-3h28V27z M46,21H18v-3h28V21z"/>
<path opacity="0.5" fill="#337AB7" d="M4,44v6c0,1.1,0.9,2,2,2h42.9L60,64V44H4z"/>
</svg>
