<svg version="1.1" xmlns="http://www.w3.org/2000/svg" width="18" height="18" viewBox="0 0 18 18">
<title>accountbox</title>
<path d="M1 1v16h16v-16h-16zM3 3h12v12h-12v-12zM11 7c0 1.105-0.895 2-2 2s-2-0.895-2-2 0.895-2 2-2c1.105 0 2 0.895 2 2zM5 13v-0.483c0.009-0.17 0.034-0.331 0.077-0.488l-0.005 0.021c0.411-0.771 0.927-1.438 1.558-2.050l-0.030 0.030c0.563 0.335 1.31 0.539 2.13 0.539 0.092 0 0.182-0.002 0.272-0.007 0.081 0.005 0.174 0.007 0.269 0.007 0.818 0 1.564-0.204 2.13-0.539 0.597 0.581 1.111 1.249 1.491 1.958l0.029 0.061c0.041 0.155 0.064 0.333 0.064 0.515v0.016l0.016 0.42h-8zM11.4 10.030v0zM9.001 10.562h-0.001l0.012-0.001-0.011 0.001z"></path>
</svg>
