<!-- Generated by IcoMoon.io -->
<svg version="1.1" xmlns="http://www.w3.org/2000/svg" width="18" height="18" viewBox="0 0 18 18">
<title>background</title>
<path d="M3.24 12.9l-2.24 3.1h3l0.91-1.12 0.090 0.040 0.080-0.040-1.84-1.98z"></path>
<path d="M15.42 2.47l-0.78-0.84c-0.382-0.367-0.902-0.593-1.475-0.593-0.376 0-0.729 0.097-1.036 0.269l0.011-0.006-6.44 7 3.61 3.88 6.38-6.91c0.192-0.347 0.306-0.76 0.306-1.2 0-0.61-0.217-1.169-0.579-1.604l0.003 0.004z"></path>
<path d="M4.85 9.25c-0.343 0.701-0.66 1.531-0.904 2.392l-0.026 0.108 2.31 2.48 1.37-0.77c0.312-0.072 0.585-0.211 0.813-0.402l-0.003 0.002z"></path>
</svg>
