<svg version="1.1" xmlns="http://www.w3.org/2000/svg" width="18" height="18" viewBox="0 0 18 18">
<title>belloutline</title>
<path d="M9 1c-0.9 0-1.6 0.6-1.6 1.4v0.3c-2.2 0.6-3.4 2-3.4 4.3v3.5l-1.414 1.414c-0.375 0.375-0.586 0.884-0.586 1.414v0.672h4.171c0.412-1.165 1.523-2 2.829-2s2.418 0.835 2.829 2h4.171v-0.672c0-0.53-0.211-1.039-0.586-1.414l-1.414-1.414v-3.5c0-2.3-1.2-3.7-3.4-4.4v-0.2c0-0.8-0.7-1.4-1.6-1.4z"></path>
<path d="M9 17c1.105 0 2-0.895 2-2s-0.895-2-2-2c-1.105 0-2 0.895-2 2s0.895 2 2 2z"></path>
</svg>
