<svg version="1.1" xmlns="http://www.w3.org/2000/svg" width="18" height="18" viewBox="0 0 18 18">
<title>botoutline</title>
<path d="M6 6c0.283 0 0.521 0.095 0.713 0.287s0.287 0.43 0.287 0.713c0 0.283-0.095 0.521-0.287 0.713s-0.43 0.287-0.713 0.287c-0.283 0-0.521-0.095-0.713-0.287s-0.287-0.43-0.287-0.713c0-0.283 0.095-0.521 0.287-0.713s0.43-0.287 0.713-0.287z"></path>
<path d="M12 6c0.283 0 0.521 0.095 0.713 0.287s0.287 0.43 0.287 0.713c0 0.283-0.095 0.521-0.287 0.713s-0.43 0.287-0.713 0.287c-0.283 0-0.521-0.095-0.713-0.287s-0.287-0.43-0.287-0.713c0-0.283 0.095-0.521 0.287-0.713s0.43-0.287 0.713-0.287z"></path>
<path d="M9 1c0.552 0 1 0.448 1 1h2c1.383 0 2.562 0.488 3.537 1.463s1.463 2.154 1.463 3.537c0 1.383-0.488 2.562-1.463 3.537-0.476 0.476-1 0.834-1.573 1.077 0.023 0.124 0.036 0.252 0.036 0.386h1c0.552 0 1 0.448 1 1s-0.448 1-1 1h-1c0 1.105-0.895 2-2 2h-6c-1.105 0-2-0.895-2-2h-1c-0.552 0-1-0.448-1-1s0.448-1 1-1h1c0-0.133 0.012-0.262 0.035-0.386-0.572-0.244-1.097-0.602-1.572-1.077-0.975-0.975-1.463-2.154-1.463-3.537s0.488-2.562 1.463-3.537c0.975-0.975 2.154-1.463 3.537-1.463h2c0-0.552 0.448-1 1-1zM6.5 12c-0.276 0-0.5 0.224-0.5 0.5v1c0 0.276 0.224 0.5 0.5 0.5h5c0.276 0 0.5-0.224 0.5-0.5v-1c0-0.276-0.224-0.5-0.5-0.5h-5zM6 4c-0.833 0-1.542 0.292-2.125 0.875s-0.875 1.292-0.875 2.125c0 0.833 0.292 1.542 0.875 2.125s1.292 0.875 2.125 0.875h6c0.833 0 1.542-0.292 2.125-0.875s0.875-1.292 0.875-2.125c0-0.833-0.292-1.542-0.875-2.125s-1.292-0.875-2.125-0.875h-6z"></path>
</svg>
