<!-- Generated by IcoMoon.io -->
<svg version="1.1" xmlns="http://www.w3.org/2000/svg" width="18" height="18" viewBox="0 0 18 18">
<path d="M12 11v1h-1v-1h1z"></path>
<path d="M6 2h6v-1h2v1c1.105 0 2 0.895 2 2v10c0 1.105-0.895 2-2 2h-10c-1.105 0-2-0.895-2-2v-10c0-1.105 0.895-2 2-2v-1h2v1zM11 10c-0.552 0-1 0.448-1 1v1c0 0.552 0.448 1 1 1h1c0.552 0 1-0.448 1-1v-1c0-0.552-0.448-1-1-1h-1zM5.5 11c-0.276 0-0.5 0.224-0.5 0.5s0.224 0.5 0.5 0.5h3c0.276 0 0.5-0.224 0.5-0.5s-0.224-0.5-0.5-0.5h-3zM5.5 8c-0.276 0-0.5 0.224-0.5 0.5s0.224 0.5 0.5 0.5h7c0.276 0 0.5-0.224 0.5-0.5s-0.224-0.5-0.5-0.5h-7z"></path>
</svg>
