<!-- Generated by IcoMoon.io -->
<svg version="1.1" xmlns="http://www.w3.org/2000/svg" width="18" height="18" viewBox="0 0 18 18">
<path d="M12 10c0.552 0 1 0.448 1 1v1c0 0.552-0.448 1-1 1h-1c-0.552 0-1-0.448-1-1v-1c0-0.552 0.448-1 1-1h1zM11 12h1v-1h-1v1z"></path>
<path d="M8.5 11c0.276 0 0.5 0.224 0.5 0.5s-0.224 0.5-0.5 0.5h-3c-0.276 0-0.5-0.224-0.5-0.5s0.224-0.5 0.5-0.5h3z"></path>
<path d="M12.5 8c0.276 0 0.5 0.224 0.5 0.5s-0.224 0.5-0.5 0.5h-7c-0.276 0-0.5-0.224-0.5-0.5s0.224-0.5 0.5-0.5h7z"></path>
<path d="M6 1v1h6v-1h2v1c1.105 0 2 0.895 2 2v10c0 1.105-0.895 2-2 2h-10c-1.105 0-2-0.895-2-2v-10c0-1.105 0.895-2 2-2v-1h2zM4 14h10v-8h-10v8z"></path>
</svg>
