<!-- Generated by IcoMoon.io -->
<svg version="1.1" xmlns="http://www.w3.org/2000/svg" width="18" height="18" viewBox="0 0 18 18">
<title>card</title>
<path d="M2 2v14h14v-14zM9 4c1.105 0 2 0.895 2 2s-0.895 2-2 2c-1.105 0-2-0.895-2-2v0c0-1.105 0.895-2 2-2v0zM12.31 14h-6.63v-1.66c0.007-0.229 0.029-0.446 0.064-0.659l-0.004 0.029c0.338-1.034 0.765-1.931 1.29-2.76l-0.030 0.050c0.69 0.56 1 1 2 1s1.31-0.44 2-1c0.495 0.782 0.923 1.682 1.235 2.634l0.025 0.086c0.032 0.202 0.050 0.435 0.050 0.672 0 0.010-0 0.019-0 0.029v-0.001z"></path>
</svg>
