<svg version="1.1" xmlns="http://www.w3.org/2000/svg" width="18" height="18" viewBox="0 0 18 18">
<title>chatdismiss</title>
<path d="M12.535 6.879l-2.121 2.121 2.121 2.121-1.414 1.414-2.121-2.121-2.121 2.121-1.414-1.414 2.121-2.121-2.121-2.121 1.414-1.414 2.121 2.121 2.121-2.121 1.414 1.414z"></path>
<path d="M9 1c4.418 0 8 3.582 8 8s-3.582 8-8 8c-1.467 0-2.84-0.397-4.021-1.086l-3.979 1.086 1.085-3.979c-0.688-1.182-1.085-2.554-1.085-4.021 0-4.418 3.582-8 8-8zM9 3c-3.314 0-6 2.686-6 6s2.686 6 6 6c3.314 0 6-2.686 6-6s-2.686-6-6-6z"></path>
</svg>
