<!-- Generated by IcoMoon.io -->
<svg version="1.1" xmlns="http://www.w3.org/2000/svg" width="18" height="18" viewBox="0 0 18 18">
<path d="M9 2c0.725 0 1.424 0.1 2.083 0.284l-0.283 0.516-1.31 0.72c-0.162-0.012-0.325-0.020-0.49-0.020-3.139 0-5.685 2.239-5.685 5s2.545 5 5.685 5 5.685-2.239 5.685-5c0-0.113-0.006-0.226-0.015-0.337l0.53-0.963 0.668-0.368c0.154 0.532 0.237 1.091 0.237 1.668 0 3.59-3.181 6.5-7.105 6.5-1.043 0-2.033-0.208-2.925-0.577l-4.075 1.577 1.698-3.174c-1.121-1.149-1.804-2.665-1.804-4.326 0-3.59 3.181-6.5 7.105-6.5z"></path>
<path d="M14.25 3.75l2.75 1.25-2.75 1.25-1.25 2.75-1.25-2.75-2.75-1.25 2.75-1.25 1.25-2.75 1.25 2.75z"></path>
</svg>
