<svg version="1.1" xmlns="http://www.w3.org/2000/svg" width="18" height="18" viewBox="0 0 18 18">
<title>clearhistory</title>
<path d="M9.002 1c1.657 0 3 1.343 3 3v2.5h1c1.105 0 2 0.895 2 2v2.5l1.122 3.367c0.418 1.255-0.473 2.549-1.771 2.629l-0.126 0.004h-10.451c-1.322-0-2.268-1.255-1.934-2.511l0.037-0.122 1.12-3.361v-1.006h0.002v-1.5c0-1.104 0.896-2 2-2h1v-2.5c0-1.657 1.343-3 3-3zM4.777 12l-1.001 3h2.226v-1.5h2v1.5h2v-1.5h2v1.5h2.226l-1.001-3h-8.449zM5.002 10h8v-1.5h-8v1.5zM9.002 3c-0.552 0-1 0.448-1 1v2.5h2v-2.5c0-0.552-0.448-1-1-1z"></path>
</svg>
