<!-- Generated by IcoMoon.io -->
<svg version="1.1" xmlns="http://www.w3.org/2000/svg" width="18" height="18" viewBox="0 0 18 18">
<title>coffee</title>
<path d="M14 16h-10l-2-2h14l-2 2z"></path>
<path d="M14.69 3h-0.84l0.15-1h-10l1 7 1 4h6l0.75-3h1.52c0.006 0 0.013 0 0.020 0 1.006 0 1.838-0.743 1.979-1.709l0.001-0.011 0.43-3c0.013-0.084 0.020-0.181 0.020-0.28 0-1.105-0.895-2-2-2-0.010 0-0.021 0-0.031 0l0.002-0zM14.56 6.32l-0.56 1.68h-1v-3h0.61c0.001 0 0.002 0 0.003 0 0.552 0 1 0.448 1 1 0 0.115-0.019 0.225-0.055 0.327l0.002-0.007z"></path>
</svg>
