<!-- Generated by IcoMoon.io -->
<svg version="1.1" xmlns="http://www.w3.org/2000/svg" width="18" height="18" viewBox="0 0 18 18">
<title>cut</title>
<path d="M9.71 8l6.29-6h-2.72l-4.7 4.87 1.13 1.13z"></path>
<path d="M13.27 16h2.73l-6.93-7.19-0.51-0.52-1.29-1.35c0.442-0.519 0.712-1.198 0.712-1.94 0-1.657-1.343-3-3-3s-3 1.343-3 3c0 1.657 1.343 3 3 3 0.006 0 0.013-0 0.019-0h-0.001c0.342-0.005 0.668-0.067 0.971-0.177l-0.021 0.007 0.82 0.92-0.97 1.25c-0.12-0.007-0.259-0.011-0.4-0.011s-0.28 0.004-0.419 0.012l0.019-0.001c-0.001 0-0.002 0-0.002 0-1.657 0-3 1.343-3 3s1.343 3 3 3c1.657 0 3-1.343 3-3 0-0.838-0.343-1.595-0.897-2.14l-0-0 0.81-0.86zM5 6.4c-0.773 0-1.4-0.627-1.4-1.4s0.627-1.4 1.4-1.4c0.773 0 1.4 0.627 1.4 1.4v0c0 0.773-0.627 1.4-1.4 1.4v0zM5 14.4c-0.773 0-1.4-0.627-1.4-1.4s0.627-1.4 1.4-1.4c0.773 0 1.4 0.627 1.4 1.4v0c0 0.773-0.627 1.4-1.4 1.4v0zM7.37 9c0-0.348 0.282-0.63 0.63-0.63s0.63 0.282 0.63 0.63c0 0.348-0.282 0.63-0.63 0.63v0c-0.348 0-0.63-0.282-0.63-0.63v0z"></path>
</svg>
