<svg version="1.1" xmlns="http://www.w3.org/2000/svg" width="18" height="18" viewBox="0 0 18 18">
<title>datadoughnutoutline</title>
<path d="M8 7.27c-0.597 0.346-1 0.991-1 1.73s0.403 1.384 1 1.729v6.206c-3.946-0.492-7-3.856-7-7.936s3.054-7.443 7-7.936v6.205zM6 3.804c-1.793 1.037-3 2.976-3 5.196s1.207 4.157 3 5.194v-2.554c-0.621-0.705-1-1.628-1-2.641s0.379-1.937 1-2.642v-2.555z"></path>
<path d="M16.936 10c-0.451 3.618-3.317 6.484-6.936 6.936v-6.206c0.303-0.175 0.555-0.428 0.73-0.729h6.205zM12 12v2.194c0.91-0.526 1.669-1.285 2.195-2.194h-2.195z"></path>
<path d="M10 1.064c3.618 0.451 6.484 3.317 6.936 6.936h-6.205c-0.176-0.302-0.428-0.555-0.73-0.73v-6.205zM12 6h2.195c-0.527-0.91-1.285-1.67-2.195-2.196v2.196z"></path>
</svg>
