<svg version="1.1" xmlns="http://www.w3.org/2000/svg" width="18" height="18" viewBox="0 0 18 18">
<title>datalineoutline</title>
<path d="M15.5 3c1.381 0 2.5 1.119 2.5 2.5s-1.119 2.5-2.5 2.5c-0.183 0-0.361-0.021-0.532-0.059l-1.636 2.862c0.413 0.446 0.668 1.041 0.668 1.696 0 1.381-1.119 2.5-2.5 2.5s-2.5-1.119-2.5-2.5c0-0.417 0.104-0.81 0.284-1.155l-1.63-1.63c-0.346 0.18-0.737 0.285-1.154 0.285-0.183 0-0.361-0.021-0.532-0.059l-1.636 2.862c0.413 0.446 0.668 1.041 0.668 1.696 0 1.381-1.119 2.5-2.5 2.5s-2.5-1.119-2.5-2.5c0-1.381 1.119-2.5 2.5-2.5 0.182 0 0.36 0.020 0.531 0.058l1.636-2.862c-0.413-0.446-0.667-1.040-0.667-1.695 0-1.381 1.119-2.5 2.5-2.5s2.5 1.119 2.5 2.5c0 0.417-0.105 0.809-0.285 1.154l1.63 1.63c0.346-0.181 0.738-0.284 1.155-0.284 0.182 0 0.359 0.021 0.53 0.058l1.636-2.863c-0.412-0.446-0.666-1.040-0.666-1.694 0-1.381 1.119-2.5 2.5-2.5zM2.5 13.25c-0.053 0-0.106 0.004-0.157 0.011-0.005 0.001-0.009 0.001-0.015 0.002-0.216 0.030-0.414 0.115-0.58 0.24-0.009 0.007-0.019 0.013-0.027 0.020-0.018 0.015-0.035 0.030-0.053 0.046-0.013 0.011-0.026 0.022-0.038 0.034s-0.025 0.025-0.037 0.038c-0.014 0.015-0.028 0.030-0.042 0.046s-0.026 0.032-0.039 0.049c-0.010 0.013-0.020 0.026-0.029 0.039-0.012 0.016-0.023 0.033-0.034 0.050-0.010 0.015-0.019 0.031-0.028 0.047-0.011 0.019-0.022 0.039-0.032 0.060-0.010 0.019-0.019 0.037-0.027 0.057-0.005 0.011-0.011 0.023-0.016 0.034-0.042 0.102-0.071 0.211-0.085 0.325-0.006 0.050-0.010 0.101-0.010 0.153 0 0.69 0.56 1.25 1.25 1.25s1.25-0.56 1.25-1.25c0-0.69-0.56-1.25-1.25-1.25zM11.5 11.25c-0.054 0-0.107 0.004-0.159 0.011-0.006 0.001-0.011 0.002-0.017 0.003-0.607 0.086-1.074 0.606-1.074 1.236 0 0.69 0.56 1.25 1.25 1.25s1.25-0.56 1.25-1.25c0-0.69-0.56-1.25-1.25-1.25zM6.5 6.25c-0.69 0-1.25 0.56-1.25 1.25 0 0.152 0.029 0.296 0.078 0.431 0.176 0.478 0.633 0.819 1.172 0.819 0.69 0 1.25-0.56 1.25-1.25s-0.56-1.25-1.25-1.25zM15.5 4.25c-0.69 0-1.25 0.56-1.25 1.25 0 0.144 0.026 0.282 0.070 0.41 0.17 0.489 0.633 0.84 1.18 0.84 0.328 0 0.625-0.128 0.848-0.334 0.006-0.005 0.012-0.010 0.018-0.016 0.046-0.044 0.089-0.092 0.128-0.144 0.008-0.010 0.014-0.020 0.021-0.030 0.014-0.020 0.028-0.040 0.041-0.061 0.007-0.010 0.013-0.021 0.019-0.031 0.013-0.022 0.025-0.044 0.037-0.067 0.011-0.021 0.021-0.042 0.030-0.063 0.004-0.009 0.008-0.017 0.012-0.026 0.027-0.066 0.049-0.134 0.064-0.205 0.002-0.009 0.004-0.018 0.006-0.026 0.006-0.031 0.011-0.062 0.015-0.094 0.006-0.050 0.011-0.101 0.011-0.152 0-0.69-0.56-1.25-1.25-1.25z"></path>
</svg>
