<svg version="1.1" xmlns="http://www.w3.org/2000/svg" width="18" height="18" viewBox="0 0 18 18">
<title>datalinefilled</title>
<path d="M15.5 3c1.381 0 2.5 1.119 2.5 2.5s-1.119 2.5-2.5 2.5c-0.183 0-0.361-0.021-0.532-0.059l-1.636 2.862c0.413 0.446 0.668 1.041 0.668 1.696 0 1.381-1.119 2.5-2.5 2.5s-2.5-1.119-2.5-2.5c0-0.417 0.104-0.81 0.284-1.155l-1.63-1.63c-0.346 0.18-0.737 0.285-1.154 0.285-0.183 0-0.361-0.021-0.532-0.059l-1.636 2.862c0.413 0.446 0.668 1.041 0.668 1.696 0 1.381-1.119 2.5-2.5 2.5s-2.5-1.119-2.5-2.5c0-1.381 1.119-2.5 2.5-2.5 0.182 0 0.36 0.020 0.531 0.058l1.636-2.862c-0.413-0.446-0.667-1.040-0.667-1.695 0-1.381 1.119-2.5 2.5-2.5s2.5 1.119 2.5 2.5c0 0.417-0.105 0.809-0.285 1.154l1.63 1.63c0.346-0.181 0.738-0.284 1.155-0.284 0.182 0 0.359 0.021 0.53 0.058l1.636-2.863c-0.412-0.446-0.666-1.040-0.666-1.694 0-1.381 1.119-2.5 2.5-2.5z"></path>
</svg>
