<svg width="18" height="18" viewBox="0 0 18 18" fill="none" xmlns="http://www.w3.org/2000/svg">
<path fill-rule="evenodd" clip-rule="evenodd" d="M5 8C5 7.44772 5.44772 7 6 7H7C7.55228 7 8 7.44772 8 8V9C8 9.55229 7.55228 10 7 10H6C5.44772 10 5 9.55228 5 9V8ZM7 8H6V9H7V8Z" fill="black"/>
<path fill-rule="evenodd" clip-rule="evenodd" d="M11 10C10.4477 10 10 10.4477 10 11V12C10 12.5523 10.4477 13 11 13H12C12.5523 13 13 12.5523 13 12V11C13 10.4477 12.5523 10 12 10H11ZM11 11H12V12H11V11Z" fill="black"/>
<path d="M9.5 8C9.22386 8 9 8.22386 9 8.5C9 8.77614 9.22386 9 9.5 9H12.5C12.7761 9 13 8.77614 13 8.5C13 8.22386 12.7761 8 12.5 8H9.5Z" fill="black"/>
<path d="M8.5 11C8.77614 11 9 11.2239 9 11.5C9 11.7761 8.77614 12 8.5 12H5.5C5.22386 12 5 11.7761 5 11.5C5 11.2239 5.22386 11 5.5 11H8.5Z" fill="black"/>
<path fill-rule="evenodd" clip-rule="evenodd" d="M6 1H4V2C2.895 2 2 2.895 2 4V14C2 15.105 2.895 16 4 16H14C15.105 16 16 15.105 16 14V4C16 2.895 15.105 2 14 2V1H12V2H6V1ZM4 6V14H14V6H4Z" fill="black"/>
</svg>
