<!-- Generated by IcoMoon.io -->
<svg version="1.1" xmlns="http://www.w3.org/2000/svg" width="18" height="18" viewBox="0 0 18 18">
<title>doc_1</title>
<path d="M5 6v-2h6.172l1.828 1.828v8.172h-8v-1h-2v2c0 0.552 0.448 1 1 1h10c0.552 0 1-0.448 1-1v-9.586c0-0.265-0.105-0.52-0.293-0.707l-2.414-2.414c-0.188-0.188-0.442-0.293-0.707-0.293h-7.586c-0.552 0-1 0.448-1 1v3h2z"></path>
<path d="M3 7v1h-2v4h3v-5h-1zM3 11h-1v-2h1v2z"></path>
<path d="M5 8v4h3v-4h-3zM7 11h-1v-2h1v2z"></path>
<path d="M12 9v-1h-3v4h3v-1h-2v-2h2z"></path>
</svg>
