<!-- Generated by IcoMoon.io -->
<svg version="1.1" xmlns="http://www.w3.org/2000/svg" width="18" height="18" viewBox="0 0 18 18">
<title>exportxlsx</title>
<path d="M5 14v-10h6.172l1.828 1.828v0.172h2v-0.586c0-0.265-0.105-0.52-0.293-0.707l-2.414-2.414c-0.188-0.188-0.442-0.293-0.707-0.293h-7.586c-0.552 0-1 0.448-1 1v12c0 0.552 0.448 1 1 1h10c0.552 0 1-0.448 1-1v-1h-10z"></path>
<path d="M9 7h2.5l5 6h-2.5l-5-6z"></path>
<path d="M14.417 9.5l2.083-2.5h-2.5l-0.833 1 1.25 1.5z"></path>
<path d="M9 13l2.042-2.451 1.268 1.479-0.81 0.972h-2.5z"></path>
</svg>
