<!-- Generated by IcoMoon.io -->
<svg version="1.1" xmlns="http://www.w3.org/2000/svg" width="18" height="18" viewBox="0 0 18 18">
<path d="M3.738 4.738l-1.738-1.738 1-1 1.96 1.96c1.24-0.64 2.64-0.96 4.040-0.96 3.5 0 7 2 8 6-0.462 1.847-1.457 3.268-2.738 4.262l1.738 1.738-1 1-1.96-1.96c-1.24 0.64-2.64 0.96-4.040 0.96-3.5 0-7-2-8-6 0.462-1.847 1.457-3.268 2.738-4.262zM5.194 6.194c-0.879 0.659-1.615 1.592-2.194 2.806 1.28 2.688 3.333 4 6 4 0.918 0 1.764-0.156 2.53-0.469l-1.698-1.698c-0.249 0.108-0.529 0.167-0.833 0.167-1.178 0-2-0.895-2-2 0-0.297 0.059-0.578 0.169-0.831l-1.975-1.975zM8.167 7.167c0.249-0.107 0.529-0.167 0.833-0.167 1.178 0 2 0.895 2 2 0 0.297-0.059 0.578-0.169 0.831l1.975 1.975c0.879-0.659 1.615-1.592 2.194-2.807-1.28-2.688-3.333-4-6-4-0.918 0-1.764 0.156-2.53 0.469l1.698 1.698z"></path>
</svg>
