<svg xmlns="http://www.w3.org/2000/svg" width="18" height="18" viewBox="0 0 18 18">
<title>eyeclose</title>
<path d="M5.238 3.823l-1.823-1.823-1.414 1.414 1.509 1.509c-1.171 0.982-2.075 2.341-2.509 4.077 1 4 4.5 6 8 6 1.296 0 2.593-0.274 3.762-0.823l1.824 1.824 1.414-1.414-1.51-1.51c1.171-0.982 2.075-2.341 2.509-4.077-1-4-4.5-6-8-6-1.297 0-2.593 0.274-3.762 0.823zM4.962 6.376c-0.778 0.645-1.435 1.518-1.962 2.624 1.28 2.688 3.333 4 6 4 0.8 0 1.545-0.118 2.23-0.356l-1.707-1.707c-0.165 0.041-0.34 0.063-0.523 0.063-1.178 0-2-0.895-2-2 0-0.181 0.022-0.356 0.064-0.522l-2.102-2.102zM8.477 7.063l-1.707-1.707c0.685-0.238 1.43-0.356 2.23-0.356 2.667 0 4.72 1.312 6 4-0.527 1.106-1.184 1.979-1.962 2.624l-2.102-2.102c0.042-0.166 0.064-0.341 0.064-0.522 0-1.105-0.822-2-2-2-0.184 0-0.359 0.022-0.523 0.063z"></path>
</svg>
