<!-- Generated by IcoMoon.io -->
<svg version="1.1" xmlns="http://www.w3.org/2000/svg" width="18" height="18" viewBox="0 0 18 18">
<title>fill</title>
<path d="M15.84 13.67c-0.113-0.298-0.248-0.555-0.409-0.793l0.009 0.013c-0.178-0.262-0.359-0.49-0.554-0.705l0.004 0.005-0.57-0.64q-0.27-0.31-0.49-0.61c-0.132-0.177-0.238-0.383-0.306-0.606l-0.004-0.014c-0.067 0.237-0.174 0.444-0.313 0.624l0.003-0.004c-0.172 0.226-0.339 0.425-0.515 0.615l0.005-0.005-0.6 0.64c-0.2 0.211-0.387 0.439-0.557 0.681l-0.013 0.019c-0.162 0.225-0.306 0.482-0.421 0.754l-0.010 0.026c-0.108 0.262-0.17 0.567-0.17 0.886 0 0.009 0 0.017 0 0.026l-0-0.001c-0 0.015-0.001 0.034-0.001 0.052 0 0.344 0.078 0.67 0.216 0.962l-0.006-0.014c0.141 0.301 0.329 0.556 0.558 0.769l0.002 0.001c0.231 0.213 0.503 0.385 0.802 0.504l0.018 0.006c0.29 0.114 0.626 0.18 0.977 0.18 0.008 0 0.016-0 0.024-0h-0.001c0.013 0 0.029 0 0.045 0 0.344 0 0.672-0.066 0.973-0.187l-0.018 0.006c0.307-0.123 0.569-0.296 0.791-0.511l-0.001 0.001c0.218-0.214 0.394-0.47 0.514-0.755l0.006-0.015c0.121-0.279 0.191-0.604 0.191-0.945 0-0.019-0-0.038-0.001-0.057l0 0.003c-0.004-0.329-0.070-0.641-0.186-0.927l0.006 0.017zM14.11 14c-0.228 0.13-0.425 0.279-0.601 0.45l0-0-0.38 0.33-0.32 0.26c-0.092 0.067-0.198 0.124-0.311 0.167l-0.009 0.003c-0.107 0.038-0.231 0.060-0.36 0.060-0.011 0-0.021-0-0.032-0l0.002 0c-0.043-0.078-0.078-0.168-0.099-0.263l-0.001-0.007c-0.003-0.045-0.005-0.097-0.005-0.15s0.002-0.105 0.005-0.157l-0 0.007c-0-0.003-0-0.008-0-0.012 0-0.214 0.037-0.42 0.104-0.611l-0.004 0.013c0.079-0.219 0.17-0.407 0.278-0.584l-0.008 0.014c0.128-0.211 0.253-0.39 0.389-0.561l-0.009 0.011c0.14-0.18 0.73-0.77 0.78-0.82s0.59 0.73 0.76 0.93c0.162 0.192 0.305 0.409 0.421 0.641l0.009 0.019c-0.234 0.074-0.436 0.162-0.627 0.269l0.017-0.009z"></path>
<path d="M7 2.4l-1.33-1.4-1.34 1.4 1.34 1.4-4.67 4.9 6 6.3 6-6.3zM3 9l4-4 4 4z"></path>
</svg>
