<!-- Generated by IcoMoon.io -->
<svg version="1.1" xmlns="http://www.w3.org/2000/svg" width="18" height="18" viewBox="0 0 18 18">
<path d="M12 4v3.5h-2v-3.5h-2v10h1.5v2h-6.5c-0.552 0-1-0.448-1-1 0-4.442 0-7.558 0-12 0-0.552 0.448-1 1-1 4.678 0 7.321 0 11.999 0 0.552 0 1 0.448 1 1v3h-2v-2h-2zM6 14v-10h-2v10h2z"></path>
<path d="M12 10.4c0-1.325 1.119-2.4 2.5-2.4s2.5 1.075 2.5 2.4v1.6h-0.050c0.525 0 1.050 0.5 1.050 1.083v2.917c0 0.5-0.525 1-1.137 1h-4.813c-0.525 0-1.050-0.5-1.050-1.083v-2.917c0-0.499 0.524-0.999 1.048-1h3.702v-1.6c0-0.663-0.56-1.2-1.25-1.2s-1.25 0.537-1.25 1.2v1.6h-1.25v-1.6z"></path>
</svg>
