<!-- Generated by IcoMoon.io -->
<svg version="1.1" xmlns="http://www.w3.org/2000/svg" width="18" height="18" viewBox="0 0 18 18">
<title>gift</title>
<path d="M10 13h-2v-3h-5v4c0 1.105 0.895 2 2 2v0h8c1.105 0 2-0.895 2-2v0-4h-5z"></path>
<path d="M6.5 1c-0.006-0-0.013-0-0.020-0-1.375 0-2.49 1.115-2.49 2.49 0 0.57 0.192 1.096 0.515 1.516l-0.004-0.006h-2.5v4h6v-4h1c0-1.38-1.12-4-2.5-4zM7.63 5h-1.23c-0.807-0.028-1.451-0.689-1.451-1.5 0-0.829 0.672-1.501 1.501-1.501 0.018 0 0.035 0 0.053 0.001l-0.003-0c0.83 0 1.5 1.58 1.5 2.41 0 0.38-0.14 0.53-0.37 0.59z"></path>
<path d="M13.49 5c0.318-0.414 0.51-0.94 0.51-1.51 0-1.375-1.115-2.49-2.49-2.49-0.007 0-0.014 0-0.021 0h0.001c-1.37 0-2.49 2.62-2.49 4h1v4h6v-4zM11.6 5h-1.23c-0.23-0.060-0.37-0.21-0.37-0.59 0-0.83 0.67-2.4 1.5-2.4 0.015-0.001 0.032-0.001 0.050-0.001 0.829 0 1.501 0.672 1.501 1.501 0 0.811-0.644 1.472-1.448 1.5l-0.003 0z"></path>
</svg>
