<!-- Generated by IcoMoon.io -->
<svg version="1.1" xmlns="http://www.w3.org/2000/svg" width="18" height="18" viewBox="0 0 18 18">
<title>globe</title>
<path d="M2 9c-0.001 0.047-0.002 0.101-0.002 0.157 0 1.875 0.766 3.571 2.001 4.793l0.001 0.001c1.233 1.266 2.954 2.051 4.859 2.051 0.050 0 0.099-0.001 0.148-0.002l-0.007 0c0.026 0 0.056 0.001 0.086 0.001 1.805 0 3.445-0.709 4.656-1.863l-0.003 0.003-0.060-0.050-0.11-0.090c0.048-0.225 0.076-0.483 0.076-0.747 0-0.121-0.006-0.24-0.017-0.358l0.001 0.015c0-0.002 0-0.005 0-0.008 0-0.071-0.035-0.134-0.089-0.172l-0.001-0c-0.092-0.060-0.198-0.111-0.311-0.147l-0.009-0.003c-0.092-0.018-0.173-0.056-0.241-0.111l0.001 0.001c-0.004-0.010-0.007-0.022-0.007-0.035s0.003-0.025 0.007-0.036l-0 0.001v-0.080c-0.001-0.009-0.001-0.019-0.001-0.030s0-0.021 0.001-0.031l-0 0.001c-0.001-0.011-0.001-0.024-0.001-0.037 0-0.208 0.098-0.393 0.25-0.512l0.001-0.001 0.090-0.070 0.17-0.11 0.14-0.1 0.1-0.080c0.049-0.049 0.080-0.117 0.080-0.192 0-0.003-0-0.006-0-0.008l0 0c0.002-0.018 0.003-0.039 0.003-0.060s-0.001-0.042-0.003-0.063l0 0.003c-0.063-0.139-0.144-0.258-0.241-0.361l0.001 0.001c-0.104-0.112-0.247-0.186-0.408-0.2l-0.002-0h-0.18c-0.004 0-0.009 0-0.013 0-0.316 0-0.607-0.105-0.84-0.283l0.003 0.002c-0.205-0.124-0.34-0.346-0.34-0.6v-0c-0.002-0.017-0.003-0.036-0.003-0.055s0.001-0.038 0.003-0.057l-0 0.002v-0.1c0-0.006 0-0.013 0-0.020 0-0.196-0.080-0.373-0.21-0.5l-0-0c-0.181-0.14-0.389-0.258-0.613-0.344l-0.017-0.006c-0.203-0.066-0.379-0.161-0.534-0.283l0.004 0.003c-0.056-0.127-0.089-0.274-0.090-0.43v-0c0.004-0.217 0.063-0.42 0.163-0.596l-0.003 0.006c0.144-0.309 0.409-0.541 0.732-0.638l0.008-0.002c0.46-0.129 0.855-0.365 1.17-0.68l0-0c0.279-0.247 0.457-0.601 0.47-0.998l0-0.002v-0.2c-0.035-0.895-0.48-1.68-1.152-2.175l-0.008-0.005c-0.683-0.292-1.476-0.477-2.307-0.51l-0.013-0c-0.323 0.006-0.632 0.060-0.922 0.156l0.022-0.006q-0.38 0.14-0.38 0.34v0q0 0.31 0.62 0.63l0.52 0.25c0.181 0.073 0.336 0.154 0.482 0.247l-0.012-0.007q0.36 0.23 0.36 0.45c0.005 0.024 0.008 0.052 0.008 0.080s-0.003 0.056-0.009 0.083l0-0.003c-0.038 0.059-0.085 0.108-0.139 0.149l-0.001 0.001c-0.118 0.109-0.249 0.208-0.389 0.294l-0.011 0.006-0.28 0.19-0.26 0.14q-0.42 0.32-0.42 0.57c-0.007 0.022-0.010 0.048-0.010 0.075s0.004 0.053 0.011 0.077l-0-0.002q0 0.1 0.35 0.25 0.13 0.060 0.13 0.3c0.004 0.033 0.007 0.071 0.007 0.11s-0.003 0.077-0.007 0.114l0-0.004c-0.067 0.229-0.152 0.428-0.258 0.614l0.008-0.015c-0.124 0.191-0.312 0.33-0.534 0.389l-0.006 0.001c-0.112-0.026-0.206-0.091-0.269-0.179l-0.001-0.001-0.090-0.070-0.11-0.11-0.16-0.12-0.080-0.1c-0.33-0.353-0.784-0.587-1.293-0.63l-0.007-0c-0.176 0.006-0.337 0.061-0.473 0.152l0.003-0.002c-0.151 0.099-0.272 0.23-0.357 0.384l-0.003 0.006c-0.090 0.132-0.145 0.294-0.15 0.469l-0 0.001c0.007 0.22 0.106 0.415 0.259 0.549l0.001 0.001c0.071 0.074 0.17 0.12 0.28 0.12h0.25l0.27-0.070c0.094-0.026 0.204-0.044 0.316-0.050l0.004-0h0.060q0.17-0.030 0.28 0.17v0.18q0 0.11 0 0.25t0 0.33 0 0.21c0.044 0.398 0.271 0.734 0.594 0.927l0.006 0.003c0.167 0.088 0.374 0.183 0.587 0.265l0.043 0.015c0.284 0.116 0.527 0.246 0.755 0.399l-0.015-0.009c0.576 0.321 0.984 0.884 1.088 1.548l0.002 0.012c0.002 0.019 0.003 0.042 0.003 0.065s-0.001 0.046-0.003 0.068l0-0.003c-0.032 0.371-0.263 0.682-0.584 0.827l-0.006 0.003-0.78 0.46-0.32 0.21c-0.083 0.089-0.159 0.187-0.225 0.292l-0.005 0.008c-0.062 0.1-0.12 0.215-0.165 0.336l-0.005 0.014c-0.005 0.212-0.030 0.415-0.074 0.61l0.004-0.020c-0.104 0.152-0.276 0.25-0.472 0.25-0.003 0-0.006-0-0.009-0h-0.15c-0.118-0.009-0.218-0.079-0.269-0.178l-0.001-0.002c-0.044-0.052-0.070-0.119-0.070-0.193 0-0.006 0-0.012 0.001-0.018l-0 0.001c-0.004-0.017-0.006-0.036-0.006-0.055s0.002-0.038 0.006-0.057l-0 0.002c0.005-0.045 0.007-0.097 0.007-0.15s-0.003-0.105-0.008-0.156l0.001 0.006c-0.007-0.256-0.069-0.496-0.174-0.71l0.004 0.010c-0.060-0.113-0.099-0.246-0.11-0.387l-0-0.003c0.005-0.179 0.060-0.345 0.152-0.483l-0.002 0.003c0.046-0.050 0.074-0.117 0.074-0.19s-0.028-0.14-0.074-0.19l0 0c-0.127-0.134-0.28-0.242-0.451-0.317l-0.009-0.003-0.34-0.18-0.2-0.12c-0.148-0.095-0.256-0.243-0.299-0.415l-0.001-0.005v-0.060c0.007-0.128 0.059-0.243 0.14-0.33l-0 0c0.114-0.103 0.238-0.201 0.368-0.292l0.012-0.008c0.144-0.081 0.265-0.188 0.358-0.317l0.002-0.003c0.077-0.107 0.123-0.24 0.123-0.384 0-0.023-0.001-0.046-0.004-0.069l0 0.003v-0.070c-0.053-0.2-0.183-0.363-0.356-0.458l-0.004-0.002c-0.196-0.105-0.423-0.191-0.661-0.246l-0.019-0.004c-0.649-0.153-1.214-0.445-1.686-0.845l0.006 0.005c-0.251-0.283-0.454-0.614-0.593-0.978l-0.007-0.022c-0.233-0.486-0.375-1.055-0.39-1.655l-0-0.005c-0.498 0.931-0.79 2.036-0.79 3.209 0 0.025 0 0.050 0 0.075l-0-0.004zM9.55 1c2.098 0.122 3.956 1.063 5.275 2.504l0.005 0.006c1.343 1.383 2.171 3.272 2.171 5.355 0 0.047-0 0.095-0.001 0.142l0-0.007c0 0.013 0 0.028 0 0.043 0 1.458-0.398 2.823-1.090 3.993l0.020-0.036c-0.694 1.186-1.647 2.151-2.784 2.84l-0.036 0.020c-1.165 0.716-2.576 1.14-4.085 1.14-0.009 0-0.017-0-0.026-0h0.001c-0.034 0.001-0.075 0.001-0.116 0.001-2.172 0-4.134-0.901-5.532-2.349l-0.002-0.002c-1.45-1.391-2.351-3.345-2.351-5.509 0-0.049 0-0.099 0.001-0.148l-0 0.007c-0.001-0.033-0.001-0.072-0.001-0.111 0-2.173 0.9-4.136 2.349-5.537l0.002-0.002c1.397-1.45 3.357-2.351 5.526-2.351 0.044 0 0.087 0 0.13 0.001l-0.007-0h0.56z"></path>
</svg>
