<!-- Generated by IcoMoon.io -->
<svg version="1.1" xmlns="http://www.w3.org/2000/svg" width="18" height="18" viewBox="0 0 18 18">
<title>group</title>
<path d="M10 5c0 1.657-1.343 3-3 3s-3-1.343-3-3c0-1.657 1.343-3 3-3s3 1.343 3 3z"></path>
<path d="M12 16h-10v-2.32c0.011-0.319 0.043-0.623 0.096-0.919l-0.006 0.039c0.514-1.45 1.159-2.706 1.947-3.857l-0.037 0.057c0.704 0.63 1.638 1.014 2.662 1.014 0.119 0 0.237-0.005 0.353-0.015l-0.015 0.001c0.101 0.009 0.219 0.014 0.338 0.014 1.024 0 1.958-0.385 2.666-1.018l-0.004 0.003c0.747 1.094 1.389 2.35 1.864 3.685l0.036 0.115c0.051 0.291 0.080 0.627 0.080 0.97 0 0.011-0 0.021-0 0.032v-0.002z"></path>
<path d="M15.92 12.8c-0.517-1.45-1.166-2.706-1.956-3.856l0.036 0.056c-0.36 0.295-0.772 0.546-1.217 0.737l-0.033 0.013c0.488 0.782 0.874 1.69 1.107 2.657l0.013 0.063c0.075 0.39 0.122 0.842 0.13 1.303l0 0.007v2.22h2v-2.22c0-0.003 0-0.007 0-0.011 0-0.342-0.029-0.678-0.085-1.004l0.005 0.035z"></path>
<path d="M12 5c-0.007 0.867-0.236 1.68-0.633 2.385l0.013-0.025 0.32 0.55c1.315-0.337 2.271-1.512 2.271-2.91 0-1.647-1.327-2.984-2.97-3l-0.002-0c0.624 0.825 1 1.869 1 3v0z"></path>
</svg>
