<!-- Generated by IcoMoon.io -->
<svg version="1.1" xmlns="http://www.w3.org/2000/svg" width="18" height="18" viewBox="0 0 18 18">
<title>help</title>
<path d="M9 1c-4.418 0-8 3.582-8 8s3.582 8 8 8c4.418 0 8-3.582 8-8v0c0-4.418-3.582-8-8-8v0zM9 15c-3.314 0-6-2.686-6-6s2.686-6 6-6c3.314 0 6 2.686 6 6v0c0 3.314-2.686 6-6 6v0z"></path>
<path d="M8.43 10.78c-0.003-0.041-0.004-0.089-0.004-0.137 0-0.351 0.083-0.682 0.23-0.976l-0.006 0.013c0.244-0.331 0.532-0.612 0.858-0.842l0.012-0.008c0.238-0.19 0.44-0.411 0.603-0.659l0.007-0.011c0.144-0.224 0.23-0.497 0.23-0.79 0-0.007-0-0.014-0-0.021l0 0.001c0.001-0.018 0.002-0.040 0.002-0.061 0-0.271-0.099-0.519-0.263-0.71l0.001 0.001c-0.18-0.174-0.425-0.281-0.695-0.281-0.016 0-0.032 0-0.047 0.001l0.002-0c-0.006-0-0.013-0-0.020-0-0.249 0-0.476 0.091-0.651 0.241l0.001-0.001c-0.173 0.161-0.281 0.39-0.281 0.645 0 0.016 0 0.032 0.001 0.047l-0-0.002h-1.54c-0.003-0.043-0.006-0.092-0.006-0.142 0-0.579 0.266-1.096 0.682-1.435l0.003-0.003c0.465-0.345 1.050-0.553 1.684-0.553 0.044 0 0.089 0.001 0.133 0.003l-0.006-0c0.048-0.003 0.104-0.005 0.161-0.005 0.658 0 1.262 0.232 1.734 0.619l-0.005-0.004c0.42 0.385 0.683 0.937 0.683 1.55 0 0.039-0.001 0.077-0.003 0.116l0-0.005c0 0 0 0.001 0 0.001 0 0.472-0.15 0.908-0.405 1.265l0.005-0.007c-0.268 0.399-0.601 0.732-0.987 0.992l-0.013 0.008c-0.185 0.129-0.331 0.301-0.427 0.502l-0.003 0.008c-0.064 0.184-0.102 0.397-0.102 0.618 0 0.029 0.001 0.057 0.002 0.086l-0-0.004zM10 13h-1.58v-1.34h1.58z"></path>
</svg>
