<!-- Generated by IcoMoon.io -->
<svg version="1.1" xmlns="http://www.w3.org/2000/svg" width="18" height="18" viewBox="0 0 18 18">
<title>img_ar_unlock</title>
<path d="M0 0h3v3h-3v-3z"></path>
<path d="M15 0h3v3h-3v-3z"></path>
<path d="M0 15h3v3h-3v-3z"></path>
<path d="M15 15h3v3h-3v-3z"></path>
<path d="M3 1h12v1h-12v-1z"></path>
<path d="M3 16h12v1h-12v-1z"></path>
<path d="M1 3h1v12h-1v-12z"></path>
<path d="M16 3h1v12h-1v-12z"></path>
<path d="M8 6.5c0-0.096 0.020-0.15 0.037-0.181 0.018-0.033 0.051-0.075 0.117-0.121 0.145-0.1 0.426-0.198 0.846-0.198 0.337 0 0.592 0.063 0.756 0.145 0.154 0.077 0.202 0.153 0.222 0.205 0.194 0.517 0.77 0.78 1.287 0.586s0.78-0.77 0.586-1.287c-0.469-1.253-1.789-1.65-2.85-1.65-0.685 0-1.404 0.153-1.983 0.552-0.617 0.426-1.017 1.102-1.017 1.948v1.5c-0.552 0-1 0.448-1 1v4c0 0.552 0.448 1 1 1h6c0.552 0 1-0.448 1-1v-4c0-0.552-0.448-1-1-1h-4v-1.5zM9 12h-2v-2h4v2h-2z"></path>
</svg>
