<!-- Generated by IcoMoon.io -->
<svg version="1.1" xmlns="http://www.w3.org/2000/svg" width="18" height="18" viewBox="0 0 18 18">
<title>import-selected</title>
<path d="M10 9l-3 3v-2h-1.998c-0.001 0-0.002 0-0.002 0-1.943 0-4.359 0.944-4.494 3.75-0.007 0.138-0.118 0.25-0.256 0.25s-0.25-0.113-0.248-0.251c0.071-3.663 1.708-5.749 4.998-5.749 0 0 0 0 0 0v0h2v-2l3 3z"></path>
<path d="M5 4v3h-2v-4c0-0.552 0.448-1 1-1h7.586c0.265 0 0.52 0.105 0.707 0.293l2.414 2.414c0.188 0.188 0.293 0.442 0.293 0.707v3.846l-2 2.137v-5.569l-1.828-1.828h-6.172z"></path>
<path d="M6 14h-1v-2h-2v3c0 0.552 0.448 1 1 1h3.846l-1.846-2z"></path>
<path d="M18 11.6l-6 6.4-4-4.267 1.5-1.6 2.438 2.667 4.562-4.8 1.5 1.6z"></path>
</svg>
