<!-- Generated by IcoMoon.io -->
<svg version="1.1" xmlns="http://www.w3.org/2000/svg" width="18" height="18" viewBox="0 0 18 18">
<title>import</title>
<path d="M5 7v-3h6.172l1.828 1.828v8.172h-8v-2h-2v3c0 0.552 0.448 1 1 1h10c0.552 0 1-0.448 1-1v-9.586c0-0.265-0.105-0.52-0.293-0.707l-2.414-2.414c-0.188-0.188-0.442-0.293-0.707-0.293h-7.586c-0.552 0-1 0.448-1 1v4h2z"></path>
<path d="M10 9l-3 3v-2h-1.998c-0.001 0-0.002 0-0.002 0-1.943 0-4.359 0.944-4.494 3.75-0.007 0.138-0.118 0.25-0.256 0.25s-0.25-0.113-0.248-0.251c0.071-3.663 1.708-5.749 4.998-5.749 0 0 0 0 0 0v0h2v-2l3 3z"></path>
</svg>
