<svg version="1.1" xmlns="http://www.w3.org/2000/svg" width="18" height="18" viewBox="0 0 18 18">
<title>listbartreeoffset</title>
<path d="M16 1c0.552 0 1 0.448 1 1v14c0 0.518-0.393 0.944-0.898 0.995l-0.102 0.005-11.103-0.005c-0.47-0.048-0.845-0.422-0.893-0.893l-0.005-0.102v-3.5h-0.5l-0.103-0.005c-0.47-0.048-0.845-0.422-0.893-0.893l-0.005-0.102v-4h-0.5l-0.103-0.005c-0.47-0.048-0.845-0.422-0.893-0.893l-0.005-0.103v-4.5c0-0.552 0.448-1 1-1h14zM6 15h2.5v-2.5h-2.5v2.5zM10.5 15h4.5v-2.5h-4.5v2.5zM4.5 10.5h3v-3h-3v3zM9.5 10.5h5.5v-3h-5.5v3zM3 5.5h2.5v-2.5h-2.5v2.5zM7.5 5.5h7.5v-2.5h-7.5v2.5z"></path>
</svg>