<!-- Generated by IcoMoon.io -->
<svg version="1.1" xmlns="http://www.w3.org/2000/svg" width="18" height="18" viewBox="0 0 18 18">
<title>mention</title>
<path d="M16 8.77c-0.015 1.068-0.39 2.045-1.007 2.819l0.007-0.009c-0.654 0.741-1.606 1.206-2.666 1.206-0.118 0-0.234-0.006-0.349-0.017l0.015 0.001c-0.012 0-0.027 0-0.042 0-0.396 0-0.763-0.124-1.064-0.334l0.006 0.004c-0.309-0.225-0.541-0.541-0.657-0.907l-0.003-0.013c-0.401 0.739-1.17 1.232-2.055 1.232-0.033 0-0.067-0.001-0.1-0.002l0.005 0c-0.031 0.002-0.068 0.003-0.104 0.003-0.692 0-1.302-0.351-1.661-0.886l-0.005-0.007c-0.301-0.494-0.479-1.092-0.479-1.732 0-0.222 0.021-0.439 0.063-0.649l-0.003 0.021c0.089-1.145 0.515-2.177 1.179-3.011l-0.009 0.011c0.545-0.715 1.392-1.176 2.348-1.19l0.002-0c0.048-0.002 0.104-0.003 0.161-0.003 0.484 0 0.952 0.070 1.394 0.201l-0.035-0.009c0.484 0.175 0.9 0.377 1.29 0.617l-0.030-0.017-0.42 4.29c-0.020 0.098-0.032 0.21-0.032 0.325 0 0.244 0.052 0.476 0.146 0.686l-0.004-0.011c0.094 0.157 0.263 0.26 0.456 0.26 0.005 0 0.010-0 0.015-0l-0.001 0c0.007 0 0.014 0 0.022 0 0.623 0 1.171-0.324 1.484-0.813l0.004-0.007c0.385-0.585 0.619-1.299 0.63-2.067l0-0.003c0.024-0.198 0.038-0.427 0.038-0.659 0-1.306-0.435-2.51-1.168-3.475l0.010 0.014c-0.869-0.915-2.095-1.484-3.453-1.484-0.129 0-0.257 0.005-0.383 0.015l0.017-0.001c-0.082-0.005-0.179-0.007-0.276-0.007-1.465 0-2.786 0.612-3.722 1.595l-0.002 0.002c-0.97 1.127-1.56 2.605-1.56 4.221 0 0.007 0 0.013 0 0.020v-0.001c-0.024 0.197-0.038 0.425-0.038 0.656 0 1.34 0.463 2.573 1.237 3.546l-0.009-0.012c0.882 0.97 2.148 1.577 3.557 1.577 0.089 0 0.178-0.002 0.266-0.007l-0.012 0.001c0.508-0.002 1.001-0.057 1.477-0.158l-0.047 0.008c0.483-0.092 0.909-0.22 1.315-0.386l-0.045 0.016 0.31 1.1c-0.401 0.221-0.867 0.392-1.36 0.485l-0.030 0.005c-0.486 0.106-1.045 0.167-1.618 0.17h-0.002c-0.127 0.009-0.276 0.014-0.426 0.014-1.783 0-3.398-0.715-4.575-1.875l0.001 0.001c-1.025-1.171-1.651-2.714-1.651-4.404 0-0.259 0.015-0.515 0.043-0.767l-0.003 0.031c0.017-1.978 0.811-3.768 2.092-5.082l-0.002 0.002c1.253-1.192 2.952-1.926 4.822-1.926 0.101 0 0.202 0.002 0.302 0.006l-0.014-0c0.126-0.009 0.273-0.014 0.421-0.014 1.728 0 3.293 0.697 4.43 1.824l-0-0c0.99 1.145 1.594 2.649 1.594 4.294 0 0.235-0.012 0.467-0.036 0.695l0.002-0.028zM7.75 9.49c-0.021 0.13-0.032 0.281-0.032 0.434 0 0.365 0.067 0.714 0.189 1.036l-0.007-0.020c0.118 0.29 0.398 0.491 0.724 0.491 0.013 0 0.025-0 0.037-0.001l-0.002 0c0.005 0 0.011 0 0.017 0 0.297 0 0.577-0.074 0.822-0.205l-0.009 0.005c0.288-0.172 0.517-0.417 0.665-0.71l0.005-0.010 0.36-3.72-0.38-0.080c-0.058-0.005-0.126-0.007-0.195-0.007s-0.137 0.003-0.204 0.008l0.009-0.001c-0.021-0.001-0.045-0.002-0.070-0.002-0.549 0-1.031 0.285-1.306 0.715l-0.004 0.006c-0.341 0.594-0.567 1.295-0.629 2.042l-0.001 0.018z"></path>
</svg>
