<svg version="1.1" xmlns="http://www.w3.org/2000/svg" width="18" height="18" viewBox="0 0 18 18">
<path d="M9 1c0.796 0 1.559 0.316 2.121 0.879s0.879 1.326 0.879 2.121v3c0 0.796-0.316 1.559-0.879 2.121s-1.326 0.879-2.121 0.879c-0.796 0-1.559-0.316-2.121-0.879s-0.879-1.326-0.879-2.121v-3c0-0.796 0.316-1.559 0.879-2.121s1.326-0.879 2.121-0.879zM16 7c0 3.53-2.61 6.44-6 6.93v3.070h-2v-3.070c-3.39-0.49-6-3.4-6-6.93h2c0 1.326 0.527 2.598 1.464 3.536s2.209 1.465 3.536 1.465c1.326 0 2.598-0.527 3.536-1.465s1.465-2.209 1.465-3.536h2z"></path>
</svg>
