<!-- Generated by IcoMoon.io -->
<svg version="1.1" xmlns="http://www.w3.org/2000/svg" width="18" height="18" viewBox="0 0 18 18">
<path d="M14.3 7c0 3-2.54 5.1-5.3 5.1s-5.3-2.1-5.3-5.1h-1.7c0 3.41 2.72 6.23 6 6.72v3.28h2v-3.28c3.28-0.49 6-3.31 6-6.72zM7.8 3.9c0-0.66 0.54-1.2 1.2-1.2s1.2 0.54 1.2 1.2l-0.010 3.2c0 0.66-0.53 1.2-1.19 1.2s-1.2-0.54-1.2-1.2zM9 10c0.796 0 1.559-0.316 2.121-0.879s0.879-1.326 0.879-2.121v-3c0-0.796-0.316-1.559-0.879-2.121s-1.326-0.879-2.121-0.879c-0.796 0-1.559 0.316-2.121 0.879s-0.879 1.326-0.879 2.121v3c0 0.796 0.316 1.559 0.879 2.121s1.326 0.879 2.121 0.879z"></path>
</svg>
