<svg version="1.1" xmlns="http://www.w3.org/2000/svg" width="18" height="18" viewBox="0 0 18 18">
<path d="M7 10c1.306 0 2.414 0.835 2.826 2h6.174v2h-6.174c-0.412 1.165-1.52 2-2.826 2s-2.414-0.835-2.826-2h-2.174v-2h2.174c0.412-1.165 1.52-2 2.826-2zM7 12c-0.552 0-1 0.448-1 1s0.448 1 1 1c0.552 0 1-0.448 1-1s-0.448-1-1-1z"></path>
<path d="M11 2c1.306 0 2.414 0.835 2.826 2h2.174v2h-2.174c-0.412 1.165-1.52 2-2.826 2s-2.414-0.835-2.826-2h-6.174v-2h6.174c0.412-1.165 1.52-2 2.826-2zM11 4c-0.552 0-1 0.448-1 1s0.448 1 1 1c0.552 0 1-0.448 1-1s-0.448-1-1-1z"></path>
</svg>
