<!-- Generated by IcoMoon.io -->
<svg version="1.1" xmlns="http://www.w3.org/2000/svg" width="18" height="18" viewBox="0 0 18 18">
<path d="M10.495 1c0.404 0 0.745 0.3 0.795 0.701l0.233 1.858c0.173 0.067 0.337 0.147 0.49 0.24s0.303 0.193 0.45 0.3l1.732-0.727c0.371-0.156 0.802-0.012 1.003 0.337l1.494 2.579c0.202 0.349 0.113 0.795-0.209 1.039l-1.498 1.133c0.013 0.093 0.020 0.183 0.020 0.27v0.54c0 0.087-0.013 0.178-0.040 0.271l1.497 1.133c0.322 0.244 0.412 0.689 0.209 1.039l-1.493 2.577c-0.202 0.349-0.634 0.493-1.006 0.336l-1.711-0.724c-0.147 0.107-0.301 0.207-0.461 0.3s-0.32 0.173-0.479 0.24l-0.232 1.858c-0.050 0.4-0.391 0.701-0.795 0.701h-2.99c-0.403 0-0.744-0.301-0.794-0.701l-0.231-1.858c-0.173-0.067-0.338-0.147-0.491-0.24s-0.303-0.193-0.45-0.3l-1.732 0.727c-0.371 0.156-0.801 0.012-1.002-0.337l-1.494-2.579c-0.202-0.349-0.113-0.795 0.209-1.039l1.497-1.133c-0.013-0.093-0.021-0.184-0.021-0.271v-0.54c0-0.087 0.008-0.177 0.021-0.27l-1.497-1.133c-0.322-0.244-0.412-0.689-0.209-1.039l1.494-2.579c0.202-0.348 0.631-0.493 1.002-0.337l1.732 0.727c0.147-0.107 0.301-0.207 0.461-0.3s0.32-0.173 0.48-0.24l0.231-1.858c0.050-0.4 0.391-0.701 0.795-0.701h2.99zM9 7.002c-1.105 0-2 0.895-2 2s0.895 2 2 2c1.104 0 2-0.895 2-2s-0.896-2-2-2z"></path>
</svg>
