<!-- Generated by IcoMoon.io -->
<svg version="1.1" xmlns="http://www.w3.org/2000/svg" width="18" height="18" viewBox="0 0 18 18">
<path d="M8.776 2.112c0.141-0.070 0.306-0.070 0.447 0l6.5 3.25c0.169 0.085 0.276 0.258 0.276 0.447v5.901c0 0.18-0.096 0.345-0.252 0.434l-6.5 3.714c-0.154 0.088-0.342 0.088-0.496 0l-6.5-3.714c-0.156-0.089-0.252-0.255-0.252-0.434v-5.901c0-0.189 0.107-0.363 0.276-0.447l6.5-3.25zM9 4l-5 2.5 1.25 0.687 7.5-1.313-5 2.688 1.25 0.687 5-2.75-1.25-0.625-7.5 1.313 5-2.563-1.25-0.625zM8 13.5v-3l-4-2.25v3l4 2.25zM10 10.5v3l4-2.25v-3l-4 2.25z"></path>
</svg>
