<!-- Generated by IcoMoon.io -->
<svg version="1.1" xmlns="http://www.w3.org/2000/svg" width="18" height="18" viewBox="0 0 18 18">
<title>palette</title>
<path d="M9 2c-3.866 0-7 3.134-7 7s3.134 7 7 7v0c0.011 0 0.023 0.001 0.036 0.001 0.646 0 1.17-0.524 1.17-1.17 0-0.325-0.132-0.619-0.346-0.83l-0-0c-0.187-0.205-0.301-0.479-0.301-0.78 0-0.641 0.519-1.16 1.16-1.16 0.004 0 0.008 0 0.012 0h1.379c0 0 0 0 0 0 2.131 0 3.861-1.713 3.89-3.837l0-0.003c0-3.44-3.13-6.22-7-6.22zM11 6.34c-0.74 0-1.34-0.6-1.34-1.34s0.6-1.34 1.34-1.34c0.74 0 1.34 0.6 1.34 1.34v0c0 0.74-0.6 1.34-1.34 1.34v0zM13 9.42c-0.74 0-1.34-0.6-1.34-1.34s0.6-1.34 1.34-1.34c0.74 0 1.34 0.6 1.34 1.34v0c0 0.74-0.6 1.34-1.34 1.34v0zM7.090 6.36c-0.736-0.006-1.33-0.603-1.33-1.34 0-0.74 0.6-1.34 1.34-1.34 0.733 0 1.329 0.589 1.34 1.319l0 0.001c0 0.006 0 0.013 0 0.020 0 0.74-0.6 1.34-1.34 1.34-0.004 0-0.007-0-0.011-0h0.001zM5 9.45c-0.74 0-1.34-0.6-1.34-1.34s0.6-1.34 1.34-1.34c0.74 0 1.34 0.6 1.34 1.34v0c0 0.74-0.6 1.34-1.34 1.34v0z"></path>
</svg>
