<!-- Generated by IcoMoon.io -->
<svg version="1.1" xmlns="http://www.w3.org/2000/svg" width="18" height="18" viewBox="0 0 18 18">
<title>past-free</title>
<path d="M7 3c0-0.552 0.448-1 1-1h2c0.552 0 1 0.448 1 1h3c0.552 0 1 0.448 1 1v5h-2v-4h-1v1h-6v-1h-1v9h4.125l-0.75 2h-4.375c-0.552 0-1-0.448-1-1v-11c0-0.552 0.448-1 1-1h3z"></path>
<path d="M16.908 16.443c0.047 0.129 0.076 0.23 0.088 0.306s-0.004 0.132-0.047 0.171c-0.043 0.036-0.119 0.057-0.229 0.064-0.11 0.011-0.261 0.016-0.452 0.016-0.2 0-0.356-0.004-0.47-0.011-0.11-0.004-0.194-0.012-0.253-0.027-0.059-0.018-0.1-0.041-0.123-0.070s-0.043-0.066-0.059-0.113l-0.511-1.394h-2.856l-0.482 1.356c-0.016 0.050-0.037 0.093-0.065 0.129-0.024 0.032-0.065 0.059-0.123 0.080-0.055 0.018-0.135 0.030-0.241 0.037-0.102 0.007-0.237 0.011-0.405 0.011-0.18 0-0.321-0.005-0.423-0.016s-0.172-0.036-0.212-0.075c-0.039-0.043-0.053-0.102-0.041-0.177s0.041-0.175 0.088-0.3l2.344-6.153c0.024-0.061 0.051-0.109 0.082-0.145 0.031-0.039 0.080-0.068 0.147-0.086 0.071-0.021 0.166-0.034 0.288-0.037 0.121-0.007 0.282-0.011 0.482-0.011 0.231 0 0.415 0.004 0.552 0.011 0.137 0.004 0.243 0.016 0.317 0.037 0.078 0.018 0.133 0.046 0.164 0.086 0.035 0.039 0.065 0.093 0.088 0.161l2.35 6.148zM13.418 11.356h-0.006l-1.075 2.948h2.156l-1.075-2.948z"></path>
</svg>
