<!-- Generated by IcoMoon.io -->
<svg version="1.1" xmlns="http://www.w3.org/2000/svg" width="18" height="18" viewBox="0 0 18 18">
<title>percent</title>
<path d="M6.17 14.65l-1.62-0.67 6.88-10.63 1.62 0.67-6.88 10.63z"></path>
<path d="M14.33 10.76c-0.426-0.469-1.039-0.763-1.72-0.763-0.039 0-0.077 0.001-0.116 0.003l0.005-0c-0.029-0.001-0.063-0.002-0.096-0.002-0.684 0-1.299 0.297-1.722 0.77l-0.002 0.002c-0.423 0.482-0.681 1.119-0.681 1.815 0 0.023 0 0.046 0.001 0.068l-0-0.003v0.69c-0.001 0.027-0.001 0.058-0.001 0.089 0 0.69 0.254 1.321 0.674 1.804l-0.003-0.003c0.428 0.469 1.042 0.763 1.724 0.763 0.041 0 0.081-0.001 0.121-0.003l-0.006 0c0.033 0.002 0.071 0.003 0.109 0.003 0.678 0 1.288-0.294 1.709-0.761l0.002-0.002c0.417-0.481 0.672-1.113 0.672-1.805 0-0.034-0.001-0.067-0.002-0.1l0 0.005v-0.69c0.001-0.023 0.001-0.049 0.001-0.076 0-0.691-0.254-1.323-0.674-1.807l0.003 0.003zM13.63 13.34c0.001 0.024 0.002 0.052 0.002 0.081 0 0.343-0.105 0.662-0.286 0.925l0.004-0.006c-0.185 0.233-0.468 0.381-0.786 0.381-0.019 0-0.038-0.001-0.057-0.002l0.003 0c-0.012 0-0.026 0.001-0.039 0.001-0.326 0-0.616-0.156-0.799-0.398l-0.002-0.003c-0.189-0.253-0.302-0.571-0.302-0.916 0-0.029 0.001-0.059 0.002-0.088l-0 0.004v-0.69c-0.001-0.024-0.002-0.053-0.002-0.082 0-0.344 0.109-0.663 0.295-0.923l-0.003 0.005c0.184-0.244 0.474-0.4 0.8-0.4 0.010 0 0.021 0 0.031 0l-0.002-0c0.012-0 0.026-0.001 0.039-0.001 0.326 0 0.616 0.156 0.799 0.398l0.002 0.003c0.189 0.256 0.302 0.577 0.302 0.925 0 0.026-0.001 0.052-0.002 0.078l0-0.004z"></path>
<path d="M7.33 2.76c-0.426-0.469-1.039-0.763-1.72-0.763-0.039 0-0.077 0.001-0.116 0.003l0.005-0c-0.029-0.001-0.063-0.002-0.096-0.002-0.684 0-1.299 0.297-1.722 0.77l-0.002 0.002c-0.423 0.482-0.681 1.119-0.681 1.815 0 0.023 0 0.046 0.001 0.068l-0-0.003v0.69c-0.001 0.027-0.001 0.058-0.001 0.089 0 0.69 0.254 1.321 0.674 1.804l-0.003-0.003c0.428 0.475 1.046 0.772 1.733 0.772 0.038 0 0.075-0.001 0.112-0.003l-0.005 0c0.033 0.002 0.071 0.003 0.109 0.003 0.678 0 1.288-0.294 1.709-0.761l0.002-0.002c0.417-0.481 0.671-1.113 0.671-1.804 0-0.030-0-0.060-0.001-0.090l0 0.004v-0.7c0.001-0.026 0.001-0.056 0.001-0.086 0-0.691-0.254-1.323-0.674-1.808l0.003 0.003zM6.63 5.34c0.001 0.024 0.002 0.052 0.002 0.081 0 0.343-0.105 0.662-0.286 0.925l0.004-0.006c-0.185 0.233-0.468 0.381-0.786 0.381-0.019 0-0.038-0.001-0.057-0.002l0.003 0c-0.012 0-0.026 0.001-0.039 0.001-0.326 0-0.616-0.156-0.799-0.398l-0.002-0.003c-0.189-0.253-0.302-0.571-0.302-0.916 0-0.029 0.001-0.059 0.002-0.088l-0 0.004v-0.67c-0.001-0.024-0.002-0.053-0.002-0.082 0-0.344 0.109-0.663 0.295-0.923l-0.003 0.005c0.184-0.244 0.474-0.4 0.8-0.4 0.010 0 0.021 0 0.031 0l-0.002-0c0.012-0 0.026-0.001 0.039-0.001 0.326 0 0.616 0.156 0.799 0.398l0.002 0.003c0.189 0.256 0.302 0.577 0.302 0.925 0 0.026-0.001 0.052-0.002 0.078l0-0.004z"></path>
</svg>
