<!-- Generated by IcoMoon.io -->
<svg version="1.1" xmlns="http://www.w3.org/2000/svg" width="18" height="18" viewBox="0 0 18 18">
<title>photo</title>
<path d="M12 10c0 1.657-1.343 3-3 3s-3-1.343-3-3c0-1.657 1.343-3 3-3s3 1.343 3 3z"></path>
<path d="M16 5h-3l-1-2h-6l-1 2h-3c-0.552 0-1 0.448-1 1v0 9c0 0.552 0.448 1 1 1v0h14c0.552 0 1-0.448 1-1v0-9c0-0.552-0.448-1-1-1v0zM9 14.54c-2.507 0-4.54-2.033-4.54-4.54s2.033-4.54 4.54-4.54c2.507 0 4.54 2.033 4.54 4.54v0c0 2.507-2.033 4.54-4.54 4.54v0z"></path>
</svg>
