<!-- Generated by IcoMoon.io -->
<svg version="1.1" xmlns="http://www.w3.org/2000/svg" width="18" height="18" viewBox="0 0 18 18">
<title>preferences</title>
<path d="M15.77 7.58l-1.35-0.11c-0.139-0.459-0.312-0.857-0.525-1.229l0.015 0.029 0.87-1c0.030-0.048 0.049-0.107 0.050-0.17v-0c0-0.004 0-0.008 0-0.013 0-0.079-0.035-0.149-0.090-0.197l-0-0-1.6-1.59c-0.052-0.058-0.126-0.096-0.209-0.1l-0.001-0c-0.056 0.001-0.108 0.020-0.151 0.051l0.001-0.001-1 0.86c-0.345-0.192-0.746-0.362-1.166-0.489l-0.044-0.011-0.12-1.34c0-0.001 0-0.003 0-0.005 0-0.149-0.121-0.27-0.27-0.27-0.018 0-0.035 0.002-0.052 0.005l0.002-0h-2.26c-0.004-0-0.008-0-0.013-0-0.141 0-0.257 0.104-0.277 0.239l-0 0.002-0.12 1.34c-0.463 0.136-0.864 0.306-1.241 0.516l0.031-0.016-1-0.86c-0.043-0.028-0.094-0.046-0.149-0.050l-0.001-0c-0.084 0.004-0.158 0.042-0.21 0.1l-0 0-1.64 1.59c-0.060 0.051-0.099 0.126-0.1 0.21v0c0 0 0 0.001 0 0.001 0 0.063 0.019 0.121 0.051 0.17l-0.001-0.001 0.87 1c-0.204 0.345-0.375 0.744-0.492 1.165l-0.008 0.035-1.35 0.11c-0.128 0.032-0.221 0.146-0.221 0.282 0 0.006 0 0.013 0.001 0.019l-0-0.001v2.26c-0.001 0.010-0.002 0.021-0.002 0.033 0 0.13 0.096 0.238 0.221 0.257l0.001 0 1.35 0.12c0.133 0.454 0.303 0.849 0.514 1.217l-0.014-0.027-0.87 1c-0.029 0.049-0.047 0.107-0.050 0.169l-0 0.001c0.006 0.080 0.043 0.151 0.1 0.2l0 0 1.6 1.59c0.048 0.059 0.119 0.097 0.199 0.1l0 0c0.063-0.003 0.121-0.021 0.172-0.051l-0.002 0.001 1-0.86c0.348 0.203 0.75 0.373 1.174 0.491l0.036 0.009 0.11 1.35c0.024 0.132 0.138 0.23 0.276 0.23 0.005 0 0.010-0 0.015-0l-0.001 0h2.26c0.007 0.001 0.015 0.001 0.023 0.001 0.135 0 0.247-0.1 0.267-0.229l0-0.001 0.12-1.35c0.458-0.131 0.856-0.302 1.227-0.514l-0.027 0.014 1 0.86c0.042 0.030 0.094 0.049 0.15 0.050h0c0.084-0.004 0.158-0.042 0.21-0.1l0-0 1.6-1.59c0.054-0.050 0.088-0.121 0.090-0.2v-0c-0.003-0.063-0.021-0.121-0.051-0.172l0.001 0.002-0.87-1c0.103-0.165 0.201-0.356 0.281-0.555l0.009-0.025q0.12-0.3 0.22-0.62l1.35-0.12c0.131-0.020 0.231-0.132 0.231-0.267 0-0.008-0-0.016-0.001-0.024l0 0.001v-2.22c0.002-0.013 0.003-0.029 0.003-0.044 0-0.11-0.061-0.206-0.152-0.255l-0.002-0.001zM11.12 11.13c-0.524 0.537-1.254 0.871-2.063 0.871-0.020 0-0.040-0-0.060-0.001l0.003 0c-1.657 0-3-1.343-3-3v0c0-1.657 1.343-3 3-3v0c0.014-0 0.031-0 0.047-0 0.813 0 1.548 0.337 2.072 0.88l0.001 0.001c0.543 0.529 0.88 1.268 0.88 2.085 0 0.012-0 0.024-0 0.037l0-0.002c0 0.013 0 0.029 0 0.045 0 0.817-0.337 1.556-0.88 2.085l-0.001 0.001z"></path>
</svg>
