<!-- Generated by IcoMoon.io -->
<svg version="1.1" xmlns="http://www.w3.org/2000/svg" width="18" height="18" viewBox="0 0 18 18">
<title>runner</title>
<path d="M12.75 4.38c-0.005 0-0.010 0-0.016 0-0.45 0-0.856-0.188-1.143-0.489l-0.001-0.001c-0.291-0.294-0.47-0.699-0.47-1.145 0-0.012 0-0.024 0-0.036l-0 0.002c-0-0.011-0-0.024-0-0.037 0-0.443 0.18-0.843 0.47-1.133l0-0c0.298-0.303 0.712-0.491 1.17-0.491s0.872 0.188 1.17 0.491l0 0c0.291 0.285 0.471 0.682 0.471 1.121 0 0.017-0 0.034-0.001 0.052l0-0.002c0 0.009 0 0.020 0 0.030 0 0.448-0.18 0.854-0.471 1.15l0-0c-0.29 0.302-0.697 0.49-1.148 0.49-0.011 0-0.022-0-0.033-0l0.002 0zM6.91 10.090c0.146 0.329 0.372 0.6 0.654 0.796l0.006 0.004 0.78 0.53-1.35 1.33v0.060c-0.111 0.117-0.269 0.191-0.443 0.191-0.010 0-0.019-0-0.028-0.001l0.001 0h-3.96c-0.002 0-0.003 0-0.005 0-0.183 0-0.348-0.077-0.465-0.2l-0-0c-0.117-0.115-0.19-0.274-0.19-0.451 0-0.003 0-0.006 0-0.010v0c-0-0.006-0-0.013-0-0.020 0-0.179 0.073-0.342 0.19-0.46v0c0.111-0.112 0.264-0.181 0.434-0.181 0.013 0 0.025 0 0.038 0.001l-0.002-0h3.54zM16.35 7.71c0.002-0 0.004-0 0.007-0 0.181 0 0.344 0.073 0.463 0.19l-0-0c0.112 0.111 0.181 0.264 0.181 0.434 0 0.013-0 0.025-0.001 0.038l0-0.002c0 0.005 0 0.011 0 0.017 0 0.176-0.069 0.335-0.181 0.454l0-0c-0.117 0.123-0.282 0.2-0.465 0.2-0.002 0-0.004 0-0.006-0h-2.070c-0.060 0.007-0.129 0.011-0.198 0.011-0.261 0-0.509-0.056-0.733-0.156l0.011 0.005c-0.067-0.065-0.13-0.133-0.187-0.206l-0.003-0.004-0.29-0.37-0.69-1c-0.068-0.092-0.17-0.155-0.288-0.17l-0.002-0c-0.13 0.005-0.24 0.085-0.289 0.198l-0.001 0.002-1.16 1.99c-0.057 0.097-0.090 0.214-0.090 0.338 0 0.004 0 0.008 0 0.012v-0.001c-0.002 0.015-0.004 0.032-0.004 0.050s0.001 0.035 0.004 0.052l-0-0.002c0.011 0.165 0.081 0.312 0.19 0.42l1.67 1.67c0.117 0.115 0.192 0.273 0.2 0.449l0 0.001c-0.005 0.114-0.034 0.22-0.082 0.314l0.002-0.004-2 4c-0.095 0.22-0.311 0.371-0.561 0.371-0.010 0-0.020-0-0.030-0.001l0.001 0c-0.001 0-0.003 0-0.004 0-0.108 0-0.21-0.026-0.3-0.072l0.004 0.002c-0.154-0.081-0.269-0.219-0.319-0.385l-0.001-0.005c-0.008-0.033-0.012-0.071-0.012-0.11s0.005-0.077 0.013-0.113l-0.001 0.003c-0.001-0.011-0.001-0.024-0.001-0.037 0-0.107 0.026-0.208 0.073-0.297l-0.002 0.004 1.8-3.52-0.060-0.050-3-2.070c-0.283-0.149-0.483-0.422-0.529-0.745l-0.001-0.005c-0.004-0.045-0.007-0.097-0.007-0.15s0.002-0.105 0.007-0.157l-0 0.007c-0-0.003-0-0.006-0-0.010 0-0.225 0.063-0.436 0.173-0.615l-0.003 0.005 1.76-2.89c0.047-0.077 0.076-0.17 0.080-0.269l0-0.001c0.002-0.018 0.003-0.039 0.003-0.060s-0.001-0.042-0.004-0.062l0 0.002c-0.046-0.137-0.143-0.247-0.267-0.309l-0.003-0.001-0.75-0.37c-0.117-0.058-0.253-0.094-0.398-0.1l-0.002-0c-0.206 0.008-0.393 0.082-0.542 0.201l0.002-0.001-1.87 1.41c-0.094 0.076-0.214 0.122-0.345 0.122-0.016 0-0.031-0.001-0.047-0.002l0.002 0c-0.007 0-0.016 0-0.025 0-0.208 0-0.391-0.102-0.504-0.259l-0.001-0.002c-0.075-0.092-0.121-0.211-0.121-0.34 0-0.010 0-0.021 0.001-0.031l-0 0.001c-0.002-0.017-0.003-0.036-0.003-0.055s0.001-0.038 0.003-0.057l-0 0.002c0.014-0.18 0.105-0.337 0.239-0.439l0.001-0.001 2.21-1.66c0.239-0.217 0.538-0.372 0.868-0.438l0.012-0.002c0.275 0.054 0.52 0.151 0.74 0.285l-0.010-0.006 2.15 1 1.33 0.64c0.621 0.648 1.17 1.372 1.63 2.155l0.030 0.055c0.181 0.273 0.488 0.45 0.835 0.45 0.009 0 0.017-0 0.026-0l-0.001 0z"></path>
</svg>
