<!-- Generated by IcoMoon.io -->
<svg version="1.1" xmlns="http://www.w3.org/2000/svg" width="18" height="18" viewBox="0 0 18 18">
<path d="M6.858 12.878c-0.55-3.060-2.67-5.18-5.735-5.735-0.165-0.030-0.165-0.255 0-0.285 3.060-0.55 5.18-2.67 5.735-5.735 0.030-0.165 0.255-0.165 0.285 0 0.55 3.060 2.67 5.18 5.735 5.735 0.165 0.030 0.165 0.255 0 0.285-3.060 0.55-5.18 2.67-5.735 5.735-0.030 0.165-0.255 0.165-0.285 0z"></path>
<path d="M12.908 16.917c-0.37-2.040-1.78-3.455-3.82-3.82-0.11-0.020-0.11-0.17 0-0.19 2.040-0.37 3.455-1.78 3.82-3.82 0.020-0.11 0.17-0.11 0.19 0 0.37 2.040 1.78 3.455 3.82 3.82 0.11 0.020 0.11 0.17 0 0.19-2.040 0.37-3.455 1.78-3.82 3.82-0.020 0.11-0.17 0.11-0.19 0z"></path>
</svg>
