<!-- Generated by IcoMoon.io -->
<svg version="1.1" xmlns="http://www.w3.org/2000/svg" width="18" height="18" viewBox="0 0 18 18">
<title>table-row-properties</title>
<path d="M2 6v0zM12.26 11v0zM15 2h-13v3h-1v7h1v3h7.67l1.33-1.33v-1.67h1.67l3.33-3.33v-3.67h-1v-3zM11 5v-2h3v2zM7 5v-2h3v2zM3 5v-2h3v2zM11 10v-3h3v3zM7 10v-3h3v3zM3 10v-3h3v3zM7 14v-2h3v2zM3 14v-2h3v2z"></path>
<path d="M15.142 12.436l0.926-0.926 1.414 1.414-0.926 0.926-1.414-1.414z"></path>
<path d="M14.44 13.15l-3.44 3.44v1.41h1.41l3.44-3.44-1.41-1.41z"></path>
</svg>
