<!-- Generated by IcoMoon.io -->
<svg version="1.1" xmlns="http://www.w3.org/2000/svg" width="18" height="18" viewBox="0 0 18 18">
<title>table-remove-row</title>
<path d="M2 17h13v-5h-13zM14 13v3h-3v-3zM10 13v3h-3v-3zM3 13h3v3h-3z"></path>
<path d="M3 0h-1v5h13v-5zM3 4v-3h3v3zM7 4v-3h3v3zM14 4h-3v-3h3z"></path>
<path d="M0 6h4v5h-4v-5z"></path>
<path d="M13 6h4v5h-4v-5z"></path>
<path d="M11.35 6.35l-0.7-0.7-2.15 2.14-2.15-2.14-0.7 0.7 2.14 2.15-2.14 2.15 0.7 0.7 2.15-2.14 2.15 2.14 0.7-0.7-2.14-2.15 2.14-2.15z"></path>
</svg>
