<!-- Generated by IcoMoon.io -->
<svg version="1.1" xmlns="http://www.w3.org/2000/svg" width="18" height="18" viewBox="0 0 18 18">
<title>table-remove-column</title>
<path d="M0 2v13h5v-13zM4 14h-3v-3h3zM4 10h-3v-3h3zM4 6h-3v-3h3z"></path>
<path d="M12 2v13h5v-13zM16 14h-3v-3h3zM16 10h-3v-3h3zM16 6h-3v-3h3z"></path>
<path d="M6 0h5v4h-5v-4z"></path>
<path d="M6 13h5v4h-5v-4z"></path>
<path d="M11.35 6.35l-0.7-0.7-2.15 2.14-2.15-2.14-0.7 0.7 2.14 2.15-2.14 2.15 0.7 0.7 2.15-2.14 2.15 2.14 0.7-0.7-2.14-2.15 2.14-2.15z"></path>
</svg>
