<!-- Generated by IcoMoon.io -->
<svg version="1.1" xmlns="http://www.w3.org/2000/svg" width="18" height="18" viewBox="0 0 18 18">
<title>table-column-properties</title>
<path d="M8.26 15v0zM12 1h-7v1h-3v13h3v1h3.67l3.33-3.33v-1.67h1.67l1.33-1.33v-7.67h-3v-1zM12 6v-3h2v3zM7 6v-3h3v3zM3 6v-3h2v3zM12 10v-3h2v3zM7 10v-3h3v3zM3 10v-3h2v3zM7 14v-3h3v3zM3 14v-3h2v3z"></path>
<path d="M15.142 12.436l0.926-0.926 1.414 1.414-0.926 0.926-1.414-1.414z"></path>
<path d="M14.44 13.15l-3.44 3.44v1.41h1.41l3.44-3.44-1.41-1.41z"></path>
</svg>
