<!-- Generated by IcoMoon.io -->
<svg version="1.1" xmlns="http://www.w3.org/2000/svg" width="18" height="18" viewBox="0 0 18 18">
<title>table-properties</title>
<path d="M2 2v0zM16 1h-15v15h7.67l2.33-2.33v-2.67h2.67l2.33-2.33v-7.67zM11 6v-3h3v3zM7 6v-3h3v3zM3 6v-3h3v3zM11 10v-3h3v3zM7 10v-3h3v3zM3 10v-3h3v3zM7 14v-3h3v3zM3 14v-3h3v3z"></path>
<path d="M15.142 12.436l0.926-0.926 1.414 1.414-0.926 0.926-1.414-1.414z"></path>
<path d="M14.44 13.15l-3.44 3.44v1.41h1.41l3.44-3.44-1.41-1.41z"></path>
</svg>
