<!-- Generated by IcoMoon.io -->
<svg version="1.1" xmlns="http://www.w3.org/2000/svg" width="18" height="18" viewBox="0 0 18 18">
<title>tel</title>
<path d="M14.79 13.28c0.124 0.102 0.202 0.255 0.202 0.426 0 0.113-0.034 0.219-0.093 0.306l0.001-0.002-1.26 1.79c-0.1 0.126-0.252 0.205-0.424 0.205-0.027 0-0.053-0.002-0.079-0.006l0.003 0c-1.434-0.090-2.738-0.579-3.822-1.355l0.022 0.015c-1.29-0.869-2.392-1.891-3.317-3.060l-0.023-0.030q-3.48-4.3-3-8c-0.001-0.014-0.002-0.031-0.002-0.048 0-0.232 0.139-0.432 0.338-0.521l0.004-0.001 1.9-1c0.057-0.027 0.124-0.043 0.195-0.043s0.138 0.016 0.198 0.045l-0.003-0.001c0.128 0.051 0.23 0.147 0.289 0.267l0.001 0.003 1.72 3.57c0.021 0.060 0.034 0.128 0.034 0.2s-0.012 0.14-0.035 0.204l0.001-0.004c-0.036 0.134-0.127 0.242-0.247 0.299l-0.003 0.001-1.18 0.61c-0.19 1.56 2.6 4.91 4 5l0.79-1.15c0.075-0.108 0.193-0.183 0.328-0.2l0.002-0c0.029-0.007 0.062-0.011 0.097-0.011 0.105 0 0.2 0.038 0.274 0.102l-0.001-0z"></path>
</svg>
