<svg version="1.1" xmlns="http://www.w3.org/2000/svg" width="18" height="18" viewBox="0 0 18 18">
<path d="M12 4v3.5h-2v-3.5h-2v10h1.5v2h-6.5c-0.552 0-1-0.448-1-1 0-4.442 0-7.558 0-12 0-0.552 0.448-1 1-1 4.678 0 7.321 0 11.999 0 0.552 0 1 0.448 1 1v3h-2v-2h-2zM6 14v-10h-2v10h2z"></path>
<path d="M14.5 8c-1.381 0-2.5 1.075-2.5 2.4v1.6h0.048c-0.524 0.001-1.048 0.501-1.048 1v2.917c0 0.583 0.525 1.083 1.050 1.083h4.813c0.612 0 1.137-0.5 1.137-1v-2.917c0-0.583-0.525-1.083-1.050-1.083h-3.7v-1.6c0-0.663 0.56-1.2 1.25-1.2 0.544 0 1.007 0.334 1.179 0.8h1.287c-0.198-1.135-1.227-2-2.465-2z"></path>
</svg>
