<!-- Generated by IcoMoon.io -->
<svg version="1.1" xmlns="http://www.w3.org/2000/svg" width="18" height="18" viewBox="0 0 18 18">
<path d="M16 5c0.552 0 1 0.448 1 1v4c0 0.552-0.448 1-1 1h-14c-0.552 0-1-0.448-1-1v-4c0-0.552 0.448-1 1-1h14zM4 7c-0.552 0-1 0.448-1 1s0.448 1 1 1c0.552 0 1-0.448 1-1s-0.448-1-1-1zM8 7c-0.552 0-1 0.448-1 1s0.448 1 1 1h6c0.552 0 1-0.448 1-1s-0.448-1-1-1h-6z"></path>
<path d="M17.5 13.5l-1.5 1.5 1.5 1.5-1 1-1.5-1.5-1.5 1.5-1-1 1.5-1.5-1.5-1.5 1-1 1.5 1.5 1.5-1.5 1 1z"></path>
</svg>
