<!-- Generated by IcoMoon.io -->
<svg version="1.1" xmlns="http://www.w3.org/2000/svg" width="18" height="18" viewBox="0 0 18 18">
<title>unlock</title>
<path d="M9 12c0.552 0 1-0.448 1-1s-0.448-1-1-1c-0.552 0-1 0.448-1 1s0.448 1 1 1z"></path>
<path d="M9 4c-1.219 0-2 0.854-2 1.667v1.333h6c0.552 0 1 0.448 1 1v6c0 0.552-0.448 1-1 1h-8c-0.552 0-1-0.448-1-1v-6c0-0.552 0.448-1 1-1v-1.333c0-2.133 1.905-3.667 4-3.667 1.744 0 3.317 1.039 3.831 2.608 0.172 0.525-0.114 1.090-0.639 1.262s-1.090-0.114-1.262-0.639c-0.213-0.649-0.944-1.231-1.93-1.231zM6 9v4h6v-4h-6z"></path>
</svg>
