<!-- Generated by IcoMoon.io -->
<svg version="1.1" xmlns="http://www.w3.org/2000/svg" width="18" height="18" viewBox="0 0 18 18">
<title>user</title>
<path d="M12 5c0 1.657-1.343 3-3 3s-3-1.343-3-3c0-1.657 1.343-3 3-3s3 1.343 3 3z"></path>
<path d="M14 16h-10v-2.32c0.011-0.319 0.043-0.623 0.096-0.919l-0.006 0.039c0.514-1.45 1.159-2.706 1.947-3.857l-0.037 0.057c0.704 0.63 1.638 1.014 2.662 1.014 0.119 0 0.237-0.005 0.353-0.015l-0.015 0.001c0.101 0.009 0.219 0.014 0.338 0.014 1.024 0 1.958-0.385 2.666-1.018l-0.004 0.003c0.747 1.094 1.389 2.35 1.864 3.685l0.036 0.115c0.051 0.291 0.080 0.627 0.080 0.97 0 0.011-0 0.021-0 0.032v-0.002z"></path>
</svg>
