<!-- Generated by IcoMoon.io -->
<svg version="1.1" xmlns="http://www.w3.org/2000/svg" width="18" height="18" viewBox="0 0 18 18">
<title>warning</title>
<path d="M16.82 14.090l-6.72-11.46c-0.226-0.382-0.636-0.634-1.105-0.634s-0.879 0.252-1.102 0.628l-0.003 0.006-6.71 11.46c-0.109 0.183-0.173 0.404-0.173 0.64 0 0.701 0.569 1.27 1.27 1.27 0.001 0 0.002 0 0.003 0h13.44c0.001 0 0.002 0 0.003 0 0.701 0 1.27-0.569 1.27-1.27 0-0.236-0.064-0.457-0.176-0.646l0.003 0.006zM10 14h-2v-2h2zM10 11h-2v-4h2z"></path>
</svg>
