<!-- Generated by IcoMoon.io -->
<svg version="1.1" xmlns="http://www.w3.org/2000/svg" width="18" height="18" viewBox="0 0 18 18">
<path d="M7.5 1c1.817 0 3.354 0.629 4.612 1.888s1.888 2.796 1.888 4.612c0 0.733-0.116 1.425-0.35 2.075s-0.55 1.225-0.95 1.725l4.3 4.3-1.4 1.4-4.3-4.3c-0.5 0.4-1.075 0.717-1.725 0.95s-1.342 0.35-2.075 0.35c-1.817 0-3.354-0.629-4.612-1.888s-1.888-2.796-1.888-4.612c0-1.817 0.629-3.354 1.888-4.612s2.796-1.888 4.612-1.888zM6.5 4.5v2h-2v2h2v2h2v-2h2v-2h-2v-2h-2z"></path>
</svg>
