<svg version="1.1" xmlns="http://www.w3.org/2000/svg" width="18" height="18" viewBox="0 0 18 18">
<path d="M15.6 17l-4.3-4.3c-0.5 0.4-1.075 0.717-1.725 0.95s-1.342 0.35-2.075 0.35c-1.817 0-3.354-0.629-4.612-1.888s-1.888-2.796-1.888-4.612c0-1.817 0.629-3.354 1.888-4.612s2.796-1.888 4.612-1.888c1.817 0 3.354 0.629 4.612 1.888s1.888 2.796 1.888 4.612c0 0.733-0.117 1.425-0.35 2.075s-0.55 1.225-0.95 1.725l4.3 4.3-1.4 1.4zM7.5 12c1.25 0 2.313-0.438 3.187-1.313s1.313-1.937 1.313-3.187c0-1.25-0.438-2.313-1.313-3.187s-1.937-1.313-3.187-1.313c-1.25 0-2.313 0.438-3.187 1.313s-1.313 1.937-1.313 3.187c0 1.25 0.438 2.313 1.313 3.187s1.937 1.313 3.187 1.313zM5 8.5v-2h5v2h-5z"></path>
</svg>
