<!-- Generated by IcoMoon.io -->
<svg version="1.1" xmlns="http://www.w3.org/2000/svg" width="24" height="24" viewBox="0 0 24 24">
<title>background</title>
<path d="M4.84 16.27l-2.84 3.73h3.8l1.16-1.35 0.11 0.060 0.11-0.060-2.34-2.38z"></path>
<path d="M20.28 3.73l-1-1c-0.494-0.441-1.149-0.71-1.867-0.71-0.476 0-0.925 0.118-1.318 0.328l0.015-0.007-8.11 8.38 4.58 4.67 8.080-8.31c0.231-0.406 0.368-0.892 0.368-1.41 0-0.748-0.284-1.429-0.75-1.942l0.002 0.002z"></path>
<path d="M6.88 11.88c-0.436 0.845-0.837 1.839-1.147 2.873l-0.033 0.127 2.93 3 1.73-0.88c0.384-0.089 0.72-0.256 1.005-0.484l-0.005 0.004z"></path>
</svg>
