<!-- Generated by IcoMoon.io -->
<svg version="1.1" xmlns="http://www.w3.org/2000/svg" width="24" height="24" viewBox="0 0 24 24">
<title>cut</title>
<path d="M9.64 7.64c0.23-0.5 0.36-1.050 0.36-1.64 0-2.21-1.79-4-4-4s-4 1.79-4 4 1.79 4 4 4c0.59 0 1.14-0.13 1.64-0.36l2.36 2.36-2.36 2.36c-0.5-0.23-1.050-0.36-1.64-0.36-2.21 0-4 1.79-4 4s1.79 4 4 4 4-1.79 4-4c0-0.59-0.13-1.14-0.36-1.64l2.36-2.36 7 7h3v-1l-12.36-12.36zM6 8c-1.1 0-2-0.89-2-2s0.9-2 2-2 2 0.89 2 2-0.9 2-2 2zM6 20c-1.1 0-2-0.89-2-2s0.9-2 2-2 2 0.89 2 2-0.9 2-2 2zM12 12.5c-0.28 0-0.5-0.22-0.5-0.5s0.22-0.5 0.5-0.5 0.5 0.22 0.5 0.5-0.22 0.5-0.5 0.5zM19 3l-6 6 2 2 7-7v-1z"></path>
</svg>
