<!-- Generated by IcoMoon.io -->
<svg version="1.1" xmlns="http://www.w3.org/2000/svg" width="24" height="24" viewBox="0 0 24 24">
<title>exportpdf</title>
<path d="M14 2h-8c-1.1 0-2 0.9-2 2v5h2v-5h5v7h7v9h-2v2h2c1.1 0 2-0.9 2-2v-12l-6-6zM13 9v-5.5l5.5 5.5h-5.5z"></path>
<path d="M14.769 18.293l-0.008-0.016c-0.285-0.62-0.826-0.984-1.299-1.155l-0.042-0.015-0.043-0.011c-0.67-0.172-1.212-0.215-1.77-0.215h-0.023c-0.214-0-0.504-0-0.806 0.047-0.078 0.011-0.142 0.020-0.197 0.028-0.169 0.024-0.247 0.036-0.356 0.036h-0.090l-0.088 0.017c-0.036 0.007-0.074 0.014-0.113 0.021-0.020-0.023-0.040-0.046-0.059-0.069l-0.033-0.040-0.037-0.036c-0.247-0.238-0.438-0.481-0.648-0.785-0.122-0.177-0.244-0.343-0.357-0.498l-0.088-0.12 0.025-0.090c0.153-0.564 0.324-1.19 0.419-1.8 0.038-0.219 0.078-0.45 0.117-0.719 0.065-0.439-0.006-0.842-0.105-1.178-0.127-0.429-0.381-0.849-0.799-1.195-0.437-0.362-1.047-0.587-1.703-0.465-0.695 0.085-1.172 0.495-1.435 0.876-0.216 0.312-0.397 0.702-0.461 1.128-0.096 0.608-0.051 1.254 0.096 1.785 0.141 0.574 0.361 1.135 0.613 1.645-0.271 0.662-0.577 1.281-0.953 1.975l-0.004 0.008-0.004 0.008c-0.169 0.327-0.339 0.633-0.513 0.943l-0.049 0.018-0.001 0c-0.052 0.019-0.107 0.040-0.168 0.063-0.181 0.069-0.396 0.155-0.612 0.268-0.401 0.176-0.885 0.389-1.337 0.693-0.088 0.057-0.159 0.112-0.204 0.147l-0.006 0.005c-0.050 0.039-0.069 0.053-0.088 0.065l-0.022 0.014-0.228 0.165-0.175 0.169c-0.147 0.142-0.37 0.357-0.557 0.583l-0.026 0.032-0.040 0.059c-0.154 0.222-0.422 0.609-0.487 1.176l-0.006 0.053v0.053c0 0.301 0.061 0.64 0.219 0.947 0.107 0.207 0.25 0.356 0.339 0.441 0.045 0.044 0.090 0.083 0.12 0.11l0 0 0.003 0.002c0.035 0.031 0.052 0.046 0.065 0.059l0.055 0.054 0.063 0.044c0.491 0.339 1.189 0.461 1.753 0.325 0.464-0.112 0.808-0.334 1.030-0.478l0.041-0.027 0.015-0.011c0.408-0.287 0.741-0.616 1.012-0.885l0-0c0.061-0.060 0.119-0.118 0.174-0.171l0.020-0.019 0.034-0.037c0.297-0.323 0.636-0.691 0.937-1.106 0.144-0.198 0.276-0.395 0.398-0.577l0-0 0.004-0.006c0.063-0.094 0.124-0.184 0.185-0.272 0.050-0.011 0.107-0.022 0.175-0.035l0.031-0.006 0.030-0.008c0.736-0.194 1.505-0.359 2.298-0.526 0.405 0.298 0.843 0.573 1.33 0.824l0.069 0.035 0.065 0.021 0.004 0.002c0.007 0.003 0.024 0.011 0.056 0.027l0.010 0.005c0.051 0.025 0.161 0.078 0.283 0.118 0.042 0.014 0.083 0.026 0.117 0.036l0.038 0.011 0.053 0.015c0.019 0.006 0.033 0.010 0.042 0.013l0.034 0.016 0.068 0.022c0.228 0.073 0.474 0.152 0.761 0.232l0.060 0.017 0.088 0.012c0.259 0.036 0.631 0.087 1.060 0.036l0.055-0.007 0.054-0.013 0.016-0.004 0.013-0.003c0.123-0.027 0.492-0.108 0.8-0.331l0.017-0.012c0.139-0.1 0.535-0.385 0.72-0.831 0.124-0.3 0.186-0.644 0.186-0.912v-0.156l-0.051-0.147-0.005-0.017-0.003-0.011c-0.024-0.077-0.090-0.29-0.165-0.47l-0.007-0.017zM6.589 13.162c-0.122-0.391-0.203-0.783-0.162-1.174 0.041-0.196 0.081-0.352 0.162-0.509 0.081-0.117 0.203-0.235 0.284-0.235 0.284 0.039 0.324 0.313 0.365 0.626v0.548c0 0.167-0.030 0.334-0.063 0.525l-0 0-0.018 0.101c-0.040 0.175-0.081 0.34-0.121 0.506h-0l-0.001 0.003-0 0c-0.041 0.166-0.081 0.333-0.122 0.509-0.026-0.068-0.053-0.135-0.079-0.2l-0-0c-0.094-0.234-0.182-0.455-0.245-0.7zM2.456 22.319c-0.162 0.117-0.324 0.196-0.446 0.235-0.203 0.078-0.486 0-0.446-0.235 0-0.078 0.081-0.235 0.203-0.391s0.243-0.313 0.405-0.43l0.122-0.117 0.122-0.078c0.040-0.020 0.081-0.049 0.121-0.078l0-0c0.040-0.029 0.081-0.059 0.121-0.078 0.365-0.235 0.77-0.43 1.216-0.626 0 0 0.008 0 0.017-0.003-0.062 0.092-0.123 0.186-0.183 0.279-0.37 0.566-0.739 1.129-1.252 1.525zM7.197 17.271c0.081-0.156 0.122-0.313 0.162-0.47l0.243 0.352c0.122 0.196 0.284 0.391 0.446 0.587l0 0c0.162 0.196 0.324 0.352 0.527 0.548-0.383 0.087-0.766 0.162-1.156 0.238l-0.001 0-0.001 0c-0.311 0.061-0.626 0.123-0.949 0.192 0.040-0.039 0.527-0.978 0.729-1.448zM13.235 19.188c0 0.078-0.040 0.235-0.203 0.313-0.122 0.078-0.324 0.078-0.527 0.078s-0.405 0-0.608-0.039c-0.203-0.039-0.365-0.117-0.567-0.235-0.189-0.104-0.378-0.243-0.567-0.383-0.095-0.069-0.189-0.139-0.284-0.204h0.081c0.243-0.039 0.486-0.078 0.689-0.117 0.243-0.039 0.446-0.039 0.689-0.039s0.446 0 0.648 0.039c0.203 0.039 0.405 0.117 0.527 0.235s0.122 0.235 0.122 0.352z"></path>
</svg>
