<!-- Generated by IcoMoon.io -->
<svg version="1.1" xmlns="http://www.w3.org/2000/svg" width="24" height="24" viewBox="0 0 24 24">
<title>fieldchooser</title>
<path d="M19 3h-14c-1.105 0-2 0.895-2 2v0 4c0 1.105 0.895 2 2 2v0h14c1.105 0 2-0.895 2-2v0-4c0-1.105-0.895-2-2-2v0zM19 9h-14v-4h14z"></path>
<path d="M7.8 19h-2.8v-4h10l2-2h-12c-1.105 0-2 0.895-2 2v0 4c0 1.105 0.895 2 2 2v0h4.4z"></path>
<path d="M21.59 11.59l-8.090 8.090-3.67-3.68-1.41 1.41 5.090 5.090 9.49-9.5-1.41-1.41z"></path>
</svg>
