<svg xmlns="http://www.w3.org/2000/svg" width="24" height="24" viewBox="0 0 24 24">
<title>photooutline</title>
<path d="M20 5h-3.17l-1.235-1.35c-0.379-0.414-0.914-0.65-1.476-0.65h-4.238c-0.561 0-1.097 0.236-1.476 0.65l-1.235 1.35h-3.17c-0.53 0-1.039 0.211-1.414 0.586s-0.586 0.884-0.586 1.414v11c0 0.53 0.211 1.039 0.586 1.414s0.884 0.586 1.414 0.586h16c0.53 0 1.039-0.211 1.414-0.586s0.586-0.884 0.586-1.414v-11c0-0.53-0.211-1.039-0.586-1.414s-0.884-0.586-1.414-0.586zM20 18h-16v-11h3.61c0.281 0 0.548-0.118 0.738-0.325l1.235-1.35c0.189-0.207 0.457-0.325 0.738-0.325h3.359c0.281 0 0.548 0.118 0.738 0.325l1.235 1.35c0.189 0.207 0.457 0.325 0.738 0.325h3.61v11zM12 7c-1.326 0-2.598 0.527-3.536 1.464s-1.464 2.209-1.464 3.536c0 1.326 0.527 2.598 1.464 3.536s2.209 1.464 3.536 1.464 2.598-0.527 3.535-1.464c0.938-0.938 1.464-2.209 1.464-3.536s-0.527-2.598-1.464-3.536c-0.938-0.938-2.209-1.464-3.536-1.464zM12 15c-0.796 0-1.559-0.316-2.121-0.879s-0.879-1.326-0.879-2.121c0-0.796 0.316-1.559 0.879-2.121s1.326-0.879 2.121-0.879c0.796 0 1.559 0.316 2.121 0.879s0.879 1.326 0.879 2.121c0 0.796-0.316 1.559-0.879 2.121s-1.326 0.879-2.121 0.879z"></path>
</svg>
