<!-- Generated by IcoMoon.io -->
<svg version="1.1" xmlns="http://www.w3.org/2000/svg" width="24" height="24" viewBox="0 0 24 24">
<title>preferences</title>
<path d="M20.5 10.5h-0.55c-0.62 0-1.56-0.28-1.77-0.83 0-0.13-0.1-0.26-0.16-0.39-0.24-0.54 0.22-1.4 0.66-1.84l0.39-0.44c0.091-0.091 0.148-0.216 0.148-0.355s-0.057-0.264-0.148-0.355l-0-0-1.41-1.36c-0.091-0.091-0.216-0.148-0.355-0.148s-0.264 0.057-0.355 0.148l-0.39 0.39c-0.44 0.44-1.3 0.9-1.84 0.66l-0.39-0.16c-0.55-0.21-0.82-1.15-0.83-1.77v-0.55c0-0.276-0.224-0.5-0.5-0.5v0h-2c-0.276 0-0.5 0.224-0.5 0.5v0 0.55c0 0.62-0.28 1.56-0.83 1.77l-0.39 0.18c-0.54 0.24-1.4-0.22-1.84-0.66l-0.44-0.41c-0.091-0.091-0.216-0.148-0.355-0.148s-0.264 0.057-0.355 0.148l-0 0-1.36 1.41c-0.091 0.091-0.148 0.216-0.148 0.355s0.057 0.264 0.148 0.355l0.39 0.39c0.44 0.44 0.9 1.3 0.66 1.84q-0.090 0.19-0.16 0.39c-0.21 0.55-1.15 0.83-1.77 0.83h-0.55c-0.276 0-0.5 0.224-0.5 0.5v0 2c0 0.276 0.224 0.5 0.5 0.5v0h0.55c0.62 0 1.56 0.28 1.77 0.83 0 0.13 0.1 0.26 0.16 0.39 0.24 0.54-0.22 1.4-0.66 1.84l-0.39 0.44c-0.091 0.091-0.148 0.216-0.148 0.355s0.057 0.264 0.148 0.355l1.41 1.41c0.091 0.091 0.216 0.148 0.355 0.148s0.264-0.057 0.355-0.148l0.39-0.39c0.44-0.44 1.3-0.9 1.84-0.66l0.39 0.16c0.55 0.21 0.82 1.15 0.83 1.77v0.55c0 0.276 0.224 0.5 0.5 0.5v0h2c0.276 0 0.5-0.224 0.5-0.5v0-0.55c0-0.62 0.28-1.56 0.83-1.77l0.39-0.16c0.54-0.24 1.4 0.22 1.84 0.66l0.39 0.39c0.091 0.091 0.216 0.148 0.355 0.148s0.264-0.057 0.355-0.148l1.41-1.41c0.091-0.091 0.148-0.216 0.148-0.355s-0.057-0.264-0.148-0.355l-0.39-0.39c-0.44-0.44-0.9-1.3-0.66-1.84q0.090-0.19 0.16-0.39c0.21-0.55 1.15-0.82 1.77-0.83h0.55c0.001 0 0.002 0 0.003 0 0.276 0 0.5-0.224 0.5-0.5 0-0.018-0.001-0.035-0.003-0.052l0 0.002v-2c0-0.276-0.224-0.5-0.5-0.5v0zM12 16c-2.209 0-4-1.791-4-4s1.791-4 4-4c2.209 0 4 1.791 4 4v0c0 2.209-1.791 4-4 4v0z"></path>
</svg>
