<svg id="Layer_1" data-name="Layer 1" xmlns="http://www.w3.org/2000/svg" xmlns:xlink="http://www.w3.org/1999/xlink" width="48" height="48" viewBox="0 0 48 48"><defs><linearGradient id="linear-gradient" x1="23" y1="5" x2="23" y2="43" gradientUnits="userSpaceOnUse"><stop offset="0" stop-color="#00a551"/><stop offset="1" stop-color="#2d7026"/></linearGradient></defs><title>doc-xml</title><rect x="8" y="5" width="30" height="38" fill="url(#linear-gradient)"/><g opacity="0.5"><rect x="20" y="21" width="14" height="2" fill="#fff"/><rect x="20" y="25" width="14" height="2" fill="#fff"/><rect x="12" y="29" width="22" height="2" fill="#fff"/><rect x="12" y="33" width="16" height="2" fill="#fff"/><rect x="12" y="21" width="6" height="6" fill="#fff"/></g><path d="M15.08,12.48,16.44,10h1.69L16,13.47,18.25,17H16.5l-1.4-2.52L13.7,17H12l2.21-3.53L12.05,10h1.68Z" fill="#fff"/><path d="M20.91,10l1.85,5.16h0L24.65,10h1.9v7H25.1V14.91l.14-3.09h0L23.26,17h-1l-1.93-5.16h0l.14,3.07V17H19V10Z" fill="#fff"/><path d="M29.36,15.92h3.23V17H27.91V10h1.45Z" fill="#fff"/></svg>