<?xml version="1.0" encoding="UTF-8" standalone="no"?>
<!-- Created with Inkscape (http://www.inkscape.org/) -->
<svg
   xmlns:dc="http://purl.org/dc/elements/1.1/"
   xmlns:cc="http://web.resource.org/cc/"
   xmlns:rdf="http://www.w3.org/1999/02/22-rdf-syntax-ns#"
   xmlns:svg="http://www.w3.org/2000/svg"
   xmlns="http://www.w3.org/2000/svg"
   xmlns:sodipodi="http://sodipodi.sourceforge.net/DTD/sodipodi-0.dtd"
   xmlns:inkscape="http://www.inkscape.org/namespaces/inkscape"
   id="svg2"
   sodipodi:version="0.32"
   inkscape:version="0.44.1"
   width="326"
   height="218"
   version="1.0"
   sodipodi:docbase="C:\Documents and Settings\Brittany Boyer\My Documents\Pictures\Work\Wikipedia\Clean up\Convert to SVG\Flags"
   sodipodi:docname="Flag_of_Cairo.svg">
  <metadata
     id="metadata7">
    <rdf:RDF>
      <cc:Work
         rdf:about="">
        <dc:format>image/svg+xml</dc:format>
        <dc:type
           rdf:resource="http://purl.org/dc/dcmitype/StillImage" />
      </cc:Work>
    </rdf:RDF>
  </metadata>
  <defs
     id="defs5" />
  <sodipodi:namedview
     inkscape:window-height="964"
     inkscape:window-width="1280"
     inkscape:pageshadow="2"
     inkscape:pageopacity="0.0"
     guidetolerance="10.0"
     gridtolerance="10.0"
     objecttolerance="10.0"
     borderopacity="1.0"
     bordercolor="#666666"
     pagecolor="#ffffff"
     id="base"
     showguides="true"
     inkscape:guide-bbox="true"
     inkscape:zoom="1.4142136"
     inkscape:cx="201.37431"
     inkscape:cy="272.48314"
     inkscape:window-x="-4"
     inkscape:window-y="-4"
     inkscape:current-layer="svg2" />
  <rect
     style="opacity:1;fill:white;fill-opacity:1;fill-rule:nonzero;stroke:white;stroke-width:0.99776584;stroke-linecap:butt;stroke-linejoin:miter;stroke-miterlimit:4;stroke-dasharray:none;stroke-opacity:1"
     id="rect2774"
     width="325.0394"
     height="107.97076"
     x="0.5106017"
     y="0.52442783" />
  <rect
     style="opacity:1;fill:#5284c6;fill-opacity:1;fill-rule:nonzero;stroke:#5284c6;stroke-width:0.99778414;stroke-linecap:butt;stroke-linejoin:miter;stroke-miterlimit:4;stroke-dasharray:none;stroke-opacity:1"
     id="rect2772"
     width="324.97687"
     height="107.99548"
     x="0.51061082"
     y="109.49319" />
  <path
     sodipodi:type="arc"
     style="opacity:1;fill:white;fill-opacity:1;fill-rule:nonzero;stroke:#004284;stroke-width:15.17962551;stroke-linecap:round;stroke-linejoin:round;stroke-miterlimit:4;stroke-dasharray:none;stroke-opacity:1"
     id="path2776"
     sodipodi:cx="147.43176"
     sodipodi:cy="103.80225"
     sodipodi:rx="75.30687"
     sodipodi:ry="75.30687"
     d="M 222.73863 103.80225 A 75.30687 75.30687 0 1 1  72.124893,103.80225 A 75.30687 75.30687 0 1 1  222.73863 103.80225 z"
     transform="matrix(0.944002,0,0,0.946493,23.92262,10.65863)" />
  <rect
     style="opacity:1;fill:white;fill-opacity:1;fill-rule:nonzero;stroke:#942900;stroke-width:2.86947775;stroke-linecap:butt;stroke-linejoin:miter;stroke-miterlimit:4;stroke-dasharray:none;stroke-opacity:1"
     id="rect3663"
     width="71.392502"
     height="25.165396"
     x="126.82781"
     y="128.9393" />
  <path
     style="fill:#942900;fill-rule:evenodd;stroke:#942900;stroke-width:1.89999998;stroke-linecap:butt;stroke-linejoin:miter;stroke-miterlimit:4;stroke-dasharray:none;stroke-opacity:1;fill-opacity:1;opacity:1"
     d="M 146.53125,138.84375 L 153.84375,138.90625 L 153.75,130 L 150.6875,130 L 153.84375,138.1875"
     id="path8128"
     sodipodi:nodetypes="ccccc" />
  <path
     style="fill:none;fill-rule:evenodd;stroke:#942900;stroke-width:3.50228047;stroke-linecap:butt;stroke-linejoin:miter;stroke-miterlimit:4;stroke-dasharray:none;stroke-opacity:1;opacity:1"
     d="M 166.05626,128.91416 L 166.01876,153.02495"
     id="path4550"
     sodipodi:nodetypes="cc" />
  <path
     style="fill:none;fill-rule:evenodd;stroke:#942900;stroke-width:3.50858521px;stroke-linecap:butt;stroke-linejoin:miter;stroke-opacity:1;opacity:1"
     d="M 153.00626,143.03101 L 152.9942,152.96185"
     id="path5437" />
  <path
     style="fill:none;fill-rule:evenodd;stroke:#942900;stroke-width:3.49972916px;stroke-linecap:butt;stroke-linejoin:miter;stroke-opacity:1;opacity:1"
     d="M 160.03756,143.07077 L 160.01664,148.76783"
     id="path5439" />
  <path
     style="fill:none;fill-rule:evenodd;stroke:#942900;stroke-width:3.49939919px;stroke-linecap:butt;stroke-linejoin:miter;stroke-opacity:1;opacity:1"
     d="M 160.00098,134.0108 L 159.97972,139.6198"
     id="path5441" />
  <path
     style="fill:none;fill-rule:evenodd;stroke:#942900;stroke-width:3.47984982px;stroke-linecap:butt;stroke-linejoin:miter;stroke-opacity:1;opacity:1"
     d="M 178.83003,140.05563 L 178.78923,142.94414"
     id="path5443" />
  <path
     style="fill:none;fill-rule:evenodd;stroke:#942900;stroke-width:3.50228047;stroke-linecap:butt;stroke-linejoin:miter;stroke-miterlimit:4;stroke-dasharray:none;stroke-opacity:1;opacity:1"
     d="M 191.99824,129.04674 L 191.96074,153.15753"
     id="path5447"
     sodipodi:nodetypes="cc" />
  <path
     style="fill:none;fill-rule:evenodd;stroke:#942900;stroke-width:3.5;stroke-linecap:butt;stroke-linejoin:miter;stroke-opacity:1;stroke-miterlimit:4;stroke-dasharray:none;opacity:1"
     d="M 172.50091,129.50117 L 172.37937,146.94682 L 177.03081,146.97996"
     id="path5455"
     sodipodi:nodetypes="ccc" />
  <path
     style="fill:none;fill-rule:evenodd;stroke:#942900;stroke-width:3.5;stroke-linecap:butt;stroke-linejoin:miter;stroke-miterlimit:4;stroke-dasharray:none;stroke-opacity:1;opacity:1"
     d="M 185.06863,129.53431 L 185.11283,146.97996 L 180.4172,146.991"
     id="path6342"
     sodipodi:nodetypes="ccc" />
  <path
     style="fill:none;fill-rule:evenodd;stroke:#942900;stroke-width:3;stroke-linecap:butt;stroke-linejoin:miter;stroke-miterlimit:4;stroke-dasharray:none;stroke-opacity:1;opacity:1"
     d="M 173.83779,135.51157 L 183.95825,135.55577"
     id="path6344"
     sodipodi:nodetypes="cc" />
  <path
     style="fill:none;fill-rule:evenodd;stroke:#942900;stroke-width:3;stroke-linecap:butt;stroke-linejoin:miter;stroke-miterlimit:4;stroke-dasharray:none;stroke-opacity:1;opacity:1"
     d="M 178.45608,135.53367 L 178.52237,129.2581"
     id="path6346" />
  <path
     style="fill:none;fill-rule:evenodd;stroke:#942900;stroke-width:3;stroke-linecap:butt;stroke-linejoin:miter;stroke-opacity:1;stroke-miterlimit:4;stroke-dasharray:none;opacity:1"
     d="M 146.3711,135.51157 L 133.53269,135.51157 L 133.46641,147.48819 L 146.41529,147.53239 L 146.3711,135.51157 z "
     id="path7233"
     sodipodi:nodetypes="ccccc" />
  <rect
     style="opacity:1;fill:white;fill-opacity:1;fill-rule:nonzero;stroke:#942900;stroke-width:3;stroke-linecap:butt;stroke-linejoin:miter;stroke-miterlimit:4;stroke-dasharray:none;stroke-opacity:1"
     id="rect8124"
     width="0.37565047"
     height="0.044194173"
     x="139.74197"
     y="141.45569" />
  <path
     style="opacity:1;fill:none;fill-rule:evenodd;stroke:#942900;stroke-width:0.8027001;stroke-linecap:butt;stroke-linejoin:miter;stroke-miterlimit:4;stroke-dasharray:none;stroke-opacity:0.90131579"
     d="M 139.77561,67.101716 C 139.76918,66.635282 139.75641,66.62203 139.74992,65.235982 C 135.92664,62.747395 143.31572,62.416633 139.74992,65.235982"
     id="path9021"
     sodipodi:nodetypes="ccs" />
  <path
     style="fill:#942900;fill-rule:evenodd;stroke:#942900;stroke-width:1px;stroke-linecap:butt;stroke-linejoin:miter;stroke-opacity:1;fill-opacity:1;opacity:1"
     d="M 130.25,128.03125 C 130.41474,126.34011 131.71554,126.05108 133,125.375 C 133.45333,122.54375 133.90892,121.66217 136.0625,120.4375 C 136.04019,114.37035 136.10643,109.94636 136.125,104 C 133.13812,101.71182 132.10181,97.627152 132.5625,94.4375 C 133.87623,94.458992 135.2487,94.434249 136.8125,94.375 C 136.82102,89.956103 136.68671,86.839721 136.75,82.875 C 135.64586,81.480763 133.99394,79.023662 134.75,76.9375 C 135.75158,76.935916 137.26071,76.9375 138.5625,76.9375 C 138.51187,74.950896 138.64995,74.457825 138.375,72.8125 C 136.01305,70.578378 138.5971,68.120298 139.80428,67.404392 C 140.82911,68.077309 143.63192,70.04266 141.4375,72.8125 C 141.4915,74.483049 141.45246,75.33942 141.5,76.9375 C 142.34438,76.877528 143.73395,76.898224 144.8125,77 C 145.23516,79.004193 143.94315,81.344866 142.875,82.75 C 142.8748,86.505629 142.91945,89.129854 142.875,94.375 C 143.82253,94.225568 146.54079,94.367426 147.5,94.375 C 147.30496,97.191021 147.69547,100.61423 144.0625,104.0625 C 144.01822,108.83767 144.00876,113.62555 143.875,118.5 C 145.12698,116.29403 146.40138,114.98297 151.9375,112.125 C 159.33763,116.30753 161.59656,117.90935 160.65625,124.21875 C 161.49583,124.21875 164.26818,124.24745 165.15625,124.25 C 165.17996,120.70989 165.21439,116.99624 165.17187,113.46875 C 162.82598,113.4027 162.8332,110.0849 165.46875,110.15625 C 165.49915,107.83906 165.38254,105.91457 165.40625,103.6875 C 163.10084,101.48768 164.60365,99.072592 168.375,99.51562 C 168.38829,98.48437 168.45894,98.783801 168.53125,97.984375 C 164.80563,96.342335 167.36444,93.626686 168.46875,91.4375 C 169.59967,94.291457 171.92727,95.493462 168.54688,98 C 168.54688,98.597114 168.42926,99.092049 168.53125,99.5 C 171.54685,99.208669 170.95022,103.59409 169.48438,103.78125 C 169.47339,105.87666 169.47388,107.66309 169.48437,110.15625 C 172.06269,110.07665 172.40895,113.53831 169.5625,113.5 C 169.53661,117.15462 169.63819,119.67883 169.6875,124.21875 C 173.63779,124.03789 172.01529,126.29012 173,127.53125 C 173.625,127.59375 174.875,127.53125 175.5,127.53125 C 176.05123,126.94565 176.31144,125.50093 179.4375,125.5625 C 179.40711,123.87387 179.38564,121.61347 179.40625,119.96875 C 177.29645,118.96289 177.31298,117.54705 177.40625,115.125 C 178.25775,115.13462 178.8706,115.12982 180,115.125 C 179.94273,110.598 180.04868,106.97212 180.0625,103.4375 C 178.62348,102.62369 177.9987,101.45796 178.09375,99.390625 C 178.92164,99.390625 179.67363,99.399211 180.5,99.375 C 180.50142,94.801643 180.48023,90.32757 180.5,85.75 C 178.7698,85.190127 179.34897,82.726301 180.46875,82.5 C 185.69272,82.890625 181.96104,80.308544 184.35937,80.15625 C 184.3512,78.925961 184.31128,78.020484 184.3125,77.40625 C 182.95773,74.376176 183.79759,73.530978 184.52956,72.386322 C 185.28472,73.584426 185.82975,74.741834 184.39772,77.471756 C 184.36918,78.112999 184.40081,78.240807 184.45313,80.15625 C 186.61631,80.197824 184.09859,83.02388 187.51562,82.40625 C 187.67528,80.122314 187.68028,79.339329 187.6875,77.375 C 186.90728,74.959366 187.23055,74.533962 187.86665,73.421273 C 188.5628,74.558543 188.8222,75.060552 188,77.375 C 187.99274,78.934339 187.95707,79.086386 188.03125,81.0625 C 190.00969,81.754504 190.88169,84.903614 188.90625,86.03125 C 188.88581,90.052398 188.82685,95.328499 188.89717,99.360188 C 189.65505,99.389285 189.41708,99.393478 190.4375,99.40625 C 190.55241,101.46002 189.46896,102.7644 188.25,103.4375 C 188.27258,107.03112 188.26974,111.59688 188.21094,115.11719 C 189.63175,115.11719 189.01104,115.10666 190.34375,115.10938 C 190.49629,118.2203 190.31487,118.90193 188.1875,119.84375 C 188.1945,121.96796 188.1351,123.0094 188.21875,125.5625 C 191.35657,125.57556 192.22342,125.80258 192.8125,127.71875 C 174.90002,127.74154 150.14389,127.88648 130.25,128.03125 z "
     id="path9017"
     sodipodi:nodetypes="ccccccccccccccccccccccccccccccccccccccccccccccccccccccccccccccccc" />
</svg>
