<svg xmlns="http://www.w3.org/2000/svg" xmlns:xlink="http://www.w3.org/1999/xlink" width="900" height="600"><path d="M0 0h900v600H0z"/><path d="M0 0h900v400H0z" fill="#fff"/><path d="M0 0h900v200H0z" fill="#ce1126"/><g transform="translate(.005 .002)" fill="#fff" stroke="#c09300"><path d="M450.8 302.4l68.488 63.58-4.876-115.47c-.716-17.5-15.924-13.485-26.97-7.172-11.19 7.172-23.958 7.172-37.446 2.437-13.485 4.735-26.253 4.735-37.444-2.437-11.046-6.312-26.252-10.328-26.97 7.172l-4.88 115.47z" stroke-width="1.27" stroke-linejoin="round"/><path d="M393.47 246.5l-4.734 112.32-8.035 7.168 4.878-115.47c2.295-1.578 6.313-4.017 7.9-4.017zm9.63 8.03l-4.017 93.955-8.032 8.22 4.877-108.5c1.58 1.577 6.314 5.45 7.172 6.3zm8.74 7.17l-3.154 78.362-6.456 6.3 4.018-89.405c1.575 1.578 4.73 3.873 5.592 4.733zm9.46 4.02l-3.156 66.787-6.313 5.12 3.156-74.344c1.58.716 4.735 2.438 6.313 2.438zm8.76 0l-2.297 55.657-6.454 6.313 2.44-61.252c1.576-.001 5.594-.001 6.313-.718z" id="a" fill="#c09300" stroke="none"/><use xlink:href="#a" transform="matrix(-1 0 0 1 900 0)" width="100%" height="100%"/><path d="M453.16 315.06l9.613 43.755-3.158 3.155-3.3-2.44-5.452-39.018 2.296 39.018-3.157 4.016-3.156-4.016 2.296-39.018-5.45 39.018-3.302 2.44-3.154-3.155 9.61-43.755z" fill="#c09300" stroke-width="1.074"/><g id="b" fill="none" stroke-width="1.271" stroke-linejoin="round"><path d="M428.48 295.84l-19.08 67.705 26.255 4.018 11.188-50.924-18.363-20.8z" fill="#fff" stroke-width="1.189"/><path d="M422.17 318.94l2.296 5.593 12.405-11.848"/><path d="M430.76 304.92l2.596 24.346 7.9-10.328M438.1 322.95l4.3 14.875M444.1 332.36l-8.718 13.24m2.72 13.216l-2.8-13.198-2.436-13.423-5.84 7.9-2.56-9.12-8.175 8.385 4.158 15.25 5.738-9.435 3.156 9.612 5.9-9.162M415 361.97l5.3-7.444 3.453 11.457 4.734-8.032 3.158 9.614"/></g><use xlink:href="#b" transform="matrix(-1 0 0 1 900 0)" width="100%" height="100%"/><g stroke-width="1.271" stroke-linejoin="round"><path d="M450 393.8c19.943 0 39.024-1.578 50.213-4.734 4.735-.86 4.735-3.298 4.735-6.455 4.735-1.578 2.295-7.17 5.594-7.17-3.3.862-4.016-5.594-8.033-4.732 0-5.596-5.595-6.313-10.33-4.738-9.47 3.158-26.255 3.875-42.18 3.875-15.924-.718-32.567-.718-42.18-3.875-4.734-1.575-10.327-.86-10.327 4.738-4.018-.862-4.735 5.594-8.034 4.732 3.3 0 .86 5.593 5.594 7.17 0 3.158 0 5.596 4.878 6.455 11.045 3.156 30.128 4.734 50.068 4.734z" stroke-width="2.378"/><path d="M422.9 363.54c6.454.86 13.628 1.578 19.225.86 3.153 0 5.45 5.45-.863 6.313-5.593.715-14.345 0-19.08-.862-4.017-.718-12.768-2.295-18.364-3.875-5.595-2.436-1.576-7.168 1.577-6.452 4.88 1.577 11.192 3.156 17.505 4.016zm54.22 0c-6.457.86-13.628 1.578-19.08.86-3.3 0-5.596 5.45.717 6.313 5.596.715 14.347 0 19.078-.862 4.02-.718 12.77-2.295 18.364-3.875 5.597-2.436 1.58-7.168-1.577-6.452-4.878 1.577-11.2 3.156-17.5 4.016z"/><path d="M403.1 360.4c-4.877-.86-7.172 4.732-5.593 7.887.716-1.578 4.016-1.578 4.735-3.155.858-2.437-.718-2.437.858-4.732zm19.07 14.66c0-3.153 3.154-2.765 3.154-5.92 0-1.577-.86-4.017-2.437-4.017s-3.157 1.578-3.157 3.155c-.718 3.157 2.44 3.63 2.44 6.783zm22.7-9.08c4.73 0 4.262 6.314 1.966 9.47 0-2.295-4.016-3.156-4.016-4.732 0-2.442 3.626-2.442 2.05-4.738zm52.02-5.58c4.878-.86 7.174 4.732 5.595 7.887-.718-1.578-4.017-1.578-4.734-3.155-.86-2.437.718-2.437-.86-4.732zm-19.06 14.66c0-3.153-3.153-2.765-3.153-5.92 0-1.577.86-4.017 2.438-4.017 1.578 0 3.156 1.578 3.156 3.155.718 3.157-2.44 3.63-2.44 6.783zm-22.7-9.08c-4.732 0-4.263 6.314-1.967 9.47 0-2.295 4.016-3.156 4.016-4.732.001-2.442-3.626-2.442-2.048-4.738z"/><path d="M404.67 361.97c1.58 0 4.018.718 4.735 1.577l-4.74-1.58zm7.88 2.43c.862 0 4.018.716 5.596 1.575l-5.6-1.58zm28.7 3.16c-1.578 0-4.734 0-5.593.715l5.6-.72zm-8.75 0c-.86-.862-4.017-.862-5.594 0h5.6zm62.84-5.6c-1.578 0-3.875.718-4.735 1.577zm-7.9 2.43c-.86 0-4.017.716-5.595 1.575l5.6-1.58zm-28.7 3.16c1.58 0 4.735 0 5.595.715l-5.6-.72zm8.75 0c.86-.862 4.018-.862 5.595 0h-5.6z" stroke-width=".892"/><path d="M403.34 374.58c-.534-.102-.815-.525-.68-1.025.164-.6.652-.957 1.113-.794.293.104.83.645.832.84.003.223-.28.753-.403.754-.053.001-.134.046-.18.102-.1.118-.413.175-.68.124zm54.93 3.92c-.2-.074-.515-.52-.515-.724.002-.387.574-1.018.93-1.02.175-.001.655.248.834.435.325.338.254.893-.154 1.208-.2.155-.8.2-1.094.103zm.36 2.48c-.42-.142-.574-.348-.608-.814-.036-.485.012-.56.525-.84l.366-.2.346.155c.48.214.693.445.7.767.018.348-.24.703-.64.883-.352.158-.373.16-.7.05zm-50.88-10.88c-.346-.01-.82.307-1.094.47-.65.152-1.405.55-2.03.125-.617-.2-1.438-.04-1.53.72.158.652 1.072 1.024 1.625.594.4-.538 1.53-.853 1.656.063-.457.692-.405 1.6-.78 2.344-.06.458-.252.892-.5 1.28-.462.046-.954-.008-1.344.28-.626.034-1.265.345-1.625.875-.403.578-.8 1.165-.906 1.875.107.725.938.933 1.563.97l2 .625 3.188.875c1.584.478 3.248.697 4.844 1.125.167.056.324.104.5.125.662.138 1.008-.583 1.063-1.125l.906-3.5c.225-.466.496-1.517-.406-1.28-.515.3-.952.773-1.594.813-.874.05-.375.945-.03 1.313a2.38 2.38 0 0 1-.5 1.75c-.52.33-1.172-.056-1.72-.187-.575.01-1.723-.283-1.187-1.062.2-.577.207-1.208.438-1.78.294-.615.336-1.285.47-1.937-.36-.777-.98.256-1.47.344-.338.235-1.605.334-.937.938.575.437.134 1.197.03 1.75-.037.77-.838.954-1.47.78-.628-.03-1.5-.497-.97-1.187l.438-1.72.688-2.062c.1-.62.33-1.208.625-1.75.017-.685.478-1.275.47-1.97-.047-.34-.2-.462-.406-.47zm-3.594 7.25a.367.367 0 0 1 .22.03c.25.106.257.3 0 .53-.112.097-.24.2-.28.188-.468-.04-.606-.1-.625-.28-.017-.15.03-.195.344-.344.156-.074.262-.1.344-.125zm-1.036 5c-.496-.466-.416-.806.317-1.353.314-.234.504-.207.863.12.552.504.574.823.087 1.255-.24.213-.346.257-.627.26-.293.003-.377-.033-.64-.282zm3.05.92a.86.86 0 0 1-.623-1.088c.13-.435.203-.477.84-.484.715-.007.854.112.86.742.004.354-.024.437-.2.6a1.08 1.08 0 0 1-.878.23zm89.1.08c-.227-.2-.273-.274-.275-.515-.003-.4.233-.712.746-.944.682-.3.96-.266 1.217.186.342.6.325.847-.084 1.252-.226.224-.268.237-.785.242-.508.003-.566-.01-.82-.22zm-85.06 1.14c-.364-.097-.553-.37-.557-.807-.004-.334.02-.387.254-.57a1.34 1.34 0 0 1 .579-.245.64.64 0 0 1 .579.138c.55.387.667.77.35 1.14-.34.396-.66.488-1.203.343zm21.93 1c-.08-.1-.26-.16-.277-.287.032-.555.058-1.117.235-1.648.096-.523.012-1.07.194-1.58.187-.927.187-1.883.402-2.804.01-.474.055-.95.192-1.405.158-.722.014-1.476.226-2.2-.023-.268.286-.983.557-.56.393.576.9 1.045 1.42 1.515.438.253.036.624-.267.75-.415.164-.516.62-.487 1.022-.058.415-.225.807-.242 1.23-.088.622-.07 1.255-.152 1.877-.182.6-.112 1.26-.173 1.887.008.4-.18.76-.155 1.16-.048.406-.067.894-.407 1.172-.33.166-.804.137-1.068-.142zm29.7-9.8c-.482.365-.914.795-1.344 1.22-.593.45.487.7.625 1.094.157.586.148 1.2.188 1.813a4.59 4.59 0 0 1 .22 1.72c-.052.622-.863.5-1.22.844-.492.207-.688.7-1.062 1.03-.246.483-.312 1.076-.344 1.625.035.448-.302.95 0 1.344l.125.188c.1.145.342.03.5.063.504-.028 1.03.047 1.5-.156 1.2-.2 2.43-.226 3.656-.28.75.024 1.47-.237 2.22-.22.587.13.85-.506.844-.97-.332-.654-.045-1.43-.312-2.094-.235-.672-.142-1.428-.25-2.125-.015-.548-.7-.752-1.062-.344-.34.345-.893.414-1.156.844-.297.602.627.603.78 1.063.176.464.118.98.156 1.47.114.592-.53.626-.937.688-.537.2-1.3.336-1.594-.312-.2-.48-.165-.993-.22-1.5-.013-.892-.228-1.768-.28-2.656l-.312-3.28c-.01-.455-.07-1.198-.72-1.062zm-.625 8.25l.313.03.062.75-.406.125a3.28 3.28 0 0 1-.406.094 2.55 2.55 0 0 1-.187-.125c-.22-.16-.163-.385.125-.687a.49.49 0 0 1 .5-.187zm-29.965-9.3c-.38.135-.862.693-1.25.688-.88.062-.757.92-.125 1.22.083.26.005.588.03.875.123.8-.375 1.425-.28 2.22-.044.87-.307 1.718-.344 2.594-.247.903-.25 1.832-.406 2.75-.104.823-.7.533-1.22.313l-.03-1.062c.216-.817-.44-1.056-1.094-1.156-.686.065-1.023-.523-.875-1.125.295-.35 1.036-.253 1.5-.312.98.203.942-1.112.438-1.562-.345-.636-1.198-.9-1.437-1.562.096-.866-.48-1.732-1.187-2.156-1.1-.076-1.9.863-2.312 1.78l-1.344.438c-.7.177-1.72 1.407-.75 1.875.544.15 2.2.528 1.47 1.28-.412.707-1.2.72-1.906.53-.724.001-1.53-.352-1.5-1.187-.148-.75-.123-1.558-.47-2.25-.148-.84-1.1-.643-1.156.125-.733.534-.636 1.398-.125 2.03.32.73.003 1.578-.312 2.25-.2.875-1.156.905-1.844 1.188-.338.13-1.63-.078-1.156.656.753.266 1.652.505 2.438.313.823-.102 1.538-.665 1.938-1.375.553-.56 1.502-.267 2.22-.28.773-.002 1.563.542 2.313.188.217-.564 1.222-1.496 1.53-.53-.053.863.7 1.326 1.5 1.22.864-.05.544.6.53 1.125.057.934.66 1.425 1.438 1.813.265.072.545.047.813 0 .748-.235 1.554-.57 1.78-1.406.304-.68.3-1.45.53-2.156.177-1.13.406-2.26.438-3.406.276-1.038.197-2.136.406-3.187l.313-2.344c-.092-.417-.272-.487-.5-.406zm-6.78 4.156c.15.02.236.204.25.53.016.364.206.66.438.72.182.046.167.24-.03.375-.115.08-.32.127-.687.125-.578-.003-.936-.153-1.25-.47l-.2-.196.28-.187a6.43 6.43 0 0 0 .563-.5c.285-.3.474-.425.625-.406zm66.03-7.876a8.37 8.37 0 0 0-1.656.25c-1.04-.065-1.562 1.027-.562 1.563.602 1.534 1.54-.317 2.5-.187 1.438.28 1.56 1.832 1.78 3 .08 1.157.414 2.282.75 3.375.962 1.07-.72 1.74-1.437.906-.6-.664-1.92-1.48-2.656-.562-.904.383-.94 1.6-1.687 1.938-1.2.368-1.36-1.12-2-1.75-.587-.824-1.7-.896-2.625-1.187-.43-.87-.205-2.346-1.094-2.937-.746.304-2.113 1.702-.97 2.344 1.118.96-.488 1.4-1 2.063-.732.815-.848 1.936-.97 2.97-1.26.696-1.504-.788-1.656-1.72-.098-1.1-1.036-.785-1.687-.375-.952.386-1.428 1.3-2.094 2-.08.648.037 1.357.03 2.03.216.8 1.202.43 1.813.375.98-.4 1.38.627.594 1.22-.532.676-2.22.323-2.062 1.406.544.064 1.1.043 1.656 0 1.1-.298 2.26-1.067 2.375-2.28.144-1.058 1.668-.865 2.5-1.094 1.04-.3 2.295-.377 2.53.938.7.745 2.25 1.584 3.03.563.795-.485 1.176-1.338 1.125-2.25-.162-.785 1.27-.813 1.625-.375.52.858 2.15.605 2.938.125.836-.617 1.018-1.705 2.22-1.72l5.375-1.5c1.4-.307-.2-1.198-.562-1.72-1.074-.53-2.008 1.642-3.22.563-.936-.716-.872-2.077-1.22-3.125-.237-1.357-.177-2.923-1.156-4-.672-.715-1.586-.887-2.53-.844zm-6.812 9.47c.126-.003.268.06.5.188.438.242.75.643.75.97 0 .213-.055.227-.375.375-.197.1-.42.2-.5.188-.18-.002-.624-.357-.625-.5a2.367 2.367 0 0 0-.125-.47c-.118-.32-.1-.316.063-.53.103-.137.187-.215.313-.22zm6.53.344c.372-.024.594.092.75.375.182.33.058.58-.406.78-.203.088-.407.16-.437.156-.03-.004-.198-.103-.375-.22-.27-.178-.3-.264-.312-.47-.003-.315.35-.597.78-.625zm-8.937.094c.1-.017.208.04.344.156.18.155.237.28.28.594a2.23 2.23 0 0 1 0 .625c-.05.226-.053.216-.562.22-.64.006-.7-.064-.687-.656.008-.377.012-.478.22-.687.16-.162.297-.233.406-.25zm-5.5 1.438a.57.57 0 0 1 .438.438c.066.317.008.462-.25.594-.222.113-.734.15-.875.063a.62.62 0 0 1-.187-.187c-.068-.12-.055-.18.03-.25.06-.05.125-.12.125-.156 0-.036.067-.163.156-.28a.546.546 0 0 1 .563-.22zm9.25 1.188a.65.65 0 0 1 .438.156c.185.162.18.4-.03.563-.135.104-.872.095-1.125 0a.2.2 0 0 1-.156-.219c-.002-.14.038-.228.28-.344.204-.098.416-.155.594-.156zm-17.17 4.836c-.096-.062-.238-.117-.095-.222.173-.302.518-.407.824-.52a3.439 3.439 0 0 0 1.374-1.118c.05-.333.424-.514.422-.862.003-.475.03-.962-.085-1.426-.128-.426-.45-.752-.826-.974-.257-.2-.674-.257-.77-.614-.053-.343.253-.604.36-.9l.65-1.275c.26-.288.66-.016.793.262a3.23 3.23 0 0 1 .451.897c.302.332.57.72.68 1.162.148.3.383.602.37.966 0 .416.235.787.22 1.206.013.56.013 1.145-.192 1.674-.14.293-.42.47-.606.733-.32.296-.67.58-1.08.736-.3.092-.457.426-.82.345-.515.01-1.037.08-1.547-.004.032.054-.156-.1-.125-.057zm-6.86.44c-.243-.25-.295-.355-.298-.6-.003-.245.045-.346.282-.586.438-.443.652-.453 1.4-.07.723.366.968.4 1.032.14.063-.25.48-.48.874-.48a.82.82 0 0 1 .592.204c.25.196.263.226.27.68.004.463-.002.48-.3.736-.277.244-.322.26-.665.225-.437-.044-.7-.244-.77-.588-.052-.25-.14-.3-.205-.14-.02.055-.13.122-.24.15-.204.05-.55.27-.794.5-.093.087-.255.13-.52.13-.356.003-.405-.018-.678-.3zm-19.8-8.9c-.665.007-1.38.566-1.47 1.22.152.752.777 1.5.375 2.28.278 1.013-.76 1.397-1.47.813-.427-.97-.643-2.036-1.28-2.906-.804-.228-1.154 1.057-1.72 1.5.28.755 1.096 1.432 1.188 2.375.195.915-.36 1.93-1.156 2.406-.686.655-1.625.42-2.47.563-1.024.6.752.818 1.22.844 1.048.106 2.135-.032 2.906-.812.77-.367.7-1.697 1.625-1.844 1.588-.07 3.163.244 4.75.28.85.203 2.163-.1 2.75.53.002 1.108.94 1.8 1.844 2.22.5.14 1.024-.48 1.53-.594.965-.308.672-1.502 1.25-1.97l4.97-.094c.315.008.407-.44.625-.625l-.156-1.906c-.318-.807.05-1.845-.53-2.53-.83-.226-1.536.534-2.375.594-.926.412-1.707 1.268-1.75 2.313-.548.897-1.428-.16-1.125-.906-.035-.325.07-.704-.03-1-.507-.608-1.395-.4-2.094-.5-1.018.04-2.013-.18-3.03-.156-.893-.067-1.822.078-2.687-.156-1.032-.03-.9-1.038-1.062-1.75a.95.95 0 0 0-.625-.187zm2 3.688c.343.007.667.052 1 .094.43.07.9-.148 1.313 0 .977.166 1.954.127 2.938.22.26-.004.446.185.625.344v2.063c-.03.258.076.598-.156.78a.7.7 0 0 1-.25.125c-.27-.07-.557-.248-.687-.5-.04-.357.018-.704.03-1.062-.007-.093.04-.237 0-.312a1.247 1.247 0 0 0-.72-.25l-2.53-.125c-.707-.045-1.433.06-2.125-.125-.268-.098-.618-.064-.78-.344-.234-.272.104-.597.344-.72a2.28 2.28 0 0 1 1-.187zm11.28.25c.16-.002.2.05.28.344l.125.5c.036.118-.022.156-.187.22-.494.186-.986.168-1.156-.062-.077-.105.013-.435.156-.562.3-.26.6-.437.78-.437z" fill="#c09300" stroke="none"/></g><path d="M449.98 327.23c32.642-25.106 29.843-61.883 29.843-61.883a12.72 12.72 0 0 1-2.541.258c-6.847 0-23.178-3.917-26.988-8.893-4.08 4.503-20.77 8.893-27.574 8.893-.86 0-1.722-.086-2.54-.258 0 0-2.842 36.776 29.8 61.883z" stroke-width="1.15"/><path d="M477.22 268.04l-.848.026c-6.205 0-20.62-3.184-26.175-7.957-5.82 4.4-20.47 7.957-26.576 7.957a4.7 4.7 0 0 1-.85-.087c-.014 1.39.058 2.832.144 4.144.323 4.9 1.183 9.82 2.488 14.552 4.108 14.895 12.516 27.553 24.572 37.155 12.066-9.6 20.484-22.28 24.6-37.186 1.307-4.732 2.17-9.65 2.495-14.55.085-1.284.157-2.692.147-4.054z" stroke-width=".916"/><path d="M439.38 265.03c-5.872 1.845-12.23 3.03-15.75 3.03-.286 0-.563-.042-.844-.094-.014 1.4.07 2.845.156 4.156a72.77 72.77 0 0 0 2.47 14.53c2.765 10.025 7.506 19.032 13.97 26.78V265.03zm20.62-.1v49.25c6.794-7.92 11.733-17.206 14.594-27.562a73.01 73.01 0 0 0 2.47-14.53c.085-1.284.166-2.7.156-4.062a13.07 13.07 0 0 1-.844.03c-3.73 0-10.42-1.17-16.375-3.125z" fill="#c09300" stroke="none"/><g stroke-width="1.27"><path d="M462.3 253.1c.667.04-.902-3.568-.902-3.568 1.764 1.804 8.43 2.235 8.43 2.235-4-1.766-7.998-15.096-7.528-25.72.432-10.664-1.528-14.86-3.097-16.428-2-2-8.43-3.764-12.664-4-2.392-.118-2 1.804-2 1.804-4.43-1.137-8.86-1.568-10.86-.235-1.882 1.255-2.274 7.528-.902 6.43 3.333-2.666 6.234-.235 8.233 2.666 1.764 2.548 1.647 9.763-.902 18.192-2.666 8.86-9.96 17.722-9.96 17.722 3.96 0 9.528-3.53 9.528-3.53l-1.333 5.528c4.195-2 7.528-5.097 7.528-5.097l4 4.195c1.333-1.764 4-4.195 4-4.195s3.333 3.53 8.43 4z" stroke-width="1.218"/><path d="M446.12 227.57s-2.235 16.428-6.43 21.094m9.96-21.524s-.863 16.623-3.764 21.956m6.894-21.296s0 18.192 1.098 21.3m2.862-20.4s.902 15.3 4.666 20.82" fill="none"/><path d="M442.08 219.6c-.196-1.45-.55-2.588-1.06-3.333-2-2.9-4.9-5.332-8.234-2.666 0 0 1.137-3.53 3.568-3.646 1.882-.118 6.156 1.4 9.92 7.84 0 0-2.784-.627-3.45-.04-1.255 1.098-.745 1.843-.745 1.843zm-9.64-10.34c.274-.902.706-1.725 1.255-2.078 2-1.333 6.43-.902 10.86.235 0 0-.392-1.92 2-1.804 4.234.235 10.665 2 12.664 4 .47.5 1.02 1.255 1.5 2.392h-.078c-.98-1.372-3.764-1.294-4.43-1.215-1.06.118-1.725.078-3.136.43-.667.157-1.686.353-2.235.784-.43.353-.784 1.647-1.45 1.647-1.06 0-.98-.274-1.255-.588-.353-.43-.55-1.06-.902-1.02-1.098.196-2.862-.666-5.097-2.43-2.235-1.764-3.097-2.196-5.998-2-2.862.235-3.764 1.843-3.764 1.843l.078-.196z" fill="#c09300" stroke-width=".354"/><circle cx="448.824" cy="210.672" r="1.176" stroke="none"/></g></g></svg>