<svg xmlns="http://www.w3.org/2000/svg" height="400" width="600" version="1.0">
 <rect height="400" width="600" y="0" x="0" fill="#ffffff"/>
 <circle cy="200" cx="300" r="120" fill="#be0529"/>
 <circle cy="200" cx="300" r="100" fill="#ffffff"/>
 <path fill="#be0529" d="m229 251.2c-4-1.6-6.7-3.6-6.1-4.5 11.9-1.7 14.84-4.2 20.9-13 12.6-18.3 16.4-44 16.4-65.3-0-14.7-1.9-17.15 12.9-12.3 9.6 3.2 17.6 10 17.6 15 0 0.8-1.2 2.6-2.9 4.2-2.7 2.5-3 3.2-3.7 7.4-5.9 23.5-13.4 53.2-35.5 66.5-5.9 3.1-13.1 4-19.4 1.7zm95.3-19.7c-9-28.76-7-59.7-14.15-88.7-2.74-9.6-8.4-17.4-14.74-20.2-3.4-1.6-11.23-2-16.7-1-7.3 1.4-1.9-5.3 8.4-10.4 9.8-4.8 24.4-3.1 33 3 8.8 6.4 12 12 14.7 25.5 7.3 36.9 14.6 59.4 22.7 70.1 7.3 10 18.3 13.4 26.6 9 3.7-2 5-1.7 5 1 0 3-3.1 13-5.7 18.3-7.5 14.7-16.7 24.4-31.8 22.8-15.6-1.8-24.2-20-27.3-29.3z"/>
</svg>
