<?xml version="1.0" encoding="UTF-8" standalone="no"?>
<!-- Created with Inkscape (http://www.inkscape.org/) -->
<svg
   xmlns:svg="http://www.w3.org/2000/svg"
   xmlns="http://www.w3.org/2000/svg"
   version="1.0"
   width="600"
   height="400"
   id="svg3181">
  <defs
     id="defs3183" />
  <g
     transform="translate(-17.142853,-289.50504)"
     id="layer1">
    <g
       transform="matrix(3.543307,0,0,3.543307,149.80166,424.39686)"
       style="fill-rule:evenodd"
       id="g3158">
      <rect
         width="67.7416"
         height="36.8008"
         x="0"
         y="0"
         transform="matrix(2.4985441,1.7253486e-3,-2.1185433e-3,3.0643903,-37.3613,-38.069469)"
         style="fill:#ffffff;stroke:none;stroke-width:0.0762"
         id="_134225224" />
      <path
         d="M 0.5155,82.2721 C 1.6128,80.8713 2.4947,79.3741 4.1795,78.1333 C 6.7704,76.2251 9.4766,76.3823 11.8718,74.472 C 14.1171,72.8184 15.0416,70.095 17.6501,68.2123 C 20.1636,66.3979 22.7836,66.4355 25.3427,64.5508 C 27.5801,62.903 28.4933,60.2406 31.0947,58.3104 C 33.7093,56.3991 36.5228,56.3167 38.7604,54.6687 C 41.3191,52.7843 42.0599,50.2713 44.5386,48.409 C 47.1106,46.4763 49.9856,46.4014 52.2311,44.7476 C 54.7656,43.0271 55.4191,40.3956 58.0098,38.4875 C 60.6002,36.5797 63.2059,36.6647 65.7018,34.8265 C 68.1664,33.0114 69.2766,30.2709 71.4458,28.5188 C 73.6169,26.7657 77.0599,26.2824 79.173,24.905 C 81.2861,23.5278 82.6687,20.2897 84.9035,18.6439 C 84.9633,18.5998 85.024,18.5573 85.0844,18.5152 C 85.1429,18.4696 85.2016,18.4243 85.261,18.3806 C 87.496,16.7345 90.9985,16.3746 92.9407,14.7652 C 94.8829,13.1557 96.3655,10.0114 98.6841,8.458 C 101.001,6.906 103.9472,6.6589 106.4118,4.8438 C 108.1518,3.5623 109.0152,1.9527 110.2562,0.4487 L 122.7534,0.4574 L 122.7483,7.8213 C 121.8615,8.1483 121.0098,8.527 120.2189,9.1095 C 120.1873,9.1328 120.1558,9.1563 120.1245,9.1803 C 120.1244,9.1804 120.1244,9.1804 120.1244,9.1804 C 120.1244,9.1804 120.1243,9.1805 120.1243,9.1805 C 120.0919,9.2034 120.0603,9.2267 120.0284,9.2501 C 117.7173,10.9523 116.9149,13.6675 114.1806,15.6472 C 111.8199,17.5549 108.8065,17.4807 106.6255,19.087 C 104.3766,20.7433 103.393,23.6942 100.8921,25.4341 C 98.4208,27.3562 95.3611,27.3832 93.1614,29.0033 C 93.085,29.0595 93.0101,29.1173 92.9362,29.1763 C 92.8577,29.2296 92.7811,29.2834 92.7047,29.3396 C 90.5048,30.9598 89.571,33.874 87.0025,35.6637 C 84.599,37.5359 81.4892,37.5998 79.2405,39.2559 C 77.0595,40.8623 76.2366,43.7619 73.7138,45.4508 C 71.0124,47.4745 68.1814,47.4352 65.87,49.1375 C 63.6301,50.7872 62.301,53.8562 60.0611,55.506 C 57.8263,57.1518 54.564,57.4643 52.329,59.1105 C 50.0938,60.7566 48.8858,63.7365 46.651,65.3824 C 44.396,67.0432 41.168,67.2628 38.9129,68.9237 C 38.9123,68.9242 38.9121,68.9242 38.9119,68.9244 L 38.9119,68.9244 C 38.9114,68.9248 38.9112,68.925 38.9105,68.9254 C 36.6553,70.5864 35.489,73.6031 33.2333,75.2645 C 30.9986,76.9103 27.7948,77.1797 25.5592,78.8262 C 24.3446,79.7208 23.4159,81.0216 22.4627,82.2873 L 0.5155,82.2721 L 0.5155,82.2721 z "
         transform="matrix(1.3852769,0,0,1.3794089,-38.153374,-38.68841)"
         style="fill:#18537e"
         id="_134223552" />
      <path
         d="M 82.8579,0.4299 L 82.8581,0.4298 L 107.1852,0.4466 C 106.5273,1.294 105.7794,2.1295 104.7656,2.8636 C 102.4047,4.7712 99.3909,4.6964 97.2099,6.3028 C 94.9611,7.959 93.9778,10.9102 91.4771,12.6505 C 89.0056,14.5723 85.9455,14.5989 83.7457,16.219 C 83.6695,16.2752 83.5947,16.3333 83.5209,16.3924 C 83.4423,16.4456 83.3655,16.4991 83.2892,16.5553 C 81.0892,18.1755 80.1558,21.0901 77.5874,22.8802 C 75.1838,24.752 72.0737,24.8155 69.8249,26.4716 C 67.6439,28.078 66.8214,30.9781 64.2988,32.6672 C 61.5972,34.6907 58.7658,34.6507 56.4543,36.3531 C 54.2144,38.0028 52.8861,41.0726 50.646,42.7225 C 48.4114,44.3682 45.1483,44.6799 42.9133,46.326 C 40.6782,47.9721 39.4708,50.9529 37.236,52.5989 C 34.9809,54.2597 31.7524,54.4784 29.4973,56.1393 C 29.4967,56.1397 29.4966,56.1398 29.4963,56.14 L 29.4963,56.14 C 29.4958,56.1404 29.4955,56.1406 29.4949,56.141 C 27.2397,57.802 26.074,60.8196 23.8183,62.4809 C 21.5835,64.1268 18.3791,64.3953 16.1435,66.0418 C 13.9084,67.688 12.6428,70.7116 10.4082,72.3574 C 8.168,74.0073 4.8422,74.3651 2.6022,76.0149 C 1.4532,76.8612 0.6771,77.9583 -0.1491,79.091 L -0.1406,66.7093 L -0.1407,66.7094 L -0.0948,0.3726 L 82.8579,0.4299 L 82.8579,0.4299 z "
         transform="matrix(1.384033,0,0,1.384033,-37.232905,-38.58516)"
         style="fill:#2b5a51"
         id="_133396376" />
    </g>
  </g>
</svg>
