<?xml version="1.0" encoding="UTF-8"?>
<svg xmlns="http://www.w3.org/2000/svg" width="1500" height="1000">
<rect fill="#4b0082" height="1000" width="1500"/>
  <path
     d="m 750,166.66667 -27.77775,27.77777 0,141.21527 c -40.2658,6.76526 -75.65058,27.97546 -100.625,58.125 l -122.32642,-70.625 -37.95141,10.17363 10.17363,37.93402 122.2743,70.60762 c -6.74233,18.09978 -10.43403,37.68533 -10.43403,58.125 0,20.43965 3.6917,40.02525 10.43403,58.12503 l -122.2743,70.59027 -10.17363,37.95138 37.95141,10.15625 122.32642,-70.60763 c 24.97442,30.14948 60.3592,51.35973 100.625,58.125 l 0,141.21529 27.77775,27.7778 27.77781,-27.7778 0,-141.21529 c 40.26578,-6.76527 75.65048,-27.97552 100.625,-58.125 l 122.32638,70.60763 37.9514,-10.15625 -10.1736,-37.95138 -122.27433,-70.59027 c 6.7423,-18.09978 10.43401,-37.68535 10.43401,-58.125 0,-20.43968 -3.69171,-40.02522 -10.43403,-58.125 l 122.27435,-70.60764 10.1736,-37.93401 -37.9514,-10.17362 -122.3264,70.625 c -24.9745,-30.14957 -60.35923,-51.35973 -100.625,-58.125 l 0,-141.2153 -27.77779,-27.77777 z"
     id="path2820"
     style="fill:#ffffff" />
<circle fill="#4b0082" cx="750" cy="500" r="111.1111"/>
<circle fill="#fff" cx="750" cy="500" r="55.55555"/>
</svg>
