<svg id="Layer_1" data-name="Layer 1" xmlns="http://www.w3.org/2000/svg" xmlns:xlink="http://www.w3.org/1999/xlink" width="48" height="48" viewBox="0 0 48 48"><defs><linearGradient id="linear-gradient" x1="24.23" y1="20" x2="24.23" y2="43" gradientUnits="userSpaceOnUse"><stop offset="0" stop-color="#efaf1d"/><stop offset="1" stop-color="#ef871d"/></linearGradient></defs><title>folder</title><path d="M47.9,21.56A1.08,1.08,0,0,0,46.84,20H9.68a2.47,2.47,0,0,0-2.2,1.56L.57,41.44A1.07,1.07,0,0,0,1.63,43H38.79A2.47,2.47,0,0,0,41,41.44Z" fill="url(#linear-gradient)"/><path d="M3,27V10H13v3c0,.81.18,2,1,2H38v4h3V13c0-.89-.1-1-1-1H17s-1-.11-1-1V8c0-.89-.1-1-1-1H1.64A1.64,1.64,0,0,0,0,8.62v27.1Z" fill="#ffda7a"/></svg>