<svg version="1.1" xmlns="http://www.w3.org/2000/svg" width="24" height="24" viewBox="0 0 24 24">
<title>accountbox</title>
<path d="M19 5v14h-14v-14h14zM19 3h-14c-1.11 0-2 0.9-2 2v14c0 1.1 0.89 2 2 2h14c1.1 0 2-0.9 2-2v-14c0-1.1-0.9-2-2-2zM12 12c-1.65 0-3-1.35-3-3s1.35-3 3-3c1.65 0 3 1.35 3 3s-1.35 3-3 3zM12 8c-0.55 0-1 0.45-1 1s0.45 1 1 1c0.55 0 1-0.45 1-1s-0.45-1-1-1zM18 18h-12v-1.53c0-2.5 3.97-3.58 6-3.58s6 1.080 6 3.58v1.53zM8.31 16h7.38c-0.69-0.56-2.38-1.12-3.69-1.12s-3.010 0.56-3.69 1.12z"></path>
</svg>
