<!-- Generated by IcoMoon.io -->
<svg version="1.1" xmlns="http://www.w3.org/2000/svg" width="24" height="24" viewBox="0 0 24 24">
<path d="M11 17h2v-4h4v-2h-4v-4h-2v4h-4v2h4v4zM12 22c-1.383 0-2.683-0.263-3.9-0.788s-2.275-1.237-3.175-2.138c-0.9-0.9-1.612-1.958-2.137-3.175s-0.788-2.517-0.788-3.9c0-1.383 0.262-2.683 0.787-3.9s1.238-2.275 2.137-3.175c0.9-0.9 1.958-1.612 3.175-2.137s2.517-0.788 3.9-0.788c1.383 0 2.683 0.262 3.9 0.787s2.275 1.238 3.175 2.137c0.9 0.9 1.613 1.958 2.138 3.175s0.788 2.517 0.788 3.9c0 1.383-0.263 2.683-0.788 3.9s-1.237 2.275-2.138 3.175c-0.9 0.9-1.958 1.613-3.175 2.138s-2.517 0.788-3.9 0.788zM12 20c2.233 0 4.125-0.775 5.675-2.325s2.325-3.442 2.325-5.675c0-2.233-0.775-4.125-2.325-5.675s-3.442-2.325-5.675-2.325c-2.233 0-4.125 0.775-5.675 2.325s-2.325 3.442-2.325 5.675c0 2.233 0.775 4.125 2.325 5.675s3.442 2.325 5.675 2.325z"></path>
</svg>
