<svg version="1.1" xmlns="http://www.w3.org/2000/svg" width="24" height="24" viewBox="0 0 24 24">
<title>botfilled</title>
<path d="M18 15c0.55 0 1.020 0.196 1.412 0.588s0.588 0.862 0.588 1.412v5h-16v-5c0-0.55 0.196-1.020 0.588-1.412s0.862-0.588 1.412-0.588h12z"></path>
<path d="M12 2c0.552 0 1 0.448 1 1v1h2c1.383 0 2.562 0.488 3.537 1.463s1.463 2.154 1.463 3.537c0 1.383-0.488 2.562-1.463 3.537s-2.154 1.463-3.537 1.463h-6c-1.383 0-2.562-0.488-3.537-1.463s-1.463-2.154-1.463-3.537c0-1.383 0.488-2.562 1.463-3.537s2.154-1.463 3.537-1.463h2v-1c0-0.552 0.448-1 1-1zM9 8c-0.283 0-0.521 0.095-0.713 0.287s-0.287 0.43-0.287 0.713c0 0.283 0.095 0.521 0.287 0.713s0.43 0.287 0.713 0.287c0.283 0 0.521-0.095 0.713-0.287s0.287-0.43 0.287-0.713c0-0.283-0.095-0.521-0.287-0.713s-0.43-0.287-0.713-0.287zM15 8c-0.283 0-0.521 0.095-0.713 0.287s-0.287 0.43-0.287 0.713c0 0.283 0.095 0.521 0.287 0.713s0.43 0.287 0.713 0.287c0.283 0 0.521-0.095 0.713-0.287s0.287-0.43 0.287-0.713c0-0.283-0.095-0.521-0.287-0.713s-0.43-0.287-0.713-0.287z"></path>
</svg>
