<svg version="1.1" xmlns="http://www.w3.org/2000/svg" width="24" height="24" viewBox="0 0 24 24">
<path d="M10.4 7c0.88 0 1.6 0.72 1.6 1.6v6.8c0 0.88-0.72 1.6-1.6 1.6h-4.8c-0.88 0-1.6-0.72-1.6-1.6v-6.8c0-0.88 0.72-1.6 1.6-1.6h4.8z"></path>
<path d="M14 13h6v-2h-6v2z"></path>
<path d="M14 7h6v2h-6v-2z"></path>
<path d="M20 17h-6v-2h6v2z"></path>
<path d="M22 3h-20c-0.525 0.017-1.023 0.234-1.395 0.605s-0.588 0.87-0.605 1.395v14c0.017 0.525 0.234 1.023 0.605 1.395s0.87 0.588 1.395 0.605h20c0.525-0.018 1.023-0.234 1.395-0.605s0.588-0.87 0.605-1.395v-14c-0.018-0.525-0.234-1.023-0.605-1.395s-0.87-0.588-1.395-0.605zM2 19v-14h20v14h-20z"></path>
</svg>
