<svg width="24" height="24" viewBox="0 0 24 24" fill="none" xmlns="http://www.w3.org/2000/svg">
<path fill-rule="evenodd" clip-rule="evenodd" d="M10.4 7C11.28 7 12 7.72 12 8.6V15.4C12 16.28 11.28 17 10.4 17H5.6C4.72 17 4 16.28 4 15.4V8.6C4 7.72 4.72 7 5.6 7H10.4Z" fill="#707070"/>
<path d="M14 13H20V11H14V13Z" fill="#707070"/>
<path d="M14 7H20V9H14V7Z" fill="#707070"/>
<path d="M20 17H14V15H20V17Z" fill="#707070"/>
<path fill-rule="evenodd" clip-rule="evenodd" d="M22 3H2C1.47512 3.01747 0.976497 3.23379 0.605143 3.60514C0.23379 3.9765 0.0174689 4.47512 0 5V19C0.0174689 19.5249 0.23379 20.0235 0.605143 20.3949C0.976497 20.7662 1.47512 20.9825 2 21H22C22.5249 20.9825 23.0235 20.7662 23.3949 20.3949C23.7662 20.0235 23.9825 19.5249 24 19V5C23.9825 4.47512 23.7662 3.9765 23.3949 3.60514C23.0235 3.23379 22.5249 3.01747 22 3ZM2 19V5H22V19H2Z" fill="#707070"/>
</svg>
