<!-- Generated by IcoMoon.io -->
<svg version="1.1" xmlns="http://www.w3.org/2000/svg" width="24" height="24" viewBox="0 0 24 24">
<path d="M12.001 2c0.764 0 1.501 0.082 2.214 0.243-0.147 0.802-0.681 1.466-1.403 1.793-0.265-0.024-0.536-0.036-0.812-0.036-2.233 0-4.125 0.775-5.675 2.325s-2.325 3.442-2.325 5.675c0 0.6 0.067 1.193 0.2 1.775s0.333 1.142 0.6 1.675c0.117 0.217 0.179 0.446 0.188 0.687s-0.021 0.479-0.087 0.712l-0.95 3.2-0.001 0.001 3.2-0.95c0.233-0.067 0.471-0.091 0.713-0.074s0.471 0.075 0.687 0.175c0.533 0.267 1.092 0.467 1.675 0.6s1.175 0.2 1.775 0.2c2.233 0 4.125-0.775 5.675-2.325s2.325-3.442 2.325-5.675c0-0.275-0.014-0.544-0.038-0.809 0.326-0.723 0.991-1.259 1.794-1.406 0.161 0.713 0.245 1.45 0.245 2.214 0 1.383-0.262 2.683-0.788 3.9s-1.237 2.275-2.137 3.175c-0.9 0.9-1.958 1.613-3.175 2.138s-2.517 0.788-3.9 0.788c-0.75 0-1.483-0.079-2.2-0.237s-1.417-0.396-2.1-0.712l-6.701 1.948 1.95-6.699c-0.317-0.683-0.554-1.383-0.712-2.1s-0.237-1.45-0.237-2.2c0-1.383 0.263-2.683 0.788-3.9s1.238-2.275 2.137-3.175c0.9-0.9 1.958-1.612 3.175-2.137s2.517-0.788 3.9-0.788z"></path>
<path d="M16.481 1.214c0.287-0.286 0.751-0.285 1.037 0.001 0.151 0.151 0.226 0.362 0.225 0.576 0 0.003 0 0.006 0 0.009 0 2.462 1.995 4.457 4.457 4.457 0.003 0 0.005 0 0.008 0 0.214-0.001 0.425 0.072 0.576 0.224 0.287 0.287 0.286 0.752-0.001 1.039-0.151 0.151-0.361 0.224-0.574 0.224-0.003 0-0.006 0-0.009 0-2.462 0-4.457 1.995-4.457 4.457 0 0.003 0 0.006 0 0.009 0 0.214-0.073 0.425-0.225 0.576-0.287 0.287-0.751 0.286-1.038 0-0.152-0.152-0.224-0.363-0.224-0.577 0-0.002 0-0.005 0-0.008-0-2.462-1.996-4.457-4.458-4.457-0.003 0-0.007 0-0.010 0-0.214 0-0.424-0.073-0.575-0.225-0.286-0.287-0.286-0.752 0-1.038 0.152-0.151 0.362-0.224 0.576-0.224 0.003 0 0.006 0 0.009 0 2.462-0 4.458-1.995 4.458-4.457 0-0.003 0-0.006 0-0.009-0-0.214 0.072-0.426 0.224-0.577z"></path>
</svg>
