<!-- Generated by IcoMoon.io -->
<svg version="1.1" xmlns="http://www.w3.org/2000/svg" width="24" height="24" viewBox="0 0 24 24">
<path d="M12.001 2c0.764 0 1.501 0.082 2.214 0.243-0.063 0.345-0.199 0.663-0.39 0.941h0.003c-0.443 0.647-1.185 1.072-2.028 1.072h-0.004c-0.653-0.002-1.406 0.221-1.995 0.81l-0.001 0.001c-1.066 1.067-1.065 2.798 0.001 3.865 0.584 0.584 1.333 0.812 1.993 0.811h0.006c1.357 0 2.458 1.101 2.458 2.457v0.003c-0.002 0.651 0.219 1.405 0.81 1.996l0.001 0.001c1.067 1.065 2.798 1.067 3.866-0.001 0.511-0.511 0.748-1.15 0.799-1.743l0.011-0.251v-0.005c0-0.842 0.424-1.585 1.069-2.027l0.001 0.001c0.278-0.19 0.597-0.326 0.941-0.389 0.161 0.713 0.245 1.45 0.245 2.214 0 1.383-0.262 2.684-0.788 3.9s-1.237 2.275-2.137 3.175c-0.9 0.9-1.958 1.613-3.175 2.138s-2.517 0.788-3.9 0.788c-0.75 0-1.483-0.079-2.2-0.237s-1.417-0.396-2.1-0.712l-6.701 1.949 1.95-6.7c-0.317-0.683-0.554-1.383-0.712-2.1s-0.237-1.45-0.237-2.2c0-1.383 0.263-2.683 0.788-3.9s1.238-2.275 2.137-3.175c0.9-0.9 1.958-1.612 3.175-2.137s2.517-0.788 3.9-0.788z"></path>
<path d="M16.481 1.214c0.287-0.286 0.751-0.285 1.037 0.001 0.151 0.151 0.226 0.362 0.225 0.576 0 0.003 0 0.006 0 0.009 0 2.462 1.995 4.457 4.457 4.457 0.003 0 0.005 0 0.008 0 0.214-0.001 0.425 0.072 0.576 0.224 0.287 0.287 0.286 0.752-0.001 1.039-0.151 0.151-0.361 0.224-0.574 0.224-0.003 0-0.006 0-0.009 0-2.462 0-4.457 1.995-4.457 4.457 0 0.003 0 0.006 0 0.009 0 0.214-0.073 0.425-0.225 0.576-0.287 0.287-0.751 0.286-1.038 0-0.152-0.152-0.224-0.363-0.224-0.577 0-0.002 0-0.005 0-0.008-0-2.462-1.996-4.457-4.458-4.457-0.003 0-0.007 0-0.010 0-0.214 0-0.424-0.073-0.575-0.225-0.286-0.287-0.286-0.752 0-1.038 0.152-0.151 0.362-0.224 0.576-0.224 0.003 0 0.006 0 0.009 0 2.462-0 4.458-1.995 4.458-4.457 0-0.003 0-0.006 0-0.009-0-0.214 0.072-0.426 0.224-0.577z"></path>
</svg>
