<svg version="1.1" xmlns="http://www.w3.org/2000/svg" width="24" height="24" viewBox="0 0 24 24">
<title>chatdismiss</title>
<path d="M15.535 9.879l-2.121 2.121 2.121 2.121-1.414 1.414-2.121-2.121-2.121 2.121-1.414-1.414 2.121-2.121-2.121-2.121 1.414-1.414 2.121 2.121 2.121-2.121 1.414 1.414z"></path>
<path d="M12.001 2c1.383 0 2.683 0.262 3.9 0.787s2.275 1.238 3.175 2.137c0.9 0.9 1.613 1.958 2.137 3.175s0.788 2.517 0.788 3.9-0.262 2.683-0.788 3.9c-0.526 1.217-1.237 2.275-2.137 3.175s-1.958 1.613-3.175 2.138c-1.217 0.525-2.517 0.788-3.9 0.788-0.75 0-1.483-0.079-2.2-0.237s-1.417-0.396-2.1-0.712l-6.701 1.949 1.95-6.7c-0.317-0.683-0.554-1.383-0.712-2.1s-0.237-1.45-0.237-2.2c0-1.383 0.263-2.683 0.788-3.9s1.238-2.275 2.137-3.175c0.9-0.9 1.958-1.612 3.175-2.137s2.517-0.788 3.9-0.788zM12 4c-2.233 0-4.125 0.775-5.675 2.325s-2.325 3.442-2.325 5.675c0 0.6 0.067 1.192 0.2 1.775s0.333 1.142 0.6 1.675c0.117 0.217 0.179 0.446 0.188 0.687s-0.021 0.479-0.087 0.712l-0.95 3.2-0.001 0.001 3.2-0.95c0.233-0.067 0.471-0.091 0.713-0.074s0.471 0.075 0.687 0.175c0.533 0.267 1.092 0.467 1.675 0.6s1.175 0.2 1.775 0.2c2.233 0 4.125-0.775 5.675-2.325s2.325-3.442 2.325-5.675c0-2.233-0.775-4.125-2.325-5.675s-3.442-2.325-5.675-2.325z"></path>
</svg>
