<svg version="1.1" xmlns="http://www.w3.org/2000/svg" width="24" height="24" viewBox="0 0 24 24">
<title>clearhistory</title>
<path d="M10.979 10h2v-5c0-0.283-0.096-0.521-0.288-0.713s-0.429-0.288-0.713-0.288c-0.283 0-0.521 0.096-0.713 0.288s-0.288 0.429-0.288 0.713v5zM5.979 14h12v-2h-12v2zM4.529 20h2.45v-2c0-0.283 0.096-0.521 0.288-0.712s0.429-0.288 0.712-0.288c0.283 0 0.521 0.096 0.712 0.288s0.288 0.429 0.288 0.712v2h2v-2c0-0.283 0.096-0.521 0.288-0.712s0.429-0.288 0.712-0.288c0.283 0 0.521 0.096 0.713 0.288s0.288 0.429 0.288 0.712v2h2v-2c0-0.283 0.096-0.521 0.288-0.712s0.429-0.288 0.712-0.288c0.283 0 0.521 0.096 0.713 0.288s0.288 0.429 0.288 0.712v2h2.45l-1-4h-12.9l-1 4zM19.429 22h-14.9c-0.65 0-1.175-0.258-1.575-0.775s-0.517-1.092-0.35-1.725l1.375-5.5v-2c0-0.55 0.196-1.021 0.588-1.413s0.863-0.588 1.413-0.588h3v-5c0-0.833 0.292-1.542 0.875-2.125s1.292-0.875 2.125-0.875c0.833 0 1.542 0.292 2.125 0.875s0.875 1.292 0.875 2.125v5h3c0.55 0 1.021 0.196 1.413 0.588s0.588 0.863 0.588 1.413v2l1.375 5.5c0.217 0.633 0.121 1.208-0.288 1.725s-0.954 0.775-1.638 0.775z"></path>
</svg>