<!-- Generated by IcoMoon.io -->
<svg version="1.1" xmlns="http://www.w3.org/2000/svg" width="24" height="24" viewBox="0 0 24 24">
<path d="M19 2h-4.18c-0.42-1.16-1.52-2-2.82-2s-2.4 0.84-2.82 2h-4.18c-1.1 0-2 0.9-2 2v16c0 1.1 0.9 2 2 2h14c1.1 0 2-0.9 2-2v-16c0-1.1-0.9-2-2-2zM12 2c0.55 0 1 0.45 1 1s-0.45 1-1 1c-0.55 0-1-0.45-1-1s0.45-1 1-1zM7 6h10v-2h2v16h-14v-16h2v2zM12 17v-2h5v2h-5zM12 11v-2h5v2h-5zM11 9l-3 3-2-2 1-1 1 1 2-2 1 1z"></path>
<path d="M8 18l3-3-1-1-2 2-1-1-1 1 2 2z"></path>
</svg>
