<svg version="1.1" xmlns="http://www.w3.org/2000/svg" width="24" height="24" viewBox="0 0 24 24">
<title>clipboardpastesmart</title>
<path d="M17.5 12c0 1.528 0.535 2.826 1.605 3.895s2.368 1.605 3.896 1.605c-1.528 0-2.826 0.535-3.896 1.605s-1.605 2.368-1.605 3.896c0-1.528-0.535-2.826-1.605-3.896s-2.368-1.605-3.896-1.605c1.528 0 2.826-0.535 3.896-1.605s1.605-2.368 1.605-3.896z"></path>
<path d="M12 1c0.667 0 1.262 0.188 1.787 0.563s0.879 0.854 1.062 1.437h4.15c0.55 0 1.020 0.196 1.412 0.588s0.588 0.862 0.588 1.412v6h-2v-6h-2v3h-10v-3h-2v14h6v2h-6c-0.55 0-1.020-0.196-1.412-0.588s-0.588-0.862-0.588-1.412v-14c0-0.55 0.196-1.020 0.588-1.412s0.862-0.588 1.412-0.588h4.175c0.183-0.583 0.542-1.062 1.075-1.437s1.117-0.563 1.75-0.563zM12 3c-0.283 0-0.521 0.095-0.713 0.287s-0.287 0.43-0.287 0.713c0 0.283 0.095 0.521 0.287 0.713s0.43 0.287 0.713 0.287c0.283 0 0.521-0.095 0.713-0.287s0.287-0.43 0.287-0.713c0-0.283-0.095-0.521-0.287-0.713s-0.43-0.287-0.713-0.287z"></path>
</svg>
