<!-- Generated by IcoMoon.io -->
<svg version="1.1" xmlns="http://www.w3.org/2000/svg" width="24" height="24" viewBox="0 0 24 24">
<path d="M16.481 11.214c0.287-0.286 0.751-0.285 1.037 0.001 0.151 0.152 0.226 0.362 0.225 0.576 0 0.003 0 0.006 0 0.009 0 2.462 1.995 4.457 4.457 4.457 0.003 0 0.005 0 0.008 0 0.214-0 0.425 0.072 0.576 0.224 0.287 0.287 0.286 0.752-0.001 1.039-0.151 0.151-0.361 0.224-0.574 0.224-0.003 0-0.006 0-0.009 0-2.462 0-4.457 1.995-4.457 4.457 0 0.003 0 0.006 0 0.009 0 0.214-0.073 0.425-0.225 0.576-0.287 0.287-0.751 0.286-1.038 0-0.152-0.152-0.224-0.363-0.224-0.577 0-0.003 0-0.005 0-0.008-0-2.462-1.996-4.457-4.458-4.457-0.003 0-0.007 0-0.010 0-0.214 0-0.424-0.073-0.575-0.225-0.286-0.287-0.286-0.751 0-1.038 0.152-0.152 0.362-0.224 0.576-0.224 0.003 0 0.006 0 0.009 0 2.462-0 4.458-1.995 4.458-4.457 0-0.003 0-0.006 0-0.009-0-0.214 0.072-0.426 0.224-0.577z"></path>
<path d="M12 1c0.667 0 1.262 0.188 1.787 0.563s0.879 0.854 1.062 1.437h4.15c0.55 0 1.020 0.196 1.412 0.588s0.588 0.862 0.588 1.412v4h-2v-4h-2v3h-10v-3h-2v14h4v2h-4c-0.55 0-1.020-0.196-1.412-0.588s-0.588-0.862-0.588-1.412v-14c0-0.55 0.196-1.020 0.588-1.412s0.862-0.588 1.412-0.588h4.175c0.183-0.583 0.542-1.062 1.075-1.437s1.117-0.563 1.75-0.563zM12 3c-0.283 0-0.521 0.095-0.713 0.287s-0.287 0.43-0.287 0.713c0 0.283 0.095 0.521 0.287 0.713s0.43 0.287 0.713 0.287c0.283 0 0.521-0.095 0.713-0.287s0.287-0.43 0.287-0.713c0-0.283-0.095-0.521-0.287-0.713s-0.43-0.287-0.713-0.287z"></path>
</svg>
