<svg version="1.1" xmlns="http://www.w3.org/2000/svg" width="24" height="24" viewBox="0 0 24 24">
<title>datapieoutline</title>
<path d="M13 11h6.95c-0.25-1.833-1.013-3.387-2.288-4.662s-2.829-2.037-4.662-2.287v6.95zM11 19.95v-15.9c-2.017 0.25-3.687 1.129-5.013 2.637s-1.987 3.279-1.987 5.313c0 2.033 0.663 3.804 1.987 5.313s2.996 2.388 5.013 2.637zM13 19.95c1.833-0.233 3.392-0.992 4.675-2.275s2.042-2.842 2.275-4.675h-6.95v6.95zM12 22c-1.383 0-2.683-0.263-3.9-0.788s-2.275-1.237-3.175-2.138c-0.9-0.9-1.612-1.958-2.137-3.175s-0.788-2.517-0.788-3.9c0-1.383 0.262-2.683 0.787-3.9s1.238-2.275 2.137-3.175c0.9-0.9 1.958-1.612 3.175-2.137s2.517-0.788 3.9-0.788c1.383 0 2.679 0.262 3.888 0.787s2.267 1.242 3.175 2.15c0.908 0.908 1.625 1.967 2.15 3.175s0.788 2.504 0.788 3.888c0 1.367-0.263 2.658-0.788 3.875s-1.237 2.279-2.138 3.188c-0.9 0.908-1.958 1.625-3.175 2.15s-2.517 0.787-3.9 0.787z"></path>
</svg>
