<svg version="1.1" xmlns="http://www.w3.org/2000/svg" width="24" height="24" viewBox="0 0 24 24">
<title>datadoughnutoutline</title>
<path d="M13.025 2.050c2.383 0.233 4.413 1.188 6.087 2.862s2.629 3.704 2.862 6.088h-7.15c-0.15-0.433-0.379-0.813-0.687-1.138s-0.679-0.563-1.113-0.712v-7.1zM15.025 4.6v3.4c0.183 0.15 0.358 0.308 0.525 0.475s0.325 0.342 0.475 0.525h3.4c-0.4-1-0.983-1.883-1.75-2.65s-1.65-1.35-2.65-1.75zM11.025 2.050v7.1c-0.6 0.217-1.083 0.588-1.45 1.113s-0.55 1.104-0.55 1.737c0 0.633 0.183 1.204 0.55 1.713s0.85 0.871 1.45 1.087v7.15c-2.567-0.25-4.708-1.325-6.425-3.225s-2.575-4.142-2.575-6.725c0-2.583 0.858-4.825 2.575-6.725s3.858-2.975 6.425-3.225zM9.025 4.6c-1.517 0.583-2.729 1.55-3.637 2.9s-1.362 2.85-1.362 4.5c0 1.65 0.454 3.15 1.362 4.5s2.121 2.333 3.637 2.95v-3.45c-0.633-0.483-1.125-1.071-1.475-1.763s-0.525-1.437-0.525-2.238c0-0.8 0.175-1.546 0.525-2.238s0.842-1.279 1.475-1.762v-3.4zM14.825 13h7.15c-0.233 2.383-1.188 4.413-2.862 6.087s-3.704 2.629-6.087 2.862v-7.15c0.433-0.15 0.804-0.379 1.113-0.687s0.537-0.679 0.687-1.113zM16.025 15c-0.133 0.183-0.288 0.358-0.462 0.525s-0.354 0.325-0.537 0.475v3.4c1-0.4 1.883-0.983 2.65-1.75s1.35-1.65 1.75-2.65h-3.4z"></path>
</svg>
