<svg version="1.1" xmlns="http://www.w3.org/2000/svg" width="24" height="24" viewBox="0 0 24 24">
<title>datalineoutline</title>
<path d="M19 5c1.657 0 3 1.343 3 3s-1.343 3-3 3c-0.183 0-0.361-0.018-0.535-0.049l-1.195 2.091c0.454 0.526 0.73 1.209 0.73 1.958 0 1.657-1.343 3-3 3s-3-1.343-3-3c0-0.463 0.108-0.9 0.295-1.291l-2.005-2.005c-0.391 0.187-0.827 0.296-1.29 0.296-0.183 0-0.362-0.017-0.536-0.049l-1.194 2.090c0.454 0.526 0.73 1.21 0.73 1.959 0 1.657-1.343 3-3 3s-3-1.343-3-3c0-1.657 1.343-3 3-3 0.182 0 0.361 0.017 0.534 0.048l1.195-2.091c-0.453-0.525-0.729-1.208-0.729-1.957 0-1.657 1.343-3 3-3s3 1.343 3 3c0 0.463-0.109 0.899-0.296 1.29l2.005 2.005c0.391-0.187 0.828-0.295 1.291-0.295 0.182 0 0.361 0.017 0.534 0.048l1.195-2.091c-0.453-0.526-0.729-1.208-0.729-1.957 0-1.657 1.343-3 3-3zM5 15c-0.552 0-1 0.448-1 1s0.448 1 1 1c0.552 0 1-0.448 1-1s-0.448-1-1-1zM15 14c-0.552 0-1 0.448-1 1s0.448 1 1 1c0.552 0 1-0.448 1-1s-0.448-1-1-1zM9 8c-0.552 0-1 0.448-1 1s0.448 1 1 1c0.552 0 1-0.448 1-1s-0.448-1-1-1zM19 7c-0.552 0-1 0.448-1 1s0.448 1 1 1c0.552 0 1-0.448 1-1s-0.448-1-1-1z"></path>
</svg>
