<svg version="1.1" xmlns="http://www.w3.org/2000/svg" width="24" height="24" viewBox="0 0 24 24">
<title>datadoughnutfilled</title>
<path d="M14.825 11c-0.15-0.433-0.379-0.813-0.687-1.138s-0.679-0.563-1.113-0.713v-7.1c2.383 0.233 4.413 1.188 6.087 2.862s2.629 3.704 2.862 6.088h-7.15zM11.025 21.95c-2.567-0.25-4.708-1.325-6.425-3.225s-2.575-4.142-2.575-6.725c0-2.583 0.858-4.825 2.575-6.725s3.858-2.975 6.425-3.225v7.1c-0.6 0.217-1.083 0.588-1.45 1.113s-0.55 1.104-0.55 1.737c0 0.633 0.183 1.204 0.55 1.713s0.85 0.871 1.45 1.087v7.15zM13.025 21.95v-7.15c0.433-0.15 0.804-0.379 1.113-0.687s0.537-0.679 0.687-1.113h7.15c-0.233 2.383-1.188 4.413-2.862 6.087s-3.704 2.629-6.087 2.862z"></path>
</svg>
