<svg width="24" height="24" viewBox="0 0 24 24" fill="none" xmlns="http://www.w3.org/2000/svg">
<path fill-rule="evenodd" clip-rule="evenodd" d="M7 10H9V12H7V10Z" fill="black"/>
<path fill-rule="evenodd" clip-rule="evenodd" d="M16 3V1H18V3H19C20.1 3 21 3.9 21 5V19C21 20.1 20.1 21 19 21H5C3.89 21 3 20.1 3 19L3.01 5C3.01 3.9 3.89 3 5 3H6V1H8V3H16ZM5 19H19V8H5V19Z" fill="black"/>
<path fill-rule="evenodd" clip-rule="evenodd" d="M11 10H17V12H11V10Z" fill="black"/>
<path fill-rule="evenodd" clip-rule="evenodd" d="M7 14H13V16H7V14Z" fill="black"/>
<path fill-rule="evenodd" clip-rule="evenodd" d="M15 14H17V16H15V14Z" fill="black"/>
</svg>
