<!-- Generated by IcoMoon.io -->
<svg version="1.1" xmlns="http://www.w3.org/2000/svg" width="18" height="18" viewBox="0 0 18 18">
<title>doesnotcontain</title>
<path d="M9.46 12.45c0.79 0 1.32-0.57 1.51-1.45h-2.97c0 0.080 0 0.16 0 0.23 0.136 0.695 0.736 1.213 1.459 1.22h0.001z"></path>
<path d="M15.69 12.4c0.003 0 0.007 0 0.010 0 0.412 0 0.799-0.111 1.13-0.306l-0.011 0.006 0.16 0.84c-0.4 0.221-0.878 0.351-1.385 0.351-0.026 0-0.052-0-0.078-0.001l0.004 0c-1.287-0.022-2.335-1.018-2.439-2.281l-0.001-0.009h-1.15c-0.075 1.23-1.051 2.209-2.273 2.29l-0.007 0c-0.021 0.001-0.045 0.001-0.069 0.001-0.745 0-1.387-0.443-1.676-1.080l-0.005-0.012v0.95h-0.9c0-0.39 0-1 0-1.48v-0.67h-1.1v0.68c-0.001 0.052-0.002 0.112-0.002 0.173 0 0.458 0.037 0.907 0.108 1.345l-0.006-0.048h-1l-0.090-0.77c-0.436 0.556-1.108 0.911-1.863 0.911-0.020 0-0.040-0-0.060-0.001l0.003 0c-0.066 0.009-0.142 0.014-0.22 0.014-0.978 0-1.77-0.792-1.77-1.77 0-0.001 0-0.003 0-0.004v0c0.001-0.189 0.026-0.371 0.073-0.545l-0.003 0.015h-1.070v4h18v-4h-3.95c0.152 0.786 0.824 1.375 1.637 1.4l0.003 0z"></path>
<path d="M3.21 12.46c0.019 0.001 0.041 0.001 0.063 0.001 0.661 0 1.225-0.411 1.453-0.991l0.004-0.011c0.036-0.104 0.058-0.224 0.060-0.349l0-0.001v-0.11h-2.58c-0.038 0.113-0.060 0.243-0.060 0.378 0 0.008 0 0.015 0 0.023l-0-0.001c-0.001 0.019-0.002 0.040-0.002 0.062 0 0.552 0.448 1 1 1 0.022 0 0.043-0.001 0.065-0.002l-0.003 0z"></path>
<path d="M9.49 8.11c-0.746 0.018-1.359 0.56-1.489 1.271l-0.001 0.009c-0.007 0.064-0.011 0.139-0.011 0.215s0.004 0.151 0.011 0.224l-0.001-0.009v0.18h3c0-1-0.57-1.89-1.51-1.89z"></path>
<path d="M0 3v7h1.76c0.742-0.474 1.646-0.755 2.616-0.755 0.135 0 0.269 0.005 0.401 0.016l-0.017-0.001v-0.13c0.006-0.045 0.009-0.097 0.009-0.15 0-0.701-0.569-1.27-1.27-1.27-0.056 0-0.111 0.004-0.165 0.011l0.006-0.001c-0.603 0.004-1.165 0.175-1.644 0.468l0.014-0.008-0.26-0.73c0.58-0.346 1.278-0.55 2.024-0.55 0.012 0 0.025 0 0.037 0l-0.002-0c0.067-0.007 0.145-0.011 0.224-0.011 1.209 0 2.19 0.98 2.19 2.19 0 0.113-0.009 0.225-0.025 0.334l0.002-0.012v0.6h1.1v-5.27h1v3.61c0.322-0.634 0.97-1.061 1.717-1.061 0.026 0 0.051 0 0.076 0.001l-0.004-0c1.21 0 2.13 1.090 2.21 2.72h1c0.060-1.8 1.11-3.090 2.71-3.090 0.015-0 0.033-0 0.050-0 0.454 0 0.881 0.115 1.253 0.317l-0.014-0.007-0.21 0.86c-0.282-0.183-0.627-0.291-0.997-0.291-0.026 0-0.051 0.001-0.077 0.002l0.004-0c-1.13 0-1.75 1-1.78 2.21h4.060v-7z"></path>
</svg>
