<!-- Generated by IcoMoon.io -->
<svg version="1.1" xmlns="http://www.w3.org/2000/svg" width="24" height="24" viewBox="0 0 24 24">
<title>edit-header</title>
<path d="M23.56 16.59l-1.15-1.15c-0.27-0.273-0.645-0.443-1.060-0.443s-0.79 0.169-1.060 0.443l-5.29 5.29v3.27h3.27l5.29-5.29c0.273-0.27 0.443-0.645 0.443-1.060s-0.169-0.79-0.443-1.060l-0-0zM17.56 22.45h-1v-1l3.44-3.45 1 1-3.44 3.45z"></path>
<path d="M6 8h12v2h-12v-2z"></path>
<path d="M23 1v10h-22v-10h22zM22 12v1h-2v-1h2zM16 12v3l-1.5 1h-4.5v4h3v2h-9c-1.105 0-2-0.895-2-2v-8h2v2h4v-2h2v2h4v-2h2zM8 20v-4h-4v4h4zM16 8h4v-4h-4v4zM14 8v-4h-4v4h4zM4 8h4v-4h-4v4z"></path>
</svg>
