<svg xmlns="http://www.w3.org/2000/svg" width="24" height="24" viewBox="0 0 24 24">
<title>eyeopen</title>
<path d="M12 9c0.796 0 1.559 0.316 2.121 0.879s0.879 1.326 0.879 2.121c0 0.796-0.316 1.559-0.879 2.121s-1.326 0.879-2.121 0.879c-0.796 0-1.559-0.316-2.121-0.879s-0.879-1.326-0.879-2.121c0-0.796 0.316-1.559 0.879-2.121s1.326-0.879 2.121-0.879zM12 4.5c5 0 9.27 3.11 11 7.5-1.73 4.39-6 7.5-11 7.5s-9.27-3.11-11-7.5c1.73-4.39 6-7.5 11-7.5zM3.18 12c1.65 3.36 5.060 5.5 8.82 5.5s7.17-2.14 8.82-5.5c-1.65-3.36-5.060-5.5-8.82-5.5s-7.17 2.14-8.82 5.5z"></path>
</svg>
