<svg version="1.1" xmlns="http://www.w3.org/2000/svg" width="24" height="24" viewBox="0 0 24 24">
<path d="M15 5v6c0 0.552-0.448 1-1 1s-1-0.448-1-1v-6h-4v14h3c0.552 0 1 0.448 1 1s-0.448 1-1 1h-8c-1.11 0-2-0.9-2-2v-14c0-1.11 0.89-2 2-2h14c1.1 0 2 0.89 2 2v4c0 0.552-0.448 1-1 1s-1-0.448-1-1v-4h-3zM7 19v-14h-3v14h3z"></path>
<path d="M15 15c0-1.657 1.343-3 3-3s3 1.343 3 3v1.022c0.526 0.113 1 0.656 1 1.278v3.5c0 0.6-0.6 1.2-1.3 1.2h-5.5c-0.6 0-1.2-0.6-1.2-1.3v-3.5c0-0.533 0.474-1.066 1-1.178v-1.022zM16.5 16h3v-1c0-0.828-0.672-1.5-1.5-1.5s-1.5 0.672-1.5 1.5v1z"></path>
</svg>
