<!-- Generated by IcoMoon.io -->
<svg version="1.1" xmlns="http://www.w3.org/2000/svg" width="24" height="24" viewBox="0 0 24 24">
<path d="M22 12v8c0 1.105-0.895 2-2 2v0h-16c-1.105 0-2-0.895-2-2v0-8c-0.552 0-1-0.448-1-1v0-3c0-1.105 0.895-2 2-2v0h3.17c-0.11-0.31-0.17-0.65-0.17-1 0-1.657 1.343-3 3-3v0c1 0 1.88 0.5 2.43 1.24v-0.010l0.57 0.77 0.57-0.77v0.010c0.55-0.74 1.43-1.24 2.43-1.24 1.657 0 3 1.343 3 3v0c0 0.35-0.060 0.69-0.17 1h3.17c1.105 0 2 0.895 2 2v0 3c0 0.552-0.448 1-1 1v0zM4 20h7v-8h-7v8zM20 20v-8h-7v8h7zM9 4c-0.552 0-1 0.448-1 1v0c0 0.552 0.448 1 1 1v0c0.552 0 1-0.448 1-1v0c0-0.552-0.448-1-1-1v0zM15 4c-0.552 0-1 0.448-1 1v0c0 0.552 0.448 1 1 1v0c0.552 0 1-0.448 1-1v0c0-0.552-0.448-1-1-1v0zM3 8v2h8v-2h-8zM13 8v2h8v-2h-8z"></path>
</svg>
