<!-- Generated by IcoMoon.io -->
<svg version="1.1" xmlns="http://www.w3.org/2000/svg" width="24" height="24" viewBox="0 0 24 24">
<title>globe</title>
<path d="M12 2c-5.52 0-10 4.48-10 10s4.48 10 10 10 10-4.48 10-10-4.48-10-10-10zM11 19.93c-3.95-0.49-7-3.85-7-7.93 0-0.62 0.080-1.21 0.21-1.79l4.79 4.79v1c0 1.1 0.9 2 2 2v1.93zM17.9 17.39c-0.26-0.81-1-1.39-1.9-1.39h-1v-3c0-0.55-0.45-1-1-1h-6v-2h2c0.55 0 1-0.45 1-1v-2h2c1.1 0 2-0.9 2-2v-0.41c2.93 1.19 5 4.060 5 7.41 0 2.080-0.8 3.97-2.1 5.39z"></path>
</svg>
