<svg width="24" height="24" viewBox="0 0 24 24" fill="none" xmlns="http://www.w3.org/2000/svg">
<g clip-path="url(#clip0_10843_203)">
<mask id="mask0_10843_203" style="mask-type:luminance" maskUnits="userSpaceOnUse" x="0" y="0" width="24" height="24">
<path d="M24 0H0V24H24V0Z" fill="white"/>
</mask>
<g mask="url(#mask0_10843_203)">
<path d="M19 5V19H5V5H19ZM19 3H5C3.9 3 3 3.9 3 5V19C3 20.1 3.9 21 5 21H19C20.1 21 21 20.1 21 19V5C21 3.9 20.1 3 19 3ZM14.14 11.86L11.14 15.73L9 13.14L6 17H18L14.14 11.86Z" fill="black"/>
</g>
</g>
<defs>
<clipPath id="clip0_10843_203">
<rect width="24" height="24" fill="white"/>
</clipPath>
</defs>
</svg>
