<!-- Generated by IcoMoon.io -->
<svg version="1.1" xmlns="http://www.w3.org/2000/svg" width="24" height="24" viewBox="0 0 24 24">
<title>unlock</title>
<path d="M12 15.75c0.825 0 1.5-0.675 1.5-1.5s-0.675-1.5-1.5-1.5c-0.825 0-1.5 0.675-1.5 1.5s0.675 1.5 1.5 1.5zM16.5 9h-0.75v-1.5c0-2.070-1.68-3.75-3.75-3.75s-3.75 1.68-3.75 3.75h1.425c0-1.283 1.043-2.325 2.325-2.325s2.325 1.043 2.325 2.325v1.5h-6.825c-0.825 0-1.5 0.675-1.5 1.5v7.5c0 0.825 0.675 1.5 1.5 1.5h9c0.825 0 1.5-0.675 1.5-1.5v-7.5c0-0.825-0.675-1.5-1.5-1.5zM16.5 18h-9v-7.5h9v7.5z"></path>
<path d="M3 21v-3h-2v5h5v-2h-3z"></path>
<path d="M3 3h3v-2h-5v5h2v-3z"></path>
<path d="M21 21h-3v2h5v-5h-2v3z"></path>
<path d="M21 3v3h2v-5h-5v2h3z"></path>
</svg>
