<svg version="1.1" xmlns="http://www.w3.org/2000/svg" width="24" height="24" viewBox="0 0 24 24">
<title>listbartreeoffset</title>
<path d="M20 3c1.105 0 2 0.895 2 2v14c0 1.036-0.787 1.887-1.796 1.989l-0.204 0.011-12.204-0.011c-0.942-0.096-1.69-0.844-1.785-1.785l-0.011-0.204v-3l-0.204-0.011c-1.009-0.102-1.796-0.954-1.796-1.989v-4l-0.204-0.011c-0.942-0.095-1.69-0.844-1.785-1.785l-0.011-0.204v-3c0-1.105 0.895-2 2-2h16zM8 19h3v-3h-3v3zM13 19h7v-3h-7v3zM6 14h3v-4h-3v4zM11 14h9v-4h-9v4zM4 8h3v-3h-3v3zM9 8h11v-3h-11v3z"></path>
</svg>
