<!-- Generated by IcoMoon.io -->
<svg version="1.1" xmlns="http://www.w3.org/2000/svg" width="24" height="24" viewBox="0 0 24 24">
<title>money</title>
<path d="M12 2c-5.52 0-10 4.48-10 10s4.48 10 10 10 10-4.48 10-10-4.48-10-10-10zM13.41 18.090v1.91h-2.67v-1.93c-1.71-0.36-3.16-1.46-3.27-3.4h1.96c0.1 1.050 0.82 1.87 2.65 1.87 1.96 0 2.4-0.98 2.4-1.59 0-0.83-0.44-1.61-2.67-2.14-2.48-0.6-4.18-1.62-4.18-3.67 0-1.72 1.39-2.84 3.11-3.21v-1.93h2.67v1.95c1.86 0.45 2.79 1.86 2.85 3.39h-1.96c-0.050-1.11-0.64-1.87-2.22-1.87-1.5 0-2.4 0.68-2.4 1.64 0 0.84 0.65 1.39 2.67 1.91s4.18 1.39 4.18 3.91c-0.010 1.83-1.38 2.83-3.12 3.16z"></path>
</svg>
