<svg xmlns="http://www.w3.org/2000/svg" width="24" height="24" viewBox="0 0 24 24">
<title>optionsgear</title>
<path d="M12 8c1.061 0 2.078 0.421 2.829 1.172s1.172 1.768 1.172 2.828-0.421 2.078-1.172 2.828c-0.75 0.75-1.768 1.172-2.829 1.172s-2.078-0.421-2.828-1.172c-0.75-0.75-1.172-1.767-1.172-2.828s0.421-2.078 1.172-2.828c0.75-0.75 1.768-1.172 2.828-1.172zM12 10c-0.53 0-1.039 0.211-1.414 0.586s-0.586 0.884-0.586 1.414c0 0.53 0.211 1.039 0.586 1.414s0.884 0.586 1.414 0.586c0.531 0 1.039-0.211 1.414-0.586s0.586-0.884 0.586-1.414-0.211-1.039-0.586-1.414c-0.375-0.375-0.884-0.586-1.414-0.586zM10 22c-0.25 0-0.46-0.18-0.5-0.42l-0.37-2.65c-0.63-0.25-1.17-0.59-1.69-0.99l-2.49 1.010c-0.22 0.080-0.49 0-0.61-0.22l-2-3.46c-0.13-0.22-0.070-0.49 0.12-0.64l2.11-1.66-0.070-0.97 0.070-1-2.11-1.63c-0.19-0.15-0.25-0.42-0.12-0.64l2-3.46c0.12-0.22 0.39-0.31 0.61-0.22l2.49 1c0.52-0.39 1.060-0.73 1.69-0.98l0.37-2.65c0.040-0.24 0.25-0.42 0.5-0.42h4c0.25 0 0.46 0.18 0.5 0.42l0.37 2.65c0.63 0.25 1.17 0.59 1.69 0.98l2.49-1c0.22-0.090 0.49 0 0.61 0.22l2 3.46c0.13 0.22 0.070 0.49-0.12 0.64l-2.11 1.63 0.070 1-0.070 1 2.11 1.63c0.19 0.15 0.25 0.42 0.12 0.64l-2 3.46c-0.12 0.22-0.39 0.31-0.61 0.22l-2.49-1c-0.52 0.39-1.060 0.73-1.69 0.98l-0.37 2.65c-0.040 0.24-0.25 0.42-0.5 0.42h-4zM11.25 4l-0.37 2.61c-1.2 0.25-2.26 0.89-3.030 1.78l-2.41-1.040-0.75 1.3 2.11 1.55c-0.4 1.17-0.4 2.44 0 3.6l-2.12 1.56 0.75 1.3 2.43-1.040c0.77 0.88 1.82 1.52 3.010 1.76l0.37 2.62h1.52l0.37-2.61c1.19-0.25 2.24-0.89 3.010-1.77l2.43 1.040 0.75-1.3-2.12-1.55c0.4-1.17 0.4-2.44 0-3.61l2.11-1.55-0.75-1.3-2.41 1.040c-0.77-0.89-1.83-1.53-3.030-1.77l-0.37-2.62h-1.5z"></path>
</svg>
