<!-- Generated by IcoMoon.io -->
<svg version="1.1" xmlns="http://www.w3.org/2000/svg" width="24" height="24" viewBox="0 0 24 24">
<path d="M8 13c-1.86 0-3.41 1.28-3.86 3h-2.14v2h2.14c0.45 1.72 2 3 3.86 3s3.41-1.28 3.86-3h10.14v-2h-10.14c-0.45-1.72-2-3-3.86-3zM8 19c-1.1 0-2-0.9-2-2s0.9-2 2-2c1.1 0 2 0.9 2 2s-0.9 2-2 2zM19.86 6c-0.45-1.72-2-3-3.86-3s-3.41 1.28-3.86 3h-10.14v2h10.14c0.45 1.72 2 3 3.86 3s3.41-1.28 3.86-3h2.14v-2h-2.14zM16 9c-1.1 0-2-0.9-2-2s0.9-2 2-2c1.1 0 2 0.9 2 2s-0.9 2-2 2z"></path>
</svg>
