<!-- Generated by IcoMoon.io -->
<svg version="1.1" xmlns="http://www.w3.org/2000/svg" width="24" height="24" viewBox="0 0 24 24">
<path d="M21 16.5c0 0.38-0.21 0.71-0.53 0.88l-7.9 4.44c-0.16 0.12-0.36 0.18-0.57 0.18s-0.41-0.060-0.57-0.18l-7.9-4.44c-0.32-0.17-0.53-0.5-0.53-0.88v-9c0-0.38 0.21-0.71 0.53-0.88l7.9-4.44c0.16-0.12 0.36-0.18 0.57-0.18s0.41 0.060 0.57 0.18l7.9 4.44c0.32 0.17 0.53 0.5 0.53 0.88v9zM12 4.15l-1.89 1.070 5.89 3.39 1.96-1.11-5.96-3.35zM6.040 7.5l5.96 3.35 1.96-1.1-5.88-3.4-2.040 1.15zM5 15.91l6 3.38v-6.71l-6-3.37v6.7zM19 15.91v-6.7l-6 3.37v6.71l6-3.38z"></path>
</svg>
