<!-- Generated by IcoMoon.io -->
<svg version="1.1" xmlns="http://www.w3.org/2000/svg" width="24" height="24" viewBox="0 0 24 24">
<title>percent</title>
<path d="M8.227 19.533l-2.16-0.893 9.173-14.173 2.16 0.893-9.173 14.173z"></path>
<path d="M19.107 14.347c-0.568-0.626-1.385-1.017-2.293-1.017-0.052 0-0.103 0.001-0.154 0.004l0.007-0c-0.038-0.002-0.083-0.003-0.129-0.003-0.912 0-1.732 0.396-2.296 1.026l-0.003 0.003c-0.564 0.643-0.908 1.491-0.908 2.42 0 0.030 0 0.061 0.001 0.091l-0-0.005v0.92c-0.001 0.036-0.002 0.077-0.002 0.119 0 0.92 0.339 1.761 0.899 2.405l-0.004-0.004c0.57 0.626 1.389 1.017 2.299 1.017 0.054 0 0.108-0.001 0.162-0.004l-0.008 0c0.044 0.002 0.095 0.003 0.146 0.003 0.904 0 1.717-0.391 2.278-1.014l0.002-0.003c0.556-0.641 0.896-1.484 0.896-2.406 0-0.045-0.001-0.089-0.002-0.134l0 0.006v-0.92c0.001-0.030 0.001-0.066 0.001-0.102 0-0.922-0.339-1.764-0.899-2.41l0.004 0.005zM18.173 17.787c0.002 0.032 0.003 0.070 0.003 0.107 0 0.458-0.141 0.882-0.381 1.233l0.005-0.008c-0.246 0.311-0.624 0.509-1.048 0.509-0.025 0-0.051-0.001-0.076-0.002l0.003 0c-0.016 0.001-0.034 0.001-0.053 0.001-0.435 0-0.822-0.208-1.065-0.531l-0.002-0.003c-0.252-0.337-0.403-0.762-0.403-1.222 0-0.039 0.001-0.078 0.003-0.117l-0 0.005v-0.92c-0.002-0.032-0.003-0.071-0.003-0.109 0-0.459 0.146-0.884 0.394-1.231l-0.004 0.006c0.246-0.326 0.632-0.534 1.067-0.534 0.014 0 0.028 0 0.042 0.001l-0.002-0c0.016-0.001 0.034-0.001 0.053-0.001 0.435 0 0.822 0.208 1.065 0.531l0.002 0.003c0.251 0.341 0.402 0.77 0.402 1.234 0 0.035-0.001 0.070-0.003 0.104l0-0.005z"></path>
<path d="M9.773 3.68c-0.568-0.626-1.385-1.017-2.293-1.017-0.052 0-0.103 0.001-0.154 0.004l0.007-0c-0.038-0.002-0.083-0.003-0.129-0.003-0.912 0-1.732 0.396-2.296 1.026l-0.003 0.003c-0.564 0.643-0.908 1.491-0.908 2.42 0 0.030 0 0.061 0.001 0.091l-0-0.005v0.92c-0.001 0.036-0.002 0.077-0.002 0.119 0 0.92 0.339 1.761 0.899 2.405l-0.004-0.004c0.571 0.633 1.395 1.030 2.311 1.030 0.050 0 0.1-0.001 0.15-0.004l-0.007 0c0.044 0.002 0.094 0.003 0.146 0.003 0.904 0 1.717-0.391 2.278-1.014l0.002-0.003c0.556-0.641 0.895-1.484 0.895-2.406 0-0.040-0.001-0.080-0.002-0.12l0 0.006v-0.933c0.001-0.034 0.002-0.074 0.002-0.114 0-0.922-0.339-1.764-0.899-2.41l0.004 0.005zM8.84 7.12c0.002 0.032 0.003 0.070 0.003 0.107 0 0.458-0.141 0.882-0.381 1.233l0.005-0.007c-0.246 0.311-0.624 0.509-1.048 0.509-0.025 0-0.051-0.001-0.076-0.002l0.003 0c-0.016 0.001-0.034 0.001-0.053 0.001-0.435 0-0.822-0.208-1.065-0.531l-0.002-0.003c-0.252-0.337-0.403-0.762-0.403-1.222 0-0.039 0.001-0.078 0.003-0.117l-0 0.005v-0.893c-0.002-0.032-0.003-0.071-0.003-0.109 0-0.459 0.146-0.884 0.394-1.231l-0.004 0.006c0.246-0.326 0.632-0.534 1.067-0.534 0.014 0 0.028 0 0.042 0.001l-0.002-0c0.016-0.001 0.034-0.001 0.053-0.001 0.435 0 0.822 0.208 1.065 0.531l0.002 0.003c0.251 0.341 0.402 0.77 0.402 1.234 0 0.035-0.001 0.070-0.003 0.104l0-0.005z"></path>
</svg>
