<svg version="1.1" xmlns="http://www.w3.org/2000/svg" width="24" height="24" viewBox="0 0 24 24">
<title>restore</title>
<path d="M12 3c2.387 0 4.676 0.948 6.364 2.636s2.636 3.977 2.636 6.364h3l-3.89 3.89-0.070 0.14-4.040-4.030h3c0-1.857-0.738-3.637-2.050-4.95s-3.093-2.050-4.95-2.050-3.637 0.738-4.95 2.050c-1.313 1.313-2.050 3.093-2.050 4.95s0.738 3.637 2.050 4.95c1.313 1.313 3.093 2.050 4.95 2.050 1.93 0 3.68-0.79 4.94-2.060l1.42 1.42c-1.63 1.64-3.86 2.64-6.36 2.64-2.387 0-4.676-0.948-6.364-2.636s-2.636-3.977-2.636-6.364c0-2.387 0.948-4.676 2.636-6.364s3.977-2.636 6.364-2.636z"></path>
</svg>
