<!-- Generated by IcoMoon.io -->
<svg version="1.1" xmlns="http://www.w3.org/2000/svg" width="24" height="24" viewBox="0 0 24 24">
<title>rtf</title>
<path d="M11 14h1v1h-1v-1z"></path>
<path d="M20 12v-4l-6-6h-8c-1.105 0-2 0.895-2 2v0 16c0 1.105 0.895 2 2 2v0h12c1.105 0 2-0.895 2-2v0-1h2v-7zM13 3.5l5.5 5.5h-5.5zM18 20h-12v-16h5v7h7v1h-9v7h9zM14 14v-1h3v1h-1v4h-1v-4zM13 18h-1.18l-0.82-1.29v1.29h-1v-5h2c0.552 0 1 0.448 1 1v0 1c0 0.552-0.448 1-1 1v0h-0.29zM21 14h-2v1h1v1h-1v2h-1v-5h3z"></path>
</svg>
