<!-- Generated by IcoMoon.io -->
<svg version="1.1" xmlns="http://www.w3.org/2000/svg" width="24" height="24" viewBox="0 0 24 24">
<path d="M18.654 15.143c0.191-0.191 0.501-0.19 0.691 0.001 0.101 0.101 0.15 0.241 0.149 0.384v0.006c0 1.641 1.331 2.971 2.972 2.972h0.006c0.143-0 0.283 0.048 0.384 0.148 0.191 0.191 0.191 0.502 0 0.693-0.101 0.101-0.241 0.149-0.384 0.148h-0.006c-1.641 0-2.971 1.331-2.972 2.972v0.006c0 0.143-0.049 0.283-0.149 0.384-0.191 0.191-0.5 0.191-0.691 0-0.101-0.101-0.15-0.241-0.149-0.384v-0.006c-0-1.641-1.331-2.971-2.972-2.972-0.002 0-0.005 0-0.007 0-0.143 0-0.283-0.049-0.384-0.149-0.19-0.191-0.19-0.5 0-0.691 0.101-0.101 0.242-0.15 0.385-0.149h0.006c1.641-0 2.971-1.331 2.972-2.972v-0.006c-0-0.143 0.048-0.284 0.149-0.385zM8.309 4.286c0.382-0.382 1.001-0.381 1.383 0.001 0.202 0.202 0.3 0.482 0.3 0.768 0 0.004 0 0.008 0 0.012 0 3.282 2.661 5.943 5.943 5.943 0.003 0 0.007 0 0.011 0 0.285-0.001 0.567 0.096 0.769 0.298 0.382 0.382 0.381 1.004-0.001 1.386-0.202 0.201-0.482 0.298-0.767 0.298-0.004 0-0.008 0-0.012 0-3.282 0-5.943 2.66-5.943 5.942 0 0.003 0 0.008 0 0.012 0.001 0.285-0.097 0.566-0.299 0.768-0.382 0.382-1.001 0.382-1.384 0-0.202-0.202-0.299-0.483-0.299-0.769 0-0.003 0-0.007 0-0.011-0-3.282-2.661-5.942-5.943-5.942-0.004 0-0.009 0-0.013 0-0.285 0.001-0.566-0.097-0.768-0.299-0.382-0.382-0.381-1.002 0-1.384 0.202-0.202 0.483-0.3 0.769-0.299 0.004 0 0.008 0 0.012 0 3.282-0 5.943-2.661 5.943-5.943 0-0.003 0-0.007 0-0.011-0.001-0.286 0.097-0.567 0.299-0.77zM18.654 1.143c0.191-0.19 0.501-0.19 0.691 0.001 0.101 0.101 0.15 0.241 0.149 0.384v0.006c0 1.641 1.331 2.971 2.972 2.972h0.006c0.143-0 0.283 0.048 0.384 0.148 0.191 0.191 0.191 0.502 0 0.693-0.101 0.101-0.241 0.149-0.384 0.148h-0.006c-1.641 0-2.971 1.331-2.972 2.972v0.006c0 0.143-0.049 0.283-0.149 0.384-0.191 0.191-0.5 0.191-0.691 0-0.101-0.101-0.15-0.241-0.149-0.384v-0.006c-0-1.641-1.331-2.971-2.972-2.972-0.002 0-0.005 0-0.007 0-0.143 0-0.283-0.049-0.384-0.149-0.19-0.191-0.19-0.5 0-0.691 0.101-0.101 0.242-0.15 0.385-0.149h0.006c1.641-0 2.972-1.331 2.972-2.972v-0.006c-0-0.143 0.048-0.284 0.149-0.385z"></path>
</svg>
