<!-- Generated by IcoMoon.io -->
<svg version="1.1" xmlns="http://www.w3.org/2000/svg" width="24" height="24" viewBox="0 0 24 24">
<path d="M10 20c0 0.552 0.448 1 1 1h2c0.552 0 1-0.448 1-1v-16c0-0.552-0.448-1-1-1h-2c-0.552 0-1 0.448-1 1v16z"></path>
<path d="M16 20c0 0.552 0.448 1 1 1h3c1.11 0 2-0.9 2-2v-14c0-1.11-0.89-2-2-2h-3c-0.552 0-1 0.448-1 1v16zM20 19h-2v-14h2v14z"></path>
<path d="M8 20c0 0.552-0.448 1-1 1h-3c-1.11 0-2-0.9-2-2v-14c0-1.11 0.89-2 2-2h3c0.552 0 1 0.448 1 1v16zM4 19h2v-14h-2v14z"></path>
</svg>
