<svg xmlns="http://www.w3.org/2000/svg" width="24" height="24" viewBox="0 0 24 24">
<title>sun</title>
<path d="M12.707 2.293c-0.188-0.188-0.442-0.293-0.707-0.293s-0.52 0.105-0.707 0.293c-0.188 0.188-0.293 0.442-0.293 0.707v1c0 0.265 0.105 0.52 0.293 0.707s0.442 0.293 0.707 0.293c0.265 0 0.52-0.105 0.707-0.293s0.293-0.442 0.293-0.707v-1c0-0.265-0.105-0.52-0.293-0.707z"></path>
<path d="M17.243 18.657l-0.707-0.707c-0.182-0.189-0.283-0.441-0.281-0.703s0.108-0.513 0.293-0.698c0.185-0.185 0.436-0.291 0.698-0.293s0.515 0.099 0.703 0.281l0.707 0.707c0.182 0.189 0.283 0.441 0.281 0.703s-0.108 0.513-0.293 0.698c-0.185 0.185-0.436 0.291-0.698 0.293s-0.515-0.099-0.703-0.281z"></path>
<path d="M18.949 6.050c0-0.265-0.105-0.519-0.293-0.707s-0.441-0.293-0.706-0.293-0.519 0.105-0.707 0.293l-0.707 0.707c-0.096 0.092-0.172 0.203-0.224 0.325s-0.080 0.253-0.081 0.386c-0.001 0.133 0.024 0.264 0.075 0.387s0.125 0.235 0.218 0.328c0.094 0.094 0.206 0.168 0.328 0.218s0.255 0.076 0.387 0.074c0.133-0.001 0.264-0.029 0.386-0.081s0.232-0.129 0.325-0.224l0.706-0.707c0.188-0.188 0.293-0.442 0.293-0.707z"></path>
<path d="M21.707 12.707c-0.188 0.188-0.442 0.293-0.707 0.293h-1c-0.265 0-0.52-0.105-0.707-0.293s-0.293-0.442-0.293-0.707c0-0.265 0.105-0.52 0.293-0.707s0.442-0.293 0.707-0.293h1c0.265 0 0.52 0.105 0.707 0.293s0.293 0.442 0.293 0.707c0 0.265-0.105 0.52-0.293 0.707z"></path>
<path d="M12.707 19.293c-0.188-0.188-0.442-0.293-0.707-0.293s-0.52 0.105-0.707 0.293c-0.188 0.188-0.293 0.442-0.293 0.707v1c0 0.265 0.105 0.52 0.293 0.707s0.442 0.293 0.707 0.293c0.265 0 0.52-0.105 0.707-0.293s0.293-0.442 0.293-0.707v-1c0-0.265-0.105-0.52-0.293-0.707z"></path>
<path d="M6.374 7.681c-0.121-0.050-0.232-0.124-0.324-0.217l-0.707-0.707c-0.182-0.189-0.283-0.441-0.281-0.703s0.107-0.513 0.293-0.698c0.185-0.185 0.436-0.291 0.698-0.293s0.515 0.099 0.703 0.281l0.708 0.707c0.093 0.093 0.166 0.203 0.217 0.325s0.076 0.251 0.076 0.383c-0 0.131-0.026 0.261-0.076 0.383s-0.124 0.232-0.217 0.324c-0.093 0.093-0.203 0.166-0.325 0.217s-0.251 0.076-0.383 0.076c-0.131-0-0.261-0.026-0.383-0.076z"></path>
<path d="M6.757 18.657l0.707-0.707c0.182-0.189 0.283-0.441 0.281-0.703s-0.107-0.513-0.293-0.698c-0.185-0.185-0.436-0.291-0.698-0.293s-0.515 0.099-0.703 0.281l-0.707 0.707c-0.182 0.189-0.283 0.441-0.281 0.703s0.107 0.513 0.293 0.698c0.185 0.185 0.436 0.291 0.698 0.293s0.515-0.099 0.703-0.281z"></path>
<path d="M4.707 12.707c-0.188 0.188-0.442 0.293-0.707 0.293h-1c-0.265 0-0.52-0.105-0.707-0.293s-0.293-0.442-0.293-0.707c0-0.265 0.105-0.52 0.293-0.707s0.442-0.293 0.707-0.293h1c0.265 0 0.52 0.105 0.707 0.293s0.293 0.442 0.293 0.707c0 0.265-0.105 0.52-0.293 0.707z"></path>
<path d="M17 12c0-2.761-2.239-5-5-5s-5 2.239-5 5c0 2.761 2.239 5 5 5s5-2.239 5-5zM15 12c0 1.657-1.343 3-3 3s-3-1.343-3-3c0-1.657 1.343-3 3-3s3 1.343 3 3z"></path>
</svg>
