<!-- Generated by IcoMoon.io -->
<svg version="1.1" xmlns="http://www.w3.org/2000/svg" width="24" height="24" viewBox="0 0 24 24">
<title>svg</title>
<path d="M20 12v-4l-6-6h-8c-1.1 0-2 0.9-2 2v16c0 1.1 0.9 2 2 2h12c1.1 0 2-0.9 2-2v-1h2v-7h-2zM13 3.5l5.5 5.5h-5.5v-5.5zM18 20h-12v-16h5v7h7v1h-9v7h9v1zM15.5 17l0.5-1v-3h1v3l-1 2h-1l-1-2v-3h1v3l0.5 1zM12 15c0.6 0 1 0.4 1 1v1c0 0.6-0.4 1-1 1h-2v-1h2v-1h-1c-0.6 0-1-0.4-1-1v-1c0-0.6 0.4-1 1-1h2v1h-2v1h1zM21 14h-2v3h1v-2h1v2c0 0.6-0.4 1-1 1h-1c-0.6 0-1-0.4-1-1v-3c0-0.6 0.4-1 1-1h2v1z"></path>
</svg>
