<!-- Generated by IcoMoon.io -->
<svg version="1.1" xmlns="http://www.w3.org/2000/svg" width="24" height="24" viewBox="0 0 24 24">
<title>table-cell-properties</title>
<path d="M23.56 16.59l-1.15-1.15c-0.27-0.273-0.645-0.443-1.060-0.443s-0.79 0.169-1.060 0.443l-5.29 5.29v3.27h3.27l5.29-5.29c0.273-0.27 0.443-0.645 0.443-1.060s-0.169-0.79-0.443-1.060l-0-0zM17.56 22.45h-1v-1l3.44-3.45 1 1-3.44 3.45z"></path>
<path d="M20 2h-16c-1.105 0-2 0.895-2 2v16c0 1.105 0.895 2 2 2h9v-2h-3v-2h-2v2h-4v-4h2v-2h-2v-4h2v-2h-2v-4h4v2h2v-2h4v2h2v-2h4v4h-2v2h2v3h2v-9c0-1.105-0.895-2-2-2z"></path>
<path d="M17 7h-10v10h7.43l2.57-2.57v-7.43zM10 14v-4h4v4h-4z"></path>
</svg>
