<!-- Generated by IcoMoon.io -->
<svg version="1.1" xmlns="http://www.w3.org/2000/svg" width="24" height="24" viewBox="0 0 24 24">
<path d="M21.41 11.58l-9-9c-0.361-0.358-0.859-0.58-1.408-0.58-0.001 0-0.001 0-0.002 0h-7c-1.105 0-2 0.895-2 2v0 7c0 0 0 0.001 0 0.002 0 0.554 0.226 1.056 0.59 1.418l9 9c0.361 0.358 0.859 0.58 1.408 0.58 0.001 0 0.001 0 0.002 0h-0c0.551-0.002 1.050-0.227 1.41-0.59l7-7c0.363-0.36 0.588-0.859 0.59-1.41v-0c0-0 0-0.001 0-0.002 0-0.554-0.226-1.056-0.59-1.418l-0-0zM13 20l-9-9v-7h7l9 9zM6.5 5c0.828 0 1.5 0.672 1.5 1.5s-0.672 1.5-1.5 1.5c-0.828 0-1.5-0.672-1.5-1.5v0c0-0.828 0.672-1.5 1.5-1.5v0z"></path>
</svg>
