<!-- Generated by IcoMoon.io -->
<svg version="1.1" xmlns="http://www.w3.org/2000/svg" width="24" height="24" viewBox="0 0 24 24">
<title>tips</title>
<path d="M12 3c-0.46 0-0.93 0.040-1.4 0.14-2.76 0.53-4.96 2.76-5.48 5.52-0.48 2.61 0.48 5.010 2.22 6.56 0.43 0.38 0.66 0.91 0.66 1.47v2.31c0 1.1 0.9 2 2 2h0.28c0.35 0.6 0.98 1 1.72 1s1.38-0.4 1.72-1h0.28c1.1 0 2-0.9 2-2v-2.31c0-0.55 0.22-1.090 0.64-1.46 1.45-1.28 2.36-3.15 2.36-5.23 0-3.87-3.13-7-7-7zM14 19h-4v-1h4v1zM14 17h-4v-1h4v1zM12.5 11.41v2.59h-1v-2.59l-1.83-1.82 0.71-0.71 1.62 1.62 1.62-1.62 0.71 0.71-1.83 1.82z"></path>
</svg>
