<!-- Generated by IcoMoon.io -->
<svg version="1.1" xmlns="http://www.w3.org/2000/svg" width="24" height="24" viewBox="0 0 24 24">
<path d="M15 5v6c0 0.552-0.448 1-1 1s-1-0.448-1-1v-6h-4v14h3c0.552 0 1 0.448 1 1s-0.448 1-1 1h-8c-1.11 0-2-0.9-2-2v-14c0-1.11 0.89-2 2-2h14c1.1 0 2 0.89 2 2v4c0 0.552-0.448 1-1 1s-1-0.448-1-1v-4h-3zM7 19v-14h-3v14h3z"></path>
<path d="M18 12c-1.657 0-3 1.343-3 3v1.022c-0.526 0.112-1 0.645-1 1.178v3.5c0 0.7 0.6 1.3 1.2 1.3h5.5c0.7 0 1.3-0.6 1.3-1.2v-3.5c0-0.7-0.6-1.3-1.2-1.3h-4.3v-1c0-0.828 0.672-1.5 1.5-1.5 0.444 0 0.843 0.193 1.118 0.5h1.711c-0.412-1.165-1.523-2-2.829-2z"></path>
</svg>
