<!-- Generated by IcoMoon.io -->
<svg version="1.1" xmlns="http://www.w3.org/2000/svg" width="24" height="24" viewBox="0 0 24 24">
<path d="M22.5 16.9l-2.1 2.1 2.1 2.1-1.4 1.4-2.1-2.1-2.1 2.1-1.4-1.4 2.1-2.1-2.1-2.1 1.4-1.4 2.1 2.1 2.1-2.1 1.4 1.4z"></path>
<path d="M20 5c1.105 0 2 0.895 2 2v6.804c-0.607-0.351-1.282-0.599-2-0.72v-6.084h-16v10h9.343c-0.221 0.626-0.343 1.299-0.343 2h-9c-1.105 0-2-0.895-2-2v-10c0-1.105 0.895-2 2-2h16z"></path>
<path d="M8 13h-2v-2h2v2z"></path>
<path d="M17 13h-7v-2h7v2z"></path>
</svg>
