<!-- Generated by IcoMoon.io -->
<svg version="1.1" xmlns="http://www.w3.org/2000/svg" width="24" height="24" viewBox="0 0 24 24">
<title>variable</title>
<path d="M7.4 7.4l-1.4-1.4-6 6 6 6 1.4-1.4-4.6-4.6 4.6-4.6z"></path>
<path d="M18 6l-1.4 1.4 4.6 4.6-4.6 4.6 1.4 1.4 6-6-6-6z"></path>
<path d="M12.4 14.2h-1.3l-0.5 2.8h-1.2l0.5-2.8h-1.6v-1.2h1.8l0.3-2h-1.6v-1.1h1.8l0.5-2.9h1.3l-0.5 2.9h1.3l0.5-2.9h1.3l-0.5 2.9h1.5v1.1h-1.7l-0.3 2h1.5v1.2h-1.7l-0.6 2.8h-1.2l0.4-2.8zM11.3 13h1.3l0.3-2h-1.3l-0.3 2z"></path>
</svg>
