<!-- Generated by IcoMoon.io -->
<svg version="1.1" xmlns="http://www.w3.org/2000/svg" width="24" height="24" viewBox="0 0 24 24">
<title>xls</title>
<path d="M20 12v-4l-6-6h-8c-1.105 0-2 0.895-2 2v0 16c0 1.105 0.895 2 2 2v0h12c1.105 0 2-0.895 2-2v0-1h2v-7zM13 3.5l5.5 5.5h-5.5zM18 20h-12v-16h5v7h7v1h-9v7h9zM17 17v1h-3v-5h1v4zM13 17v1h-1l-0.5-1-0.5 1h-1v-1l1-1v-1l-1-1v-1h1l0.5 1 0.5-1h1v1l-1 1v1zM21 14h-2v1h1c0.552 0 1 0.448 1 1v0 1c0 0.552-0.448 1-1 1v0h-2v-1h2v-1h-1c-0.552 0-1-0.448-1-1v0-1c0-0.552 0.448-1 1-1v0h2z"></path>
</svg>
