<svg version="1.1" xmlns="http://www.w3.org/2000/svg" width="24" height="24" viewBox="0 0 24 24">
<path d="M19.6 21l-6.3-6.3c-0.5 0.4-1.075 0.717-1.725 0.95s-1.342 0.35-2.075 0.35c-1.817 0-3.354-0.629-4.613-1.887s-1.887-2.796-1.887-4.613c0-1.817 0.629-3.354 1.887-4.612s2.796-1.887 4.613-1.887c1.817 0 3.354 0.629 4.612 1.887s1.887 2.796 1.887 4.612c0 0.733-0.117 1.425-0.35 2.075s-0.55 1.225-0.95 1.725l6.3 6.3-1.4 1.4zM9.5 14c1.25 0 2.313-0.438 3.188-1.313s1.313-1.938 1.313-3.188c0-1.25-0.438-2.313-1.313-3.187s-1.938-1.313-3.188-1.313c-1.25 0-2.313 0.438-3.188 1.313s-1.313 1.938-1.313 3.187c0 1.25 0.438 2.313 1.313 3.188s1.938 1.313 3.188 1.313zM8.5 12.5v-2h-2v-2h2v-2h2v2h2v2h-2v2h-2z"></path>
</svg>
