<?xml version="1.0" encoding="utf-8"?>
<svg version="1.1" id="_x31_" xmlns="http://www.w3.org/2000/svg" xmlns:xlink="http://www.w3.org/1999/xlink" x="0px" y="0px"
	 viewBox="0 0 64 64" style="enable-background:new 0 0 64 64;" xml:space="preserve">
<style type="text/css">
	.st0{fill-rule:evenodd;clip-rule:evenodd;}
	.st1{opacity:0.5;}
</style>
<g id="_x34_">
	<path id="_x35_" class="st0" d="M58,46h-8c-1.1,0-2-0.9-2-2v-8c0-1.1,0.9-2,2-2h8c1.1,0,2,0.9,2,2v8C60,45.1,59.1,46,58,46z M58,36
		h-8v8h8V36z M44,60h-8c-1.1,0-2-0.9-2-2v-8c0-1.1,0.9-2,2-2h8c1.1,0,2,0.9,2,2v8C46,59.1,45.1,60,44,60z M44,50h-8v8h8V50z M44,32
		h-8c-1.1,0-2-0.9-2-2v-8c0-1.1,0.9-2,2-2h8c1.1,0,2,0.9,2,2v8C46,31.1,45.1,32,44,32z M44,22h-8v8h8V22z M44,16h-8
		c-1.1,0-2-0.9-2-2V6c0-1.1,0.9-2,2-2h8c1.1,0,2,0.9,2,2v8C46,15.1,45.1,16,44,16z M44,6h-8v8h8V6z M30,46h-8c-1.1,0-2-0.9-2-2v-8
		c0-1.1,0.9-2,2-2h8c1.1,0,2,0.9,2,2v8C32,45.1,31.1,46,30,46z M30,36h-8v8h8V36z M6,54h5V4h2v50h5l-6,6L6,54z" fill="currentColor" />
</g>
<g id="_x32_" class="st1">
	<path id="_x33_" class="st0" d="M53,55h-7v-2h7v-7h2v7v2H53z M53,27h-7v-2h7h2v2v7h-2V27z M39,16h2v4h-2V16z M25,55v-2v-7h2v7h7v2
		h-7H25z M27,34h-2v-7v-2h2h7v2h-7V34z" fill="currentColor" />
</g>
</svg>
