<?xml version="1.0" encoding="utf-8"?>
<svg version="1.1" id="_x31_" xmlns="http://www.w3.org/2000/svg" xmlns:xlink="http://www.w3.org/1999/xlink" x="0px" y="0px"
	 viewBox="0 0 64 64" style="enable-background:new 0 0 64 64;" xml:space="preserve">
<style type="text/css">
	.st0{fill-rule:evenodd;clip-rule:evenodd;}
	.st1{opacity:0.5;}
</style>
<g id="_x34_">
	<path id="_x35_" class="st0" d="M59,6v6c0,1.1-0.9,2-2,2h-6c-1.1,0-2-0.9-2-2V6c0-1.1,0.9-2,2-2h6C58.1,4,59,4.9,59,6z M57,6h-6v6
		h6V6z M59,26v6c0,1.1-0.9,2-2,2h-6c-1.1,0-2-0.9-2-2v-6c0-1.1,0.9-2,2-2h6C58.1,24,59,24.9,59,26z M57,26h-6v6h6V26z M49,38v6
		c0,1.1-0.9,2-2,2h-6c-1.1,0-2-0.9-2-2v-6c0-1.1,0.9-2,2-2h6C48.1,36,49,36.9,49,38z M47,38h-6v6h6V38z M49,52v6c0,1.1-0.9,2-2,2h-6
		c-1.1,0-2-0.9-2-2v-6c0-1.1,0.9-2,2-2h6C48.1,50,49,50.9,49,52z M47,52h-6v6h6V52z M39,32c0,1.1-0.9,2-2,2h-6c-1.1,0-2-0.9-2-2v-6
		c0-1.1,0.9-2,2-2h6c1.1,0,2,0.9,2,2V32z M37,26h-6v6h6V26z M30,14h-6c-1.1,0-2-0.9-2-2V6c0-1.1,0.9-2,2-2h6c1.1,0,2,0.9,2,2v6
		C32,13.1,31.1,14,30,14z M24,12h6V6h-6V12z M17,10h-5v50h-2V10H5l6-6L17,10z M36,12V6c0-1.1,0.9-2,2-2h6c1.1,0,2,0.9,2,2v6
		c0,1.1-0.9,2-2,2h-6C36.9,14,36,13.1,36,12z M38,12h6V6h-6V12z" fill="currentColor" />
</g>
<g id="_x32_" class="st1">
	<path id="_x33_" class="st0" d="M55,14v10h-2V14H55z M53,34h2v6v2h-2h-4v-2h4V34z M43,46h2v4h-2V46z M40,14h2v6h-7v4h-2v-4h-7v-6h2
		v4h5h2h4.9L40,14z M35,40h4v2h-4h-2v-2v-6h2V40z" fill="currentColor" />
</g>
</svg>
