<?xml version="1.0" encoding="utf-8"?>
<svg version="1.1" id="_x31_" xmlns="http://www.w3.org/2000/svg" xmlns:xlink="http://www.w3.org/1999/xlink" x="0px" y="0px"
	 viewBox="0 0 64 64" style="enable-background:new 0 0 64 64;" xml:space="preserve">
<style type="text/css">
	.st0{fill-rule:evenodd;clip-rule:evenodd;}
	.st1{opacity:0.5;}
</style>
<g id="_x34_">
	<path id="_x35_" class="st0" d="M45,59h-8c-1.1,0-2-0.9-2-2v-8c0-1.1,0.9-2,2-2h8c1.1,0,2,0.9,2,2v8C47,58.1,46.1,59,45,59z M45,57
		v-8h-8v8H45z M59,45h-8c-1.1,0-2-0.9-2-2v-8c0-1.1,0.9-2,2-2h8c1.1,0,2,0.9,2,2v8C61,44.1,60.1,45,59,45z M59,43v-8h-8v8H59z
		 M31,45h-8c-1.1,0-2-0.9-2-2v-8c0-1.1,0.9-2,2-2h8c1.1,0,2,0.9,2,2v8C33,44.1,32.1,45,31,45z M31,43v-8h-8v8H31z M15,45H7
		c-1.1,0-2-0.9-2-2v-8c0-1.1,0.9-2,2-2h8c1.1,0,2,0.9,2,2v8C17,44.1,16.1,45,15,45z M15,43v-8H7v8H15z M45,31h-8c-1.1,0-2-0.9-2-2
		v-8c0-1.1,0.9-2,2-2h8c1.1,0,2,0.9,2,2v8C47,30.1,46.1,31,45,31z M45,29v-8h-8v8H45z M61,11l-6,6v-5H5v-2h50V5L61,11z" fill="currentColor" />
</g>
<g id="_x32_" class="st1">
	<path id="_x33_" class="st0" d="M56,54h-2h-7v-2h7v-7h2v7V54z M35,52v2h-7h-2v-2v-7h2v7H35z M21,38v2h-4v-2H21z M56,26v7h-2v-7h-7
		v-2h7h2V26z M28,26v7h-2v-7v-2h2h7v2H28z" fill="currentColor" />
</g>
</svg>
