<?xml version="1.0" encoding="utf-8"?>
<svg version="1.1" id="_x31_" xmlns="http://www.w3.org/2000/svg" xmlns:xlink="http://www.w3.org/1999/xlink" x="0px" y="0px"
	 viewBox="0 0 64 64" style="enable-background:new 0 0 64 64;" xml:space="preserve">
<style type="text/css">
	.st0{fill-rule:evenodd;clip-rule:evenodd;}
	.st1{opacity:0.5;}
</style>
<g id="_x34_">
	<path id="_x35_" class="st0" d="M58,59h-6c-1.1,0-2-0.9-2-2v-6c0-1.1,0.9-2,2-2h6c1.1,0,2,0.9,2,2v6C60,58.1,59.1,59,58,59z M58,57
		v-6h-6v6H58z M38,59h-6c-1.1,0-2-0.9-2-2v-6c0-1.1,0.9-2,2-2h6c1.1,0,2,0.9,2,2v6C40,58.1,39.1,59,38,59z M38,57v-6h-6v6H38z
		 M26,49h-6c-1.1,0-2-0.9-2-2v-6c0-1.1,0.9-2,2-2h6c1.1,0,2,0.9,2,2v6C28,48.1,27.1,49,26,49z M26,47v-6h-6v6H26z M12,49H6
		c-1.1,0-2-0.9-2-2v-6c0-1.1,0.9-2,2-2h6c1.1,0,2,0.9,2,2v6C14,48.1,13.1,49,12,49z M12,47v-6H6v6H12z M32,39c-1.1,0-2-0.9-2-2v-6
		c0-1.1,0.9-2,2-2h6c1.1,0,2,0.9,2,2v6c0,1.1-0.9,2-2,2H32z M38,37v-6h-6v6H38z M50,30v-6c0-1.1,0.9-2,2-2h6c1.1,0,2,0.9,2,2v6
		c0,1.1-0.9,2-2,2h-6C50.9,32,50,31.1,50,30z M52,24v6h6v-6H52z M54,17v-5H4v-2h50V5l6,6L54,17z M52,36h6c1.1,0,2,0.9,2,2v6
		c0,1.1-0.9,2-2,2h-6c-1.1,0-2-0.9-2-2v-6C50,36.9,50.9,36,52,36z M52,38v6h6v-6H52z" fill="currentColor" />
</g>
<g id="_x32_" class="st1">
	<path id="_x33_" class="st0" d="M50,55H40v-2h10V55z M30,53v2h-6h-2v-2v-4h2v4H30z M18,43v2h-4v-2H18z M50,40v2h-6v-7h-4v-2h4v-7h6
		v2h-4v5v2v4.9L50,40z M24,35v4h-2v-4v-2h2h6v2H24z" fill="currentColor" />
</g>
</svg>
