<?xml version="1.0" encoding="utf-8"?>
<!-- Generator: Adobe Illustrator 24.0.2, SVG Export Plug-In . SVG Version: 6.00 Build 0)  -->
<svg version="1.1" id="_x30_" xmlns="http://www.w3.org/2000/svg" xmlns:xlink="http://www.w3.org/1999/xlink" x="0px" y="0px"
	 viewBox="0 0 32 32" style="enable-background:new 0 0 32 32;" xml:space="preserve">
<style type="text/css">
	.st0{fill-rule:evenodd;clip-rule:evenodd;}
	.st1{fill:#FFFFFF;}
</style>
<g id="_x31_">
	<path class="st0" d="M13,30.5c-1.2,0-2.2-0.9-2.4-2H5c-0.3,0-0.5-0.2-0.5-0.5v-2c0-0.3,0.2-0.5,0.5-0.5h5.6c0.2-1.1,1.2-2,2.4-2
		h1.5v-3.1c-4.6-0.7-8-4.7-8-9.4c0-5.2,4.3-9.5,9.5-9.5c5.2,0,9.5,4.3,9.5,9.5c0,4.7-3.4,8.7-8,9.4v3.1H19c1.2,0,2.2,0.9,2.5,2H27
		c0.3,0,0.5,0.2,0.5,0.5v2c0,0.3-0.2,0.5-0.5,0.5h-5.5c-0.2,1.1-1.2,2-2.5,2H13z M15.2,14.5c0.3,0.9,0.6,1.7,0.8,2.3
		c0.2-0.6,0.5-1.4,0.8-2.3H15.2z M20.1,14.5c-0.2,0.7-0.4,1.2-0.5,1.7c0.6-0.5,1.1-1,1.5-1.7H20.1z M10.9,14.5
		c0.4,0.7,0.9,1.2,1.5,1.7c-0.2-0.5-0.4-1-0.5-1.7H10.9z M22.5,11.5c0-0.2,0-0.3,0-0.5s0-0.3,0-0.5h-1.6c0,0.2,0,0.3,0,0.5
		s0,0.3,0,0.5H22.5z M17.5,11.5c0-0.2,0-0.3,0-0.5s0-0.3,0-0.5h-3c0,0.2,0,0.3,0,0.5s0,0.3,0,0.5H17.5z M11.1,11.5
		c0-0.2,0-0.3,0-0.5s0-0.3,0-0.5H9.5c0,0.2,0,0.3,0,0.5s0,0.3,0,0.5H11.1z M21.1,7.5c-0.4-0.7-0.9-1.2-1.5-1.7
		c0.2,0.5,0.4,1,0.5,1.7H21.1z M16.8,7.5c-0.3-0.9-0.6-1.7-0.8-2.3c-0.2,0.6-0.5,1.4-0.8,2.3H16.8z M11.9,7.5
		c0.2-0.7,0.4-1.2,0.5-1.7c-0.6,0.5-1.1,1-1.5,1.7H11.9z"/>
	<path class="st1" d="M16,2c5,0,9,4,9,9c0,4.6-3.5,8.4-8,8.9V20v4h2c1.1,0,2,0.9,2,2h6v2h-6c0,1.1-0.9,2-2,2h-6c-1.1,0-2-0.9-2-2H5
		v-2h6c0-1.1,0.9-2,2-2h2v-4v-0.1c-4.5-0.5-8-4.3-8-8.9C7,6,11,2,16,2 M14.5,8h2.9C16.9,5.7,16,4,16,4S15.1,5.7,14.5,8 M13.4,4.6
		C12,5.2,10.8,6.5,10,8h2.2C12.6,6.5,13.1,5.2,13.4,4.6 M19.8,8H22c-0.8-1.5-2-2.7-3.4-3.4C18.9,5.2,19.4,6.5,19.8,8 M20.3,12h2.6
		c0.1-0.3,0.1-0.7,0.1-1c0-0.3,0-0.7-0.1-1h-2.6c0,0.3,0.1,0.7,0.1,1C20.4,11.3,20.3,11.7,20.3,12 M14,12H18c0-0.3,0.1-0.7,0.1-1
		c0-0.3,0-0.7-0.1-1H14c0,0.3-0.1,0.7-0.1,1C14,11.3,14,11.7,14,12 M11.7,10H9.1C9,10.3,9,10.7,9,11c0,0.3,0,0.7,0.1,1h2.6
		c0-0.3-0.1-0.7-0.1-1C11.6,10.7,11.7,10.3,11.7,10 M22,14h-2.2c-0.4,1.5-0.9,2.8-1.2,3.4C20,16.8,21.2,15.5,22,14 M17.5,14h-2.9
		c0.6,2.3,1.5,4,1.5,4S16.9,16.3,17.5,14 M13.4,17.4c-0.3-0.7-0.8-1.9-1.2-3.4H10C10.8,15.5,12,16.7,13.4,17.4 M16,1
		C10.5,1,6,5.5,6,11c0,4.8,3.4,8.9,8,9.8V23h-1c-1.3,0-2.4,0.8-2.8,2H5c-0.6,0-1,0.4-1,1v2c0,0.6,0.4,1,1,1h5.2c0.4,1.2,1.5,2,2.8,2
		h6c1.3,0,2.4-0.8,2.8-2H27c0.6,0,1-0.4,1-1v-2c0-0.6-0.4-1-1-1h-5.2c-0.4-1.2-1.5-2-2.8-2h-1v-2.2c4.6-0.9,8-5,8-9.8
		C26,5.5,21.5,1,16,1L16,1z M15.9,7c0-0.1,0.1-0.2,0.1-0.4c0,0.1,0.1,0.2,0.1,0.4H15.9L15.9,7z M21.4,11H22c0,0,0,0,0,0c0,0,0,0,0,0
		L21.4,11C21.4,11,21.4,11,21.4,11C21.4,11,21.4,11,21.4,11L21.4,11z M15,11H17c0,0,0,0,0,0c0,0,0,0,0,0L15,11C15,11,15,11,15,11
		C15,11,15,11,15,11L15,11z M10,11h0.6c0,0,0,0,0,0c0,0,0,0,0,0L10,11C10,11,10,11,10,11C10,11,10,11,10,11L10,11z M15.9,15h0.2
		c0,0.1-0.1,0.2-0.1,0.4C16,15.2,15.9,15.1,15.9,15L15.9,15z"/>
</g>
</svg>
