<?xml version="1.0" encoding="utf-8"?>
<!-- Generator: Adobe Illustrator 24.0.2, SVG Export Plug-In . SVG Version: 6.00 Build 0)  -->
<svg version="1.1" id="_x30_" xmlns="http://www.w3.org/2000/svg" xmlns:xlink="http://www.w3.org/1999/xlink" x="0px" y="0px"
	 viewBox="0 0 32 32" style="enable-background:new 0 0 32 32;" xml:space="preserve">
<style type="text/css">
	.st0{fill-rule:evenodd;clip-rule:evenodd;}
	.st1{fill:#FFFFFF;}
</style>
<g id="_x31_">
	<path class="st0" d="M6,30.5c-0.7,0-1.2-0.4-1.4-1H4c-1.4,0-2.5-1.1-2.5-2.5v-3c0-1.4,1.1-2.5,2.5-2.5h1c-0.3,0-0.5-0.2-0.5-0.5v-1
		c0-0.3,0.2-0.5,0.5-0.5h17c0.3,0,0.5,0.2,0.5,0.5v1c0,0.3-0.2,0.5-0.5,0.5h3.7L8.7,5.4C8.6,5.3,8.5,5.1,8.5,5
		c0-0.1,0.1-0.3,0.1-0.4l2-2c0.1-0.1,0.2-0.1,0.4-0.1c0.1,0,0.2,0,0.3,0.1l19,18c0.1,0.1,0.2,0.2,0.2,0.4v6c0,1.2-0.9,2.3-2.1,2.5
		c-0.2,0.6-0.8,1-1.4,1H6z M26.5,24.5c-0.6,0-1,0.4-1,1s0.4,1,1,1s1-0.4,1-1S27.1,24.5,26.5,24.5z"/>
	<path class="st1" d="M11,3l19,18v3v3c0,1.1-0.9,2-2,2c0,0.6-0.4,1-1,1H6c-0.6,0-1-0.4-1-1H4c-1.1,0-2-0.9-2-2v-3c0-1.1,0.9-2,2-2
		h23L9,5L11,3 M26.5,27c0.8,0,1.5-0.7,1.5-1.5S27.3,24,26.5,24c-0.8,0-1.5,0.7-1.5,1.5S25.7,27,26.5,27 M22,20v1H5v-1H22 M11,2
		c-0.3,0-0.5,0.1-0.7,0.3l-2,2C8.1,4.5,8,4.7,8,5c0,0.3,0.1,0.5,0.3,0.7l14.2,13.4C22.4,19.1,22.2,19,22,19H5c-0.6,0-1,0.4-1,1v1
		c-1.7,0-3,1.3-3,3v3c0,1.7,1.3,3,3,3h0.3c0.3,0.6,1,1,1.7,1h21c0.8,0,1.5-0.5,1.8-1.1c1.3-0.3,2.2-1.5,2.2-2.9v-3v-3
		c0-0.3-0.1-0.5-0.3-0.7l-19-18C11.5,2.1,11.2,2,11,2L11,2z M23,21v-1c0-0.2-0.1-0.4-0.2-0.6l1.7,1.6H23L23,21z M26.5,26
		c-0.3,0-0.5-0.2-0.5-0.5s0.2-0.5,0.5-0.5c0.3,0,0.5,0.2,0.5,0.5S26.8,26,26.5,26L26.5,26z"/>
</g>
</svg>
