<?xml version="1.0" encoding="utf-8"?>
<!-- Generator: Adobe Illustrator 24.0.2, SVG Export Plug-In . SVG Version: 6.00 Build 0)  -->
<svg version="1.1" id="_x30_" xmlns="http://www.w3.org/2000/svg" xmlns:xlink="http://www.w3.org/1999/xlink" x="0px" y="0px"
	 viewBox="0 0 32 32" style="enable-background:new 0 0 32 32;" xml:space="preserve">
<style type="text/css">
	.st0{fill-rule:evenodd;clip-rule:evenodd;}
	.st1{fill:#FFFFFF;}
</style>
<g id="_x31_">
	<path class="st0" d="M3,27.5c-1.4,0-2.5-1.1-2.5-2.5s1.1-2.5,2.5-2.5h1c-0.3-0.4-0.5-0.9-0.5-1.5V7c0-1.4,1.1-2.5,2.5-2.5h20
		c1.4,0,2.5,1.1,2.5,2.5v14c0,0.6-0.2,1.1-0.5,1.5h1c1.4,0,2.5,1.1,2.5,2.5s-1.1,2.5-2.5,2.5H3z M25.5,20.5v-13h-19v13H25.5z"/>
	<path class="st1" d="M26,5c1.1,0,2,0.9,2,2v14c0,1.1-0.9,2-2,2h3c1.1,0,2,0.9,2,2s-0.9,2-2,2H3c-1.1,0-2-0.9-2-2s0.9-2,2-2h3
		c-1.1,0-2-0.9-2-2V7c0-1.1,0.9-2,2-2H26 M6,21h20V7H6V21 M14,23h4v-1h-4V23 M26,4H6C4.3,4,3,5.3,3,7v14c0,0.4,0.1,0.7,0.2,1H3
		c-1.7,0-3,1.3-3,3c0,1.7,1.3,3,3,3h26c1.7,0,3-1.3,3-3c0-1.7-1.3-3-3-3h-0.2c0.1-0.3,0.2-0.6,0.2-1V7C29,5.3,27.7,4,26,4L26,4z
		 M7,8h18v12H7V8L7,8z"/>
</g>
</svg>
