<?xml version="1.0" encoding="utf-8"?>
<!-- Generator: Adobe Illustrator 24.0.2, SVG Export Plug-In . SVG Version: 6.00 Build 0)  -->
<svg version="1.1" id="_x30_" xmlns="http://www.w3.org/2000/svg" xmlns:xlink="http://www.w3.org/1999/xlink" x="0px" y="0px"
	 viewBox="0 0 32 32" style="enable-background:new 0 0 32 32;" xml:space="preserve">
<style type="text/css">
	.st0{fill-rule:evenodd;clip-rule:evenodd;}
	.st1{fill:#FFFFFF;}
</style>
<g id="_x31_">
	<path class="st0" d="M3,31.5c-0.8,0-1.5-0.7-1.5-1.5v-6c0-0.8,0.7-1.5,1.5-1.5h5c-0.3,0-0.5-0.2-0.5-0.5v-1c0-0.3,0.2-0.5,0.5-0.5
		h4.5v-2H6c-2,0-3.5-1.5-3.5-3.5V4C2.5,2,4,0.5,6,0.5h20c2,0,3.5,1.5,3.5,3.5v11c0,2-1.5,3.5-3.5,3.5h-6.5v2H23
		c0.3,0,0.5,0.2,0.5,0.5v1c0,0.3-0.2,0.5-0.5,0.5h6c0.8,0,1.5,0.7,1.5,1.5v6c0,0.8-0.7,1.5-1.5,1.5H3z M26,25.5
		c-0.8,0-1.5,0.7-1.5,1.5s0.7,1.5,1.5,1.5s1.5-0.7,1.5-1.5S26.8,25.5,26,25.5z M6,26.5c-0.2,0-0.5,0.3-0.5,0.5s0.3,0.5,0.5,0.5h2
		c0.2,0,0.5-0.3,0.5-0.5S8.2,26.5,8,26.5H6z M16,16.5c-0.3,0-0.5,0.2-0.5,0.5s0.2,0.5,0.5,0.5s0.5-0.2,0.5-0.5S16.3,16.5,16,16.5z
		 M26.5,14.5v-11h-21v11H26.5z"/>
	<path class="st1" d="M26,1c1.7,0,3,1.3,3,3v1.8V13v2c0,1.7-1.3,3-3,3h-7v3h4v1H8v-1h5v-3H6c-1.7,0-3-1.3-3-3v-2V4c0-1.7,1.3-3,3-3
		h1.8H26 M5,15h22V3H5V15 M16,18c0.6,0,1-0.4,1-1s-0.4-1-1-1s-1,0.4-1,1S15.4,18,16,18 M29,23c0.5,0,1,0.5,1,1v6c0,0.5-0.5,1-1,1H3
		c-0.5,0-1-0.5-1-1v-6c0-0.5,0.5-1,1-1H29 M26,29c1.1,0,2-0.9,2-2s-0.9-2-2-2s-2,0.9-2,2S24.9,29,26,29 M6,28h2c0.5,0,1-0.5,1-1
		s-0.5-1-1-1H6c-0.5,0-1,0.5-1,1S5.5,28,6,28 M26,0H7.8H6C3.8,0,2,1.8,2,4v9v2c0,2.2,1.8,4,4,4h6v1H8c-0.6,0-1,0.4-1,1v1H3
		c-1,0-2,1-2,2v6c0,1,1,2,2,2h26c1,0,2-1,2-2v-6c0-1-1-2-2-2h-5v-1c0-0.6-0.4-1-1-1h-3v-1h6c2.2,0,4-1.8,4-4v-2V5.8V4
		C30,1.8,28.2,0,26,0L26,0z M6,4h20v10H6V4L6,4z M26,28c-0.6,0-1-0.4-1-1s0.4-1,1-1s1,0.4,1,1S26.6,28,26,28L26,28z M6,27H8H6L6,27z
		"/>
</g>
</svg>
