<?xml version="1.0" encoding="utf-8"?>
<!-- Generator: Adobe Illustrator 24.0.2, SVG Export Plug-In . SVG Version: 6.00 Build 0)  -->
<svg version="1.1" id="_x30_" xmlns="http://www.w3.org/2000/svg" xmlns:xlink="http://www.w3.org/1999/xlink" x="0px" y="0px"
	 viewBox="0 0 32 32" style="enable-background:new 0 0 32 32;" xml:space="preserve">
<style type="text/css">
	.st0{fill-rule:evenodd;clip-rule:evenodd;}
	.st1{fill:#FFFFFF;}
</style>
<g id="_x32_">
	<path class="st0" d="M13,30.5c-1.2,0-2.2-0.9-2.4-2H5c-0.3,0-0.5-0.2-0.5-0.5v-2c0-0.3,0.2-0.5,0.5-0.5h5.6c0.2-1.1,1.2-2,2.4-2
		h1.5v-5H7c-3.6,0-6.5-2.9-6.5-6.5S3.4,5.5,7,5.5h18c3.6,0,6.5,2.9,6.5,6.5s-2.9,6.5-6.5,6.5h-7.5v5H19c1.2,0,2.2,0.9,2.5,2H27
		c0.3,0,0.5,0.2,0.5,0.5v2c0,0.3-0.2,0.5-0.5,0.5h-5.5c-0.2,1.1-1.2,2-2.5,2H13z M25,8.5c-1.9,0-3.5,1.6-3.5,3.5s1.6,3.5,3.5,3.5
		s3.5-1.6,3.5-3.5S26.9,8.5,25,8.5z M15,10.5c-0.8,0-1.5,0.7-1.5,1.5s0.7,1.5,1.5,1.5s1.5-0.7,1.5-1.5S15.8,10.5,15,10.5z M10,10.5
		c-0.8,0-1.5,0.7-1.5,1.5s0.7,1.5,1.5,1.5s1.5-0.7,1.5-1.5S10.8,10.5,10,10.5z M5,10.5c-0.8,0-1.5,0.7-1.5,1.5s0.7,1.5,1.5,1.5
		s1.5-0.7,1.5-1.5S5.8,10.5,5,10.5z"/>
	<path class="st1" d="M25,6c3.3,0,6,2.7,6,6s-2.7,6-6,6h-8v6h2c1.1,0,2,0.9,2,2h6v2h-6c0,1.1-0.9,2-2,2h-6c-1.1,0-2-0.9-2-2H5v-2h6
		c0-1.1,0.9-2,2-2h2v-6H7c-3.3,0-6-2.7-6-6s2.7-6,6-6H25 M25,16c2.2,0,4-1.8,4-4s-1.8-4-4-4s-4,1.8-4,4S22.8,16,25,16 M15,14
		c1.1,0,2-0.9,2-2s-0.9-2-2-2s-2,0.9-2,2S13.9,14,15,14 M10,14c1.1,0,2-0.9,2-2s-0.9-2-2-2s-2,0.9-2,2S8.9,14,10,14 M5,14
		c1.1,0,2-0.9,2-2s-0.9-2-2-2s-2,0.9-2,2S3.9,14,5,14 M25,5H7c-3.9,0-7,3.1-7,7s3.1,7,7,7h7v4h-1c-1.3,0-2.4,0.8-2.8,2H5
		c-0.6,0-1,0.4-1,1v2c0,0.6,0.4,1,1,1h5.2c0.4,1.2,1.5,2,2.8,2h6c1.3,0,2.4-0.8,2.8-2H27c0.6,0,1-0.4,1-1v-2c0-0.6-0.4-1-1-1h-5.2
		c-0.4-1.2-1.5-2-2.8-2h-1v-4h7c3.9,0,7-3.1,7-7S28.9,5,25,5L25,5z M25,15c-1.7,0-3-1.3-3-3s1.3-3,3-3s3,1.3,3,3S26.7,15,25,15
		L25,15z M15,13c-0.6,0-1-0.4-1-1s0.4-1,1-1s1,0.4,1,1S15.6,13,15,13L15,13z M10,13c-0.6,0-1-0.4-1-1s0.4-1,1-1s1,0.4,1,1
		S10.6,13,10,13L10,13z M5,13c-0.6,0-1-0.4-1-1s0.4-1,1-1s1,0.4,1,1S5.6,13,5,13L5,13z"/>
</g>
<g id="_x31_">
	<circle class="st0" cx="25" cy="12" r="2.5"/>
	<path class="st1" d="M25,10c1.1,0,2,0.9,2,2s-0.9,2-2,2s-2-0.9-2-2S23.9,10,25,10 M25,9c-1.7,0-3,1.3-3,3s1.3,3,3,3s3-1.3,3-3
		S26.7,9,25,9L25,9z"/>
</g>
</svg>
