<?xml version="1.0" encoding="utf-8"?>
<!-- Generator: Adobe Illustrator 24.0.2, SVG Export Plug-In . SVG Version: 6.00 Build 0)  -->
<svg version="1.1" id="_x30_" xmlns="http://www.w3.org/2000/svg" xmlns:xlink="http://www.w3.org/1999/xlink" x="0px" y="0px"
	 viewBox="0 0 32 32" style="enable-background:new 0 0 32 32;" xml:space="preserve">
<style type="text/css">
	.st0{fill-rule:evenodd;clip-rule:evenodd;}
	.st1{fill:#FFFFFF;}
</style>
<g id="_x31_">
	<path class="st0" d="M10,31.5c-2,0-3.5-1.5-3.5-3.5V4C6.5,2,8,0.5,10,0.5h11.9c2,0,3.6,1.5,3.6,3.5v24c0.1,0.9-0.3,1.7-0.9,2.4
		C24,31.1,23,31.5,22,31.5H10z M22.5,28.5v-24h-3.3c-0.6,1.2-1.8,2-3.2,2s-2.6-0.8-3.2-2H9.5v24H22.5z M16.1,2.5
		c-0.3,0-0.5,0.2-0.5,0.5s0.2,0.5,0.5,0.5c0.3,0,0.5-0.2,0.5-0.5C16.6,2.7,16.3,2.5,16.1,2.5z"/>
	<path class="st1" d="M21.9,1C23.6,1,25,2.3,25,4v24c0.1,1.7-1.3,3-3,3H10c-1.7,0-3-1.3-3-3V4c0-1.7,1.3-3,3-3H21.9 M16.1,4
		c0.6,0,1-0.4,1-1s-0.5-1-1-1c-0.6,0-1,0.4-1,1S15.5,4,16.1,4 M16,6c-1.3,0-2.4-0.8-2.8-2H9v25h14V4h-4.2C18.4,5.2,17.3,6,16,6
		 M21.9,0H10C7.8,0,6,1.8,6,4v24c0,2.2,1.8,4,4,4h12c1.1,0,2.2-0.5,3-1.3c0.7-0.8,1.1-1.7,1-2.8V4C26,1.8,24.2,0,21.9,0L21.9,0z
		 M19.5,5H22v23H10V5h2.5c0.7,1.2,2,2,3.5,2C17.5,7,18.8,6.2,19.5,5L19.5,5z"/>
</g>
</svg>
