<?xml version="1.0" encoding="utf-8"?>
<!-- Generator: Adobe Illustrator 24.0.2, SVG Export Plug-In . SVG Version: 6.00 Build 0)  -->
<svg version="1.1" id="_x30_" xmlns="http://www.w3.org/2000/svg" xmlns:xlink="http://www.w3.org/1999/xlink" x="0px" y="0px"
	 viewBox="0 0 32 32" style="enable-background:new 0 0 32 32;" xml:space="preserve">
<style type="text/css">
	.st0{fill-rule:evenodd;clip-rule:evenodd;}
	.st1{fill:#FFFFFF;}
</style>
<g id="_x31_">
	<path class="st0" d="M3,30.5c-1.4,0-2.5-1.1-2.5-2.5V4c0-1.4,1.1-2.5,2.5-2.5h26c1.4,0,2.5,1.1,2.5,2.5v24c0,1.4-1.1,2.5-2.5,2.5H3
		z M23,4.5c-0.8,0-1.5,0.7-1.5,1.5v20c0,0.8,0.7,1.5,1.5,1.5h4c0.8,0,1.5-0.7,1.5-1.5V6c0-0.8-0.7-1.5-1.5-1.5H23z M17,24.5
		c-0.8,0-1.5,0.7-1.5,1.5s0.7,1.5,1.5,1.5s1.5-0.7,1.5-1.5S17.8,24.5,17,24.5z M11,24.5c-0.8,0-1.5,0.7-1.5,1.5s0.7,1.5,1.5,1.5
		s1.5-0.7,1.5-1.5S11.8,24.5,11,24.5z M5,24.5c-0.8,0-1.5,0.7-1.5,1.5s0.7,1.5,1.5,1.5s1.5-0.7,1.5-1.5S5.8,24.5,5,24.5z M17,18.5
		c-0.8,0-1.5,0.7-1.5,1.5s0.7,1.5,1.5,1.5s1.5-0.7,1.5-1.5S17.8,18.5,17,18.5z M11,18.5c-0.8,0-1.5,0.7-1.5,1.5s0.7,1.5,1.5,1.5
		s1.5-0.7,1.5-1.5S11.8,18.5,11,18.5z M5,18.5c-0.8,0-1.5,0.7-1.5,1.5s0.7,1.5,1.5,1.5s1.5-0.7,1.5-1.5S5.8,18.5,5,18.5z M17,12.5
		c-0.8,0-1.5,0.7-1.5,1.5s0.7,1.5,1.5,1.5s1.5-0.7,1.5-1.5S17.8,12.5,17,12.5z M11,12.5c-0.8,0-1.5,0.7-1.5,1.5s0.7,1.5,1.5,1.5
		s1.5-0.7,1.5-1.5S11.8,12.5,11,12.5z M5,12.5c-0.8,0-1.5,0.7-1.5,1.5s0.7,1.5,1.5,1.5s1.5-0.7,1.5-1.5S5.8,12.5,5,12.5z M5,4.5
		C4.2,4.5,3.5,5.2,3.5,6v2c0,0.8,0.7,1.5,1.5,1.5h12c0.8,0,1.5-0.7,1.5-1.5V6c0-0.8-0.7-1.5-1.5-1.5H5z"/>
	<path class="st1" d="M29,2c1.1,0,2,0.9,2,2v24c0,1.1-0.9,2-2,2H3c-1.1,0-2-0.9-2-2V4c0-1.1,0.9-2,2-2H29 M23,28h4c1.1,0,2-0.9,2-2
		V6c0-1.1-0.9-2-2-2h-4c-1.1,0-2,0.9-2,2v20C21,27.1,21.9,28,23,28 M5,10h12c1.1,0,2-0.9,2-2V6c0-1.1-0.9-2-2-2H5C3.9,4,3,4.9,3,6v2
		C3,9.1,3.9,10,5,10 M17,16c1.1,0,2-0.9,2-2s-0.9-2-2-2s-2,0.9-2,2S15.9,16,17,16 M11,16c1.1,0,2-0.9,2-2s-0.9-2-2-2s-2,0.9-2,2
		S9.9,16,11,16 M5,16c1.1,0,2-0.9,2-2s-0.9-2-2-2s-2,0.9-2,2S3.9,16,5,16 M17,22c1.1,0,2-0.9,2-2s-0.9-2-2-2s-2,0.9-2,2
		S15.9,22,17,22 M11,22c1.1,0,2-0.9,2-2s-0.9-2-2-2s-2,0.9-2,2S9.9,22,11,22 M5,22c1.1,0,2-0.9,2-2s-0.9-2-2-2s-2,0.9-2,2
		S3.9,22,5,22 M17,28c1.1,0,2-0.9,2-2s-0.9-2-2-2s-2,0.9-2,2S15.9,28,17,28 M11,28c1.1,0,2-0.9,2-2s-0.9-2-2-2s-2,0.9-2,2
		S9.9,28,11,28 M5,28c1.1,0,2-0.9,2-2s-0.9-2-2-2s-2,0.9-2,2S3.9,28,5,28 M29,1H3C1.3,1,0,2.3,0,4v24c0,1.7,1.3,3,3,3h26
		c1.7,0,3-1.3,3-3V4C32,2.3,30.7,1,29,1L29,1z M23,27c-0.6,0-1-0.4-1-1V6c0-0.6,0.4-1,1-1h4c0.6,0,1,0.4,1,1v20c0,0.6-0.4,1-1,1H23
		L23,27z M5,9C4.4,9,4,8.6,4,8V6c0-0.6,0.4-1,1-1h12c0.6,0,1,0.4,1,1v2c0,0.6-0.4,1-1,1H5L5,9z M17,15c-0.6,0-1-0.4-1-1s0.4-1,1-1
		s1,0.4,1,1S17.6,15,17,15L17,15z M11,15c-0.6,0-1-0.4-1-1s0.4-1,1-1s1,0.4,1,1S11.6,15,11,15L11,15z M5,15c-0.6,0-1-0.4-1-1
		s0.4-1,1-1s1,0.4,1,1S5.6,15,5,15L5,15z M17,21c-0.6,0-1-0.4-1-1s0.4-1,1-1s1,0.4,1,1S17.6,21,17,21L17,21z M11,21
		c-0.6,0-1-0.4-1-1s0.4-1,1-1s1,0.4,1,1S11.6,21,11,21L11,21z M5,21c-0.6,0-1-0.4-1-1s0.4-1,1-1s1,0.4,1,1S5.6,21,5,21L5,21z M17,27
		c-0.6,0-1-0.4-1-1s0.4-1,1-1s1,0.4,1,1S17.6,27,17,27L17,27z M11,27c-0.6,0-1-0.4-1-1s0.4-1,1-1s1,0.4,1,1S11.6,27,11,27L11,27z
		 M5,27c-0.6,0-1-0.4-1-1s0.4-1,1-1s1,0.4,1,1S5.6,27,5,27L5,27z"/>
</g>
</svg>
