<?xml version="1.0" encoding="utf-8"?>
<!-- Generator: Adobe Illustrator 24.0.2, SVG Export Plug-In . SVG Version: 6.00 Build 0)  -->
<svg version="1.1" id="_x30_" xmlns="http://www.w3.org/2000/svg" xmlns:xlink="http://www.w3.org/1999/xlink" x="0px" y="0px"
	 viewBox="0 0 32 32" style="enable-background:new 0 0 32 32;" xml:space="preserve">
<style type="text/css">
	.st0{fill-rule:evenodd;clip-rule:evenodd;}
	.st1{fill:#FFFFFF;}
</style>
<g id="_x31_">
	<path class="st0" d="M4.5,31.5c-0.6,0-1-0.4-1-1v-1c0-0.6,0.4-1,1-1h23c0.6,0,1,0.4,1,1v1c0,0.6-0.4,1-1,1H4.5z M5.1,26.5
		c-0.9,0-1.6-0.7-1.6-1.5V21c0-0.9,0.7-1.5,1.6-1.5H27c0.9,0,1.6,0.7,1.6,1.5v3.8c0,0.9-0.7,1.6-1.6,1.6H5.1z M11.5,23.5v-1h-1v1
		H11.5z M7,22.5c-0.3,0-0.5,0.2-0.5,0.5s0.2,0.5,0.5,0.5c0.3,0,0.5-0.2,0.5-0.5S7.3,22.5,7,22.5z M5.1,17.5c-0.9,0-1.6-0.7-1.6-1.6
		V12c0-0.9,0.7-1.5,1.6-1.5H27c0.9,0,1.6,0.7,1.6,1.5v3.9c0,0.9-0.7,1.6-1.6,1.6H5.1z M11.5,14.5v-1h-1v1H11.5z M7,13.5
		c-0.3,0-0.5,0.2-0.5,0.5s0.2,0.5,0.5,0.5c0.3,0,0.5-0.2,0.5-0.5S7.3,13.5,7,13.5z M5.1,8.5c-0.9,0-1.6-0.7-1.6-1.6V3
		c0-0.9,0.7-1.5,1.6-1.5H27c0.9,0,1.6,0.7,1.6,1.5v3.9c0,0.9-0.7,1.6-1.6,1.6H5.1z M11.5,5.5v-1h-1v1H11.5z M7,4.5
		C6.7,4.5,6.5,4.7,6.5,5S6.7,5.5,7,5.5c0.3,0,0.5-0.2,0.5-0.5S7.3,4.5,7,4.5z"/>
	<path class="st1" d="M27,2C27.5,2,28,2.4,28,3v3.9C28,7.5,27.5,8,26.9,8H5.1C4.5,8,4,7.5,4,6.9V3c0-0.6,0.5-1,1.1-1H27 M10,6h2V4
		h-2V6 M7,6c0.6,0,1-0.5,1-1S7.6,4,7,4C6.5,4,6,4.4,6,5S6.5,6,7,6 M27,11c0.6,0,1.1,0.5,1.1,1v3.9c0,0.6-0.5,1.1-1.1,1.1H5.1
		c-0.6,0-1.1-0.5-1.1-1V12c0-0.6,0.5-1,1.1-1H27 M10,15h2v-2h-2V15 M7,15c0.6,0,1-0.5,1-1s-0.5-1-1-1c-0.6,0-1,0.5-1,1S6.5,15,7,15
		 M27,20c0.6,0,1.1,0.5,1.1,1v3.9c0,0.7-0.5,1.1-1.1,1.1H5.1c-0.6,0-1.1-0.4-1.1-1V21c0-0.6,0.5-1,1.1-1H27 M10,24h2v-2h-2V24 M7,24
		c0.6,0,1-0.5,1-1s-0.5-1-1-1c-0.6,0-1,0.5-1,1S6.5,24,7,24 M27.5,29c0.3,0,0.5,0.2,0.5,0.5v1c0,0.3-0.2,0.5-0.5,0.5h-23
		C4.2,31,4,30.8,4,30.5v-1C4,29.2,4.2,29,4.5,29H27.5 M27,1H5.1C3.9,1,3,1.9,3,3v3.9c0,1.1,0.9,2,2.1,2h21.8C28.1,9,29,8.1,29,6.9V3
		C29,1.9,28.1,1,27,1L27,1z M27,10H5.1C3.9,10,3,10.9,3,12v3.9c0,1.1,0.9,2,2.1,2h21.8c1.2,0,2.1-0.9,2.1-2.1V12
		C29,10.9,28.1,10,27,10L27,10z M27,19H5.1C3.9,19,3,19.9,3,21v3.9c0,1.1,0.9,2,2.1,2h21.8c1.2,0,2.1-0.9,2.1-2.1V21
		C29,19.9,28.1,19,27,19L27,19z M27.5,28h-23C3.6,28,3,28.6,3,29.5v1C3,31.4,3.6,32,4.5,32h23c0.9,0,1.5-0.6,1.5-1.5v-1
		C29,28.6,28.4,28,27.5,28L27.5,28z"/>
</g>
</svg>
