<?xml version="1.0" encoding="utf-8"?>
<!-- Generator: Adobe Illustrator 24.0.2, SVG Export Plug-In . SVG Version: 6.00 Build 0)  -->
<svg version="1.1" id="_x30_" xmlns="http://www.w3.org/2000/svg" xmlns:xlink="http://www.w3.org/1999/xlink" x="0px" y="0px"
	 viewBox="0 0 32 32" style="enable-background:new 0 0 32 32;" xml:space="preserve">
<style type="text/css">
	.st0{fill-rule:evenodd;clip-rule:evenodd;}
	.st1{fill:#FFFFFF;}
</style>
<g id="_x31_">
	<path class="st0" d="M13,30.5c-1.2,0-2.2-0.9-2.4-2H5c-0.3,0-0.5-0.2-0.5-0.5v-2c0-0.3,0.2-0.5,0.5-0.5h5.6c0.2-1.1,1.2-2,2.4-2
		h1.5v-3H10c-1.4,0-2.5-1.1-2.5-2.5V4c0-1.4,1.1-2.5,2.5-2.5h12c1.4,0,2.5,1.1,2.5,2.5v14c0,1.4-1.1,2.5-2.5,2.5h-4.5v3H19
		c1.2,0,2.2,0.9,2.5,2H27c0.3,0,0.5,0.2,0.5,0.5v2c0,0.3-0.2,0.5-0.5,0.5h-5.5c-0.2,1.1-1.2,2-2.5,2H13z M12.5,16.5v-2h-2v2H12.5z
		 M12.5,11.5v-2h-2v2H12.5z M16.5,6.5v-2h-1v2H16.5z M12.5,6.5v-2h-2v2H12.5z"/>
	<path class="st1" d="M22,2c1.1,0,2,0.9,2,2v14c0,1.1-0.9,2-2,2h-5v4h2c1.1,0,2,0.9,2,2h6v2h-6c0,1.1-0.9,2-2,2h-6c-1.1,0-2-0.9-2-2
		H5v-2h6c0-1.1,0.9-2,2-2h2v-4h-5c-1.1,0-2-0.9-2-2V4c0-1.1,0.9-2,2-2H22 M15,7h2V4h-2V7 M10,7h3V4h-3V7 M10,12h3V9h-3V12 M10,17h3
		v-3h-3V17 M22,1H10C8.3,1,7,2.3,7,4v14c0,1.7,1.3,3,3,3h4v2h-1c-1.3,0-2.4,0.8-2.8,2H5c-0.6,0-1,0.4-1,1v2c0,0.6,0.4,1,1,1h5.2
		c0.4,1.2,1.5,2,2.8,2h6c1.3,0,2.4-0.8,2.8-2H27c0.6,0,1-0.4,1-1v-2c0-0.6-0.4-1-1-1h-5.2c-0.4-1.2-1.5-2-2.8-2h-1v-2h4
		c1.7,0,3-1.3,3-3V4C25,2.3,23.7,1,22,1L22,1z M11,5h1v1h-1V5L11,5z M11,10h1v1h-1V10L11,10z M11,15h1v1h-1V15L11,15z"/>
</g>
</svg>
