<?xml version="1.0" encoding="utf-8"?>
<!-- Generator: Adobe Illustrator 24.0.2, SVG Export Plug-In . SVG Version: 6.00 Build 0)  -->
<svg version="1.1" id="_x30_" xmlns="http://www.w3.org/2000/svg" xmlns:xlink="http://www.w3.org/1999/xlink" x="0px" y="0px"
	 viewBox="0 0 32 32" style="enable-background:new 0 0 32 32;" xml:space="preserve">
<style type="text/css">
	.st0{fill-rule:evenodd;clip-rule:evenodd;}
	.st1{fill:#FFFFFF;}
</style>
<g id="_x31_">
	<g id="_x33_">
		<path class="st0" d="M7,30.5c-3.6,0-6.5-2.9-6.5-6.5s2.9-6.5,6.5-6.5h15.5V9c-0.6-0.5-1-1.2-1-2V4c0-1.4,1.1-2.5,2.5-2.5
			s2.5,1.1,2.5,2.5v3c0,0.8-0.4,1.5-1,2v8.5c3.4,0.3,6,3.1,6,6.5c0,3.6-2.9,6.5-6.5,6.5H7z M25,20.5c-1.9,0-3.5,1.6-3.5,3.5
			s1.6,3.5,3.5,3.5s3.5-1.6,3.5-3.5S26.9,20.5,25,20.5z M15,22.5c-0.8,0-1.5,0.7-1.5,1.5s0.7,1.5,1.5,1.5s1.5-0.7,1.5-1.5
			S15.8,22.5,15,22.5z M10,22.5c-0.8,0-1.5,0.7-1.5,1.5s0.7,1.5,1.5,1.5s1.5-0.7,1.5-1.5S10.8,22.5,10,22.5z M5,22.5
			c-0.8,0-1.5,0.7-1.5,1.5s0.7,1.5,1.5,1.5s1.5-0.7,1.5-1.5S5.8,22.5,5,22.5z"/>
		<path class="st1" d="M24,2c1.1,0,2,0.9,2,2v3c0,0.7-0.4,1.4-1,1.7V18c3.3,0,6,2.7,6,6s-2.7,6-6,6H7c-3.3,0-6-2.7-6-6s2.7-6,6-6h16
			V8.7c-0.6-0.3-1-1-1-1.7V4C22,2.9,22.9,2,24,2 M25,28c2.2,0,4-1.8,4-4s-1.8-4-4-4s-4,1.8-4,4S22.8,28,25,28 M15,26
			c1.1,0,2-0.9,2-2s-0.9-2-2-2s-2,0.9-2,2S13.9,26,15,26 M10,26c1.1,0,2-0.9,2-2s-0.9-2-2-2s-2,0.9-2,2S8.9,26,10,26 M5,26
			c1.1,0,2-0.9,2-2s-0.9-2-2-2s-2,0.9-2,2S3.9,26,5,26 M24,1c-1.7,0-3,1.3-3,3v3c0,0.9,0.4,1.7,1,2.2V17H7c-3.9,0-7,3.1-7,7
			s3.1,7,7,7h18c3.9,0,7-3.1,7-7c0-3.5-2.6-6.4-6-6.9V9.2c0.6-0.6,1-1.4,1-2.2V4C27,2.3,25.7,1,24,1L24,1z M25,27c-1.7,0-3-1.3-3-3
			s1.3-3,3-3s3,1.3,3,3S26.7,27,25,27L25,27z M15,25c-0.6,0-1-0.4-1-1s0.4-1,1-1s1,0.4,1,1S15.6,25,15,25L15,25z M10,25
			c-0.6,0-1-0.4-1-1s0.4-1,1-1s1,0.4,1,1S10.6,25,10,25L10,25z M5,25c-0.6,0-1-0.4-1-1s0.4-1,1-1s1,0.4,1,1S5.6,25,5,25L5,25z"/>
	</g>
	<g id="_x32_">
		<circle class="st0" cx="25" cy="24" r="2.5"/>
		<path class="st1" d="M25,22c1.1,0,2,0.9,2,2s-0.9,2-2,2s-2-0.9-2-2S23.9,22,25,22 M25,21c-1.7,0-3,1.3-3,3s1.3,3,3,3s3-1.3,3-3
			S26.7,21,25,21L25,21z"/>
	</g>
</g>
</svg>
