<?xml version="1.0" encoding="utf-8"?>
<svg version="1.1" id="_x31_" xmlns="http://www.w3.org/2000/svg" xmlns:xlink="http://www.w3.org/1999/xlink" x="0px" y="0px"
	 viewBox="0 0 18 18" style="enable-background:new 0 0 18 18;" xml:space="preserve">
<style type="text/css">
	.st0{fill-rule:evenodd;clip-rule:evenodd;}
</style>
<path id="_x32_" class="st0" d="M17,10H9c-0.6,0-1-0.4-1-1s0.4-1,1-1h2c0-0.6,0.4-1,1-1h2c0.6,0,1,0.4,1,1h2c0.6,0,1,0.4,1,1
	S17.6,10,17,10z M12,4l-2-2H3v12h4v2H1V0h10l3,3v3h-2V4z M17,16c0,1.1-0.9,2-2,2h-4c-1.1,0-2-0.9-2-2v-5h8V16z" fill="currentColor"/>
</svg>
