<?xml version="1.0" encoding="utf-8"?>
<svg version="1.1" id="_x30_" xmlns="http://www.w3.org/2000/svg" xmlns:xlink="http://www.w3.org/1999/xlink" x="0px" y="0px"
	 viewBox="0 0 22 22" style="enable-background:new 0 0 22 22;" xml:space="preserve">
<style type="text/css">
	.st0{fill:currentTextColor;}
</style>
<g id="_x31_">
	<path id="_x33_" class="st0" d="M11,4c2.45,0,4.59,1.26,5.84,3.16L15,9l6,1l-1-6l-1.73,1.73C16.64,3.47,14,2,11,2
		c-4.97,0-9,4.03-9,9h2C4,7.13,7.13,4,11,4z"/>
	<path id="_x32_" class="st0" d="M17.92,12c-0.49,3.39-3.39,6-6.92,6c-2.19,0-4.13-1.01-5.41-2.59L7,14l-6-1l1,6l2.17-2.17
		C5.82,18.76,8.26,20,11,20c4.63,0,8.44-3.5,8.94-8H17.92z"/>
</g>
</svg>
