<svg id="Layer_1" data-name="Layer 1" xmlns="http://www.w3.org/2000/svg" xmlns:xlink="http://www.w3.org/1999/xlink" width="48" height="48" viewBox="0 0 48 48"><defs><linearGradient id="linear-gradient" x1="23" y1="5.77" x2="23" y2="42.22" gradientUnits="userSpaceOnUse"><stop offset="0" stop-color="#ff5a23"/><stop offset="1" stop-color="#be1e2d"/></linearGradient></defs><title>doc-rtf</title><rect x="8" y="5" width="30" height="38" fill="url(#linear-gradient)"/><path d="M14.24,14.2v2.72H12.59V9.81h2.73a3.07,3.07,0,0,1,2,.57A1.88,1.88,0,0,1,18,11.95a1.56,1.56,0,0,1-.29.95,2.06,2.06,0,0,1-.86.64,1.58,1.58,0,0,1,.94.62,1.9,1.9,0,0,1,.29,1.08v.45a2.81,2.81,0,0,0,.08.63.84.84,0,0,0,.29.51v.1h-1.7a.81.81,0,0,1-.26-.54,4.65,4.65,0,0,1-.06-.71v-.43a1.05,1.05,0,0,0-.27-.78,1.06,1.06,0,0,0-.79-.27Zm0-1.27h1.09a1.14,1.14,0,0,0,.76-.23.81.81,0,0,0,.26-.65.93.93,0,0,0-.27-.7,1,1,0,0,0-.76-.27H14.24Z" fill="#fff"/><path d="M23.91,11.08H22v5.84H20.38V11.08H18.51V9.81h5.39Z" fill="#fff"/><path d="M29.08,14.06H26.23v2.86H24.57V9.81h5v1.27H26.23v1.71h2.85Z" fill="#fff"/><g opacity="0.5"><rect x="20" y="21" width="14" height="2" fill="#fff"/><rect x="20" y="25" width="14" height="2" fill="#fff"/><rect x="12" y="29" width="22" height="2" fill="#fff"/><rect x="12" y="33" width="16" height="2" fill="#fff"/><rect x="12" y="21" width="6" height="6" fill="#fff"/></g></svg>