<svg id="Layer_1" data-name="Layer 1" xmlns="http://www.w3.org/2000/svg" xmlns:xlink="http://www.w3.org/1999/xlink" width="48" height="48" viewBox="0 0 48 48"><defs><linearGradient id="linear-gradient" x1="24" y1="5.77" x2="24" y2="42.22" gradientUnits="userSpaceOnUse"><stop offset="0" stop-color="#29b4ff"/><stop offset="1" stop-color="#0070c0"/></linearGradient></defs><title>doc-txt</title><rect x="9" y="5" width="30" height="38" fill="url(#linear-gradient)"/><path d="M18.56,11.08H16.68v5.84H15V11.08H13.17V9.81h5.39Z" fill="#fff"/><path d="M21.83,12.21,23,9.81h1.9l-2,3.53,2.19,3.58h-2l-1.21-2.45-1.21,2.45h-1.9l2.09-3.58-2-3.53h1.89Z" fill="#fff"/><path d="M30.57,11.08H28.69v5.84H27V11.08H25.18V9.81h5.39Z" fill="#fff"/><g opacity="0.5"><rect x="13" y="21" width="22" height="2" fill="#fff"/><rect x="13" y="25" width="22" height="2" fill="#fff"/><rect x="13" y="29" width="22" height="2" fill="#fff"/><rect x="13" y="33" width="16" height="2" fill="#fff"/></g></svg>