<!-- Generated by IcoMoon.io -->
<svg version="1.1" xmlns="http://www.w3.org/2000/svg" width="18" height="18" viewBox="0 0 18 18">
<title>bold</title>
<path d="M4 16v-14h4.73c0.097-0.005 0.21-0.008 0.324-0.008 1.306 0 2.524 0.375 3.553 1.024l-0.028-0.016c0.864 0.597 1.423 1.583 1.423 2.698 0 0.050-0.001 0.099-0.003 0.149l0-0.007c0 0.020 0.001 0.043 0.001 0.066 0 0.625-0.191 1.205-0.517 1.685l0.007-0.010c-0.366 0.518-0.875 0.914-1.468 1.133l-0.022 0.007c0.776 0.136 1.437 0.554 1.885 1.143l0.005 0.007c0.394 0.552 0.63 1.241 0.63 1.984 0 0.006-0 0.011-0 0.016v-0.001c0.003 0.057 0.005 0.125 0.005 0.192 0 1.13-0.518 2.139-1.329 2.803l-0.006 0.005c-0.938 0.636-2.094 1.015-3.339 1.015-0.148 0-0.295-0.005-0.441-0.016l0.019 0.001zM6.81 7.87h2c0.054 0.004 0.117 0.006 0.181 0.006 0.577 0 1.113-0.174 1.56-0.472l-0.010 0.006c0.375-0.294 0.613-0.746 0.613-1.254 0-0.034-0.001-0.067-0.003-0.1l0 0.005c0.003-0.039 0.005-0.085 0.005-0.131 0-0.522-0.238-0.989-0.612-1.297l-0.003-0.002c-0.455-0.293-1.011-0.467-1.608-0.467-0.075 0-0.148 0.003-0.222 0.008l0.010-0.001h-1.91zM6.81 9.81v4h2.58c0.055 0.004 0.118 0.006 0.183 0.006 0.569 0 1.096-0.182 1.525-0.492l-0.008 0.005c0.365-0.322 0.594-0.791 0.594-1.314 0-0.041-0.001-0.081-0.004-0.122l0 0.005c0.003-0.047 0.005-0.101 0.005-0.156 0-0.538-0.191-1.032-0.509-1.418l0.003 0.004c-0.356-0.33-0.833-0.532-1.359-0.532-0.078 0-0.155 0.004-0.231 0.013l0.009-0.001z"></path>
</svg>
