<!-- Generated by IcoMoon.io -->
<svg version="1.1" xmlns="http://www.w3.org/2000/svg" width="18" height="18" viewBox="0 0 18 18">
<title>bulletlist</title>
<path d="M7 10v-2h9v2h-9z"></path>
<path d="M7 5v-2h9v2h-9z"></path>
<path d="M7 13h9v2h-9v-2z"></path>
<path d="M5.43 4c0 0.79-0.64 1.43-1.43 1.43s-1.43-0.64-1.43-1.43c0-0.79 0.64-1.43 1.43-1.43s1.43 0.64 1.43 1.43z"></path>
<path d="M5.43 9c0 0.79-0.64 1.43-1.43 1.43s-1.43-0.64-1.43-1.43c0-0.79 0.64-1.43 1.43-1.43s1.43 0.64 1.43 1.43z"></path>
<path d="M5.43 14c0 0.79-0.64 1.43-1.43 1.43s-1.43-0.64-1.43-1.43c0-0.79 0.64-1.43 1.43-1.43s1.43 0.64 1.43 1.43z"></path>
</svg>
