<!-- Generated by IcoMoon.io -->
<svg version="1.1" xmlns="http://www.w3.org/2000/svg" width="18" height="18" viewBox="0 0 18 18">
<title>datapie</title>
<path d="M9.75 1.5v2.278c2.542 0.368 4.5 2.549 4.5 5.203 0 0.677-0.135 1.316-0.375 1.91l1.965 1.15c0.42-0.932 0.66-1.97 0.66-3.060 0-3.895-2.962-7.105-6.75-7.481zM9 14.244c-1.392 0-2.728-0.555-3.712-1.542s-1.538-2.326-1.538-3.722c0-2.654 1.957-4.835 4.5-5.203v-2.278c-3.795 0.376-6.75 3.579-6.75 7.481 0 1.994 0.79 3.906 2.197 5.317 0.696 0.698 1.523 1.252 2.433 1.63s1.885 0.572 2.87 0.572c2.475 0 4.672-1.21 6.038-3.075l-1.95-1.15c-0.96 1.218-2.43 1.97-4.087 1.97z"></path>
</svg>
