<!-- Generated by IcoMoon.io -->
<svg version="1.1" xmlns="http://www.w3.org/2000/svg" width="18" height="18" viewBox="0 0 18 18">
<title>jpg</title>
<path d="M5 7v-3h6.172l1.828 1.828v8.172h-10v1c0 0.552 0.448 1 1 1h10c0.552 0 1-0.448 1-1v-9.586c0-0.265-0.105-0.52-0.293-0.707l-2.414-2.414c-0.188-0.188-0.442-0.293-0.707-0.293h-7.586c-0.552 0-1 0.448-1 1v4h2z"></path>
<path d="M11 11v1h-1v1h2v-5h-3v3h2zM10 9h1v1h-1v-1z"></path>
<path d="M6 12v-1h2v-3h-3v4h1zM6 9h1v1h-1v-1z"></path>
<path d="M4 8h-1v4h-1v1h2v-5z"></path>
</svg>
