<!-- Generated by IcoMoon.io -->
<svg version="1.1" xmlns="http://www.w3.org/2000/svg" width="18" height="18" viewBox="0 0 18 18">
<title>link</title>
<path d="M10.86 7.080c-0.119-0.115-0.246-0.223-0.38-0.323l-0.010-0.007-1.1 1.1c1.34 1.18 1.47 2.32 0.33 3.41l-3.41 3.41c-0.371 0.371-0.884 0.601-1.45 0.601s-1.079-0.23-1.45-0.601l-0.060-0.060c-0.371-0.371-0.601-0.884-0.601-1.45s0.23-1.079 0.601-1.45l1.54-1.54c-0.241-0.583-0.381-1.261-0.381-1.971 0-0.035 0-0.070 0.001-0.104l-0 0.005-2.39 2.38c-0.683 0.685-1.105 1.631-1.105 2.675s0.422 1.99 1.105 2.675l0.060 0.060c0.685 0.683 1.631 1.105 2.675 1.105s1.99-0.422 2.675-1.105l3.41-3.41c0.683-0.685 1.105-1.631 1.105-2.675s-0.422-1.99-1.105-2.675l0 0z"></path>
<path d="M7.14 10.93c0.119 0.115 0.246 0.223 0.38 0.323l0.010 0.007 1.11-1.11c-1.34-1.15-1.47-2.31-0.34-3.41l3.41-3.41c0.371-0.371 0.884-0.601 1.45-0.601s1.079 0.23 1.45 0.601l0.060 0.060c0.371 0.371 0.601 0.884 0.601 1.45s-0.23 1.079-0.601 1.45v0l-1.54 1.55c0.241 0.583 0.381 1.261 0.381 1.971 0 0.035-0 0.070-0.001 0.104l0-0.005 2.39-2.39c0.683-0.685 1.105-1.631 1.105-2.675s-0.422-1.99-1.105-2.675l-0.060-0.060c-0.685-0.683-1.631-1.105-2.675-1.105s-1.99 0.422-2.675 1.105l-3.41 3.41c-0.683 0.685-1.105 1.631-1.105 2.675s0.422 1.99 1.105 2.675l-0-0z"></path>
</svg>
