<svg version="1.1" xmlns="http://www.w3.org/2000/svg" width="18" height="18" viewBox="0 0 18 18">
<title>optionsgear</title>
<path d="M6.855 15.843l-0.218-1.743c-0.162-0.063-0.316-0.137-0.459-0.225s-0.284-0.181-0.422-0.281l-1.622 0.682c-0.348 0.146-0.75 0.011-0.94-0.316l-1.4-2.418c-0.19-0.328-0.105-0.745 0.196-0.974l1.403-1.062c-0.012-0.088-0.019-0.172-0.019-0.253v-0.506c0-0.081 0.006-0.166 0.019-0.253l-1.403-1.062c-0.302-0.229-0.386-0.646-0.196-0.974l1.4-2.417c0.189-0.327 0.592-0.462 0.94-0.316l1.622 0.682c0.137-0.1 0.281-0.194 0.431-0.281s0.3-0.162 0.45-0.225l0.218-1.743c0.047-0.375 0.366-0.657 0.744-0.657h2.801c0.378 0 0.697 0.282 0.744 0.657l0.218 1.743c0.162 0.063 0.316 0.137 0.459 0.225s0.284 0.181 0.422 0.281l1.622-0.682c0.348-0.146 0.75-0.011 0.94 0.316l1.4 2.417c0.19 0.328 0.106 0.745-0.196 0.974l-1.403 1.062c0.012 0.088 0.019 0.172 0.019 0.253v0.506c0 0.081-0.012 0.166-0.037 0.253l1.403 1.062c0.302 0.229 0.386 0.646 0.196 0.974l-1.399 2.416c-0.19 0.327-0.593 0.462-0.942 0.315l-1.603-0.679c-0.137 0.1-0.281 0.194-0.431 0.281s-0.3 0.162-0.45 0.225l-0.218 1.743c-0.047 0.375-0.366 0.657-0.744 0.657h-2.801c-0.378 0-0.697-0.282-0.744-0.657zM9 11c1.105 0 2-0.895 2-2s-0.895-2-2-2c-1.105 0-2 0.895-2 2s0.895 2 2 2z"></path>
</svg>
