<!-- Generated by IcoMoon.io -->
<svg version="1.1" xmlns="http://www.w3.org/2000/svg" width="18" height="18" viewBox="0 0 18 18">
<title>ppt</title>
<path d="M12 9v-1h-1v-1h-1v5h2v-1h-1v-2h1z"></path>
<path d="M3 12v-1h2v-3h-3v4h1zM3 9h1v1h-1v-1z"></path>
<path d="M7 12v-1h2v-3h-3v4h1zM7 9h1v1h-1v-1z"></path>
<path d="M5 4v3h-2v-4c0-0.552 0.448-1 1-1h7.586c0.265 0 0.52 0.105 0.707 0.293l2.414 2.414c0.188 0.188 0.293 0.442 0.293 0.707v9.586c0 0.552-0.448 1-1 1h-10c-0.552 0-1-0.448-1-1v-2h2v1h8v-8.172l-1.828-1.828h-6.172z"></path>
</svg>
