<!-- Generated by IcoMoon.io -->
<svg version="1.1" xmlns="http://www.w3.org/2000/svg" width="18" height="18" viewBox="0 0 18 18">
<title>strike</title>
<path d="M16 9h-4.25c-0.676-0.414-1.457-0.756-2.285-0.985l-0.065-0.015c-0.88-0.217-1.654-0.561-2.348-1.018l0.028 0.018c-0.379-0.267-0.623-0.703-0.623-1.196 0-0.033 0.001-0.066 0.003-0.098l-0 0.004c0.034-0.578 0.327-1.080 0.765-1.396l0.005-0.004c0.553-0.409 1.247-0.656 1.999-0.66h0.001c0.075-0.007 0.163-0.011 0.252-0.011 0.665 0 1.276 0.235 1.753 0.625l-0.005-0.004c0.486 0.474 0.793 1.129 0.81 1.857l0 0.003h1.86v-0.060c0.001-0.036 0.002-0.079 0.002-0.122 0-1.11-0.495-2.104-1.277-2.773l-0.005-0.004c-0.862-0.727-1.986-1.169-3.213-1.169-0.105 0-0.208 0.003-0.311 0.010l0.014-0.001c-0.065-0.003-0.141-0.004-0.217-0.004-1.209 0-2.323 0.404-3.216 1.084l0.013-0.009c-0.811 0.612-1.33 1.574-1.33 2.658 0 0.018 0 0.037 0 0.055l-0-0.003c-0.001 0.027-0.001 0.059-0.001 0.091 0 1.005 0.467 1.902 1.195 2.485l0.006 0.005c0.365 0.214 0.799 0.429 1.248 0.614l0.072 0.026h-4.88v1h7.42c0.679 0.166 1.269 0.483 1.754 0.914l-0.004-0.004c0.449 0.321 0.758 0.813 0.829 1.38l0.001 0.010c-0.029 0.623-0.338 1.169-0.805 1.516l-0.005 0.004c-0.541 0.364-1.208 0.581-1.925 0.581-0.026 0-0.053-0-0.079-0.001l0.004 0c-0.904-0.025-1.736-0.317-2.424-0.799l0.014 0.009c-0.484-0.406-0.79-1.012-0.79-1.689 0-0.074 0.004-0.148 0.011-0.22l-0.001 0.009h-2v0.060c-0.004 0.061-0.006 0.133-0.006 0.205 0 1.197 0.599 2.254 1.514 2.888l0.012 0.008c0.98 0.707 2.205 1.131 3.529 1.131 0.046 0 0.092-0.001 0.138-0.002l-0.007 0c0.082 0.004 0.178 0.007 0.274 0.007 1.203 0 2.318-0.377 3.234-1.019l-0.018 0.012c0.811-0.59 1.332-1.536 1.332-2.603 0-0.038-0.001-0.075-0.002-0.112l0 0.005c-0.062-0.892-0.431-1.688-1.002-2.292l0.002 0.002h3z"></path>
</svg>
