<!-- Generated by IcoMoon.io -->
<svg version="1.1" xmlns="http://www.w3.org/2000/svg" width="18" height="18" viewBox="0 0 18 18">
<title>variable</title>
<path d="M9.47 11.14h-1.62l-0.54 2.8h-1.2l0.54-2.8h-1.65v-1.080h1.87l0.42-2.14h-1.75v-1.080h2l0.52-2.84h1.2l-0.56 2.84h1.6l0.56-2.84h1.2l-0.56 2.84h1.5v1.080h-1.71l-0.42 2.14h1.58v1.080h-1.8l-0.54 2.8h-1.19zM8.070 10.060h1.61l0.42-2.14h-1.62z"></path>
<path d="M14.7 12.35l-0.7-0.7 2.61-2.65-2.61-2.65 0.7-0.7 3.3 3.35-3.3 3.35z"></path>
<path d="M3.3 12.35l0.7-0.7-2.61-2.65 2.61-2.65-0.7-0.7-3.3 3.35 3.3 3.35z"></path>
</svg>
