<?xml version="1.0" encoding="utf-8"?>
<svg version="1.1" id="_x32_" xmlns="http://www.w3.org/2000/svg" xmlns:xlink="http://www.w3.org/1999/xlink" x="0px" y="0px"
	 viewBox="0 0 18 18" style="enable-background:new 0 0 18 18;" xml:space="preserve">
<style type="text/css">
	.st0{fill-rule:evenodd;clip-rule:evenodd;}
</style>
<path id="_x31_" class="st0" d="M17,15.4L15.5,17l-2-2l-2,2L10,15.4l2-2l-2-2l1.5-1.4l2,2l2-2l1.5,1.5l-2,2L17,15.4z M12,6l-4,6
	l-2-2l-3,5h5v2H3c-1.1,0-2-0.9-2-2V3c0-1.1,0.9-2,2-2h12c1.1,0,2,0.9,2,2v4l-2,2L12,6z M5.5,5C4.7,5,4,5.6,4,6.5S4.7,8,5.5,8
	S7,7.3,7,6.5S6.3,5,5.5,5z" fill="currentColor" />
</svg>
