<?xml version="1.0" encoding="utf-8"?>
<svg version="1.1" id="_x31_" xmlns="http://www.w3.org/2000/svg" xmlns:xlink="http://www.w3.org/1999/xlink" x="0px" y="0px"
	 viewBox="0 0 64 64" style="enable-background:new 0 0 64 64;" xml:space="preserve">
<style type="text/css">
	.st0{fill-rule:evenodd;clip-rule:evenodd;}
	.st1{opacity:0.5;}
</style>
<g id="_x34_">
	<path id="_x35_" class="st0" d="M60,20v8c0,1.1-0.9,2-2,2h-8c-1.1,0-2-0.9-2-2v-8c0-1.1,0.9-2,2-2h8C59.1,18,60,18.9,60,20z M58,20
		h-8v8h8V20z M46,6v8c0,1.1-0.9,2-2,2h-8c-1.1,0-2-0.9-2-2V6c0-1.1,0.9-2,2-2h8C45.1,4,46,4.9,46,6z M44,6h-8v8h8V6z M46,34v8
		c0,1.1-0.9,2-2,2h-8c-1.1,0-2-0.9-2-2v-8c0-1.1,0.9-2,2-2h8C45.1,32,46,32.9,46,34z M44,34h-8v8h8V34z M46,50v8c0,1.1-0.9,2-2,2h-8
		c-1.1,0-2-0.9-2-2v-8c0-1.1,0.9-2,2-2h8C45.1,48,46,48.9,46,50z M44,50h-8v8h8V50z M32,20v8c0,1.1-0.9,2-2,2h-8c-1.1,0-2-0.9-2-2
		v-8c0-1.1,0.9-2,2-2h8C31.1,18,32,18.9,32,20z M30,20h-8v8h8V20z M12,4l6,6h-5v50h-2V10H6L12,4z" fill="currentColor" />
</g>
<g id="_x32_" class="st1">
	<path id="_x33_" class="st0" d="M55,9v2v7h-2v-7h-7V9h7H55z M53,30h2v7v2h-2h-7v-2h7V30z M39,44h2v4h-2V44z M27,9h7v2h-7v7h-2v-7V9
		H27z M27,37h7v2h-7h-2v-2v-7h2V37z" fill="currentColor" />
</g>
</svg>
