<?xml version="1.0" encoding="utf-8"?>
<svg version="1.1" id="_x31_" xmlns="http://www.w3.org/2000/svg" xmlns:xlink="http://www.w3.org/1999/xlink" x="0px" y="0px"
	 viewBox="0 0 64 64" style="enable-background:new 0 0 64 64;" xml:space="preserve">
<style type="text/css">
	.st0{fill-rule:evenodd;clip-rule:evenodd;}
	.st1{opacity:0.5;}
</style>
<g id="_x34_">
	<path id="_x35_" class="st0" d="M57,60h-6c-1.1,0-2-0.9-2-2v-6c0-1.1,0.9-2,2-2h6c1.1,0,2,0.9,2,2v6C59,59.1,58.1,60,57,60z M57,52
		h-6v6h6V52z M57,40h-6c-1.1,0-2-0.9-2-2v-6c0-1.1,0.9-2,2-2h6c1.1,0,2,0.9,2,2v6C59,39.1,58.1,40,57,40z M57,32h-6v6h6V32z M47,28
		h-6c-1.1,0-2-0.9-2-2v-6c0-1.1,0.9-2,2-2h6c1.1,0,2,0.9,2,2v6C49,27.1,48.1,28,47,28z M47,20h-6v6h6V20z M47,14h-6
		c-1.1,0-2-0.9-2-2V6c0-1.1,0.9-2,2-2h6c1.1,0,2,0.9,2,2v6C49,13.1,48.1,14,47,14z M47,6h-6v6h6V6z M39,38c0,1.1-0.9,2-2,2h-6
		c-1.1,0-2-0.9-2-2v-6c0-1.1,0.9-2,2-2h6c1.1,0,2,0.9,2,2V38z M37,32h-6v6h6V32z M32,52v6c0,1.1-0.9,2-2,2h-6c-1.1,0-2-0.9-2-2v-6
		c0-1.1,0.9-2,2-2h6C31.1,50,32,50.9,32,52z M24,58h6v-6h-6V58z M11,60l-6-6h5V4h2v50h5L11,60z M38,50h6c1.1,0,2,0.9,2,2v6
		c0,1.1-0.9,2-2,2h-6c-1.1,0-2-0.9-2-2v-6C36,50.9,36.9,50,38,50z M38,58h6v-6h-6V58z" fill="currentColor" />
</g>
<g id="_x32_" class="st1">
	<path id="_x33_" class="st0" d="M53,50V40h2v10H53z M53,24h-4v-2h4h2v2v6h-2V24z M43,14h2v4h-2V14z M39.9,46H35h-2h-5v4h-2v-6h7v-4
		h2v4h7v6h-2L39.9,46z M35,30h-2v-6v-2h2h4v2h-4V30z" fill="currentColor" />
</g>
</svg>
