<?xml version="1.0" encoding="utf-8"?>
<svg version="1.1" id="_x31_" xmlns="http://www.w3.org/2000/svg" xmlns:xlink="http://www.w3.org/1999/xlink" x="0px" y="0px"
	 viewBox="0 0 18 18" style="enable-background:new 0 0 18 18;" xml:space="preserve">
<style type="text/css">
	.st0{fill-rule:evenodd;clip-rule:evenodd;}
	.st1{opacity:0.35;fill-rule:evenodd;clip-rule:evenodd;enable-background:new    ;}
</style>
<path id="_x33_" class="st0" d="M17.8,10.3l-1,1l-2.1-2.1l1-1C15.8,8.1,15.9,8,16.1,8c0.1,0,0.3,0.1,0.4,0.2l1.3,1.3
	C18,9.7,18,10.1,17.8,10.3z M14,2H4v13h2v2H4c-1.1,0-2-0.9-2-2V2c0-1.1,0.9-2,2-2h10c1.1,0,2,0.9,2,2v3l-2,2V2z M16.1,11.9l-6,6.1H8
	v-2.1l6.1-6.1L16.1,11.9z" fill="currentColor"/>
<path id="_x32_" class="st1" d="M5,3h8v5l-6,6H5V3z" fill="currentColor"/>
</svg>
