<svg xmlns="http://www.w3.org/2000/svg">
<symbol id="brush" viewBox="0 0 760 520" fill="currentColor">
<path d="M478.39 301.11C480.47 301.37 482.35 300.86 484.05 299.57L484.06 299.54C491.83 295.84 496.87 308.01 489.24 311.77C483.02 314.83 477.17 315.66 472.4 313.09C469.31 315.95 465.99 318.41 462.01 320.47C459.13 321.96 456.27 320.8 454.55 318.63C452.06 321.3 449.43 323.82 446.3 325.84C441.81 328.73 434.29 325.93 435.58 319.65C435.76 318.76 436 317.9 436.27 317.06C433.73 319.8 431.06 322.34 428.01 324.34C422.46 327.96 415.51 323.02 417.85 316.55C419.344 312.407 422.27 308.112 425.258 303.725C426.929 301.272 428.619 298.79 430.09 296.29C427.286 299.025 424.593 301.877 421.899 304.729C414.084 313.005 406.271 321.278 395.77 326.67C390.44 329.41 385.04 323.1 387.12 318.05C391.292 307.931 398.515 299.354 405.712 290.807C410.606 284.995 415.488 279.198 419.39 272.94C409.344 281.497 401.389 292.711 393.438 303.919C385.481 315.136 377.529 326.347 367.49 334.88C362.24 339.34 355.16 333.04 357.39 327.15C357.932 325.704 358.555 324.295 359.174 322.896L359.27 322.68C355.35 326.2 350.99 329.05 345.98 330.61C340.82 332.22 334.95 327.76 337.43 322.09C343.217 308.874 351.543 297.127 359.858 285.397C364.805 278.418 369.748 271.444 374.15 264.17C362.714 275.104 353.025 287.851 343.337 300.598C335.268 311.214 327.199 321.83 318.12 331.4C313.09 336.7 303.88 332.19 306.74 324.8C311.278 313.056 318.479 302.175 325.687 291.283C332.854 280.452 340.028 269.611 344.6 257.9C333.752 272.265 324.421 287.665 315.077 303.087C309.303 312.616 303.525 322.153 297.38 331.46C293.92 336.71 284.3 332.92 285.83 326.63C288.527 315.525 292.403 304.659 296.28 293.792C297.793 289.549 299.307 285.307 300.75 281.05C299.112 285.149 297.515 289.265 295.922 293.368C295.425 294.65 294.928 295.931 294.43 297.21C292.733 301.573 291.264 306.091 289.791 310.622C285.822 322.832 281.819 335.145 273.22 344.83C269.68 348.83 262.81 347.54 262.02 341.84C260.274 329.3 261.475 316.831 262.675 304.376C262.836 302.707 262.996 301.039 263.15 299.37C258.23 319.46 256.87 339.86 259.65 361.5C260.46 367.81 252.03 369.6 249.3 364.32C241.049 348.346 241.581 330.041 242.098 312.266C242.238 307.463 242.376 302.699 242.34 298.03C242.32 295.35 246.28 294.65 246.6 297.47C247.002 301.074 247.351 304.684 247.701 308.291C248.099 312.4 248.496 316.505 248.97 320.59C251.19 301.46 256.31 282.78 263.71 264.11C265.74 259 273.12 260.37 273.97 265.49C276.028 277.958 275.129 290.426 274.231 302.89C273.807 308.781 273.382 314.671 273.27 320.56C276.167 314.011 278.464 307.044 280.721 300.199C282.351 295.254 283.961 290.373 285.76 285.76C292.91 267.45 300.67 249.46 311.56 233.03C315.25 227.46 322.38 232.12 322.27 237.5C321.95 253.52 317.76 268.68 312.78 283.69C324.37 266.18 336.55 249.1 350.56 233.31C354.5 228.88 360.66 231.91 360.57 237.49C360.39 248.94 357.16 259.49 352.49 269.59C362.62 258.02 373.64 247.31 387.04 238.84C392.24 235.55 398.21 240 396.3 245.93C393.47 254.71 389.38 262.76 384.72 270.5C394.69 259.24 405.05 248.48 416.64 238.72C421.4 234.72 428.36 240.4 426.02 245.91C424.4 249.7 422.54 253.34 420.51 256.87C423.52 254.95 426.71 253.23 430.14 251.76C434.11 250.06 439.74 253.58 438.61 258.25C436.56 266.71 432.68 274 428.06 280.84C430.75 278.49 433.57 276.3 436.62 274.39C441 271.66 445.93 273.61 447.09 278.69C447.9 282.25 447.79 285.59 447.12 288.8C449.18 287.52 451.4 286.42 453.87 285.62C458.23 284.2 463.98 287.24 462.89 292.53C462.89 292.539 462.888 292.548 462.886 292.558C462.883 292.57 462.88 292.583 462.88 292.6C467.29 290.25 471.93 292.83 472.6 297.14C474.89 297.35 477.1 298.77 478.39 301.11Z" fill="currentColor"/>
<path d="M596.87 370.05C607.98 354.62 622.04 341.12 636.91 329.7L636.89 329.71C640.44 326.99 645.32 331.51 641.91 334.83C636.87 339.737 631.945 345.282 626.931 350.929C619.149 359.691 611.152 368.698 602.17 375.94C599.88 379.38 597.75 382.91 595.8 386.52C600.22 383.7 604.27 380.34 608.1 376.72C612.86 371.46 617.85 366.36 622.9 361.3C626.36 357.82 632.03 362.68 628.67 366.38C627.913 367.214 627.156 368.05 626.398 368.888C621.604 374.188 616.779 379.524 611.58 384.36C606.02 390.78 600.92 397.56 596.57 404.85C605.394 400.143 613.094 393.502 620.797 386.859C627.463 381.11 634.13 375.36 641.53 370.86C644.58 369.01 648.73 372.57 646.71 375.79C642.594 382.356 637.711 388.382 632.833 394.401C631.561 395.971 630.288 397.541 629.03 399.12C632.51 396.52 635.96 393.88 639.31 391.1C642.86 388.16 648.05 393.03 644.51 396.21C635.22 404.55 625.52 412.31 615.13 419.26C611.04 421.99 606.89 417.66 609.19 413.55C612.62 407.43 616.87 401.94 621.31 396.58C611.64 405.06 601.7 413.07 589.16 416.75C586.01 417.66 582.21 414.94 583.88 411.4C586.02 406.87 588.46 402.57 591.14 398.43L590.968 398.504C590.146 398.859 589.33 399.212 588.47 399.53C585.26 400.77 581.27 397.8 582.85 394.22C584.15 391.29 585.57 388.42 587.09 385.59C582.68 387.68 578.02 389.26 573.03 390.13C570.31 390.61 568.38 388.36 568.38 386C567.3 386.6 566.22 387.19 565.11 387.74C561.38 389.56 558.62 384.34 560.85 381.55C564.38 377.12 567.89 372.67 571.4 368.22C566.83 371.16 561.97 373.65 556.71 375.54C553.79 376.59 550.28 373.63 552.44 370.65C553.922 368.598 555.391 366.542 556.86 364.487C558.018 362.867 559.176 361.248 560.34 359.63C556.58 361.86 552.63 363.83 548.39 365.32C545.3 366.43 542.88 363.21 544.59 360.5C548.98 353.53 553.62 346.57 558.55 339.76C557.43 339.07 556.8 337.5 557.61 336.21C558.691 334.498 559.768 332.78 560.847 331.06C563.632 326.62 566.427 322.164 569.31 317.76C560.6 325.47 551.03 331.74 539.46 334.58C538.44 334.83 537.28 333.68 537.73 332.64C540.905 325.431 545.516 319.194 550.151 312.924C551.823 310.663 553.498 308.397 555.11 306.08C556.03 304.76 557.98 306.25 557.1 307.57C555.569 309.854 553.954 312.077 552.339 314.298C550.526 316.794 548.713 319.288 547.02 321.87C546.566 322.559 545.888 323.445 545.169 324.384C542.226 328.227 538.588 332.976 546.76 328.95C556.35 324.24 564.63 317.43 572.24 309.98C575.33 306.96 578.34 303.84 581.34 300.7C590.46 288.94 600.89 278.4 614.11 270.74C615.41 269.99 616.85 271.75 615.55 272.64C605.4 279.622 596.691 289.151 587.955 298.711C586.931 299.832 585.907 300.953 584.88 302.07C579.73 309.21 575.06 316.78 570.62 324.23C581.76 310.86 594.26 298.67 608.46 289.06C610.9 287.41 613.85 290.87 611.4 292.64C602.798 298.846 595.773 306.695 588.757 314.532C583.181 320.762 577.611 326.985 571.26 332.37C565.64 339.69 560.39 347.3 555.48 354.98C562.25 351.17 568.36 346.34 574.11 340.97C585.35 326.37 597.51 312.61 612.49 301.38C615.61 299.04 618.59 303.79 615.83 306.24C608.674 312.601 602.096 319.981 595.484 327.398C589.946 333.612 584.384 339.851 578.44 345.54C573.96 351.58 569.64 357.75 565.36 363.91C580.098 355.116 591.783 341.454 603.302 327.987C610.173 319.953 616.985 311.989 624.35 305.17C627.61 302.16 631.88 307.12 628.87 310.26C617.42 322.18 606.86 334.84 596.64 347.77C603.81 339.87 611.65 332.63 620.69 326.6C624.14 324.3 628.61 329.57 625.34 332.31C617.346 339.01 610.382 346.831 603.434 354.636C598.196 360.519 592.966 366.393 587.31 371.77C585.69 374.05 584.08 376.35 582.5 378.66C587.6 376.45 592.36 373.49 596.87 370.05Z" fill="currentColor"/>
</symbol>
</svg>
