<svg xmlns="http://www.w3.org/2000/svg">
<symbol id="hero" viewBox="0 0 760 520" fill="currentColor">
<path d="M545.013 138.766C543.004 135.915 540.711 132.662 537.34 131.41V131.4C534.36 130.3 535.9 125.71 538.91 126.19C543.58 126.94 547.36 129.96 550.12 133.66C550.285 133.881 550.457 134.109 550.634 134.343C553.011 137.487 556.194 141.698 554.23 145.57C553.78 146.47 552.69 146.7 551.79 146.52C549.138 145.979 547.764 143.506 546.474 141.184C546.023 140.371 545.582 139.577 545.1 138.89L545.013 138.766Z" fill="currentColor"/>
<path d="M578.64 114.5C579.8 115.711 580.75 117.158 581.697 118.601C582.996 120.579 584.289 122.549 586.11 123.89C586.99 124.53 588.52 124.12 588.61 122.91C588.888 119.049 585.994 115.892 583.469 113.135L583.436 113.1L583.186 112.826C583.079 112.71 582.974 112.595 582.87 112.48C580.111 109.462 576.898 107.023 573.675 104.576L573.67 104.572C572.922 104.004 572.174 103.436 571.43 102.86C569.91 101.7 568.37 103.75 569.59 105.07C571.569 107.202 573.588 109.286 575.606 111.368L575.623 111.386L575.633 111.396C576.634 112.429 577.635 113.462 578.63 114.5H578.64Z" fill="currentColor"/>
<path fill-rule="evenodd" clip-rule="evenodd" d="M429.47 329.42C436.685 325.485 444.002 328.824 450.806 331.928C452.008 332.476 453.193 333.018 454.36 333.51C470.912 340.491 486.612 331.348 501.788 322.509C507.48 319.194 513.098 315.922 518.66 313.56C514.468 322.387 507.576 329.359 500.656 336.359C494.022 343.07 487.362 349.807 483.03 358.23C473.86 376.06 474.62 406.9 479.4 425.8C480.73 431.06 487.5 428.67 488.58 424.73C491.233 415.082 490.735 405.319 490.241 395.624C489.52 381.491 488.807 367.504 497.87 354.23C501.189 349.37 504.984 345.137 508.715 340.974C516.08 332.759 523.199 324.816 525.94 312.87C526.12 312.1 525.97 311.41 525.66 310.83C527.79 309.47 528.26 307.06 527.58 304.84C530.71 305.37 533.86 305.82 537.03 306.17C538.06 306.29 538.93 306.06 539.63 305.63C560.81 310.78 586.74 297.58 602.91 286.53C629.91 268.1 653.05 236.8 652.02 202.84C651.88 198.16 644.63 198.19 643.98 202.67C643.944 202.874 643.908 203.067 643.872 203.26L643.872 203.262C643.848 203.39 643.824 203.519 643.8 203.65C643.54 203.65 643.28 203.65 643 203.69C632.45 205.23 621.41 202.17 611.33 199.3C599 195.8 579.8 189.84 570.14 179.21C579.575 178.423 589.798 174.612 599.25 171.088C603.133 169.64 606.886 168.241 610.4 167.12C624.25 162.71 643.27 154.91 647.51 139.48C647.68 138.88 647.63 138.32 647.49 137.8C648.58 137.58 649.51 136.51 648.9 135.19C631.82 97.7 603.79 64.5499 561.66 56.31C546.89 53.43 531.49 54.29 516.58 57.95C534.29 48.84 544.81 24.49 547.03 6.44995C547.23 4.92995 544.83 3.97995 544.32 5.59995C537.86 26.28 527.38 45.17 509.03 56.54C519.49 43.76 524.98 26.81 519 11.6C518.37 9.99995 515.69 10.55 516.01 12.32C519.92 34.04 507.03 52.85 491.57 66.84C475.05 74.7299 460.19 85.95 448.95 99.2C419.53 133.91 414.92 185.12 428.66 227.16C429.56 229.9 430.56 232.56 431.65 235.16C425.58 231.37 418.76 228.39 413.2 229.11C406.503 229.968 400.446 232.66 394.482 235.311C384.87 239.583 375.498 243.749 364.07 239.96C358.704 238.181 353.024 234.851 347.183 231.426C334.998 224.282 322.118 216.731 309.95 222.01C309.82 221.88 309.66 221.77 309.46 221.72C307.64 219.37 303.95 218.44 300.91 221.51C293.586 228.893 285.638 235.518 277.741 242.099C260.278 256.654 243.067 271 233.42 292.87C226.91 307.62 228.38 323.12 229.91 338.63C232 359.94 227.74 377.51 220.07 397.16C218.32 401.63 224.53 405.5 227.45 401.44C228.44 400.06 229.36 398.64 230.23 397.19C232.57 397.74 235.23 396.98 236.11 394.34C239.105 385.372 247.621 378.909 255.083 373.245C255.842 372.669 256.59 372.101 257.32 371.54C267.94 363.37 278.88 356.08 290.95 350.21C306.72 342.54 323.56 340.59 340.41 345.63C340.978 345.8 341.547 345.97 342.116 346.141C354.322 349.798 366.791 353.534 379.68 352.97C391.08 352.47 403.04 350.14 412.15 342.86C413.908 341.454 415.586 339.995 417.256 338.544L417.257 338.543C421.086 335.214 424.868 331.927 429.45 329.42H429.47ZM454.31 107.3C477.88 74.57 524.66 57.7299 563.82 65.0399C601.06 71.9999 627.5 103.12 644.49 135.03C643.23 134.74 641.87 135.01 640.96 136.14C629.73 150.04 615.77 155.94 599.25 161.6C596.439 162.565 593.319 163.466 590.083 164.4C581.312 166.933 571.687 169.713 565.04 174.68C564.3 175.24 563.97 175.98 563.94 176.72C563.21 177.43 562.82 178.49 563.29 179.67C568.86 193.72 585.58 200.71 598.71 205.66C611.78 210.58 627.39 215.54 641.68 214.16C635.67 237.97 622.41 256.94 602.83 273.09C593.05 281.17 581.95 287.47 570.13 292.04C557.62 296.87 546.34 297.07 533.56 295.66C528.791 294.133 524.02 292.75 519.269 291.374C505.51 287.387 491.914 283.447 478.98 276.17C458.73 264.77 446.11 245.4 438.26 224.08C424.09 185.55 430.41 140.48 454.3 107.31L454.31 107.3ZM352.47 337.84C350.485 337.357 348.542 336.867 346.631 336.384C334.204 333.245 323.055 330.429 309.57 332.18C294.62 334.12 280.73 341.86 268.07 349.55C259.55 354.73 248.58 361.9 239.92 370.44C240.54 366.72 240.93 362.97 241.08 359.23C241.416 350.963 240.338 342.77 239.263 334.592C238.16 326.201 237.059 317.827 237.49 309.41C238.85 283.028 263.762 264.266 286.036 247.49L286.037 247.489C294.394 241.196 302.379 235.182 308.61 229.15C309.04 228.73 309.37 228.3 309.65 227.86C323.312 224.79 334.286 231.308 345.641 238.053C352.596 242.184 359.694 246.4 367.64 248.55C379.42 251.74 390.51 246.17 400.69 241C411.84 235.33 419.91 237.35 429 244.9C433.01 248.23 435.1 249.65 439.27 249.93C455.91 276.65 483.65 294.06 514.57 302.05C507.501 304.9 500.926 308.647 494.329 312.407L494.328 312.408C490.184 314.77 486.03 317.137 481.74 319.29C472.9 323.73 464.76 324.68 455.4 320.75C454.478 320.361 453.552 319.952 452.62 319.54C447.892 317.452 443.018 315.298 437.78 315.44C425.32 315.77 416.59 322.83 407.72 330.89C392.34 344.86 371.09 342.39 352.45 337.85L352.47 337.84Z" fill="currentColor"/>
<path d="M631.77 421.49C639.67 419.11 647.33 416.1 654.89 412.78C655.395 412.56 656.169 412.267 657.119 411.908C663.543 409.48 678.004 404.015 671.54 397.35C671.179 396.97 670.809 396.59 670.448 396.219L670.42 396.19C670.08 395.85 669.72 395.58 669.35 395.36C668.54 378.67 660.78 360.94 654.45 346.5C645.545 326.166 634.299 306.995 623.084 287.876C621.818 285.717 620.552 283.559 619.29 281.4C617.63 278.56 613.06 281.22 614.32 284.16C617.891 292.458 621.592 300.699 625.293 308.939C630.236 319.945 635.178 330.951 639.81 342.09C643.693 351.429 646.926 361.014 650.158 370.596L650.45 371.46C652.256 376.786 653.383 382.268 654.507 387.736L654.507 387.738C655.331 391.745 656.153 395.745 657.24 399.67C648.66 403.92 639.77 407.5 630.66 410.48C608.86 417.64 589.19 416.92 567.67 412.7C567.074 410.789 566.477 408.88 565.88 406.972C559.621 386.964 553.398 367.071 549.6 346.32C549.326 344.813 549.055 343.045 548.758 341.103L548.757 341.096L548.757 341.092L548.757 341.091L548.756 341.089C546.876 328.793 543.94 309.589 532.38 306.17C530.77 305.7 529.48 307.32 530.43 308.75C538.622 321.03 540.547 336.213 542.39 350.747C542.703 353.209 543.012 355.653 543.35 358.06C546.409 379.884 553.922 401.379 561.209 422.228L561.21 422.229L561.21 422.23C561.856 424.079 562.501 425.922 563.14 427.76C564.79 432.51 572.66 429.91 571.48 425.08C571.2 423.78 570.85 422.5 570.48 421.22C571.126 423.463 581.424 425.22 584.776 425.792L585.237 425.871C585.32 425.885 585.394 425.898 585.46 425.91C588.71 426.486 591.72 426.179 594.779 425.867C596.708 425.67 598.658 425.471 600.7 425.49C611.79 425.6 620.99 424.75 631.75 421.49H631.77Z" fill="currentColor"/>
<path d="M598.56 431.31C595.284 434.193 591.371 436.724 587.733 439.077C585.719 440.379 583.789 441.627 582.1 442.85C577.379 446.267 572.63 449.637 567.882 453.007L567.864 453.019C563.294 456.263 558.724 459.506 554.18 462.79C552.975 463.659 551.733 464.52 550.48 465.388L550.478 465.389C543.471 470.243 536.118 475.336 533.09 483.53C529.36 493.63 538.15 503.66 544.39 510.35C549.19 515.5 557.79 508.58 552.92 503.42C552.621 503.104 552.307 502.778 551.982 502.443C551.806 502.262 551.627 502.078 551.446 501.892C547.215 497.553 541.623 491.818 543.86 485.67C545.148 482.12 549.478 479.162 552.973 476.773C553.791 476.214 554.563 475.687 555.24 475.19C559.654 471.941 563.979 468.572 568.304 465.202L568.31 465.198C571.889 462.409 575.469 459.621 579.1 456.9C581.826 454.861 586.631 449.947 592.476 443.968C593.77 442.644 595.115 441.268 596.5 439.86C596.195 438.478 596.962 436.999 597.698 435.579C598.506 434.018 599.278 432.529 598.55 431.32L598.56 431.31Z" fill="currentColor"/>
<path d="M668.708 443.254C672.889 445.564 677.079 447.879 680.97 450.58H680.99C681.842 451.172 682.807 451.901 683.858 452.695L683.86 452.696C689.428 456.904 697.395 462.924 703.67 459.93C708.902 457.426 713.384 453.389 717.727 449.478C718.622 448.672 719.511 447.871 720.4 447.09C725.86 442.31 732.88 451.29 727.34 455.96C710.89 469.8 699.25 476.63 680.39 462.76C678.29 461.216 675.385 459.38 672.103 457.306L672.102 457.305C658.913 448.97 639.644 436.793 642.11 424.27C642.3 423.3 643.57 423.58 643.7 424.42C644.503 429.334 653.382 434.448 658.553 437.427L658.559 437.43C659.373 437.9 660.096 438.316 660.68 438.67C663.297 440.265 666.001 441.759 668.708 443.254Z" fill="currentColor"/>
<path d="M637.65 280.47C637.51 280.51 637.57 280.73 637.72 280.68C637.86 280.64 637.79 280.42 637.65 280.47Z" fill="currentColor"/>
<path d="M630.05 278C640.43 282.45 655.92 280.38 666.77 277.66C678.77 274.66 688.19 265.43 694.58 255.25C702.41 242.8 707.45 229.22 709.88 214.73C711.5 205.09 713.2 190.69 704.78 183.67C701.74 181.13 697.58 182.53 697.11 186.6C696.643 190.679 696.986 194.743 697.33 198.826C697.642 202.521 697.955 206.232 697.67 209.98C696.74 222.27 692.15 234.37 686.9 245.38C681.28 257.16 673.46 265.66 660.68 269.69C656.698 270.943 652.344 271.238 647.994 271.533C641.517 271.971 635.051 272.409 629.84 276.01C629.11 276.51 629.27 277.66 630.06 278H630.05Z" fill="currentColor"/>
<path d="M141.829 278.863C131.317 281.054 120.796 283.246 110.29 285.57C106.04 286.51 105.3 279.95 109.41 278.93C148.79 269.2 188.04 259.72 228.11 253.32C230.61 252.92 231.79 256.92 229.3 257.69C200.533 266.631 171.213 272.74 141.831 278.863L141.829 278.863Z" fill="currentColor"/>
<path d="M18.16 382.07C31.3779 377.607 44.7446 373.482 58.114 369.355C76.8887 363.561 95.6691 357.764 114.05 351.03C116.36 350.18 115.33 346.46 112.92 346.87C79.82 352.35 46.62 363.47 16.05 377.08C12.83 378.51 14.88 383.18 18.16 382.07Z" fill="currentColor"/>
<path d="M64.27 454.38C88 443.79 111.86 433.51 136.19 424.38L136.2 424.39C139.42 423.17 141.07 427.55 138.23 429.18C114.19 443.04 89.04 455.05 63.76 466.47C60.0876 468.13 56.3634 469.735 52.6314 471.345C44.4228 474.884 36.1763 478.44 28.36 482.62C27.8009 482.919 27.2414 483.228 26.6801 483.537C22.7328 485.715 18.6938 487.944 14.08 487.13C11.35 486.65 10.86 483.61 12.66 481.83C23.2038 471.436 38.7391 465.029 53.0601 459.122C56.9259 457.528 60.7032 455.97 64.27 454.38Z" fill="currentColor"/>
</symbol>
</svg>
