<svg version="1.1" xmlns="http://www.w3.org/2000/svg" width="20" height="20" viewBox="0 0 20 20">
<title>airplane</title>
<path d="M8.782 8.29l-0.685-5.483c-0.080-0.637 0.372-1.218 1.009-1.297l0.072-0.007 0.168-0.002c0.596 0 1.135 0.353 1.374 0.899l2.512 5.742 2.752-0.091c1.028-0.034 1.897 0.733 2.004 1.739l0.010 0.145 0.001 0.065c0 1.077-0.873 1.951-1.959 1.951l-2.808-0.093-2.513 5.743c-0.239 0.546-0.778 0.899-1.374 0.899h-0.096c-0.642 0-1.162-0.52-1.162-1.162 0-0.048 0.003-0.096 0.009-0.144l0.685-5.484-2.142-0.072-0.957 1.676c-0.242 0.424-0.694 0.686-1.182 0.686-0.552 0-1-0.448-1-1v-1.466l-0.161-0.012c-0.758-0.096-1.339-0.743-1.339-1.522s0.581-1.425 1.338-1.521l0.162-0.012v-1.466c0-0.552 0.448-1 1-1 0.489 0 0.94 0.262 1.182 0.686l0.957 1.675 2.142-0.072zM9.346 2.5l-0.116 0.001c-0.089 0.011-0.152 0.092-0.141 0.181l0.821 6.57-3.84 0.128-1.257-2.199c-0.064-0.113-0.184-0.182-0.314-0.182v2.432l-0.984 0.035c-0.288 0.010-0.516 0.246-0.516 0.534s0.228 0.524 0.516 0.534l0.984 0.033v2.434l0.076-0.008c0.099-0.021 0.186-0.084 0.238-0.174l1.256-2.2 3.84 0.128-0.822 6.591c0 0.089 0.073 0.162 0.162 0.162h0.096c0.199 0 0.378-0.118 0.458-0.3l2.785-6.364 3.46 0.115c0.525 0 0.951-0.426 0.951-0.951l-0.001-0.032c-0.017-0.525-0.457-0.936-0.982-0.919l-3.429 0.113-2.784-6.363c-0.080-0.182-0.259-0.3-0.458-0.3z"></path>
</svg>
