<svg version="1.1" xmlns="http://www.w3.org/2000/svg" width="20" height="20" viewBox="0 0 20 20">
<title>arrowup</title>
<path d="M16.793 8.735c0.285 0.301 0.271 0.776-0.029 1.060s-0.776 0.271-1.060-0.030l-4.955-5.239v12.724c0 0.414-0.336 0.75-0.75 0.75s-0.75-0.336-0.75-0.75v-12.726l-4.957 5.241c-0.285 0.301-0.759 0.314-1.060 0.030s-0.314-0.759-0.030-1.060l6.069-6.417c0.157-0.166 0.357-0.266 0.566-0.3 0.052-0.011 0.106-0.017 0.161-0.017 0.058 0 0.114 0.006 0.168 0.019 0.206 0.035 0.403 0.135 0.558 0.299l6.069 6.417z"></path>
</svg>
