<svg version="1.1" xmlns="http://www.w3.org/2000/svg" width="20" height="20" viewBox="0 0 20 20">
<title>attach</title>
<path d="M4.83 10.485l5.657-5.657c1.172-1.172 3.071-1.172 4.243 0s1.172 3.071 0 4.243l-6.717 6.718c-0.586 0.586-1.536 0.586-2.121 0s-0.586-1.536 0-2.121l6.010-6.010c0.195-0.195 0.195-0.512 0-0.707s-0.512-0.195-0.707 0l-6.010 6.010c-0.976 0.976-0.976 2.559 0 3.536s2.559 0.976 3.536 0l6.718-6.718c1.562-1.562 1.562-4.095 0-5.657s-4.095-1.562-5.657 0l-5.657 5.657c-0.195 0.195-0.195 0.512 0 0.707s0.512 0.195 0.707 0z"></path>
</svg>
