<svg version="1.1" xmlns="http://www.w3.org/2000/svg" width="20" height="20" viewBox="0 0 20 20">
<title>bold</title>
<path d="M5.5 4.25c0-0.69 0.56-1.25 1.25-1.25h3.501c2.403 0 3.999 1.988 3.999 4 0 0.872-0.3 1.738-0.834 2.441 0.905 0.702 1.582 1.801 1.582 3.309 0 2.863-2.438 4.246-4.244 4.246h-4.003c-0.69 0-1.25-0.56-1.25-1.25v-11.496zM8 11v3.496h2.753c0.811 0 1.744-0.619 1.744-1.746 0-1.129-0.938-1.75-1.744-1.75h-2.753zM8 8.5h2.248c0.882 0 1.502-0.721 1.502-1.5 0-0.78-0.621-1.5-1.499-1.5h-2.251v3z"></path>
</svg>
