<svg version="1.1" xmlns="http://www.w3.org/2000/svg" width="20" height="20" viewBox="0 0 20 20">
<title>bookmark</title>
<path d="M4 4c0-0.74 0.402-1.387 1-1.732v13.732c0 0.552 0.448 1 1 1h8c0.552 0 1-0.448 1-1v-12c0-0.552-0.448-1-1-1h-2v-1h2c1.105 0 2 0.895 2 2v12c0 1.105-0.895 2-2 2h-8c-1.105 0-2-0.895-2-2v-12zM6 2v6.5c0 0.189 0.107 0.363 0.276 0.447s0.372 0.066 0.524-0.047l1.7-1.275 1.7 1.275c0.152 0.114 0.354 0.132 0.524 0.047s0.276-0.258 0.276-0.447v-6.5h-5zM7 7.5v-4.5h3v4.5l-1.2-0.9c-0.178-0.133-0.422-0.133-0.6 0l-1.2 0.9z"></path>
</svg>
