<svg version="1.1" xmlns="http://www.w3.org/2000/svg" width="20" height="20" viewBox="0 0 20 20">
<title>card</title>
<path d="M8 7c0-1.105 0.895-2 2-2s2 0.895 2 2-0.895 2-2 2c-1.105 0-2-0.895-2-2zM7.5 10h5c0.828 0 1.5 0.672 1.5 1.5 0 1.116-0.459 2.010-1.212 2.615-0.741 0.595-1.735 0.885-2.788 0.885s-2.047-0.29-2.788-0.885c-0.753-0.604-1.212-1.499-1.212-2.615 0-0.828 0.672-1.5 1.5-1.5zM10 2c-4.418 0-8 3.582-8 8s3.582 8 8 8c4.418 0 8-3.582 8-8s-3.582-8-8-8zM3 10c0-3.866 3.134-7 7-7s7 3.134 7 7c0 3.866-3.134 7-7 7s-7-3.134-7-7z"></path>
</svg>
