<svg version="1.1" xmlns="http://www.w3.org/2000/svg" width="20" height="20" viewBox="0 0 20 20">
<title>chevrondoubleright</title>
<path d="M8.733 4.207c0.3-0.286 0.775-0.274 1.060 0.026l5.001 5.25c0.276 0.29 0.276 0.745 0 1.035l-5.001 5.25c-0.286 0.3-0.76 0.312-1.060 0.026s-0.311-0.76-0.026-1.060l4.509-4.733-4.509-4.733c-0.286-0.3-0.274-0.775 0.026-1.060zM4.733 4.207c0.3-0.286 0.775-0.274 1.060 0.026l5.001 5.25c0.276 0.29 0.276 0.745 0 1.035l-5.001 5.25c-0.286 0.3-0.76 0.312-1.060 0.026s-0.311-0.76-0.026-1.060l4.509-4.733-4.509-4.733c-0.286-0.3-0.274-0.775 0.026-1.060z"></path>
</svg>
