<svg version="1.1" xmlns="http://www.w3.org/2000/svg" width="20" height="20" viewBox="0 0 20 20">
<title>close</title>
<path d="M4.089 4.216l0.058-0.069c0.174-0.174 0.443-0.193 0.638-0.058l0.069 0.058 5.146 5.147 5.146-5.147c0.174-0.174 0.443-0.193 0.638-0.058l0.069 0.058c0.173 0.174 0.193 0.443 0.058 0.638l-0.058 0.069-5.147 5.146 5.147 5.146c0.173 0.174 0.193 0.443 0.058 0.638l-0.058 0.069c-0.174 0.173-0.443 0.193-0.638 0.058l-0.069-0.058-5.146-5.147-5.146 5.147c-0.174 0.173-0.443 0.193-0.638 0.058l-0.069-0.058c-0.174-0.174-0.193-0.443-0.058-0.638l0.058-0.069 5.147-5.146-5.147-5.146c-0.174-0.174-0.193-0.443-0.058-0.638v0z"></path>
</svg>
