<svg version="1.1" xmlns="http://www.w3.org/2000/svg" width="20" height="20" viewBox="0 0 20 20">
<title>exportpdf</title>
<path d="M6.499 11c-0.276 0-0.5 0.224-0.5 0.5v2c0 0.276 0.224 0.5 0.5 0.5s0.5-0.224 0.5-0.5v-0.166h0.333c0.644 0 1.167-0.522 1.167-1.167s-0.522-1.167-1.167-1.167h-0.833zM7.332 12.334h-0.333v-0.334h0.333c0.092 0 0.167 0.075 0.167 0.167s-0.075 0.167-0.167 0.167zM11.999 11.499c0-0.276 0.224-0.499 0.5-0.499h0.998c0.276 0 0.5 0.224 0.5 0.5s-0.224 0.5-0.5 0.5h-0.499l-0 0.334h0.499c0.276 0 0.5 0.224 0.5 0.5s-0.224 0.5-0.5 0.5h-0.499l0 0.164c0.001 0.276-0.223 0.501-0.499 0.501s-0.501-0.223-0.501-0.499l-0.002-0.667 0.002-1.334zM9.497 11c-0.276 0-0.5 0.224-0.5 0.5v2c0 0.276 0.224 0.5 0.5 0.5h0.501c0.828 0 1.5-0.672 1.5-1.5s-0.672-1.5-1.5-1.5h-0.501zM9.997 13v-1h0.001c0.276 0 0.5 0.224 0.5 0.5s-0.224 0.5-0.5 0.5h-0.001zM3.999 4c0-1.105 0.895-2 2-2h4.586c0.398 0 0.779 0.158 1.061 0.439l3.914 3.914c0.281 0.281 0.439 0.663 0.439 1.061v1.667c0.582 0.206 0.999 0.762 0.999 1.414v4.003c0 0.653-0.417 1.208-0.999 1.414v0.087c0 1.105-0.895 2-2 2h-8c-1.105 0-2-0.895-2-2v-0.087c-0.582-0.206-0.999-0.762-0.999-1.414v-4.003c0-0.653 0.417-1.208 0.999-1.414v-5.082zM14.999 8h-3.5c-0.828 0-1.5-0.672-1.5-1.5v-3.5h-4c-0.552 0-1 0.448-1 1v4.996h10v-0.996zM4.999 15.999c0 0.552 0.448 1.001 1 1.001h8c0.552 0 1-0.449 1-1.001h-10zM10.999 3.207v3.293c0 0.276 0.224 0.5 0.5 0.5h3.293l-3.793-3.793zM4.5 9.996c-0.276 0-0.5 0.224-0.5 0.5v4.003c0 0.276 0.224 0.5 0.5 0.5h10.997c0.276 0 0.5-0.224 0.5-0.5v-4.003c0-0.276-0.224-0.5-0.5-0.5h-10.997z"></path>
</svg>
