<svg version="1.1" xmlns="http://www.w3.org/2000/svg" width="20" height="20" viewBox="0 0 20 20">
<title>fontsize</title>
<path d="M13 3.5c0.208 0 0.395 0.129 0.468 0.324l2.996 7.989c0.003 0.007 0.006 0.014 0.008 0.022l1.496 3.989c0.097 0.259-0.034 0.547-0.293 0.644s-0.547-0.034-0.644-0.293l-1.378-3.676h-5.307l-1.378 3.676c-0.072 0.193-0.256 0.322-0.463 0.324s-0.393-0.123-0.47-0.314l-1.074-2.686h-2.923l-1.074 2.686c-0.103 0.256-0.394 0.381-0.65 0.278s-0.381-0.393-0.279-0.65l1.196-2.989c0.003-0.007 0.006-0.014 0.009-0.021l1.796-4.489c0.076-0.19 0.26-0.314 0.464-0.314s0.388 0.124 0.464 0.314l1.796 4.489c0.003 0.007 0.006 0.014 0.009 0.021l0.716 1.791 1.043-2.781c0.003-0.007 0.005-0.015 0.008-0.022l2.996-7.989c0.073-0.195 0.26-0.324 0.468-0.324zM10.722 11.5h4.557l-2.278-6.076-2.278 6.076zM6.562 12.5l-1.061-2.654-1.061 2.654h2.123z"></path>
</svg>
