<svg version="1.1" xmlns="http://www.w3.org/2000/svg" width="20" height="20" viewBox="0 0 20 20">
<title>globe</title>
<path d="M2 10.001c0-4.419 3.582-8.001 8.001-8.001s8 3.582 8 8.001c0 4.418-3.582 8-8 8s-8.001-3.582-8.001-8zM10.001 3c-0.085 0-0.17 0.002-0.255 0.005 0.117 0.222 0.253 0.505 0.372 0.823 0.281 0.746 0.527 1.817 0.085 2.758-0.404 0.861-1.097 1.084-1.632 1.223l-0.097 0.025c-0.506 0.13-0.755 0.194-0.93 0.459-0.17 0.258-0.129 0.574 0.037 1.114 0.012 0.040 0.025 0.081 0.039 0.124 0.066 0.211 0.143 0.456 0.183 0.687 0.050 0.286 0.061 0.636-0.113 0.97-0.179 0.344-0.414 0.574-0.689 0.724-0.261 0.142-0.533 0.197-0.747 0.235l-0.088 0.016c-0.408 0.071-0.645 0.113-0.867 0.351-0.177 0.19-0.279 0.508-0.336 0.941-0.024 0.178-0.038 0.355-0.052 0.534l-0.008 0.095c-0.016 0.199-0.036 0.419-0.079 0.605l-0.004 0.020c1.281 1.409 3.128 2.293 5.182 2.293 1.351 0 2.612-0.383 3.682-1.045-0.086-0.085-0.181-0.188-0.274-0.306-0.271-0.341-0.609-0.909-0.492-1.57 0.056-0.314 0.225-0.582 0.397-0.795 0.174-0.216 0.386-0.417 0.576-0.592 0.044-0.041 0.087-0.079 0.128-0.117 0.146-0.133 0.273-0.25 0.382-0.363 0.147-0.154 0.192-0.236 0.199-0.263 0.068-0.225-0.013-0.404-0.125-0.491-0.095-0.073-0.295-0.142-0.611 0.058-0.119 0.075-0.227 0.141-0.323 0.191-0.086 0.045-0.205 0.102-0.336 0.122-0.157 0.025-0.375 0.002-0.544-0.178-0.128-0.136-0.164-0.301-0.178-0.375-0.017-0.089-0.025-0.19-0.031-0.275l-0.005-0.067c-0.005-0.074-0.011-0.15-0.019-0.237-0.021-0.222-0.058-0.496-0.143-0.826-0.128-0.491-0.44-0.888-0.764-1.299-0.047-0.060-0.095-0.121-0.142-0.182-0.159-0.206-0.363-0.478-0.436-0.769-0.042-0.164-0.048-0.354 0.025-0.548 0.072-0.19 0.203-0.336 0.352-0.448 0.428-0.321 1.128-1.013 1.743-1.652 0.303-0.314 0.576-0.607 0.775-0.822 0.002-0.002 0.004-0.004 0.005-0.006-1.103-0.725-2.422-1.146-3.84-1.146zM14.638 4.757c-0.022 0.024-0.045 0.049-0.069 0.075-0.201 0.218-0.48 0.516-0.788 0.836-0.602 0.626-1.351 1.373-1.855 1.752 0.030 0.066 0.1 0.176 0.242 0.359 0.038 0.049 0.080 0.101 0.124 0.158 0.316 0.397 0.774 0.972 0.959 1.683 0.103 0.395 0.147 0.725 0.172 0.985l0.001 0.009c0.588-0.329 1.209-0.295 1.661 0.054 0.458 0.354 0.653 0.971 0.471 1.572-0.081 0.268-0.272 0.495-0.433 0.664-0.135 0.141-0.296 0.289-0.446 0.425-0.038 0.034-0.074 0.068-0.11 0.101-0.188 0.173-0.351 0.331-0.475 0.484-0.126 0.157-0.178 0.268-0.191 0.342-0.040 0.227 0.072 0.498 0.29 0.773 0.101 0.127 0.208 0.234 0.291 0.309 0.008 0.008 0.017 0.015 0.024 0.022 1.526-1.284 2.495-3.208 2.495-5.358 0-2.087-0.913-3.961-2.363-5.244zM8.798 3.354c-0.053-0.096-0.099-0.173-0.133-0.227-3.228 0.623-5.666 3.464-5.666 6.873 0 1.283 0.345 2.485 0.948 3.519 0.007-0.065 0.015-0.131 0.023-0.197 0.062-0.467 0.193-1.059 0.597-1.492 0.462-0.495 1.025-0.588 1.404-0.65 0.038-0.006 0.074-0.012 0.108-0.018 0.203-0.036 0.336-0.070 0.443-0.129 0.093-0.051 0.189-0.132 0.281-0.308 0.028-0.055 0.047-0.148 0.015-0.336-0.028-0.16-0.080-0.328-0.145-0.536-0.015-0.049-0.031-0.099-0.047-0.153-0.153-0.497-0.374-1.262 0.084-1.958 0.4-0.607 1.039-0.762 1.477-0.869 0.047-0.012 0.092-0.022 0.134-0.033 0.467-0.121 0.772-0.242 0.977-0.679 0.261-0.556 0.143-1.292-0.116-1.98-0.124-0.33-0.269-0.619-0.384-0.826z"></path>
</svg>
