<svg version="1.1" xmlns="http://www.w3.org/2000/svg" width="20" height="20" viewBox="0 0 20 20">
<title>link</title>
<path d="M8 6c0.276 0 0.5 0.224 0.5 0.5 0 0.245-0.177 0.45-0.41 0.492l-0.090 0.008h-2c-1.657 0-3 1.343-3 3 0 1.591 1.238 2.892 2.803 2.994l0.197 0.006h2c0.276 0 0.5 0.224 0.5 0.5 0 0.246-0.177 0.45-0.41 0.492l-0.090 0.008h-2c-2.209 0-4-1.791-4-4 0-2.136 1.673-3.88 3.781-3.994l0.219-0.006h2zM14 6c2.209 0 4 1.791 4 4 0 2.136-1.673 3.88-3.781 3.994l-0.219 0.006h-2c-0.276 0-0.5-0.224-0.5-0.5 0-0.246 0.177-0.45 0.41-0.492l0.090-0.008h2c1.657 0 3-1.343 3-3 0-1.591-1.238-2.892-2.803-2.994l-0.197-0.006h-2c-0.276 0-0.5-0.224-0.5-0.5 0-0.245 0.177-0.45 0.41-0.492l0.090-0.008h2zM6 9.5h8c0.276 0 0.5 0.224 0.5 0.5 0 0.246-0.177 0.45-0.41 0.492l-0.090 0.008h-8c-0.276 0-0.5-0.224-0.5-0.5 0-0.245 0.177-0.45 0.41-0.492l0.090-0.008z"></path>
</svg>
