<svg version="1.1" xmlns="http://www.w3.org/2000/svg" width="20" height="20" viewBox="0 0 20 20">
<title>pdf</title>
<path d="M4 4c0-1.105 0.895-2 2-2h4.586c0.398 0 0.779 0.158 1.061 0.439l3.914 3.914c0.281 0.281 0.439 0.663 0.439 1.061v8.586c0 1.105-0.895 2-2 2h-8c-1.105 0-2-0.895-2-2v-0.5c0-0.276 0.224-0.5 0.5-0.5s0.5 0.224 0.5 0.5v0.5c0 0.552 0.448 1 1 1h8c0.552 0 1-0.448 1-1v-8h-3.5c-0.828 0-1.5-0.672-1.5-1.5v-3.5h-4c-0.552 0-1 0.448-1 1v4.5c0 0.276-0.224 0.5-0.5 0.5s-0.5-0.224-0.5-0.5v-4.5zM11.5 7h3.293l-3.793-3.793v3.293c0 0.276 0.224 0.5 0.5 0.5z"></path>
<path d="M11.5 9.455c0 0.251-0.203 0.455-0.454 0.455h-0.591c-0.251 0-0.454 0.204-0.454 0.455s0.203 0.455 0.454 0.455h0.591c0.251 0 0.454 0.203 0.454 0.454s-0.203 0.455-0.454 0.455h-1.046v1.773c0 0.276-0.224 0.5-0.5 0.5s-0.5-0.224-0.5-0.5v-3.5c0-0.552 0.448-1 1-1h1.046c0.251 0 0.454 0.204 0.454 0.455z"></path>
<path d="M7.5 9c-0.276 0-0.5 0.224-0.5 0.5v0.864h-0.5c-0.828 0-1.5 0.672-1.5 1.5v0.636c0 0.828 0.672 1.5 1.5 1.5s1.5-0.672 1.5-1.5v-3c0-0.276-0.224-0.5-0.5-0.5zM7 12.591c0 0.276-0.224 0.5-0.5 0.5s-0.5-0.224-0.5-0.5v-0.818c0-0.276 0.224-0.5 0.5-0.5s0.5 0.224 0.5 0.5v0.818z"></path>
<path d="M2 13.636c0 0.276-0.224 0.5-0.5 0.5s-0.5-0.224-0.5-0.5v-2.636c0-0.552 0.448-1 1-1h1.136c0.753 0 1.364 0.611 1.364 1.364s-0.611 1.364-1.364 1.364h-1.136v0.909zM2.455 10.909c-0.251 0-0.455 0.203-0.455 0.454s0.204 0.455 0.455 0.455h0.591c0.251 0 0.455-0.203 0.455-0.455s-0.204-0.454-0.455-0.454h-0.591z"></path>
</svg>
