<svg version="1.1" xmlns="http://www.w3.org/2000/svg" width="20" height="20" viewBox="0 0 20 20">
<title>preferences</title>
<path d="M1.911 7.383c0.369-1.142 0.978-2.191 1.78-3.079 0.136-0.15 0.349-0.204 0.539-0.136l1.918 0.686c0.52 0.186 1.092-0.085 1.278-0.605 0.018-0.051 0.032-0.104 0.042-0.157l0.365-2.006c0.036-0.199 0.19-0.357 0.388-0.399 0.58-0.123 1.175-0.186 1.778-0.186s1.197 0.063 1.777 0.186c0.198 0.042 0.352 0.2 0.388 0.399l0.367 2.006c0.099 0.543 0.62 0.903 1.163 0.804 0.053-0.010 0.106-0.024 0.157-0.042l1.918-0.686c0.191-0.068 0.404-0.015 0.539 0.136 0.803 0.888 1.411 1.937 1.78 3.079 0.062 0.193 0.002 0.404-0.152 0.535l-1.555 1.32c-0.421 0.357-0.472 0.989-0.115 1.41 0.035 0.041 0.074 0.080 0.115 0.115l1.555 1.32c0.154 0.131 0.214 0.342 0.152 0.535-0.369 1.142-0.978 2.191-1.78 3.079-0.136 0.15-0.349 0.204-0.539 0.136l-1.918-0.686c-0.52-0.186-1.092 0.085-1.278 0.605-0.018 0.051-0.032 0.104-0.042 0.157l-0.366 2.006c-0.036 0.199-0.19 0.357-0.388 0.399-0.58 0.123-1.174 0.186-1.777 0.186s-1.198-0.063-1.778-0.186c-0.198-0.042-0.351-0.2-0.388-0.399l-0.365-2.006c-0.099-0.543-0.62-0.903-1.163-0.804-0.053 0.010-0.106 0.024-0.157 0.042l-1.918 0.686c-0.191 0.068-0.404 0.015-0.539-0.136-0.803-0.888-1.411-1.937-1.78-3.079-0.062-0.193-0.002-0.404 0.152-0.535l1.555-1.32c0.421-0.357 0.472-0.989 0.115-1.41-0.035-0.041-0.074-0.080-0.115-0.115l-1.555-1.32c-0.154-0.131-0.214-0.342-0.152-0.535zM2.972 7.377l1.294 1.098c0.083 0.070 0.16 0.147 0.23 0.23 0.715 0.842 0.612 2.104-0.23 2.819l-1.294 1.098c0.292 0.782 0.713 1.509 1.245 2.152l1.596-0.571c0.102-0.037 0.207-0.065 0.314-0.084 1.087-0.198 2.128 0.522 2.326 1.609l0.304 1.668c0.408 0.068 0.823 0.102 1.243 0.102s0.835-0.034 1.242-0.102l0.305-1.669c0.019-0.107 0.048-0.212 0.084-0.314 0.372-1.040 1.516-1.582 2.556-1.21l1.596 0.571c0.532-0.643 0.953-1.37 1.245-2.152l-1.294-1.098c-0.083-0.070-0.16-0.147-0.23-0.23-0.715-0.842-0.612-2.104 0.23-2.819l1.294-1.098c-0.292-0.782-0.713-1.509-1.245-2.152l-1.596 0.571c-0.102 0.037-0.207 0.065-0.314 0.084-1.087 0.198-2.128-0.522-2.326-1.609l-0.305-1.669c-0.408-0.068-0.823-0.102-1.242-0.102s-0.835 0.034-1.243 0.102l-0.304 1.669c-0.019 0.107-0.048 0.212-0.084 0.314-0.372 1.040-1.516 1.582-2.556 1.21l-1.596-0.571c-0.531 0.643-0.953 1.37-1.245 2.152zM7.5 10c0-1.381 1.119-2.5 2.5-2.5s2.5 1.119 2.5 2.5-1.119 2.5-2.5 2.5c-1.381 0-2.5-1.119-2.5-2.5zM8.5 10c0 0.828 0.672 1.5 1.5 1.5s1.5-0.672 1.5-1.5c0-0.828-0.672-1.5-1.5-1.5s-1.5 0.672-1.5 1.5z"></path>
</svg>
