<svg version="1.1" xmlns="http://www.w3.org/2000/svg" width="20" height="20" viewBox="0 0 20 20">
<title>pulldown</title>
<path d="M5.854 2.646c0.195 0.195 0.195 0.512 0 0.707l-1.646 1.646h6.793c3.314 0 6 2.686 6 6s-2.686 6-6 6c-3.314 0-6-2.686-6-6 0-0.276 0.224-0.5 0.5-0.5s0.5 0.224 0.5 0.5c0 2.761 2.239 5 5 5s5-2.239 5-5c0-2.761-2.239-5-5-5h-6.793l1.646 1.646c0.195 0.195 0.195 0.512 0 0.707s-0.512 0.195-0.707 0l-2.5-2.5c-0.195-0.195-0.195-0.512 0-0.707l2.5-2.5c0.195-0.195 0.512-0.195 0.707 0z"></path>
</svg>
