<svg version="1.1" xmlns="http://www.w3.org/2000/svg" width="20" height="20" viewBox="0 0 20 20">
<title>runner</title>
<path d="M13.5 6c-0.828 0-1.5-0.672-1.5-1.5s0.672-1.5 1.5-1.5c0.828 0 1.5 0.672 1.5 1.5s-0.672 1.5-1.5 1.5zM14.827 6.619c0.705-0.442 1.173-1.226 1.173-2.119 0-1.381-1.119-2.5-2.5-2.5s-2.5 1.119-2.5 2.5h-3c-1.381 0-2.5 1.119-2.5 2.5v1.75c0 0.688 0.397 1.283 0.974 1.569l-0.681 0.681h-3.043c-0.967 0-1.75 0.783-1.75 1.75s0.783 1.75 1.75 1.75h2.936c0.637 0 1.256-0.207 1.765-0.588l1.002-0.751 1.547 1.547v1.543c0 0.967 0.783 1.75 1.75 1.75s1.75-0.783 1.75-1.75v-3.25c0-0.133-0.053-0.26-0.146-0.354l-1.647-1.646 0.793-0.793 0.097 0.097c0.446 0.446 1.050 0.696 1.681 0.696h2.973c0.967 0 1.75-0.783 1.75-1.75s-0.783-1.75-1.75-1.75h-1.543l-0.881-0.881zM13.778 6.985l1.369 1.369c0.094 0.094 0.221 0.146 0.354 0.146h1.75c0.414 0 0.75 0.336 0.75 0.75s-0.336 0.75-0.75 0.75h-2.973c-0.365 0-0.715-0.145-0.973-0.403l-0.45-0.45c-0.195-0.195-0.512-0.195-0.707 0l-1.5 1.5c-0.195 0.195-0.195 0.512 0 0.707l1.854 1.853v3.043c0 0.414-0.336 0.75-0.75 0.75s-0.75-0.336-0.75-0.75v-1.75c0-0.133-0.053-0.26-0.146-0.354l-2-2c-0.176-0.176-0.454-0.196-0.654-0.046l-1.349 1.012c-0.336 0.252-0.745 0.388-1.165 0.388h-2.936c-0.414 0-0.75-0.336-0.75-0.75s0.336-0.75 0.75-0.75h3.25c0.133 0 0.26-0.053 0.354-0.146l1.439-1.439c0.701-0.228 1.207-0.887 1.207-1.664v-0.75h1c0.276 0 0.5-0.224 0.5-0.5s-0.224-0.5-0.5-0.5h-1.5c-0.276 0-0.5 0.224-0.5 0.5v1.25c0 0.414-0.336 0.75-0.75 0.75s-0.75-0.336-0.75-0.75v-1.75c0-0.828 0.672-1.5 1.5-1.5h3.208c0.386 0.883 1.267 1.5 2.292 1.5 0.094 0 0.187-0.005 0.278-0.015z"></path>
</svg>
