<svg version="1.1" xmlns="http://www.w3.org/2000/svg" width="20" height="20" viewBox="0 0 20 20">
<title>selectall</title>
<path d="M2 4c0-1.105 0.895-2 2-2h10c1.105 0 2 0.895 2 2v10c0 1.105-0.895 2-2 2h-10c-1.105 0-2-0.895-2-2v-10zM4 3c-0.552 0-1 0.448-1 1v10c0 0.552 0.448 1 1 1h10c0.552 0 1-0.448 1-1v-10c0-0.552-0.448-1-1-1h-10zM6 18c-0.74 0-1.387-0.402-1.732-1h9.732c1.657 0 3-1.343 3-3v-9.732c0.598 0.346 1 0.992 1 1.732v8c0 2.209-1.791 4-4 4h-8zM12.376 7.329c0.182-0.208 0.161-0.524-0.047-0.706s-0.524-0.161-0.706 0.047l-3.148 3.598-1.622-1.622c-0.195-0.195-0.512-0.195-0.707 0s-0.195 0.512 0 0.707l2 2c0.098 0.098 0.232 0.151 0.37 0.146s0.269-0.066 0.36-0.17l3.5-4z"></path>
</svg>
