<svg version="1.1" xmlns="http://www.w3.org/2000/svg" width="20" height="20" viewBox="0 0 20 20">
<title>sorted</title>
<path d="M14.839 16.722c-0.137 0.169-0.354 0.278-0.589 0.278-0.193 0.001-0.38-0.072-0.527-0.22l-3.004-3.008c-0.292-0.293-0.292-0.768 0-1.061s0.767-0.293 1.059 0l1.722 1.733v-10.694c0-0.414 0.336-0.75 0.75-0.75s0.75 0.336 0.75 0.75v10.684l1.722-1.718c0.292-0.293 0.767-0.293 1.059 0s0.292 0.768 0 1.061l-2.941 2.946zM6.339 3.278c-0.137-0.169-0.354-0.278-0.589-0.278-0.193-0.001-0.38 0.072-0.527 0.22l-3.004 3.008c-0.292 0.293-0.292 0.768 0 1.061s0.767 0.293 1.059 0l1.722-1.733v10.694c0 0.414 0.336 0.75 0.75 0.75s0.75-0.336 0.75-0.75v-10.684l1.722 1.718c0.292 0.293 0.767 0.293 1.059 0s0.292-0.768 0-1.061l-2.941-2.946z"></path>
</svg>
