<svg version="1.1" xmlns="http://www.w3.org/2000/svg" width="20" height="20" viewBox="0 0 20 20">
<title>startswith</title>
<path d="M10.521 8.1c0.069 0.039 0.13 0.093 0.177 0.179 0.048 0.088 0.096 0.236 0.096 0.48 0 0.397-0.15 0.543-0.275 0.619-0.164 0.099-0.374 0.123-0.495 0.123h-1.023v-1.5h1c0.158 0 0.361 0.010 0.521 0.1z"></path>
<path d="M9.364 10.5h0.821c0.187 0 0.433 0.007 0.628 0.103 0.087 0.043 0.154 0.1 0.203 0.181s0.101 0.221 0.101 0.458c0 0.383-0.152 0.536-0.301 0.623-0.187 0.109-0.427 0.136-0.567 0.136h-1.25v-1.5h0.364z"></path>
<path d="M4.564 8.938l-0.847 2.062h1.624l-0.777-2.062z"></path>
<path d="M3 6h8c1.105 0 2 0.895 2 2v4c0 1.105-0.895 2-2 2h-8c-1.105 0-2-0.895-2-2v-4c0-1.105 0.895-2 2-2zM11.473 9.836c0.196-0.267 0.32-0.622 0.32-1.077 0-0.376-0.074-0.696-0.219-0.96-0.146-0.267-0.349-0.45-0.564-0.57-0.406-0.228-0.846-0.228-1.008-0.228h-1.503c-0.276 0-0.5 0.224-0.5 0.5v5c0 0.276 0.224 0.5 0.5 0.5h1.75c0.218 0 0.662-0.035 1.069-0.271 0.446-0.259 0.798-0.736 0.798-1.487 0-0.384-0.084-0.71-0.246-0.978-0.111-0.182-0.25-0.322-0.398-0.428zM4.593 7c-0.222-0.003-0.422 0.124-0.503 0.319l-2.055 5c-0.106 0.258 0.030 0.547 0.303 0.647s0.581-0.028 0.687-0.286l0.28-0.681h2.412l0.251 0.667c0.098 0.26 0.401 0.396 0.678 0.304s0.421-0.378 0.323-0.638l-1.883-5c-0.074-0.197-0.271-0.33-0.493-0.333z"></path>
<path d="M17.78 7.201c0.507 0.222 0.91 0.642 1.187 1.328 0.105 0.26-0.047 0.546-0.34 0.64s-0.616-0.042-0.721-0.302c-0.207-0.512-0.447-0.691-0.625-0.768-0.207-0.091-0.44-0.098-0.782-0.098-0.345 0-0.574 0.098-0.744 0.233-0.182 0.144-0.321 0.352-0.422 0.594-0.101 0.24-0.154 0.487-0.181 0.679-0.013 0.095-0.020 0.173-0.023 0.226-0.002 0.026-0.002 0.046-0.003 0.059l-0 0.013c0 0.401 0.006 0.933 0.203 1.383 0.095 0.216 0.227 0.395 0.409 0.529 0.179 0.131 0.435 0.241 0.823 0.28 0.313 0.031 1.031-0.013 1.361-0.662 0.128-0.252 0.461-0.364 0.745-0.251s0.41 0.409 0.282 0.661c-0.639 1.259-2.043 1.292-2.513 1.246-0.581-0.058-1.050-0.234-1.416-0.503-0.363-0.266-0.593-0.601-0.741-0.936-0.281-0.639-0.281-1.341-0.281-1.724v-0.026l0-0.008 0.001-0.026c0.001-0.021 0.002-0.051 0.004-0.087 0.004-0.073 0.013-0.175 0.030-0.296 0.034-0.24 0.102-0.569 0.243-0.905 0.14-0.334 0.364-0.702 0.727-0.99 0.375-0.297 0.871-0.487 1.495-0.487l0.031-0c0.31-0 0.787-0.001 1.249 0.201z"></path>
</svg>
