<svg version="1.1" xmlns="http://www.w3.org/2000/svg" width="20" height="20" viewBox="0 0 20 20">
<title>tableremoverow</title>
<path d="M2.5 9.5c-0.276 0-0.5 0.224-0.5 0.5s0.224 0.5 0.5 0.5h4.875c0.107-0.127 0.228-0.244 0.348-0.36 0.048-0.047 0.096-0.093 0.143-0.14-0.047-0.047-0.095-0.093-0.143-0.14-0.12-0.116-0.241-0.233-0.348-0.36h-4.875zM17.5 10.5h-4.888c-0.107-0.127-0.227-0.244-0.348-0.36-0.048-0.047-0.096-0.093-0.143-0.14 0.047-0.047 0.095-0.093 0.143-0.14 0.12-0.116 0.241-0.233 0.348-0.36h4.888c0.276 0 0.5 0.224 0.5 0.5s-0.224 0.5-0.5 0.5zM8.146 8.146c-0.195 0.195-0.195 0.512 0 0.707l1.146 1.146-1.146 1.146c-0.195 0.195-0.195 0.512 0 0.707s0.512 0.195 0.707 0l1.146-1.147 1.146 1.147c0.195 0.195 0.512 0.195 0.707 0s0.195-0.512 0-0.707l-1.147-1.146 1.147-1.146c0.195-0.195 0.195-0.512 0-0.707s-0.512-0.195-0.707 0l-1.146 1.146-1.146-1.146c-0.195-0.195-0.512-0.195-0.707 0z"></path>
<path d="M3.5 6c-0.276 0-0.5-0.224-0.5-0.5v-1.5c0-1.105 0.895-2 2-2h10c1.105 0 2 0.895 2 2v1.5c0 0.276-0.224 0.5-0.5 0.5s-0.5-0.224-0.5-0.5v-1.5c0-0.552-0.448-1-1-1h-2v2.5c0 0.276-0.224 0.5-0.5 0.5s-0.5-0.224-0.5-0.5v-2.5h-4v2.5c0 0.276-0.224 0.5-0.5 0.5s-0.5-0.224-0.5-0.5v-2.5h-2c-0.552 0-1 0.448-1 1v1.5c0 0.276-0.224 0.5-0.5 0.5zM3.5 14c-0.276 0-0.5 0.224-0.5 0.5v1.5c0 1.105 0.895 2 2 2h10c1.105 0 2-0.895 2-2v-1.5c0-0.276-0.224-0.5-0.5-0.5s-0.5 0.224-0.5 0.5v1.5c0 0.552-0.448 1-1 1h-2v-2.5c0-0.276-0.224-0.5-0.5-0.5s-0.5 0.224-0.5 0.5v2.5h-4v-2.5c0-0.276-0.224-0.5-0.5-0.5s-0.5 0.224-0.5 0.5v2.5h-2c-0.552 0-1-0.448-1-1v-1.5c0-0.276-0.224-0.5-0.5-0.5z"></path>
</svg>
