<svg version="1.1" xmlns="http://www.w3.org/2000/svg" width="20" height="20" viewBox="0 0 20 20">
<title>tag</title>
<path d="M13.999 7c0.552 0 1-0.448 1-1s-0.448-1-1-1c-0.552 0-1 0.448-1 1s0.448 1 1 1zM11.128 2c-0.534-0.003-1.047 0.207-1.425 0.584l-6.682 6.665c-0.783 0.781-0.784 2.048-0.002 2.83l4.948 4.948c0.781 0.781 2.047 0.781 2.828 0l6.631-6.631c0.376-0.376 0.587-0.886 0.586-1.417l-0.007-4.95c-0.002-1.098-0.889-1.99-1.987-1.997l-4.89-0.032zM10.409 3.292c0.189-0.189 0.446-0.294 0.713-0.292l4.89 0.032c0.549 0.004 0.993 0.449 0.993 0.998l0.007 4.95c0 0.266-0.105 0.521-0.293 0.709l-6.631 6.631c-0.391 0.391-1.024 0.391-1.414 0l-4.948-4.948c-0.391-0.391-0.39-1.025 0.001-1.415l6.682-6.665z"></path>
</svg>
