<svg version="1.1" xmlns="http://www.w3.org/2000/svg" width="20" height="20" viewBox="0 0 20 20">
<title>variable</title>
<path d="M5.825 6.12c0.21 0.18 0.234 0.495 0.054 0.705l-2.721 3.175 2.721 3.175c0.18 0.21 0.155 0.525-0.054 0.705s-0.525 0.156-0.705-0.054l-3-3.5c-0.16-0.187-0.16-0.464 0-0.651l3-3.5c0.18-0.21 0.495-0.234 0.705-0.054z"></path>
<path d="M14.175 6.12c-0.21 0.18-0.234 0.495-0.054 0.705l2.721 3.175-2.721 3.175c-0.18 0.21-0.155 0.525 0.054 0.705s0.525 0.156 0.705-0.054l3-3.5c0.161-0.187 0.161-0.464 0-0.651l-3-3.5c-0.18-0.21-0.495-0.234-0.705-0.054z"></path>
<path d="M11.505 7.005c0.273 0.040 0.462 0.294 0.422 0.567l-0.065 0.442h0.637c0.276 0 0.5 0.224 0.5 0.5s-0.224 0.5-0.5 0.5h-0.784l-0.22 1.5h0.503c0.276 0 0.5 0.224 0.5 0.5s-0.224 0.5-0.5 0.5h-0.65l-0.157 1.075c-0.040 0.273-0.294 0.462-0.567 0.422s-0.462-0.294-0.422-0.567l0.136-0.93h-1.239l-0.157 1.075c-0.040 0.273-0.294 0.462-0.567 0.422s-0.462-0.294-0.422-0.567l0.136-0.93h-0.59c-0.276 0-0.5-0.224-0.5-0.5s0.224-0.5 0.5-0.5h0.736l0.22-1.5h-0.456c-0.276 0-0.5-0.224-0.5-0.5s0.224-0.5 0.5-0.5h0.602l0.086-0.587c0.040-0.273 0.294-0.462 0.567-0.422s0.462 0.294 0.422 0.567l-0.065 0.442h1.239l0.086-0.587c0.040-0.273 0.294-0.462 0.567-0.422zM9.466 9.014l-0.22 1.5h1.239l0.22-1.5h-1.239z"></path>
</svg>
