<?xml version="1.0" encoding="utf-8"?>
<svg version="1.1" id="_x31_" xmlns="http://www.w3.org/2000/svg" xmlns:xlink="http://www.w3.org/1999/xlink" x="0px" y="0px"
	 viewBox="0 0 64 64" style="enable-background:new 0 0 64 64;" xml:space="preserve">
<style type="text/css">
	.st0{fill-rule:evenodd;clip-rule:evenodd;}
	.st1{opacity:0.5;}
</style>
<g id="_x34_">
	<path id="_x35_" class="st0" d="M19,57v-8c0-1.1,0.9-2,2-2h8c1.1,0,2,0.9,2,2v8c0,1.1-0.9,2-2,2h-8C19.9,59,19,58.1,19,57z M29,57
		v-8h-8v8H29z M5,43v-8c0-1.1,0.9-2,2-2h8c1.1,0,2,0.9,2,2v8c0,1.1-0.9,2-2,2H7C5.9,45,5,44.1,5,43z M15,43v-8H7v8H15z M33,43v-8
		c0-1.1,0.9-2,2-2h8c1.1,0,2,0.9,2,2v8c0,1.1-0.9,2-2,2h-8C33.9,45,33,44.1,33,43z M43,43v-8h-8v8H43z M49,43v-8c0-1.1,0.9-2,2-2h8
		c1.1,0,2,0.9,2,2v8c0,1.1-0.9,2-2,2h-8C49.9,45,49,44.1,49,43z M59,43v-8h-8v8H59z M19,29v-8c0-1.1,0.9-2,2-2h8c1.1,0,2,0.9,2,2v8
		c0,1.1-0.9,2-2,2h-8C19.9,31,19,30.1,19,29z M29,29v-8h-8v8H29z M11,5v5h50v2H11v5l-6-6L11,5z" fill="currentColor" />
</g>
<g id="_x32_" class="st1">
	<path id="_x33_" class="st0" d="M10,52v-7h2v7h7v2h-7h-2V52z M38,52v-7h2v7v2h-2h-7v-2H38z M49,38v2h-4v-2H49z M10,24h2h7v2h-7v7
		h-2v-7V24z M31,26v-2h7h2v2v7h-2v-7H31z" fill="currentColor" />
</g>
</svg>
