<svg version="1.1" xmlns="http://www.w3.org/2000/svg" width="20" height="20" viewBox="0 0 20 20">
<title>arrowback</title>
<path d="M6 4.5c0-0.276 0.224-0.5 0.5-0.5h4.5c1.636 0 2.899 0.618 3.749 1.574 0.841 0.947 1.251 2.194 1.251 3.426s-0.41 2.479-1.251 3.426c-0.849 0.956-2.113 1.574-3.749 1.574h-5.293l2.646 2.646c0.195 0.195 0.195 0.512 0 0.707s-0.512 0.195-0.707 0l-3.5-3.5c-0.195-0.195-0.195-0.512 0-0.707l3.5-3.5c0.195-0.195 0.512-0.195 0.707 0s0.195 0.512 0 0.707l-2.646 2.646h5.293c1.364 0 2.351-0.507 3.001-1.238 0.659-0.741 0.999-1.743 0.999-2.762s-0.34-2.021-0.999-2.762c-0.651-0.732-1.637-1.238-3.001-1.238h-4.5c-0.276 0-0.5-0.224-0.5-0.5z"></path>
</svg>
