<svg version="1.1" xmlns="http://www.w3.org/2000/svg" width="20" height="20" viewBox="0 0 20 20">
<title>arrowleft</title>
<path d="M8.735 3.209c0.301-0.285 0.776-0.271 1.060 0.030s0.271 0.776-0.030 1.060l-5.239 4.955h12.724c0.414 0 0.75 0.336 0.75 0.75s-0.336 0.75-0.75 0.75h-12.726l5.241 4.957c0.301 0.285 0.314 0.759 0.030 1.060s-0.759 0.314-1.060 0.029l-6.417-6.069c-0.166-0.157-0.266-0.357-0.3-0.566-0.011-0.052-0.017-0.106-0.017-0.161 0-0.058 0.006-0.114 0.019-0.168 0.035-0.206 0.135-0.403 0.299-0.558l6.417-6.069z"></path>
</svg>

