<svg version="1.1" xmlns="http://www.w3.org/2000/svg" width="20" height="20" viewBox="0 0 20 20">
<title>arrowup</title>
<path d="M3.131 9.161c-0.186 0.204-0.172 0.52 0.032 0.706s0.52 0.172 0.706-0.032l5.631-6.168v13.831c0 0.276 0.224 0.5 0.5 0.5s0.5-0.224 0.5-0.5v-13.828l5.628 6.165c0.186 0.204 0.502 0.218 0.706 0.032s0.218-0.502 0.032-0.706l-6.314-6.916c-0.128-0.14-0.295-0.22-0.468-0.239-0.027-0.005-0.055-0.007-0.084-0.007-0.027 0-0.053 0.002-0.079 0.006-0.176 0.018-0.347 0.098-0.476 0.24l-6.314 6.916z"></path>
</svg>
