<svg version="1.1" xmlns="http://www.w3.org/2000/svg" width="20" height="20" viewBox="0 0 20 20">
<title>blockquote</title>
<path d="M7.826 8.619c-0.196 1.117-0.54 2.016-0.952 2.765-0.649 1.181-1.476 2.011-2.228 2.762-0.195 0.195-0.195 0.512 0 0.707s0.512 0.195 0.707 0l0.012-0.012c0.746-0.746 1.663-1.663 2.385-2.976 0.73-1.328 1.249-3.036 1.249-5.366 0-1.381-1.119-2.5-2.5-2.5s-2.5 1.119-2.5 2.5c0 1.381 1.119 2.5 2.5 2.5 0.487 0 0.942-0.139 1.326-0.381zM8 6.5c0 0.828-0.672 1.5-1.5 1.5s-1.5-0.672-1.5-1.5c0-0.828 0.672-1.5 1.5-1.5s1.5 0.672 1.5 1.5zM14.826 8.619c-0.196 1.117-0.54 2.016-0.952 2.765-0.649 1.181-1.477 2.011-2.228 2.762-0.195 0.195-0.195 0.512 0 0.707s0.512 0.195 0.707 0l0.012-0.012c0.746-0.746 1.663-1.663 2.385-2.976 0.73-1.328 1.249-3.036 1.249-5.366 0-1.381-1.119-2.5-2.5-2.5s-2.5 1.119-2.5 2.5c0 1.381 1.119 2.5 2.5 2.5 0.487 0 0.942-0.139 1.326-0.381zM13.5 8c-0.828 0-1.5-0.672-1.5-1.5s0.672-1.5 1.5-1.5c0.828 0 1.5 0.672 1.5 1.5s-0.672 1.5-1.5 1.5z"></path>
</svg>
