<svg version="1.1" xmlns="http://www.w3.org/2000/svg" width="20" height="20" viewBox="0 0 20 20">
<title>cart</title>
<path d="M2.996 3.496c0-0.276 0.224-0.5 0.5-0.5h0.438c0.727 0 1.144 0.473 1.386 0.945 0.166 0.323 0.285 0.717 0.384 1.059h10.295c0.663 0 1.143 0.634 0.962 1.273l-1.496 5.275c-0.244 0.861-1.030 1.454-1.924 1.454h-5.079c-0.902 0-1.692-0.603-1.929-1.473l-0.642-2.354c-0.004-0.011-0.008-0.022-0.011-0.033l-1.029-3.498c-0.035-0.116-0.068-0.229-0.099-0.337-0.1-0.346-0.188-0.652-0.32-0.909-0.159-0.311-0.306-0.401-0.496-0.401h-0.438c-0.276 0-0.5-0.224-0.5-0.5zM6.844 8.869l0.654 2.396c0.119 0.435 0.514 0.737 0.965 0.737h5.079c0.447 0 0.84-0.297 0.962-0.727l1.496-5.274h-9.999l0.844 2.869zM9.999 15.499c0 0.828-0.672 1.5-1.5 1.5s-1.5-0.672-1.5-1.5c0-0.828 0.672-1.5 1.5-1.5s1.5 0.672 1.5 1.5zM8.999 15.499c0-0.276-0.224-0.5-0.5-0.5s-0.5 0.224-0.5 0.5c0 0.276 0.224 0.5 0.5 0.5s0.5-0.224 0.5-0.5zM14.999 15.499c0 0.828-0.672 1.5-1.5 1.5s-1.5-0.672-1.5-1.5 0.672-1.5 1.5-1.5c0.828 0 1.5 0.672 1.5 1.5zM13.999 15.499c0-0.276-0.224-0.5-0.5-0.5s-0.5 0.224-0.5 0.5c0 0.276 0.224 0.5 0.5 0.5s0.5-0.224 0.5-0.5z"></path>
</svg>
