<svg version="1.1" xmlns="http://www.w3.org/2000/svg" width="20" height="20" viewBox="0 0 20 20">
<title>chevrondoubleleft</title>
<path d="M11.269 15.794c-0.3 0.286-0.775 0.274-1.060-0.026l-5.001-5.25c-0.276-0.29-0.276-0.745 0-1.035l5.001-5.25c0.286-0.3 0.76-0.311 1.060-0.026s0.312 0.76 0.026 1.060l-4.509 4.733 4.509 4.733c0.286 0.3 0.274 0.775-0.026 1.060zM15.27 15.795c-0.3 0.286-0.775 0.274-1.060-0.026l-5.001-5.251c-0.276-0.29-0.276-0.745 0-1.035l5.001-5.25c0.286-0.3 0.76-0.311 1.060-0.026s0.312 0.76 0.026 1.060l-4.509 4.733 4.509 4.733c0.286 0.3 0.274 0.775-0.026 1.060z"></path>
</svg>
