<svg version="1.1" xmlns="http://www.w3.org/2000/svg" width="20" height="20" viewBox="0 0 20 20">
<title>coffee</title>
<path d="M5 2.5c0-0.276-0.224-0.5-0.5-0.5s-0.5 0.224-0.5 0.5c0 1.002 0.686 1.515 1.16 1.87l0.040 0.030c0.526 0.394 0.8 0.63 0.8 1.1 0 0.276 0.224 0.5 0.5 0.5s0.5-0.224 0.5-0.5c0-1.002-0.686-1.515-1.16-1.87l-0.040-0.030c-0.526-0.394-0.8-0.63-0.8-1.1zM15 7.935v1.065h1c1.657 0 3 1.343 3 3s-1.343 3-3 3h-1.803c-1.037 1.793-2.977 3-5.197 3-3.314 0-6-2.686-6-6v-4.065c0-0.516 0.419-0.935 0.935-0.935h10.13c0.516 0 0.935 0.419 0.935 0.935zM4 8v4c0 2.761 2.239 5 5 5s5-2.239 5-5v-4h-10zM15 12c0 0.701-0.12 1.374-0.341 2h1.341c1.105 0 2-0.895 2-2s-0.895-2-2-2h-1v2zM7.5 2c0.276 0 0.5 0.224 0.5 0.5 0 0.47 0.274 0.706 0.8 1.1l0.040 0.030c0.474 0.355 1.16 0.868 1.16 1.87 0 0.276-0.224 0.5-0.5 0.5s-0.5-0.224-0.5-0.5c0-0.47-0.274-0.706-0.8-1.1l-0.040-0.030c-0.474-0.355-1.16-0.868-1.16-1.87 0-0.276 0.224-0.5 0.5-0.5zM11 2.5c0-0.276-0.224-0.5-0.5-0.5s-0.5 0.224-0.5 0.5c0 1.002 0.686 1.515 1.16 1.87l0.040 0.030c0.526 0.394 0.8 0.63 0.8 1.1 0 0.276 0.224 0.5 0.5 0.5s0.5-0.224 0.5-0.5c0-1.002-0.686-1.515-1.16-1.87l-0.040-0.030c-0.526-0.394-0.8-0.63-0.8-1.1z"></path>
</svg>
