<svg version="1.1" xmlns="http://www.w3.org/2000/svg" width="20" height="20" viewBox="0 0 20 20">
<title>drag</title>
<path d="M8.25 4c0 0.69-0.56 1.25-1.25 1.25s-1.25-0.56-1.25-1.25c0-0.69 0.56-1.25 1.25-1.25s1.25 0.56 1.25 1.25zM13 17.25c0.69 0 1.25-0.56 1.25-1.25s-0.56-1.25-1.25-1.25c-0.69 0-1.25 0.56-1.25 1.25s0.56 1.25 1.25 1.25zM14.25 10c0 0.69-0.56 1.25-1.25 1.25s-1.25-0.56-1.25-1.25c0-0.69 0.56-1.25 1.25-1.25s1.25 0.56 1.25 1.25zM13 5.25c0.69 0 1.25-0.56 1.25-1.25s-0.56-1.25-1.25-1.25c-0.69 0-1.25 0.56-1.25 1.25s0.56 1.25 1.25 1.25zM8.25 16c0 0.69-0.56 1.25-1.25 1.25s-1.25-0.56-1.25-1.25c0-0.69 0.56-1.25 1.25-1.25s1.25 0.56 1.25 1.25zM7 11.25c0.69 0 1.25-0.56 1.25-1.25s-0.56-1.25-1.25-1.25-1.25 0.56-1.25 1.25c0 0.69 0.56 1.25 1.25 1.25z"></path>
</svg>
