<svg version="1.1" xmlns="http://www.w3.org/2000/svg" width="20" height="20" viewBox="0 0 20 20">
<title>drawer-left</title>
<path d="M17 4.5c0-0.276-0.224-0.5-0.5-0.5h-9c-0.276 0-0.5 0.224-0.5 0.5s0.224 0.5 0.5 0.5h9c0.276 0 0.5-0.224 0.5-0.5zM16.5 14c0.276 0 0.5 0.224 0.5 0.5s-0.224 0.5-0.5 0.5h-9c-0.276 0-0.5-0.224-0.5-0.5s0.224-0.5 0.5-0.5h9z"></path>
<path d="M4.707 10h11.793c0.276 0 0.5-0.224 0.5-0.5s-0.224-0.5-0.5-0.5h-11.793l1.146-1.146c0.195-0.195 0.195-0.512 0-0.707s-0.512-0.195-0.707 0l-2 2c-0.048 0.048-0.084 0.103-0.109 0.162s-0.038 0.124-0.038 0.191 0.013 0.132 0.038 0.191c0.024 0.059 0.061 0.114 0.109 0.162l2 2c0.195 0.195 0.512 0.195 0.707 0s0.195-0.512 0-0.707l-1.146-1.146z"></path>
</svg>
