<svg version="1.1" xmlns="http://www.w3.org/2000/svg" width="20" height="20" viewBox="0 0 20 20">
<title>edit-header</title>
<path d="M3 5v3h14v-3c0-1.105-0.895-2-2-2h-10c-1.105 0-2 0.895-2 2zM8 4h4v3h-4v-3zM16 7h-3v-3h2c0.552 0 1 0.448 1 1v2zM7 4v3h-3v-2c0-0.552 0.448-1 1-1h2zM3 9.5c0-0.276 0.224-0.5 0.5-0.5s0.5 0.224 0.5 0.5v2.5h3v-2.5c0-0.276 0.224-0.5 0.5-0.5s0.5 0.224 0.5 0.5v2.5h4v-2.5c0-0.276 0.224-0.5 0.5-0.5s0.5 0.224 0.5 0.5v2.46l-1.040 1.040h-3.96v3h1.62l-0.006 0.023-0.244 0.977h-4.369c-1.105 0-2-0.895-2-2v-5.5zM7 16v-3h-3v2c0 0.552 0.448 1 1 1h2zM10.98 15.377l4.829-4.829c0.73-0.73 1.914-0.73 2.645 0s0.73 1.914 0 2.645l-4.829 4.829c-0.282 0.282-0.634 0.481-1.021 0.578l-1.498 0.374c-0.651 0.163-1.241-0.427-1.079-1.079l0.374-1.498c0.097-0.386 0.296-0.739 0.578-1.021z"></path>
</svg>
