<svg version="1.1" xmlns="http://www.w3.org/2000/svg" width="20" height="20" viewBox="0 0 20 20">
<title>folder</title>
<path d="M3 5.5v6.604l1.501-2.599c0.536-0.928 1.526-1.5 2.598-1.5h7.901v-0.505c0-0.828-0.672-1.5-1.5-1.5h-4c-0.133 0-0.26-0.053-0.354-0.146l-1.707-1.707c-0.094-0.094-0.221-0.146-0.354-0.146h-2.586c-0.828 0-1.5 0.672-1.5 1.5zM4.284 15.984c0.071 0.010 0.145 0.016 0.22 0.016h9.397c0.714 0 1.375-0.381 1.732-1l2.162-3.745c0.577-1-0.144-2.25-1.299-2.25h-9.397c-0.715 0-1.375 0.381-1.732 1l-2.162 3.745c-0.422 0.732-0.149 1.597 0.48 2.009 0.177 0.115 0.381 0.194 0.599 0.225zM2 14.461v-8.961c0-1.381 1.119-2.5 2.5-2.5h2.586c0.398 0 0.779 0.158 1.061 0.439l1.561 1.561h3.793c1.381 0 2.5 1.119 2.5 2.5v0.505h0.496c1.924 0 3.127 2.083 2.165 3.75l-2.162 3.745c-0.536 0.928-1.526 1.5-2.598 1.5h-9.401c-0.062 0-0.124-0.002-0.186-0.007-0.561-0.041-1.053-0.26-1.438-0.592-0.511-0.437-0.844-1.076-0.874-1.794-0.002-0.049-0.003-0.098-0.002-0.147z"></path>
</svg>
