<svg version="1.1" xmlns="http://www.w3.org/2000/svg" width="20" height="20" viewBox="0 0 20 20">
<title>group</title>
<path d="M4.5 6.75c0-1.243 1.007-2.25 2.25-2.25s2.25 1.007 2.25 2.25c0 1.243-1.007 2.25-2.25 2.25s-2.25-1.007-2.25-2.25zM6.75 3.5c-1.795 0-3.25 1.455-3.25 3.25s1.455 3.25 3.25 3.25c1.795 0 3.25-1.455 3.25-3.25s-1.455-3.25-3.25-3.25zM12.437 15.145c0.538 0.219 1.215 0.355 2.063 0.355 1.882 0 2.922-0.668 3.469-1.434 0.265-0.37 0.396-0.74 0.462-1.017 0.033-0.139 0.050-0.257 0.059-0.343 0.004-0.043 0.007-0.078 0.008-0.105 0.001-0.013 0.001-0.024 0.001-0.033l0-0.011v-0.057c0-0.828-0.672-1.5-1.5-1.5h-4.628c0.239 0.289 0.42 0.629 0.525 1h4.103c0.276 0 0.5 0.224 0.5 0.5v0.046l-0 0.008c-0.001 0.010-0.002 0.027-0.004 0.051-0.005 0.048-0.015 0.122-0.037 0.212-0.043 0.182-0.13 0.425-0.303 0.667-0.328 0.458-1.037 1.016-2.656 1.016-0.732 0-1.277-0.114-1.686-0.281-0.082 0.279-0.202 0.596-0.376 0.926zM1.5 13c0-1.105 0.895-2 2-2h6.5c1.105 0 2 0.895 2 2v0.071l-0 0.013c-0 0.010-0.001 0.024-0.001 0.041-0.002 0.033-0.004 0.079-0.010 0.135-0.011 0.112-0.033 0.268-0.075 0.453-0.085 0.368-0.254 0.86-0.595 1.354-0.701 1.015-2.054 1.934-4.568 1.934s-3.867-0.92-4.568-1.934c-0.341-0.494-0.511-0.986-0.595-1.354-0.043-0.185-0.064-0.34-0.075-0.453-0.006-0.056-0.008-0.102-0.010-0.135-0.001-0.017-0.001-0.030-0.001-0.041l-0-0.013-0-0.005-0-0.002v-0.064zM2.5 13.060l0 0.001 0.001 0.017c0.001 0.017 0.002 0.045 0.006 0.083 0.007 0.076 0.023 0.189 0.055 0.326 0.064 0.276 0.191 0.644 0.444 1.010 0.486 0.704 1.508 1.503 3.745 1.503s3.258-0.799 3.745-1.503c0.253-0.366 0.38-0.733 0.444-1.010 0.032-0.138 0.047-0.251 0.055-0.326 0.004-0.038 0.006-0.066 0.006-0.083l0.001-0.017v-0.061c0-0.552-0.448-1-1-1h-6.5c-0.552 0-1 0.448-1 1v0.060zM13 7.5c0-0.828 0.672-1.5 1.5-1.5s1.5 0.672 1.5 1.5c0 0.828-0.672 1.5-1.5 1.5s-1.5-0.672-1.5-1.5zM14.5 5c-1.381 0-2.5 1.119-2.5 2.5s1.119 2.5 2.5 2.5c1.381 0 2.5-1.119 2.5-2.5s-1.119-2.5-2.5-2.5z"></path>
</svg>
