<svg version="1.1" xmlns="http://www.w3.org/2000/svg" width="20" height="20" viewBox="0 0 20 20">
<title>lessorequal</title>
<path d="M6 8.039c0 0.302 0.163 0.582 0.429 0.738l6.922 4.241c0.286 0.167 0.649-0.033 0.649-0.358 0-0.147-0.079-0.283-0.208-0.358l-6.673-4.095c-0.129-0.076-0.129-0.258 0-0.334l6.673-4.095c0.129-0.075 0.208-0.211 0.208-0.358 0-0.325-0.364-0.525-0.649-0.358l-6.922 4.241c-0.266 0.155-0.429 0.436-0.429 0.738z"></path>
<path d="M6.208 11.57l7.143 4.37c0.286 0.167 0.649-0.033 0.649-0.358 0-0.147-0.079-0.283-0.208-0.358l-7.142-4.37c-0.286-0.167-0.649 0.033-0.649 0.358 0 0.147 0.079 0.283 0.208 0.358z"></path>
</svg>
