<svg version="1.1" xmlns="http://www.w3.org/2000/svg" width="20" height="20" viewBox="0 0 20 20">
<title>orderedlist</title>
<path d="M5 1.5c0-0.232-0.159-0.433-0.385-0.487-0.229-0.054-0.456 0.062-0.564 0.266-0.022 0.042-0.046 0.083-0.071 0.123-0.054 0.087-0.136 0.211-0.246 0.348-0.223 0.279-0.545 0.596-0.958 0.803-0.247 0.123-0.347 0.424-0.224 0.671s0.424 0.347 0.671 0.224c0.3-0.15 0.558-0.336 0.776-0.529v2.582c0 0.276 0.224 0.5 0.5 0.5s0.5-0.224 0.5-0.5v-4zM2.646 7.646c-0.195 0.195-0.195 0.512 0 0.707 0.194 0.194 0.508 0.195 0.704 0.003l0.007-0.006c0.008-0.007 0.022-0.020 0.043-0.036 0.042-0.033 0.107-0.080 0.193-0.127 0.172-0.095 0.417-0.187 0.72-0.188 0.227 0.005 0.411 0.065 0.524 0.149 0.096 0.071 0.163 0.171 0.163 0.351 0 0.202-0.070 0.319-0.211 0.436-0.151 0.126-0.348 0.223-0.618 0.357-0.046 0.023-0.094 0.047-0.145 0.072-0.314 0.157-0.703 0.363-1.006 0.697-0.321 0.354-0.521 0.819-0.521 1.438 0 0.276 0.224 0.5 0.5 0.5h2.499c0.276 0 0.501-0.224 0.501-0.5s-0.224-0.5-0.5-0.5h-1.911c0.045-0.107 0.105-0.192 0.171-0.265 0.166-0.182 0.402-0.319 0.713-0.475 0.038-0.019 0.079-0.039 0.121-0.060 0.262-0.128 0.584-0.286 0.835-0.496 0.328-0.274 0.571-0.657 0.571-1.204 0-0.504-0.223-0.9-0.568-1.155-0.326-0.242-0.733-0.339-1.107-0.345l-0.008-0c-0.513-0-0.925 0.157-1.206 0.312-0.141 0.078-0.252 0.156-0.329 0.217-0.039 0.031-0.070 0.057-0.092 0.077-0.011 0.010-0.021 0.019-0.028 0.026l-0.009 0.009-0.005 0.005-0.001 0.001zM2.662 7.632l-0.015 0.015c0 0 0.101-0.090 0.015-0.015zM4.25 15c-0.276 0-0.5 0.224-0.5 0.5s0.224 0.5 0.5 0.5c0.343 0 0.532 0.097 0.628 0.183 0.094 0.085 0.133 0.191 0.129 0.298-0.007 0.193-0.186 0.519-0.757 0.519-0.413 0-0.626-0.102-0.723-0.166-0.051-0.034-0.078-0.063-0.089-0.076l-0.004-0.005c-0.13-0.23-0.419-0.32-0.658-0.2-0.247 0.123-0.347 0.424-0.224 0.671l0.001 0.001 0.001 0.002 0.002 0.003 0.004 0.007 0.009 0.016c0.007 0.012 0.014 0.025 0.024 0.040 0.019 0.030 0.045 0.066 0.078 0.106 0.067 0.081 0.165 0.177 0.302 0.268 0.278 0.186 0.69 0.334 1.277 0.334 1.029 0 1.726-0.675 1.756-1.481 0.014-0.367-0.118-0.736-0.396-1.019 0.278-0.283 0.41-0.651 0.396-1.019-0.030-0.807-0.727-1.481-1.756-1.481-0.587 0-0.999 0.148-1.277 0.334-0.137 0.091-0.235 0.187-0.302 0.268-0.034 0.040-0.059 0.077-0.078 0.106-0.010 0.015-0.018 0.028-0.024 0.040l-0.009 0.016-0.004 0.007-0.002 0.003-0.001 0.001-0.001 0.002c-0.123 0.247-0.023 0.547 0.224 0.671 0.239 0.119 0.528 0.030 0.658-0.2l0.004-0.005c0.011-0.013 0.038-0.042 0.089-0.076 0.097-0.064 0.31-0.166 0.723-0.166 0.571 0 0.749 0.325 0.757 0.519 0.004 0.107-0.035 0.213-0.129 0.298-0.095 0.086-0.285 0.183-0.628 0.183zM3.435 14.247l-0.002 0.003 0.001-0.001c0 0 0.002-0.004 0.005-0.008l0.004-0.007 0.002-0.005 0.001-0.002 0.001-0.002c-0.004 0.008-0.008 0.015-0.012 0.023zM8.5 4c-0.276 0-0.5 0.224-0.5 0.5s0.224 0.5 0.5 0.5h8c0.276 0 0.5-0.224 0.5-0.5s-0.224-0.5-0.5-0.5h-8zM8.5 9c-0.276 0-0.5 0.224-0.5 0.5s0.224 0.5 0.5 0.5h8c0.276 0 0.5-0.224 0.5-0.5s-0.224-0.5-0.5-0.5h-8zM8 14.5c0-0.276 0.224-0.5 0.5-0.5h8c0.276 0 0.5 0.224 0.5 0.5s-0.224 0.5-0.5 0.5h-8c-0.276 0-0.5-0.224-0.5-0.5z"></path>
</svg>
