<svg version="1.1" xmlns="http://www.w3.org/2000/svg" width="20" height="20" viewBox="0 0 20 20">
<title>pinmap</title>
<path d="M8 9.125c0 1.105 0.895 2 2 2s2-0.895 2-2c0-1.105-0.895-2-2-2s-2 0.895-2 2z"></path>
<path d="M9.38 17.078c-0.816-0.736-2.278-2.108-3.389-3.453-1.098-1.328-1.99-2.914-1.99-4.5 0-3.383 2.686-6.125 6-6.125s6 2.742 6 6.125c0 1.586-0.892 3.172-1.99 4.5-1.111 1.344-2.573 2.716-3.389 3.453-0.178 0.16-0.399 0.242-0.62 0.245-0.222-0.003-0.443-0.085-0.62-0.245zM10 4.125c-2.761 0-5 2.25-5 5.026 0 1.301 0.743 2.602 1.659 3.692 1.031 1.228 2.423 2.484 3.033 3.017 0.089 0.078 0.198 0.117 0.308 0.119 0.11-0.002 0.219-0.041 0.308-0.119 0.61-0.533 2.003-1.789 3.033-3.017 0.915-1.090 1.659-2.391 1.659-3.692 0-2.776-2.239-5.026-5-5.026z"></path>
</svg>
