<svg version="1.1" xmlns="http://www.w3.org/2000/svg" width="20" height="20" viewBox="0 0 20 20">
<title>rtf</title>
<path d="M4 4c0-1.105 0.895-2 2-2h4.586c0.398 0 0.779 0.158 1.061 0.439l3.914 3.914c0.281 0.281 0.439 0.663 0.439 1.061v8.586c0 1.105-0.895 2-2 2h-8c-1.105 0-2-0.895-2-2v-0.5c0-0.276 0.224-0.5 0.5-0.5s0.5 0.224 0.5 0.5v0.5c0 0.552 0.448 1 1 1h8c0.552 0 1-0.448 1-1v-8h-3.5c-0.828 0-1.5-0.672-1.5-1.5v-3.5h-4c-0.552 0-1 0.448-1 1v3.5c0 0.276-0.224 0.5-0.5 0.5s-0.5-0.224-0.5-0.5v-3.5zM11.5 7h3.293l-3.793-3.793v3.293c0 0.276 0.224 0.5 0.5 0.5z"></path>
<path d="M9 10.5c0 0.276-0.224 0.5-0.5 0.5h-1v1.25c0 0.414 0.086 0.75 0.5 0.75h0.5c0.276 0 0.5 0.224 0.5 0.5s-0.224 0.5-0.5 0.5h-0.75c-0.69 0-1.25-0.56-1.25-1.25v-1.75h-0.5c-0.276 0-0.5-0.224-0.5-0.5s0.224-0.5 0.5-0.5h0.5v-1c0-0.276 0.224-0.5 0.5-0.5s0.5 0.224 0.5 0.5v1h1c0.276 0 0.5 0.224 0.5 0.5zM12.5 8.955c0 0.251-0.203 0.455-0.454 0.455h-0.591c-0.251 0-0.454 0.204-0.454 0.455s0.203 0.455 0.454 0.455h0.591c0.251 0 0.454 0.203 0.454 0.454s-0.203 0.455-0.454 0.455h-1.046v2.273c0 0.276-0.224 0.5-0.5 0.5s-0.5-0.224-0.5-0.5v-4c0-0.552 0.448-1 1-1h1.046c0.251 0 0.454 0.204 0.454 0.455zM4.191 9.9c0.372 0 0.613 0.391 0.447 0.724-0.085 0.169-0.258 0.276-0.447 0.276h-0.52c-0.37 0-0.671 0.3-0.671 0.671v1.929c0 0.276-0.224 0.5-0.5 0.5s-0.5-0.224-0.5-0.5v-2.892c0-0.391 0.317-0.708 0.708-0.708h1.483z"></path>
</svg>
