<svg version="1.1" xmlns="http://www.w3.org/2000/svg" width="20" height="20" viewBox="0 0 20 20">
<title>sortdowntext</title>
<path d="M6.466 2.317c-0.075-0.191-0.26-0.317-0.465-0.317s-0.39 0.126-0.465 0.317l-2.75 7c-0.101 0.257 0.026 0.547 0.283 0.648s0.547-0.026 0.648-0.283l0.661-1.683h3.247l0.661 1.683c0.101 0.257 0.391 0.383 0.648 0.283s0.384-0.391 0.283-0.648l-2.75-7zM6 3.867l1.231 3.133h-2.461l1.231-3.133zM4 11c-0.276 0-0.5 0.224-0.5 0.5s0.224 0.5 0.5 0.5h3.066l-3.482 5.223c-0.102 0.153-0.112 0.351-0.025 0.513s0.256 0.264 0.441 0.264h4c0.276 0 0.5-0.224 0.5-0.5s-0.224-0.5-0.5-0.5h-3.066l3.482-5.223c0.102-0.153 0.112-0.351 0.025-0.513s-0.256-0.264-0.441-0.264h-4zM14.5 2c0.276 0 0.5 0.224 0.5 0.5v13.793l2.146-2.147c0.195-0.195 0.512-0.195 0.707 0s0.195 0.512 0 0.707l-3 3c-0.195 0.195-0.512 0.195-0.707 0l-3-3c-0.195-0.195-0.195-0.512 0-0.707s0.512-0.195 0.707 0l2.146 2.147v-13.793c0-0.276 0.224-0.5 0.5-0.5z"></path>
</svg>
