<svg version="1.1" xmlns="http://www.w3.org/2000/svg" width="20" height="20" viewBox="0 0 20 20">
<title>tablesplitcells</title>
<path d="M10 8v4h-1v-4h1zM17 5.5c0-1.381-1.119-2.5-2.5-2.5h-9c-1.381 0-2.5 1.119-2.5 2.5v9c0 1.381 1.119 2.5 2.5 2.5h9c1.381 0 2.5-1.119 2.5-2.5v-9zM4 14.5v-0.5h5v2h-3.5l-0.144-0.007c-0.761-0.073-1.356-0.713-1.356-1.493zM9 4l-0.007 2h-5l0.007-0.5 0.007-0.144c0.073-0.761 0.713-1.356 1.493-1.356h3.5zM9.993 6l0.007-2h4.5l0.144 0.007c0.761 0.073 1.356 0.713 1.356 1.493l-0.007 0.5h-6zM16 13h-12l-0.007-6h12l0.007 6zM16 14.5l-0.007 0.144c-0.073 0.761-0.713 1.356-1.493 1.356h-4.5v-2h6v0.5z"></path>
</svg>
