<svg version="1.1" xmlns="http://www.w3.org/2000/svg" width="20" height="20" viewBox="0 0 20 20">
<title>tablemergecells</title>
<path d="M7.354 8.854c0.195-0.195 0.195-0.512 0-0.707s-0.512-0.195-0.707 0l-1.5 1.5c-0.195 0.195-0.195 0.512 0 0.707l1.5 1.5c0.195 0.195 0.512 0.195 0.707 0s0.195-0.512 0-0.707l-0.646-0.646h6.586l-0.647 0.646c-0.195 0.195-0.195 0.512 0 0.707s0.512 0.195 0.707 0l1.5-1.5c0.195-0.195 0.195-0.512 0-0.707l-1.5-1.5c-0.195-0.195-0.512-0.195-0.707 0s-0.195 0.512 0 0.707l0.647 0.646h-6.586l0.646-0.646zM6 3c-1.657 0-3 1.343-3 3v8c0 1.657 1.343 3 3 3h8c1.657 0 3-1.343 3-3v-8c0-1.657-1.343-3-3-3h-8zM4 7h12v6h-12v-6zM14 16h-8c-1.105 0-2-0.895-2-2h12c0 1.105-0.895 2-2 2zM16 6h-12c0-1.105 0.895-2 2-2h8c1.105 0 2 0.895 2 2z"></path>
</svg>
