<svg version="1.1" xmlns="http://www.w3.org/2000/svg" width="20" height="20" viewBox="0 0 20 20">
<title>upto</title>
<path d="M4.5 3c-1.381 0-2.5 1.119-2.5 2.5v9c0 1.381 1.119 2.5 2.5 2.5h5.1c-0.162-0.317-0.294-0.651-0.393-1h-4.707c-0.828 0-1.5-0.672-1.5-1.5v-6.5h4.086c0.398 0 0.779-0.158 1.061-0.439l1.561-1.561h5.793c0.828 0 1.5 0.672 1.5 1.5v2.1c0.358 0.183 0.693 0.404 1 0.657v-2.757c0-1.381-1.119-2.5-2.5-2.5h-5.793l-1.487-1.487c-0.328-0.328-0.773-0.513-1.237-0.513h-2.482zM3 5.5c0-0.828 0.672-1.5 1.5-1.5h2.482c0.199 0 0.39 0.079 0.53 0.22l1.28 1.28-1.354 1.354c-0.094 0.094-0.221 0.146-0.354 0.146h-4.086v-1.5zM19 14.5c0 2.485-2.015 4.5-4.5 4.5s-4.5-2.015-4.5-4.5c0-2.485 2.015-4.5 4.5-4.5s4.5 2.015 4.5 4.5zM14.146 12.147l-2 2c-0.195 0.195-0.195 0.512 0 0.707s0.512 0.195 0.707 0l1.146-1.147v2.793c0 0.276 0.224 0.5 0.5 0.5s0.5-0.224 0.5-0.5v-2.793l1.146 1.147c0.195 0.195 0.512 0.195 0.707 0s0.195-0.512 0-0.707l-2-2c-0.048-0.048-0.103-0.084-0.162-0.108s-0.122-0.037-0.188-0.038h-0.006c-0.067 0-0.13 0.014-0.188 0.038s-0.113 0.059-0.16 0.106l-0.003 0.003z"></path>
</svg>
