<svg version="1.1" xmlns="http://www.w3.org/2000/svg" width="20" height="20" viewBox="0 0 20 20">
<title>vertaligncenter</title>
<path d="M6 8.5c0-0.276 0.224-0.5 0.5-0.5h7c0.276 0 0.5 0.224 0.5 0.5s-0.224 0.5-0.5 0.5h-7c-0.276 0-0.5-0.224-0.5-0.5zM6.5 11c-0.276 0-0.5 0.224-0.5 0.5s0.224 0.5 0.5 0.5h7c0.276 0 0.5-0.224 0.5-0.5s-0.224-0.5-0.5-0.5h-7zM14.5 3c1.381 0 2.5 1.119 2.5 2.5v9c0 1.381-1.119 2.5-2.5 2.5h-9c-1.381 0-2.5-1.119-2.5-2.5v-9c0-1.381 1.119-2.5 2.5-2.5h9zM14.5 4h-9c-0.828 0-1.5 0.672-1.5 1.5v9c0 0.828 0.672 1.5 1.5 1.5h9c0.828 0 1.5-0.672 1.5-1.5v-9c0-0.828-0.672-1.5-1.5-1.5z"></path>
</svg>
