<?xml version="1.0" encoding="UTF-8" standalone="no"?>
<!-- Created with Inkscape (http://www.inkscape.org/) -->

<svg
   xmlns:svg="http://www.w3.org/2000/svg"
   xmlns="http://www.w3.org/2000/svg"
   xmlns:xlink="http://www.w3.org/1999/xlink"
   version="1.1"
   width="750"
   height="500">
  <rect
     width="750"
     height="500"
     x="0"
     y="0"
     style="fill:#da121a" />
  <rect
     width="750"
     height="250"
     x="0"
     y="0"
     style="fill:#fcdd09" />
  <g
     transform="matrix(0.4,0,0,0.4,285,78)">
    <path
       id="boca"
       style="fill:#0f47af"
       d="M 225,730 C 185.625,705 138.125,690 70.625,691.875 15.625,690.625 -25,638.125 -25,583.75 L -25,130 c 76.25,41.875 173.125,41.875 250,0.625 76.875,41.25 173.75,41.25 250,-0.625 l 0,453.75 c 0,54.375 -40.625,106.875 -95.625,108.125 C 311.875,690 264.375,705 225,730 z" />
    <path
       id="campo"
       style="fill:#fcdd09"
       d="m 225,625.625 c 28.125,-17.5 62.5,-23.75 96.875,-23.75 34.375,0 60.625,-33.125 60.625,-67.5 l 0,-291.875 C 356.25,255 325,248.75 295.625,248.75 271.875,248.75 250,242.5 225,230 200,242.5 178.125,248.75 154.375,248.75 125,248.75 93.75,255 67.5,242.5 l 0,291.875 c 0,34.375 26.25,67.5 60.625,67.5 34.375,0 68.75,6.25 96.875,23.75 z" />
    <path
       id="g1"
       style="fill:#fcdd09"
       d="m 248.125,693.75 c 15.625,-0.625 21.875,-9.375 25.625,-24.375 5.625,0.625 13.125,5 17.5,7.5 l 10,-8.75 C 285,659.375 266.875,658.75 259.375,660 c -8.125,1.25 -18.75,7.5 -28.75,5 3.75,-8.125 8.125,-20 -3.125,-23.125 0,7.5 -1.875,18.125 -5.625,21.25 C 222.5,650 217.5,635.625 203.75,633.75 c -8.125,-1.25 -21.875,4.375 -26.25,23.125 -4.375,18.75 9.375,32.5 20.625,31.875 9.375,0 17.5,-6.25 22.5,-20 1.25,6.875 0,11.875 -4.375,21.875 3.75,1.875 13.75,0 13.125,-17.5 10.625,1.875 25,-3.75 31.25,-4.375 -8.75,5 -12.5,17.5 -12.5,25 z m -49.375,-20 c -8.125,-1.25 -21.25,-9.375 -20,-16.25 1.25,-6.875 15.625,-9.375 23.75,-7.5 15,3.125 18.75,11.25 15.625,16.875 -3.125,6.25 -10,8.125 -19.375,6.875 z m -34.375,-5 c 0,-2.5 3.75,-10.625 10,-9.375 1.875,-1.25 1.875,-6.25 1.25,-6.875 C 171.25,650 168.75,645 170,639.375 c -4.375,-3.125 -6.25,5.625 -5,10 -3.125,0 -6.875,0 -10.625,1.875 2.5,3.125 5.625,5 9.375,6.25 -3.75,3.75 -3.125,12.5 0.625,11.25 z" />
    <use
       transform="matrix(0.707107,0.707107,-0.707107,0.707107,362.10158,-16.746232)"
       id="g2"
       x="0"
       y="0"
       width="750"
       height="500"
       xlink:href="#g1" />
    <use
       transform="matrix(0.139173,0.990268,-0.990268,0.139173,646.58916,121.03921)"
       id="g3"
       x="0"
       y="0"
       width="750"
       height="500"
       xlink:href="#g1" />
    <use
       transform="matrix(0.139173,0.990268,-0.990268,0.139173,646.58916,-67.08579)"
       id="g4"
       x="0"
       y="0"
       width="750"
       height="500"
       xlink:href="#g1" />
    <use
       transform="matrix(-0.97437,0.224951,-0.224951,-0.97437,512.38438,795.41688)"
       id="g5"
       x="0"
       y="0"
       width="750"
       height="500"
       xlink:href="#g1" />
    <use
       transform="matrix(0.97437,0.224951,0.224951,-0.97437,-61.75938,796.66688)"
       id="g6"
       x="0"
       y="0"
       width="750"
       height="500"
       xlink:href="#g1" />
    <use
       transform="matrix(-0.139173,0.990268,0.990268,0.139173,-197.21417,-66.46079)"
       id="g7"
       x="0"
       y="0"
       width="750"
       height="500"
       xlink:href="#g1" />
    <use
       transform="matrix(-0.139173,0.990268,0.990268,0.139173,-197.83917,120.41421)"
       id="g8"
       x="0"
       y="0"
       width="750"
       height="500"
       xlink:href="#g1" />
    <use
       transform="matrix(-0.707107,0.707107,0.707107,0.707107,86.648418,-16.746232)"
       id="g9"
       x="0"
       y="0"
       width="750"
       height="500"
       xlink:href="#g1" />
    <path
       id="gr"
       style="fill:#da121a;fill-opacity:1"
       d="m 162.5,591.875 -14.375,-1.25 c 0,-22.5 -3.125,-33.125 -10,-41.875 -6.25,-8.125 -11.875,-15 -16.875,-20.625 -3.75,5 -13.75,19.375 -25.625,6.25 6.25,-2.5 15,-6.25 21.25,-13.75 -16.875,8.125 -33.125,3.75 -38.125,-10 -4.375,-14.375 7.5,-28.75 20,-34.375 11.25,-6.25 28.75,-5 34.375,8.125 5.625,11.875 -1.25,26.25 -11.25,33.75 8.75,0 15,-6.875 21.25,-11.875 4.375,6.875 -0.625,15 -11.875,18.75 7.5,5.625 14.375,14.375 18.125,20 3.75,5.625 10.625,23.125 13.125,46.875 z M 115.625,518.75 c 9.375,-2.5 9.375,-15 5,-21.875 -5,-8.125 -11.875,-18.125 -21.875,-18.125 -11.25,-0.625 -8.75,16.25 -5,23.125 3.75,8.125 11.875,19.375 21.875,16.875 z m 70,19.375 C 186.25,557.5 172.5,570 159.375,568.75 c -0.625,-16.875 11.875,-30 26.25,-30.625 z M 88.75,479.375 c -4.375,-5.625 -11.875,-3.75 -15,-0.625 -2.5,-3.125 4.375,-8.75 8.75,-9.375 -1.25,-5.625 -2.5,-8.125 -1.875,-11.25 3.75,0.625 6.875,3.125 10,6.25 3.75,-6.25 10.625,-5.625 11.25,-3.75 -5,2.5 -8.125,8.75 -6.25,14.375 -0.625,1.875 -3.75,4.375 -6.875,4.375 z" />
    <path
       id="path2401"
       style="fill:#da121a;fill-opacity:1"
       d="m 286.96639,591.875 14.375,-1.25 c 0,-22.5 3.125,-33.125 10,-41.875 6.25,-8.125 11.875,-15 16.875,-20.625 3.75,5 13.75,19.375 25.625,6.25 -6.25,-2.5 -15,-6.25 -21.25,-13.75 16.875,8.125 33.125,3.75 38.125,-10 4.375,-14.375 -7.5,-28.75 -20,-34.375 -11.25,-6.25 -28.75,-5 -34.375,8.125 -5.625,11.875 1.25,26.25 11.25,33.75 -8.75,0 -15,-6.875 -21.25,-11.875 -4.375,6.875 0.625,15 11.875,18.75 -7.5,5.625 -14.375,14.375 -18.125,20 -3.75,5.625 -10.625,23.125 -13.125,46.875 z m 46.875,-73.125 c -9.375,-2.5 -9.375,-15 -5,-21.875 5,-8.125 11.875,-18.125 21.875,-18.125 11.25,-0.625 8.75,16.25 5,23.125 -3.75,8.125 -11.875,19.375 -21.875,16.875 z m -70,19.375 c -0.625,19.375 13.125,31.875 26.25,30.625 0.625,-16.875 -11.875,-30 -26.25,-30.625 z m 96.875,-58.75 c 4.375,-5.625 11.875,-3.75 15,-0.625 2.5,-3.125 -4.375,-8.75 -8.75,-9.375 1.25,-5.625 2.5,-8.125 1.875,-11.25 -3.75,0.625 -6.875,3.125 -10,6.25 -3.75,-6.25 -10.625,-5.625 -11.25,-3.75 5,2.5 8.125,8.75 6.25,14.375 0.625,1.875 3.75,4.375 6.875,4.375 z" />
    <path
       id="aguila"
       style="fill:#000000"
       d="m 225,614.375 c -13.75,-22.5 -21.25,-44.375 -11.25,-65 -6.25,-0.625 -11.875,3.75 -15,8.75 -3.125,-21.875 2.5,-37.5 11.25,-50 -5.625,0.625 -15.625,7.5 -21.25,14.375 l -2.5,-10 c -23.125,16.25 -26.25,15.625 -35.625,24.375 l 0,1.25 c 3.75,5 -3.125,7.5 -8.125,9.375 0.625,1.875 4.375,3.125 6.875,3.75 -5.625,9.375 -15.625,6.875 -19.375,2.5 -3.75,1.25 -8.125,-1.875 -8.125,-9.375 -6.25,-4.375 2.5,-23.125 21.25,-16.25 3.75,-1.875 16.875,-17.5 28.75,-30 l -10,-3.125 c 5.625,-10.625 24.375,-23.75 37.5,-29.375 17.5,-7.5 11.875,-19.375 1.25,-11.875 -13.75,10.625 -28.125,15.625 -48.125,6.25 11.25,-4.375 24.375,-18.75 26.25,-28.125 -20,12.5 -49.375,12.5 -66.875,-3.75 17.5,3.125 34.375,-5.625 46.875,-16.875 -23.75,6.25 -51.25,-3.75 -66.875,-22.5 17.5,-0.625 34.375,-6.25 50.625,-11.875 -28.75,-0.625 -55,-15 -65,-46.25 12.5,6.875 40,8.75 57.5,6.25 C 100.625,323.125 80.625,295 80,262.5 c 8.75,12.5 42.5,28.75 75.625,40 18.75,6.25 25,29.375 25,38.125 0,9.375 28.125,21.25 28.125,-11.25 0,-5.625 0.625,-18.75 1.25,-22.5 -6.25,-3.75 -16.25,-2.5 -20,-1.25 C 189.375,291.25 190,280 205.625,280 l 25,0 c 16.875,0 13.125,30.625 11.875,49.375 0,32.5 28.125,20.625 28.125,11.25 0,-8.75 6.25,-31.875 25,-38.125 33.125,-11.25 66.875,-27.5 75.625,-40 -0.625,32.5 -20.625,60.625 -56.25,74.375 17.5,2.5 45,0.625 57.5,-6.25 -10,31.25 -36.25,45.625 -65,46.25 16.25,5.625 33.125,11.25 50.625,11.875 C 342.5,407.5 315,417.5 291.25,411.25 c 12.5,11.25 29.375,20 46.875,16.875 -17.5,16.25 -46.875,16.25 -66.875,3.75 1.875,9.375 15,23.75 26.25,28.125 -20,9.375 -34.375,4.375 -48.125,-6.25 -10.625,-7.5 -16.25,4.375 1.25,11.875 13.125,5.625 31.875,18.75 37.5,29.375 l -10,3.125 c 11.875,12.5 25,28.125 28.75,30 18.75,-6.875 27.5,11.875 21.25,16.25 0,7.5 -4.375,10.625 -8.125,9.375 -3.75,4.375 -13.75,6.875 -19.375,-2.5 2.5,-0.625 6.25,-1.875 6.875,-3.75 -5,-1.875 -11.875,-4.375 -8.125,-9.375 l 0,-1.25 C 290,528.125 286.875,528.75 263.75,512.5 l -2.5,10 c -5.625,-6.875 -15.625,-13.75 -21.25,-14.375 8.75,12.5 14.375,28.125 11.25,50 -3.125,-5 -8.75,-9.375 -15,-8.75 10,20.625 2.5,42.5 -11.25,65 z m -8.75,-315 c 7.5,0 7.5,-11.875 0,-11.875 -7.5,0 -7.5,11.875 0,11.875 z M 198.125,255 l 20,6.875 6.875,-18.75 6.875,18.75 20,-7.5 -13.125,19.375 -27.5,0.625 L 198.125,255 z" />
  </g>
</svg>