<?xml version="1.0" encoding="UTF-8" standalone="no"?>
<!-- Created with Inkscape (http://www.inkscape.org/) -->
<svg
   xmlns:svg="http://www.w3.org/2000/svg"
   xmlns="http://www.w3.org/2000/svg"
   version="1.0"
   width="454"
   height="302"
   viewBox="0 0 454 302"
   id="svg79798"
   xml:space="preserve"><defs
   id="defs79808" />
	
		<g
   id="flag">
			<rect
   width="454"
   height="302"
   x="0"
   y="0"
   style="fill:#039"
   id="rect79351" /> 
			<path
   d="M 239.661,92.041 L 239.661,92.041 C 239.661,84.648 233.993,78.655 227,78.655 C 220.005,78.655 214.337,84.648 214.337,92.041 L 214.337,92.041 L 214.337,119.215 C 181.955,125.511 157.415,161.486 157.415,197.541 L 157.415,197.543 L 157.415,223.637 L 296.583,223.637 L 296.583,197.543 L 296.583,197.541 C 296.583,161.486 272.042,125.515 239.66,119.215 L 239.66,92.041 L 239.661,92.041 z "
   style="fill:#0099ca"
   id="path79353" />
			<path
   d="M 241.662,117.615 L 241.662,92.04 C 241.662,83.556 235.085,76.654 227.001,76.654 C 218.916,76.654 212.338,83.556 212.338,92.04 L 212.338,117.615 C 180.806,124.761 155.416,160.183 155.416,197.541 C 155.416,197.542 155.416,225.637 155.416,225.637 L 298.583,225.637 L 298.583,197.543 C 298.584,160.187 273.194,124.764 241.662,117.615 z M 294.585,197.542 L 294.585,206.332 L 261.585,206.332 L 261.585,197.542 C 261.585,162.558 255.31,143.335 243.675,122.259 C 272.12,130.461 294.585,163.123 294.585,197.542 z M 294.585,210.333 L 294.585,221.637 L 159.417,221.637 L 159.417,210.333 L 294.585,210.333 z M 237.662,97 L 237.662,117.215 L 216.338,117.215 L 216.338,97 L 237.662,97 z M 257.585,206.333 L 229.001,206.333 L 229.001,121.215 L 238.501,121.215 C 250.88,142.929 257.585,161.785 257.585,197.541 C 257.585,197.542 257.585,203.213 257.585,206.333 z M 225,121.215 L 225,206.333 L 196.416,206.333 L 196.416,197.543 C 196.416,161.786 203.121,142.93 215.501,121.215 L 225,121.215 L 225,121.215 z M 227.001,80.654 C 232.878,80.654 237.662,85.761 237.662,92.04 C 237.662,92.04 237.662,92.469 237.662,93 L 216.338,93 L 216.338,92.041 C 216.338,85.762 221.121,80.654 227.001,80.654 z M 210.325,122.258 C 198.69,143.337 192.415,162.558 192.415,197.541 C 192.415,197.542 192.415,203.214 192.415,206.333 L 159.415,206.333 L 159.415,197.543 C 159.417,163.12 181.879,130.458 210.325,122.258 z "
   style="fill:white"
   id="path79805" />
		</g>
	</svg>