<?xml version="1.0" encoding="UTF-8" standalone="no"?>
<svg xmlns="http://www.w3.org/2000/svg" version="1.1" height="480" width="720">
<path d="M0,0h720v480H0z" fill="#fff"/>
<path d="M150,180l11,41l41,-11l-30,30l30,30l-41,-11l-11,41l-11,-41l-41,11l30,-30l-30,-30l41,11zM290,180l11,41l41,-11l-30,30l30,30l-41,-11l-11,41l-11,-41l-41,11l30,-30l-30,-30l41,11zM430,180l11,41l41,-11l-30,30l30,30l-41,-11l-11,41l-11,-41l-41,11l30,-30l-30,-30l41,11zM570,180l11,41l41,-11l-30,30l30,30l-41,-11l-11,41l-11,-41l-41,11l30,-30l-30,-30l41,11z" fill="#f00"/>
<path d="M0,80h720v80H0v160h720v80H0z" fill="#b3ddf2"/>
</svg>
