<?xml version="1.0" encoding="UTF-8"?>
<svg version="1.0" xmlns="http://www.w3.org/2000/svg" xmlns:xlink="http://www.w3.org/1999/xlink" width="500" height="300">
	<rect width="500" height="300" fill="#fff"/>
	<rect y="120" width="500" height="60" fill="#cf142b"/>
	<rect x="220" width="60" height="300" fill="#cf142b"/>
	<g transform="translate(7.524966,3.639429) scale(1.231285)" fill="#cf142b" stroke="#000" stroke-width=".16243193">
		<g transform="translate(-.1261)">
			<path id="path5748" d="M 80.213834,69.991991 C 80.213834,68.289225 80.642985,68.02326 83.638883,66.854205 C 86.186625,65.860029 86.513337,66.478149 86.489407,68.18003 C 86.46731,69.751559 86.553553,69.974398 83.727272,71.118942 C 80.297194,72.508002 80.213834,71.693468 80.213834,69.991991 z"/>
			<use xlink:href="#path5748" y="3.756488"/>
			<use xlink:href="#path5748" y="7.513019"/>
			<use xlink:href="#path5748" y="11.26951"/>
			<path d="M 80.526334,84.705511 C 80.526334,83.002745 80.642985,83.04928 83.638883,81.880225 C 86.186625,80.886049 86.513337,81.504169 86.489407,83.20605 C 86.46731,84.777579 84.415421,84.727609 80.526334,84.705511 z"/>
		</g>
		<path d="M 83.276756,4.9375 L 83.308006,67.154318 L 86.401756,67.154318 L 86.401756,8.03125 z"/>
		<use xlink:href="#path2229" transform="matrix(-1,0,0,-1,166.4522,133.8457)"/>
		<path d="M 83.144173,4.9375 L 80.081673,8.03125 L 80.081673,67.154318 L 83.175423,67.154318 z"/>
		<path id="path2229" d="M 71.262927,61.5 C 69.369973,61.572027 67.856679,63.15202 67.856677,65.0625 C 67.856677,67.018832 69.431595,68.59375 71.387927,68.59375 L 83.175423,68.59375 L 83.175423,65.25 L 74.919177,65.25 C 74.922241,65.189622 74.919177,65.123635 74.919177,65.0625 C 74.919177,63.106168 73.344259,61.499999 71.387927,61.5 C 71.342075,61.5 71.308358,61.498271 71.262927,61.5 z"/>
		<path id="path16321" d="M 74.86493,65.329506 C 73.892658,67.185661 72.831998,67.27405 72.831998,67.27405"/>
		<use xlink:href="#path16321" transform="matrix(-1,0,0,-1,166.391,133.8852)"/>
		<path d="M 86.423106,83.387959 C 86.423106,85.175105 84.990847,86.625542 83.2261,86.625542 C 81.461353,86.625542 80.029094,85.175105 80.029094,83.387959 C 80.029094,81.600813 86.423106,81.600813 86.423106,83.387959 z"/>
		<rect x="79.805573" y="81.866516" width="6.8410602" height="2.5035858"/>
		<path d="M 87.9375,67.112183 C 87.9375,68.423859 85.810853,69.487183 83.1875,69.487183 C 80.564147,69.487183 78.4375,68.423859 78.4375,67.112183 C 78.4375,65.800507 80.564147,64.737183 83.1875,64.737183 C 85.810853,64.737183 87.9375,65.800507 87.9375,67.112183 z" transform="matrix(.981664,0,0,1.181708,1.563943,-12.50734)"/>
		<path id="path13678" d="M 86.360253,64.663962 C 82.047753,65.601462 79.466947,68.5017 79.466947,68.5017 C 79.466947,68.5017 80.367835,69.0017 80.367835,69.0017 C 83.117835,66.0017 87.117835,65.28517 87.117835,65.28517 z"/>
		<use xlink:href="#path13678" transform="matrix(-1,0,0,1,166.4522,0)"/>
	</g>
</svg>