<svg version="1.1" xmlns="http://www.w3.org/2000/svg" width="20" height="20" viewBox="0 0 20 20">
<title>add-header</title>
<path d="M5 3h10c1.105 0 2 0.895 2 2v3h-14v-3c0-1.105 0.895-2 2-2zM12 4h-4v3h4v-3zM13 7h3v-2c0-0.552-0.448-1-1-1h-2v3zM7 7v-3h-2c-0.552 0-1 0.448-1 1v2h3z"></path>
<path d="M3.5 9c-0.276 0-0.5 0.224-0.5 0.5v5.5c0 1.105 0.895 2 2 2h4.6c-0.162-0.317-0.294-0.651-0.393-1h-1.207v-3h1.207c0.099-0.349 0.231-0.683 0.393-1h-1.6v-2.5c0-0.276-0.224-0.5-0.5-0.5s-0.5 0.224-0.5 0.5v2.5h-3v-2.5c0-0.276-0.224-0.5-0.5-0.5zM7 13v3h-2c-0.552 0-1-0.448-1-1v-2h3zM19 14.5c0 2.485-2.015 4.5-4.5 4.5s-4.5-2.015-4.5-4.5c0-2.485 2.015-4.5 4.5-4.5s4.5 2.015 4.5 4.5zM14.5 12c-0.276 0-0.5 0.224-0.5 0.5v1.5h-1.5c-0.276 0-0.5 0.224-0.5 0.5s0.224 0.5 0.5 0.5h1.5v1.5c0 0.276 0.224 0.5 0.5 0.5s0.5-0.224 0.5-0.5v-1.5h1.5c0.276 0 0.5-0.224 0.5-0.5s-0.224-0.5-0.5-0.5h-1.5v-1.5c0-0.276-0.224-0.5-0.5-0.5z"></path>
</svg>
