<!-- Generated by IcoMoon.io -->
<svg version="1.1" xmlns="http://www.w3.org/2000/svg" width="20" height="20" viewBox="0 0 20 20">
<path d="M6 10c0-0.276 0.224-0.5 0.5-0.5h3v-3c0-0.276 0.224-0.5 0.5-0.5s0.5 0.224 0.5 0.5v3h3c0.276 0 0.5 0.224 0.5 0.5s-0.224 0.5-0.5 0.5h-3v3c0 0.276-0.224 0.5-0.5 0.5s-0.5-0.224-0.5-0.5v-3h-3c-0.276 0-0.5-0.224-0.5-0.5zM10 18c4.418 0 8-3.582 8-8s-3.582-8-8-8c-4.418 0-8 3.582-8 8s3.582 8 8 8zM10 17c-3.866 0-7-3.134-7-7s3.134-7 7-7c3.866 0 7 3.134 7 7s-3.134 7-7 7z"></path>
</svg>
