<svg version="1.1" xmlns="http://www.w3.org/2000/svg" width="20" height="20" viewBox="0 0 20 20">
<title>arrowleft</title>
<path d="M9.163 16.867c0.204 0.186 0.52 0.172 0.706-0.032s0.172-0.52-0.032-0.706l-6.168-5.631h13.831c0.276 0 0.5-0.224 0.5-0.5s-0.224-0.5-0.5-0.5h-13.828l6.165-5.628c0.204-0.186 0.218-0.502 0.032-0.706s-0.502-0.218-0.706-0.032l-6.916 6.314c-0.14 0.128-0.22 0.295-0.239 0.468-0.005 0.027-0.007 0.055-0.007 0.084 0 0.027 0.002 0.053 0.006 0.079 0.018 0.176 0.098 0.347 0.24 0.476l6.916 6.314z"></path>
</svg>
