<svg version="1.1" xmlns="http://www.w3.org/2000/svg" width="20" height="20" viewBox="0 0 20 20">
<title>belloutline</title>
<path d="M10 2c3.149 0 5.744 2.335 5.984 5.355l0.013 0.222 0.004 0.225-0.001 3.596 0.925 2.222c0.023 0.054 0.040 0.11 0.053 0.167l0.015 0.086 0.009 0.131c0 0.448-0.297 0.834-0.749 0.963l-0.116 0.027-0.134 0.010-3.502-0.001-0.005 0.161c-0.085 1.304-1.169 2.335-2.495 2.335s-2.41-1.032-2.495-2.336l-0.006-0.16-3.501 0.001c-0.088 0-0.175-0.012-0.26-0.034l-0.124-0.043c-0.411-0.171-0.653-0.588-0.602-1.052l0.021-0.127 0.042-0.128 0.923-2.219 0.001-3.608 0.004-0.225c0.123-3.117 2.767-5.568 5.993-5.568zM11.502 15.004h-3l0.007 0.141c0.069 0.713 0.636 1.28 1.349 1.348l0.144 0.007c0.78 0 1.421-0.595 1.493-1.356l0.007-0.141zM10 3c-2.623 0-4.77 1.924-4.981 4.385l-0.013 0.212-0.004 0.205v3.698l-0.038 0.192-0.963 2.312 12.003-0-0.963-2.312-0.038-0.192 0-3.688-0.004-0.204c-0.105-2.573-2.301-4.608-4.998-4.608z"></path>
</svg>
