<svg version="1.1" xmlns="http://www.w3.org/2000/svg" width="20" height="20" viewBox="0 0 20 20">
<title>botfilled</title>
<path d="M14.691 11.503c0.999 0 1.809 0.81 1.809 1.809v0.689h-0.005c-0.034 0.779-0.248 1.757-1.123 2.556-0.956 0.872-2.606 1.443-5.372 1.443s-4.416-0.57-5.372-1.443c-0.875-0.799-1.089-1.776-1.123-2.556h-0.005v-0.689c0-0.999 0.81-1.809 1.809-1.809h9.381zM6.5 3c-0.828 0-1.5 0.672-1.5 1.5v4c0 0.828 0.672 1.5 1.5 1.5h7c0.828 0 1.5-0.672 1.5-1.5v-4c0-0.828-0.672-1.5-1.5-1.5h-3c0 0 0-0.191 0-0.5s-0.224-0.5-0.5-0.5c-0.276 0-0.5 0.23-0.5 0.5s0 0.5 0 0.5h-3zM7 6.5c0-0.552 0.448-1 1-1s1 0.448 1 1c0 0.552-0.448 1-1 1s-1-0.448-1-1zM11 6.5c0-0.552 0.448-1 1-1s1 0.448 1 1c0 0.552-0.448 1-1 1s-1-0.448-1-1z"></path>
</svg>
