<svg version="1.1" xmlns="http://www.w3.org/2000/svg" width="20" height="20" viewBox="0 0 20 20">
<title>botoutline</title>
<path d="M12 5.5c-0.552 0-1 0.448-1 1s0.448 1 1 1c0.552 0 1-0.448 1-1s-0.448-1-1-1zM7 6.5c0-0.552 0.448-1 1-1s1 0.448 1 1c0 0.552-0.448 1-1 1s-1-0.448-1-1zM10.5 2.5c0-0.276-0.224-0.5-0.5-0.5s-0.5 0.224-0.5 0.5v0.5h-3c-0.828 0-1.5 0.672-1.5 1.5v4c0 0.828 0.672 1.5 1.5 1.5h7c0.828 0 1.5-0.672 1.5-1.5v-4c0-0.828-0.672-1.5-1.5-1.5h-3v-0.5zM6.5 4h7c0.276 0 0.5 0.224 0.5 0.5v4c0 0.276-0.224 0.5-0.5 0.5h-7c-0.276 0-0.5-0.224-0.5-0.5v-4c0-0.276 0.224-0.5 0.5-0.5zM10.25 17.998c2.616-0.033 4.195-0.595 5.122-1.441 0.875-0.799 1.089-1.776 1.123-2.556h0.005v-0.689c0-0.999-0.81-1.809-1.809-1.809h-9.381c-0.999 0-1.809 0.81-1.809 1.809v0.689h0.005c0.034 0.779 0.248 1.757 1.123 2.556 0.927 0.846 2.506 1.408 5.122 1.441v0.002h0.5v-0.002zM5.309 12.503h9.381c0.447 0 0.809 0.362 0.809 0.809v0.438c0 0.69-0.131 1.456-0.802 2.069-0.688 0.627-2.037 1.181-4.698 1.181s-4.010-0.554-4.698-1.181c-0.671-0.612-0.802-1.379-0.802-2.069v-0.438c0-0.447 0.362-0.809 0.809-0.809z"></path>
</svg>
