<svg version="1.1" xmlns="http://www.w3.org/2000/svg" width="20" height="20" viewBox="0 0 20 20">
<title>box</title>
<path d="M6 3c-1.657 0-3 1.343-3 3v8c0 1.657 1.343 3 3 3h8c1.657 0 3-1.343 3-3v-8c0-1.657-1.343-3-3-3h-8zM16 10h-3.5c-0.276 0-0.5 0.223-0.5 0.499l-0 0.012c-0 0.012-0.001 0.033-0.003 0.060-0.004 0.055-0.012 0.137-0.029 0.237-0.034 0.202-0.1 0.463-0.227 0.718-0.127 0.253-0.309 0.491-0.572 0.667-0.261 0.174-0.631 0.307-1.168 0.307s-0.907-0.133-1.168-0.307c-0.264-0.176-0.446-0.414-0.572-0.667-0.128-0.255-0.194-0.516-0.227-0.718-0.017-0.1-0.025-0.182-0.029-0.237-0.002-0.027-0.003-0.048-0.003-0.060l-0-0.012c-0-0.276-0.224-0.499-0.5-0.499h-3.5v-4c0-1.105 0.895-2 2-2h8c1.105 0 2 0.895 2 2v4zM4 11h3.051c0.046 0.264 0.136 0.616 0.315 0.974 0.186 0.372 0.473 0.759 0.912 1.052 0.443 0.295 1.010 0.475 1.723 0.475s1.28-0.18 1.723-0.475c0.439-0.293 0.726-0.68 0.912-1.052 0.179-0.357 0.269-0.709 0.315-0.974h3.051v3c0 1.105-0.895 2-2 2h-8c-1.105 0-2-0.895-2-2v-3z"></path>
</svg>
