<svg version="1.1" xmlns="http://www.w3.org/2000/svg" width="20" height="20" viewBox="0 0 20 20">
<path d="M3.75 3c-0.967 0-1.75 0.783-1.75 1.75v9.5c0 0.967 0.783 1.75 1.75 1.75h12.5c0.967 0 1.75-0.783 1.75-1.75v-9.5c0-0.967-0.783-1.75-1.75-1.75h-12.5zM3 4.75c0-0.414 0.336-0.75 0.75-0.75h12.5c0.414 0 0.75 0.336 0.75 0.75v9.5c0 0.414-0.336 0.75-0.75 0.75h-12.5c-0.414 0-0.75-0.336-0.75-0.75v-9.5zM4 8c0-0.552 0.448-1 1-1h3c0.552 0 1 0.448 1 1v3c0 0.552-0.448 1-1 1h-3c-0.552 0-1-0.448-1-1v-3zM10 7.5c0-0.276 0.224-0.5 0.5-0.5h5c0.276 0 0.5 0.224 0.5 0.5s-0.224 0.5-0.5 0.5h-5c-0.276 0-0.5-0.224-0.5-0.5zM10 9.5c0-0.276 0.224-0.5 0.5-0.5h5c0.276 0 0.5 0.224 0.5 0.5s-0.224 0.5-0.5 0.5h-5c-0.276 0-0.5-0.224-0.5-0.5zM10.5 11c-0.276 0-0.5 0.224-0.5 0.5s0.224 0.5 0.5 0.5h5c0.276 0 0.5-0.224 0.5-0.5s-0.224-0.5-0.5-0.5h-5zM5.5 8c-0.276 0-0.5 0.224-0.5 0.5v2c0 0.276 0.224 0.5 0.5 0.5h2c0.276 0 0.5-0.224 0.5-0.5v-2c0-0.276-0.224-0.5-0.5-0.5h-2z"></path>
</svg>
