<svg version="1.1" xmlns="http://www.w3.org/2000/svg" width="20" height="20" viewBox="0 0 20 20">
<title>chart</title>
<path d="M4 18c-1.105 0-2-0.895-2-2v-5c0-1.105 0.895-2 2-2s2 0.895 2 2v5c0 1.105-0.895 2-2 2zM3 16c0 0.552 0.448 1 1 1s1-0.448 1-1v-5c0-0.552-0.448-1-1-1s-1 0.448-1 1v5zM16 18c-1.105 0-2-0.895-2-2v-8c0-1.105 0.895-2 2-2s2 0.895 2 2v8c0 1.105-0.895 2-2 2zM15 16c0 0.552 0.448 1 1 1s1-0.448 1-1v-8c0-0.552-0.448-1-1-1s-1 0.448-1 1v8zM10 18c-1.105 0-2-0.895-2-2v-12c0-1.105 0.895-2 2-2s2 0.895 2 2v12c0 1.105-0.895 2-2 2zM9 16c0 0.552 0.448 1 1 1s1-0.448 1-1v-12c0-0.552-0.448-1-1-1s-1 0.448-1 1v12z"></path>
</svg>
