<svg version="1.1" xmlns="http://www.w3.org/2000/svg" width="20" height="20" viewBox="0 0 20 20">
<path d="M10.862 2c0.439 0 0.871 0.036 1.291 0.104-0.022 0.046-0.048 0.090-0.085 0.127-0.046 0.047-0.102 0.082-0.162 0.104l-0.891 0.286c-0.24 0.084-0.456 0.222-0.635 0.396-3.641 0.247-6.519 3.278-6.519 6.982 0 1.217 0.311 2.388 0.894 3.425 0.047 0.083 0.069 0.178 0.063 0.272l-0.015 0.094-0.756 3.021 3.024-0.753c0.062-0.016 0.125-0.019 0.188-0.011l0.092 0.022 0.087 0.038c1.037 0.582 2.207 0.893 3.423 0.893 3.527 0 6.444-2.609 6.928-6.003 0.024 0.001 0.047 0.003 0.071 0.003l0.123-0.005c0.283-0.022 0.554-0.122 0.784-0.286l0.001 0.001c0.022-0.016 0.042-0.033 0.063-0.050-0.336 4.109-3.775 7.34-7.971 7.34-1.273 0-2.504-0.298-3.613-0.86l-0.121-0.064-3.645 0.91c-0.31 0.077-0.595-0.148-0.62-0.441v-0.081l0.014-0.084 0.91-3.644-0.063-0.12c-0.455-0.897-0.737-1.873-0.828-2.887l-0.025-0.382-0.008-0.347c0-4.418 3.582-8 8-8z"></path>
<path d="M17.848 6.003c0.118-0.001 0.235 0.035 0.332 0.103s0.171 0.163 0.211 0.274l0.164 0.507c0.032 0.095 0.086 0.182 0.157 0.253s0.158 0.124 0.253 0.155l0.496 0.162c0.114 0.036 0.214 0.106 0.286 0.202s0.112 0.212 0.114 0.332c0.002 0.119-0.033 0.237-0.102 0.335s-0.166 0.173-0.279 0.213l-0.507 0.164c-0.095 0.032-0.182 0.086-0.253 0.157s-0.124 0.158-0.156 0.254l-0.161 0.495c-0.031 0.091-0.085 0.172-0.155 0.236-0.001 0.002-0.002 0.004-0.004 0.006l-0.053 0.042-0.075 0.046c-0.079 0.040-0.166 0.061-0.255 0.061-0.12-0-0.237-0.038-0.334-0.108-0.095-0.068-0.167-0.164-0.205-0.274l-0.164-0.504c-0.032-0.095-0.086-0.182-0.156-0.254s-0.158-0.125-0.254-0.157l-0.496-0.161c-0.115-0.039-0.215-0.114-0.285-0.213-0.069-0.096-0.106-0.211-0.106-0.329s0.037-0.234 0.106-0.331c0.069-0.097 0.167-0.171 0.279-0.209l0.503-0.163c0.093-0.033 0.179-0.087 0.248-0.158s0.121-0.157 0.152-0.251l0.162-0.496c0.038-0.112 0.11-0.21 0.206-0.279s0.211-0.107 0.329-0.108z"></path>
<path d="M14.090 1c0.15-0.001 0.297 0.045 0.42 0.131s0.217 0.208 0.268 0.35l0.288 0.889c0.071 0.212 0.19 0.405 0.348 0.563s0.351 0.277 0.563 0.348l0.878 0.285c0.145 0.045 0.272 0.135 0.363 0.256s0.142 0.268 0.144 0.42c0.003 0.152-0.043 0.3-0.129 0.425s-0.211 0.219-0.353 0.27l-0.889 0.289c-0.211 0.070-0.403 0.189-0.561 0.346s-0.277 0.349-0.348 0.56l-0.307 0.933c-0.056 0.129-0.149 0.24-0.267 0.317s-0.256 0.118-0.396 0.118v0.002c-0.149 0.001-0.296-0.046-0.418-0.132s-0.214-0.209-0.264-0.351l-0.289-0.888c-0.051-0.154-0.128-0.299-0.228-0.428-0.037-0.047-0.077-0.093-0.119-0.135-0.158-0.159-0.352-0.279-0.564-0.351l-0.877-0.284c-0.144-0.049-0.27-0.142-0.358-0.267-0.065-0.091-0.108-0.197-0.125-0.308s-0.008-0.224 0.025-0.33 0.092-0.204 0.17-0.284c0.078-0.080 0.174-0.142 0.279-0.179l0.889-0.285c0.205-0.072 0.392-0.19 0.545-0.345s0.269-0.342 0.34-0.548l0.292-0.896c0.048-0.142 0.139-0.266 0.261-0.354s0.268-0.136 0.418-0.138z"></path>
</svg>
