<!-- Generated by IcoMoon.io -->
<svg version="1.1" xmlns="http://www.w3.org/2000/svg" width="20" height="20" viewBox="0 0 20 20">
<path d="M10.931 2c0.439 0 0.871 0.036 1.291 0.104-0.022 0.046-0.048 0.090-0.085 0.127-0.046 0.047-0.102 0.082-0.162 0.104l-0.891 0.286c-0.254 0.089-0.482 0.236-0.666 0.426-0.187 0.192-0.326 0.425-0.406 0.678-0.081 0.254-0.102 0.525-0.061 0.788l0.042 0.194c0.053 0.192 0.139 0.375 0.256 0.539l0.001-0.001c0.211 0.296 0.509 0.518 0.852 0.635l0.013 0.004 0.868 0.281c0.064 0.021 0.123 0.058 0.173 0.108l0.004 0.004c0.011 0.011 0.022 0.023 0.032 0.036 0.016 0.020 0.029 0.041 0.041 0.062l0.028 0.067 0.288 0.884 0.003 0.010 0.004 0.010c0.118 0.338 0.339 0.631 0.631 0.838s0.642 0.317 0.998 0.315l0.828-0.004c0.049 0.147 0.119 0.286 0.209 0.412 0.19 0.267 0.461 0.474 0.781 0.581l0.009 0.003 0.32 0.104 0.108 0.331 0.003 0.008 0.003 0.009c0.106 0.307 0.305 0.573 0.569 0.762 0.266 0.191 0.586 0.295 0.914 0.295l0.123-0.005c0.283-0.022 0.554-0.122 0.784-0.286l0.001 0.001c0.022-0.016 0.042-0.033 0.063-0.050-0.336 4.109-3.775 7.34-7.971 7.34-1.273 0-2.504-0.298-3.613-0.86l-0.121-0.064-3.645 0.91c-0.31 0.077-0.595-0.148-0.62-0.441v-0.081l0.014-0.084 0.91-3.644-0.063-0.12c-0.455-0.897-0.737-1.873-0.828-2.887l-0.025-0.382-0.008-0.347c0-4.418 3.582-8 8-8z"></path>
<path d="M17.918 6.003c0.118-0.001 0.235 0.035 0.332 0.103s0.171 0.163 0.211 0.274l0.164 0.507c0.032 0.095 0.086 0.182 0.157 0.253s0.158 0.124 0.253 0.155l0.496 0.162c0.114 0.036 0.214 0.106 0.286 0.202s0.112 0.212 0.114 0.332c0.002 0.119-0.033 0.237-0.102 0.335s-0.166 0.173-0.279 0.213l-0.507 0.164c-0.095 0.032-0.182 0.086-0.253 0.157s-0.124 0.158-0.156 0.254l-0.161 0.495c-0.039 0.115-0.113 0.214-0.212 0.284-0.096 0.069-0.212 0.106-0.33 0.106-0.12-0-0.237-0.038-0.334-0.108-0.095-0.068-0.167-0.164-0.205-0.274l-0.164-0.504c-0.032-0.095-0.085-0.182-0.156-0.254s-0.158-0.125-0.254-0.157l-0.496-0.161c-0.115-0.039-0.215-0.114-0.285-0.213-0.068-0.096-0.106-0.211-0.105-0.329s0.037-0.234 0.106-0.331c0.069-0.097 0.167-0.171 0.279-0.209l0.503-0.163c0.093-0.033 0.179-0.087 0.248-0.158s0.121-0.157 0.152-0.251l0.162-0.496c0.038-0.112 0.11-0.21 0.206-0.279s0.211-0.107 0.329-0.108z"></path>
<path d="M14.159 1c0.15-0.001 0.297 0.045 0.42 0.131s0.217 0.208 0.268 0.35l0.288 0.889c0.071 0.212 0.19 0.405 0.348 0.563s0.351 0.277 0.563 0.348l0.878 0.285c0.145 0.045 0.272 0.135 0.363 0.256s0.142 0.268 0.145 0.42c0.003 0.152-0.043 0.3-0.129 0.425s-0.21 0.219-0.353 0.27l-0.889 0.289c-0.211 0.070-0.403 0.189-0.561 0.346s-0.277 0.349-0.348 0.56l-0.307 0.933c-0.056 0.129-0.149 0.24-0.267 0.317s-0.256 0.118-0.397 0.118v0.002c-0.149 0.001-0.296-0.046-0.418-0.132s-0.214-0.209-0.264-0.351l-0.289-0.888c-0.051-0.154-0.128-0.299-0.228-0.428-0.037-0.047-0.077-0.093-0.119-0.135-0.158-0.159-0.352-0.279-0.564-0.351l-0.877-0.284c-0.144-0.049-0.27-0.142-0.358-0.267-0.065-0.091-0.108-0.197-0.125-0.308s-0.008-0.224 0.025-0.33c0.034-0.107 0.092-0.204 0.17-0.284s0.174-0.142 0.279-0.179l0.889-0.285c0.205-0.072 0.392-0.19 0.545-0.345s0.27-0.342 0.34-0.548l0.292-0.896c0.048-0.142 0.139-0.266 0.261-0.354s0.268-0.136 0.418-0.138z"></path>
</svg>
