<svg version="1.1" xmlns="http://www.w3.org/2000/svg" width="20" height="20" viewBox="0 0 20 20">
<path d="M10 2c4.418 0 8 3.582 8 8s-3.582 8-8 8c-1.273 0-2.504-0.298-3.613-0.861l-0.121-0.064-3.645 0.91c-0.31 0.077-0.595-0.148-0.62-0.441l-0-0.081 0.014-0.084 0.91-3.644-0.063-0.12c-0.455-0.897-0.737-1.873-0.829-2.887l-0.025-0.382-0.007-0.346c0-4.418 3.582-8 8-8zM10 3c-3.866 0-7 3.134-7 7 0 1.217 0.311 2.388 0.894 3.425 0.047 0.083 0.069 0.178 0.063 0.272l-0.014 0.094-0.756 3.021 3.024-0.754c0.062-0.015 0.126-0.019 0.188-0.010l0.092 0.021 0.087 0.038c1.037 0.582 2.207 0.893 3.423 0.893 3.866 0 7-3.134 7-7s-3.134-7-7-7zM10.5 11c0.276 0 0.5 0.224 0.5 0.5 0 0.246-0.177 0.45-0.41 0.492l-0.090 0.008h-3c-0.276 0-0.5-0.224-0.5-0.5 0-0.246 0.177-0.45 0.41-0.492l0.090-0.008h3zM12.5 8c0.276 0 0.5 0.224 0.5 0.5 0 0.245-0.177 0.45-0.41 0.492l-0.090 0.008h-5c-0.276 0-0.5-0.224-0.5-0.5 0-0.245 0.177-0.45 0.41-0.492l0.090-0.008h5z"></path>
</svg>
