<svg version="1.1" xmlns="http://www.w3.org/2000/svg" width="20" height="20" viewBox="0 0 20 20">
<title>chatadd</title>
<path d="M6.5 9.5c-0.276 0-0.5 0.224-0.5 0.5s0.224 0.5 0.5 0.5h3v3c0 0.276 0.224 0.5 0.5 0.5s0.5-0.224 0.5-0.5v-3h3c0.276 0 0.5-0.224 0.5-0.5s-0.224-0.5-0.5-0.5h-3v-3c0-0.276-0.224-0.5-0.5-0.5s-0.5 0.224-0.5 0.5v3h-3zM18 10c0-4.418-3.582-8-8-8s-8 3.582-8 8l0.007 0.346 0.025 0.382c0.092 1.014 0.374 1.99 0.829 2.887l0.063 0.12-0.91 3.644-0.014 0.084 0 0.081c0.025 0.293 0.31 0.519 0.62 0.441l3.645-0.91 0.121 0.064c1.109 0.563 2.34 0.861 3.613 0.861 4.418 0 8-3.582 8-8zM3 10c0-3.866 3.134-7 7-7s7 3.134 7 7c0 3.866-3.134 7-7 7-1.216 0-2.386-0.31-3.423-0.893l-0.087-0.038-0.092-0.021c-0.062-0.008-0.126-0.005-0.188 0.010l-3.024 0.754 0.756-3.021 0.014-0.094c0.005-0.094-0.016-0.189-0.063-0.272-0.583-1.037-0.894-2.208-0.894-3.425z"></path>
</svg>
