<svg version="1.1" xmlns="http://www.w3.org/2000/svg" width="20" height="20" viewBox="0 0 20 20">
<title>checklist</title>
<path d="M5.854 3.646c0.195 0.195 0.195 0.512 0 0.707l-2 2c-0.195 0.195-0.512 0.195-0.707 0l-1-1c-0.195-0.195-0.195-0.512 0-0.707s0.512-0.195 0.707 0l0.646 0.646 1.646-1.646c0.195-0.195 0.512-0.195 0.707 0z"></path>
<path d="M8.5 5c-0.276 0-0.5 0.224-0.5 0.5s0.224 0.5 0.5 0.5h9c0.276 0 0.5-0.224 0.5-0.5s-0.224-0.5-0.5-0.5h-9z"></path>
<path d="M8.5 10c-0.276 0-0.5 0.224-0.5 0.5s0.224 0.5 0.5 0.5h9c0.276 0 0.5-0.224 0.5-0.5s-0.224-0.5-0.5-0.5h-9z"></path>
<path d="M8 15.5c0-0.276 0.224-0.5 0.5-0.5h9c0.276 0 0.5 0.224 0.5 0.5s-0.224 0.5-0.5 0.5h-9c-0.276 0-0.5-0.224-0.5-0.5z"></path>
<path d="M5.854 14.854c0.195-0.195 0.195-0.512 0-0.707s-0.512-0.195-0.707 0l-1.646 1.646-0.646-0.646c-0.195-0.195-0.512-0.195-0.707 0s-0.195 0.512 0 0.707l1 1c0.195 0.195 0.512 0.195 0.707 0l2-2z"></path>
<path d="M2 9v2c0 0.552 0.448 1 1 1h2c0.552 0 1-0.448 1-1v-2c0-0.552-0.448-1-1-1h-2c-0.552 0-1 0.448-1 1zM3 9h2v2h-2v-2z"></path>
</svg>
