<svg version="1.1" xmlns="http://www.w3.org/2000/svg" width="20" height="20" viewBox="0 0 20 20">
<title>checkmarkcirclefilled</title>
<path d="M10 2c4.418 0 8 3.582 8 8s-3.582 8-8 8c-4.418 0-8-3.582-8-8s3.582-8 8-8zM13.358 7.646c-0.173-0.174-0.443-0.193-0.638-0.058l-0.069 0.058-3.651 3.652-1.646-1.647-0.069-0.058c-0.195-0.135-0.464-0.116-0.638 0.058s-0.193 0.443-0.058 0.638l0.058 0.069 2 2 0.069 0.058c0.171 0.118 0.398 0.118 0.569 0l0.069-0.058 4.005-4.005 0.058-0.069c0.135-0.195 0.116-0.464-0.058-0.638z"></path>
</svg>
