<!-- Generated by IcoMoon.io -->
<svg version="1.1" xmlns="http://www.w3.org/2000/svg" width="20" height="20" viewBox="0 0 20 20">
<path d="M10.399 2c4.418 0 8 3.582 8 8s-3.582 8-8 8c-4.418 0-8-3.582-8-8s3.582-8 8-8zM10.399 3c-3.866 0-7 3.134-7 7s3.134 7 7 7c3.866 0 7-3.134 7-7s-3.134-7-7-7zM13.758 7.646c0.174 0.174 0.193 0.443 0.058 0.638l-0.058 0.069-4.005 4.005c-0.174 0.174-0.443 0.193-0.638 0.058l-0.069-0.058-2-2c-0.195-0.195-0.195-0.512 0-0.707 0.174-0.174 0.443-0.193 0.638-0.058l0.069 0.058 1.646 1.647 3.651-3.652c0.195-0.195 0.512-0.195 0.707 0z"></path>
</svg>
