<svg version="1.1" xmlns="http://www.w3.org/2000/svg" width="20" height="20" viewBox="0 0 20 20">
<title>clear</title>
<path d="M10 2c4.418 0 8 3.582 8 8s-3.582 8-8 8c-4.418 0-8-3.582-8-8s3.582-8 8-8zM10 3c-3.866 0-7 3.134-7 7s3.134 7 7 7c3.866 0 7-3.134 7-7s-3.134-7-7-7zM7.809 7.114l0.069 0.058 2.121 2.121 2.121-2.121c0.174-0.174 0.443-0.193 0.638-0.058l0.069 0.058c0.174 0.174 0.193 0.443 0.058 0.638l-0.058 0.069-2.121 2.121 2.121 2.121c0.174 0.174 0.193 0.443 0.058 0.638l-0.058 0.069c-0.173 0.174-0.443 0.193-0.638 0.058l-0.069-0.058-2.121-2.121-2.121 2.121c-0.174 0.174-0.443 0.193-0.638 0.058l-0.069-0.058c-0.174-0.173-0.193-0.443-0.058-0.638l0.058-0.069 2.121-2.121-2.121-2.121c-0.174-0.174-0.193-0.443-0.058-0.638l0.058-0.069c0.174-0.174 0.443-0.193 0.638-0.058z"></path>
</svg>
