<svg version="1.1" xmlns="http://www.w3.org/2000/svg" width="20" height="20" viewBox="0 0 20 20">
<title>clearformat</title>
<path d="M11.199 2.439c0.586-0.586 1.536-0.586 2.121 0l4.243 4.243c0.586 0.586 0.586 1.536 0 2.121l-8.197 8.197h5.136c0.276 0 0.5 0.224 0.5 0.5s-0.224 0.5-0.5 0.5h-6.68c-0.41 0.022-0.827-0.124-1.14-0.437l-4.243-4.243c-0.586-0.586-0.586-1.536 0-2.121l8.76-8.76zM12.613 3.146c-0.195-0.195-0.512-0.195-0.707 0l-6.366 6.366 4.95 4.95 6.366-6.366c0.195-0.195 0.195-0.512 0-0.707l-4.243-4.243zM9.783 15.169l-4.95-4.95-1.687 1.687c-0.195 0.195-0.195 0.512 0 0.707l4.243 4.243c0.195 0.195 0.512 0.195 0.707 0l1.687-1.687z"></path>
</svg>
