<svg version="1.1" xmlns="http://www.w3.org/2000/svg" width="20" height="20" viewBox="0 0 20 20">
<title>clearhistory</title>
<path d="M18.238 2.146c0.195 0.195 0.195 0.512 0 0.707l-5.303 5.303c-0.008 0.007-0.017 0.012-0.025 0.019 1.224 1.569 1.115 3.841-0.329 5.284l-0.354 0.354c-0.029 0.029-0.063 0.053-0.097 0.073l-2.127 4.018c-0.252 0.476-0.892 0.572-1.273 0.191l-6.497-6.497c-0.381-0.381-0.284-1.021 0.191-1.273l4.198-2.223 0.3-0.3c1.443-1.443 3.714-1.552 5.283-0.329 0.007-0.008 0.013-0.017 0.020-0.024l5.303-5.303c0.195-0.195 0.512-0.195 0.707 0zM3.133 11.084l1.669 1.669 1.061-1.061c0.195-0.195 0.512-0.195 0.707 0s0.195 0.512 0 0.707l-1.061 1.061 1.414 1.414 1.061-1.061c0.195-0.195 0.512-0.195 0.707 0s0.195 0.512 0 0.707l-1.061 1.061 1.615 1.615 1.958-3.698-4.373-4.372-3.698 1.958zM11.874 8.51c-1.172-1.171-3.071-1.172-4.243 0l4.243 4.243c1.172-1.172 1.172-3.071 0-4.243z"></path>
</svg>
