<!-- Generated by IcoMoon.io -->
<svg version="1.1" xmlns="http://www.w3.org/2000/svg" width="20" height="20" viewBox="0 0 20 20">
<path d="M9.354 7.854c0.195-0.195 0.195-0.512 0-0.707s-0.512-0.195-0.707-0l-1.412 1.412-0.397-0.363c-0.204-0.186-0.52-0.172-0.706 0.032s-0.172 0.52 0.032 0.706l0.75 0.685c0.197 0.18 0.502 0.173 0.691-0.016l1.75-1.75zM9.354 12.147c0.195 0.195 0.195 0.512-0 0.707l-1.75 1.75c-0.189 0.189-0.493 0.196-0.691 0.016l-0.75-0.685c-0.204-0.186-0.218-0.502-0.032-0.706s0.502-0.218 0.706-0.032l0.397 0.363 1.412-1.412c0.195-0.195 0.512-0.195 0.707 0zM11 12.75c-0.276 0-0.5 0.224-0.5 0.5s0.224 0.5 0.5 0.5h2.5c0.276 0 0.5-0.224 0.5-0.5s-0.224-0.5-0.5-0.5h-2.5zM10.5 8.25c0-0.276 0.224-0.5 0.5-0.5h2.5c0.276 0 0.5 0.224 0.5 0.5s-0.224 0.5-0.5 0.5h-2.5c-0.276 0-0.5-0.224-0.5-0.5zM8.5 2c-0.653 0-1.209 0.417-1.415 1h-1.585c-0.828 0-1.5 0.672-1.5 1.5v12c0 0.828 0.672 1.5 1.5 1.5h9c0.828 0 1.5-0.672 1.5-1.5v-12c0-0.828-0.672-1.5-1.5-1.5h-1.585c-0.206-0.583-0.762-1-1.415-1h-3zM8 3.5c0-0.276 0.224-0.5 0.5-0.5h3c0.276 0 0.5 0.224 0.5 0.5s-0.224 0.5-0.5 0.5h-3c-0.276 0-0.5-0.224-0.5-0.5zM5.5 4h1.585c0.206 0.583 0.762 1 1.415 1h3c0.653 0 1.209-0.417 1.415-1h1.585c0.276 0 0.5 0.224 0.5 0.5v12c0 0.276-0.224 0.5-0.5 0.5h-9c-0.276 0-0.5-0.224-0.5-0.5v-12c0-0.276 0.224-0.5 0.5-0.5z"></path>
</svg>
