<svg version="1.1" xmlns="http://www.w3.org/2000/svg" width="20" height="20" viewBox="0 0 20 20">
<title>clipboardpastesparkle</title>
<path d="M10.5 2c0.599 0 1.115 0.352 1.356 0.86l-0.905 0.295c-0.023 0.008-0.045 0.017-0.067 0.026-0.092-0.11-0.228-0.182-0.383-0.182h-3c-0.276 0-0.5 0.224-0.5 0.5s0.224 0.5 0.5 0.5h2.591c-0.059 0.158-0.091 0.326-0.091 0.497 0 0.173 0.032 0.343 0.093 0.503h-2.593c-0.653 0-1.209-0.417-1.415-1h-1.585c-0.276 0-0.5 0.224-0.5 0.5v12c0 0.276 0.224 0.5 0.5 0.5h3c0.276 0 0.5 0.224 0.5 0.5s-0.224 0.5-0.5 0.5h-3c-0.828 0-1.5-0.672-1.5-1.5v-12c0-0.828 0.672-1.5 1.5-1.5h1.585c0.206-0.583 0.762-1 1.415-1h3z"></path>
<path d="M13.141 8h-2.641c-0.276 0-0.5 0.224-0.5 0.5v8c0 0.276 0.224 0.5 0.5 0.5h5c0.276 0 0.5-0.224 0.5-0.5v-5.194l0.017 0.041 0.247 0.761 0.008 0.023c0.090 0.254 0.257 0.474 0.477 0.63 0.079 0.056 0.164 0.102 0.252 0.139v3.601c0 0.828-0.672 1.5-1.5 1.5h-5c-0.828 0-1.5-0.672-1.5-1.5v-8c0-0.828 0.672-1.5 1.5-1.5h2.315l0.325 1z"></path>
<path d="M17.484 7c0.063 0 0.124 0.020 0.175 0.056s0.089 0.087 0.11 0.146l0.249 0.766c0.077 0.232 0.208 0.444 0.382 0.617s0.385 0.304 0.617 0.381l0.766 0.248 0.015 0.004c0.059 0.021 0.11 0.059 0.146 0.11s0.056 0.112 0.056 0.175-0.019 0.124-0.056 0.175c-0.036 0.051-0.088 0.090-0.146 0.11l-0.765 0.248c-0.233 0.077-0.445 0.208-0.618 0.381s-0.303 0.385-0.381 0.617l-0.249 0.766c-0.021 0.059-0.059 0.109-0.11 0.146s-0.112 0.056-0.175 0.056-0.124-0.020-0.175-0.056c-0.051-0.036-0.089-0.087-0.11-0.146l-0.249-0.766c-0.077-0.233-0.207-0.445-0.38-0.619s-0.386-0.305-0.619-0.383l-0.765-0.248c-0.059-0.021-0.11-0.059-0.146-0.11s-0.056-0.112-0.056-0.175 0.019-0.124 0.056-0.175c0.036-0.051 0.088-0.090 0.146-0.11l0.765-0.248c0.23-0.079 0.439-0.211 0.609-0.384s0.299-0.383 0.375-0.614l0.248-0.766c0.021-0.059 0.060-0.109 0.11-0.146s0.112-0.056 0.175-0.056z"></path>
<path d="M14.478 1c0.088 0 0.173 0.028 0.244 0.078s0.126 0.122 0.155 0.204l0.348 1.071c0.108 0.325 0.292 0.621 0.534 0.863s0.539 0.425 0.864 0.533l1.072 0.349 0.022 0.005c0.083 0.029 0.153 0.084 0.204 0.155s0.078 0.157 0.078 0.244c-0 0.087-0.028 0.173-0.078 0.244s-0.122 0.125-0.204 0.154l-1.072 0.349c-0.326 0.108-0.622 0.291-0.864 0.533s-0.426 0.538-0.534 0.863l-0.348 1.071c-0.029 0.083-0.084 0.154-0.155 0.204s-0.157 0.078-0.244 0.078-0.173-0.028-0.244-0.078c-0.007-0.005-0.014-0.009-0.021-0.015-0.061-0.049-0.108-0.115-0.135-0.189l-0.348-1.071c-0.019-0.057-0.040-0.112-0.063-0.167-0.11-0.261-0.269-0.498-0.47-0.699-0.038-0.038-0.077-0.075-0.118-0.11-0.218-0.189-0.472-0.334-0.747-0.426l-1.072-0.348c-0.083-0.029-0.153-0.084-0.204-0.155s-0.078-0.157-0.078-0.244c0-0.087 0.028-0.173 0.078-0.244s0.122-0.125 0.204-0.154l1.072-0.349c0.322-0.111 0.614-0.295 0.853-0.537s0.418-0.536 0.524-0.859l0.348-1.071c0.029-0.083 0.084-0.154 0.155-0.204s0.157-0.078 0.244-0.078z"></path>
</svg>
