<!-- Generated by IcoMoon.io -->
<svg version="1.1" xmlns="http://www.w3.org/2000/svg" width="20" height="20" viewBox="0 0 20 20">
<path d="M10.5 2c0.268 0 0.519 0.071 0.736 0.194-0.010 0.012-0.018 0.026-0.029 0.037-0.046 0.046-0.101 0.082-0.162 0.104l-0.892 0.286c-0.23 0.080-0.438 0.211-0.614 0.378h-2.039c-0.276 0-0.5 0.224-0.5 0.5s0.224 0.5 0.5 0.5h1.521c-0.025 0.17-0.027 0.343 0 0.514l0.042 0.194c0.028 0.101 0.066 0.198 0.111 0.292h-1.674c-0.653 0-1.209-0.417-1.415-1h-1.585c-0.276 0-0.5 0.224-0.5 0.5v12c0 0.276 0.224 0.5 0.5 0.5h3c0.276 0 0.5 0.224 0.5 0.5s-0.224 0.5-0.5 0.5h-3c-0.828 0-1.5-0.672-1.5-1.5v-12c0-0.828 0.672-1.5 1.5-1.5h1.585c0.206-0.583 0.762-1 1.415-1h3z"></path>
<path d="M11.618 7.327l0.003 0.010 0.004 0.010c0.086 0.247 0.228 0.47 0.412 0.653h-1.537c-0.276 0-0.5 0.224-0.5 0.5v8c0 0.276 0.224 0.5 0.5 0.5h5c0.276 0 0.5-0.224 0.5-0.5v-5.86c0.028 0.023 0.056 0.045 0.085 0.066 0.233 0.167 0.507 0.266 0.792 0.288l0.123 0.005v5.501c0 0.828-0.672 1.5-1.5 1.5h-5c-0.828 0-1.5-0.672-1.5-1.5v-8c0-0.828 0.672-1.5 1.5-1.5h1.012l0.107 0.327z"></path>
<path d="M16.986 6.003c0.118-0.001 0.235 0.035 0.332 0.103s0.171 0.163 0.211 0.274l0.164 0.507c0.032 0.095 0.086 0.182 0.157 0.253s0.158 0.124 0.253 0.155l0.496 0.162c0.114 0.036 0.214 0.106 0.286 0.202s0.112 0.212 0.114 0.332c0.002 0.12-0.033 0.237-0.102 0.335s-0.166 0.173-0.279 0.213l-0.507 0.164c-0.095 0.032-0.182 0.086-0.253 0.157s-0.124 0.158-0.156 0.254l-0.161 0.495c-0.039 0.115-0.113 0.214-0.212 0.284-0.096 0.069-0.212 0.107-0.33 0.106-0.12-0-0.237-0.038-0.334-0.108-0.095-0.068-0.167-0.164-0.205-0.274l-0.164-0.504c-0.032-0.096-0.085-0.182-0.156-0.254s-0.158-0.125-0.254-0.157l-0.496-0.161c-0.115-0.039-0.215-0.114-0.285-0.213-0.068-0.096-0.106-0.211-0.106-0.329s0.037-0.234 0.106-0.331c0.069-0.097 0.167-0.171 0.279-0.209l0.503-0.163c0.093-0.033 0.179-0.087 0.248-0.158s0.121-0.157 0.152-0.251l0.162-0.496c0.038-0.112 0.11-0.21 0.206-0.279s0.211-0.107 0.329-0.108z"></path>
<path d="M13.228 1c0.15-0.001 0.297 0.045 0.42 0.131s0.217 0.208 0.268 0.35l0.288 0.889c0.071 0.212 0.19 0.405 0.348 0.563s0.351 0.277 0.563 0.348l0.878 0.285c0.145 0.045 0.272 0.135 0.363 0.256s0.142 0.268 0.144 0.42c0.003 0.152-0.042 0.3-0.129 0.425s-0.21 0.219-0.353 0.27l-0.889 0.289c-0.211 0.070-0.403 0.189-0.561 0.346s-0.277 0.349-0.348 0.56l-0.307 0.933c-0.056 0.13-0.149 0.24-0.267 0.317s-0.256 0.118-0.397 0.118v0.002c-0.15 0.001-0.296-0.046-0.418-0.132s-0.214-0.209-0.264-0.351l-0.289-0.888c-0.051-0.154-0.128-0.299-0.228-0.428-0.037-0.047-0.077-0.093-0.119-0.135-0.158-0.159-0.352-0.279-0.564-0.351l-0.877-0.284c-0.144-0.049-0.27-0.142-0.358-0.267-0.065-0.091-0.108-0.197-0.125-0.308s-0.008-0.224 0.025-0.33c0.034-0.107 0.092-0.204 0.17-0.284s0.174-0.142 0.279-0.179l0.889-0.285c0.205-0.072 0.392-0.19 0.545-0.345s0.269-0.342 0.34-0.548l0.292-0.896c0.048-0.142 0.139-0.266 0.261-0.354s0.268-0.136 0.418-0.138z"></path>
</svg>
