<!-- Generated by IcoMoon.io -->
<svg version="1.1" xmlns="http://www.w3.org/2000/svg" width="20" height="20" viewBox="0 0 20 20">
<path d="M14.5 3c1.381 0 2.5 1.119 2.5 2.5v9c0 1.294-0.984 2.359-2.244 2.487l-0.256 0.013h-9l-0.256-0.013c-1.176-0.12-2.112-1.055-2.231-2.231l-0.013-0.256v-9c0-1.381 1.119-2.5 2.5-2.5h9zM4.854 15.852c0.196 0.094 0.414 0.148 0.646 0.148h9c0.231 0 0.449-0.055 0.644-0.148l-5.145-5.146-5.145 5.146zM10.706 9.999l5.146 5.145c0.093-0.196 0.148-0.413 0.148-0.644v-9c0-0.232-0.055-0.45-0.148-0.646l-5.146 5.145zM4.147 4.854c-0.094 0.196-0.147 0.414-0.147 0.646v9c0 0.231 0.054 0.449 0.147 0.644l5.145-5.145-5.145-5.145zM5.5 4c-0.231 0-0.45 0.054-0.646 0.147l5.145 5.145 5.145-5.145c-0.196-0.093-0.413-0.147-0.644-0.147h-9z"></path>
</svg>
