<svg version="1.1" xmlns="http://www.w3.org/2000/svg" width="20" height="20" viewBox="0 0 20 20">
<title>color</title>
<path d="M10.464 2.314c-0.076-0.19-0.26-0.314-0.464-0.314s-0.388 0.124-0.464 0.314l-3 7.5c-0.103 0.256 0.022 0.547 0.279 0.65s0.547-0.022 0.65-0.278l1.073-2.682h2.926l1.073 2.682c0.103 0.256 0.393 0.381 0.65 0.278s0.381-0.393 0.278-0.65l-3-7.5zM10 3.846l1.063 2.657h-2.126l1.063-2.657zM4.5 12c-0.828 0-1.5 0.672-1.5 1.5v3c0 0.828 0.672 1.5 1.5 1.5h11c0.828 0 1.5-0.672 1.5-1.5v-3c0-0.828-0.672-1.5-1.5-1.5h-11zM4 13.5c0-0.276 0.224-0.5 0.5-0.5h11c0.276 0 0.5 0.224 0.5 0.5v3c0 0.276-0.224 0.5-0.5 0.5h-11c-0.276 0-0.5-0.224-0.5-0.5v-3z"></path>
</svg>
