<svg version="1.1" xmlns="http://www.w3.org/2000/svg" width="20" height="20" viewBox="0 0 20 20">
<title>columnfield</title>
<path d="M14.5 17c-0.276 0-0.5-0.224-0.5-0.5s0.224-0.5 0.5-0.5c0.78 0 1.42-0.595 1.493-1.356l0.007-0.144v-1.5h-1.5c-0.276 0-0.5-0.224-0.5-0.5s0.224-0.5 0.5-0.5h1.5v-4h-1.5c-0.276 0-0.5-0.224-0.5-0.5s0.224-0.5 0.5-0.5h1.5v-1.5c0-0.78-0.595-1.42-1.356-1.493l-0.144-0.007c-0.276 0-0.5-0.224-0.5-0.5s0.224-0.5 0.5-0.5c1.381 0 2.5 1.119 2.5 2.5v9c0 1.381-1.119 2.5-2.5 2.5z"></path>
<path d="M5.5 3c0.276 0 0.5 0.224 0.5 0.5s-0.224 0.5-0.5 0.5c-0.78 0-1.42 0.595-1.493 1.356l-0.007 0.144v1.5h1.5c0.276 0 0.5 0.224 0.5 0.5s-0.224 0.5-0.5 0.5h-1.5v4h1.5c0.276 0 0.5 0.224 0.5 0.5s-0.224 0.5-0.5 0.5h-1.5v1.5c0 0.78 0.595 1.42 1.356 1.493l0.144 0.007c0.276 0 0.5 0.224 0.5 0.5s-0.224 0.5-0.5 0.5c-1.381 0-2.5-1.119-2.5-2.5v-9c0-1.381 1.119-2.5 2.5-2.5z"></path>
<path d="M13 16v-12c0-0.552-0.448-1-1-1h-4c-0.552 0-1 0.448-1 1v12c0 0.552 0.448 1 1 1h4c0.552 0 1-0.448 1-1zM12 12h-4v-4h4v4zM8 7v-3h4v3h-4zM12 16h-4v-3h4v3z"></path>
</svg>
