<svg version="1.1" xmlns="http://www.w3.org/2000/svg" width="20" height="20" viewBox="0 0 20 20">
<title>columnchooser</title>
<path d="M2 4c0-1.105 0.895-2 2-2h10c1.105 0 2 0.895 2 2v0.5c0 0.276-0.224 0.5-0.5 0.5v0c-0.276 0-0.5-0.224-0.5-0.5v-0.5c0-0.552-0.448-1-1-1h-10c-0.552 0-1 0.448-1 1v10c0 0.552 0.448 1 1 1h1.5c0.276 0 0.5 0.224 0.5 0.5v0c0 0.276-0.224 0.5-0.5 0.5h-1.5c-1.105 0-2-0.895-2-2v-10z"></path>
<path d="M8 6h9c0.552 0 1 0.448 1 1v1c0 0.552-0.448 1-1 1h-9c-0.552 0-1-0.448-1-1v-1c0-0.552 0.448-1 1-1zM8.5 7c-0.276 0-0.5 0.224-0.5 0.5s0.224 0.5 0.5 0.5h8c0.276 0 0.5-0.224 0.5-0.5s-0.224-0.5-0.5-0.5h-8z"></path>
<path d="M8 14h9c0.552 0 1 0.448 1 1v1c0 0.552-0.448 1-1 1h-9c-0.552 0-1-0.448-1-1v-1c0-0.552 0.448-1 1-1zM8.5 15c-0.276 0-0.5 0.224-0.5 0.5s0.224 0.5 0.5 0.5h8c0.276 0 0.5-0.224 0.5-0.5s-0.224-0.5-0.5-0.5h-8z"></path>
<path d="M7 11v1c0 0.552 0.448 1 1 1h9c0.552 0 1-0.448 1-1v-1c0-0.552-0.448-1-1-1h-9c-0.552 0-1 0.448-1 1zM8 11.5c0-0.276 0.224-0.5 0.5-0.5h8c0.276 0 0.5 0.224 0.5 0.5s-0.224 0.5-0.5 0.5h-8c-0.276 0-0.5-0.224-0.5-0.5z"></path>
</svg>
