<!-- Generated by IcoMoon.io -->
<svg version="1.1" xmlns="http://www.w3.org/2000/svg" width="20" height="20" viewBox="0 0 20 20">
<path d="M9.184 2.112c0.117-0.095 0.271-0.132 0.419-0.1l6.999 1.499c0.231 0.049 0.395 0.253 0.395 0.489v12c0 0.236-0.165 0.439-0.395 0.489l-6.999 1.501c-0.148 0.032-0.302-0.005-0.419-0.1s-0.186-0.238-0.186-0.389l0.001-15c0-0.151 0.068-0.294 0.185-0.389zM12.5 10c0-0.414-0.336-0.75-0.75-0.75s-0.75 0.336-0.75 0.75c0 0.414 0.336 0.75 0.75 0.75s0.75-0.336 0.75-0.75zM8 3.002h-4.502c-0.276 0-0.5 0.224-0.5 0.5v12.995c0 0.276 0.224 0.5 0.5 0.5h4.502v-13.995z"></path>
</svg>
