<svg version="1.1" xmlns="http://www.w3.org/2000/svg" width="20" height="20" viewBox="0 0 20 20">
<title>csv</title>
<path d="M4 4c0-1.105 0.895-2 2-2h4.586c0.398 0 0.779 0.158 1.061 0.439l3.914 3.914c0.281 0.281 0.439 0.663 0.439 1.061v8.586c0 1.105-0.895 2-2 2h-8c-1.105 0-2-0.895-2-2v-0.5c0-0.276 0.224-0.5 0.5-0.5s0.5 0.224 0.5 0.5v0.5c0 0.552 0.448 1 1 1h8c0.552 0 1-0.448 1-1v-8h-3.5c-0.828 0-1.5-0.672-1.5-1.5v-3.5h-4c-0.552 0-1 0.448-1 1v4.5c0 0.276-0.224 0.5-0.5 0.5s-0.5-0.224-0.5-0.5v-4.5zM11.5 7h3.293l-3.793-3.793v3.293c0 0.276 0.224 0.5 0.5 0.5z"></path>
<path d="M4 10.5c0 0.276-0.224 0.5-0.5 0.5h-0.5c-0.552 0-1 0.448-1 1s0.448 1 1 1h0.5c0.276 0 0.5 0.224 0.5 0.5s-0.224 0.5-0.5 0.5h-0.5c-1.105 0-2-0.895-2-2s0.895-2 2-2h0.5c0.276 0 0.5 0.224 0.5 0.5zM8 10.5c0 0.276-0.224 0.5-0.5 0.5h-1.219c-0.155 0-0.281 0.126-0.281 0.281 0 0.129 0.088 0.241 0.213 0.272l0.937 0.234c0.5 0.125 0.851 0.574 0.851 1.090 0 0.62-0.503 1.123-1.123 1.123h-1.377c-0.276 0-0.5-0.224-0.5-0.5s0.224-0.5 0.5-0.5h1.219c0.155 0 0.281-0.126 0.281-0.281 0-0.129-0.088-0.241-0.213-0.272l-0.937-0.234c-0.5-0.125-0.851-0.574-0.851-1.090 0-0.62 0.503-1.123 1.123-1.123h1.377c0.276 0 0.5 0.224 0.5 0.5zM12 10.5c0-0.276-0.224-0.5-0.5-0.5s-0.5 0.224-0.5 0.5v2c0 0.276-0.224 0.5-0.5 0.5s-0.5-0.224-0.5-0.5v-2c0-0.276-0.224-0.5-0.5-0.5s-0.5 0.224-0.5 0.5v1.793c0 0.453 0.18 0.887 0.5 1.207l0.146 0.146c0.226 0.226 0.533 0.354 0.854 0.354s0.627-0.127 0.853-0.354l0.147-0.146c0.32-0.32 0.5-0.754 0.5-1.207v-1.793z"></path>
</svg>
