<svg version="1.1" xmlns="http://www.w3.org/2000/svg" width="20" height="20" viewBox="0 0 20 20">
<title>cut</title>
<path d="M5.919 2.228c-0.15-0.232-0.46-0.297-0.692-0.147s-0.297 0.46-0.147 0.692l4.323 6.657-1.923 2.961c-0.437-0.248-0.942-0.39-1.481-0.39-1.657 0-3 1.343-3 3s1.343 3 3 3c1.657 0 3-1.343 3-3 0-0.755-0.279-1.446-0.74-1.973l1.74-2.679 1.74 2.679c-0.461 0.527-0.74 1.218-0.74 1.973 0 1.657 1.343 3 3 3s3-1.343 3-3c0-1.657-1.343-3-3-3-0.539 0-1.044 0.142-1.481 0.39l-6.6-10.163zM14 17c-1.105 0-2-0.895-2-2s0.895-2 2-2c1.105 0 2 0.895 2 2s-0.895 2-2 2zM4 15c0-1.105 0.895-2 2-2s2 0.895 2 2c0 1.105-0.895 2-2 2s-2-0.895-2-2zM11.192 8.511l-0.596-0.918 3.484-5.366c0.15-0.232 0.46-0.297 0.692-0.147s0.297 0.46 0.147 0.692l-3.727 5.739z"></path>
</svg>
