<svg version="1.1" xmlns="http://www.w3.org/2000/svg" width="20" height="20" viewBox="0 0 20 20">
<title>dataareafilled</title>
<path d="M2.75 2c0.414 0 0.75 0.336 0.75 0.75v12.5c0 0.69 0.56 1.25 1.25 1.25h12.5c0.414 0 0.75 0.336 0.75 0.75s-0.336 0.75-0.75 0.75h-12.5c-1.519 0-2.75-1.231-2.75-2.75v-12.5c0-0.414 0.336-0.75 0.75-0.75zM16 5.5v10h-11.25c-0.138 0-0.25-0.112-0.25-0.25v-7.186l2.297-1.021c0.145-0.065 0.313-0.056 0.451 0.023l3.205 1.831 4.735-3.788c0.15-0.12 0.356-0.143 0.529-0.060s0.283 0.258 0.283 0.451z"></path>
</svg>
