<!-- Generated by IcoMoon.io -->
<svg version="1.1" xmlns="http://www.w3.org/2000/svg" width="20" height="20" viewBox="0 0 20 20">
<title>datatrending</title>
<path d="M4 3.5c0-0.276-0.224-0.5-0.5-0.5s-0.5 0.224-0.5 0.5v11c0 1.381 1.119 2.5 2.5 2.5h11c0.276 0 0.5-0.224 0.5-0.5s-0.224-0.5-0.5-0.5h-11c-0.828 0-1.5-0.672-1.5-1.5v-11zM12.5 5c-0.276 0-0.5 0.224-0.5 0.5s0.224 0.5 0.5 0.5h2.793l-4.293 4.293-1.646-1.646c-0.094-0.094-0.221-0.146-0.354-0.146s-0.26 0.053-0.354 0.146l-3.5 3.5c-0.195 0.195-0.195 0.512 0 0.707s0.512 0.195 0.707 0l3.146-3.146 1.646 1.646c0.094 0.094 0.221 0.146 0.354 0.146s0.26-0.053 0.353-0.146l4.647-4.647v2.793c0 0.276 0.224 0.5 0.5 0.5s0.5-0.224 0.5-0.5v-4c0-0.276-0.224-0.5-0.5-0.5h-4z"></path>
</svg>
