<svg version="1.1" xmlns="http://www.w3.org/2000/svg" width="20" height="20" viewBox="0 0 20 20">
<title>datadoughnutfilled</title>
<path d="M10 5.5c0 0.276-0.225 0.497-0.499 0.531-1.974 0.246-3.501 1.929-3.501 3.969 0 2.209 1.791 4 4 4 2.040 0 3.724-1.527 3.969-3.501 0.034-0.274 0.255-0.499 0.531-0.499h3c0.276 0 0.502 0.224 0.485 0.5-0.258 4.185-3.734 7.5-7.985 7.5-4.418 0-8-3.582-8-8 0-4.25 3.315-7.727 7.5-7.985 0.276-0.017 0.5 0.208 0.5 0.485v3z"></path>
<path d="M11 2.566c0-0.301 0.264-0.535 0.559-0.476 3.167 0.626 5.661 3.119 6.286 6.286 0.058 0.295-0.176 0.559-0.476 0.559h-3.108c-0.228 0-0.424-0.156-0.502-0.37-0.403-1.107-1.282-1.986-2.389-2.389-0.214-0.078-0.37-0.274-0.37-0.502v-3.108z"></path>
</svg>
