<svg version="1.1" xmlns="http://www.w3.org/2000/svg" width="20" height="20" viewBox="0 0 20 20">
<title>datapiefilled</title>
<path d="M8.014 4.069c-0.004 0-0.007 0.001-0.011 0.001-1.706 0.243-3.213 1.101-4.291 2.342-1.067 1.228-1.712 2.832-1.712 4.587 0 0.242 0.012 0.48 0.036 0.716 0.358 3.53 3.339 6.284 6.964 6.284 1.819 0 3.476-0.694 4.72-1.831 0.097-0.088 0.191-0.179 0.283-0.273 1.016-1.038 1.712-2.391 1.927-3.899 0.001-0.003 0.001-0.007 0.001-0.010 0.021-0.148 0.037-0.298 0.049-0.449 0.011-0.139-0.037-0.276-0.132-0.378s-0.228-0.16-0.367-0.16h-4.981c-0.828 0-1.5-0.672-1.5-1.5v-4.981c0-0.139-0.058-0.272-0.16-0.367s-0.239-0.142-0.378-0.132c-0.151 0.011-0.3 0.028-0.448 0.049zM17.999 9.136c-0.009 0.497-0.439 0.864-0.937 0.864h-6.062c-0.552 0-1-0.448-1-1v-6.062c0-0.498 0.366-0.927 0.864-0.937 0.045-0.001 0.091-0.001 0.136-0.001 3.866 0 7 3.134 7 7 0 0.046-0 0.091-0.001 0.136z"></path>
</svg>
