<svg version="1.1" xmlns="http://www.w3.org/2000/svg" width="20" height="20" viewBox="0 0 20 20">
<title>datapieoutline</title>
<path d="M17.999 9.136c-0.009 0.497-0.439 0.864-0.937 0.864h-6.062c-0.552 0-1-0.448-1-1v-6.062c0-0.498 0.366-0.927 0.864-0.937 0.045-0.001 0.091-0.001 0.136-0.001 3.866 0 7 3.134 7 7 0 0.046-0 0.091-0.001 0.136zM11 3v6h6c0-3.314-2.686-6-6-6zM9 4.519c0-0.139-0.058-0.272-0.16-0.367s-0.239-0.142-0.378-0.132c-3.615 0.275-6.462 3.295-6.462 6.98 0 3.866 3.134 7 7 7 3.685 0 6.705-2.847 6.98-6.462 0.011-0.139-0.037-0.276-0.132-0.378s-0.228-0.16-0.367-0.16h-4.981c-0.828 0-1.5-0.672-1.5-1.5v-4.981zM3 11c0-2.973 2.162-5.441 5-5.917v4.417c0 1.381 1.119 2.5 2.5 2.5h4.417c-0.476 2.838-2.944 5-5.917 5-3.314 0-6-2.686-6-6z"></path>
</svg>
