<svg version="1.1" xmlns="http://www.w3.org/2000/svg" width="20" height="20" viewBox="0 0 20 20">
<title>dataareaoutline</title>
<path d="M2.5 2c0.276 0 0.5 0.224 0.5 0.5v6.231l3.797-1.688c0.145-0.065 0.313-0.056 0.451 0.023l3.205 1.831 4.735-3.788c0.15-0.12 0.356-0.143 0.529-0.060s0.283 0.258 0.283 0.451v11.5h1.5c0.276 0 0.5 0.224 0.5 0.5s-0.224 0.5-0.5 0.5h-13c-1.381 0-2.5-1.119-2.5-2.5v-13c0-0.276 0.224-0.5 0.5-0.5zM15 17v-10.46l-4.188 3.35c-0.16 0.128-0.382 0.145-0.56 0.044l-3.28-1.874-3.972 1.765v5.675c0 0.828 0.672 1.5 1.5 1.5h10.5z"></path>
</svg>
