<!-- Generated by IcoMoon.io -->
<svg version="1.1" xmlns="http://www.w3.org/2000/svg" width="20" height="20" viewBox="0 0 20 20">
<title>datapie</title>
<path d="M9 12c-0.552 0-1-0.448-1-1v-5.917c-2.837 0.475-5 2.945-5 5.917 0 3.314 2.686 6 6 6 2.973 0 5.442-2.163 5.917-5h-5.917zM8.003 4.070c0.547-0.078 0.997 0.377 0.997 0.93v6h6c0.552 0 1.008 0.45 0.929 0.997-0.484 3.394-3.402 6.003-6.929 6.003-3.866 0-7-3.134-7-7 0-3.528 2.609-6.446 6.003-6.93zM11 9v-6c3.314 0 6 2.686 6 6h-6zM17.062 10c0.498 0 0.927-0.366 0.937-0.864 0.001-0.045 0.001-0.091 0.001-0.136 0-3.866-3.134-7-7-7-0.046 0-0.091 0-0.136 0.001-0.497 0.009-0.864 0.439-0.864 0.937v6.062c0 0.552 0.448 1 1 1h6.062z"></path>
</svg>
