<svg version="1.1" xmlns="http://www.w3.org/2000/svg" width="20" height="20" viewBox="0 0 20 20">
<title>databaroutline</title>
<path d="M15 3c1.105 0 2 0.895 2 2v10c0 1.105-0.895 2-2 2s-2-0.895-2-2v-10c0-1.105 0.895-2 2-2zM16 5c0-0.552-0.448-1-1-1s-1 0.448-1 1v10c0 0.552 0.448 1 1 1s1-0.448 1-1v-10zM12 8c0-1.105-0.895-2-2-2s-2 0.895-2 2v7c0 1.105 0.895 2 2 2s2-0.895 2-2v-7zM10 7c0.552 0 1 0.448 1 1v7c0 0.552-0.448 1-1 1s-1-0.448-1-1v-7c0-0.552 0.448-1 1-1zM7 11c0-1.105-0.895-2-2-2s-2 0.895-2 2v4c0 1.105 0.895 2 2 2s2-0.895 2-2v-4zM5 10c0.552 0 1 0.448 1 1v4c0 0.552-0.448 1-1 1s-1-0.448-1-1v-4c0-0.552 0.448-1 1-1z"></path>
</svg>
