<!-- Generated by IcoMoon.io -->
<svg version="1.1" xmlns="http://www.w3.org/2000/svg" width="20" height="20" viewBox="0 0 20 20">
<title>dataarea</title>
<path d="M3 2.5c0-0.276-0.224-0.5-0.5-0.5s-0.5 0.224-0.5 0.5v6.989c-0 0.007-0 0.015 0 0.022v7.989c0 0.276 0.224 0.5 0.5 0.5h15c0.276 0 0.5-0.224 0.5-0.5s-0.224-0.5-0.5-0.5h-1.5v-11.5c0-0.192-0.11-0.367-0.283-0.451s-0.379-0.060-0.529 0.060l-4.735 3.788-3.205-1.831c-0.138-0.079-0.306-0.087-0.451-0.023l-3.797 1.688v-6.231zM3 9.825l3.972-1.765 3.28 1.874c0.178 0.102 0.4 0.084 0.56-0.044l4.188-3.35v10.46h-12v-7.175z"></path>
</svg>
