<svg version="1.1" xmlns="http://www.w3.org/2000/svg" width="20" height="20" viewBox="0 0 20 20">
<title>datafield</title>
<path d="M4.5 4h11c0.828 0 1.5 0.672 1.5 1.5s-0.672 1.5-1.5 1.5h-11c-0.828 0-1.5-0.672-1.5-1.5s0.672-1.5 1.5-1.5zM4.5 5c-0.276 0-0.5 0.224-0.5 0.5s0.224 0.5 0.5 0.5h11c0.276 0 0.5-0.224 0.5-0.5s-0.224-0.5-0.5-0.5h-11z"></path>
<path d="M3 10.5c0-0.828 0.672-1.5 1.5-1.5h9.5v0.022c-0.986 0.089-1.897 0.438-2.663 0.978h-6.837c-0.276 0-0.5 0.224-0.5 0.5s0.224 0.5 0.5 0.5h5.757c-0.254 0.307-0.475 0.642-0.657 1h-5.1c-0.828 0-1.5-0.672-1.5-1.5z"></path>
<path d="M9.022 14h-4.522c-0.828 0-1.5 0.672-1.5 1.5s0.672 1.5 1.5 1.5h5.1c-0.162-0.317-0.294-0.651-0.393-1h-4.707c-0.276 0-0.5-0.224-0.5-0.5s0.224-0.5 0.5-0.5h4.522c-0.015-0.165-0.022-0.332-0.022-0.5s0.008-0.335 0.022-0.5z"></path>
<path d="M14.5 19c-2.485 0-4.5-2.015-4.5-4.5s2.015-4.5 4.5-4.5c2.485 0 4.5 2.015 4.5 4.5s-2.015 4.5-4.5 4.5zM12.9 12c-0.16 0-0.305 0.1-0.368 0.253s-0.031 0.332 0.080 0.452l1.645 1.879-1.664 1.732c-0.1 0.124-0.121 0.297-0.056 0.444s0.207 0.24 0.362 0.24h3.2c0.221 0 0.4-0.187 0.4-0.417s-0.179-0.417-0.4-0.417h-2.344l1.345-1.334c0.131-0.163 0.123-0.403-0.019-0.556l-1.242-1.443h2.26c0.221 0 0.4-0.187 0.4-0.417s-0.179-0.417-0.4-0.417h-3.2z"></path>
</svg>
