<svg version="1.1" xmlns="http://www.w3.org/2000/svg" width="20" height="20" viewBox="0 0 20 20">
<title>datadoughnutoutline</title>
<path d="M9.5 2.016c0.276-0.017 0.5 0.208 0.5 0.484v3c-0 0.276-0.225 0.497-0.499 0.531l-0.184 0.026c-1.884 0.324-3.317 1.966-3.317 3.942 0 2.209 1.791 4 4 4 2.040 0 3.723-1.527 3.969-3.501 0.030-0.24 0.203-0.442 0.431-0.489l0.101-0.010h3c0.276 0 0.501 0.224 0.484 0.5-0.258 4.185-3.734 7.5-7.984 7.5-4.418 0-8-3.582-8-8 0-4.25 3.315-7.726 7.5-7.984zM9 3.36c0-0.152-0.135-0.269-0.285-0.242-3.252 0.603-5.715 3.454-5.715 6.881 0 3.866 3.134 7 7 7 3.427 0 6.278-2.463 6.881-5.715 0.028-0.15-0.089-0.285-0.242-0.285h-1.537c-0.119 0-0.221 0.084-0.249 0.199-0.538 2.182-2.505 3.801-4.854 3.801-2.761 0-5-2.239-5-5 0-2.348 1.618-4.316 3.801-4.854 0.115-0.028 0.199-0.13 0.199-0.249v-1.537z"></path>
<path d="M11.56 2.090c3.167 0.626 5.66 3.119 6.286 6.286 0.058 0.295-0.176 0.56-0.477 0.56h-3.107l-0.084-0.007c-0.191-0.033-0.351-0.176-0.419-0.363-0.378-1.038-1.174-1.874-2.184-2.308l-0.205-0.081c-0.214-0.078-0.37-0.275-0.37-0.503v-3.107c0-0.301 0.265-0.535 0.56-0.477zM12 5.188c0 0.099 0.059 0.189 0.149 0.232 1.035 0.493 1.873 1.332 2.366 2.367 0.043 0.090 0.132 0.149 0.232 0.149h1.825c0.067 0 0.115-0.065 0.094-0.128-0.686-2.153-2.386-3.853-4.538-4.539-0.064-0.020-0.128 0.028-0.128 0.095v1.825z"></path>
</svg>
