<svg version="1.1" xmlns="http://www.w3.org/2000/svg" width="20" height="20" viewBox="0 0 20 20">
<title>datalinefilled</title>
<path d="M18 5.5c0 1.381-1.119 2.5-2.5 2.5-0.334 0-0.652-0.065-0.943-0.184l-1.282 1.923c0.448 0.452 0.725 1.074 0.725 1.761 0 1.381-1.119 2.5-2.5 2.5-0.851 0-1.603-0.426-2.055-1.075l-2.496 1.070c0.034 0.163 0.051 0.332 0.051 0.506 0 1.381-1.119 2.5-2.5 2.5s-2.5-1.119-2.5-2.5c0-1.381 1.119-2.5 2.5-2.5 0.851 0 1.603 0.426 2.055 1.075l2.496-1.070c-0.034-0.163-0.051-0.332-0.051-0.506 0-1.381 1.119-2.5 2.5-2.5 0.334 0 0.652 0.065 0.943 0.184l1.282-1.923c-0.448-0.452-0.725-1.074-0.725-1.761 0-1.381 1.119-2.5 2.5-2.5s2.5 1.119 2.5 2.5z"></path>
</svg>
