<svg version="1.1" xmlns="http://www.w3.org/2000/svg" width="20" height="20" viewBox="0 0 20 20">
<path d="M8 9.5c0 0.552-0.448 1-1 1s-1-0.448-1-1c0-0.552 0.448-1 1-1s1 0.448 1 1z"></path>
<path d="M13 13.5c0.552 0 1-0.448 1-1s-0.448-1-1-1c-0.552 0-1 0.448-1 1s0.448 1 1 1z"></path>
<path d="M9.5 9c-0.276 0-0.5 0.224-0.5 0.5s0.224 0.5 0.5 0.5h4c0.276 0 0.5-0.224 0.5-0.5s-0.224-0.5-0.5-0.5h-4z"></path>
<path d="M6 12.5c0-0.276 0.224-0.5 0.5-0.5h4c0.276 0 0.5 0.224 0.5 0.5s-0.224 0.5-0.5 0.5h-4c-0.276 0-0.5-0.224-0.5-0.5z"></path>
<path d="M17 5.5v9c0 1.381-1.119 2.5-2.5 2.5h-9c-1.381 0-2.5-1.119-2.5-2.5v-9c0-1.381 1.119-2.5 2.5-2.5h9c1.381 0 2.5 1.119 2.5 2.5zM14.5 16c0.828 0 1.5-0.672 1.5-1.5v-7.5h-12v7.5c0 0.828 0.672 1.5 1.5 1.5h9zM5.5 4c-0.828 0-1.5 0.672-1.5 1.5v0.5h12v-0.5c0-0.828-0.672-1.5-1.5-1.5h-9z"></path>
</svg>
