<svg width="20" height="20" viewBox="0 0 20 20" fill="none" xmlns="http://www.w3.org/2000/svg">
<path d="M8 9.5C8 10.0523 7.55228 10.5 7 10.5C6.44772 10.5 6 10.0523 6 9.5C6 8.94772 6.44772 8.5 7 8.5C7.55228 8.5 8 8.94772 8 9.5Z" fill="black"/>
<path d="M13 13.5C13.5523 13.5 14 13.0523 14 12.5C14 11.9477 13.5523 11.5 13 11.5C12.4477 11.5 12 11.9477 12 12.5C12 13.0523 12.4477 13.5 13 13.5Z" fill="black"/>
<path d="M9.5 9C9.22386 9 9 9.22386 9 9.5C9 9.77614 9.22386 10 9.5 10H13.5C13.7761 10 14 9.77614 14 9.5C14 9.22386 13.7761 9 13.5 9H9.5Z" fill="black"/>
<path d="M6 12.5C6 12.2239 6.22386 12 6.5 12H10.5C10.7761 12 11 12.2239 11 12.5C11 12.7761 10.7761 13 10.5 13H6.5C6.22386 13 6 12.7761 6 12.5Z" fill="black"/>
<path fill-rule="evenodd" clip-rule="evenodd" d="M17 5.5C17 4.11929 15.8807 3 14.5 3H5.5C4.11929 3 3 4.11929 3 5.5V14.5C3 15.8807 4.11929 17 5.5 17H14.5C15.8807 17 17 15.8807 17 14.5V5.5ZM14.5 16C15.3284 16 16 15.3284 16 14.5V7H4V14.5C4 15.3284 4.67157 16 5.5 16H14.5ZM5.5 4H14.5C15.3284 4 16 4.67157 16 5.5V6H4V5.5C4 4.67157 4.67157 4 5.5 4Z" fill="black"/>
</svg>
