<svg version="1.1" xmlns="http://www.w3.org/2000/svg" width="20" height="20" viewBox="0 0 20 20">
<title>doesnotcontain</title>
<path d="M3 6c-1.105 0-2 0.895-2 2v1.5h2.195l0.896-2.181c0.080-0.195 0.281-0.322 0.503-0.319s0.418 0.136 0.493 0.333l0.816 2.167h2.098v-2c0-0.276 0.224-0.5 0.5-0.5h1.503c0.162-0 0.602-0 1.008 0.228 0.214 0.12 0.418 0.303 0.564 0.57 0.145 0.264 0.219 0.585 0.219 0.96 0 0.286-0.049 0.532-0.133 0.741h1.36c0.004-0.037 0.009-0.076 0.015-0.118 0.034-0.24 0.102-0.569 0.243-0.905 0.14-0.334 0.364-0.702 0.727-0.99 0.375-0.297 0.871-0.487 1.495-0.487l0.031-0c0.31-0 0.787-0.001 1.249 0.201 0.507 0.222 0.91 0.642 1.187 1.328 0.105 0.26-0.047 0.546-0.34 0.64s-0.616-0.042-0.721-0.302c-0.207-0.512-0.447-0.691-0.625-0.768-0.207-0.091-0.44-0.098-0.782-0.098-0.345 0-0.574 0.098-0.744 0.233-0.182 0.144-0.321 0.352-0.422 0.594-0.1 0.238-0.153 0.482-0.18 0.673h4.847v-1.5c0-1.105-0.895-2-2-2h-14z"></path>
<path d="M19 10.5h-4.843c0.027 0.232 0.078 0.468 0.173 0.686 0.095 0.216 0.227 0.395 0.409 0.529 0.179 0.131 0.435 0.241 0.823 0.28 0.313 0.031 1.031-0.013 1.361-0.662 0.128-0.252 0.461-0.364 0.745-0.251s0.41 0.409 0.282 0.661c-0.639 1.259-2.043 1.292-2.513 1.246-0.581-0.058-1.050-0.234-1.416-0.503-0.363-0.266-0.593-0.601-0.741-0.936-0.155-0.352-0.224-0.723-0.255-1.050h-1.037c0.086 0.217 0.129 0.464 0.129 0.742 0 0.752-0.352 1.228-0.798 1.487-0.407 0.237-0.851 0.271-1.069 0.271h-1.75c-0.276 0-0.5-0.224-0.5-0.5v-2h-1.721l0.69 1.833c0.098 0.26-0.046 0.546-0.323 0.638s-0.58-0.044-0.678-0.304l-0.251-0.667h-2.412l-0.28 0.681c-0.106 0.258-0.413 0.385-0.687 0.286s-0.409-0.389-0.303-0.647l0.748-1.819h-1.784v1.5c0 1.105 0.895 2 2 2h14c1.105 0 2-0.895 2-2v-1.5z"></path>
<path d="M4.564 8.938l0.212 0.562h-0.443l0.231-0.562z"></path>
<path d="M3.717 11l0.205-0.5h1.231l0.188 0.5h-1.624z"></path>
<path d="M9 9.5h1.037c0.122-0.002 0.323-0.027 0.481-0.123 0.125-0.076 0.275-0.222 0.275-0.619 0-0.245-0.048-0.392-0.096-0.48-0.047-0.085-0.107-0.14-0.177-0.179-0.159-0.090-0.363-0.1-0.521-0.1h-1v1.5z"></path>
<path d="M9.364 10.5h0.821c0.187 0 0.433 0.007 0.628 0.103 0.087 0.043 0.154 0.1 0.203 0.181s0.101 0.221 0.101 0.458c0 0.383-0.152 0.536-0.301 0.623-0.187 0.109-0.427 0.136-0.567 0.136h-1.25v-1.5h0.364z"></path>
</svg>
