<svg version="1.1" xmlns="http://www.w3.org/2000/svg" width="20" height="20" viewBox="0 0 20 20">
<title>drawer-right</title>
<path d="M3 4.5c0-0.276 0.224-0.5 0.5-0.5h9c0.276 0 0.5 0.224 0.5 0.5s-0.224 0.5-0.5 0.5h-9c-0.276 0-0.5-0.224-0.5-0.5zM3.5 14c-0.276 0-0.5 0.224-0.5 0.5s0.224 0.5 0.5 0.5h9c0.276 0 0.5-0.224 0.5-0.5s-0.224-0.5-0.5-0.5h-9z"></path>
<path d="M15.293 10h-11.793c-0.276 0-0.5-0.224-0.5-0.5s0.224-0.5 0.5-0.5h11.793l-1.146-1.146c-0.195-0.195-0.195-0.512 0-0.707s0.512-0.195 0.707 0l2 2c0.048 0.048 0.084 0.103 0.109 0.162s0.038 0.124 0.038 0.191c0 0.068-0.013 0.132-0.038 0.191s-0.061 0.114-0.109 0.162l-2 2c-0.195 0.195-0.512 0.195-0.707 0s-0.195-0.512 0-0.707l1.146-1.146z"></path>
</svg>
