<svg version="1.1" xmlns="http://www.w3.org/2000/svg" width="20" height="20" viewBox="0 0 20 20">
<title>dropzone</title>
<path d="M5 3.5c0 0.276-0.224 0.5-0.5 0.5h-0.5c-0.5 0-0.75 0-0.875 0.125s-0.125 0.375-0.125 0.875v0.5c0 0.276-0.224 0.5-0.5 0.5s-0.5-0.224-0.5-0.5v-1.167c0-0.736 0.597-1.333 1.333-1.333h1.167c0.276 0 0.5 0.224 0.5 0.5z"></path>
<path d="M2.5 11c0.276 0 0.5 0.224 0.5 0.5v0.5c0 0.5 0 0.75 0.125 0.875s0.375 0.125 0.875 0.125h0.5c0.276 0 0.5 0.224 0.5 0.5s-0.224 0.5-0.5 0.5h-1.167c-0.736 0-1.333-0.597-1.333-1.333v-1.167c0-0.276 0.224-0.5 0.5-0.5z"></path>
<path d="M14.5 4c-0.276 0-0.5-0.224-0.5-0.5s0.224-0.5 0.5-0.5h1.167c0.736 0 1.333 0.597 1.333 1.333v1.167c0 0.276-0.224 0.5-0.5 0.5s-0.5-0.224-0.5-0.5v-0.5c0-0.5 0-0.75-0.125-0.875s-0.375-0.125-0.875-0.125h-0.5z"></path>
<path d="M6 3.5c0-0.276 0.224-0.5 0.5-0.5h2c0.276 0 0.5 0.224 0.5 0.5s-0.224 0.5-0.5 0.5h-2c-0.276 0-0.5-0.224-0.5-0.5z"></path>
<path d="M10 3.5c0-0.276 0.224-0.5 0.5-0.5h2c0.276 0 0.5 0.224 0.5 0.5s-0.224 0.5-0.5 0.5h-2c-0.276 0-0.5-0.224-0.5-0.5z"></path>
<path d="M6 13.5c0-0.276 0.224-0.5 0.5-0.5h3c0.276 0 0.5 0.224 0.5 0.5s-0.224 0.5-0.5 0.5h-3c-0.276 0-0.5-0.224-0.5-0.5z"></path>
<path d="M2 7.5c0-0.276 0.224-0.5 0.5-0.5s0.5 0.224 0.5 0.5v2c0 0.276-0.224 0.5-0.5 0.5s-0.5-0.224-0.5-0.5v-2z"></path>
<path d="M16 7.5c0-0.276 0.224-0.5 0.5-0.5s0.5 0.224 0.5 0.5v2c0 0.276-0.224 0.5-0.5 0.5s-0.5-0.224-0.5-0.5v-2z"></path>
<path d="M12.312 9.039c0.186-0.078 0.401-0.036 0.544 0.106l5.995 5.94c0.158 0.157 0.194 0.399 0.087 0.595s-0.33 0.297-0.547 0.249l-3.497-0.776-1.995 2.647c-0.129 0.172-0.354 0.242-0.558 0.173s-0.341-0.259-0.341-0.474l0.004-7.998c0-0.202 0.122-0.384 0.308-0.461z"></path>
</svg>
