<svg version="1.1" xmlns="http://www.w3.org/2000/svg" width="20" height="20" viewBox="0 0 20 20">
<title>email</title>
<path d="M15.5 4c1.381 0 2.5 1.119 2.5 2.5v8c0 1.381-1.119 2.5-2.5 2.5h-11c-1.381 0-2.5-1.119-2.5-2.5v-8c0-1.381 1.119-2.5 2.5-2.5h11zM17 7.961l-6.747 3.97c-0.13 0.077-0.287 0.089-0.426 0.038l-0.081-0.038-6.746-3.968v6.537c0 0.828 0.672 1.5 1.5 1.5h11c0.828 0 1.5-0.672 1.5-1.5v-6.539zM15.5 5h-11c-0.828 0-1.5 0.672-1.5 1.5v0.302l7 4.118 7-4.119v-0.301c0-0.828-0.672-1.5-1.5-1.5z"></path>
</svg>
