<svg version="1.1" xmlns="http://www.w3.org/2000/svg" width="20" height="20" viewBox="0 0 20 20">
<title>errorcircle</title>
<path d="M10 2c4.418 0 8 3.582 8 8s-3.582 8-8 8c-4.418 0-8-3.582-8-8s3.582-8 8-8zM10 12.5c-0.414 0-0.75 0.336-0.75 0.75s0.336 0.75 0.75 0.75c0.414 0 0.75-0.336 0.75-0.75s-0.336-0.75-0.75-0.75zM10 6c-0.245 0-0.45 0.177-0.492 0.41l-0.008 0.090v4.5l0.008 0.090c0.042 0.233 0.246 0.41 0.492 0.41s0.45-0.177 0.492-0.41l0.008-0.090v-4.5l-0.008-0.090c-0.042-0.233-0.246-0.41-0.492-0.41z"></path>
</svg>
