<svg version="1.1" xmlns="http://www.w3.org/2000/svg" width="20" height="20" viewBox="0 0 20 20">
<title>event</title>
<path d="M5 11v3c0 0.552 0.448 1 1 1h3c0.552 0 1-0.448 1-1v-3c0-0.552-0.448-1-1-1h-3c-0.552 0-1 0.448-1 1zM6 11h3v3h-3v-3z"></path>
<path d="M17 5.5c0-1.381-1.119-2.5-2.5-2.5h-9c-1.381 0-2.5 1.119-2.5 2.5v9c0 1.381 1.119 2.5 2.5 2.5h9c1.381 0 2.5-1.119 2.5-2.5v-9zM4 7h12v7.5c0 0.828-0.672 1.5-1.5 1.5h-9c-0.828 0-1.5-0.672-1.5-1.5v-7.5zM5.5 4h9c0.828 0 1.5 0.672 1.5 1.5v0.5h-12v-0.5c0-0.828 0.672-1.5 1.5-1.5z"></path>
</svg>
