<svg version="1.1" xmlns="http://www.w3.org/2000/svg" width="20" height="20" viewBox="0 0 20 20">
<title>expandform</title>
<path d="M4 6c0-1.105 0.895-2 2-2h2.5c0.276 0 0.5-0.224 0.5-0.5s-0.224-0.5-0.5-0.5h-2.5c-1.657 0-3 1.343-3 3v8c0 1.657 1.343 3 3 3h8c1.657 0 3-1.343 3-3v-2.5c0-0.276-0.224-0.5-0.5-0.5s-0.5 0.224-0.5 0.5v2.5c0 1.105-0.895 2-2 2h-4v-4c0-1.105-0.895-2-2-2h-4v-4zM4 11h4c0.552 0 1 0.448 1 1v4h-3c-1.105 0-2-0.895-2-2v-3zM11 3.5c0-0.276 0.224-0.5 0.5-0.5h5c0.276 0 0.5 0.224 0.5 0.5v5c0 0.276-0.224 0.5-0.5 0.5s-0.5-0.224-0.5-0.5v-3.793l-4.146 4.146c-0.195 0.195-0.512 0.195-0.707 0s-0.195-0.512 0-0.707l4.147-4.146h-3.793c-0.276 0-0.5-0.224-0.5-0.5z"></path>
</svg>
