<svg version="1.1" xmlns="http://www.w3.org/2000/svg" width="20" height="20" viewBox="0 0 20 20">
<title>exportxlsx</title>
<path d="M6 10.5c0-0.828 0.672-1.5 1.5-1.5h5c0.828 0 1.5 0.672 1.5 1.5v4c0 0.828-0.672 1.5-1.5 1.5h-5c-0.828 0-1.5-0.672-1.5-1.5v-4zM8 15v-2h-1v1.5c0 0.276 0.224 0.5 0.5 0.5h0.5zM9 12h4v-1.5c0-0.276-0.224-0.5-0.5-0.5h-3.5v2zM9 15h3.5c0.276 0 0.5-0.224 0.5-0.5v-1.5h-4v2zM7.5 10c-0.276 0-0.5 0.224-0.5 0.5v1.5h1v-2h-0.5zM6 2c-1.105 0-2 0.895-2 2v12c0 1.105 0.895 2 2 2h8c1.105 0 2-0.895 2-2v-8.586c0-0.398-0.158-0.779-0.439-1.061l-3.914-3.914c-0.281-0.281-0.663-0.439-1.061-0.439h-4.586zM5 4c0-0.552 0.448-1 1-1h4v3.5c0 0.828 0.672 1.5 1.5 1.5h3.5v8c0 0.552-0.448 1-1 1h-8c-0.552 0-1-0.448-1-1v-12zM14.793 7h-3.293c-0.276 0-0.5-0.224-0.5-0.5v-3.293l3.793 3.793z"></path>
</svg>
