<svg version="1.1" xmlns="http://www.w3.org/2000/svg" width="20" height="20" viewBox="0 0 20 20">
<title>exportselected</title>
<path d="M4 4c0-1.105 0.895-2 2-2h4.586c0.398 0 0.779 0.158 1.061 0.439l3.914 3.914c0.281 0.281 0.439 0.663 0.439 1.061v2.608c-0.165-0.015-0.332-0.022-0.5-0.022s-0.335 0.008-0.5 0.022v-2.022h-3.5c-0.828 0-1.5-0.672-1.5-1.5v-3.5h-4c-0.552 0-1 0.448-1 1v5.5c0 0.276-0.224 0.5-0.5 0.5s-0.5-0.224-0.5-0.5v-5.5zM11.5 7h3.293l-3.793-3.793v3.293c0 0.276 0.224 0.5 0.5 0.5z"></path>
<path d="M10.207 17h-4.207c-0.552 0-1-0.448-1-1v-2.5c0-0.276-0.224-0.5-0.5-0.5s-0.5 0.224-0.5 0.5v2.5c0 1.105 0.895 2 2 2h4.6c-0.162-0.317-0.294-0.651-0.393-1z"></path>
<path d="M20 15.5c0 2.485-2.015 4.5-4.5 4.5s-4.5-2.015-4.5-4.5c0-2.485 2.015-4.5 4.5-4.5s4.5 2.015 4.5 4.5zM18 14.354c0.195-0.195 0.195-0.512 0-0.707s-0.512-0.195-0.707 0l-2.647 2.647-0.793-0.793c-0.195-0.195-0.512-0.195-0.707 0s-0.195 0.512 0 0.707l1.147 1.147c0.195 0.195 0.512 0.195 0.707 0l3-3z"></path>
<path d="M10.5 11c0.276 0 0.5 0.224 0.5 0.5s-0.224 0.5-0.5 0.5h-8.793l1.146 1.146c0.195 0.195 0.195 0.512 0 0.707s-0.512 0.195-0.707 0l-2-2c-0.097-0.097-0.146-0.224-0.146-0.351v-0.006c0-0.067 0.014-0.13 0.038-0.188s0.061-0.114 0.109-0.162l2-2c0.195-0.195 0.512-0.195 0.707 0s0.195 0.512 0 0.707l-1.146 1.146h8.793z"></path>
</svg>
