<svg version="1.1" xmlns="http://www.w3.org/2000/svg" width="20" height="20" viewBox="0 0 20 20">
<title>export</title>
<path d="M10.5 11c0.276 0 0.5 0.224 0.5 0.5s-0.224 0.5-0.5 0.5h-8.793l1.146 1.146c0.195 0.195 0.195 0.512 0 0.707s-0.512 0.195-0.707 0l-2-2c-0.097-0.097-0.146-0.224-0.146-0.351v-0.006c0-0.067 0.014-0.13 0.038-0.188s0.061-0.114 0.109-0.162l2-2c0.195-0.195 0.512-0.195 0.707 0s0.195 0.512 0 0.707l-1.146 1.146h8.793z"></path>
<path d="M6 2c-1.105 0-2 0.895-2 2v5.5c0 0.276 0.224 0.5 0.5 0.5v0c0.276 0 0.5-0.224 0.5-0.5v-5.5c0-0.552 0.448-1 1-1h4v3.5c0 0.828 0.672 1.5 1.5 1.5h3.5v8c0 0.552-0.448 1-1 1h-8c-0.552 0-1-0.448-1-1v-2.5c0-0.276-0.224-0.5-0.5-0.5v0c-0.276 0-0.5 0.224-0.5 0.5v2.5c0 1.105 0.895 2 2 2h8c1.105 0 2-0.895 2-2v-8.586c0-0.398-0.158-0.779-0.439-1.061l-3.914-3.914c-0.281-0.281-0.663-0.439-1.061-0.439h-4.586zM14.793 7h-3.293c-0.276 0-0.5-0.224-0.5-0.5v-3.293l3.793 3.793z"></path>
</svg>
