<svg version="1.1" xmlns="http://www.w3.org/2000/svg" width="20" height="20" viewBox="0 0 20 20">
<title>eyeclose</title>
<path d="M2.854 2.146c-0.195-0.195-0.512-0.195-0.707 0s-0.195 0.512 0 0.707l3.499 3.499c-1.675 1.139-2.922 2.921-3.365 5.046-0.056 0.27 0.117 0.535 0.387 0.592s0.535-0.117 0.592-0.387c0.404-1.935 1.565-3.539 3.108-4.528l1.586 1.586c-0.88 0.636-1.453 1.671-1.453 2.84 0 1.933 1.567 3.5 3.5 3.5 1.169 0 2.204-0.573 2.84-1.453l4.307 4.307c0.195 0.195 0.512 0.195 0.707 0s0.195-0.512 0-0.707l-15-15zM12.119 12.827c-0.442 0.705-1.226 1.173-2.119 1.173-1.381 0-2.5-1.119-2.5-2.5 0-0.893 0.469-1.677 1.173-2.119l3.446 3.446zM10.123 8.002l3.374 3.374c-0.064-1.835-1.54-3.311-3.374-3.374zM10 6c-0.57 0-1.129 0.074-1.666 0.213l-0.803-0.803c0.782-0.266 1.614-0.41 2.469-0.41 3.693 0 6.942 2.673 7.72 6.398 0.056 0.27-0.117 0.535-0.387 0.592s-0.535-0.117-0.592-0.387c-0.683-3.275-3.535-5.602-6.741-5.602z"></path>
</svg>
