<svg version="1.1" xmlns="http://www.w3.org/2000/svg" width="20" height="20" viewBox="0 0 20 20">
<title>eyeopen</title>
<path d="M3.259 11.602c0.683-3.275 3.535-5.602 6.741-5.602s6.057 2.327 6.741 5.602c0.057 0.27 0.321 0.444 0.592 0.387s0.444-0.321 0.387-0.592c-0.777-3.725-4.027-6.398-7.72-6.398s-6.943 2.673-7.72 6.398c-0.056 0.27 0.117 0.535 0.387 0.592s0.535-0.117 0.592-0.387zM10 8c-1.933 0-3.5 1.567-3.5 3.5s1.567 3.5 3.5 3.5c1.933 0 3.5-1.567 3.5-3.5s-1.567-3.5-3.5-3.5zM7.5 11.5c0-1.381 1.119-2.5 2.5-2.5s2.5 1.119 2.5 2.5c0 1.381-1.119 2.5-2.5 2.5s-2.5-1.119-2.5-2.5z"></path>
</svg>
