<svg version="1.1" xmlns="http://www.w3.org/2000/svg" width="20" height="20" viewBox="0 0 20 20">
<title>fields</title>
<path d="M3 5.5c0 0.828 0.672 1.5 1.5 1.5h11c0.828 0 1.5-0.672 1.5-1.5s-0.672-1.5-1.5-1.5h-11c-0.828 0-1.5 0.672-1.5 1.5zM4 5.5c0-0.276 0.224-0.5 0.5-0.5h11c0.276 0 0.5 0.224 0.5 0.5s-0.224 0.5-0.5 0.5h-11c-0.276 0-0.5-0.224-0.5-0.5z"></path>
<path d="M4.5 9h11c0.828 0 1.5 0.672 1.5 1.5s-0.672 1.5-1.5 1.5h-11c-0.828 0-1.5-0.672-1.5-1.5s0.672-1.5 1.5-1.5zM4.5 10c-0.276 0-0.5 0.224-0.5 0.5s0.224 0.5 0.5 0.5h11c0.276 0 0.5-0.224 0.5-0.5s-0.224-0.5-0.5-0.5h-11z"></path>
<path d="M4.5 14h11c0.828 0 1.5 0.672 1.5 1.5s-0.672 1.5-1.5 1.5h-11c-0.828 0-1.5-0.672-1.5-1.5s0.672-1.5 1.5-1.5zM4.5 15c-0.276 0-0.5 0.224-0.5 0.5s0.224 0.5 0.5 0.5h11c0.276 0 0.5-0.224 0.5-0.5s-0.224-0.5-0.5-0.5h-11z"></path>
</svg>
