<svg version="1.1" xmlns="http://www.w3.org/2000/svg" width="20" height="20" viewBox="0 0 20 20">
<title>fieldchooser</title>
<path d="M3 5.5c0 0.828 0.672 1.5 1.5 1.5h11c0.828 0 1.5-0.672 1.5-1.5s-0.672-1.5-1.5-1.5h-11c-0.828 0-1.5 0.672-1.5 1.5zM4 5.5c0-0.276 0.224-0.5 0.5-0.5h11c0.276 0 0.5 0.224 0.5 0.5s-0.224 0.5-0.5 0.5h-11c-0.276 0-0.5-0.224-0.5-0.5z"></path>
<path d="M4.5 9c-0.828 0-1.5 0.672-1.5 1.5s0.672 1.5 1.5 1.5h5.1c0.183-0.358 0.404-0.693 0.657-1h-5.757c-0.276 0-0.5-0.224-0.5-0.5s0.224-0.5 0.5-0.5h6.837c0.767-0.54 1.677-0.889 2.663-0.978v-0.022h-9.5z"></path>
<path d="M9.022 14h-4.522c-0.828 0-1.5 0.672-1.5 1.5s0.672 1.5 1.5 1.5h5.1c-0.162-0.317-0.294-0.651-0.393-1h-4.707c-0.276 0-0.5-0.224-0.5-0.5s0.224-0.5 0.5-0.5h4.522c-0.015-0.165-0.022-0.332-0.022-0.5s0.008-0.335 0.022-0.5z"></path>
<path d="M19 14.5c0 2.485-2.015 4.5-4.5 4.5s-4.5-2.015-4.5-4.5c0-2.485 2.015-4.5 4.5-4.5s4.5 2.015 4.5 4.5zM17 13.354c0.195-0.195 0.195-0.512 0-0.707s-0.512-0.195-0.707 0l-2.647 2.647-0.793-0.793c-0.195-0.195-0.512-0.195-0.707 0s-0.195 0.512 0 0.707l1.147 1.147c0.195 0.195 0.512 0.195 0.707 0l3-3z"></path>
</svg>
