<svg version="1.1" xmlns="http://www.w3.org/2000/svg" width="20" height="20" viewBox="0 0 20 20">
<title>fill</title>
<path d="M9 2.5c0-0.276-0.224-0.5-0.5-0.5s-0.5 0.224-0.5 0.5v1.5c-0.205 0.072-0.397 0.19-0.561 0.354l-5.086 5.086c-0.586 0.586-0.586 1.535 0 2.121l4.336 4.336c0.586 0.586 1.536 0.586 2.121 0l5.086-5.086c0.586-0.586 0.586-1.536 0-2.121l-4.336-4.336c-0.164-0.164-0.356-0.282-0.561-0.354v-1.5zM13.269 10h-10.062l4.793-4.793v1.293c0 0.276 0.224 0.5 0.5 0.5s0.5-0.224 0.5-0.5v-1.293l4.189 4.189c0.164 0.164 0.19 0.412 0.080 0.604zM16.016 11.392c-0.231-0.395-0.801-0.395-1.032 0l-1.652 2.833c-0.976 1.673 0.231 3.775 2.168 3.775s3.144-2.102 2.168-3.775l-1.652-2.833z"></path>
</svg>
