<svg version="1.1" xmlns="http://www.w3.org/2000/svg" width="20" height="20" viewBox="0 0 20 20">
<title>floppy</title>
<path d="M5 3c-1.105 0-2 0.895-2 2v8c0 1.105 0.895 2 2 2h8c1.105 0 2-0.895 2-2v-6.379c0-0.53-0.211-1.039-0.586-1.414l-1.621-1.621c-0.375-0.375-0.884-0.586-1.414-0.586h-6.379zM4 5c0-0.552 0.448-1 1-1h1v1.5c0 0.828 0.672 1.5 1.5 1.5h2c0.828 0 1.5-0.672 1.5-1.5v-1.5h0.379c0.265 0 0.519 0.105 0.707 0.293l1.621 1.621c0.188 0.188 0.293 0.442 0.293 0.707v6.379c0 0.552-0.448 1-1 1v-3.5c0-0.828-0.672-1.5-1.5-1.5h-5c-0.828 0-1.5 0.672-1.5 1.5v3.5c-0.552 0-1-0.448-1-1v-8zM7 5.5v-1.5h3v1.5c0 0.276-0.224 0.5-0.5 0.5h-2c-0.276 0-0.5-0.224-0.5-0.5zM12 10.5v3.5h-6v-3.5c0-0.276 0.224-0.5 0.5-0.5h5c0.276 0 0.5 0.224 0.5 0.5zM8.5 17c-0.954 0-1.818-0.381-2.449-1h7.45c1.381 0 2.5-1.119 2.5-2.5v-7.45c0.619 0.631 1 1.496 1 2.449v5c0 1.933-1.567 3.5-3.5 3.5h-5z"></path>
</svg>
