<svg version="1.1" xmlns="http://www.w3.org/2000/svg" width="20" height="20" viewBox="0 0 20 20">
<title>fullscreen</title>
<path d="M3 5c0-1.105 0.895-2 2-2h2c0.276 0 0.5 0.224 0.5 0.5s-0.224 0.5-0.5 0.5h-2c-0.552 0-1 0.448-1 1v2c0 0.276-0.224 0.5-0.5 0.5s-0.5-0.224-0.5-0.5v-2zM12.5 3.5c0-0.276 0.224-0.5 0.5-0.5h2c1.105 0 2 0.895 2 2v2c0 0.276-0.224 0.5-0.5 0.5s-0.5-0.224-0.5-0.5v-2c0-0.552-0.448-1-1-1h-2c-0.276 0-0.5-0.224-0.5-0.5zM3.5 12.5c0.276 0 0.5 0.224 0.5 0.5v2c0 0.552 0.448 1 1 1h2c0.276 0 0.5 0.224 0.5 0.5s-0.224 0.5-0.5 0.5h-2c-1.105 0-2-0.895-2-2v-2c0-0.276 0.224-0.5 0.5-0.5zM16.5 12.5c0.276 0 0.5 0.224 0.5 0.5v2c0 1.105-0.895 2-2 2h-2c-0.276 0-0.5-0.224-0.5-0.5s0.224-0.5 0.5-0.5h2c0.552 0 1-0.448 1-1v-2c0-0.276 0.224-0.5 0.5-0.5z"></path>
</svg>
