<svg version="1.1" xmlns="http://www.w3.org/2000/svg" width="20" height="20" viewBox="0 0 20 20">
<title>gridkanban</title>
<path d="M2 3c0-0.552 0.448-1 1-1h5c0.552 0 1 0.448 1 1v2c0 0.552-0.448 1-1 1h-5c-0.552 0-1-0.448-1-1v-2zM8 3h-5v2h5v-2zM2 9c0-0.552 0.448-1 1-1h5c0.552 0 1 0.448 1 1v2c0 0.552-0.448 1-1 1h-5c-0.552 0-1-0.448-1-1v-2zM8 9h-5v2h5v-2zM3 14c-0.552 0-1 0.448-1 1v2c0 0.552 0.448 1 1 1h5c0.552 0 1-0.448 1-1v-2c0-0.552-0.448-1-1-1h-5zM3 15h5v2h-5v-2zM11 3c0-0.552 0.448-1 1-1h5c0.552 0 1 0.448 1 1v2c0 0.552-0.448 1-1 1h-5c-0.552 0-1-0.448-1-1v-2zM17 3h-5v2h5v-2zM12 8c-0.552 0-1 0.448-1 1v2c0 0.552 0.448 1 1 1h5c0.552 0 1-0.448 1-1v-2c0-0.552-0.448-1-1-1h-5zM12 9h5v2h-5v-2z"></path>
</svg>
