<svg version="1.1" xmlns="http://www.w3.org/2000/svg" width="20" height="20" viewBox="0 0 20 20">
<path d="M15.147 10.147c0.195-0.195 0.512-0.195 0.707 0l2 2c0.195 0.195 0.195 0.512 0 0.707s-0.512 0.195-0.707 0l-1.147-1.147v5.793c0 0.276-0.224 0.5-0.5 0.5s-0.5-0.224-0.5-0.5v-5.793l-1.147 1.147c-0.195 0.195-0.512 0.195-0.707 0s-0.195-0.512 0-0.707l2-2zM16 5c1.105 0 2 0.895 2 2v1.5c0 0.276-0.224 0.5-0.5 0.5s-0.5-0.224-0.5-0.5v-1.5c0-0.552-0.448-1-1-1h-12c-0.552 0-1 0.448-1 1v5c0 0.552 0.448 1 1 1h7.5c0.276 0 0.5 0.224 0.5 0.5s-0.224 0.5-0.5 0.5h-7.5c-1.105 0-2-0.895-2-2v-5c0-1.105 0.895-2 2-2h12z"></path>
<path d="M5.5 9c0.276 0 0.5 0.224 0.5 0.5s-0.224 0.5-0.5 0.5c-0.276 0-0.5-0.224-0.5-0.5s0.224-0.5 0.5-0.5z"></path>
<path d="M7.5 9h4c0.276 0 0.5 0.224 0.5 0.5s-0.224 0.5-0.5 0.5h-4c-0.276 0-0.5-0.224-0.5-0.5s0.224-0.5 0.5-0.5z"></path>
</svg>
