<svg version="1.1" xmlns="http://www.w3.org/2000/svg" width="20" height="20" viewBox="0 0 20 20">
<title>growfont</title>
<path d="M8.178 4c0.245 0.003 0.461 0.143 0.541 0.35l4.248 10.956c0.106 0.272-0.055 0.569-0.358 0.664s-0.635-0.049-0.74-0.321l-1.078-2.78h-5.53l-1.182 2.794c-0.114 0.269-0.45 0.405-0.75 0.303-0.155-0.053-0.27-0.158-0.33-0.285l0.283-1.075 1.152-2.723v-0.056h0.024l3.168-7.489c0.087-0.205 0.307-0.34 0.552-0.337zM8.146 6.049l-2.444 5.777h4.684l-2.24-5.777z"></path>
<path d="M15 9.293v-4.793c0-0.276 0.224-0.5 0.5-0.5s0.5 0.224 0.5 0.5v4.793l1.146-1.146c0.195-0.195 0.512-0.195 0.707 0s0.195 0.512 0 0.707l-2 2c-0.048 0.048-0.103 0.084-0.162 0.109s-0.124 0.038-0.191 0.038c-0.068 0-0.132-0.013-0.191-0.038s-0.114-0.061-0.162-0.109l-2-2c-0.195-0.195-0.195-0.512 0-0.707s0.512-0.195 0.707 0l1.146 1.146z"></path>
</svg>
