<svg version="1.1" xmlns="http://www.w3.org/2000/svg" width="20" height="20" viewBox="0 0 20 20">
<title>help</title>
<path d="M10 2c4.418 0 8 3.582 8 8s-3.582 8-8 8c-4.418 0-8-3.582-8-8s3.582-8 8-8zM10 3c-3.866 0-7 3.134-7 7s3.134 7 7 7c3.866 0 7-3.134 7-7s-3.134-7-7-7zM10 13.5c0.414 0 0.75 0.336 0.75 0.75s-0.336 0.75-0.75 0.75c-0.414 0-0.75-0.336-0.75-0.75s0.336-0.75 0.75-0.75zM10 5.5c1.381 0 2.5 1.119 2.5 2.5 0 0.73-0.315 1.408-0.849 1.877l-0.155 0.125-0.218 0.163-0.088 0.072c-0.056 0.048-0.107 0.097-0.156 0.149-0.338 0.361-0.535 0.856-0.535 1.614 0 0.276-0.224 0.5-0.5 0.5s-0.5-0.224-0.5-0.5c0-1.012 0.293-1.752 0.805-2.298 0.111-0.118 0.227-0.222 0.356-0.323l0.247-0.184 0.118-0.1c0.299-0.28 0.474-0.673 0.474-1.095 0-0.828-0.672-1.5-1.5-1.5s-1.5 0.672-1.5 1.5c0 0.276-0.224 0.5-0.5 0.5s-0.5-0.224-0.5-0.5c0-1.381 1.119-2.5 2.5-2.5z"></path>
</svg>
