<svg version="1.1" xmlns="http://www.w3.org/2000/svg" width="20" height="20" viewBox="0 0 20 20">
<title>home</title>
<path d="M8.998 2.388c0.57-0.512 1.435-0.512 2.005 0l5.5 4.942c0.317 0.284 0.497 0.69 0.497 1.116v7.054c0 0.828-0.672 1.5-1.5 1.5h-2.5c-0.828 0-1.5-0.672-1.5-1.5v-3.5c0-0.276-0.224-0.5-0.5-0.5h-2c-0.276 0-0.5 0.224-0.5 0.5v3.5c0 0.828-0.672 1.5-1.5 1.5h-2.5c-0.828 0-1.5-0.672-1.5-1.5v-7.054c0-0.426 0.181-0.831 0.498-1.116l5.5-4.942zM10.334 3.132c-0.19-0.171-0.478-0.171-0.668 0l-5.5 4.942c-0.106 0.095-0.166 0.23-0.166 0.372v7.054c0 0.276 0.224 0.5 0.5 0.5h2.5c0.276 0 0.5-0.224 0.5-0.5v-3.5c0-0.828 0.672-1.5 1.5-1.5h2c0.828 0 1.5 0.672 1.5 1.5v3.5c0 0.276 0.224 0.5 0.5 0.5h2.5c0.276 0 0.5-0.224 0.5-0.5v-7.054c0-0.142-0.060-0.277-0.166-0.372l-5.5-4.942z"></path>
</svg>
