<svg version="1.1" xmlns="http://www.w3.org/2000/svg" width="20" height="20" viewBox="0 0 20 20">
<path d="M9.485 9c0.828 0 1.5-0.672 1.5-1.5s-0.672-1.5-1.5-1.5c-0.828 0-1.5 0.672-1.5 1.5s0.672 1.5 1.5 1.5zM8.985 7.5c0-0.276 0.224-0.5 0.5-0.5s0.5 0.224 0.5 0.5c0 0.276-0.224 0.5-0.5 0.5s-0.5-0.224-0.5-0.5z"></path>
<path d="M6 3c-1.657 0-3 1.343-3 3v8c0 1.657 1.343 3 3 3h8c1.657 0 3-1.343 3-3v-8c0-1.657-1.343-3-3-3h-8zM4 6c0-1.105 0.895-2 2-2h8c1.105 0 2 0.895 2 2v6.101l-2.808-2.808c-0.391-0.391-1.024-0.391-1.414 0l-2.293 2.293-1.293-1.293c-0.391-0.391-1.024-0.391-1.414 0l-2.778 2.778v-7.071zM12.796 10.146l3.204 3.204v0.649c0 0.373-0.102 0.722-0.279 1.020-0.173 0.291-0.417 0.534-0.709 0.706-0.297 0.174-0.643 0.274-1.012 0.274h-7.765l5.854-5.854c0.195-0.195 0.512-0.195 0.707 0zM8.86 12.211l-3.634 3.634c-0.082-0.034-0.162-0.074-0.238-0.119-0.292-0.171-0.536-0.415-0.709-0.706-0.142-0.238-0.235-0.508-0.267-0.797l3.077-3.077c0.195-0.195 0.512-0.195 0.707 0l1.064 1.064z"></path>
</svg>
