<svg version="1.1" xmlns="http://www.w3.org/2000/svg" width="20" height="20" viewBox="0 0 20 20">
<title>image</title>
<path d="M6.5 8c0.828 0 1.5-0.672 1.5-1.5s-0.672-1.5-1.5-1.5c-0.828 0-1.5 0.672-1.5 1.5s0.672 1.5 1.5 1.5z"></path>
<path d="M2.094 3.391c0.086-0.25 0.211-0.48 0.375-0.676 0.367-0.438 0.914-0.715 1.531-0.715h12c1.102 0 2 0.895 2 2v12c0 1.106-0.898 2-2 2h-12c-0.672 0-1.266-0.332-1.625-0.84-0.109-0.152-0.195-0.32-0.258-0.496-0.078-0.207-0.117-0.43-0.117-0.664v-12c0-0.215 0.031-0.418 0.094-0.609zM4 3c-0.555 0-1 0.449-1 1v12l6.289-6.293c0.391-0.391 1.031-0.391 1.422 0l6.289 6.293v-12c0-0.551-0.445-1-1-1h-12zM4 17h12c0.156 0 0.352 0.008 0.484-0.055l-0.055-0.035-0.086-0.070-5.625-5.773c-0.32-0.324-0.797-0.387-1.18-0.188-0.094 0.047-0.18 0.109-0.258 0.188l-5.625 5.773-0.094 0.063c0.133 0.063 0.281 0.098 0.438 0.098z"></path>
</svg>
