<svg version="1.1" xmlns="http://www.w3.org/2000/svg" width="20" height="20" viewBox="0 0 20 20">
<title>indent</title>
<path d="M15 3.707v4.793c0 0.276 0.224 0.5 0.5 0.5s0.5-0.224 0.5-0.5v-4.793l1.146 1.146c0.195 0.195 0.512 0.195 0.707 0s0.195-0.512 0-0.707l-2-2c-0.048-0.048-0.103-0.084-0.162-0.109s-0.124-0.038-0.191-0.038-0.132 0.013-0.191 0.038c-0.059 0.024-0.114 0.061-0.162 0.109l-2 2c-0.195 0.195-0.195 0.512 0 0.707s0.512 0.195 0.707 0l1.146-1.146zM2 4.5c0-0.276 0.224-0.5 0.5-0.5h6c0.276 0 0.5 0.224 0.5 0.5s-0.224 0.5-0.5 0.5h-6c-0.276 0-0.5-0.224-0.5-0.5zM2 9.5c0-0.276 0.224-0.5 0.5-0.5h9c0.276 0 0.5 0.224 0.5 0.5s-0.224 0.5-0.5 0.5h-9c-0.276 0-0.5-0.224-0.5-0.5zM2.5 14c-0.276 0-0.5 0.224-0.5 0.5s0.224 0.5 0.5 0.5h6c0.276 0 0.5-0.224 0.5-0.5s-0.224-0.5-0.5-0.5h-6zM15 16.293v-4.793c0-0.276 0.224-0.5 0.5-0.5s0.5 0.224 0.5 0.5v4.793l1.146-1.147c0.195-0.195 0.512-0.195 0.707 0s0.195 0.512 0 0.707l-2 2c-0.048 0.048-0.103 0.084-0.162 0.108s-0.124 0.038-0.191 0.038c-0.068 0-0.132-0.013-0.191-0.038s-0.114-0.061-0.162-0.108l-2-2c-0.195-0.195-0.195-0.512 0-0.707s0.512-0.195 0.707 0l1.146 1.147z"></path>
</svg>
