<svg version="1.1" xmlns="http://www.w3.org/2000/svg" width="20" height="20" viewBox="0 0 20 20">
<title>like</title>
<path d="M10.497 16.803l6.244-6.303c1.684-1.711 1.679-4.474-0.017-6.187-1.663-1.68-4.328-1.723-6.026-0.122-0.037 0.035-0.073 0.070-0.108 0.106l-0.596 0.604-0.605-0.611c-0.033-0.033-0.067-0.066-0.101-0.098-1.702-1.614-4.371-1.589-6.027 0.083-1.688 1.705-1.68 4.476 0.016 6.189l6.277 6.34c0.26 0.263 0.683 0.263 0.943 0zM11.3 5c1.296-1.309 3.402-1.308 4.713 0.016 1.312 1.325 1.314 3.461 0.016 4.781l-0.001 0.001-6.003 6.060-6.038-6.099c-1.313-1.327-1.315-3.47-0.016-4.782 1.293-1.306 3.398-1.305 4.706 0.016l0.96 0.97c0.196 0.198 0.515 0.198 0.711-0l0.951-0.962z"></path>
</svg>
