<svg version="1.1" xmlns="http://www.w3.org/2000/svg" width="20" height="20" viewBox="0 0 20 20">
<title>listbartreeoffset</title>
<path d="M5 3c-1.105 0-2 0.895-2 2v1c0 1.105 0.895 2 2 2h0.268c-0.17 0.294-0.268 0.636-0.268 1v2c0 1.105 0.895 2 2 2h0.268c-0.17 0.294-0.268 0.636-0.268 1v1c0 1.105 0.895 2 2 2h6c1.105 0 2-0.895 2-2v-1c0-0.597-0.262-1.133-0.677-1.5 0.415-0.367 0.677-0.903 0.677-1.5v-2c0-0.597-0.262-1.134-0.677-1.5 0.415-0.366 0.677-0.903 0.677-1.5v-1c0-1.105-0.895-2-2-2h-10zM15 12h-5v-4h5c0.552 0 1 0.448 1 1v2c0 0.552-0.448 1-1 1zM9 8v4h-2c-0.552 0-1-0.448-1-1v-2c0-0.552 0.448-1 1-1h2zM8 14c0-0.552 0.448-1 1-1h2v3h-2c-0.552 0-1-0.448-1-1v-1zM12 16v-3h3c0.552 0 1 0.448 1 1v1c0 0.552-0.448 1-1 1h-3zM8 7v-3h7c0.552 0 1 0.448 1 1v1c0 0.552-0.448 1-1 1h-7zM7 7h-2c-0.552 0-1-0.448-1-1v-1c0-0.552 0.448-1 1-1h2v3z"></path>
</svg>
