<svg version="1.1" xmlns="http://www.w3.org/2000/svg" width="20" height="20" viewBox="0 0 20 20">
<title>lock</title>
<path d="M10 13c0.552 0 1-0.448 1-1s-0.448-1-1-1c-0.552 0-1 0.448-1 1s0.448 1 1 1zM6 6h1v-1c0-1.657 1.343-3 3-3s3 1.343 3 3v1h1c1.657 0 3 1.343 3 3v6c0 1.657-1.343 3-3 3h-8c-1.657 0-3-1.343-3-3v-6c0-1.657 1.343-3 3-3zM10 3c-1.105 0-2 0.895-2 2v1h4v-1c0-1.105-0.895-2-2-2zM16 9c0-1.105-0.895-2-2-2h-8c-1.105 0-2 0.895-2 2v6c0 1.105 0.895 2 2 2h8c1.105 0 2-0.895 2-2v-6z"></path>
</svg>
