<svg version="1.1" xmlns="http://www.w3.org/2000/svg" width="20" height="20" viewBox="0 0 20 20">
<title>login</title>
<path d="M7.5 17c-0.276 0-0.5-0.224-0.5-0.5s0.224-0.5 0.5-0.5h6.5c1.105 0 2-0.895 2-2v-8c0-1.105-0.895-2-2-2h-6.5c-0.276 0-0.5-0.224-0.5-0.5s0.224-0.5 0.5-0.5h6.5c1.657 0 3 1.343 3 3v8c0 1.657-1.343 3-3 3h-6.5zM7.646 6.146c0.195-0.195 0.512-0.195 0.707 0l3.5 3.5c0.195 0.195 0.195 0.512 0 0.707l-3.5 3.5c-0.195 0.195-0.512 0.195-0.707 0s-0.195-0.512 0-0.707l2.646-2.646h-8.793c-0.276 0-0.5-0.224-0.5-0.5s0.224-0.5 0.5-0.5h8.793l-2.646-2.646c-0.195-0.195-0.195-0.512 0-0.707z"></path>
</svg>
