<svg version="1.1" xmlns="http://www.w3.org/2000/svg" width="20" height="20" viewBox="0 0 20 20">
<title>map</title>
<path d="M13 9c0 1.657-1.343 3-3 3s-3-1.343-3-3c0-1.657 1.343-3 3-3s3 1.343 3 3zM12 9c0-1.105-0.895-2-2-2s-2 0.895-2 2c0 1.105 0.895 2 2 2s2-0.895 2-2zM14.95 13.955c2.734-2.735 2.734-7.169 0-9.904s-7.166-2.735-9.899 0-2.734 7.169 0 9.904l1.521 1.499 2.043 1.985 0.133 0.118c0.775 0.628 1.909 0.589 2.639-0.118l2.436-2.37 1.127-1.114zM5.755 4.756c2.344-2.345 6.146-2.345 8.49 0 2.284 2.285 2.343 5.954 0.176 8.311l-0.176 0.183-1.321 1.304-2.231 2.169-0.093 0.080c-0.354 0.268-0.846 0.268-1.2-0l-0.093-0.080-2.981-2.905-0.571-0.567-0.176-0.183c-2.167-2.356-2.109-6.025 0.176-8.311z"></path>
</svg>
