<svg version="1.1" xmlns="http://www.w3.org/2000/svg" width="20" height="20" viewBox="0 0 20 20">
<title>mention</title>
<path d="M10 2c4.418 0 8 3.582 8 8 0 2.706-1.142 4.5-3 4.5-1.226 0-2.141-0.781-2.621-2.090-0.596 0.983-1.598 1.59-2.879 1.59-2.141 0-3.5-1.693-3.5-4 0-2.337 1.313-4 3.5-4 1.052 0 1.901 0.385 2.5 1.044v-0.544c0-0.276 0.224-0.5 0.5-0.5 0.246 0 0.45 0.177 0.492 0.41l0.008 0.090v3.5c0 2.223 0.813 3.5 2 3.5s2-1.277 2-3.5c0-3.866-3.134-7-7-7s-7 3.134-7 7c0 3.866 3.134 7 7 7 0.823 0 1.626-0.142 2.383-0.416 0.26-0.094 0.546 0.040 0.64 0.3s-0.040 0.546-0.3 0.64c-0.866 0.313-1.784 0.476-2.724 0.476-4.418 0-8-3.582-8-8s3.582-8 8-8zM9.5 7c-1.576 0-2.5 1.171-2.5 3 0 1.797 0.966 3 2.5 3s2.5-1.203 2.5-3c0-1.829-0.924-3-2.5-3z"></path>
</svg>
