<!-- Generated by IcoMoon.io -->
<svg version="1.1" xmlns="http://www.w3.org/2000/svg" width="20" height="20" viewBox="0 0 20 20">
<path d="M5.5 10c0-0.276-0.224-0.5-0.5-0.5s-0.5 0.224-0.5 0.5c0 2.869 2.197 5.225 5 5.478v2.022c0 0.276 0.224 0.5 0.5 0.5s0.5-0.224 0.5-0.5v-2.022c2.803-0.253 5-2.609 5-5.478 0-0.276-0.224-0.5-0.5-0.5s-0.5 0.224-0.5 0.5c0 2.485-2.015 4.5-4.5 4.5s-4.5-2.015-4.5-4.5zM13 10.001c-0 1.657-1.343 2.999-3 2.999s-3-1.343-3-3v-5c0-1.657 1.343-3 3-3s3 1.343 3 3v5.001z"></path>
</svg>
