<svg version="1.1" xmlns="http://www.w3.org/2000/svg" width="20" height="20" viewBox="0 0 20 20">
<path d="M10 13c1.657 0 3-1.343 3-3v-5c0-1.657-1.343-3-3-3s-3 1.343-3 3v5c0 1.657 1.343 3 3 3zM10 12c-1.105 0-2-0.895-2-2v-5c0-1.105 0.895-2 2-2s2 0.895 2 2v5c0 1.105-0.895 2-2 2zM5 9.5c0.276 0 0.5 0.224 0.5 0.5 0 2.485 2.015 4.5 4.5 4.5s4.5-2.015 4.5-4.5c0-0.276 0.224-0.5 0.5-0.5s0.5 0.224 0.5 0.5c0 2.869-2.197 5.225-5 5.478v2.022c0 0.276-0.224 0.5-0.5 0.5s-0.5-0.224-0.5-0.5v-2.022c-2.803-0.253-5-2.609-5-5.478 0-0.276 0.224-0.5 0.5-0.5z"></path>
</svg>
