<svg version="1.1" xmlns="http://www.w3.org/2000/svg" width="20" height="20" viewBox="0 0 20 20">
<title>moon</title>
<path d="M15.489 13.498c-1.928 3.339-6.197 4.483-9.536 2.555-0.757-0.437-1.412-1.001-1.946-1.663 2.831-1.087 4.558-2.421 5.593-4.396 1.048-2 1.336-4.161 0.759-6.909 0.898 0.118 1.77 0.412 2.575 0.877 3.339 1.928 4.483 6.197 2.555 9.537zM5.453 16.919c3.817 2.204 8.699 0.896 10.903-2.921s0.896-8.699-2.921-10.903c-1.101-0.636-2.314-0.992-3.557-1.059-0.401-0.022-0.709 0.35-0.613 0.74 0.688 2.819 0.434 4.876-0.55 6.754-0.934 1.784-2.545 3.031-5.551 4.107-0.37 0.132-0.514 0.579-0.291 0.903 0.667 0.968 1.542 1.78 2.581 2.38z"></path>
</svg>
