<svg version="1.1" xmlns="http://www.w3.org/2000/svg" width="20" height="20" viewBox="0 0 20 20">
<title>music</title>
<path d="M14.702 2.226c0.644-0.201 1.298 0.28 1.298 0.954v10.32c0 1.381-1.119 2.5-2.5 2.5s-2.5-1.119-2.5-2.5c0-1.381 1.119-2.5 2.5-2.5 0.563 0 1.082 0.186 1.5 0.5v-5.32l-7 2.188v7.132c0 1.381-1.119 2.5-2.5 2.5s-2.5-1.119-2.5-2.5c0-1.381 1.119-2.5 2.5-2.5 0.563 0 1.082 0.186 1.5 0.5v-8.132c0-0.437 0.284-0.824 0.702-0.954l7-2.188zM8 7.32l7-2.188v-1.952l-7 2.188v1.952zM5.5 14c-0.828 0-1.5 0.672-1.5 1.5s0.672 1.5 1.5 1.5c0.828 0 1.5-0.672 1.5-1.5s-0.672-1.5-1.5-1.5zM12 13.5c0 0.828 0.672 1.5 1.5 1.5s1.5-0.672 1.5-1.5c0-0.828-0.672-1.5-1.5-1.5s-1.5 0.672-1.5 1.5z"></path>
</svg>
