<svg version="1.1" xmlns="http://www.w3.org/2000/svg" width="20" height="20" viewBox="0 0 20 20">
<title>notequal</title>
<path d="M2.854 2.146c-0.195-0.195-0.512-0.195-0.707 0s-0.195 0.512 0 0.707l4.146 4.146h-2.793c-0.276 0-0.5 0.224-0.5 0.5s0.224 0.5 0.5 0.5h3.793l4 4h-7.793c-0.276 0-0.5 0.224-0.5 0.5s0.224 0.5 0.5 0.5h8.793l4.853 4.854c0.195 0.195 0.512 0.195 0.707 0s0.195-0.512 0-0.707l-15-15zM14.121 12l1 1h1.379c0.276 0 0.5-0.224 0.5-0.5s-0.224-0.5-0.5-0.5h-2.379zM9.121 7l1 1h6.379c0.276 0 0.5-0.224 0.5-0.5s-0.224-0.5-0.5-0.5h-7.379z"></path>
</svg>
