<!-- Generated by IcoMoon.io -->
<svg version="1.1" xmlns="http://www.w3.org/2000/svg" width="20" height="20" viewBox="0 0 20 20">
<path d="M3.691 4.304c-0.803 0.888-1.411 1.937-1.78 3.079-0.062 0.193-0.002 0.404 0.152 0.535l1.555 1.32c0.041 0.035 0.080 0.074 0.115 0.115 0.357 0.421 0.306 1.052-0.115 1.41l-1.555 1.32c-0.154 0.131-0.214 0.342-0.152 0.535 0.369 1.142 0.978 2.191 1.78 3.079 0.136 0.15 0.349 0.204 0.539 0.136l1.918-0.686c0.051-0.018 0.104-0.032 0.157-0.042 0.543-0.099 1.064 0.261 1.163 0.804l0.365 2.006c0.036 0.199 0.19 0.357 0.388 0.399 0.58 0.123 1.175 0.186 1.778 0.186s1.197-0.063 1.777-0.186c0.198-0.042 0.351-0.2 0.388-0.399l0.367-2.006c0.010-0.054 0.024-0.106 0.042-0.157 0.186-0.52 0.758-0.791 1.278-0.605l1.918 0.686c0.191 0.068 0.404 0.015 0.539-0.136 0.803-0.888 1.411-1.937 1.78-3.079 0.062-0.193 0.002-0.404-0.152-0.535l-1.555-1.32c-0.041-0.035-0.080-0.074-0.115-0.115-0.357-0.421-0.306-1.052 0.115-1.41l1.555-1.32c0.154-0.131 0.214-0.342 0.152-0.535-0.369-1.142-0.978-2.191-1.78-3.079-0.136-0.15-0.349-0.204-0.539-0.136l-1.918 0.686c-0.051 0.018-0.104 0.032-0.157 0.042-0.543 0.099-1.064-0.261-1.163-0.804l-0.367-2.006c-0.036-0.199-0.19-0.357-0.388-0.399-0.58-0.123-1.174-0.186-1.777-0.186s-1.198 0.063-1.778 0.186c-0.198 0.042-0.351 0.2-0.388 0.399l-0.365 2.006c-0.010 0.053-0.024 0.106-0.042 0.157-0.186 0.52-0.758 0.791-1.278 0.605l-1.918-0.686c-0.191-0.068-0.404-0.015-0.539 0.136zM4.265 8.475l-1.294-1.098c0.292-0.782 0.713-1.509 1.245-2.152l1.596 0.571c1.040 0.372 2.185-0.17 2.556-1.21 0.037-0.102 0.065-0.207 0.084-0.314l0.304-1.669c0.408-0.068 0.823-0.102 1.243-0.102s0.835 0.034 1.242 0.102l0.305 1.669c0.198 1.087 1.24 1.807 2.326 1.609 0.107-0.019 0.212-0.048 0.314-0.084l1.596-0.571c0.531 0.643 0.953 1.37 1.245 2.152l-1.294 1.098c-0.842 0.715-0.945 1.977-0.23 2.819 0.070 0.083 0.147 0.16 0.23 0.23l1.294 1.098c-0.292 0.782-0.713 1.509-1.245 2.152l-1.596-0.571c-1.040-0.372-2.185 0.17-2.557 1.21-0.037 0.102-0.065 0.207-0.084 0.314l-0.305 1.669c-0.408 0.068-0.823 0.102-1.242 0.102s-0.835-0.034-1.243-0.102l-0.304-1.668c-0.198-1.087-1.24-1.807-2.326-1.609-0.107 0.019-0.212 0.048-0.314 0.084l-1.596 0.571c-0.531-0.643-0.953-1.37-1.245-2.152l1.294-1.098c0.842-0.715 0.945-1.977 0.23-2.819-0.070-0.083-0.147-0.16-0.23-0.23zM10 11.5c0.828 0 1.5-0.672 1.5-1.5s-0.672-1.5-1.5-1.5c-0.828 0-1.5 0.672-1.5 1.5s0.672 1.5 1.5 1.5z"></path>
</svg>
