<!-- Generated by IcoMoon.io -->
<svg version="1.1" xmlns="http://www.w3.org/2000/svg" width="20" height="20" viewBox="0 0 20 20">
<path d="M17.25 5h-2.364c-0.318-1.014-1.266-1.75-2.386-1.75s-2.067 0.736-2.386 1.75h-7.364c-0.414 0-0.75 0.336-0.75 0.75s0.336 0.75 0.75 0.75h7.364c0.318 1.014 1.266 1.75 2.386 1.75s2.067-0.736 2.386-1.75h2.364c0.414 0 0.75-0.336 0.75-0.75s-0.336-0.75-0.75-0.75zM2.75 13.5c-0.414 0-0.75 0.336-0.75 0.75s0.336 0.75 0.75 0.75h2.364c0.319 1.014 1.266 1.75 2.386 1.75s2.067-0.736 2.386-1.75h7.364c0.414 0 0.75-0.336 0.75-0.75s-0.336-0.75-0.75-0.75h-7.364c-0.319-1.014-1.266-1.75-2.386-1.75s-2.067 0.736-2.386 1.75h-2.364z"></path>
</svg>
