<!-- Generated by IcoMoon.io -->
<svg version="1.1" xmlns="http://www.w3.org/2000/svg" width="20" height="20" viewBox="0 0 20 20">
<path d="M14.95 5c-0.232-1.141-1.241-2-2.45-2s-2.218 0.859-2.45 2h-7.55c-0.276 0-0.5 0.224-0.5 0.5s0.224 0.5 0.5 0.5h7.55c0.232 1.141 1.241 2 2.45 2 1.23 0 2.252-0.888 2.461-2.057-0.003 0.019-0.007 0.038-0.011 0.057h2.55c0.276 0 0.5-0.224 0.5-0.5s-0.224-0.5-0.5-0.5h-2.55zM12.5 7c-0.828 0-1.5-0.672-1.5-1.5s0.672-1.5 1.5-1.5c0.828 0 1.5 0.672 1.5 1.5s-0.672 1.5-1.5 1.5zM9.95 14c-0.232-1.141-1.241-2-2.45-2s-2.218 0.859-2.45 2h-2.55c-0.276 0-0.5 0.224-0.5 0.5s0.224 0.5 0.5 0.5h2.55c0.232 1.141 1.241 2 2.45 2s2.218-0.859 2.45-2h7.55c0.276 0 0.5-0.224 0.5-0.5s-0.224-0.5-0.5-0.5h-7.55zM7.5 16c-0.828 0-1.5-0.672-1.5-1.5s0.672-1.5 1.5-1.5c0.828 0 1.5 0.672 1.5 1.5s-0.672 1.5-1.5 1.5z"></path>
</svg>
