<svg version="1.1" xmlns="http://www.w3.org/2000/svg" width="20" height="20" viewBox="0 0 20 20">
<title>ordersbox</title>
<path d="M6.75 8c0.414 0 0.75-0.336 0.75-0.75s-0.336-0.75-0.75-0.75c-0.414 0-0.75 0.336-0.75 0.75s0.336 0.75 0.75 0.75zM7.5 10.25c0 0.414-0.336 0.75-0.75 0.75s-0.75-0.336-0.75-0.75c0-0.414 0.336-0.75 0.75-0.75s0.75 0.336 0.75 0.75zM6.75 14c0.414 0 0.75-0.336 0.75-0.75s-0.336-0.75-0.75-0.75c-0.414 0-0.75 0.336-0.75 0.75s0.336 0.75 0.75 0.75zM9 7.5c0-0.276 0.224-0.5 0.5-0.5h4c0.276 0 0.5 0.224 0.5 0.5s-0.224 0.5-0.5 0.5h-4c-0.276 0-0.5-0.224-0.5-0.5zM9.5 10c-0.276 0-0.5 0.224-0.5 0.5s0.224 0.5 0.5 0.5h4c0.276 0 0.5-0.224 0.5-0.5s-0.224-0.5-0.5-0.5h-4zM9 13.5c0-0.276 0.224-0.5 0.5-0.5h4c0.276 0 0.5 0.224 0.5 0.5s-0.224 0.5-0.5 0.5h-4c-0.276 0-0.5-0.224-0.5-0.5zM5.75 3h8.5c1.519 0 2.75 1.231 2.75 2.75v8.5c0 1.519-1.231 2.75-2.75 2.75h-8.5c-1.519 0-2.75-1.231-2.75-2.75v-8.5c0-1.519 1.231-2.75 2.75-2.75zM4 5.75v8.5c0 0.967 0.783 1.75 1.75 1.75h8.5c0.967 0 1.75-0.783 1.75-1.75v-8.5c0-0.967-0.783-1.75-1.75-1.75h-8.5c-0.967 0-1.75 0.783-1.75 1.75z"></path>
</svg>
