<!-- Generated by IcoMoon.io -->
<svg version="1.1" xmlns="http://www.w3.org/2000/svg" width="20" height="20" viewBox="0 0 20 20">
<path d="M11.499 2.481c-0.834-0.334-1.765-0.334-2.6 0l-5.757 2.303c-0.569 0.228-0.943 0.779-0.943 1.393v7.646c0 0.613 0.373 1.165 0.943 1.393l5.757 2.303c0.834 0.334 1.765 0.334 2.6 0l5.757-2.303c0.569-0.228 0.943-0.779 0.943-1.393v-7.646c0-0.613-0.373-1.165-0.943-1.393l-5.757-2.303zM9.271 3.409c0.596-0.238 1.261-0.238 1.857 0l5.225 2.090-2.279 0.911-6.154-2.462 1.35-0.54zM6.574 4.488l6.154 2.462-2.529 1.011-6.154-2.462 2.529-1.011zM10.699 8.838l6.5-2.6v7.584c0 0.204-0.124 0.388-0.314 0.464l-5.757 2.303c-0.14 0.056-0.283 0.099-0.428 0.128v-7.88zM9.699 8.838v7.88c-0.145-0.030-0.289-0.073-0.429-0.128l-5.757-2.303c-0.19-0.076-0.314-0.26-0.314-0.464v-7.584l6.5 2.6z"></path>
</svg>
