<svg version="1.1" xmlns="http://www.w3.org/2000/svg" width="20" height="20" viewBox="0 0 20 20">
<title>palette</title>
<path d="M9.75 6.5c0.414 0 0.75-0.336 0.75-0.75s-0.336-0.75-0.75-0.75c-0.414 0-0.75 0.336-0.75 0.75s0.336 0.75 0.75 0.75zM12.75 7.5c0.414 0 0.75-0.336 0.75-0.75s-0.336-0.75-0.75-0.75c-0.414 0-0.75 0.336-0.75 0.75s0.336 0.75 0.75 0.75zM15.25 9c0 0.414-0.336 0.75-0.75 0.75s-0.75-0.336-0.75-0.75c0-0.414 0.336-0.75 0.75-0.75s0.75 0.336 0.75 0.75zM14.5 12.75c0.414 0 0.75-0.336 0.75-0.75s-0.336-0.75-0.75-0.75c-0.414 0-0.75 0.336-0.75 0.75s0.336 0.75 0.75 0.75zM13.25 14c0 0.414-0.336 0.75-0.75 0.75s-0.75-0.336-0.75-0.75c0-0.414 0.336-0.75 0.75-0.75s0.75 0.336 0.75 0.75zM13.697 2.992c-2.755-1.415-5.554-1.279-7.927 0.175-1.211 0.742-2.517 2.303-3.254 3.893-0.371 0.799-0.617 1.646-0.614 2.434 0.003 0.801 0.267 1.566 0.938 2.112 0.61 0.497 1.141 0.748 1.655 0.773 0.518 0.026 0.922-0.184 1.239-0.371 0.070-0.041 0.135-0.081 0.197-0.118 0.242-0.147 0.441-0.268 0.689-0.347 0.281-0.089 0.638-0.122 1.155 0.036 0.191 0.058 0.306 0.145 0.386 0.244 0.086 0.106 0.154 0.254 0.206 0.466 0.052 0.213 0.080 0.464 0.101 0.761 0.008 0.11 0.015 0.236 0.023 0.368 0.011 0.192 0.023 0.397 0.038 0.586 0.055 0.671 0.17 1.436 0.574 2.132 0.414 0.713 1.101 1.303 2.203 1.68 1.602 0.548 3.066 0.103 4.206-0.799 1.127-0.892 1.957-2.241 2.372-3.59 1.315-4.273-0.211-8.393-4.187-10.436zM6.292 4.019c2.064-1.265 4.492-1.399 6.948-0.138 3.507 1.802 4.873 5.4 3.688 9.252-0.366 1.189-1.095 2.354-2.037 3.1-0.929 0.736-2.043 1.053-3.261 0.637-0.904-0.309-1.384-0.757-1.662-1.236-0.288-0.497-0.39-1.078-0.442-1.711-0.015-0.189-0.025-0.36-0.035-0.534-0.007-0.132-0.015-0.266-0.025-0.41-0.022-0.309-0.054-0.628-0.127-0.925-0.072-0.299-0.191-0.6-0.4-0.859-0.215-0.266-0.504-0.459-0.871-0.571-0.702-0.214-1.265-0.186-1.75-0.033-0.375 0.119-0.698 0.317-0.947 0.469-0.052 0.032-0.1 0.062-0.146 0.088-0.285 0.168-0.473 0.244-0.681 0.233-0.212-0.011-0.543-0.117-1.073-0.549-0.386-0.314-0.567-0.763-0.57-1.341-0.002-0.59 0.186-1.287 0.521-2.009 0.674-1.453 1.861-2.843 2.869-3.461z"></path>
</svg>
