<svg version="1.1" xmlns="http://www.w3.org/2000/svg" width="20" height="20" viewBox="0 0 20 20">
<title>panelleft</title>
<path d="M13.179 10.5l-0.998 0.874c-0.208 0.182-0.229 0.498-0.047 0.706s0.498 0.229 0.706 0.047l2-1.75c0.108-0.095 0.171-0.232 0.171-0.376s-0.062-0.281-0.171-0.376l-2-1.75c-0.208-0.182-0.524-0.161-0.706 0.047s-0.161 0.524 0.047 0.706l0.999 0.874h-3.679c-0.276 0-0.5 0.224-0.5 0.5s0.224 0.5 0.5 0.5h3.679zM2 14c0 1.105 0.895 2 2 2h12c1.105 0 2-0.895 2-2v-8c0-1.105-0.895-2-2-2h-12c-1.105 0-2 0.895-2 2v8zM4 15c-0.552 0-1-0.448-1-1v-8c0-0.552 0.448-1 1-1h3v10h-3zM8 15v-10h8c0.552 0 1 0.448 1 1v8c0 0.552-0.448 1-1 1h-8z"></path>
</svg>
