<svg version="1.1" xmlns="http://www.w3.org/2000/svg" width="20" height="20" viewBox="0 0 20 20">
<title>pastfree</title>
<path d="M7.085 3c0.206-0.583 0.762-1 1.415-1h3c0.653 0 1.209 0.417 1.415 1h1.585c0.828 0 1.5 0.672 1.5 1.5v5.837l-0.63-1.439c-0.087-0.199-0.214-0.373-0.37-0.513v-3.886c0-0.276-0.224-0.5-0.5-0.5h-1.585c-0.206 0.583-0.762 1-1.415 1h-3c-0.653 0-1.209-0.417-1.415-1h-1.585c-0.276 0-0.5 0.224-0.5 0.5v12c0 0.276 0.224 0.5 0.5 0.5h3.586c-0.118 0.334-0.111 0.686 0 1h-3.586c-0.828 0-1.5-0.672-1.5-1.5v-12c0-0.828 0.672-1.5 1.5-1.5h1.585zM8.5 3c-0.276 0-0.5 0.224-0.5 0.5s0.224 0.5 0.5 0.5h3c0.276 0 0.5-0.224 0.5-0.5s-0.224-0.5-0.5-0.5h-3zM14.454 9.299c-0.080-0.182-0.26-0.299-0.458-0.299s-0.378 0.118-0.458 0.3l-3.496 8c-0.111 0.253 0.005 0.548 0.258 0.658s0.548-0.005 0.658-0.258l1.18-2.7h3.721l1.183 2.701c0.111 0.253 0.406 0.368 0.659 0.257s0.368-0.406 0.257-0.659l-3.504-8zM15.421 14h-2.846l1.421-3.253 1.425 3.253z"></path>
</svg>
