<svg version="1.1" xmlns="http://www.w3.org/2000/svg" width="20" height="20" viewBox="0 0 20 20">
<title>past</title>
<path d="M4.5 4h1.585c0.206 0.583 0.762 1 1.415 1h3c0.653 0 1.209-0.417 1.415-1h1.585c0.276 0 0.5 0.224 0.5 0.5v1c0 0.276 0.224 0.5 0.5 0.5s0.5-0.224 0.5-0.5v-1c0-0.828-0.672-1.5-1.5-1.5h-1.585c-0.206-0.583-0.762-1-1.415-1h-3c-0.653 0-1.209 0.417-1.415 1h-1.585c-0.828 0-1.5 0.672-1.5 1.5v12c0 0.828 0.672 1.5 1.5 1.5h3c0.276 0 0.5-0.224 0.5-0.5s-0.224-0.5-0.5-0.5h-3c-0.276 0-0.5-0.224-0.5-0.5v-12c0-0.276 0.224-0.5 0.5-0.5zM7.5 4c-0.276 0-0.5-0.224-0.5-0.5s0.224-0.5 0.5-0.5h3c0.276 0 0.5 0.224 0.5 0.5s-0.224 0.5-0.5 0.5h-3zM10.5 7c-0.828 0-1.5 0.672-1.5 1.5v8c0 0.828 0.672 1.5 1.5 1.5h5c0.828 0 1.5-0.672 1.5-1.5v-8c0-0.828-0.672-1.5-1.5-1.5h-5zM10 8.5c0-0.276 0.224-0.5 0.5-0.5h5c0.276 0 0.5 0.224 0.5 0.5v8c0 0.276-0.224 0.5-0.5 0.5h-5c-0.276 0-0.5-0.224-0.5-0.5v-8z"></path>
</svg>
