<svg version="1.1" xmlns="http://www.w3.org/2000/svg" width="20" height="20" viewBox="0 0 20 20">
<title>photooutline</title>
<path d="M9.999 6c-2.209 0-4 1.791-4 4s1.791 4 4 4c2.209 0 4-1.791 4-4s-1.791-4-4-4zM6.999 10c0-1.657 1.343-3 3-3s3 1.343 3 3c0 1.657-1.343 3-3 3s-3-1.343-3-3zM8.123 2c-0.567 0-1.086 0.32-1.34 0.826l-0.589 1.173h-1.689c-1.381 0-2.5 1.119-2.5 2.5v8.001c0 1.381 1.119 2.5 2.5 2.5h11c1.381 0 2.5-1.119 2.5-2.5v-8.001c0-1.381-1.119-2.5-2.5-2.5h-1.69l-0.585-1.17c-0.254-0.508-0.773-0.829-1.342-0.829h-3.764zM7.676 3.275c0.085-0.169 0.258-0.275 0.447-0.275h3.764c0.189 0 0.363 0.107 0.447 0.276l0.723 1.447c0.085 0.169 0.258 0.276 0.447 0.276h1.999c0.828 0 1.5 0.672 1.5 1.5v8.001c0 0.828-0.672 1.5-1.5 1.5h-11c-0.828 0-1.5-0.672-1.5-1.5v-8.001c0-0.828 0.672-1.5 1.5-1.5h1.998c0.189 0 0.362-0.107 0.447-0.275l0.728-1.448z"></path>
</svg>
