<svg version="1.1" xmlns="http://www.w3.org/2000/svg" width="20" height="20" viewBox="0 0 20 20">
<title>photo</title>
<path d="M15.225 1.353l-0.348-1.071c-0.029-0.083-0.083-0.154-0.155-0.205s-0.157-0.078-0.244-0.078c-0.088 0-0.173 0.027-0.244 0.078s-0.126 0.122-0.155 0.205l-0.348 1.071c-0.106 0.323-0.286 0.618-0.524 0.86s-0.531 0.426-0.853 0.537l-1.072 0.348c-0.083 0.029-0.154 0.083-0.205 0.155s-0.078 0.157-0.078 0.244c0 0.088 0.027 0.173 0.078 0.244s0.122 0.125 0.205 0.155l1.072 0.348c0.275 0.092 0.529 0.236 0.747 0.426 0.041 0.035 0.080 0.072 0.118 0.11 0.201 0.201 0.36 0.439 0.47 0.699 0.023 0.055 0.044 0.111 0.063 0.168l0.348 1.071c0.026 0.074 0.073 0.14 0.134 0.189 0.007 0.005 0.014 0.011 0.021 0.016 0.072 0.051 0.157 0.078 0.244 0.078s0.173-0.027 0.244-0.078c0.072-0.051 0.126-0.122 0.155-0.205l0.348-1.071c0.108-0.326 0.291-0.621 0.534-0.864s0.539-0.425 0.865-0.533l1.072-0.348c0.083-0.029 0.154-0.083 0.205-0.155s0.078-0.157 0.078-0.244c0-0.088-0.027-0.173-0.078-0.244s-0.122-0.125-0.205-0.155l-0.022-0.005-1.072-0.348c-0.326-0.108-0.622-0.291-0.865-0.533s-0.426-0.538-0.534-0.864zM19.017 7.965l0.766 0.249 0.015 0.004c0.059 0.021 0.11 0.059 0.146 0.11s0.056 0.112 0.056 0.175-0.019 0.123-0.056 0.175c-0.036 0.051-0.087 0.090-0.146 0.11l-0.766 0.249c-0.233 0.077-0.444 0.208-0.618 0.381s-0.304 0.385-0.381 0.617l-0.249 0.765c-0.021 0.059-0.059 0.11-0.111 0.146s-0.112 0.056-0.175 0.056c-0.063 0-0.124-0.019-0.175-0.056s-0.090-0.087-0.111-0.146l-0.249-0.765c-0.077-0.233-0.207-0.445-0.381-0.619s-0.385-0.305-0.618-0.383l-0.765-0.249c-0.059-0.021-0.11-0.059-0.146-0.11s-0.056-0.112-0.056-0.175 0.019-0.123 0.056-0.175c0.036-0.051 0.087-0.090 0.146-0.11l0.765-0.249c0.23-0.079 0.438-0.211 0.609-0.384s0.299-0.383 0.375-0.614l0.249-0.765c0.021-0.059 0.059-0.11 0.111-0.146s0.112-0.056 0.175-0.056c0.063 0 0.124 0.019 0.175 0.056s0.090 0.087 0.11 0.146l0.249 0.765c0.077 0.233 0.208 0.444 0.381 0.617s0.385 0.304 0.618 0.381zM8.123 2h3.283l-0.407 0.15c-0.289 0.092-0.539 0.279-0.71 0.53-0.076 0.099-0.138 0.206-0.185 0.32h-1.981c-0.189 0-0.362 0.107-0.447 0.275l-0.728 1.448c-0.085 0.169-0.258 0.275-0.447 0.275h-1.998c-0.828 0-1.5 0.672-1.5 1.5v8.001c0 0.828 0.672 1.5 1.5 1.5h11c0.828 0 1.5-0.672 1.5-1.5v-2.598c0.156 0.065 0.324 0.099 0.495 0.099 0.174 0 0.346-0.035 0.505-0.103v2.602c0 1.381-1.119 2.5-2.5 2.5h-11c-1.381 0-2.5-1.119-2.5-2.5v-8.001c0-1.381 1.119-2.5 2.5-2.5h1.689l0.589-1.173c0.255-0.507 0.773-0.826 1.34-0.826zM9.999 6c-2.209 0-4 1.791-4 4s1.791 4 4 4c2.209 0 4-1.791 4-4s-1.791-4-4-4zM6.999 10c0-1.657 1.343-3 3-3s3 1.343 3 3c0 1.657-1.343 3-3 3s-3-1.343-3-3z"></path>
</svg>
