<svg version="1.1" xmlns="http://www.w3.org/2000/svg" width="20" height="20" viewBox="0 0 20 20">
<title>pptx</title>
<path d="M4 4c0-1.105 0.895-2 2-2h4.586c0.398 0 0.779 0.158 1.061 0.439l3.914 3.914c0.281 0.281 0.439 0.663 0.439 1.061v1.086c0 0.276-0.224 0.5-0.5 0.5s-0.5-0.224-0.5-0.5v-0.5h-3.5c-0.828 0-1.5-0.672-1.5-1.5v-3.5h-4c-0.552 0-1 0.448-1 1v4.5c0 0.276-0.224 0.5-0.5 0.5s-0.5-0.224-0.5-0.5v-4.5zM11.5 7h3.293l-3.793-3.793v3.293c0 0.276 0.224 0.5 0.5 0.5z"></path>
<path d="M15.5 15c-0.276 0-0.5 0.224-0.5 0.5v0.5c0 0.552-0.448 1-1 1h-8c-0.552 0-1-0.448-1-1v-0.5c0-0.276-0.224-0.5-0.5-0.5s-0.5 0.224-0.5 0.5v0.5c0 1.105 0.895 2 2 2h8c1.105 0 2-0.895 2-2v-0.5c0-0.276-0.224-0.5-0.5-0.5z"></path>
<path d="M12.5 10.5c0 0.276-0.224 0.5-0.5 0.5h-1v1.25c0 0.414 0.086 0.75 0.5 0.75h0.5c0.276 0 0.5 0.224 0.5 0.5s-0.224 0.5-0.5 0.5h-0.75c-0.69 0-1.25-0.56-1.25-1.25v-1.75h-0.5c-0.276 0-0.5-0.224-0.5-0.5s0.224-0.5 0.5-0.5h0.5v-1c0-0.276 0.224-0.5 0.5-0.5s0.5 0.224 0.5 0.5v1h1c0.276 0 0.5 0.224 0.5 0.5z"></path>
<path d="M2 13.636c0 0.276-0.224 0.5-0.5 0.5s-0.5-0.224-0.5-0.5v-2.636c0-0.552 0.448-1 1-1h1.136c0.753 0 1.364 0.611 1.364 1.364s-0.611 1.364-1.364 1.364h-1.136v0.909zM2.455 10.909c-0.251 0-0.455 0.203-0.455 0.454s0.204 0.455 0.455 0.455h0.591c0.251 0 0.455-0.203 0.455-0.455s-0.204-0.454-0.455-0.454h-0.591z"></path>
<path d="M5.5 14.136c0.276 0 0.5-0.224 0.5-0.5v-0.909h1.136c0.753 0 1.364-0.611 1.364-1.364s-0.611-1.364-1.364-1.364h-1.136c-0.552 0-1 0.448-1 1v2.636c0 0.276 0.224 0.5 0.5 0.5zM6 11.364c0-0.251 0.204-0.454 0.455-0.454h0.591c0.251 0 0.455 0.203 0.455 0.454s-0.204 0.455-0.455 0.455h-0.591c-0.251 0-0.455-0.203-0.455-0.455z"></path>
<path d="M15.5 12.703l1.186 1.205c0.298 0.303 0.814 0.092 0.814-0.333 0-0.125-0.049-0.244-0.137-0.333l-1.197-1.216 1.197-1.216c0.087-0.089 0.137-0.209 0.137-0.333 0-0.425-0.516-0.636-0.814-0.333l-1.186 1.205-1.186-1.205c-0.298-0.303-0.814-0.092-0.814 0.333 0 0.125 0.049 0.244 0.137 0.333l1.197 1.216-1.197 1.216c-0.088 0.089-0.137 0.209-0.137 0.333 0 0.425 0.516 0.636 0.814 0.333l1.186-1.205z"></path>
</svg>
