<svg version="1.1" xmlns="http://www.w3.org/2000/svg" width="20" height="20" viewBox="0 0 20 20">
<title>print</title>
<path d="M15 4.5c0-0.828-0.672-1.5-1.5-1.5h-7c-0.828 0-1.5 0.672-1.5 1.5v0.5h-0.5c-1.381 0-2.5 1.119-2.5 2.5v5c0 0.828 0.672 1.5 1.5 1.5h1.5v1.5c0 0.828 0.672 1.5 1.5 1.5h7c0.828 0 1.5-0.672 1.5-1.5v-1.5h1.5c0.828 0 1.5-0.672 1.5-1.5v-5c0-1.381-1.119-2.5-2.5-2.5h-0.5v-0.5zM14 5h-8v-0.5c0-0.276 0.224-0.5 0.5-0.5h7c0.276 0 0.5 0.224 0.5 0.5v0.5zM15 13v-1.5c0-0.828-0.672-1.5-1.5-1.5h-7c-0.828 0-1.5 0.672-1.5 1.5v1.5h-1.5c-0.276 0-0.5-0.224-0.5-0.5v-5c0-0.828 0.672-1.5 1.5-1.5h11c0.828 0 1.5 0.672 1.5 1.5v5c0 0.276-0.224 0.5-0.5 0.5h-1.5zM13.5 11c0.276 0 0.5 0.224 0.5 0.5v4c0 0.276-0.224 0.5-0.5 0.5h-7c-0.276 0-0.5-0.224-0.5-0.5v-4c0-0.276 0.224-0.5 0.5-0.5h7z"></path>
</svg>
