<svg version="1.1" xmlns="http://www.w3.org/2000/svg" width="20" height="20" viewBox="0 0 20 20">
<title>ratingoutline</title>
<path d="M8.879 0.691c0.458-0.922 1.783-0.922 2.242 0l2.413 4.852 5.395 0.778c1.025 0.148 1.434 1.398 0.693 2.116l-3.904 3.777 0.922 5.333c0.175 1.013-0.897 1.786-1.813 1.308l-4.825-2.518-4.825 2.518c-0.917 0.478-1.989-0.294-1.813-1.308l0.922-5.333-3.904-3.777c-0.742-0.718-0.332-1.968 0.693-2.116l5.395-0.778 2.413-4.852zM10 1.24l-2.413 4.852c-0.182 0.366-0.534 0.62-0.941 0.679l-5.395 0.778 3.904 3.777c0.295 0.285 0.429 0.696 0.359 1.098l-0.922 5.333 4.825-2.518c0.364-0.19 0.799-0.19 1.163 0l4.826 2.518-0.922-5.333c-0.069-0.402 0.065-0.813 0.359-1.098l3.904-3.777-5.395-0.778c-0.407-0.059-0.759-0.312-0.941-0.679l-2.413-4.852z"></path>
</svg>
