<svg version="1.1" xmlns="http://www.w3.org/2000/svg" width="20" height="20" viewBox="0 0 20 20">
<title>redo</title>
<path d="M15 2.5c0-0.276 0.224-0.5 0.5-0.5s0.5 0.224 0.5 0.5v4.9c0 0.331-0.269 0.6-0.6 0.6h-4.9c-0.276 0-0.5-0.224-0.5-0.5s0.224-0.5 0.5-0.5h3.594l-3.473-3.019c-1.667-1.449-4.194-1.273-5.643 0.395s-1.273 4.194 0.395 5.643l8.172 7.104c0.208 0.181 0.231 0.497 0.049 0.705s-0.497 0.231-0.705 0.049l-8.172-7.104c-2.084-1.812-2.305-4.97-0.493-7.054s4.97-2.305 7.054-0.493l3.723 3.236v-3.963z"></path>
</svg>
