<svg version="1.1" xmlns="http://www.w3.org/2000/svg" width="20" height="20" viewBox="0 0 20 20">
<title>removetable</title>
<path d="M17 5.5c0-1.381-1.119-2.5-2.5-2.5h-9c-1.381 0-2.5 1.119-2.5 2.5v9c0 1.381 1.119 2.5 2.5 2.5h4.1c-0.162-0.317-0.294-0.651-0.393-1h-1.207v-3h1.207c0.099-0.349 0.231-0.683 0.393-1h-1.6v-4h4v1.6c0.317-0.162 0.651-0.294 1-0.393v-1.207h3v1.207c0.349 0.099 0.683 0.231 1 0.393v-4.1zM4 14.5v-1.5h3v3h-1.5l-0.144-0.007c-0.761-0.073-1.356-0.713-1.356-1.493zM12 4v3h-4v-3h4zM13 4h1.5l0.144 0.007c0.761 0.073 1.356 0.713 1.356 1.493v1.5h-3v-3zM7 4v3h-3v-1.5l0.007-0.144c0.073-0.761 0.713-1.356 1.493-1.356h1.5zM7 8v4h-3v-4h3zM19 14.5c0 2.485-2.015 4.5-4.5 4.5s-4.5-2.015-4.5-4.5c0-2.485 2.015-4.5 4.5-4.5s4.5 2.015 4.5 4.5zM15.207 14.5l1.147-1.146c0.195-0.195 0.195-0.512 0-0.707s-0.512-0.195-0.707 0l-1.146 1.147-1.146-1.147c-0.195-0.195-0.512-0.195-0.707 0s-0.195 0.512 0 0.707l1.147 1.146-1.147 1.146c-0.195 0.195-0.195 0.512 0 0.707s0.512 0.195 0.707 0l1.146-1.147 1.146 1.147c0.195 0.195 0.512 0.195 0.707 0s0.195-0.512 0-0.707l-1.147-1.146z"></path>
</svg>
