<svg version="1.1" xmlns="http://www.w3.org/2000/svg" width="20" height="20" viewBox="0 0 20 20">
<title>rename</title>
<path d="M17.854 2.854c0.195-0.195 0.195-0.512 0-0.707s-0.512-0.195-0.707 0l-8 8-0.146 0.854 0.854-0.146 8-8zM5.5 3c-1.381 0-2.5 1.119-2.5 2.5v9c0 1.381 1.119 2.5 2.5 2.5h9c1.381 0 2.5-1.119 2.5-2.5v-6c0-0.276-0.224-0.5-0.5-0.5s-0.5 0.224-0.5 0.5v6c0 0.828-0.672 1.5-1.5 1.5h-9c-0.828 0-1.5-0.672-1.5-1.5v-9c0-0.828 0.672-1.5 1.5-1.5h6.005c0.276 0 0.5-0.224 0.5-0.5s-0.224-0.5-0.5-0.5h-6.005z"></path>
</svg>
