<svg version="1.1" xmlns="http://www.w3.org/2000/svg" width="20" height="20" viewBox="0 0 20 20">
<title>repeat</title>
<path d="M16.5 6.671c0.116 0 0.223 0.040 0.308 0.106l0.067 0.063 0.016 0.020c0.693 0.858 1.108 1.95 1.108 3.139 0 2.689-2.122 4.882-4.783 4.995l-0.217 0.005h-6c-0.102 0-0.203-0.003-0.303-0.009l1.657 1.655c0.174 0.174 0.193 0.443 0.058 0.638l-0.058 0.069c-0.174 0.173-0.443 0.193-0.638 0.058l-0.069-0.058-2.5-2.5c-0.174-0.174-0.193-0.443-0.058-0.638l0.058-0.069 2.5-2.5c0.195-0.195 0.512-0.195 0.707 0 0.174 0.174 0.193 0.443 0.058 0.638l-0.058 0.069-1.637 1.637 0.141 0.007 0.142 0.003h6c2.209 0 4-1.791 4-4 0-0.953-0.334-1.829-0.891-2.516-0.068-0.085-0.109-0.194-0.109-0.312 0-0.276 0.224-0.5 0.5-0.5zM11.646 2.646c0.174-0.174 0.443-0.193 0.638-0.058l0.069 0.058 2.5 2.5 0.058 0.069c0.118 0.171 0.118 0.398 0 0.569l-0.058 0.069-2.5 2.5-0.069 0.058c-0.171 0.118-0.398 0.118-0.569 0l-0.069-0.058-0.058-0.069c-0.118-0.171-0.118-0.398 0-0.569l0.058-0.069 1.637-1.637-0.141-0.007-0.142-0.002h-6c-2.209 0-4 1.791-4 4 0 0.956 0.336 1.834 0.895 2.522 0.064 0.084 0.105 0.192 0.105 0.309 0 0.276-0.224 0.5-0.5 0.5-0.167 0-0.315-0.082-0.406-0.208-0.684-0.856-1.094-1.942-1.094-3.124 0-2.689 2.122-4.882 4.783-4.995l0.217-0.005h6c0.102 0 0.203 0.003 0.303 0.009l-1.657-1.655-0.058-0.069c-0.135-0.195-0.116-0.464 0.058-0.638z"></path>
</svg>
