<svg version="1.1" xmlns="http://www.w3.org/2000/svg" width="20" height="20" viewBox="0 0 20 20">
<title>rowfield</title>
<path d="M3 14.5c0-0.276 0.224-0.5 0.5-0.5s0.5 0.224 0.5 0.5c0 0.78 0.595 1.42 1.356 1.493l0.144 0.007h1.5v-1.5c0-0.276 0.224-0.5 0.5-0.5s0.5 0.224 0.5 0.5v1.5h4v-1.5c0-0.276 0.224-0.5 0.5-0.5s0.5 0.224 0.5 0.5v1.5h1.5c0.78 0 1.42-0.595 1.493-1.356l0.007-0.144c0-0.276 0.224-0.5 0.5-0.5s0.5 0.224 0.5 0.5c0 1.381-1.119 2.5-2.5 2.5h-9c-1.381 0-2.5-1.119-2.5-2.5z"></path>
<path d="M17 5.5c0 0.276-0.224 0.5-0.5 0.5s-0.5-0.224-0.5-0.5c0-0.78-0.595-1.42-1.356-1.493l-0.144-0.007h-1.5v1.5c0 0.276-0.224 0.5-0.5 0.5s-0.5-0.224-0.5-0.5v-1.5h-4v1.5c0 0.276-0.224 0.5-0.5 0.5s-0.5-0.224-0.5-0.5v-1.5h-1.5c-0.78 0-1.42 0.595-1.493 1.356l-0.007 0.144c0 0.276-0.224 0.5-0.5 0.5s-0.5-0.224-0.5-0.5c0-1.381 1.119-2.5 2.5-2.5h9c1.381 0 2.5 1.119 2.5 2.5z"></path>
<path d="M4 13h12c0.552 0 1-0.448 1-1v-4c0-0.552-0.448-1-1-1h-12c-0.552 0-1 0.448-1 1v4c0 0.552 0.448 1 1 1zM8 12v-4h4v4h-4zM13 8h3v4h-3v-4zM4 12v-4h3v4h-3z"></path>
</svg>
