<svg version="1.1" xmlns="http://www.w3.org/2000/svg" width="20" height="20" viewBox="0 0 20 20">
<title>save</title>
<path d="M3 5c0-1.105 0.895-2 2-2h8.379c0.53 0 1.039 0.211 1.414 0.586l1.621 1.621c0.375 0.375 0.586 0.884 0.586 1.414v8.379c0 1.105-0.895 2-2 2h-10c-1.105 0-2-0.895-2-2v-10zM5 4c-0.552 0-1 0.448-1 1v10c0 0.552 0.448 1 1 1v-4.5c0-0.828 0.672-1.5 1.5-1.5h7c0.828 0 1.5 0.672 1.5 1.5v4.5c0.552 0 1-0.448 1-1v-8.379c0-0.265-0.105-0.52-0.293-0.707l-1.621-1.621c-0.188-0.188-0.442-0.293-0.707-0.293h-0.379v2.5c0 0.828-0.672 1.5-1.5 1.5h-4c-0.828 0-1.5-0.672-1.5-1.5v-2.5h-1zM7 4v2.5c0 0.276 0.224 0.5 0.5 0.5h4c0.276 0 0.5-0.224 0.5-0.5v-2.5h-5zM14 16v-4.5c0-0.276-0.224-0.5-0.5-0.5h-7c-0.276 0-0.5 0.224-0.5 0.5v4.5h8z"></path>
</svg>
