<!-- Generated by IcoMoon.io -->
<svg version="1.1" xmlns="http://www.w3.org/2000/svg" width="20" height="20" viewBox="0 0 20 20">
<path d="M2.184 2.112c0.152-0.124 0.364-0.148 0.54-0.060l15 7.5c0.169 0.085 0.276 0.258 0.276 0.447s-0.107 0.362-0.276 0.447l-15 7.5c-0.176 0.088-0.387 0.065-0.54-0.060s-0.218-0.326-0.167-0.516l1.966-7.371-1.966-7.371c-0.051-0.19 0.015-0.392 0.167-0.516zM4.884 10.5l-1.615 6.056 13.113-6.556-13.113-6.556 1.615 6.056h6.616c0.276 0 0.5 0.224 0.5 0.5s-0.224 0.5-0.5 0.5h-6.616z"></path>
</svg>
