<svg version="1.1" xmlns="http://www.w3.org/2000/svg" width="20" height="20" viewBox="0 0 20 20">
<path d="M10.5 8.5c0.422 0 0.84 0.004 1.268 0.158 0.412 0.148 0.871 0.452 1.316 1.119 0.153 0.23 0.464 0.292 0.693 0.139s0.292-0.464 0.139-0.693c-0.555-0.832-1.18-1.279-1.809-1.506-0.603-0.217-1.177-0.217-1.587-0.217h-0.020c-0.276 0-0.5 0.224-0.5 0.5s0.224 0.5 0.5 0.5zM8 5v0.79c-2.891 0.861-5 3.539-5 6.71 0 0.276 0.224 0.5 0.5 0.5h13c0.276 0 0.5-0.224 0.5-0.5 0-3.171-2.108-5.85-5-6.71v-0.79c0-1.105-0.895-2-2-2s-2 0.895-2 2zM10 4c0.552 0 1 0.448 1 1v0.571c-0.327-0.047-0.661-0.071-1-0.071s-0.673 0.024-1 0.071v-0.571c0-0.552 0.448-1 1-1zM10 6.5c3.145 0 5.725 2.42 5.979 5.5h-11.959c0.254-3.080 2.834-5.5 5.979-5.5zM3.5 14c-0.828 0-1.5 0.672-1.5 1.5s0.672 1.5 1.5 1.5h13c0.828 0 1.5-0.672 1.5-1.5s-0.672-1.5-1.5-1.5h-13zM3 15.5c0-0.276 0.224-0.5 0.5-0.5h13c0.276 0 0.5 0.224 0.5 0.5s-0.224 0.5-0.5 0.5h-13c-0.276 0-0.5-0.224-0.5-0.5z"></path>
</svg>
