<svg version="1.1" xmlns="http://www.w3.org/2000/svg" width="20" height="20" viewBox="0 0 20 20">
<title>share</title>
<path d="M12 5.502c0-1.382 1.12-2.502 2.502-2.502s2.502 1.12 2.502 2.502-1.12 2.502-2.502 2.502c-0.8 0-1.512-0.376-1.97-0.96l-4.616 2.308c0.055 0.207 0.085 0.424 0.085 0.649s-0.030 0.442-0.085 0.648l4.618 2.309c0.458-0.583 1.169-0.957 1.967-0.957 1.381 0 2.5 1.119 2.5 2.5s-1.119 2.5-2.5 2.5c-1.381 0-2.5-1.119-2.5-2.5 0-0.224 0.029-0.442 0.085-0.649l-4.617-2.309c-0.458 0.583-1.169 0.957-1.967 0.957-1.381 0-2.5-1.119-2.5-2.5s1.119-2.5 2.5-2.5c0.798 0 1.51 0.374 1.967 0.957l4.617-2.309c-0.055-0.206-0.084-0.423-0.084-0.647zM14.502 4c-0.829 0-1.502 0.672-1.502 1.502s0.672 1.502 1.502 1.502c0.829 0 1.502-0.672 1.502-1.502s-0.672-1.502-1.502-1.502zM14.5 13c-0.828 0-1.5 0.672-1.5 1.5s0.672 1.5 1.5 1.5c0.828 0 1.5-0.672 1.5-1.5s-0.672-1.5-1.5-1.5zM4 10c0 0.828 0.672 1.5 1.5 1.5s1.5-0.672 1.5-1.5c0-0.828-0.672-1.5-1.5-1.5s-1.5 0.672-1.5 1.5z"></path>
</svg>
