<svg version="1.1" xmlns="http://www.w3.org/2000/svg" width="20" height="20" viewBox="0 0 20 20">
<path d="M7.398 12.808c0.176 0.124 0.387 0.191 0.602 0.191s0.426-0.067 0.602-0.193c0.178-0.131 0.312-0.311 0.387-0.518l0.447-1.373c0.114-0.344 0.307-0.657 0.564-0.914s0.569-0.45 0.913-0.565l1.391-0.451c0.152-0.054 0.289-0.143 0.401-0.259s0.195-0.257 0.244-0.411c0.048-0.154 0.061-0.317 0.036-0.476s-0.087-0.311-0.18-0.442c-0.134-0.186-0.325-0.323-0.544-0.391l-1.375-0.447c-0.344-0.114-0.658-0.307-0.915-0.564s-0.451-0.569-0.565-0.913l-0.452-1.388c-0.072-0.202-0.206-0.377-0.382-0.5-0.133-0.094-0.285-0.155-0.446-0.18s-0.325-0.011-0.479 0.039c-0.154 0.050-0.295 0.136-0.411 0.25s-0.203 0.254-0.255 0.407l-0.457 1.4c-0.115 0.335-0.304 0.639-0.553 0.89s-0.553 0.442-0.887 0.559l-1.391 0.448c-0.152 0.054-0.289 0.143-0.401 0.259s-0.195 0.257-0.244 0.411c-0.048 0.154-0.061 0.317-0.036 0.476s0.087 0.311 0.18 0.442c0.128 0.179 0.309 0.314 0.517 0.386l1.374 0.445c0.44 0.146 0.827 0.421 1.11 0.788 0.162 0.211 0.288 0.447 0.371 0.7l0.452 1.391c0.072 0.203 0.205 0.379 0.382 0.503zM13.535 16.851c0.136 0.096 0.298 0.148 0.465 0.148 0.165 0 0.326-0.051 0.461-0.146 0.139-0.098 0.244-0.238 0.3-0.4l0.248-0.762c0.053-0.158 0.142-0.303 0.26-0.421s0.261-0.207 0.42-0.259l0.772-0.252c0.158-0.054 0.294-0.157 0.391-0.293 0.073-0.103 0.121-0.222 0.14-0.347s0.007-0.253-0.033-0.373c-0.040-0.12-0.109-0.228-0.199-0.317s-0.201-0.154-0.321-0.192l-0.764-0.249c-0.158-0.053-0.302-0.141-0.42-0.259s-0.207-0.261-0.26-0.419l-0.252-0.773c-0.054-0.158-0.156-0.294-0.293-0.39-0.102-0.073-0.22-0.121-0.344-0.14s-0.251-0.009-0.37 0.030c-0.119 0.039-0.228 0.105-0.317 0.194s-0.156 0.197-0.195 0.316l-0.247 0.762c-0.052 0.158-0.14 0.301-0.256 0.42-0.115 0.117-0.255 0.205-0.409 0.259l-0.773 0.252c-0.159 0.054-0.297 0.157-0.395 0.293s-0.149 0.301-0.149 0.469 0.055 0.331 0.153 0.467c0.099 0.136 0.238 0.237 0.398 0.289l0.763 0.247c0.159 0.053 0.303 0.143 0.422 0.261s0.207 0.263 0.258 0.422l0.253 0.774c0.055 0.157 0.157 0.292 0.292 0.388z"></path>
</svg>
