<!-- Generated by IcoMoon.io -->
<svg version="1.1" xmlns="http://www.w3.org/2000/svg" width="20" height="20" viewBox="0 0 20 20">
<path d="M7 3.5c0-0.276-0.224-0.5-0.5-0.5h-1.5c-1.105 0-2 0.895-2 2v10c0 1.105 0.895 2 2 2h1.5c0.276 0 0.5-0.224 0.5-0.5v-13zM4 5c0-0.552 0.448-1 1-1h1v12h-1c-0.552 0-1-0.448-1-1v-10z"></path>
<path d="M8.5 3c-0.276 0-0.5 0.224-0.5 0.5v13c0 0.276 0.224 0.5 0.5 0.5h3c0.276 0 0.5-0.224 0.5-0.5v-13c0-0.276-0.224-0.5-0.5-0.5h-3z"></path>
<path d="M13.5 3c-0.276 0-0.5 0.224-0.5 0.5v13c0 0.276 0.224 0.5 0.5 0.5h1.5c1.105 0 2-0.895 2-2v-10c0-1.105-0.895-2-2-2h-1.5zM15 4c0.552 0 1 0.448 1 1v10c0 0.552-0.448 1-1 1h-1v-12h1z"></path>
</svg>
