<svg version="1.1" xmlns="http://www.w3.org/2000/svg" width="20" height="20" viewBox="0 0 20 20">
<title>strike</title>
<path d="M6.528 4.026c0.9-0.623 2.126-1.026 3.472-1.026 2.688 0 4.326 1.434 4.9 2.2 0.166 0.221 0.121 0.534-0.1 0.7s-0.534 0.121-0.7-0.1c-0.426-0.568-1.788-1.8-4.1-1.8-1.154 0-2.178 0.347-2.903 0.849-0.738 0.511-1.097 1.127-1.097 1.651 0 0.909 0.432 1.484 1.167 1.933 0.361 0.221 0.784 0.403 1.248 0.567h-2.185c-0.732-0.57-1.23-1.363-1.23-2.5 0-0.976 0.641-1.859 1.528-2.474zM16.5 10c0.276 0 0.5 0.224 0.5 0.5s-0.224 0.5-0.5 0.5h-2.73c0.732 0.57 1.23 1.363 1.23 2.5 0 1.228-0.721 2.12-1.677 2.681-0.946 0.555-2.164 0.819-3.323 0.819-1.126 0-2.078-0.128-2.893-0.478-0.827-0.356-1.477-0.925-2.023-1.744-0.153-0.23-0.091-0.54 0.139-0.693s0.54-0.091 0.693 0.139c0.454 0.681 0.96 1.111 1.586 1.381 0.638 0.274 1.436 0.397 2.498 0.397 1.028 0 2.060-0.237 2.817-0.681 0.748-0.439 1.183-1.047 1.183-1.819 0-0.909-0.432-1.484-1.167-1.933-0.362-0.221-0.784-0.403-1.248-0.567h-8.085c-0.276 0-0.5-0.224-0.5-0.5s0.224-0.5 0.5-0.5h13z"></path>
</svg>
