<svg version="1.1" xmlns="http://www.w3.org/2000/svg" width="20" height="20" viewBox="0 0 20 20">
<title>submenu</title>
<path d="M4 3h2c0.552 0 1 0.448 1 1v2c0 0.552-0.448 1-1 1h-2c-0.552 0-1-0.448-1-1v-2c0-0.552 0.448-1 1-1zM6 4h-2v2h2v-2z"></path>
<path d="M4 8h2c0.552 0 1 0.448 1 1v2c0 0.552-0.448 1-1 1h-2c-0.552 0-1-0.448-1-1v-2c0-0.552 0.448-1 1-1zM6 9h-2v2h2v-2z"></path>
<path d="M3 14v2c0 0.552 0.448 1 1 1h2c0.552 0 1-0.448 1-1v-2c0-0.552-0.448-1-1-1h-2c-0.552 0-1 0.448-1 1zM4 14h2v2h-2v-2z"></path>
<path d="M9 3h2c0.552 0 1 0.448 1 1v2c0 0.552-0.448 1-1 1h-2c-0.552 0-1-0.448-1-1v-2c0-0.552 0.448-1 1-1zM11 4h-2v2h2v-2z"></path>
<path d="M8 9v2c0 0.552 0.448 1 1 1h2c0.552 0 1-0.448 1-1v-2c0-0.552-0.448-1-1-1h-2c-0.552 0-1 0.448-1 1zM9 9h2v2h-2v-2z"></path>
<path d="M9 13h2c0.552 0 1 0.448 1 1v2c0 0.552-0.448 1-1 1h-2c-0.552 0-1-0.448-1-1v-2c0-0.552 0.448-1 1-1zM11 14h-2v2h2v-2z"></path>
<path d="M13 4v2c0 0.552 0.448 1 1 1h2c0.552 0 1-0.448 1-1v-2c0-0.552-0.448-1-1-1h-2c-0.552 0-1 0.448-1 1zM14 4h2v2h-2v-2z"></path>
<path d="M14 8h2c0.552 0 1 0.448 1 1v2c0 0.552-0.448 1-1 1h-2c-0.552 0-1-0.448-1-1v-2c0-0.552 0.448-1 1-1zM16 9h-2v2h2v-2z"></path>
<path d="M13 14v2c0 0.552 0.448 1 1 1h2c0.552 0 1-0.448 1-1v-2c0-0.552-0.448-1-1-1h-2c-0.552 0-1 0.448-1 1zM14 14h2v2h-2v-2z"></path>
</svg>
