<svg version="1.1" xmlns="http://www.w3.org/2000/svg" width="20" height="20" viewBox="0 0 20 20">
<title>sun</title>
<path d="M9.998 2c0.276 0 0.5 0.224 0.5 0.5v1c0 0.276-0.224 0.5-0.5 0.5s-0.5-0.224-0.5-0.5v-1c0-0.276 0.224-0.5 0.5-0.5zM9.998 14c2.209 0 4-1.791 4-4s-1.791-4-4-4-4 1.791-4 4c0 2.209 1.791 4 4 4zM9.998 13c-1.657 0-3-1.343-3-3s1.343-3 3-3 3 1.343 3 3c0 1.657-1.343 3-3 3zM17.498 10.5c0.276 0 0.5-0.224 0.5-0.5s-0.224-0.5-0.5-0.5h-1c-0.276 0-0.5 0.224-0.5 0.5s0.224 0.5 0.5 0.5h1zM9.998 16c0.276 0 0.5 0.224 0.5 0.5v1c0 0.276-0.224 0.5-0.5 0.5s-0.5-0.224-0.5-0.5v-1c0-0.276 0.224-0.5 0.5-0.5zM3.498 10.5c0.276 0 0.5-0.224 0.5-0.5s-0.224-0.5-0.5-0.5h-1.037c-0.276 0-0.5 0.224-0.5 0.5s0.224 0.5 0.5 0.5h1.037zM4.144 4.146c0.195-0.195 0.512-0.195 0.707 0l1 1c0.195 0.195 0.195 0.512 0 0.707s-0.512 0.195-0.707 0l-1-1c-0.195-0.195-0.195-0.512 0-0.707zM4.852 15.854c-0.195 0.195-0.512 0.195-0.707 0s-0.195-0.512 0-0.707l1-1c0.195-0.195 0.512-0.195 0.707 0s0.195 0.512 0 0.707l-1 1zM15.852 4.146c-0.195-0.195-0.512-0.195-0.707 0l-1 1c-0.195 0.195-0.195 0.512 0 0.707s0.512 0.195 0.707 0l1-1c0.195-0.195 0.195-0.512 0-0.707zM15.144 15.854c0.195 0.195 0.512 0.195 0.707 0s0.195-0.512 0-0.707l-1-1c-0.195-0.195-0.512-0.195-0.707 0s-0.195 0.512 0 0.707l1 1z"></path>
</svg>
