<svg version="1.1" xmlns="http://www.w3.org/2000/svg" width="20" height="20" viewBox="0 0 20 20">
<title>tablecellproperties</title>
<path d="M17 5.5c0-1.381-1.119-2.5-2.5-2.5h-9c-1.381 0-2.5 1.119-2.5 2.5v9c0 1.381 1.119 2.5 2.5 2.5h3.869l0.244-0.977 0.006-0.023h-1.62v-1.5c0-0.276-0.224-0.5-0.5-0.5s-0.5 0.224-0.5 0.5v1.5h-1.5l-0.144-0.007c-0.761-0.073-1.356-0.713-1.356-1.493v-1.5h1.5c0.276 0 0.5-0.224 0.5-0.5s-0.224-0.5-0.5-0.5h-1.5v-4h1.5c0.276 0 0.5-0.224 0.5-0.5s-0.224-0.5-0.5-0.5h-1.5v-1.5l0.007-0.144c0.073-0.761 0.713-1.356 1.493-1.356h1.5v1.5c0 0.276 0.224 0.5 0.5 0.5s0.5-0.224 0.5-0.5v-1.5h4v1.5c0 0.276 0.224 0.5 0.5 0.5s0.5-0.224 0.5-0.5v-1.5h1.5l0.144 0.007c0.761 0.073 1.356 0.713 1.356 1.493v1.5h-1.5c-0.276 0-0.5 0.224-0.5 0.5s0.224 0.5 0.5 0.5h1.5v1.238c0.319-0.139 0.658-0.217 1-0.234v-3.504zM11.96 13l1.040-1.040v-3.96c0-0.552-0.448-1-1-1h-4c-0.552 0-1 0.448-1 1v4c0 0.552 0.448 1 1 1h3.96zM8 8h4v4h-4v-4zM15.809 10.548l-4.829 4.829c-0.282 0.282-0.481 0.634-0.578 1.021l-0.374 1.498c-0.163 0.651 0.427 1.241 1.079 1.079l1.498-0.374c0.386-0.097 0.739-0.296 1.021-0.578l4.829-4.829c0.73-0.73 0.73-1.914 0-2.645s-1.914-0.73-2.645 0z"></path>
</svg>
