<svg version="1.1" xmlns="http://www.w3.org/2000/svg" width="20" height="20" viewBox="0 0 20 20">
<title>tableaddrowafter</title>
<path d="M14.5 17c1.381 0 2.5-1.119 2.5-2.5v-5c0-0.276-0.224-0.5-0.5-0.5s-0.5 0.224-0.5 0.5v5c0 0.78-0.595 1.42-1.356 1.493l-0.144 0.007h-9c-0.78 0-1.42-0.595-1.493-1.356l-0.007-0.144v-5c0-0.276-0.224-0.5-0.5-0.5s-0.5 0.224-0.5 0.5v5c0 1.381 1.119 2.5 2.5 2.5h9zM3 5.5v2.5h14v-2.5c0-1.381-1.119-2.5-2.5-2.5h-9c-1.381 0-2.5 1.119-2.5 2.5zM4 7v-1.5c0-0.78 0.595-1.42 1.356-1.493l0.144-0.007h1.5v3h-3zM13 4h1.5c0.78 0 1.42 0.595 1.493 1.356l0.007 0.144v1.5h-3v-3zM9.5 14.5c0 0.276 0.224 0.5 0.5 0.5s0.5-0.224 0.5-0.5v-1.5h1.5c0.276 0 0.5-0.224 0.5-0.5s-0.224-0.5-0.5-0.5h-1.5v-1.5c0-0.276-0.224-0.5-0.5-0.5s-0.5 0.224-0.5 0.5v1.5h-1.5c-0.276 0-0.5 0.224-0.5 0.5s0.224 0.5 0.5 0.5h1.5v1.5zM8 4h4v3h-4v-3z"></path>
</svg>
