<svg version="1.1" xmlns="http://www.w3.org/2000/svg" width="20" height="20" viewBox="0 0 20 20">
<title>tableremovecolumn</title>
<path d="M10.5 2.5c0-0.276-0.224-0.5-0.5-0.5s-0.5 0.224-0.5 0.5v4.875c0.127 0.107 0.244 0.228 0.36 0.348 0.047 0.048 0.093 0.096 0.14 0.143 0.047-0.047 0.093-0.095 0.14-0.143 0.116-0.12 0.233-0.241 0.36-0.348v-4.875zM9.5 17.5v-4.888c0.127-0.107 0.244-0.227 0.36-0.348 0.047-0.048 0.093-0.096 0.14-0.143 0.047 0.047 0.093 0.095 0.14 0.143 0.116 0.12 0.233 0.241 0.36 0.348v4.888c0 0.276-0.224 0.5-0.5 0.5s-0.5-0.224-0.5-0.5zM11.854 8.146c-0.195-0.195-0.512-0.195-0.707 0l-1.146 1.146-1.146-1.146c-0.195-0.195-0.512-0.195-0.707 0s-0.195 0.512 0 0.707l1.146 1.146-1.146 1.146c-0.195 0.195-0.195 0.512 0 0.707s0.512 0.195 0.707 0l1.146-1.147 1.146 1.147c0.195 0.195 0.512 0.195 0.707 0s0.195-0.512 0-0.707l-1.147-1.146 1.147-1.146c0.195-0.195 0.195-0.512 0-0.707z"></path>
<path d="M14 3.5c0-0.276 0.224-0.5 0.5-0.5h1.5c1.105 0 2 0.895 2 2v10c0 1.105-0.895 2-2 2h-1.5c-0.276 0-0.5-0.224-0.5-0.5s0.224-0.5 0.5-0.5h1.5c0.552 0 1-0.448 1-1v-2h-2.5c-0.276 0-0.5-0.224-0.5-0.5s0.224-0.5 0.5-0.5h2.5v-4h-2.5c-0.276 0-0.5-0.224-0.5-0.5s0.224-0.5 0.5-0.5h2.5v-2c0-0.552-0.448-1-1-1h-1.5c-0.276 0-0.5-0.224-0.5-0.5zM6 3.5c0-0.276-0.224-0.5-0.5-0.5h-1.5c-1.105 0-2 0.895-2 2v10c0 1.105 0.895 2 2 2h1.5c0.276 0 0.5-0.224 0.5-0.5s-0.224-0.5-0.5-0.5h-1.5c-0.552 0-1-0.448-1-1v-2h2.5c0.276 0 0.5-0.224 0.5-0.5s-0.224-0.5-0.5-0.5h-2.5v-4h2.5c0.276 0 0.5-0.224 0.5-0.5s-0.224-0.5-0.5-0.5h-2.5v-2c0-0.552 0.448-1 1-1h1.5c0.276 0 0.5-0.224 0.5-0.5z"></path>
</svg>
