<svg version="1.1" xmlns="http://www.w3.org/2000/svg" width="20" height="20" viewBox="0 0 20 20">
<title>tableproperties</title>
<path d="M17 5.5c0-1.381-1.119-2.5-2.5-2.5h-9c-1.381 0-2.5 1.119-2.5 2.5v9c0 1.381 1.119 2.5 2.5 2.5h3.721l0.212-0.846c0.013-0.052 0.027-0.103 0.043-0.154h-1.475v-3h3.942l1.058-1.058v-3.942h3v1.231c0.319-0.137 0.659-0.213 1-0.229v-3.502zM4 14.5v-1.5h3v3h-1.5l-0.144-0.007c-0.761-0.073-1.356-0.713-1.356-1.493zM12 8v4h-4v-4h4zM12 7h-4v-3h4v3zM13 4h1.5l0.144 0.007c0.761 0.073 1.356 0.713 1.356 1.493v1.5h-3v-3zM4 7v-1.5l0.007-0.144c0.073-0.761 0.713-1.356 1.493-1.356h1.5v3h-3zM7 8v4h-3v-4h3zM15.808 10.547l-4.829 4.829c-0.282 0.282-0.481 0.634-0.578 1.021l-0.374 1.498c-0.163 0.651 0.427 1.241 1.078 1.078l1.498-0.374c0.386-0.097 0.739-0.296 1.021-0.578l4.829-4.829c0.73-0.73 0.73-1.914 0-2.644s-1.914-0.73-2.645 0zM14.65 16.996v0z"></path>
</svg>
