<svg version="1.1" xmlns="http://www.w3.org/2000/svg" width="20" height="20" viewBox="0 0 20 20">
<title>tableaddrowbefore</title>
<path d="M14.5 3c1.381 0 2.5 1.119 2.5 2.5v5c0 0.276-0.224 0.5-0.5 0.5s-0.5-0.224-0.5-0.5v-5c0-0.78-0.595-1.42-1.356-1.493l-0.144-0.007h-9c-0.78 0-1.42 0.595-1.493 1.356l-0.007 0.144v5c0 0.276-0.224 0.5-0.5 0.5s-0.5-0.224-0.5-0.5v-5c0-1.381 1.119-2.5 2.5-2.5h9zM3 14.5v-2.5h14v2.5c0 1.381-1.119 2.5-2.5 2.5h-9c-1.381 0-2.5-1.119-2.5-2.5zM4 13v1.5c0 0.78 0.595 1.42 1.356 1.493l0.144 0.007h1.5v-3h-3zM13 16h1.5c0.78 0 1.42-0.595 1.493-1.356l0.007-0.144v-1.5h-3v3zM9.5 5.5c0-0.276 0.224-0.5 0.5-0.5s0.5 0.224 0.5 0.5v1.5h1.5c0.276 0 0.5 0.224 0.5 0.5s-0.224 0.5-0.5 0.5h-1.5v1.5c0 0.276-0.224 0.5-0.5 0.5s-0.5-0.224-0.5-0.5v-1.5h-1.5c-0.276 0-0.5-0.224-0.5-0.5s0.224-0.5 0.5-0.5h1.5v-1.5zM8 16h4v-3h-4v3z"></path>
</svg>
