<svg version="1.1" xmlns="http://www.w3.org/2000/svg" width="20" height="20" viewBox="0 0 20 20">
<title>taskrejected</title>
<path d="M5.75 16h3.457c0.099 0.349 0.231 0.683 0.393 1h-3.85c-1.519 0-2.75-1.231-2.75-2.75v-8.5c0-1.519 1.231-2.75 2.75-2.75h8.5c1.519 0 2.75 1.231 2.75 2.75v3.85c-0.317-0.162-0.651-0.294-1-0.393v-3.457c0-0.967-0.783-1.75-1.75-1.75h-8.5c-0.967 0-1.75 0.783-1.75 1.75v8.5c0 0.967 0.783 1.75 1.75 1.75z"></path>
<path d="M7.5 7.25c0 0.414-0.336 0.75-0.75 0.75s-0.75-0.336-0.75-0.75c0-0.414 0.336-0.75 0.75-0.75s0.75 0.336 0.75 0.75z"></path>
<path d="M6.75 11c0.414 0 0.75-0.336 0.75-0.75s-0.336-0.75-0.75-0.75c-0.414 0-0.75 0.336-0.75 0.75s0.336 0.75 0.75 0.75z"></path>
<path d="M6.75 14c0.414 0 0.75-0.336 0.75-0.75s-0.336-0.75-0.75-0.75c-0.414 0-0.75 0.336-0.75 0.75s0.336 0.75 0.75 0.75z"></path>
<path d="M9.5 7c-0.276 0-0.5 0.224-0.5 0.5s0.224 0.5 0.5 0.5h4c0.276 0 0.5-0.224 0.5-0.5s-0.224-0.5-0.5-0.5h-4z"></path>
<path d="M9.5 10c-0.276 0-0.5 0.224-0.5 0.5s0.224 0.5 0.5 0.5h0.757c0.313-0.379 0.677-0.716 1.080-1h-1.837z"></path>
<path d="M19 14.5c0 2.485-2.015 4.5-4.5 4.5s-4.5-2.015-4.5-4.5c0-2.485 2.015-4.5 4.5-4.5s4.5 2.015 4.5 4.5zM12.732 12.732c-0.195 0.195-0.195 0.512 0 0.707l1.061 1.061-1.061 1.061c-0.195 0.195-0.195 0.512 0 0.707s0.512 0.195 0.707 0l1.061-1.061 1.061 1.061c0.195 0.195 0.512 0.195 0.707 0s0.195-0.512 0-0.707l-1.061-1.061 1.061-1.061c0.195-0.195 0.195-0.512 0-0.707s-0.512-0.195-0.707 0l-1.061 1.061-1.061-1.061c-0.195-0.195-0.512-0.195-0.707 0z"></path>
</svg>
