<svg version="1.1" xmlns="http://www.w3.org/2000/svg" width="20" height="20" viewBox="0 0 20 20">
<title>tips</title>
<path d="M10 2c3.314 0 6 2.597 6 5.8 0 1.677-0.745 3.216-2.204 4.594-0.064 0.060-0.113 0.133-0.145 0.212l-0.026 0.082-0.936 3.917c-0.184 0.771-0.866 1.33-1.671 1.39l-0.143 0.005h-1.749c-0.819 0-1.535-0.516-1.777-1.262l-0.038-0.134-0.935-3.916c-0.027-0.112-0.086-0.214-0.171-0.294-1.39-1.312-2.133-2.771-2.2-4.355l-0.005-0.239 0.003-0.191c0.104-3.115 2.749-5.609 5.997-5.609zM12.045 15h-4.090l0.319 1.334 0.026 0.096c0.097 0.299 0.376 0.521 0.712 0.563l0.114 0.007 1.712 0.001 0.106-0.003c0.342-0.025 0.628-0.237 0.741-0.526l0.031-0.099 0.328-1.373zM10 3c-2.632 0-4.788 1.953-4.985 4.414l-0.012 0.212-0.003 0.153 0.004 0.217c0.056 1.304 0.673 2.524 1.888 3.671 0.188 0.178 0.33 0.398 0.414 0.641l0.043 0.149 0.367 1.544h4.569l0.387-1.615 0.051-0.151c0.086-0.214 0.218-0.408 0.386-0.567 1.273-1.203 1.891-2.487 1.891-3.867 0-2.643-2.231-4.8-5-4.8z"></path>
</svg>
