<!-- Generated by IcoMoon.io -->
<svg version="1.1" xmlns="http://www.w3.org/2000/svg" width="20" height="20" viewBox="0 0 20 20">
<path d="M14.5 3c1.381 0 2.5 1.119 2.5 2.5v9c0 1.381-1.119 2.5-2.5 2.5h-3c0 0 0-0.325 0-0.5v-0.5h3c0.828 0 1.5-0.672 1.5-1.5v-7.5h-12v7.5c0 0.828 0.672 1.5 1.5 1.5h3v0.5c0 0.175 0 0.5 0 0.5h-3c-1.381 0-2.5-1.119-2.5-2.5v-9c0-1.381 1.119-2.5 2.5-2.5h9zM14.5 4h-9c-0.828 0-1.5 0.672-1.5 1.5v0.5h12v-0.5c0-0.828-0.672-1.5-1.5-1.5zM11 9c0 0.552-0.448 1-1 1s-1-0.448-1-1 0.448-1 1-1c0.552 0 1 0.448 1 1zM11.884 14.070c-0.177 0.212-0.492 0.241-0.704 0.064l-0.68-0.567v3.932c0 0.276-0.224 0.5-0.5 0.5s-0.5-0.224-0.5-0.5v-3.933l-0.68 0.567c-0.212 0.177-0.527 0.148-0.704-0.064s-0.148-0.527 0.064-0.704l1.5-1.25c0.185-0.154 0.455-0.154 0.64 0l1.5 1.25c0.212 0.177 0.241 0.492 0.064 0.704z"></path>
</svg>
