<svg version="1.1" xmlns="http://www.w3.org/2000/svg" width="20" height="20" viewBox="0 0 20 20">
<title>toolbox</title>
<path d="M6 4.5v1.5h-2c-1.105 0-2 0.895-2 2v7c0 1.105 0.895 2 2 2h12.003c1.104 0 2-0.895 2-2v-7c0-1.105-0.896-2-2-2h-2.003v-1.5c0-0.828-0.672-1.5-1.5-1.5h-5c-0.828 0-1.5 0.672-1.5 1.5zM7.5 4h5c0.276 0 0.5 0.224 0.5 0.5v1.5h-6v-1.5c0-0.276 0.224-0.5 0.5-0.5zM4 7h12.003c0.552 0 1 0.448 1 1v2h-3.003v-0.499c0-0.276-0.224-0.5-0.5-0.5s-0.5 0.224-0.5 0.5v0.499h-6v-0.499c0-0.276-0.224-0.5-0.5-0.5s-0.5 0.224-0.5 0.5v0.499h-3v-2c0-0.552 0.448-1 1-1zM13 11v0.5c0 0.276 0.224 0.5 0.5 0.5s0.5-0.224 0.5-0.5v-0.5h3.003v4c0 0.552-0.448 1-1 1h-12.003c-0.552 0-1-0.448-1-1v-4h3v0.5c0 0.276 0.224 0.5 0.5 0.5s0.5-0.224 0.5-0.5v-0.5h6z"></path>
</svg>
