<svg version="1.1" xmlns="http://www.w3.org/2000/svg" width="20" height="20" viewBox="0 0 20 20">
<title>trash</title>
<path d="M8.5 4h3c0-0.828-0.672-1.5-1.5-1.5s-1.5 0.672-1.5 1.5zM7.5 4c0-1.381 1.119-2.5 2.5-2.5s2.5 1.119 2.5 2.5h5c0.276 0 0.5 0.224 0.5 0.5s-0.224 0.5-0.5 0.5h-1.054l-1.193 10.344c-0.175 1.514-1.456 2.656-2.98 2.656h-4.544c-1.524 0-2.806-1.142-2.98-2.656l-1.194-10.344h-1.054c-0.276 0-0.5-0.224-0.5-0.5s0.224-0.5 0.5-0.5h5zM5.741 15.229c0.116 1.009 0.971 1.771 1.987 1.771h4.544c1.016 0 1.87-0.762 1.987-1.771l1.18-10.229h-10.878l1.18 10.229zM8.5 7.5c0.276 0 0.5 0.224 0.5 0.5v6c0 0.276-0.224 0.5-0.5 0.5s-0.5-0.224-0.5-0.5v-6c0-0.276 0.224-0.5 0.5-0.5zM12 8c0-0.276-0.224-0.5-0.5-0.5s-0.5 0.224-0.5 0.5v6c0 0.276 0.224 0.5 0.5 0.5s0.5-0.224 0.5-0.5v-6z"></path>
</svg>
