<svg version="1.1" xmlns="http://www.w3.org/2000/svg" width="20" height="20" viewBox="0 0 20 20">
<path d="M19 14.5c0 2.485-2.015 4.5-4.5 4.5s-4.5-2.015-4.5-4.5c0-2.485 2.015-4.5 4.5-4.5s4.5 2.015 4.5 4.5zM14.5 15.207l1.146 1.147c0.195 0.195 0.512 0.195 0.707 0s0.195-0.512 0-0.707l-1.147-1.146 1.147-1.146c0.195-0.195 0.195-0.512 0-0.707s-0.512-0.195-0.707 0l-1.146 1.147-1.146-1.147c-0.195-0.195-0.512-0.195-0.707 0s-0.195 0.512 0 0.707l1.147 1.146-1.147 1.146c-0.195 0.195-0.195 0.512 0 0.707s0.512 0.195 0.707 0l1.146-1.147z"></path>
<path d="M16 5c1.105 0 2 0.895 2 2v1.5c0 0.276-0.224 0.5-0.5 0.5s-0.5-0.224-0.5-0.5v-1.5c0-0.552-0.448-1-1-1h-11c-0.552 0-1 0.448-1 1v5c0 0.552 0.448 1 1 1h3.5c0.276 0 0.5 0.224 0.5 0.5s-0.224 0.5-0.5 0.5h-3.5c-1.105 0-2-0.895-2-2v-5c0-1.105 0.895-2 2-2h11z"></path>
<path d="M6.5 9c0.276 0 0.5 0.224 0.5 0.5s-0.224 0.5-0.5 0.5c-0.276 0-0.5-0.224-0.5-0.5s0.224-0.5 0.5-0.5z"></path>
<path d="M8.5 9h3c0.276 0 0.5 0.224 0.5 0.5s-0.224 0.5-0.5 0.5h-3c-0.276 0-0.5-0.224-0.5-0.5s0.224-0.5 0.5-0.5z"></path>
<path d="M14 3c0.818 0 1.544 0.393 2 1h-10.5c-1.933 0-3.5 1.567-3.5 3.5v4.5c-0.607-0.456-1-1.182-1-2v-2.5c0-2.485 2.015-4.5 4.5-4.5h8.5z"></path>
</svg>
