<svg version="1.1" xmlns="http://www.w3.org/2000/svg" width="20" height="20" viewBox="0 0 20 20">
<title>unpin</title>
<path d="M2.854 2.146c-0.195-0.195-0.512-0.195-0.707 0s-0.195 0.512 0 0.707l4.75 4.75-2.878 1.151c-0.667 0.267-0.843 1.128-0.336 1.636l2.61 2.61-3.293 3.293v0.707h0.707l3.293-3.293 2.61 2.61c0.508 0.508 1.369 0.331 1.636-0.336l1.151-2.878 4.749 4.75c0.195 0.195 0.512 0.195 0.707 0s0.195-0.512 0-0.707l-15-15zM11.628 12.335l-1.31 3.276-5.928-5.928 3.276-1.31 3.962 3.962zM12.957 10.713c-0.027 0.014-0.054 0.028-0.080 0.042l0.744 0.744 3.242-1.621c1.221-0.611 1.485-2.238 0.52-3.203l-4.057-4.057c-0.965-0.965-2.592-0.701-3.203 0.52l-1.621 3.242 0.744 0.744c0.014-0.027 0.028-0.053 0.042-0.080l1.729-3.458c0.305-0.611 1.119-0.743 1.602-0.26l4.057 4.057c0.483 0.483 0.351 1.296-0.26 1.602l-3.458 1.729z"></path>
</svg>
