<svg version="1.1" xmlns="http://www.w3.org/2000/svg" width="20" height="20" viewBox="0 0 20 20">
<title>upload</title>
<path d="M15 3.002c0.276 0 0.5-0.224 0.5-0.5 0-0.245-0.177-0.45-0.41-0.492l-0.090-0.008h-11c-0.276 0-0.5 0.224-0.5 0.5 0 0.245 0.177 0.45 0.41 0.492l0.090 0.008h11zM9.5 18c0.245 0 0.45-0.177 0.492-0.41l0.008-0.090-0.004-11.794 3.645 3.648c0.173 0.174 0.443 0.193 0.638 0.058l0.069-0.058c0.174-0.173 0.193-0.443 0.058-0.638l-0.058-0.069-4.492-4.5c-0.072-0.073-0.162-0.118-0.255-0.137l-0.106-0.010c-0.161 0-0.304 0.076-0.396 0.194l-4.457 4.452c-0.195 0.195-0.196 0.512-0.001 0.707 0.173 0.174 0.443 0.193 0.638 0.058l0.069-0.058 3.646-3.641 0.004 11.786c0 0.276 0.224 0.5 0.5 0.5z"></path>
</svg>
