<svg version="1.1" xmlns="http://www.w3.org/2000/svg" width="20" height="20" viewBox="0 0 20 20">
<title>user</title>
<path d="M10 2c-2.209 0-4 1.791-4 4s1.791 4 4 4c2.209 0 4-1.791 4-4s-1.791-4-4-4zM7 6c0-1.657 1.343-3 3-3s3 1.343 3 3-1.343 3-3 3c-1.657 0-3-1.343-3-3zM5.009 11c-1.106 0-2.009 0.887-2.009 2 0 1.691 0.833 2.966 2.135 3.797 1.282 0.817 3.010 1.203 4.865 1.203s3.583-0.386 4.865-1.203c1.302-0.83 2.135-2.105 2.135-3.797 0-1.104-0.896-2-2-2h-9.991zM4 13c0-0.553 0.448-1 1.009-1h9.991c0.552 0 1 0.448 1 1 0 1.309-0.622 2.284-1.673 2.953-1.071 0.683-2.592 1.047-4.327 1.047s-3.257-0.364-4.327-1.047c-1.050-0.67-1.673-1.645-1.673-2.953z"></path>
</svg>
