<svg version="1.1" xmlns="http://www.w3.org/2000/svg" width="20" height="20" viewBox="0 0 20 20">
<title>warning</title>
<path d="M9.565 3.262c0.189-0.349 0.69-0.349 0.879 0l6.501 12.001c0.181 0.333-0.061 0.738-0.44 0.738h-13.003c-0.379 0-0.62-0.405-0.44-0.738l6.502-12.001zM11.323 2.786c-0.567-1.047-2.070-1.047-2.638-0l-6.502 12.001c-0.542 0.999 0.182 2.214 1.319 2.214h13.003c1.137 0 1.86-1.215 1.319-2.214l-6.501-12.001zM10.503 7.5c0-0.276-0.224-0.5-0.5-0.5s-0.5 0.224-0.5 0.5v4c0 0.276 0.224 0.5 0.5 0.5s0.5-0.224 0.5-0.5v-4zM10.753 13.75c0 0.414-0.336 0.75-0.75 0.75s-0.75-0.336-0.75-0.75 0.336-0.75 0.75-0.75c0.414 0 0.75 0.336 0.75 0.75z"></path>
</svg>
