<svg version="1.1" xmlns="http://www.w3.org/2000/svg" width="20" height="20" viewBox="0 0 20 20">
<title>xlsx</title>
<path d="M6 2c-1.105 0-2 0.895-2 2v4.5c0 0.276 0.224 0.5 0.5 0.5s0.5-0.224 0.5-0.5v-4.5c0-0.552 0.448-1 1-1h4v3.5c0 0.828 0.672 1.5 1.5 1.5h3.5v0.5c0 0.276 0.224 0.5 0.5 0.5s0.5-0.224 0.5-0.5v-1.086c0-0.398-0.158-0.779-0.439-1.061l-3.914-3.914c-0.281-0.281-0.663-0.439-1.061-0.439h-4.586zM14.793 7h-3.293c-0.276 0-0.5-0.224-0.5-0.5v-3.293l3.793 3.793zM15 15.5c0-0.276 0.224-0.5 0.5-0.5s0.5 0.224 0.5 0.5v0.5c0 1.105-0.895 2-2 2h-8c-1.105 0-2-0.895-2-2v-0.5c0-0.276 0.224-0.5 0.5-0.5s0.5 0.224 0.5 0.5v0.5c0 0.552 0.448 1 1 1h8c0.552 0 1-0.448 1-1v-0.5zM7.5 8.5c-0.276 0-0.5 0.224-0.5 0.5v4.5c0 0.276 0.224 0.5 0.5 0.5s0.5-0.224 0.5-0.5v-4.5c0-0.276-0.224-0.5-0.5-0.5zM4 12.703l1.186 1.205c0.298 0.303 0.814 0.092 0.814-0.333 0-0.125-0.049-0.244-0.137-0.333l-1.197-1.216 1.197-1.216c0.087-0.089 0.137-0.209 0.137-0.333 0-0.425-0.516-0.636-0.814-0.333l-1.186 1.205-1.186-1.205c-0.298-0.303-0.814-0.092-0.814 0.333 0 0.125 0.049 0.244 0.137 0.333l1.197 1.216-1.197 1.216c-0.087 0.089-0.137 0.209-0.137 0.333 0 0.425 0.516 0.636 0.814 0.333l1.186-1.205zM15 12.703l1.186 1.205c0.298 0.303 0.814 0.092 0.814-0.333 0-0.125-0.049-0.244-0.137-0.333l-1.197-1.216 1.197-1.216c0.088-0.089 0.137-0.209 0.137-0.333 0-0.425-0.516-0.636-0.814-0.333l-1.186 1.205-1.186-1.205c-0.298-0.303-0.814-0.092-0.814 0.333 0 0.125 0.049 0.244 0.137 0.333l1.197 1.216-1.197 1.216c-0.088 0.089-0.137 0.209-0.137 0.333 0 0.425 0.516 0.636 0.814 0.333l1.186-1.205zM12 10.5c0 0.276-0.224 0.5-0.5 0.5h-1.219c-0.155 0-0.281 0.126-0.281 0.281 0 0.129 0.088 0.241 0.213 0.272l0.937 0.234c0.5 0.125 0.851 0.574 0.851 1.090 0 0.62-0.503 1.123-1.123 1.123h-1.377c-0.276 0-0.5-0.224-0.5-0.5s0.224-0.5 0.5-0.5h1.219c0.155 0 0.281-0.126 0.281-0.281 0-0.129-0.088-0.241-0.213-0.272l-0.937-0.234c-0.5-0.125-0.851-0.574-0.851-1.090 0-0.62 0.503-1.123 1.123-1.123h1.377c0.276 0 0.5 0.224 0.5 0.5z"></path>
</svg>
