<svg version="1.1" xmlns="http://www.w3.org/2000/svg" width="20" height="20" viewBox="0 0 20 20">
<path d="M11 8c0.276 0 0.5 0.224 0.5 0.5s-0.224 0.5-0.5 0.5h-5c-0.276 0-0.5-0.224-0.5-0.5s0.224-0.5 0.5-0.5h5zM14 8.5c0-3.038-2.462-5.5-5.5-5.5s-5.5 2.462-5.5 5.5c0 3.038 2.462 5.5 5.5 5.5 1.339 0 2.566-0.478 3.52-1.273l4.127 4.127 0.069 0.058c0.195 0.135 0.464 0.116 0.638-0.058 0.195-0.195 0.195-0.512 0-0.707l-4.127-4.127c0.795-0.954 1.273-2.181 1.273-3.52zM4 8.5c0-2.485 2.015-4.5 4.5-4.5s4.5 2.015 4.5 4.5c0 2.485-2.015 4.5-4.5 4.5s-4.5-2.015-4.5-4.5z"></path>
</svg>
