<!-- Generated by IcoMoon.io -->
<svg version="1.1" xmlns="http://www.w3.org/2000/svg" width="20" height="20" viewBox="0 0 20 20">
<path d="M14 8.5c0-3.038-2.462-5.5-5.5-5.5s-5.5 2.462-5.5 5.5c0 3.038 2.462 5.5 5.5 5.5 1.248 0 2.399-0.416 3.323-1.117l4.147 4.147 0.084 0.073c0.294 0.218 0.71 0.194 0.977-0.073 0.293-0.293 0.293-0.768 0-1.061l-4.147-4.147c0.701-0.923 1.117-2.074 1.117-3.323zM11 7.75c0.414 0 0.75 0.336 0.75 0.75s-0.336 0.75-0.75 0.75h-5c-0.414 0-0.75-0.336-0.75-0.75s0.336-0.75 0.75-0.75h5z"></path>
</svg>
