<svg version="1.1" xmlns="http://www.w3.org/2000/svg" width="20" height="20" viewBox="0 0 20 20">
<path d="M14 8.5c0 1.248-0.416 2.399-1.117 3.323l4.147 4.147c0.293 0.293 0.293 0.768 0 1.061-0.266 0.266-0.683 0.291-0.977 0.073l-0.084-0.073-4.147-4.147c-0.923 0.701-2.074 1.117-3.323 1.117-3.038 0-5.5-2.462-5.5-5.5s2.462-5.5 5.5-5.5c3.038 0 5.5 2.462 5.5 5.5zM8.5 5.25c-0.414 0-0.75 0.336-0.75 0.75v1.75h-1.75c-0.414 0-0.75 0.336-0.75 0.75s0.336 0.75 0.75 0.75h1.75v1.75c0 0.414 0.336 0.75 0.75 0.75s0.75-0.336 0.75-0.75v-1.75h1.75c0.414 0 0.75-0.336 0.75-0.75s-0.336-0.75-0.75-0.75h-1.75v-1.75c0-0.414-0.336-0.75-0.75-0.75z"></path>
</svg>
