<!-- Generated by IcoMoon.io -->
<svg version="1.1" xmlns="http://www.w3.org/2000/svg" width="18" height="18" viewBox="0 0 18 18">
<title>bmp</title>
<path d="M13 12v-1h2v-3h-3v4h1zM13 9h1v1h-1v-1z"></path>
<path d="M3 7v1h2v4h-3v-5h1zM3 11h1v-2h-1v2z"></path>
<path d="M6 8v4h1v-3h1v3h1v-3h1v3h1v-4h-5z"></path>
<path d="M5 6v-2h6.172l1.828 1.828v1.172h2v-1.586c0-0.265-0.105-0.52-0.293-0.707l-2.414-2.414c-0.188-0.188-0.442-0.293-0.707-0.293h-7.586c-0.552 0-1 0.448-1 1v3h2z"></path>
<path d="M13 14v-1h2v2c0 0.552-0.448 1-1 1h-10c-0.552 0-1-0.448-1-1v-2h2v1h8z"></path>
</svg>
