<!-- Generated by IcoMoon.io -->
<svg version="1.1" xmlns="http://www.w3.org/2000/svg" width="18" height="18" viewBox="0 0 18 18">
<title>color</title>
<path d="M17.81 5c-0.135-0.359-0.297-0.669-0.49-0.956l0.010 0.016c-0.21-0.311-0.424-0.582-0.655-0.836l0.005 0.006-0.68-0.75q-0.33-0.37-0.59-0.73c-0.173-0.213-0.312-0.462-0.405-0.733l-0.005-0.017c-0.083 0.287-0.213 0.538-0.384 0.755l0.004-0.005c-0.208 0.27-0.411 0.508-0.625 0.735l0.005-0.005-0.72 0.76c-0.243 0.251-0.469 0.522-0.675 0.808l-0.015 0.022c-0.193 0.271-0.364 0.581-0.499 0.909l-0.011 0.031c-0.127 0.311-0.2 0.673-0.2 1.051 0 0.010 0 0.020 0 0.030l-0-0.002c-0 0.006-0 0.013-0 0.020 0 0.41 0.092 0.799 0.257 1.147l-0.007-0.016c0.169 0.359 0.394 0.665 0.668 0.918l0.002 0.002c0.281 0.256 0.614 0.463 0.979 0.603l0.021 0.007c0.355 0.145 0.768 0.229 1.2 0.23h0c0.007 0 0.016 0 0.025 0 0.416 0 0.813-0.081 1.176-0.228l-0.021 0.008c0.365-0.148 0.677-0.354 0.941-0.611l-0.001 0.001c0.26-0.256 0.469-0.561 0.613-0.902l0.007-0.018c0.157-0.337 0.252-0.732 0.26-1.147l0-0.003c0-0.012 0-0.026 0-0.040 0-0.381-0.070-0.745-0.197-1.081l0.007 0.021zM15.73 5.43c-0.278 0.164-0.518 0.353-0.729 0.569l-0.001 0.001-0.46 0.4c-0.115 0.105-0.238 0.207-0.368 0.301l-0.012 0.009c-0.112 0.083-0.241 0.154-0.379 0.206l-0.011 0.004c-0.135 0.051-0.29 0.080-0.453 0.080-0.006 0-0.012-0-0.018-0l0.001 0c-0.055-0.101-0.097-0.219-0.119-0.343l-0.001-0.007c-0.004-0.054-0.006-0.117-0.006-0.18s0.002-0.126 0.006-0.188l-0 0.008c-0-0.004-0-0.009-0-0.013 0-0.257 0.044-0.503 0.125-0.732l-0.005 0.015c0.093-0.261 0.201-0.486 0.329-0.696l-0.009 0.016c0.152-0.253 0.3-0.469 0.461-0.674l-0.011 0.014c0.17-0.22 0.87-0.92 0.94-1s0.7 0.87 0.91 1.11c0.196 0.23 0.369 0.489 0.51 0.768l0.010 0.022c-0.269 0.097-0.5 0.208-0.718 0.34l0.018-0.010z"></path>
<path d="M7.2 2h-2.4l-4.8 14h2.090l1.25-4h5.32l1.25 4h2.090zM3.87 10s2-5.43 2-5.59h0.17c0 0.16 2 5.59 2 5.59z"></path>
</svg>
