<!-- Generated by IcoMoon.io -->
<svg version="1.1" xmlns="http://www.w3.org/2000/svg" width="18" height="18" viewBox="0 0 18 18">
<title>docx</title>
<path d="M5 4v2h-2v-3c0-0.552 0.448-1 1-1h7.586c0.265 0 0.52 0.105 0.707 0.293l2.414 2.414c0.188 0.188 0.293 0.442 0.293 0.707v1.586h-2v-1.172l-1.828-1.828h-6.172z"></path>
<path d="M5 13v1h8v-1h2v2c0 0.552-0.448 1-1 1h-10c-0.552 0-1-0.448-1-1v-2h2z"></path>
<path d="M4 7v1h-2v4h3v-5h-1zM4 11h-1v-2h1v2z"></path>
<path d="M6 8v4h3v-4h-3zM8 11h-1v-2h1v2z"></path>
<path d="M13 9v-1h-3v4h3v-1h-2v-2h2z"></path>
<path d="M17 9v-1h-1l-0.5 1-0.5-1h-1v1l1 0.65v0.7l-1 0.65v1h1l0.5-1 0.5 1h1v-1l-1-0.65v-0.7l1-0.65z"></path>
</svg>
