<!-- Generated by IcoMoon.io -->
<svg version="1.1" xmlns="http://www.w3.org/2000/svg" width="18" height="18" viewBox="0 0 18 18">
<title>doesnotcontain</title>
<path d="M3.214 13.32c0.618-0.021 1.131-0.447 1.284-1.019l0.002-0.010c0.007-0.052 0.012-0.112 0.012-0.174s-0.004-0.121-0.013-0.18l0.001 0.007v-0.373h-2.031c-0.121 0.185-0.193 0.412-0.193 0.656 0 0.014 0 0.027 0.001 0.040l-0-0.002c-0.005 0.035-0.007 0.075-0.007 0.116 0 0.518 0.42 0.939 0.939 0.939 0.003 0 0.005-0 0.008-0h-0z"></path>
<path d="M15.429 13.256c0 0 0 0 0 0 0.422 0 0.816-0.115 1.155-0.314l-0.011 0.006 0.154 0.836c-0.408 0.227-0.894 0.36-1.412 0.36-0.019 0-0.038-0-0.057-0.001l0.003 0c-1.403-0.022-2.533-1.165-2.533-2.571 0-0 0-0 0-0v0h-1.157c0 0.002 0 0.005 0 0.007 0 1.352-1.044 2.461-2.37 2.564l-0.009 0.001c-0.025 0.001-0.054 0.002-0.083 0.002-0.752 0-1.403-0.437-1.712-1.071l-0.005-0.011v0.951h-0.964c0-0.386 0-0.977 0-1.479v-0.964h-0.874v0.964c-0.001 0.045-0.001 0.098-0.001 0.151 0 0.464 0.033 0.92 0.097 1.366l-0.006-0.051h-0.9l-0.077-0.771c-0.357 0.553-0.971 0.913-1.668 0.913-0.015 0-0.029-0-0.044-0l0.002 0c-0.009 0-0.019 0-0.030 0-0.909 0-1.646-0.737-1.646-1.646 0-0.041 0.001-0.081 0.004-0.121l-0 0.005c0-0.001 0-0.002 0-0.003 0-0.29 0.057-0.568 0.16-0.821l-0.005 0.015h-1.44v3.857h18v-3.857h-4.32c0.061 0.927 0.815 1.659 1.746 1.684l0.002 0z"></path>
<path d="M0 3.857v6.429h3.073c0.413-0.107 0.887-0.168 1.376-0.168 0.041 0 0.081 0 0.121 0.001l-0.006-0v-0.129c0-0.501-0.129-1.414-1.286-1.414-0.513 0.008-0.988 0.165-1.385 0.43l0.009-0.006-0.231-0.733c0.496-0.346 1.111-0.553 1.775-0.553 0.009 0 0.018 0 0.027 0l-0.001-0c1.671 0 2.083 1.286 2.083 2.571v0h0.874v-4.706h0.964v3.613c0.339-0.633 0.996-1.056 1.751-1.056 0.031 0 0.061 0.001 0.092 0.002l-0.004-0c1.2 0.024 2.174 0.958 2.262 2.139l0 0.008h1.286c0.082-1.413 1.228-2.532 2.645-2.571l0.004-0c0.005-0 0.011-0 0.018-0 0.465 0 0.902 0.119 1.282 0.328l-0.014-0.007-0.206 0.964c-0.3-0.216-0.675-0.346-1.080-0.347h-0c-0.914 0.024-1.655 0.73-1.735 1.626l-0 0.007h4.307v-6.429z"></path>
<path d="M7.483 12.086c0.119 0.719 0.726 1.263 1.463 1.286l0.002 0c0.9 0 1.479-0.681 1.607-1.736h-3.111v0.141c0.006 0.113 0.020 0.219 0.041 0.322l-0.002-0.014z"></path>
<path d="M9 9c-0.748 0.024-1.364 0.565-1.503 1.276l-0.002 0.010h2.996c-0.135-0.719-0.746-1.26-1.489-1.286l-0.003-0z"></path>
</svg>
