<!-- Generated by IcoMoon.io -->
<svg version="1.1" xmlns="http://www.w3.org/2000/svg" width="18" height="18" viewBox="0 0 18 18">
<title>edit-header</title>
<path d="M15.142 12.436l0.926-0.926 1.414 1.414-0.926 0.926-1.414-1.414z"></path>
<path d="M14.44 13.15l-3.44 3.44v1.41h1.41l3.44-3.44-1.41-1.41z"></path>
<path d="M15 8v1.67l-1.33 1.33h-2.67v2.67l-1.33 1.33h-7.67v-7h-1v-7h15v7h-1zM14 8h-3v2h3v-2zM10 8h-3v2h3v-2zM6 8h-3v2h3v-2zM14 3h-3v3h3v-3zM7 3v3h3v-3h-3zM3 3v3h3v-3h-3zM3 11v3h3v-3h-3zM7 11v3h3v-3h-3z"></path>
</svg>
