<!-- Generated by IcoMoon.io -->
<svg version="1.1" xmlns="http://www.w3.org/2000/svg" width="18" height="18" viewBox="0 0 18 18">
<title>exportpdf</title>
<path d="M15 8v-6h-12v14h12v-3h-2v1h-8v-10h8v4h2z"></path>
<path d="M15 11c-0.070-0.38-0.38-0.88-1.52-1.1-0.378-0.079-0.813-0.124-1.258-0.124-0.078 0-0.156 0.001-0.233 0.004l0.011-0c-0.21-0.22-0.43-0.45-0.63-0.71s-0.39-0.51-0.56-0.77c0.111-0.45 0.179-0.969 0.19-1.503l0-0.007c0-1.19-0.42-1.6-0.77-1.74-0.069-0.030-0.15-0.048-0.234-0.048-0.162 0-0.308 0.064-0.416 0.168l0-0c-0.28 0.25-0.54 0.78-0.15 1.91 0.188 0.525 0.411 0.977 0.677 1.399l-0.017-0.029c-0.070 0.3-0.17 0.61-0.27 0.92s-0.23 0.61-0.36 0.89c-0.516 0.168-0.963 0.375-1.379 0.627l0.029-0.017c-1 0.61-1.13 1.19-1.060 1.57h-0.050c0.046 0.222 0.196 0.402 0.396 0.488l0.004 0.002c0.092 0.037 0.198 0.059 0.309 0.060h0.001c0.34 0 0.8-0.19 1.36-0.87 0.299-0.373 0.569-0.792 0.792-1.239l0.018-0.041c0.529-0.159 1.149-0.276 1.787-0.328l0.033-0.002c0.351 0.337 0.74 0.637 1.16 0.893l0.030 0.017c1 0.59 1.55 0.42 1.84 0.17 0.166-0.121 0.272-0.315 0.272-0.534 0-0.020-0.001-0.039-0.003-0.058l0 0.002zM8.73 11.64c-0.62 0.76-1.1 1-1.34 0.93 0-0.25 0.29-0.7 1.11-1.2 0.189-0.117 0.419-0.24 0.655-0.351l0.045-0.019c-0.163 0.23-0.321 0.428-0.488 0.619l0.008-0.009zM10 5.48c0.21 0.13 0.44 0.61 0.45 1.62 0.007 0.122 0.011 0.266 0.011 0.41s-0.004 0.288-0.011 0.43l0.001-0.020c-0.093-0.196-0.195-0.447-0.283-0.704l-0.017-0.056c-0.4-0.95-0.34-1.49-0.15-1.68zM10.73 10.16l-0.73 0.14q0.13-0.34 0.26-0.68t0.23-0.69l0.44 0.57 0.47 0.55zM13.2 10.81c-0.222-0.132-0.408-0.257-0.586-0.392l0.016 0.012c0.258 0.020 0.491 0.052 0.719 0.096l-0.039-0.006c0.82 0.16 1.18 0.43 1.26 0.64-0.22 0.1-0.67 0.070-1.4-0.36z"></path>
</svg>
