<!-- Generated by IcoMoon.io -->
<svg version="1.1" xmlns="http://www.w3.org/2000/svg" width="18" height="18" viewBox="0 0 18 18">
<title>exportselected</title>
<path d="M17.998 6l-3 3v-2h-1.998c-0.001 0-0.002 0-0.002 0-1.943 0-4.359 0.944-4.494 3.75-0.007 0.138-0.118 0.25-0.256 0.25s-0.25-0.113-0.248-0.251c0.071-3.663 1.708-5.749 4.998-5.749 0 0 0 0 0 0v0h2v-2l3 3z"></path>
<path d="M5 4v10h1l1.846 2h-3.846c-0.552 0-1-0.448-1-1v-12c0-0.552 0.448-1 1-1h7.586c0.121 0 0.24 0.022 0.351 0.064l-1.936 1.936h-5z"></path>
<path d="M18 11.6l-6 6.4-4-4.267 1.5-1.6 2.438 2.667 4.562-4.8 1.5 1.6z"></path>
</svg>
