<!-- Generated by IcoMoon.io -->
<svg version="1.1" xmlns="http://www.w3.org/2000/svg" width="18" height="18" viewBox="0 0 18 18">
<title>img_ar_lock</title>
<path d="M13 9v4c0 0.552-0.448 1-1 1h-6c-0.552 0-1-0.448-1-1v-4c0-0.552 0.448-1 1-1v-1.5c0-0.846 0.4-1.521 1.017-1.948 0.579-0.4 1.297-0.552 1.983-0.552s1.404 0.153 1.983 0.552c0.617 0.426 1.017 1.102 1.017 1.948v1.5c0.552 0 1 0.448 1 1zM8.037 6.319c-0.017 0.031-0.037 0.085-0.037 0.181v1.5h2v-1.5c0-0.096-0.020-0.15-0.037-0.181-0.018-0.033-0.051-0.075-0.117-0.121-0.145-0.1-0.426-0.198-0.846-0.198s-0.701 0.098-0.846 0.198c-0.066 0.046-0.099 0.088-0.117 0.121z"></path>
<path d="M3 0v1h12v-1h3v3h-1v12h1v3h-3v-1h-12v1h-3v-3h1v-12h-1v-3h3zM16 3h-1v-1h-12v1h-1v12h1v1h12v-1h1v-12z"></path>
</svg>
