<!-- Generated by IcoMoon.io -->
<svg version="1.1" xmlns="http://www.w3.org/2000/svg" width="18" height="18" viewBox="0 0 18 18">
<title>map</title>
<path d="M9 4c1.106 0.002 2.103 0.465 2.808 1.208l0.002 0.002c0.74 0.783 1.194 1.841 1.194 3.006 0 0.954-0.305 1.837-0.823 2.557l0.009-0.013-0.19 0.24-3 3.12-2.77-2.86-0.23-0.26-0.2-0.28c-0.509-0.707-0.814-1.59-0.814-2.544 0-1.165 0.455-2.224 1.196-3.008l-0.002 0.002c0.705-0.722 1.689-1.17 2.777-1.17 0.015 0 0.030 0 0.045 0l-0.002-0zM9 2c-1.671 0.001-3.178 0.698-4.248 1.818l-0.002 0.002c-1.088 1.141-1.757 2.689-1.757 4.393 0 1.395 0.449 2.686 1.21 3.736l-0.013-0.018 0.61 0.63 4.2 4.44 4.85-5c0.748-1.031 1.197-2.322 1.197-3.717 0-1.704-0.669-3.252-1.759-4.395l0.002 0.003c-1.071-1.157-2.595-1.881-4.288-1.89h-0.002z"></path>
<path d="M11 8c0 1.105-0.895 2-2 2s-2-0.895-2-2c0-1.105 0.895-2 2-2s2 0.895 2 2z"></path>
</svg>
