<!-- Generated by IcoMoon.io -->
<svg version="1.1" xmlns="http://www.w3.org/2000/svg" width="18" height="18" viewBox="0 0 18 18">
<title>money</title>
<path d="M11.35 11.65c-0.505 0.31-1.114 0.501-1.765 0.52l-0.005 0v0.83h-1v-0.83c-0.698-0.030-1.342-0.234-1.898-0.57l0.018 0.010c-0.426-0.272-0.705-0.742-0.705-1.278 0-0.043 0.002-0.086 0.005-0.128l-0 0.006h1.75c-0.002 0.023-0.003 0.051-0.003 0.078 0 0.302 0.15 0.569 0.381 0.73l0.003 0.002c0.251 0.153 0.555 0.244 0.881 0.244 0.042 0 0.084-0.002 0.125-0.005l-0.006 0c0.030 0.002 0.064 0.003 0.099 0.003 0.277 0 0.536-0.076 0.758-0.207l-0.007 0.004c0.181-0.113 0.3-0.311 0.3-0.537 0-0.005-0-0.009-0-0.014l0 0.001c0-0.004 0-0.010 0-0.015 0-0.224-0.11-0.422-0.278-0.544l-0.002-0.001c-0.287-0.183-0.622-0.322-0.981-0.397l-0.019-0.003c-0.755-0.165-1.423-0.428-2.035-0.778l0.035 0.018c-0.414-0.228-0.69-0.662-0.69-1.16 0-0.010 0-0.021 0-0.031l-0 0.002c0.009-0.496 0.282-0.926 0.683-1.157l0.007-0.003c0.492-0.314 1.085-0.511 1.722-0.54l0.007-0v-0.9h1v0.91c0.641 0.036 1.224 0.263 1.697 0.625l-0.007-0.005c0.357 0.297 0.582 0.742 0.582 1.239 0 0.028-0.001 0.057-0.002 0.085l0-0.004h-1.77c0.001-0.016 0.001-0.035 0.001-0.054 0-0.28-0.115-0.534-0.301-0.715l-0-0c-0.2-0.169-0.461-0.272-0.746-0.272-0.022 0-0.045 0.001-0.067 0.002l0.003-0c-0.035-0.004-0.076-0.006-0.117-0.006-0.246 0-0.476 0.073-0.667 0.199l0.005-0.003c-0.159 0.126-0.26 0.318-0.26 0.535 0 0.005 0 0.011 0 0.016l-0-0.001c-0 0.002-0 0.005-0 0.008 0 0.215 0.106 0.405 0.268 0.521l0.002 0.001c0.287 0.179 0.622 0.318 0.979 0.396l0.021 0.004c0.757 0.178 1.424 0.447 2.036 0.799l-0.036-0.019c0.393 0.231 0.653 0.652 0.653 1.133 0 0.031-0.001 0.061-0.003 0.091l0-0.004c0 0.005 0 0.010 0 0.016 0 0.487-0.258 0.914-0.644 1.151l-0.006 0.003z"></path>
<path d="M9 1c-4.418 0-8 3.582-8 8s3.582 8 8 8c4.418 0 8-3.582 8-8v0c0-4.418-3.582-8-8-8v0zM9 15c-3.314 0-6-2.686-6-6s2.686-6 6-6c3.314 0 6 2.686 6 6v0c0 3.314-2.686 6-6 6v0z"></path>
</svg>
