<!-- Generated by IcoMoon.io -->
<svg version="1.1" xmlns="http://www.w3.org/2000/svg" width="18" height="18" viewBox="0 0 18 18">
<title>music</title>
<path d="M15.54 1c0.005-0 0.010-0 0.016-0 0.12 0 0.227 0.050 0.304 0.13l0 0c0.086 0.080 0.139 0.194 0.14 0.32v9.47q0 1.77-2.17 2h-0.74c-0.055 0.003-0.119 0.005-0.184 0.005-0.759 0-1.464-0.23-2.049-0.623l0.013 0.008c-0.484-0.308-0.8-0.841-0.8-1.448 0-0.001 0-0.002 0-0.002v0c0.045-0.641 0.438-1.181 0.989-1.436l0.011-0.004c0.666-0.373 1.461-0.592 2.307-0.592 0.050 0 0.1 0.001 0.15 0.002l-0.007-0h0.48v-4.77c0-0.13 0.060-0.74-0.21-0.63l-5.4 1c-0.24 0.13-0.39 0.17-0.39 0.63v8.94c0 1.16-0.79 1.82-2.24 2h-0.76c-0.058 0.003-0.126 0.005-0.195 0.005-0.76 0-1.468-0.226-2.060-0.614l0.014 0.009c-0.458-0.305-0.756-0.817-0.76-1.399v-0.001c0.025-0.664 0.423-1.23 0.989-1.496l0.011-0.004c0.668-0.379 1.468-0.602 2.319-0.602 0.046 0 0.092 0.001 0.137 0.002l-0.007-0h0.35c0.12 0 0.050 0.080 0.17 0.090v-7.99c-0-0.003-0-0.006-0-0.009 0-0.441 0.264-0.82 0.643-0.988l0.007-0.003z"></path>
</svg>
