<!-- Generated by IcoMoon.io -->
<svg version="1.1" xmlns="http://www.w3.org/2000/svg" width="18" height="18" viewBox="0 0 18 18">
<title>pptx</title>
<path d="M16 9v-1h-1l-0.5 1-0.5-1h-1v1l1 0.65v0.7l-1 0.65v1h1l0.5-1 0.5 1h1v-1l-1-0.65v-0.7l1-0.65z"></path>
<path d="M5 7v-3h8v3h2v-5h-12v5h2z"></path>
<path d="M5 13v1h8v-1h2v3h-12v-3h2z"></path>
<path d="M3 12v-1h2v-3h-3v4zM3 9h1v1h-1z"></path>
<path d="M7 12v-1h2v-3h-3v4zM7 9h1v1h-1z"></path>
<path d="M12 9v-1h-1v-1h-1v5h2v-1h-1v-2h1z"></path>
</svg>
