<!-- Generated by IcoMoon.io -->
<svg version="1.1" xmlns="http://www.w3.org/2000/svg" width="18" height="18" viewBox="0 0 18 18">
<title>refresh</title>
<path d="M13.9 10c-0.482 2.299-2.492 4-4.899 4-0 0-0.001 0-0.001 0h0c-1.378-0.002-2.624-0.568-3.519-1.479l-0.001-0.001 2.52-2.52h-6v6l2.070-2.070c1.265 1.254 3.006 2.029 4.928 2.029 3.498 0 6.397-2.566 6.917-5.919l0.005-0.039z"></path>
<path d="M4.1 8c0.482-2.299 2.492-4 4.899-4 0 0 0.001 0 0.001 0h-0c1.378 0.002 2.624 0.568 3.519 1.479l0.001 0.001-2.52 2.52h6v-6l-2.070 2.070c-1.265-1.254-3.006-2.029-4.928-2.029-3.498 0-6.397 2.566-6.917 5.919l-0.005 0.039z"></path>
</svg>
