<!-- Generated by IcoMoon.io -->
<svg version="1.1" xmlns="http://www.w3.org/2000/svg" width="18" height="18" viewBox="0 0 18 18">
<title>rtf</title>
<path d="M5 7v-3h6.172l1.828 1.828v8.172h-8v-1h-2v2c0 0.552 0.448 1 1 1h10c0.552 0 1-0.448 1-1v-9.586c0-0.265-0.105-0.52-0.293-0.707l-2.414-2.414c-0.188-0.188-0.442-0.293-0.707-0.293h-7.586c-0.552 0-1 0.448-1 1v4h2z"></path>
<path d="M8 9v-1h-1v-1h-1v5h2v-1h-1v-2h1z"></path>
<path d="M3 8v4h1v-3h1v-1h-2z"></path>
<path d="M11 8v-1h-1l-1 1v4h1v-2h1v-1h-1v-1h1z"></path>
</svg>
