<!-- Generated by IcoMoon.io -->
<svg version="1.1" xmlns="http://www.w3.org/2000/svg" width="18" height="18" viewBox="0 0 18 18">
<title>share</title>
<path d="M12.5 11c-0.541 0.003-1.041 0.179-1.447 0.475l0.007-0.005-4.060-2.27c0-0.070 0-0.13 0-0.2 0-0 0-0.001 0-0.001 0-0.176-0.018-0.349-0.053-0.515l0.003 0.016 3.88-2.15c0.438 0.393 1.021 0.634 1.66 0.634 1.375 0 2.49-1.115 2.49-2.49s-1.115-2.49-2.49-2.49c-1.375 0-2.49 1.115-2.49 2.49 0 0.002 0 0.004 0 0.006v-0c0.002 0.265 0.046 0.519 0.125 0.757l-0.005-0.017-3.77 2.1c-0.46-0.512-1.124-0.832-1.862-0.832-1.381 0-2.5 1.119-2.5 2.5s1.119 2.5 2.5 2.5c0.84 0 1.584-0.415 2.037-1.050l0.005-0.008 3.68 2c-0.146 0.308-0.231 0.669-0.231 1.050 0 1.381 1.119 2.5 2.5 2.5s2.5-1.119 2.5-2.5c0-1.373-1.107-2.488-2.478-2.5h-0.001z"></path>
</svg>
