<!-- Generated by IcoMoon.io -->
<svg version="1.1" xmlns="http://www.w3.org/2000/svg" width="18" height="18" viewBox="0 0 18 18">
<title>startswith</title>
<path d="M0 3.857v11.571h12.857v-11.571zM4.744 14.001l-0.077-0.771c-0.357 0.553-0.971 0.913-1.668 0.913-0.015 0-0.029-0-0.044-0l0.002 0c-0.009 0-0.019 0-0.030 0-0.909 0-1.646-0.737-1.646-1.646 0-0.041 0.001-0.081 0.004-0.121l-0 0.005c0-1.479 1.17-2.289 3.279-2.276v-0.129c0-0.501-0.129-1.414-1.286-1.414-0.515 0.012-0.989 0.174-1.385 0.443l0.009-0.006-0.231-0.733c0.496-0.346 1.111-0.553 1.775-0.553 0.009 0 0.018 0 0.027 0l-0.001-0c1.671 0 2.083 1.286 2.083 2.571v2.25c-0.001 0.045-0.001 0.098-0.001 0.151 0 0.464 0.033 0.92 0.097 1.366l-0.006-0.051zM9.154 14.143c-0.025 0.001-0.054 0.002-0.083 0.002-0.752 0-1.403-0.437-1.712-1.071l-0.005-0.011v0.951h-0.926c0-0.386 0-0.977 0-1.479v-6.956h0.964v3.613c0.339-0.633 0.996-1.056 1.751-1.056 0.031 0 0.061 0.001 0.092 0.002l-0.004-0c1.286 0 2.276 1.183 2.276 2.931 0.064 2.057-1.144 3.073-2.353 3.073z"></path>
<path d="M2.276 12.266c-0.005 0.035-0.007 0.075-0.007 0.116 0 0.518 0.42 0.939 0.939 0.939 0.003 0 0.005-0 0.008-0h-0c0.618-0.021 1.131-0.447 1.284-1.019l0.002-0.010c0.007-0.052 0.012-0.112 0.012-0.174s-0.004-0.121-0.013-0.18l0.001 0.007v-1.054c-0.99-0.026-2.224 0.18-2.224 1.376z"></path>
<path d="M9 9c-0.748 0.024-1.364 0.565-1.503 1.276l-0.002 0.010c-0.007 0.064-0.011 0.137-0.011 0.212s0.004 0.149 0.011 0.221l-0.001-0.009v1.029c-0.005 0.056-0.008 0.121-0.008 0.186s0.003 0.131 0.009 0.195l-0.001-0.008c0.119 0.719 0.726 1.263 1.463 1.286l0.002 0c1.029 0 1.633-0.887 1.633-2.211s-0.553-2.186-1.594-2.186z"></path>
<path d="M18 13.783c-0.408 0.227-0.894 0.36-1.412 0.36-0.019 0-0.038-0-0.057-0.001l0.003 0c-1.543 0-2.571-1.286-2.571-3.124-0.020-0.128-0.032-0.276-0.032-0.426 0-1.557 1.235-2.825 2.778-2.878l0.005-0c0.005-0 0.011-0 0.018-0 0.465 0 0.902 0.119 1.282 0.328l-0.014-0.007-0.206 0.964c-0.3-0.216-0.675-0.346-1.080-0.347h-0c-1.17 0-1.8 1.041-1.8 2.314s0.759 2.289 1.774 2.289c0 0 0 0 0 0 0.422 0 0.816-0.115 1.155-0.314l-0.011 0.006z"></path>
</svg>
