<!-- Generated by IcoMoon.io -->
<svg version="1.1" xmlns="http://www.w3.org/2000/svg" width="18" height="18" viewBox="0 0 18 18">
<title>subscript</title>
<path d="M18 18h-3.91v-0.68l1.91-2.1c0.241-0.25 0.456-0.529 0.638-0.829l0.012-0.021c0.109-0.187 0.175-0.41 0.18-0.649l0-0.001c0-0.009 0-0.020 0-0.031 0-0.244-0.087-0.467-0.232-0.64l0.001 0.002c-0.144-0.166-0.355-0.271-0.591-0.271-0.010 0-0.021 0-0.031 0.001l0.001-0c-0.019-0.001-0.041-0.002-0.064-0.002-0.276 0-0.525 0.112-0.706 0.292l0-0c-0.157 0.201-0.252 0.457-0.252 0.735 0 0.023 0.001 0.045 0.002 0.068l-0-0.003h-0.96c-0.002-0.029-0.003-0.063-0.003-0.097 0-0.482 0.196-0.918 0.513-1.233l0-0c0.357-0.337 0.84-0.544 1.371-0.544 0.042 0 0.084 0.001 0.125 0.004l-0.006-0c0.030-0.002 0.065-0.003 0.101-0.003 0.477 0 0.912 0.179 1.241 0.474l-0.002-0.002c0.303 0.295 0.491 0.706 0.491 1.162 0 0.024-0.001 0.048-0.002 0.071l0-0.003c0 0.003 0 0.007 0 0.011 0 0.367-0.108 0.709-0.294 0.996l0.004-0.007c-0.276 0.424-0.566 0.793-0.885 1.135l0.005-0.005-1.31 1.39h2.65z"></path>
<path d="M7.2 2h-2.4l-4.8 14h2.090l1.25-4h5.32l1.25 4h2.090zM3.87 10s2-5.43 2-5.59h0.17c0 0.16 2 5.59 2 5.59z"></path>
</svg>
