<svg xmlns="http://www.w3.org/2000/svg" width="18" height="18" viewBox="0 0 18 18">
<title>sun</title>
<path d="M9.566 1.234c-0.15-0.15-0.354-0.234-0.566-0.234s-0.416 0.084-0.566 0.234c-0.15 0.15-0.234 0.354-0.234 0.566v0.8c0 0.212 0.084 0.416 0.234 0.566s0.354 0.234 0.566 0.234c0.212 0 0.416-0.084 0.566-0.234s0.234-0.354 0.234-0.566v-0.8c0-0.212-0.084-0.416-0.234-0.566z"></path>
<path d="M13.194 14.326l-0.566-0.566c-0.146-0.151-0.226-0.353-0.225-0.563s0.086-0.41 0.234-0.559c0.148-0.148 0.349-0.232 0.559-0.234s0.412 0.079 0.563 0.225l0.566 0.566c0.146 0.151 0.226 0.353 0.225 0.563s-0.086 0.41-0.234 0.559c-0.148 0.148-0.349 0.232-0.559 0.234s-0.412-0.079-0.563-0.225z"></path>
<path d="M14.559 4.24c0-0.212-0.084-0.416-0.234-0.566s-0.353-0.234-0.565-0.234-0.416 0.084-0.566 0.234l-0.566 0.566c-0.076 0.074-0.137 0.162-0.179 0.26s-0.064 0.203-0.065 0.309c-0.001 0.106 0.019 0.212 0.060 0.31s0.1 0.188 0.175 0.263 0.164 0.135 0.263 0.175c0.098 0.040 0.204 0.060 0.31 0.060s0.211-0.023 0.309-0.065c0.098-0.042 0.186-0.103 0.26-0.179l0.565-0.566c0.15-0.15 0.234-0.353 0.234-0.566z"></path>
<path d="M16.766 9.566c-0.15 0.15-0.353 0.234-0.566 0.234h-0.8c-0.212 0-0.416-0.084-0.566-0.234s-0.234-0.354-0.234-0.566c0-0.212 0.084-0.416 0.234-0.566s0.353-0.234 0.566-0.234h0.8c0.212 0 0.416 0.084 0.566 0.234s0.234 0.354 0.234 0.566c0 0.212-0.084 0.416-0.234 0.566z"></path>
<path d="M9.566 14.834c-0.15-0.15-0.354-0.234-0.566-0.234s-0.416 0.084-0.566 0.234c-0.15 0.15-0.234 0.353-0.234 0.566v0.8c0 0.212 0.084 0.416 0.234 0.566s0.354 0.234 0.566 0.234c0.212 0 0.416-0.084 0.566-0.234s0.234-0.353 0.234-0.566v-0.8c0-0.212-0.084-0.416-0.234-0.566z"></path>
<path d="M4.5 5.545c-0.097-0.040-0.185-0.099-0.26-0.174l-0.566-0.566c-0.146-0.151-0.226-0.353-0.225-0.563s0.086-0.41 0.234-0.559c0.148-0.148 0.349-0.232 0.559-0.234s0.412 0.079 0.563 0.225l0.566 0.566c0.074 0.074 0.133 0.163 0.173 0.26s0.061 0.201 0.061 0.306c-0 0.105-0.021 0.209-0.061 0.306s-0.099 0.185-0.174 0.26c-0.074 0.074-0.163 0.133-0.26 0.173s-0.201 0.061-0.306 0.061c-0.105-0-0.209-0.021-0.306-0.061z"></path>
<path d="M4.806 14.326l0.566-0.566c0.146-0.151 0.226-0.353 0.225-0.563s-0.086-0.41-0.234-0.559c-0.148-0.148-0.349-0.232-0.559-0.234s-0.412 0.079-0.563 0.225l-0.566 0.566c-0.146 0.151-0.226 0.353-0.225 0.563s0.086 0.41 0.234 0.559c0.148 0.148 0.349 0.232 0.559 0.234s0.412-0.079 0.563-0.225z"></path>
<path d="M3.166 9.566c-0.15 0.15-0.354 0.234-0.566 0.234h-0.8c-0.212 0-0.416-0.084-0.566-0.234s-0.234-0.354-0.234-0.566c0-0.212 0.084-0.416 0.234-0.566s0.354-0.234 0.566-0.234h0.8c0.212 0 0.416 0.084 0.566 0.234s0.234 0.354 0.234 0.566c0 0.212-0.084 0.416-0.234 0.566z"></path>
<path d="M13 9c0 2.209-1.791 4-4 4s-4-1.791-4-4c0-2.209 1.791-4 4-4s4 1.791 4 4z"></path>
</svg>
