<!-- Generated by IcoMoon.io -->
<svg version="1.1" xmlns="http://www.w3.org/2000/svg" width="18" height="18" viewBox="0 0 18 18">
<title>tips</title>
<path d="M7 13v1.5c0 0.828 0.672 1.5 1.5 1.5v0h1c0.828 0 1.5-0.672 1.5-1.5v0-1.5z"></path>
<path d="M9 2c-2.761 0-5 2.239-5 5 0 1.63 0.78 3.078 1.987 3.991l0.013 0.009c0.295 0.283 0.543 0.613 0.73 0.979l0.010 0.021h4.59c0.176-0.385 0.401-0.716 0.672-1.002l-0.002 0.002c1.22-0.922 2-2.37 2-4 0-2.761-2.239-5-5-5v0zM10.81 9.39c-0.519 0.306-0.943 0.72-1.251 1.215l-0.009 0.015h-1.12c-0.314-0.512-0.735-0.93-1.234-1.231l-0.016-0.009c-0.72-0.554-1.18-1.416-1.18-2.385 0-1.657 1.343-3 3-3s3 1.343 3 3c0 0.969-0.46 1.831-1.173 2.38l-0.007 0.005z"></path>
</svg>
