<!-- Generated by IcoMoon.io -->
<svg version="1.1" xmlns="http://www.w3.org/2000/svg" width="18" height="18" viewBox="0 0 18 18">
<title>underline</title>
<path d="M14 2v9.25c0.005 0.082 0.009 0.179 0.009 0.276 0 1.279-0.541 2.432-1.406 3.242l-0.002 0.002c-0.917 0.767-2.109 1.233-3.41 1.233-0.067 0-0.133-0.001-0.2-0.004l0.010 0c-0.070 0.003-0.152 0.005-0.234 0.005-1.281 0-2.452-0.467-3.353-1.241l0.007 0.006c-0.879-0.82-1.427-1.985-1.427-3.278 0-0.085 0.002-0.17 0.007-0.253l-0.001 0.012v-9.25h2v9.24c-0 0.008-0 0.018-0 0.028 0 0.844 0.348 1.607 0.909 2.152l0.001 0.001c0.5 0.454 1.167 0.732 1.899 0.732 0.035 0 0.071-0.001 0.106-0.002l-0.005 0c0.043 0.002 0.094 0.003 0.145 0.003 0.754 0 1.442-0.278 1.969-0.737l-0.004 0.003c0.602-0.534 0.98-1.31 0.98-2.173 0-0.002 0-0.005 0-0.007v0-9.24z"></path>
<path d="M3 17h12v1h-12v-1z"></path>
</svg>
