<!-- Generated by IcoMoon.io -->
<svg version="1.1" xmlns="http://www.w3.org/2000/svg" width="18" height="18" viewBox="0 0 18 18">
<title>xlsx</title>
<path d="M5 9v-1h-1l-0.5 1-0.5-1h-1v1l1 0.65v0.7l-1 0.65v1h1l0.5-1 0.5 1h1v-1l-1-0.65v-0.7l1-0.65z"></path>
<path d="M16 9v-1h-1l-0.5 1-0.5-1h-1v1l1 0.65v0.7l-1 0.65v1h1l0.5-1 0.5 1h1v-1l-1-0.65v-0.7l1-0.65z"></path>
<path d="M12 9v-1h-3v2l2 0.5v0.5h-2v1h3v-2l-2-0.5v-0.5h2z"></path>
<path d="M13 14h-8v-1h-2v3h12v-3h-2v1z"></path>
<path d="M3 2v5h2v-3h8v3h2v-5h-12z"></path>
<path d="M7 11v-4h-1v5h2v-1h-1z"></path>
</svg>
