<?xml version="1.0" encoding="utf-8"?>
<!-- Generator: Adobe Illustrator 24.0.2, SVG Export Plug-In . SVG Version: 6.00 Build 0)  -->
<svg version="1.1" id="_x30_" xmlns="http://www.w3.org/2000/svg" xmlns:xlink="http://www.w3.org/1999/xlink" x="0px" y="0px"
	 viewBox="0 0 32 32" style="enable-background:new 0 0 32 32;" xml:space="preserve">
<style type="text/css">
	.st0{fill-rule:evenodd;clip-rule:evenodd;}
	.st1{fill:#FFFFFF;}
</style>
<g id="_x31_">
	<path class="st0" d="M5,31.5c-0.3,0-0.5-0.2-0.5-0.5v-6.5H3c-1.4,0-2.5-1.1-2.5-2.5v-8c0-2,1.5-3.5,3.5-3.5h24c2,0,3.5,1.5,3.5,3.5
		v8c0,1.4-1.1,2.5-2.5,2.5h-1.5V31c0,0.3-0.2,0.5-0.5,0.5H5z M24.5,28.5v-7h-17v7H24.5z M27,14.5c-0.8,0-1.5,0.7-1.5,1.5
		s0.7,1.5,1.5,1.5s1.5-0.7,1.5-1.5S27.8,14.5,27,14.5z M7,9.5C6.7,9.5,6.5,9.3,6.5,9V2c0-0.3,0.2-0.5,0.5-0.5h18
		c0.3,0,0.5,0.2,0.5,0.5v7c0,0.3-0.2,0.5-0.5,0.5H7z"/>
	<path class="st1" d="M25,2v7H7V2H25 M28,11c1.7,0,3,1.3,3,3v8c0,1.1-0.9,2-2,2h-2v7H5v-7H3c-1.1,0-2-0.9-2-2v-8c0-1.7,1.3-3,3-3H28
		 M27,18c1.1,0,2-0.9,2-2s-0.9-2-2-2s-2,0.9-2,2S25.9,18,27,18 M7,29h18v-8H7V29 M25,1H7C6.4,1,6,1.4,6,2v7c0,0.6,0.4,1,1,1H4
		c-2.2,0-4,1.8-4,4v8c0,1.7,1.3,3,3,3h1v6c0,0.6,0.4,1,1,1h22c0.6,0,1-0.4,1-1v-6h1c1.7,0,3-1.3,3-3v-8c0-2.2-1.8-4-4-4h-3
		c0.6,0,1-0.4,1-1V2C26,1.4,25.6,1,25,1L25,1z M27,17c-0.6,0-1-0.4-1-1s0.4-1,1-1s1,0.4,1,1S27.6,17,27,17L27,17z M8,22h16v6H8V22
		L8,22z"/>
</g>
</svg>
