<svg xmlns="http://www.w3.org/2000/svg" width="16" height="16" viewBox="0 0 16 16"><title>status-2</title><path d="M11.27,4.23l-1.09.93L14.89,6.8,14,1.9l-1.16,1A7,7,0,0,0,5.09,1.63l.84,1.82A5.1,5.1,0,0,1,11.27,4.23Z" style="fill:#4c66b9"/><path d="M3.67,10.36A5,5,0,0,1,3.1,6.91l1.35.48-.93-4.9L-.26,5.74l1.45.51a7,7,0,0,0,.75,5.11,7.13,7.13,0,0,0,2,2.2L5.1,11.93A5,5,0,0,1,3.67,10.36Z" style="fill:#4c66b9"/><path d="M12.24,10.33a5,5,0,0,1-2.69,2.22l-.27-1.41L5.5,14.4,10.21,16l-.29-1.51A7,7,0,0,0,14,11.33a6.78,6.78,0,0,0,.91-2.83l-2-.19A5,5,0,0,1,12.24,10.33Z" style="fill:#4c66b9"/></svg>