<?xml version="1.0" encoding="UTF-8"?>
<svg xmlns="http://www.w3.org/2000/svg" xmlns:xlink="http://www.w3.org/1999/xlink" width="900pt" height="600pt" viewBox="0 0 900 600" version="1.1">
<g id="surface1">
<rect x="0" y="0" width="900" height="600" style="fill:rgb(93.333333%,10.980392%,14.509804%);fill-opacity:1;stroke:none;"/>
<path style=" stroke:none;fill-rule:nonzero;fill:rgb(4.313725%,30.588235%,63.529412%);fill-opacity:1;" d="M 0 0 L 900 0 L 900 400 L 0 400 Z M 0 0 "/>
<path style=" stroke:none;fill-rule:nonzero;fill:rgb(100%,100%,100%);fill-opacity:1;" d="M 0 0 L 900 0 L 900 200 L 0 200 Z M 0 0 "/>
<path style=" stroke:none;fill-rule:nonzero;fill:rgb(100%,100%,100%);fill-opacity:1;" d="M 393.480469 141 L 146.359375 141 L 145.511719 149.058594 C 145.328125 150.8125 141 193.03125 141 285.75 C 141 329.3125 155.726562 367.746094 184.769531 399.980469 C 205.117188 422.5625 231.691406 441.578125 266.011719 458.109375 L 269.917969 459.988281 L 273.824219 458.109375 C 308.144531 441.578125 334.71875 422.5625 355.070312 399.980469 C 384.113281 367.746094 398.839844 329.3125 398.839844 285.75 C 398.839844 193.03125 394.511719 150.8125 394.328125 149.058594 Z M 393.480469 141 "/>
<path style=" stroke:none;fill-rule:nonzero;fill:rgb(93.333333%,10.980392%,14.509804%);fill-opacity:1;" d="M 269.917969 450 C 220.578125 426.234375 150 379.0625 150 285.75 C 150 192.4375 154.460938 150 154.460938 150 L 385.375 150 C 385.375 150 389.839844 192.4375 389.839844 285.75 C 389.839844 379.0625 319.261719 426.234375 269.917969 450 Z M 269.917969 450 "/>
<path style=" stroke:none;fill-rule:nonzero;fill:rgb(100%,100%,100%);fill-opacity:1;" d="M 280.484375 261.285156 C 293.84375 261.5 319.910156 262.023438 343.117188 254.257812 C 343.117188 254.257812 342.507812 262.5625 342.507812 272.238281 C 342.507812 281.914062 343.117188 290.21875 343.117188 290.21875 C 321.828125 283.09375 295.539062 282.945312 280.484375 283.136719 L 280.484375 334.675781 L 259.378906 334.675781 L 259.378906 283.136719 C 244.324219 282.945312 218.035156 283.09375 196.746094 290.21875 C 196.746094 290.21875 197.359375 281.914062 197.359375 272.238281 C 197.359375 262.5625 196.746094 254.257812 196.746094 254.257812 C 219.953125 262.023438 246.019531 261.5 259.378906 261.285156 L 259.378906 228.914062 C 247.203125 228.808594 229.65625 229.390625 209.816406 236.027344 C 209.816406 236.027344 210.429688 227.722656 210.429688 218.046875 C 210.429688 208.371094 209.816406 200.066406 209.816406 200.066406 C 229.628906 206.695312 247.152344 207.285156 259.324219 207.179688 C 258.699219 186.683594 252.730469 160.847656 252.730469 160.847656 C 252.730469 160.847656 265.019531 161.808594 269.929688 161.808594 C 274.847656 161.808594 287.132812 160.847656 287.132812 160.847656 C 287.132812 160.847656 281.164062 186.683594 280.539062 207.179688 C 292.710938 207.285156 310.238281 206.691406 330.046875 200.0625 C 330.046875 200.0625 329.433594 208.367188 329.433594 218.046875 C 329.433594 227.722656 330.046875 236.027344 330.046875 236.027344 C 310.207031 229.386719 292.660156 228.804688 280.484375 228.914062 Z M 280.484375 261.285156 "/>
<path style=" stroke:none;fill-rule:nonzero;fill:rgb(4.313725%,30.588235%,63.529412%);fill-opacity:1;" d="M 269.902344 329.09375 C 245.050781 329.09375 231.742188 363.5625 231.742188 363.5625 C 231.742188 363.5625 224.355469 347.21875 204.078125 347.21875 C 190.359375 347.21875 180.25 359.421875 173.824219 370.71875 C 198.78125 410.425781 238.605469 434.925781 269.902344 450 C 301.207031 434.925781 341.054688 410.429688 366.015625 370.71875 C 359.589844 359.421875 349.476562 347.21875 335.757812 347.21875 C 315.480469 347.21875 308.066406 363.5625 308.066406 363.5625 C 308.066406 363.5625 294.757812 329.09375 269.902344 329.09375 Z M 269.902344 329.09375 "/>
</g>
</svg>
