<?xml version="1.0" encoding="utf-8"?>
<!-- Generator: Adobe Illustrator 16.0.3, SVG Export Plug-In . SVG Version: 6.00 Build 0)  -->
<!DOCTYPE svg PUBLIC "-//W3C//DTD SVG 1.1//EN" "http://www.w3.org/Graphics/SVG/1.1/DTD/svg11.dtd">
<svg version="1.1" id="Layer_2" xmlns="http://www.w3.org/2000/svg" xmlns:xlink="http://www.w3.org/1999/xlink" x="0px" y="0px"
	 width="64px" height="64px" viewBox="0 0 64 64" enable-background="new 0 0 64 64" xml:space="preserve">
<path opacity="0.5" fill="#337AB7" d="M4,52v3c0,1.1,0.9,2,2,2h52c1.1,0,2-0.9,2-2v-3H4z"/>
<path fill="#337AB7" d="M58,10H6c-1.1,0-2,0.9-2,2v40c0,1.1,0.9,2,2,2h52c1.1,0,2-0.9,2-2V12C60,10.9,59.1,10,58,10z M46,43H18
	c-1.1,0-1.5-0.8-1-1.7L31,18.7c0.6-0.9,1.5-0.9,2.1,0L47,41.3C47.5,42.2,47.1,43,46,43z"/>
<circle fill="#337AB7" cx="32" cy="38" r="2"/>
<path fill="#337AB7" d="M34,32c0,1.1-0.9,2-2,2l0,0c-1.1,0-2-0.9-2-2v-6c0-1.1,0.9-2,2-2l0,0c1.1,0,2,0.9,2,2V32z"/>
</svg>
