<?xml version="1.0" encoding="utf-8"?>
<svg version="1.1" id="_x31_" xmlns="http://www.w3.org/2000/svg" xmlns:xlink="http://www.w3.org/1999/xlink" x="0px" y="0px"
	 viewBox="0 0 18 18" style="enable-background:new 0 0 18 18;" xml:space="preserve">
<style type="text/css">
	.st0{fill-rule:evenodd;clip-rule:evenodd;}
</style>
<path class="st0" d="M10,13H8v-3H5V8h3V5h2v3h3v2h-3V13z" fill="currentColor"/>
<path class="st0" d="M9,1.1c-4.4,0-8,3.6-8,8c0,4.4,3.6,8,8,8s8-3.6,8-8C17,4.6,13.4,1.1,9,1.1z M9,15c-3.3,0-6-2.7-6-6s2.7-6,6-6
	s6,2.7,6,6S12.3,15,9,15z" fill="currentColor"/>
</svg>
