<?xml version="1.0" encoding="utf-8"?>
<svg version="1.1" id="_x31_" xmlns="http://www.w3.org/2000/svg" xmlns:xlink="http://www.w3.org/1999/xlink" x="0px" y="0px"
	 viewBox="0 0 18 18" style="enable-background:new 0 0 18 18;" xml:space="preserve">
<style type="text/css">
	.st0{fill-rule:evenodd;clip-rule:evenodd;}
</style>
<path id="_x32_" class="st0" d="M17,10H9c-0.6,0-1-0.4-1-1c0-0.6,0.4-1,1-1h2c0-0.6,0.4-1,1-1h2c0.6,0,1,0.4,1,1h2c0.6,0,1,0.4,1,1
	C18,9.6,17.6,10,17,10z M8,13H5V5H3.7C3.4,5.6,2.7,6,2,6C0.9,6,0,5.1,0,4s0.9-2,2-2c0.7,0,1.4,0.4,1.7,1H7v8h1V13z M17,16
	c0,1.1-0.9,2-2,2h-4c-1.1,0-2-0.9-2-2v-5h8V16z" fill="currentColor"/>
</svg>
