<?xml version="1.0" encoding="utf-8"?>
<svg version="1.1" id="_x31_" xmlns="http://www.w3.org/2000/svg" xmlns:xlink="http://www.w3.org/1999/xlink" x="0px" y="0px"
	 viewBox="0 0 18 18" style="enable-background:new 0 0 18 18;" xml:space="preserve">
<style type="text/css">
	.st0{fill-rule:evenodd;clip-rule:evenodd;}
</style>
<path id="_x32_" class="st0" d="M12.5,18C10,18,7.9,15.5,7,13.5c0.9-2,3-4.5,5.5-4.5s4.6,2.5,5.5,4.5C17.1,15.5,15,18,12.5,18z
	 M12.5,11c-1.4,0-2.5,1.1-2.5,2.5s1.1,2.5,2.5,2.5s2.5-1.1,2.5-2.5S13.9,11,12.5,11z M12.5,15c-0.8,0-1.5-0.7-1.5-1.5
	s0.7-1.5,1.5-1.5s1.5,0.7,1.5,1.5S13.3,15,12.5,15z M12,4l-2-2H3v12h2l1,2H1V0h10l3,3v4h-2V4z" fill="currentColor"/>
</svg>
