<?xml version="1.0" encoding="utf-8"?>
<!-- Generator: Adobe Illustrator 24.2.1, SVG Export Plug-In . SVG Version: 6.00 Build 0)  -->
<svg version="1.1" id="_x31_" xmlns="http://www.w3.org/2000/svg" xmlns:xlink="http://www.w3.org/1999/xlink" x="0px" y="0px"
	 viewBox="0 0 18 18" style="enable-background:new 0 0 18 18;" xml:space="preserve">
<style type="text/css">
	.st0{fill-rule:evenodd;clip-rule:evenodd;}
</style>
<path id="_x35_" class="st0" d="M14,15H2c-1.1,0-2-0.9-2-2v-2c0-1.1,0.9-2,2-2h12c1.1,0,2,0.9,2,2v2C16,14.1,15.1,15,14,15z M9,11H2
	v2h7V11z M14,7H2C0.9,7,0,6.1,0,5V3c0-1.1,0.9-2,2-2h12c1.1,0,2,0.9,2,2v2C16,6.1,15.1,7,14,7z M12,3H2v2h10V3z" fill="currentColor"/>
</svg>



