<?xml version="1.0" encoding="utf-8"?>
<!-- Generator: Adobe Illustrator 24.2.1, SVG Export Plug-In . SVG Version: 6.00 Build 0)  -->
<svg version="1.1" id="_x31_" xmlns="http://www.w3.org/2000/svg" xmlns:xlink="http://www.w3.org/1999/xlink" x="0px" y="0px"
	 viewBox="0 0 18 18" style="enable-background:new 0 0 18 18;" xml:space="preserve">
<style type="text/css">
	.st0{fill-rule:evenodd;clip-rule:evenodd;}
	.st1{opacity:0.5;}
	.st2{}
</style>
<path id="_x32_" class="st0" d="M7,11c-2.3,0-4.2-1.7-5-4c0.8-2.3,2.7-4,5-4s4.2,1.7,5,4C11.2,9.3,9.3,11,7,11z M7,5
	C5.9,5,5,5.9,5,7s0.9,2,2,2s2-0.9,2-2S8.1,5,7,5z M7,8C6.4,8,6,7.6,6,7s0.4-1,1-1s1,0.4,1,1S7.6,8,7,8z" fill="currentColor"/>
<polygon class="st1" points="6,10 6,14 13,14 13,16 16,13 13,10 13,12 8,12 8,10 " fill="currentColor"/>
<polygon class="st1" points="6,4 6,2 0,2 0,0 8,0 8,4 " fill="currentColor"/>
<rect x="9.4" y="2.1" transform="matrix(0.7071 -0.7071 0.7071 0.7071 0.8934 9.1569)" class="st2" width="4.2" height="2.8" fill="currentColor"/>
<rect x="1.2" y="9.6" transform="matrix(0.7071 -0.7071 0.7071 0.7071 -6.6066 6.0503)" class="st2" width="5.7" height="2.8" fill="currentColor"/>
</svg>

