<?xml version="1.0" encoding="utf-8"?>
<!-- Generator: Adobe Illustrator 23.1.0, SVG Export Plug-In . SVG Version: 6.00 Build 0)  -->
<svg version="1.1" id="_x32_" xmlns="http://www.w3.org/2000/svg" xmlns:xlink="http://www.w3.org/1999/xlink" x="0px" y="0px"
	 viewBox="0 0 18 18" style="enable-background:new 0 0 18 18;" xml:space="preserve">
<style type="text/css">
	.st0{opacity:0.35;fill-rule:evenodd;clip-rule:evenodd;}
	.st1{fill-rule:evenodd;clip-rule:evenodd;}
</style>
<path id="_x30__1_" class="st0" d="M8,0h8c1.1,0,2,0.9,2,2v8c0,1.1-0.9,2-2,2H8c-1.1,0-2-0.9-2-2V2C6,0.9,6.9,0,8,0z"/>
<path id="_x30_" class="st1" d="M4,4h8c1.1,0,2,0.9,2,2v8c0,1.1-0.9,2-2,2H4c-1.1,0-2-0.9-2-2V6C2,4.9,2.9,4,4,4z"/>
</svg>
