<?xml version="1.0" encoding="utf-8"?>
<svg version="1.1" xmlns="http://www.w3.org/2000/svg" xmlns:xlink="http://www.w3.org/1999/xlink" x="0px" y="0px"
	 viewBox="0 0 18 18" style="enable-background:new 0 0 18 18;" xml:space="preserve">
<path d="M5,0L4,1l2,2L0,9l7,7l7-7L5,0z M2,9l5-5l5,5H2z" fill="currentColor"/>
<path d="M15,10c0,0-3,3-3,5.5c0,0,0,0.1,0,0.1c0,1.3,1.3,2.4,3,2.4c1.7,0,3-1.1,3-2.4c0,0,0-0.1,0-0.1
	C18,13,15,10,15,10z M13,15.5c0-2,2-4,2-4s0.7,0.7,1.3,1.7L13,15.5z" fill="currentColor"/>
</svg>
