<?xml version="1.0" encoding="utf-8"?>
<svg version="1.1" id="_x32_" xmlns="http://www.w3.org/2000/svg" xmlns:xlink="http://www.w3.org/1999/xlink" x="0px" y="0px"
	 viewBox="0 0 16 16" style="enable-background:new 0 0 16 16;" xml:space="preserve">
<style type="text/css">
	.st0{fill-rule:evenodd;clip-rule:evenodd;}
</style>
<path id="_x31_" class="st0" d="M16,14.4L14.5,16l-2-2l-2,2L9,14.4l2-2l-2-2L10.5,9l2,2l2-2l1.5,1.5l-2,2L16,14.4z M11,5l-4,6L5,9
	l-3,5h5v2H2c-1.1,0-2-0.9-2-2V2c0-1.1,0.9-2,2-2h12c1.1,0,2,0.9,2,2v4l-2,2L11,5z M4.5,4C3.7,4,3,4.6,3,5.5S3.7,7,4.5,7S6,6.3,6,5.5
	S5.3,4,4.5,4z" fill="currentColor" />
</svg>
