<?xml version="1.0" encoding="utf-8"?>
<svg version="1.1" id="_x32_" xmlns="http://www.w3.org/2000/svg" xmlns:xlink="http://www.w3.org/1999/xlink" x="0px" y="0px"
	 viewBox="0 0 16 16" style="enable-background:new 0 0 16 16;" xml:space="preserve">
<style type="text/css">
	.st0{fill-rule:evenodd;clip-rule:evenodd;}
</style>
<path id="_x31_" class="st0" d="M14,8l-3-3l-4,6L5,9l-3,5h6v2H2c-1.1,0-2-0.9-2-2V2c0-1.1,0.9-2,2-2h12c1.1,0,2,0.9,2,2v4L14,8z
	 M4.5,4C3.7,4,3,4.7,3,5.5S3.7,7,4.5,7S6,6.3,6,5.5S5.3,4,4.5,4z M16,11.5L11.5,16H10v-1.5l4.5-4.5L16,11.5z" fill="currentColor" />
</svg>
