<?xml version="1.0" encoding="utf-8"?>
<svg version="1.1" id="_x32_" xmlns="http://www.w3.org/2000/svg" xmlns:xlink="http://www.w3.org/1999/xlink" x="0px" y="0px"
	 viewBox="0 0 16 16" style="enable-background:new 0 0 16 16;" xml:space="preserve">
<style type="text/css">
	.st0{fill-rule:evenodd;clip-rule:evenodd;}
</style>
<path id="_x31_" class="st0" d="M14,14v2h-2v-2h-2v-2h2v-2h2v2h2v2H14z M9,6l-3,4L4,8l-2,4h6v2H2c-1.1,0-2-0.9-2-2V2
	c0-1.1,0.9-2,2-2h10c1.1,0,2,0.9,2,2v6h-3L9,6z M3.5,3C2.7,3,2,3.7,2,4.5S2.7,6,3.5,6S5,5.3,5,4.5S4.3,3,3.5,3z"/>
</svg>
