<?xml version="1.0" encoding="utf-8"?>
<svg version="1.1" id="_x31_" xmlns="http://www.w3.org/2000/svg" xmlns:xlink="http://www.w3.org/1999/xlink" x="0px" y="0px"
	 viewBox="0 0 64 64" style="enable-background:new 0 0 64 64;" xml:space="preserve">
<style type="text/css">
	.st0{fill-rule:evenodd;clip-rule:evenodd;}
	.st1{opacity:0.5;}
</style>
<g id="_x34_">
	<path id="_x35_" class="st0" d="M4,57v-6c0-1.1,0.9-2,2-2h6c1.1,0,2,0.9,2,2v6c0,1.1-0.9,2-2,2H6C4.9,59,4,58.1,4,57z M12,57v-6H6
		v6H12z M24,57v-6c0-1.1,0.9-2,2-2h6c1.1,0,2,0.9,2,2v6c0,1.1-0.9,2-2,2h-6C24.9,59,24,58.1,24,57z M32,57v-6h-6v6H32z M36,47v-6
		c0-1.1,0.9-2,2-2h6c1.1,0,2,0.9,2,2v6c0,1.1-0.9,2-2,2h-6C36.9,49,36,48.1,36,47z M44,47v-6h-6v6H44z M50,47v-6c0-1.1,0.9-2,2-2h6
		c1.1,0,2,0.9,2,2v6c0,1.1-0.9,2-2,2h-6C50.9,49,50,48.1,50,47z M58,47v-6h-6v6H58z M26,39c-1.1,0-2-0.9-2-2v-6c0-1.1,0.9-2,2-2h6
		c1.1,0,2,0.9,2,2v6c0,1.1-0.9,2-2,2H26z M32,37v-6h-6v6H32z M12,32H6c-1.1,0-2-0.9-2-2v-6c0-1.1,0.9-2,2-2h6c1.1,0,2,0.9,2,2v6
		C14,31.1,13.1,32,12,32z M6,24v6h6v-6H6z M4,11l6-6v5h50v2H10v5L4,11z M14,38v6c0,1.1-0.9,2-2,2H6c-1.1,0-2-0.9-2-2v-6
		c0-1.1,0.9-2,2-2h6C13.1,36,14,36.9,14,38z M6,38v6h6v-6H6z" fill="currentColor" />
</g>
<g id="_x32_" class="st1">
	<path id="_x33_" class="st0" d="M14,53h10v2H14V53z M40,53v-4h2v4v2h-2h-6v-2H40z M50,43v2h-4v-2H50z M18,39.9V35v-2v-5h-4v-2h6v7
		h4v2h-4v7h-6v-2L18,39.9z M34,35v-2h6h2v2v4h-2v-4H34z" fill="currentColor" />
</g>
</svg>
