<?xml version="1.0" encoding="utf-8"?>
<svg version="1.1" id="_x32_" xmlns="http://www.w3.org/2000/svg" xmlns:xlink="http://www.w3.org/1999/xlink" x="0px" y="0px"
	 viewBox="0 0 18 18" style="enable-background:new 0 0 18 18;" xml:space="preserve">
<path id="_x31_" d="M14,5c0-2.8-2.2-5-5-5C6.2,0,4,2.2,4,5C2.9,5,2,5.9,2,7v8c0,1.1,0.9,2,2,2h10c1.1,0,2-0.9,2-2V7
	C16,5.9,15.1,5,14,5z M9,13c-1.1,0-2-0.9-2-2s0.9-2,2-2c1.1,0,2,0.9,2,2C11,12.1,10.1,13,9,13z M6,5c0-1.7,1.3-3,3-3
	c1.7,0,3,1.3,3,3H6z" fill="currentColor" />
</svg>
