<?xml version="1.0" encoding="utf-8"?>
<svg version="1.1" id="_x31_" xmlns="http://www.w3.org/2000/svg" xmlns:xlink="http://www.w3.org/1999/xlink" x="0px" y="0px"
	 viewBox="0 0 22 22" style="enable-background:new 0 0 22 22;" xml:space="preserve">
<style type="text/css">
	.st0{fill-rule:evenodd;clip-rule:evenodd;}
	.st1{opacity:0.35;fill-rule:evenodd;clip-rule:evenodd;}
</style>
<path id="_x33_" class="st0" d="M20.8,14.3l-1,1l-2.1-2.1l1-1c0.1-0.1,0.2-0.2,0.4-0.2c0.1,0,0.3,0.1,0.4,0.2l1.3,1.3
	C21,13.7,21,14.1,20.8,14.3z M17,3H5v16h4v2H5c-1.1,0-2-0.9-2-2V3c0-1.1,0.9-2,2-2h12c1.1,0,2,0.9,2,2v6l-2,2V3z M19.1,15.9L13.1,22
	H11v-2.1l6.1-6.1L19.1,15.9z" fill="currentColor" />
<path id="_x32_" class="st1" d="M7,5h8v7l-4.8,5H7V5z" fill="currentColor" />
</svg>
