<?xml version="1.0" encoding="utf-8"?>
<svg version="1.1" id="_x32_" xmlns="http://www.w3.org/2000/svg" xmlns:xlink="http://www.w3.org/1999/xlink" x="0px" y="0px"
	 viewBox="0 0 18 18" style="enable-background:new 0 0 18 18;" xml:space="preserve">
<style type="text/css">
	.st0{fill-rule:evenodd;clip-rule:evenodd;}
	.st1{opacity:0.75;}
</style>
<path id="_x31_" class="st0" d="M8.5,6c0.1,0,0.3,0,0.4,0.1l0,0l6.8,5.3c0.3,0.2,0.3,0.5,0.1,0.8c-0.1,0.1-0.1,0.2-0.3,0.2l-1.9,0.3
	l1.3,2.6c0.2,0.3,0,0.6-0.3,0.7l-2.1,0.9c-0.1,0-0.2,0.1-0.3,0.1c-0.2,0-0.4-0.1-0.5-0.3l-1.3-2.6l-1.5,1.1
	c-0.1,0.1-0.2,0.1-0.4,0.1c-0.3,0-0.6-0.2-0.6-0.5V6.6C7.9,6.3,8.2,6,8.5,6z" fill="currentColor"/>
<g id="_x33_" class="st1">
	<polygon id="_x31__1_" class="st0" points="12,6 14,8 16,8 16,6 	" fill="currentColor" />
	<rect id="_x32__1_" x="11.6" y="2" transform="matrix(0.7071 -0.7071 0.7071 0.7071 1.6862 10.071)" class="st0" width="2.8" height="2"  fill="currentColor"/>
	<rect id="_x33__1_" x="8" y="1" class="st0" width="2" height="4"  fill="currentColor"/>
	<rect id="_x34_" x="3.6" y="10" transform="matrix(0.7071 -0.7071 0.7071 0.7071 -6.3137 6.7573)" class="st0" width="2.8" height="2"  fill="currentColor"/>
	<rect id="_x35_" x="4" y="1.6" transform="matrix(0.7071 -0.7071 0.7071 0.7071 -0.6569 4.4142)" class="st0" width="2" height="2.8"  fill="currentColor"/>
	<rect id="_x36_" x="2" y="6" class="st0" width="4" height="2"  fill="currentColor"/>
</g>
</svg>
