<?xml version="1.0" encoding="utf-8"?>
<svg version="1.1" id="_x32_" xmlns="http://www.w3.org/2000/svg" xmlns:xlink="http://www.w3.org/1999/xlink" x="0px" y="0px"
	 viewBox="0 0 18 18" style="enable-background:new 0 0 18 18;" xml:space="preserve">
<style type="text/css">
	.st0{fill-rule:evenodd;clip-rule:evenodd;}
</style>
<path id="_x31_" class="st0" d="M14,17H4c-1.1,0-2-0.9-2-2V7c0-1.1,0.9-2,2-2h2h2h4c0-1.7-1.3-3-3-3C8.1,2,7.3,2.4,6.8,3H4.4
	C5.2,1.2,7,0,9,0c2.8,0,5,2.2,5,5c1.1,0,2,0.9,2,2v8C16,16.1,15.1,17,14,17z M9,9c-1.1,0-2,0.9-2,2s0.9,2,2,2s2-0.9,2-2
	C11,9.9,10.1,9,9,9z" fill="currentColor" />
</svg>
