<svg width="182" height="182" viewBox="0 0 182 182" fill="none" xmlns="http://www.w3.org/2000/svg">
<g filter="url(#filter0_d)">
<circle cx="91" cy="91" r="85" fill="$background-color"/>
<path d="M88.835 15.4421V23.2701H87.153V17.3431C87.0605 17.4249 86.9501 17.5033 86.8219 17.578C86.6974 17.6492 86.5639 17.7151 86.4215 17.7756C86.2791 17.8325 86.1313 17.8824 85.9783 17.9251C85.8252 17.9642 85.6739 17.9927 85.5244 18.0105V16.5902C85.9623 16.462 86.3752 16.2983 86.7632 16.0989C87.1512 15.8996 87.5019 15.6806 87.8151 15.4421H88.835Z" fill="$digit-color" />
<path d="M92.9733 21.8711H96.2198V23.2701H91.1257V22.6934C91.1257 22.3019 91.1916 21.9512 91.3233 21.6415C91.455 21.3282 91.6205 21.0488 91.8199 20.8032C92.0192 20.554 92.2364 20.3351 92.4713 20.1464C92.7098 19.9542 92.9359 19.7815 93.1495 19.6285C93.3737 19.4683 93.5695 19.3152 93.7368 19.1692C93.9077 19.0233 94.0501 18.8791 94.164 18.7367C94.2815 18.5908 94.3687 18.4448 94.4257 18.2989C94.4826 18.1494 94.5111 17.9909 94.5111 17.8236C94.5111 17.4961 94.4185 17.2487 94.2334 17.0814C94.0483 16.9141 93.7653 16.8305 93.3844 16.8305C92.7259 16.8305 92.0958 17.0921 91.4942 17.6154V16.131C92.1599 15.7002 92.911 15.4849 93.7475 15.4849C94.1355 15.4849 94.4826 15.5365 94.7888 15.6397C95.0985 15.7394 95.3601 15.8836 95.5737 16.0722C95.7873 16.2609 95.9492 16.4905 96.0596 16.761C96.1735 17.028 96.2305 17.327 96.2305 17.6581C96.2305 18.0105 96.1753 18.3238 96.0649 18.5979C95.9581 18.872 95.814 19.1212 95.6324 19.3454C95.4544 19.5697 95.248 19.7762 95.013 19.9649C94.7781 20.15 94.5342 20.3297 94.2815 20.5042C94.1106 20.6252 93.9451 20.7462 93.7849 20.8673C93.6283 20.9847 93.4894 21.1022 93.3684 21.2197C93.2474 21.3336 93.1513 21.4457 93.0801 21.5561C93.0089 21.6664 92.9733 21.7714 92.9733 21.8711Z" fill="$digit-color" />
<path d="M93.3369 165.802C93.3369 166.179 93.2711 166.531 93.1394 166.859C93.0076 167.186 92.8243 167.471 92.5894 167.713C92.3544 167.952 92.075 168.14 91.751 168.279C91.4271 168.415 91.0729 168.482 90.6884 168.482C90.2577 168.482 89.8715 168.402 89.5297 168.242C89.1915 168.082 88.905 167.85 88.67 167.548C88.4351 167.242 88.2553 166.868 88.1307 166.426C88.0061 165.985 87.9438 165.485 87.9438 164.926C87.9438 164.267 88.0239 163.671 88.1841 163.137C88.3479 162.6 88.5793 162.14 88.8783 161.759C89.1809 161.379 89.5457 161.085 89.9729 160.878C90.4001 160.668 90.8807 160.563 91.4146 160.563C92.0056 160.563 92.4648 160.633 92.7923 160.772V162.181C92.4043 161.961 91.9806 161.85 91.5214 161.85C91.2366 161.85 90.9786 161.905 90.7472 162.016C90.5158 162.126 90.3164 162.283 90.1491 162.486C89.9854 162.689 89.8554 162.934 89.7593 163.223C89.6668 163.507 89.6169 163.826 89.6098 164.178H89.6419C90.005 163.676 90.5407 163.425 91.2491 163.425C91.5659 163.425 91.8525 163.482 92.1088 163.596C92.3651 163.71 92.584 163.872 92.7656 164.082C92.9471 164.289 93.0877 164.538 93.1874 164.83C93.2871 165.122 93.3369 165.446 93.3369 165.802ZM91.687 165.908C91.687 165.086 91.3506 164.675 90.6778 164.675C90.5247 164.675 90.3859 164.703 90.2613 164.76C90.1367 164.817 90.0299 164.897 89.9409 165.001C89.8519 165.104 89.7825 165.227 89.7326 165.369C89.6864 165.508 89.6632 165.663 89.6632 165.834C89.6632 166.022 89.6881 166.199 89.738 166.362C89.7878 166.526 89.8572 166.67 89.9462 166.795C90.0388 166.916 90.1474 167.012 90.2719 167.083C90.3965 167.154 90.5354 167.19 90.6884 167.19C90.8415 167.19 90.9786 167.16 91.0996 167.099C91.2242 167.035 91.3292 166.948 91.4146 166.838C91.5036 166.724 91.5713 166.588 91.6175 166.432C91.6638 166.272 91.687 166.097 91.687 165.908Z" fill="$digit-color" />
<path d="M125.714 155.329C125.714 155.703 125.649 156.041 125.521 156.344C125.393 156.646 125.21 156.906 124.971 157.123C124.736 157.341 124.452 157.508 124.117 157.625C123.782 157.743 123.41 157.802 123.001 157.802C122.289 157.802 121.76 157.695 121.415 157.481V156.552C121.935 156.887 122.467 157.054 123.012 157.054C123.289 157.054 123.539 157.013 123.759 156.931C123.983 156.849 124.174 156.735 124.331 156.589C124.487 156.443 124.606 156.267 124.688 156.061C124.774 155.854 124.816 155.628 124.816 155.383C124.816 154.884 124.649 154.494 124.315 154.213C123.98 153.928 123.494 153.786 122.857 153.786C122.754 153.786 122.645 153.788 122.531 153.791C122.417 153.795 122.303 153.8 122.189 153.807C122.075 153.811 121.963 153.816 121.853 153.823C121.746 153.831 121.648 153.839 121.559 153.85L121.821 150.011H125.361V150.801H122.579L122.424 153.049C122.538 153.042 122.659 153.037 122.787 153.033C122.916 153.026 123.029 153.022 123.129 153.022C123.535 153.022 123.898 153.076 124.218 153.183C124.539 153.289 124.809 153.443 125.03 153.642C125.254 153.838 125.423 154.08 125.537 154.368C125.655 154.653 125.714 154.973 125.714 155.329Z" fill="$digit-color" />
<path d="M124.405 33.9508H123.53V27.3349C123.462 27.4025 123.362 27.4808 123.231 27.5698C123.102 27.6553 122.956 27.7407 122.793 27.8261C122.633 27.9116 122.462 27.9917 122.28 28.0664C122.102 28.1412 121.928 28.1999 121.757 28.2426V27.3562C121.949 27.3029 122.152 27.2317 122.366 27.1427C122.583 27.0501 122.795 26.9487 123.001 26.8383C123.211 26.7244 123.409 26.6069 123.594 26.4859C123.779 26.3613 123.939 26.2403 124.074 26.1228H124.405V33.9508Z" fill="$digit-color" />
<path d="M152.67 123.309V128.366H153.652V129.167H152.67V130.966H151.805V129.167H148.206V128.409C148.54 128.031 148.879 127.629 149.22 127.202C149.562 126.771 149.888 126.335 150.198 125.894C150.511 125.452 150.799 125.013 151.063 124.575C151.33 124.133 151.554 123.712 151.735 123.309H152.67ZM149.194 128.366H151.805V124.618C151.538 125.084 151.285 125.5 151.047 125.867C150.808 126.234 150.58 126.567 150.363 126.866C150.149 127.165 149.945 127.435 149.749 127.677C149.553 127.919 149.368 128.149 149.194 128.366Z" fill="$digit-color" />
<path d="M152.253 52.3328C152.253 52.0979 152.216 51.8932 152.141 51.7187C152.07 51.5443 151.97 51.4001 151.842 51.2862C151.718 51.1687 151.57 51.0815 151.399 51.0246C151.228 50.9676 151.043 50.9391 150.844 50.9391C150.673 50.9391 150.505 50.9623 150.342 51.0086C150.178 51.0548 150.018 51.1189 149.861 51.2008C149.708 51.2827 149.559 51.3806 149.413 51.4945C149.27 51.6084 149.137 51.7348 149.012 51.8736V50.9338C149.258 50.6953 149.532 50.5137 149.834 50.3892C150.141 50.261 150.513 50.1969 150.95 50.1969C151.264 50.1969 151.554 50.2432 151.821 50.3358C152.088 50.4248 152.319 50.5565 152.515 50.7309C152.711 50.9053 152.864 51.1207 152.974 51.377C153.088 51.6333 153.145 51.927 153.145 52.258C153.145 52.5606 153.109 52.8347 153.038 53.0804C152.971 53.326 152.866 53.5574 152.723 53.7745C152.584 53.9917 152.408 54.1999 152.195 54.3993C151.981 54.5986 151.73 54.8015 151.442 55.008C151.082 55.2643 150.785 55.4832 150.55 55.6648C150.319 55.8463 150.133 56.0172 149.995 56.1774C149.859 56.334 149.763 56.4924 149.706 56.6526C149.653 56.8092 149.626 56.9908 149.626 57.1973H153.439V57.9822H148.713V57.6031C148.713 57.2756 148.749 56.9872 148.82 56.738C148.891 56.4889 149.009 56.2521 149.172 56.0279C149.336 55.8036 149.55 55.5793 149.813 55.3551C150.08 55.1308 150.406 54.878 150.79 54.5968C151.068 54.3975 151.299 54.207 151.484 54.0255C151.673 53.8439 151.824 53.6624 151.938 53.4808C152.052 53.2993 152.132 53.116 152.179 52.9308C152.228 52.7422 152.253 52.5428 152.253 52.3328Z" fill="$digit-color" />
<path d="M162.324 96.0035V94.535C162.837 94.9088 163.435 95.0957 164.118 95.0957C164.549 95.0957 164.884 95.0032 165.122 94.8181C165.364 94.6329 165.485 94.3749 165.485 94.0438C165.485 93.7021 165.336 93.4386 165.037 93.2535C164.741 93.0684 164.334 92.9759 163.814 92.9759H163.104V91.6837H163.761C164.757 91.6837 165.256 91.3526 165.256 90.6905C165.256 90.0675 164.873 89.756 164.108 89.756C163.595 89.756 163.097 89.9216 162.612 90.2526V88.875C163.15 88.6044 163.777 88.4692 164.492 88.4692C165.275 88.4692 165.884 88.6454 166.318 88.9978C166.756 89.3502 166.975 89.8076 166.975 90.3701C166.975 91.3704 166.468 91.9969 165.453 92.2497V92.2764C165.994 92.344 166.421 92.5416 166.735 92.8691C167.048 93.193 167.205 93.5917 167.205 94.0652C167.205 94.7807 166.943 95.3467 166.42 95.7632C165.896 96.1797 165.174 96.3879 164.252 96.3879C163.461 96.3879 162.819 96.2598 162.324 96.0035Z" fill="$digit-color" />
<path d="M19.8147 92.0574C19.8147 92.7374 19.74 93.3461 19.5905 93.8836C19.441 94.4176 19.222 94.8697 18.9337 95.2399C18.6489 95.6101 18.3001 95.8949 17.8871 96.0942C17.4742 96.29 17.0061 96.3879 16.4828 96.3879C15.8563 96.3879 15.3169 96.2882 14.8649 96.0889V94.7006C15.2671 94.964 15.7512 95.0957 16.3172 95.0957C16.8975 95.0957 17.3514 94.8981 17.6789 94.503C18.0064 94.1079 18.1719 93.5365 18.1755 92.789L18.1434 92.7783C17.8052 93.2802 17.2909 93.5312 16.6003 93.5312C16.287 93.5312 15.9969 93.4725 15.7299 93.355C15.4665 93.2375 15.2369 93.0755 15.0411 92.8691C14.8488 92.659 14.6975 92.4099 14.5872 92.1215C14.4804 91.8332 14.427 91.5163 14.427 91.171C14.427 90.7688 14.4929 90.4021 14.6246 90.0711C14.7563 89.74 14.9396 89.4552 15.1746 89.2167C15.4131 88.9782 15.6978 88.7949 16.0289 88.6667C16.36 88.535 16.7266 88.4692 17.1289 88.4692C17.5454 88.4692 17.9192 88.551 18.2502 88.7148C18.5813 88.875 18.8625 89.1082 19.0939 89.4143C19.3288 89.7204 19.5068 90.096 19.6279 90.541C19.7524 90.9859 19.8147 91.4914 19.8147 92.0574ZM18.1114 91.1604C18.1114 90.9646 18.0865 90.7813 18.0366 90.6104C17.9868 90.436 17.9174 90.2864 17.8284 90.1618C17.7394 90.0373 17.6308 89.9394 17.5027 89.8682C17.3745 89.7934 17.2339 89.756 17.0808 89.756C16.9349 89.756 16.7996 89.7881 16.675 89.8521C16.554 89.9162 16.449 90.0052 16.36 90.1191C16.271 90.2295 16.2016 90.363 16.1517 90.5196C16.1019 90.6762 16.077 90.8453 16.077 91.0269C16.077 91.2262 16.1019 91.4042 16.1517 91.5608C16.2016 91.7139 16.271 91.8438 16.36 91.9506C16.4525 92.0574 16.5629 92.1393 16.691 92.1963C16.8192 92.2497 16.9616 92.2764 17.1182 92.2764C17.2677 92.2764 17.403 92.2479 17.524 92.1909C17.6451 92.1304 17.7483 92.0503 17.8337 91.9506C17.9227 91.851 17.9904 91.7335 18.0366 91.5982C18.0865 91.463 18.1114 91.317 18.1114 91.1604Z" fill="$digit-color" />
<path d="M26.0617 127.941C26.0617 127.738 26.0937 127.535 26.1578 127.332C26.2219 127.125 26.3127 126.933 26.4301 126.755C26.5512 126.577 26.6989 126.415 26.8733 126.269C27.0513 126.123 27.2524 126.008 27.4767 125.922C27.1456 125.737 26.8822 125.5 26.6864 125.212C26.4906 124.92 26.3927 124.598 26.3927 124.245C26.3927 123.964 26.4461 123.704 26.5529 123.466C26.6633 123.227 26.8146 123.021 27.0068 122.846C27.199 122.672 27.4269 122.537 27.6903 122.441C27.9537 122.341 28.2385 122.291 28.5446 122.291C28.8543 122.291 29.1409 122.341 29.4043 122.441C29.6678 122.54 29.8956 122.677 30.0878 122.852C30.28 123.026 30.4295 123.233 30.5363 123.471C30.6431 123.71 30.6965 123.968 30.6965 124.245C30.6965 124.598 30.5986 124.92 30.4028 125.212C30.2071 125.5 29.9472 125.737 29.6233 125.922C29.844 126.008 30.0415 126.123 30.216 126.269C30.3904 126.415 30.5363 126.577 30.6538 126.755C30.7748 126.933 30.8674 127.125 30.9315 127.332C30.9956 127.535 31.0276 127.738 31.0276 127.941C31.0276 128.275 30.9671 128.581 30.846 128.859C30.725 129.137 30.5541 129.375 30.3334 129.574C30.1163 129.77 29.8546 129.923 29.5485 130.034C29.2459 130.144 28.9113 130.199 28.5446 130.199C28.1815 130.199 27.8487 130.144 27.5461 130.034C27.2435 129.923 26.9819 129.77 26.7612 129.574C26.5405 129.375 26.3678 129.137 26.2432 128.859C26.1222 128.581 26.0617 128.275 26.0617 127.941ZM27.0122 127.866C27.0122 128.104 27.0477 128.32 27.1189 128.512C27.1937 128.704 27.2969 128.868 27.4286 129.003C27.5639 129.138 27.7259 129.243 27.9146 129.318C28.1068 129.389 28.3186 129.425 28.55 129.425C28.7742 129.425 28.9807 129.388 29.1694 129.313C29.3581 129.238 29.52 129.133 29.6553 128.998C29.7941 128.863 29.9009 128.699 29.9757 128.507C30.054 128.314 30.0931 128.101 30.0931 127.866C30.0931 127.652 30.0558 127.453 29.981 127.268C29.9098 127.079 29.8066 126.914 29.6713 126.771C29.536 126.629 29.3741 126.517 29.1854 126.435C28.9967 126.353 28.7849 126.312 28.55 126.312C28.3293 126.312 28.1246 126.351 27.9359 126.429C27.7508 126.504 27.5888 126.611 27.45 126.75C27.3147 126.885 27.2079 127.049 27.1296 127.241C27.0513 127.43 27.0122 127.638 27.0122 127.866ZM27.2845 124.315C27.2845 124.496 27.3165 124.666 27.3806 124.822C27.4482 124.975 27.539 125.111 27.6529 125.228C27.7704 125.342 27.9057 125.433 28.0587 125.5C28.2118 125.564 28.3756 125.596 28.55 125.596C28.7244 125.596 28.8882 125.563 29.0412 125.495C29.1979 125.427 29.3331 125.337 29.447 125.223C29.561 125.105 29.6517 124.97 29.7194 124.817C29.787 124.66 29.8208 124.493 29.8208 124.315C29.8208 124.13 29.787 123.959 29.7194 123.802C29.6553 123.646 29.5663 123.51 29.4524 123.396C29.3385 123.283 29.2032 123.194 29.0466 123.129C28.8935 123.062 28.728 123.028 28.55 123.028C28.3613 123.028 28.1887 123.062 28.032 123.129C27.879 123.197 27.7455 123.29 27.6316 123.407C27.5212 123.521 27.4358 123.656 27.3752 123.813C27.3147 123.97 27.2845 124.137 27.2845 124.315Z" fill="$digit-color" />
<path d="M56.7857 152.298C56.6683 152.501 56.5259 152.754 56.3586 153.057C56.1948 153.359 56.0204 153.699 55.8353 154.076C55.6502 154.454 55.4615 154.86 55.2693 155.294C55.077 155.728 54.8973 156.177 54.73 156.64C54.5627 157.102 54.4149 157.572 54.2868 158.049C54.1622 158.523 54.0714 158.989 54.0144 159.448H53.0747C53.1387 158.993 53.2366 158.528 53.3683 158.055C53.5036 157.578 53.6549 157.111 53.8222 156.656C53.9931 156.196 54.1729 155.755 54.3615 155.331C54.5502 154.908 54.7335 154.518 54.9115 154.162C55.0895 153.806 55.2515 153.493 55.3974 153.222C55.5469 152.948 55.6662 152.734 55.7552 152.581H51.9159V151.791H56.7857V152.298Z" fill="$digit-color" />
<path d="M29.447 60.6523H28.5713V54.0365C28.5037 54.1041 28.404 54.1824 28.2723 54.2714C28.1442 54.3568 27.9982 54.4423 27.8345 54.5277C27.6743 54.6131 27.5034 54.6932 27.3219 54.768C27.1439 54.8428 26.9694 54.9015 26.7986 54.9442V54.0578C26.9908 54.0044 27.1937 53.9332 27.4073 53.8442C27.6244 53.7517 27.8362 53.6502 28.0427 53.5399C28.2527 53.426 28.4503 53.3085 28.6354 53.1875C28.8205 53.0629 28.9807 52.9418 29.116 52.8244H29.447V60.6523Z" fill="$digit-color" />
<path d="M36.9226 56.7917C36.9226 57.4325 36.8639 58.0003 36.7464 58.4951C36.6325 58.9899 36.4652 59.4082 36.2445 59.7499C36.0273 60.0881 35.7586 60.3462 35.4382 60.5242C35.1214 60.6986 34.76 60.7858 34.3542 60.7858C33.9698 60.7858 33.6262 60.7022 33.3237 60.5349C33.0246 60.364 32.7719 60.1166 32.5654 59.7926C32.359 59.4687 32.2023 59.0718 32.0955 58.6019C31.9887 58.1284 31.9353 57.5874 31.9353 56.9786C31.9353 56.3094 31.9905 55.7185 32.1009 55.2059C32.2148 54.6932 32.3803 54.2643 32.5975 53.919C32.8146 53.5701 33.0834 53.3085 33.4038 53.1341C33.7277 52.9561 34.0979 52.8671 34.5144 52.8671C36.1199 52.8671 36.9226 54.1753 36.9226 56.7917ZM36.0255 56.8772C36.0255 54.6986 35.5076 53.6093 34.4717 53.6093C33.3788 53.6093 32.8324 54.7182 32.8324 56.9359C32.8324 59.0041 33.3682 60.0383 34.4397 60.0383C35.4969 60.0383 36.0255 58.9846 36.0255 56.8772Z" fill="$digit-color" />
<path d="M57.0387 33.9508H56.163V27.3349C56.0954 27.4025 55.9957 27.4808 55.864 27.5698C55.7358 27.6553 55.5899 27.7407 55.4261 27.8261C55.2659 27.9116 55.0951 27.9917 54.9135 28.0664C54.7355 28.1412 54.5611 28.1999 54.3902 28.2426V27.3562C54.5825 27.3029 54.7854 27.2317 54.9989 27.1427C55.2161 27.0501 55.4279 26.9487 55.6344 26.8383C55.8444 26.7244 56.042 26.6069 56.2271 26.4859C56.4122 26.3613 56.5724 26.2403 56.7076 26.1228H57.0387V33.9508Z" fill="$digit-color" />
<path d="M62.9337 33.9508H62.058V27.3349C61.9904 27.4025 61.8907 27.4808 61.759 27.5698C61.6308 27.6553 61.4849 27.7407 61.3211 27.8261C61.1609 27.9116 60.9901 27.9917 60.8085 28.0664C60.6305 28.1412 60.4561 28.1999 60.2852 28.2426V27.3562C60.4775 27.3029 60.6804 27.2317 60.894 27.1427C61.1111 27.0501 61.3229 26.9487 61.5294 26.8383C61.7394 26.7244 61.937 26.6069 62.1221 26.4859C62.3072 26.3613 62.4674 26.2403 62.6027 26.1228H62.9337V33.9508Z" fill="$digit-color" />
</g>
<defs>
<filter id="filter0_d" x="2" y="4" width="178" height="178" filterUnits="userSpaceOnUse" color-interpolation-filters="sRGB">
<feFlood flood-opacity="0" result="BackgroundImageFix"/>
<feColorMatrix in="SourceAlpha" type="matrix" values="0 0 0 0 0 0 0 0 0 0 0 0 0 0 0 0 0 0 127 0" result="hardAlpha"/>
<feOffset dy="2"/>
<feGaussianBlur stdDeviation="2"/>
<feComposite in2="hardAlpha" operator="out"/>
<feColorMatrix type="matrix" values="0 0 0 0 0 0 0 0 0 0 0 0 0 0 0 0 0 0 0.05 0"/>
<feBlend mode="normal" in2="BackgroundImageFix" result="effect1_dropShadow"/>
<feBlend mode="normal" in="SourceGraphic" in2="effect1_dropShadow" result="shape"/>
</filter>
</defs>
</svg>
