<!-- Generated by IcoMoon.io -->
<svg version="1.1" xmlns="http://www.w3.org/2000/svg" width="24" height="24" viewBox="0 0 24 24">
<title>bmp</title>
<path d="M19 14h1v1h-1v-1z"></path>
<path d="M10 14h1v1h-1v-1z"></path>
<path d="M10 17h1v-1h-1v1z"></path>
<path d="M20 12v-4l-6-6h-8c-1.1 0-2 0.9-2 2v16c0 1.1 0.9 2 2 2h12c1.1 0 2-0.9 2-2v-1h2v-7h-2zM13 3.5l5.5 5.5h-5.5v-5.5zM18 20h-12v-16h5v7h7v1h-10v7h10v1zM15 16.5l-1-1.8v3.3h-1v-5h1l1 1.7 1-1.7h1v5h-1v-3.2l-1 1.7zM12 16v1c0 0.6-0.4 1-1 1h-2v-5h2c0.6 0 1 0.4 1 1v1c0 0.2 0 0.4-0.1 0.5 0.1 0.1 0.1 0.3 0.1 0.5zM21 15c0 0.6-0.4 1-1 1h-1v2h-1v-5h2c0.6 0 1 0.4 1 1v1z"></path>
</svg>
