<!-- Generated by IcoMoon.io -->
<svg version="1.1" xmlns="http://www.w3.org/2000/svg" width="24" height="24" viewBox="0 0 24 24">
<title>cart</title>
<path d="M7 18c-1.1 0-1.99 0.9-1.99 2s0.89 2 1.99 2 2-0.9 2-2-0.9-2-2-2zM1 2v2h2l3.6 7.59-1.35 2.45c-0.16 0.28-0.25 0.61-0.25 0.96 0 1.1 0.9 2 2 2h12v-2h-11.58c-0.14 0-0.25-0.11-0.25-0.25l0.030-0.12 0.9-1.63h7.45c0.75 0 1.41-0.41 1.75-1.030l3.58-6.49c0.080-0.14 0.12-0.31 0.12-0.48 0-0.55-0.45-1-1-1h-14.79l-0.94-2h-3.27zM17 18c-1.1 0-1.99 0.9-1.99 2s0.89 2 1.99 2 2-0.9 2-2-0.9-2-2-2z"></path>
</svg>
