<!-- Generated by IcoMoon.io -->
<svg version="1.1" xmlns="http://www.w3.org/2000/svg" width="18" height="18" viewBox="0 0 18 18">
<title>contains</title>
<path d="M9.49 8.11c-0.746 0.018-1.359 0.56-1.489 1.271l-0.001 0.009c-0.007 0.064-0.011 0.139-0.011 0.215s0.004 0.151 0.011 0.224l-0.001-0.009v1c-0.005 0.057-0.008 0.123-0.008 0.19s0.003 0.133 0.009 0.198l-0.001-0.008c0.133 0.685 0.719 1.199 1.428 1.22l0.002 0c1 0 1.59-0.89 1.59-2.21-0.020-1.11-0.51-2.1-1.53-2.1z"></path>
<path d="M6 3v12h7v-12zM9.65 13.29c-0.021 0.001-0.045 0.001-0.069 0.001-0.745 0-1.387-0.443-1.676-1.080l-0.005-0.012v0.95h-0.9c0-0.39 0-1 0-1.48v-6.94h1v3.61c0.322-0.634 0.97-1.061 1.717-1.061 0.026 0 0.051 0 0.076 0.001l-0.004-0c1.3 0 2.22 1.19 2.21 2.93 0 2.050-1.18 3.080-2.35 3.080z"></path>
<path d="M4.9 11.68v-2.28c0.015-0.097 0.024-0.208 0.024-0.321 0-1.209-0.98-2.19-2.19-2.19-0.079 0-0.157 0.004-0.233 0.012l0.010-0.001c-0.016-0-0.034-0-0.052-0-0.739 0-1.432 0.201-2.026 0.551l0.019-0.010 0.26 0.73c0.465-0.285 1.027-0.456 1.629-0.46h0.001c0.051-0.007 0.11-0.011 0.17-0.011 0.701 0 1.27 0.569 1.27 1.27 0 0.057-0.004 0.113-0.011 0.168l0.001-0.006v0.13c-2.42 0-3.77 0.8-3.77 2.27 0.002 0.976 0.794 1.766 1.77 1.766 0.053 0 0.105-0.002 0.157-0.007l-0.007 0c0.017 0 0.037 0.001 0.057 0.001 0.755 0 1.427-0.354 1.859-0.906l0.004-0.005 0.090 0.77h1.070c-0.065-0.39-0.102-0.839-0.102-1.297 0-0.061 0.001-0.122 0.002-0.182l-0 0.009zM3.8 11.090c-0.002 0.126-0.024 0.246-0.062 0.358l0.002-0.008c-0.231 0.591-0.796 1.001-1.457 1.001-0.022 0-0.045-0-0.067-0.001l0.003 0c-0.024 0.002-0.052 0.003-0.081 0.003-0.552 0-1-0.448-1-1 0-0.015 0-0.030 0.001-0.045l-0 0.002c0-1.18 1.41-1.4 2.66-1.4z"></path>
<path d="M18 12.93c-0.4 0.221-0.878 0.351-1.385 0.351-0.026 0-0.052-0-0.078-0.001l0.004 0c-1.54 0.010-2.54-1.28-2.54-3.12s1.070-3.25 2.72-3.25c0.012-0 0.026-0 0.041-0 0.454 0 0.881 0.115 1.253 0.317l-0.014-0.007-0.21 0.86c-0.282-0.183-0.627-0.291-0.997-0.291-0.026 0-0.051 0.001-0.077 0.002l0.004-0c-1.16 0-1.79 1-1.79 2.32s0.75 2.29 1.76 2.29c0.003 0 0.007 0 0.010 0 0.412 0 0.799-0.111 1.13-0.306l-0.011 0.006z"></path>
</svg>
