<!-- Generated by IcoMoon.io -->
<svg version="1.1" xmlns="http://www.w3.org/2000/svg" width="24" height="24" viewBox="0 0 24 24">
<title>exportpdf</title>
<path d="M10.92 10.1c0.048-0.426 0.077-0.923 0.080-1.426l0-0.004c0-1.76-0.42-2.61-0.79-2.83-0.27 0.34-0.37 1.28 0.19 2.94 0.183 0.544 0.359 0.981 0.556 1.406l-0.036-0.086z"></path>
<path d="M5.68 18.2c0.42 0.080 1.24-0.3 2.34-1.63 0.272-0.33 0.545-0.699 0.799-1.081l0.031-0.049c-0.489 0.228-0.889 0.445-1.276 0.682l0.056-0.032c-1.45 0.91-1.95 1.67-1.95 2.11z"></path>
<path d="M11.11 11.85q-0.19 0.61-0.4 1.22t-0.45 1.2l1.21-0.27 1.22-0.2q-0.41-0.47-0.81-1t-0.77-0.95z"></path>
<path d="M16 14.64c-0.327-0.067-0.731-0.124-1.141-0.157l-0.039-0.003c0.285 0.217 0.612 0.438 0.95 0.642l0.050 0.028c1.27 0.75 2.060 0.8 2.38 0.61-0.15-0.36-0.78-0.84-2.2-1.12z"></path>
<path d="M19 3h-14c-1.105 0-2 0.895-2 2v0 14c0 1.105 0.895 2 2 2v0h14c1.105 0 2-0.895 2-2v0-14c0-1.105-0.895-2-2-2v0zM18.59 16.56c-0.5 0.43-1.46 0.73-3.22-0.3-0.786-0.479-1.467-1.008-2.083-1.603l0.003 0.003c-1.176 0.095-2.262 0.301-3.304 0.609l0.114-0.029c-0.426 0.853-0.902 1.588-1.448 2.263l0.018-0.023c-0.97 1.18-1.78 1.52-2.38 1.52-0.001 0-0.003 0-0.004 0-0.196 0-0.384-0.037-0.556-0.104l0.011 0.004c-0.383-0.152-0.664-0.486-0.739-0.893l-0.001-0.007c-0.11-0.67 0.12-1.68 1.86-2.75 0.679-0.413 1.463-0.775 2.289-1.047l0.081-0.023c0.23-0.49 0.44-1 0.63-1.55s0.35-1.080 0.48-1.61c-0.434-0.688-0.822-1.48-1.123-2.314l-0.027-0.086c-0.67-2-0.23-2.9 0.27-3.34 0.189-0.179 0.446-0.289 0.728-0.289 0.145 0 0.283 0.029 0.409 0.082l-0.007-0.003c0.61 0.24 1.33 1 1.35 3-0.005 0.949-0.114 1.869-0.316 2.755l0.016-0.085c0.29 0.45 0.62 0.9 1 1.34s0.73 0.86 1.1 1.24c0.178-0.010 0.386-0.016 0.596-0.016 0.701 0 1.388 0.064 2.054 0.186l-0.069-0.011c2 0.38 2.54 1.25 2.65 1.92 0.021 0.082 0.033 0.176 0.033 0.273 0 0.355-0.16 0.673-0.411 0.886l-0.002 0.001z"></path>
</svg>
