<svg xmlns="http://www.w3.org/2000/svg" width="24" height="24" viewBox="0 0 24 24">
<title>eyeclose</title>
<path d="M2 5.27l1.28-1.27 16.72 16.72-1.27 1.28-3.080-3.080c-1.15 0.38-2.37 0.58-3.65 0.58-5 0-9.27-3.11-11-7.5 0.69-1.76 1.79-3.31 3.19-4.54l-2.19-2.19zM12 9c0.796 0 1.559 0.316 2.121 0.879s0.879 1.326 0.879 2.121c0 0.35-0.060 0.69-0.17 1l-3.83-3.83c0.31-0.11 0.65-0.17 1-0.17zM12 4.5c5 0 9.27 3.11 11 7.5-0.82 2.080-2.21 3.88-4 5.19l-1.42-1.43c1.36-0.94 2.48-2.22 3.24-3.76-1.65-3.36-5.060-5.5-8.82-5.5-1.090 0-2.16 0.18-3.16 0.5l-1.54-1.53c1.44-0.62 3.030-0.97 4.7-0.97zM3.18 12c1.65 3.36 5.060 5.5 8.82 5.5 0.69 0 1.37-0.070 2-0.21l-2.28-2.29c-1.43-0.15-2.57-1.29-2.72-2.72l-3.4-3.41c-0.99 0.85-1.82 1.91-2.42 3.13z"></path>
</svg>
