<!-- Generated by IcoMoon.io -->
<svg version="1.1" xmlns="http://www.w3.org/2000/svg" width="24" height="24" viewBox="0 0 24 24">
<title>mention</title>
<path d="M21.333 11.693c-0.020 1.423-0.52 2.726-1.343 3.759l0.010-0.012c-0.872 0.988-2.141 1.608-3.555 1.608-0.157 0-0.312-0.008-0.465-0.023l0.019 0.002c-0.017 0-0.036 0.001-0.056 0.001-0.528 0-1.017-0.165-1.419-0.446l0.008 0.005c-0.413-0.3-0.721-0.721-0.875-1.21l-0.005-0.017c-0.534 0.985-1.56 1.643-2.74 1.643-0.045 0-0.089-0.001-0.133-0.003l0.006 0c-0.042 0.002-0.090 0.004-0.139 0.004-0.923 0-1.736-0.469-2.215-1.181l-0.006-0.010c-0.401-0.659-0.639-1.456-0.639-2.309 0-0.296 0.029-0.586 0.083-0.866l-0.005 0.028c0.119-1.527 0.687-2.902 1.572-4.015l-0.012 0.015c0.727-0.954 1.856-1.568 3.13-1.587l0.003-0c0.064-0.002 0.139-0.004 0.215-0.004 0.646 0 1.269 0.094 1.858 0.269l-0.046-0.012c0.646 0.233 1.2 0.503 1.72 0.823l-0.040-0.023-0.56 5.72c-0.027 0.13-0.042 0.28-0.042 0.433 0 0.326 0.070 0.635 0.195 0.915l-0.006-0.014c0.125 0.209 0.351 0.347 0.608 0.347 0.006 0 0.013-0 0.019-0l-0.001 0c0.009 0 0.019 0 0.029 0 0.831 0 1.562-0.432 1.978-1.084l0.006-0.009c0.513-0.779 0.825-1.732 0.84-2.756l0-0.004c0.032-0.264 0.051-0.569 0.051-0.879 0-1.741-0.58-3.346-1.558-4.633l0.014 0.019c-1.159-1.22-2.793-1.979-4.605-1.979-0.172 0-0.342 0.007-0.511 0.020l0.022-0.001c-0.11-0.006-0.238-0.010-0.368-0.010-1.953 0-3.715 0.817-4.963 2.127l-0.003 0.003c-1.293 1.503-2.080 3.474-2.080 5.628 0 0.009 0 0.018 0 0.027v-0.001c-0.032 0.262-0.050 0.566-0.050 0.875 0 1.787 0.617 3.43 1.649 4.728l-0.012-0.016c1.175 1.293 2.864 2.102 4.742 2.102 0.119 0 0.237-0.003 0.354-0.010l-0.016 0.001c0.677-0.003 1.335-0.076 1.97-0.211l-0.063 0.011c0.644-0.122 1.212-0.293 1.753-0.515l-0.060 0.022 0.413 1.467c-0.535 0.295-1.157 0.522-1.814 0.647l-0.039 0.006c-0.648 0.141-1.393 0.223-2.157 0.227h-0.003c-0.17 0.012-0.368 0.019-0.568 0.019-2.377 0-4.531-0.954-6.1-2.5l0.001 0.001c-1.367-1.561-2.201-3.619-2.201-5.872 0-0.346 0.020-0.687 0.058-1.023l-0.004 0.041c0.023-2.638 1.082-5.024 2.789-6.775l-0.002 0.002c1.67-1.59 3.936-2.568 6.43-2.568 0.135 0 0.269 0.003 0.403 0.009l-0.019-0.001c0.168-0.012 0.363-0.019 0.561-0.019 2.304 0 4.391 0.929 5.906 2.433l-0.001-0.001c1.321 1.527 2.125 3.532 2.125 5.725 0 0.313-0.016 0.622-0.048 0.927l0.003-0.038zM10.333 12.653c-0.028 0.174-0.043 0.374-0.043 0.579 0 0.486 0.089 0.952 0.252 1.381l-0.009-0.027c0.157 0.387 0.53 0.654 0.966 0.654 0.017 0 0.033-0 0.050-0.001l-0.002 0c0.007 0 0.015 0 0.023 0 0.396 0 0.769-0.099 1.096-0.273l-0.013 0.006c0.384-0.23 0.69-0.556 0.887-0.947l0.006-0.013 0.48-4.96-0.507-0.107c-0.078-0.006-0.168-0.010-0.26-0.010s-0.182 0.004-0.272 0.011l0.012-0.001c-0.028-0.001-0.060-0.002-0.093-0.002-0.732 0-1.375 0.38-1.742 0.954l-0.005 0.008c-0.455 0.791-0.756 1.726-0.838 2.723l-0.002 0.024z"></path>
</svg>
