<svg xmlns="http://www.w3.org/2000/svg" width="24" height="24" viewBox="0 0 24 24">
<title>moon</title>
<path d="M17 13c-3.314 0-6-2.687-6-6 0-1.53 0.573-2.926 1.515-3.985-0.171-0.010-0.342-0.015-0.515-0.015-4.971 0-9 4.029-9 9s4.029 9 9 9c4.971 0 9-4.029 9-9 0-0.173-0.005-0.345-0.015-0.515-1.060 0.942-2.456 1.515-3.986 1.515zM5 12c0-2.974 1.855-5.515 4.471-6.529-0.304 0.785-0.471 1.637-0.471 2.529 0 3.866 3.134 7 7 7 0.892 0 1.745-0.167 2.529-0.471-1.014 2.616-3.555 4.471-6.529 4.471-3.866 0-7-3.134-7-7z"></path>
</svg>
