<!-- Generated by IcoMoon.io -->
<svg version="1.1" xmlns="http://www.w3.org/2000/svg" width="24" height="24" viewBox="0 0 24 24">
<title>past-free</title>
<path d="M14.82 2h4.18c1.1 0 2 0.9 2 2v6h-2v-6h-2v3h-10v-3h-2v16h6.5l-0.802 2h-5.698c-1.1 0-2-0.9-2-2v-16c0-1.1 0.9-2 2-2h4.18c0.42-1.16 1.52-2 2.82-2s2.4 0.84 2.82 2zM13 3c0-0.55-0.45-1-1-1s-1 0.45-1 1c0 0.55 0.45 1 1 1s1-0.45 1-1z"></path>
<path d="M20.615 20.733h-4.239l-0.806 2.266h-2.571l4.368-11h2.24l4.392 11h-2.571l-0.814-2.266zM17.029 18.898h2.933l-1.475-4.117-1.459 4.118z"></path>
</svg>
