<!-- Generated by IcoMoon.io -->
<svg version="1.1" xmlns="http://www.w3.org/2000/svg" width="18" height="18" viewBox="0 0 18 18">
<title>startswith</title>
<path d="M9.49 8.11c-0.746 0.018-1.359 0.56-1.489 1.271l-0.001 0.009c-0.007 0.064-0.011 0.139-0.011 0.215s0.004 0.151 0.011 0.224l-0.001-0.009v1c-0.005 0.057-0.008 0.123-0.008 0.19s0.003 0.133 0.009 0.198l-0.001-0.008c0.133 0.685 0.719 1.199 1.428 1.22l0.002 0c1 0 1.59-0.89 1.59-2.21-0.020-1.11-0.51-2.1-1.53-2.1z"></path>
<path d="M2.14 11.4c-0.001 0.019-0.002 0.041-0.002 0.063 0 0.552 0.448 1 1 1 0.025 0 0.050-0.001 0.075-0.003l-0.003 0c0.019 0.001 0.041 0.001 0.063 0.001 0.661 0 1.225-0.411 1.453-0.991l0.004-0.011c0.036-0.104 0.058-0.224 0.060-0.349l0-0.001v-1.11c-1.24 0-2.65 0.22-2.65 1.4z"></path>
<path d="M0 3v12h13v-12zM5 13.15l-0.090-0.77c-0.436 0.556-1.108 0.911-1.863 0.911-0.020 0-0.040-0-0.060-0.001l0.003 0c-0.066 0.009-0.142 0.014-0.22 0.014-0.978 0-1.77-0.792-1.77-1.77 0-0.001 0-0.003 0-0.004v0c0-1.48 1.35-2.29 3.77-2.27v-0.13c0.006-0.045 0.009-0.098 0.009-0.151 0-0.701-0.569-1.27-1.27-1.27-0.060 0-0.118 0.004-0.176 0.012l0.007-0.001c-0.603 0.004-1.165 0.175-1.644 0.468l0.014-0.008-0.26-0.73c0.58-0.346 1.278-0.55 2.024-0.55 0.012 0 0.025 0 0.037 0l-0.002-0c0.067-0.007 0.145-0.011 0.224-0.011 1.209 0 2.19 0.98 2.19 2.19 0 0.113-0.009 0.225-0.025 0.334l0.002-0.012v2.29c-0.001 0.049-0.002 0.107-0.002 0.164 0 0.457 0.037 0.906 0.108 1.344l-0.006-0.048zM9.69 13.29c-0.032 0.002-0.070 0.003-0.108 0.003-0.746 0-1.388-0.444-1.677-1.082l-0.005-0.012v0.95h-0.9c0-0.39 0-1 0-1.48v-6.94h1v3.61c0.322-0.634 0.97-1.061 1.717-1.061 0.026 0 0.051 0 0.076 0.001l-0.004-0c1.3 0 2.22 1.19 2.21 2.93 0 2.050-1.18 3.080-2.35 3.080z"></path>
<path d="M18 12.93c-0.4 0.221-0.878 0.351-1.385 0.351-0.026 0-0.052-0-0.078-0.001l0.004 0c-1.54 0.010-2.54-1.28-2.54-3.12s1.070-3.25 2.72-3.25c0.012-0 0.026-0 0.041-0 0.454 0 0.881 0.115 1.253 0.317l-0.014-0.007-0.21 0.86c-0.282-0.183-0.627-0.291-0.997-0.291-0.026 0-0.051 0.001-0.077 0.002l0.004-0c-1.16 0-1.79 1-1.79 2.32s0.75 2.29 1.76 2.29c0.003 0 0.007 0 0.010 0 0.412 0 0.799-0.111 1.13-0.306l-0.011 0.006z"></path>
</svg>
