<!-- Generated by IcoMoon.io -->
<svg version="1.1" xmlns="http://www.w3.org/2000/svg" width="24" height="24" viewBox="0 0 24 24">
<title>subscript</title>
<path d="M24 24h-5.213v-0.907l2.547-2.8c0.322-0.333 0.608-0.705 0.851-1.105l0.016-0.028c0.145-0.249 0.234-0.547 0.24-0.865l0-0.002c0-0.012 0.001-0.027 0.001-0.042 0-0.325-0.116-0.622-0.309-0.854l0.002 0.002c-0.192-0.221-0.473-0.361-0.788-0.361-0.014 0-0.027 0-0.041 0.001l0.002-0c-0.025-0.002-0.055-0.003-0.085-0.003-0.368 0-0.701 0.149-0.942 0.389l0-0c-0.209 0.268-0.336 0.609-0.336 0.981 0 0.030 0.001 0.060 0.003 0.090l-0-0.004h-1.28c-0.002-0.038-0.004-0.083-0.004-0.129 0-0.643 0.261-1.224 0.683-1.644l0-0c0.476-0.449 1.12-0.725 1.828-0.725 0.056 0 0.112 0.002 0.167 0.005l-0.008-0c0.040-0.002 0.087-0.004 0.135-0.004 0.636 0 1.215 0.239 1.654 0.632l-0.002-0.002c0.404 0.393 0.655 0.942 0.655 1.55 0 0.032-0.001 0.063-0.002 0.095l0-0.004c0 0.005 0 0.010 0 0.015 0 0.49-0.144 0.946-0.392 1.328l0.006-0.009c-0.368 0.565-0.755 1.057-1.179 1.513l0.006-0.007-1.747 1.853h3.533z"></path>
<path d="M9.6 2.667h-3.2l-6.4 18.667h2.787l1.667-5.333h7.093l1.667 5.333h2.787zM5.16 13.333s2.667-7.24 2.667-7.453h0.227c0 0.213 2.667 7.453 2.667 7.453z"></path>
</svg>
