<!-- Generated by IcoMoon.io -->
<svg version="1.1" xmlns="http://www.w3.org/2000/svg" width="24" height="24" viewBox="0 0 24 24">
<title>table-remove-row</title>
<path d="M20 1h-16c-1.105 0-2 0.895-2 2v0 5h20v-5c0-1.105-0.895-2-2-2v0zM16 6v-3h4v3zM10 6v-3h4v3zM4 6v-3h4v3z"></path>
<path d="M22 16h-20v5c0 1.105 0.895 2 2 2v0h16c1.105 0 2-0.895 2-2v0-5zM16 21v-3h4v3zM10 21v-3h4v3zM4 21v-3h4v3z"></path>
<path d="M15.54 9.88l-1.42-1.42-2.12 2.13-2.12-2.13-1.42 1.42 2.13 2.12-2.13 2.12 1.42 1.42 2.12-2.13 2.12 2.13 1.42-1.42-2.13-2.12 2.13-2.12z"></path>
<path d="M17 9h7v6h-7v-6z"></path>
<path d="M0 9h7v6h-7v-6z"></path>
</svg>
