<!-- Generated by IcoMoon.io -->
<svg version="1.1" xmlns="http://www.w3.org/2000/svg" width="24" height="24" viewBox="0 0 24 24">
<title>table-remove-column</title>
<path d="M8 2h-5c-1.105 0-2 0.895-2 2v0 16c0 1.105 0.895 2 2 2v0h5v-20zM3 8v-4h3v4zM3 14v-4h3v4zM3 20v-4h3v4z"></path>
<path d="M21 2h-5v20h5c1.105 0 2-0.895 2-2v0-16c0-1.105-0.895-2-2-2v0zM18 8v-4h3v4zM18 14v-4h3v4zM18 20v-4h3v4z"></path>
<path d="M15.54 9.88l-1.42-1.42-2.12 2.13-2.12-2.13-1.42 1.42 2.13 2.12-2.13 2.12 1.42 1.42 2.12-2.13 2.12 2.13 1.42-1.42-2.13-2.12 2.13-2.12z"></path>
<path d="M9 0h6v7h-6v-7z"></path>
<path d="M9 17h6v7h-6v-7z"></path>
</svg>
