<!-- Generated by IcoMoon.io -->
<svg version="1.1" xmlns="http://www.w3.org/2000/svg" width="24" height="24" viewBox="0 0 24 24">
<title>table-row-properties</title>
<path d="M20 2h-16c-1.105 0-2 0.895-2 2v0 3h-1v10h1v3c0 1.105 0.895 2 2 2v0h9v-2h-3v-3h4v0.43l3.43-3.43h-1.43v-4h4v3h3v-6h-1v-3c0-1.105-0.895-2-2-2v0zM16 7v-3h4v3zM10 7v-3h4v3zM4 7v-3h4v3zM10 14v-4h4v4zM4 14v-4h4v4zM4 20v-3h4v3z"></path>
<path d="M23.56 16.59l-1.15-1.15c-0.27-0.273-0.645-0.443-1.060-0.443s-0.79 0.169-1.060 0.443l-5.29 5.29v3.27h3.27l5.29-5.29c0.273-0.27 0.443-0.645 0.443-1.060s-0.169-0.79-0.443-1.060l-0-0zM17.56 22.45h-1v-1l3.44-3.45 1 1z"></path>
</svg>
