<!-- Generated by IcoMoon.io -->
<svg version="1.1" xmlns="http://www.w3.org/2000/svg" width="24" height="24" viewBox="0 0 24 24">
<title>tips</title>
<path d="M9 17h6v1h-6v-1z"></path>
<path d="M9 19h6v1h-6v-1z"></path>
<path d="M10 21h4v1h-4v-1z"></path>
<path d="M12 4c2.8 0 5 2.2 5 5 0 2.1-0.8 2.8-1.9 3.6-0.5 0.4-1 0.8-1.4 1.4h-3.3c-0.4-0.6-1-1-1.4-1.4-1.2-0.8-2-1.5-2-3.6 0-2.8 2.2-5 5-5zM12 2c-3.9 0-7 3.1-7 7 0 5 4 5 4 7 0.5 0 1.7 0 3 0s2.5 0 3 0c0-2 4-2 4-7 0-3.9-3.1-7-7-7v0z"></path>
<path d="M12 11.9l-1.6-2.6-0.5 0.6-0.8-0.8 1.5-1.4 1.4 2.4 1.4-2.3 1.4 1.3-0.6 0.8-0.6-0.5z"></path>
</svg>
