<?xml version="1.0" encoding="UTF-8" standalone="no"?>
<svg
   xmlns:dc="http://purl.org/dc/elements/1.1/"
   xmlns:cc="http://creativecommons.org/ns#"
   xmlns:rdf="http://www.w3.org/1999/02/22-rdf-syntax-ns#"
   xmlns:svg="http://www.w3.org/2000/svg"
   xmlns="http://www.w3.org/2000/svg"
   xmlns:sodipodi="http://sodipodi.sourceforge.net/DTD/sodipodi-0.dtd"
   xmlns:inkscape="http://www.inkscape.org/namespaces/inkscape"
   width="800pt"
   height="533pt"
   viewBox="0 0 800 533"
   version="1.1"
   id="svg2999"
   inkscape:version="0.48.2 r9819"
   sodipodi:docname="Flag of Alexandria.svg">
  <metadata
     id="metadata3011">
    <rdf:RDF>
      <cc:Work
         rdf:about="">
        <dc:format>image/svg+xml</dc:format>
        <dc:type
           rdf:resource="http://purl.org/dc/dcmitype/StillImage" />
        <dc:title></dc:title>
      </cc:Work>
    </rdf:RDF>
  </metadata>
  <defs
     id="defs3009" />
  <sodipodi:namedview
     pagecolor="#ffffff"
     bordercolor="#666666"
     borderopacity="1"
     objecttolerance="10"
     gridtolerance="10"
     guidetolerance="10"
     inkscape:pageopacity="0"
     inkscape:pageshadow="2"
     inkscape:window-width="1360"
     inkscape:window-height="706"
     id="namedview3007"
     showgrid="false"
     inkscape:zoom="1"
     inkscape:cx="500"
     inkscape:cy="391.94274"
     inkscape:window-x="-8"
     inkscape:window-y="-8"
     inkscape:window-maximized="1"
     inkscape:current-layer="svg2999" />
  <g
     id="#57abdfff">
    <path
       fill="#57abdf"
       opacity="1.00"
       d=" M 0.00 0.00 L 800.00 0.00 L 800.00 416.00 C 533.33 416.00 266.67 416.00 0.00 416.00 L 0.00 0.00 Z"
       id="path3002" />
  </g>
  <g
     id="#ffd500ff">
    <path
       fill="#ffd500"
       opacity="1.00"
       d=" M 0.00 416.00 C 266.67 416.00 533.33 416.00 800.00 416.00 L 800.00 533.00 L 0.00 533.00 L 0.00 416.00 Z"
       id="path3005" />
  </g>
  <g
     id="#fffffeff"
     transform="matrix(1.4598582,0,0,1.2210526,158.73261,43.778948)">
    <path
       id="path3067"
       d="m 5.21,1.14 c 1.96,-0.31 3.82,0.51 5.72,0.83 44.04,8.65 88.05,17.39 132.09,26.02 1.74,0.25 3.43,0.75 5.12,1.24 -0.01,1.55 -0.02,3.1 -0.02,4.66 -8.34,-1.25 -16.8,-0.66 -25.13,-1.9 -8.53,0.21 -16.95,-1.41 -25.48,-1.2 C 90.09,29.5 82.54,30.35 75.12,29.12 70.47,28.65 65.76,29.2 61.13,28.43 55.81,27.48 50.39,28.28 45.06,27.5 38.78,26.39 32.35,27.4 26.08,26.17 20.52,25.14 14.29,27.24 9.2,24.28 c 2.27,-2.33 6,-0.81 8.89,-0.96 6.54,1.28 13.24,0.27 19.79,1.43 4.98,0.71 10.05,-0.01 15.02,0.81 5.6,1.01 11.33,0.09 16.93,1.07 5.39,0.9 10.9,0.05 16.3,0.98 5.29,0.9 10.69,0.11 15.99,0.94 5.56,0.99 11.25,0.14 16.81,1.06 5.35,0.9 10.81,0.1 16.17,0.96 3.22,0.49 6.54,0.58 9.73,-0.18 C 134.44,29.1 124.27,26.53 113.97,24.72 89.37,19.79 64.69,15.22 40.12,10.16 29,8.24 17.97,5.81 6.85,3.83 5.49,4.04 3.18,2.42 5.21,1.14 z"
       inkscape:connector-curvature="0"
       style="fill:#fffffe" />
    <path
       id="path3069"
       d="m 308.18,1.89 c 1.55,-0.66 3.24,-0.78 4.91,-0.89 0.24,0.43 0.74,1.3 0.98,1.74 -1.56,1.07 -3.43,1.22 -5.25,1.36 -13.59,2.94 -27.29,5.47 -40.96,8.05 -19.55,4.06 -39.19,7.68 -58.77,11.61 -11.94,2.11 -23.75,5.12 -35.79,6.58 2.88,0.76 5.88,0.96 8.82,0.37 5.2,-0.98 10.51,-0.28 15.74,-0.93 6.95,-1.13 14.03,-0.25 20.97,-1.53 8.77,0.15 17.43,-1.44 26.2,-1.25 5.65,-0.96 11.37,-0.85 17.07,-1.05 7.9,-1.29 15.93,-0.53 23.83,-1.79 7.09,0.42 14.06,-1.27 21.13,-1.04 0.54,0.28 1.63,0.84 2.17,1.12 -5.64,2.94 -12.24,0.87 -18.27,2.06 -5.58,1.04 -11.28,0.16 -16.86,1.05 -4.66,0.81 -9.39,0.34 -14.08,0.72 -7.64,1.29 -15.43,0.43 -23.08,1.72 -8.35,-0.21 -16.59,1.43 -24.94,1.18 -5.66,0.74 -11.34,1.03 -17.05,1.03 -8.1,1.33 -16.38,0.45 -24.46,2.01 16.82,0.46 33.67,0.5 50.49,1.04 21.24,0.07 42.49,-0.01 63.73,0.14 0.39,0.42 1.17,1.27 1.56,1.69 -1.32,0.67 -2.74,1.07 -4.23,0.9 -15,-0.16 -30.01,-0.46 -45,-0.84 -22.39,-0.01 -44.78,-0.05 -67.17,-0.11 0.01,-2.56 0.01,-5.11 -0.01,-7.67 41.51,-8.48 83.14,-16.38 124.68,-24.72 1.24,-0.24 2.48,-0.38 3.74,-0.42 0.38,-0.22 1.14,-0.65 1.52,-0.86 0.84,-0.04 2.52,-0.12 3.36,-0.16 1.55,-0.82 3.31,-0.91 5.02,-1.11 z"
       inkscape:connector-curvature="0"
       style="fill:#fffffe" />
    <path
       id="path3071"
       d="m 149.6,15.64 c 2.74,-2.91 5.45,-5.88 8.41,-8.57 0.47,0.04 1.41,0.13 1.88,0.17 3.35,2.99 5.95,6.79 9.23,9.89 -3.88,0.62 -2.15,4.72 -2.53,7.44 0.56,0.2 1.67,0.62 2.23,0.82 -0.23,11.53 -0.32,23.09 -0.06,34.6 -0.19,0.17 -0.57,0.52 -0.76,0.69 -5.98,-0.01 -12.26,0.42 -18.07,-0.34 -0.11,-11.16 -0.06,-22.33 -0.03,-33.49 1.12,-2.7 1.21,-5.58 1.09,-8.47 -1.58,-0.08 -3.03,-1.51 -1.39,-2.74 m 4.01,9.34 c 3.57,-0.1 7.14,-0.03 10.7,-0.04 -0.02,-2.32 -0.05,-4.65 -0.07,-6.97 -3.53,0 -7.06,0.02 -10.59,-0.06 0.08,2.36 0.08,4.72 -0.04,7.07 m 1.14,2.2 c 0,9.12 0.18,18.24 -0.12,27.35 3.25,0.27 6.55,0.45 9.78,-0.17 -0.88,-9.05 -0.08,-18.13 -0.26,-27.21 -0.42,-0.03 -1.27,-0.1 -1.69,-0.13 -0.02,8.72 0.18,17.45 -0.11,26.16 -1.99,-0.05 -3.98,-0.19 -5.94,-0.5 0.03,-8.57 -0.01,-17.14 0.02,-25.71 l -1.68,0.21 z"
       inkscape:connector-curvature="0"
       style="fill:#fffffe" />
    <path
       id="path3073"
       d="m 33.31,35.21 c 21.22,-0.19 42.44,-0.09 63.65,-0.15 17.05,-0.44 34.1,-0.8 51.16,-0.88 0,0.64 0.01,1.93 0.01,2.58 -22.02,0.22 -44.05,0.12 -66.07,0.18 -15.7,0.36 -31.39,0.74 -47.09,0.84 -1.13,0.04 -2.13,-0.3 -3.02,-1.04 0.34,-0.38 1.02,-1.15 1.36,-1.53 z"
       inkscape:connector-curvature="0"
       style="fill:#fffffe" />
    <path
       id="path3075"
       d="m 121.93,40.21 c 8.77,0.13 17.43,-1.56 26.21,-1.14 0,0.44 0,1.32 0.01,1.76 -8.67,1.11 -17.42,0.82 -26.08,1.92 -3.66,0.28 -7.34,-0.01 -10.99,0.42 -7.29,1.06 -14.68,0.47 -21.97,1.6 -7.72,-0.17 -15.34,1.3 -23.06,1.16 -7.05,0.18 -14.4,2.22 -21.29,0.22 8.65,-2.97 18.31,-1.31 27.33,-2.87 8.71,0.02 17.33,-1.37 26.05,-1.31 7.89,-1.15 15.9,-0.62 23.79,-1.76 z"
       inkscape:connector-curvature="0"
       style="fill:#fffffe" />
    <path
       id="path3077"
       d="m 169.84,38.85 c 9.09,0.06 18.09,1.39 27.18,1.4 7.58,1.15 15.29,0.56 22.88,1.72 8.42,-0.11 16.73,1.34 25.15,1.25 8.97,1.1 18.02,0.84 26.98,2 0.3,0.37 0.89,1.1 1.19,1.47 -5.56,0.49 -11.18,0.26 -16.71,-0.44 -4.79,-0.61 -9.64,-0.08 -14.42,-0.79 -5.63,-0.91 -11.37,-0.22 -17.01,-1.08 -5.35,-0.81 -10.79,-0.16 -16.14,-0.99 -5.32,-0.83 -10.72,-0.17 -16.04,-0.96 -5.25,-0.87 -10.6,-0.22 -15.86,-0.97 -2.38,-0.34 -4.77,-0.45 -7.17,-0.37 -0.01,-0.56 -0.02,-1.68 -0.03,-2.24 z"
       inkscape:connector-curvature="0"
       style="fill:#fffffe" />
    <path
       id="path3079"
       d="m 75.93,52.09 c 24.01,-3.33 48.06,-6.46 72.05,-9.95 0.23,2.45 0.12,4.91 -0.05,7.35 -15.28,4.74 -30.45,9.85 -45.68,14.78 -2.02,0.63 -3.98,1.52 -6.11,1.72 -1.54,-1.47 0.94,-2.32 1.96,-2.73 14.36,-4.64 28.68,-9.38 43.04,-14.01 -0.47,-0.03 -1.4,-0.09 -1.87,-0.12 -19.73,4.56 -39.39,9.48 -59.15,13.93 -0.33,-1.36 0.11,-2.2 1.33,-2.54 19.26,-4.57 38.51,-9.15 57.76,-13.76 2.2,-0.56 4.51,-0.82 6.56,-1.85 -28.31,3.74 -56.62,7.66 -84.92,11.52 -1.47,0.68 -2.53,-0.12 -3.34,-1.34 5.94,-1.86 12.3,-1.92 18.42,-3 z"
       inkscape:connector-curvature="0"
       style="fill:#fffffe" />
    <path
       id="path3081"
       d="m 169.87,41.95 c 30.1,4.82 60.47,8.09 90.59,12.83 -0.29,0.48 -0.86,1.45 -1.15,1.93 -18.76,-2.61 -37.54,-5.11 -56.3,-7.71 -10.27,-1.1 -20.49,-3.3 -30.8,-3.72 21.3,4.79 42.49,10.13 63.77,15.05 1.53,0.1 2.21,1.24 2.04,2.7 -19.71,-4.37 -39.29,-9.34 -58.97,-13.84 -0.52,0.05 -1.57,0.15 -2.1,0.2 13.44,3.94 26.65,8.64 40.01,12.88 2.13,0.64 4.25,1.36 6.08,2.68 -0.54,0.23 -1.61,0.7 -2.15,0.93 -17.03,-5.42 -33.93,-11.28 -51.03,-16.47 0.02,-2.49 0.02,-4.97 0.01,-7.46 z"
       inkscape:connector-curvature="0"
       style="fill:#fffffe" />
    <path
       id="path3083"
       d="m 141.87,54.81 c 2.08,0 4.17,-0.01 6.25,-0.01 0,1.85 0,3.71 0.02,5.56 -2.09,0.15 -4.19,0.17 -6.28,0.16 0.01,-1.91 0.01,-3.81 0.01,-5.71 z"
       inkscape:connector-curvature="0"
       style="fill:#fffffe" />
    <path
       id="path3085"
       d="m 170.17,54.8 c 2.03,-0.04 4.06,-0.05 6.1,-0.06 -0.03,2 -0.04,4 -0.11,6 -1.94,-0.31 -4.15,0.27 -5.93,-0.66 -0.12,-1.76 -0.07,-3.52 -0.06,-5.28 z"
       inkscape:connector-curvature="0"
       style="fill:#fffffe" />
    <path
       id="path3087"
       d="m 134.27,62.53 c 4.09,-0.15 8.18,0.41 12.28,0.28 0.02,1.33 0.04,2.67 0.05,4.01 -4.14,0.05 -8.27,0.37 -12.4,0.18 0,-1.49 0.01,-2.98 0.07,-4.47 z"
       inkscape:connector-curvature="0"
       style="fill:#fffffe" />
    <path
       id="path3089"
       d="m 173.14,62.91 c 3.68,-0.22 7.36,-0.69 11.06,-0.49 -0.02,1.56 -0.04,3.13 -0.06,4.69 -3.57,-0.01 -7.14,-0.02 -10.7,0.03 -0.12,-1.41 -0.22,-2.82 -0.3,-4.23 z"
       inkscape:connector-curvature="0"
       style="fill:#fffffe" />
    <path
       id="path3091"
       d="m 148.31,66.8 c 0.03,-1.33 0.06,-2.65 0.11,-3.97 7.75,0 15.5,0.11 23.25,-0.04 -0.03,1.45 -0.08,2.9 -0.14,4.35 -7.74,-0.22 -15.5,0.31 -23.22,-0.34 z"
       inkscape:connector-curvature="0"
       style="fill:#fffffe" />
    <path
       id="path3093"
       d="m 137.31,68.88 c 3.07,0 6.14,0.01 9.22,-0.03 0.01,18.56 -0.04,37.14 -0.18,55.7 -2.97,0.03 -5.95,0.03 -8.92,0.01 -0.29,-18.55 -0.05,-37.12 -0.12,-55.68 z"
       inkscape:connector-curvature="0"
       style="fill:#fffffe" />
    <path
       id="path3095"
       d="m 148.34,68.91 c 7.79,-0.05 15.58,-0.06 23.37,0.01 -0.12,18.52 0.39,37.1 -0.15,55.6 -7.74,0.42 -15.52,0.1 -23.27,0.06 -0.2,-18.56 0.07,-37.12 0.05,-55.67 m 7.91,12.35 c -1.36,1.06 -1.04,2.85 -1.22,4.35 1.28,1.34 2.73,3.07 4.84,2.64 2.31,0.05 3.24,-2.29 3.98,-4.07 -0.31,-0.78 -0.93,-2.35 -1.24,-3.13 -1.91,-1.06 -4.8,-1.81 -6.36,0.21 m -0.86,21.08 c -0.35,3.08 -0.25,6.21 -0.12,9.3 1.71,2.41 5.21,0.8 7.73,1.16 0.09,-3.51 0.83,-7.33 -0.28,-10.66 -2.27,-0.53 -5.22,-0.92 -7.33,0.2 z"
       inkscape:connector-curvature="0"
       style="fill:#fffffe" />
    <path
       id="path3097"
       d="m 173.22,68.89 c 3.15,-0.02 6.31,-0.03 9.47,0.02 -0.09,18.56 0.1,37.13 -0.13,55.7 -2.57,0.1 -5.15,0.16 -7.73,0.07 -1.63,0.41 -1.59,-1.61 -1.54,-2.61 0,-17.73 -0.08,-35.45 -0.07,-53.18 z"
       inkscape:connector-curvature="0"
       style="fill:#fffffe" />
    <path
       id="path3099"
       d="m 130.91,126.57 c 19.39,0.43 38.84,0.32 58.21,-0.05 -0.01,1.54 -0.02,3.08 -0.02,4.61 -19.41,-0.12 -38.84,0.28 -58.24,-0.21 0.02,-1.45 0.04,-2.9 0.05,-4.35 z"
       inkscape:connector-curvature="0"
       style="fill:#fffffe" />
    <path
       id="path3101"
       d="m 105.9,132.9 c 31.38,0.01 62.77,-0.03 94.16,-0.02 3.7,0.01 7.41,-0.12 11.11,0.21 -0.06,2.02 -0.14,4.03 -0.28,6.04 -35,-0.02 -69.99,-0.03 -104.99,-0.03 0,-2.07 0,-4.14 0,-6.2 z"
       inkscape:connector-curvature="0"
       style="fill:#fffffe" />
    <path
       id="path3103"
       d="m 117.73,140.86 c 27.95,0.05 55.9,-0.06 83.84,0 -1.57,3.56 -3.51,6.93 -5.36,10.35 -24.24,0.03 -48.47,-0.08 -72.71,0 -1.95,-3.43 -3.74,-6.96 -5.77,-10.35 z"
       inkscape:connector-curvature="0"
       style="fill:#fffffe" />
    <path
       id="path3105"
       d="m 115.94,152.9 c 29.08,0 58.16,0.01 87.24,-0.01 1.28,8.65 0.63,17.41 1.69,26.07 0.59,17.03 1.94,34.02 2.5,51.05 0.96,7.63 0.5,15.34 1.34,22.98 0.76,7.62 0.15,15.32 1.05,22.93 0.74,6.39 -0.11,12.86 0.86,19.23 0.51,3.21 0.51,6.46 0.5,9.7 -6.48,0.09 -12.96,-0.1 -19.44,0.15 l -0.44,0 c -0.64,-5.3 -0.18,-10.64 -0.61,-15.95 -0.46,-6.35 -0.93,-12.7 -0.75,-19.06 0.19,-9 -1.25,-17.94 -1,-26.94 0.29,-10.04 -1.35,-20.02 -1,-30.07 0.22,-8.7 -1.23,-17.34 -1,-26.04 0.02,-3.71 -0.01,-7.42 -0.19,-11.12 -10.9,-0.46 -21.82,0.11 -32.72,0.1 -6.76,0.64 -13.69,-0.39 -20.35,0.57 -0.79,2.74 -0.39,5.67 -0.51,8.49 0.28,9.68 -1.14,19.31 -0.99,28.99 0.23,9.02 -1.05,18 -1,27.02 0.24,11.69 -1.41,23.33 -1.01,35.03 -0.57,9.65 -0.92,19.32 -1.31,28.98 l -0.35,0 c -6.58,-0.27 -13.16,-0.07 -19.74,-0.15 0.34,-6.65 -0.12,-13.32 0.73,-19.94 0.69,-5.28 0.37,-10.62 0.46,-15.93 2.15,-38.69 3.92,-77.39 6.04,-116.08 z"
       inkscape:connector-curvature="0"
       style="fill:#fffffe" />
    <path
       id="path3107"
       d="m 134.87,177.52 c 16.74,-0.2 33.48,-0.66 50.23,-0.64 -0.28,9.39 1.15,18.71 1.02,28.1 -0.35,10.04 1.26,20.01 1,30.05 -0.24,9.68 1.32,19.3 1,28.98 -0.24,9 1.22,17.94 1,26.94 -0.07,4.69 0.19,9.37 0.2,14.05 l -21.99,0 c -0.89,-4.66 -0.13,-9.42 -0.57,-14.11 -0.61,-3.05 -3.41,-6.09 -6.71,-5.83 -3.4,-0.4 -6.23,2.73 -6.81,5.84 -0.41,4.69 0.28,9.43 -0.53,14.1 l -18.83,0 -3.29,-0.59 c 0.09,-4.15 0.35,-8.29 0.29,-12.43 -0.22,-9.34 1.17,-18.63 1,-27.97 -0.25,-9.69 1.2,-19.32 1,-29 -0.21,-9.36 1.17,-18.66 1,-28.01 -0.23,-9.85 1.25,-19.64 0.99,-29.48 m 21.7,13 c -1.21,4.31 -0.74,9.26 -0.27,13.72 2.27,0.79 4.79,0.26 7.16,0.45 0.89,-4.59 1.17,-9.68 -0.02,-14.18 -2.27,-0.3 -4.6,-0.28 -6.87,0.01 m -0.46,29.28 c -0.24,4.65 -0.46,9.35 0.21,13.98 2.45,0.04 4.91,0.04 7.37,0 0.55,-4.59 0.73,-9.31 0.06,-13.88 -2.52,-0.48 -5.1,-0.24 -7.64,-0.1 m 0.01,28.15 c -0.08,5.38 -0.08,10.76 0.01,16.14 2.64,0.13 5.28,0.11 7.91,-0.06 0.05,-5.32 0.19,-10.64 -0.1,-15.95 -2.6,-0.22 -5.21,-0.21 -7.82,-0.13 z"
       inkscape:connector-curvature="0"
       style="fill:#fffffe" />
  </g>
</svg>
