<?xml version="1.0" encoding="UTF-8"?>
<svg xmlns="http://www.w3.org/2000/svg" width="1200" height="600" viewBox="0 0 5376 2688">
<rect fill="#fff" width="5376" height="2688"/>
<rect fill="#00356a" y="896" width="5376" height="896"/>
<path stroke="#dc241f" stroke-width="128" d="M0,192h5376 M0,448h5376 M0,704h5376 M0,1984h5376 M0,2240h5376 M0,2496h5376"/>
<circle fill="#ffd100" cx="1015" cy="1344" r="336"/>
<circle fill="#00356a" cx="1085" cy="1344" r="294"/>
<path fill="#ffd100" d="M1351,1064 1375.93,1234.8 1472.53,1091.72 1420.87,1256.43 1569.9,1169.42 1451.88,1295.42 1624,1281.7 1463,1344 1624,1406.3 1451.88,1392.58 1569.9,1518.58 1420.87,1431.57 1472.53,1596.28 1375.93,1453.2 1351,1624 1326.09,1453.2 1229.56,1596.28 1281.15,1431.57 1132.12,1518.58 1250.07,1392.58 1078,1406.3 1239,1344 1078,1281.7 1250.07,1295.42 1132.12,1169.42 1281.15,1256.43 1229.49,1091.72 1326.09,1234.8z"/>
</svg>