<?xml version="1.0" encoding="utf-8"?>
<!-- Generator: Adobe Illustrator 21.1.0, SVG Export Plug-In . SVG Version: 6.00 Build 0)  -->
<svg version="1.1" id="Layer_2" xmlns="http://www.w3.org/2000/svg" xmlns:xlink="http://www.w3.org/1999/xlink" x="0px" y="0px"
	 width="64px" height="64px" viewBox="0 0 64 64" style="enable-background:new 0 0 64 64;" xml:space="preserve">
<style type="text/css">
	.st0{fill:#A1ADB8;}
</style>
<rect x="12" y="10" class="st0" width="18" height="4"/>
<rect x="12" y="18" class="st0" width="23" height="4"/>
<rect x="12" y="26" class="st0" width="18" height="4"/>
<path class="st0" d="M56.2,16L52,20.2V4c0-1.1-0.9-2-2-2H6C4.9,2,4,2.9,4,4v55c0,1.1,0.9,2,2,2h44c1.1,0,2-0.9,2-2V35.8l12-12
	L56.2,16z M49,57c0,0.5-0.5,1-1,1H8c-0.5,0-1-0.5-1-1V6c0-0.5,0.5-1,1-1h40c0.5,0,1,0.5,1,1v17.2l-22,22V53h7.8L49,38.8V57z M34,50
	l-4-4l26-26l4,4L34,50z"/>
</svg>
