<?xml version="1.0" encoding="UTF-8"?>
<svg xmlns="http://www.w3.org/2000/svg" xmlns:xlink="http://www.w3.org/1999/xlink" width="900pt" height="600pt" viewBox="0 0 900 600" version="1.1">
<g id="surface1">
<rect x="0" y="0" width="900" height="600" style="fill:rgb(69.803922%,13.333333%,20.392157%);fill-opacity:1;stroke:none;"/>
<path style="fill-rule:nonzero;fill:rgb(0%,0%,0%);fill-opacity:1;stroke-width:300;stroke-linecap:butt;stroke-linejoin:miter;stroke:rgb(100%,100%,100%);stroke-opacity:1;stroke-miterlimit:4;" d="M 0 449.998047 L 7410 449.998047 M 7410 1050.003906 L 0 1050.003906 M 0 1650.009766 L 7410 1650.009766 M 7410 2249.990234 L 0 2249.990234 M 0 2849.996094 L 7410 2849.996094 M 7410 3450.001953 L 0 3450.001953 " transform="matrix(0.121457,0,0,0.153846,0,0)"/>
<path style=" stroke:none;fill-rule:nonzero;fill:rgb(23.529412%,23.137255%,43.137255%);fill-opacity:1;" d="M 0 0 L 360 0 L 360 323.078125 L 0 323.078125 Z M 0 0 "/>
<path style=" stroke:none;fill-rule:nonzero;fill:rgb(100%,100%,100%);fill-opacity:1;" d="M 30 13.847656 L 38.566406 47.242188 L 16.136719 26.601562 L 43.863281 26.601562 L 21.433594 47.242188 Z M 30 13.847656 "/>
<path style=" stroke:none;fill-rule:nonzero;fill:rgb(100%,100%,100%);fill-opacity:1;" d="M 30 78.460938 L 38.566406 111.859375 L 16.136719 91.21875 L 43.863281 91.21875 L 21.433594 111.859375 Z M 30 78.460938 "/>
<path style=" stroke:none;fill-rule:nonzero;fill:rgb(100%,100%,100%);fill-opacity:1;" d="M 30 143.078125 L 38.566406 176.472656 L 16.136719 155.832031 L 43.863281 155.832031 L 21.433594 176.472656 Z M 30 143.078125 "/>
<path style=" stroke:none;fill-rule:nonzero;fill:rgb(100%,100%,100%);fill-opacity:1;" d="M 30 207.691406 L 38.566406 241.089844 L 16.136719 220.449219 L 43.863281 220.449219 L 21.433594 241.089844 Z M 30 207.691406 "/>
<path style=" stroke:none;fill-rule:nonzero;fill:rgb(100%,100%,100%);fill-opacity:1;" d="M 30 272.308594 L 38.566406 305.703125 L 16.136719 285.0625 L 43.863281 285.0625 L 21.433594 305.703125 Z M 30 272.308594 "/>
<path style=" stroke:none;fill-rule:nonzero;fill:rgb(100%,100%,100%);fill-opacity:1;" d="M 60 46.152344 L 68.566406 79.550781 L 46.136719 58.910156 L 73.863281 58.910156 L 51.433594 79.550781 Z M 60 46.152344 "/>
<path style=" stroke:none;fill-rule:nonzero;fill:rgb(100%,100%,100%);fill-opacity:1;" d="M 60 110.769531 L 68.566406 144.167969 L 46.136719 123.527344 L 73.863281 123.527344 L 51.433594 144.167969 Z M 60 110.769531 "/>
<path style=" stroke:none;fill-rule:nonzero;fill:rgb(100%,100%,100%);fill-opacity:1;" d="M 60 175.382812 L 68.566406 208.78125 L 46.136719 188.140625 L 73.863281 188.140625 L 51.433594 208.78125 Z M 60 175.382812 "/>
<path style=" stroke:none;fill-rule:nonzero;fill:rgb(100%,100%,100%);fill-opacity:1;" d="M 60 240 L 68.566406 273.398438 L 46.136719 252.757812 L 73.863281 252.757812 L 51.433594 273.398438 Z M 60 240 "/>
<path style=" stroke:none;fill-rule:nonzero;fill:rgb(100%,100%,100%);fill-opacity:1;" d="M 90 13.847656 L 98.566406 47.242188 L 76.136719 26.601562 L 103.863281 26.601562 L 81.433594 47.242188 Z M 90 13.847656 "/>
<path style=" stroke:none;fill-rule:nonzero;fill:rgb(100%,100%,100%);fill-opacity:1;" d="M 90 78.460938 L 98.566406 111.859375 L 76.136719 91.21875 L 103.863281 91.21875 L 81.433594 111.859375 Z M 90 78.460938 "/>
<path style=" stroke:none;fill-rule:nonzero;fill:rgb(100%,100%,100%);fill-opacity:1;" d="M 90 143.078125 L 98.566406 176.472656 L 76.136719 155.832031 L 103.863281 155.832031 L 81.433594 176.472656 Z M 90 143.078125 "/>
<path style=" stroke:none;fill-rule:nonzero;fill:rgb(100%,100%,100%);fill-opacity:1;" d="M 90 207.691406 L 98.566406 241.089844 L 76.136719 220.449219 L 103.863281 220.449219 L 81.433594 241.089844 Z M 90 207.691406 "/>
<path style=" stroke:none;fill-rule:nonzero;fill:rgb(100%,100%,100%);fill-opacity:1;" d="M 90 272.308594 L 98.566406 305.703125 L 76.136719 285.0625 L 103.863281 285.0625 L 81.433594 305.703125 Z M 90 272.308594 "/>
<path style=" stroke:none;fill-rule:nonzero;fill:rgb(100%,100%,100%);fill-opacity:1;" d="M 120 46.152344 L 128.566406 79.550781 L 106.136719 58.910156 L 133.863281 58.910156 L 111.433594 79.550781 Z M 120 46.152344 "/>
<path style=" stroke:none;fill-rule:nonzero;fill:rgb(100%,100%,100%);fill-opacity:1;" d="M 120 110.769531 L 128.566406 144.167969 L 106.136719 123.527344 L 133.863281 123.527344 L 111.433594 144.167969 Z M 120 110.769531 "/>
<path style=" stroke:none;fill-rule:nonzero;fill:rgb(100%,100%,100%);fill-opacity:1;" d="M 120 175.382812 L 128.566406 208.78125 L 106.136719 188.140625 L 133.863281 188.140625 L 111.433594 208.78125 Z M 120 175.382812 "/>
<path style=" stroke:none;fill-rule:nonzero;fill:rgb(100%,100%,100%);fill-opacity:1;" d="M 120 240 L 128.566406 273.398438 L 106.136719 252.757812 L 133.863281 252.757812 L 111.433594 273.398438 Z M 120 240 "/>
<path style=" stroke:none;fill-rule:nonzero;fill:rgb(100%,100%,100%);fill-opacity:1;" d="M 150 13.847656 L 158.566406 47.242188 L 136.136719 26.601562 L 163.863281 26.601562 L 141.433594 47.242188 Z M 150 13.847656 "/>
<path style=" stroke:none;fill-rule:nonzero;fill:rgb(100%,100%,100%);fill-opacity:1;" d="M 150 78.460938 L 158.566406 111.859375 L 136.136719 91.21875 L 163.863281 91.21875 L 141.433594 111.859375 Z M 150 78.460938 "/>
<path style=" stroke:none;fill-rule:nonzero;fill:rgb(100%,100%,100%);fill-opacity:1;" d="M 150 143.078125 L 158.566406 176.472656 L 136.136719 155.832031 L 163.863281 155.832031 L 141.433594 176.472656 Z M 150 143.078125 "/>
<path style=" stroke:none;fill-rule:nonzero;fill:rgb(100%,100%,100%);fill-opacity:1;" d="M 150 207.691406 L 158.566406 241.089844 L 136.136719 220.449219 L 163.863281 220.449219 L 141.433594 241.089844 Z M 150 207.691406 "/>
<path style=" stroke:none;fill-rule:nonzero;fill:rgb(100%,100%,100%);fill-opacity:1;" d="M 150 272.308594 L 158.566406 305.703125 L 136.136719 285.0625 L 163.863281 285.0625 L 141.433594 305.703125 Z M 150 272.308594 "/>
<path style=" stroke:none;fill-rule:nonzero;fill:rgb(100%,100%,100%);fill-opacity:1;" d="M 180 46.152344 L 188.566406 79.550781 L 166.136719 58.910156 L 193.863281 58.910156 L 171.433594 79.550781 Z M 180 46.152344 "/>
<path style=" stroke:none;fill-rule:nonzero;fill:rgb(100%,100%,100%);fill-opacity:1;" d="M 180 110.769531 L 188.566406 144.167969 L 166.136719 123.527344 L 193.863281 123.527344 L 171.433594 144.167969 Z M 180 110.769531 "/>
<path style=" stroke:none;fill-rule:nonzero;fill:rgb(100%,100%,100%);fill-opacity:1;" d="M 180 175.382812 L 188.566406 208.78125 L 166.136719 188.140625 L 193.863281 188.140625 L 171.433594 208.78125 Z M 180 175.382812 "/>
<path style=" stroke:none;fill-rule:nonzero;fill:rgb(100%,100%,100%);fill-opacity:1;" d="M 180 240 L 188.566406 273.398438 L 166.136719 252.757812 L 193.863281 252.757812 L 171.433594 273.398438 Z M 180 240 "/>
<path style=" stroke:none;fill-rule:nonzero;fill:rgb(100%,100%,100%);fill-opacity:1;" d="M 210 13.847656 L 218.566406 47.242188 L 196.136719 26.601562 L 223.863281 26.601562 L 201.433594 47.242188 Z M 210 13.847656 "/>
<path style=" stroke:none;fill-rule:nonzero;fill:rgb(100%,100%,100%);fill-opacity:1;" d="M 210 78.460938 L 218.566406 111.859375 L 196.136719 91.21875 L 223.863281 91.21875 L 201.433594 111.859375 Z M 210 78.460938 "/>
<path style=" stroke:none;fill-rule:nonzero;fill:rgb(100%,100%,100%);fill-opacity:1;" d="M 210 143.078125 L 218.566406 176.472656 L 196.136719 155.832031 L 223.863281 155.832031 L 201.433594 176.472656 Z M 210 143.078125 "/>
<path style=" stroke:none;fill-rule:nonzero;fill:rgb(100%,100%,100%);fill-opacity:1;" d="M 210 207.691406 L 218.566406 241.089844 L 196.136719 220.449219 L 223.863281 220.449219 L 201.433594 241.089844 Z M 210 207.691406 "/>
<path style=" stroke:none;fill-rule:nonzero;fill:rgb(100%,100%,100%);fill-opacity:1;" d="M 210 272.308594 L 218.566406 305.703125 L 196.136719 285.0625 L 223.863281 285.0625 L 201.433594 305.703125 Z M 210 272.308594 "/>
<path style=" stroke:none;fill-rule:nonzero;fill:rgb(100%,100%,100%);fill-opacity:1;" d="M 240 46.152344 L 248.566406 79.550781 L 226.136719 58.910156 L 253.863281 58.910156 L 231.433594 79.550781 Z M 240 46.152344 "/>
<path style=" stroke:none;fill-rule:nonzero;fill:rgb(100%,100%,100%);fill-opacity:1;" d="M 240 110.769531 L 248.566406 144.167969 L 226.136719 123.527344 L 253.863281 123.527344 L 231.433594 144.167969 Z M 240 110.769531 "/>
<path style=" stroke:none;fill-rule:nonzero;fill:rgb(100%,100%,100%);fill-opacity:1;" d="M 240 175.382812 L 248.566406 208.78125 L 226.136719 188.140625 L 253.863281 188.140625 L 231.433594 208.78125 Z M 240 175.382812 "/>
<path style=" stroke:none;fill-rule:nonzero;fill:rgb(100%,100%,100%);fill-opacity:1;" d="M 240 240 L 248.566406 273.398438 L 226.136719 252.757812 L 253.863281 252.757812 L 231.433594 273.398438 Z M 240 240 "/>
<path style=" stroke:none;fill-rule:nonzero;fill:rgb(100%,100%,100%);fill-opacity:1;" d="M 270 13.847656 L 278.566406 47.242188 L 256.136719 26.601562 L 283.863281 26.601562 L 261.433594 47.242188 Z M 270 13.847656 "/>
<path style=" stroke:none;fill-rule:nonzero;fill:rgb(100%,100%,100%);fill-opacity:1;" d="M 270 78.460938 L 278.566406 111.859375 L 256.136719 91.21875 L 283.863281 91.21875 L 261.433594 111.859375 Z M 270 78.460938 "/>
<path style=" stroke:none;fill-rule:nonzero;fill:rgb(100%,100%,100%);fill-opacity:1;" d="M 270 143.078125 L 278.566406 176.472656 L 256.136719 155.832031 L 283.863281 155.832031 L 261.433594 176.472656 Z M 270 143.078125 "/>
<path style=" stroke:none;fill-rule:nonzero;fill:rgb(100%,100%,100%);fill-opacity:1;" d="M 270 207.691406 L 278.566406 241.089844 L 256.136719 220.449219 L 283.863281 220.449219 L 261.433594 241.089844 Z M 270 207.691406 "/>
<path style=" stroke:none;fill-rule:nonzero;fill:rgb(100%,100%,100%);fill-opacity:1;" d="M 270 272.308594 L 278.566406 305.703125 L 256.136719 285.0625 L 283.863281 285.0625 L 261.433594 305.703125 Z M 270 272.308594 "/>
<path style=" stroke:none;fill-rule:nonzero;fill:rgb(100%,100%,100%);fill-opacity:1;" d="M 300 46.152344 L 308.566406 79.550781 L 286.136719 58.910156 L 313.863281 58.910156 L 291.433594 79.550781 Z M 300 46.152344 "/>
<path style=" stroke:none;fill-rule:nonzero;fill:rgb(100%,100%,100%);fill-opacity:1;" d="M 300 110.769531 L 308.566406 144.167969 L 286.136719 123.527344 L 313.863281 123.527344 L 291.433594 144.167969 Z M 300 110.769531 "/>
<path style=" stroke:none;fill-rule:nonzero;fill:rgb(100%,100%,100%);fill-opacity:1;" d="M 300 175.382812 L 308.566406 208.78125 L 286.136719 188.140625 L 313.863281 188.140625 L 291.433594 208.78125 Z M 300 175.382812 "/>
<path style=" stroke:none;fill-rule:nonzero;fill:rgb(100%,100%,100%);fill-opacity:1;" d="M 300 240 L 308.566406 273.398438 L 286.136719 252.757812 L 313.863281 252.757812 L 291.433594 273.398438 Z M 300 240 "/>
<path style=" stroke:none;fill-rule:nonzero;fill:rgb(100%,100%,100%);fill-opacity:1;" d="M 330 13.847656 L 338.566406 47.242188 L 316.136719 26.601562 L 343.863281 26.601562 L 321.433594 47.242188 Z M 330 13.847656 "/>
<path style=" stroke:none;fill-rule:nonzero;fill:rgb(100%,100%,100%);fill-opacity:1;" d="M 330 78.460938 L 338.566406 111.859375 L 316.136719 91.21875 L 343.863281 91.21875 L 321.433594 111.859375 Z M 330 78.460938 "/>
<path style=" stroke:none;fill-rule:nonzero;fill:rgb(100%,100%,100%);fill-opacity:1;" d="M 330 143.078125 L 338.566406 176.472656 L 316.136719 155.832031 L 343.863281 155.832031 L 321.433594 176.472656 Z M 330 143.078125 "/>
<path style=" stroke:none;fill-rule:nonzero;fill:rgb(100%,100%,100%);fill-opacity:1;" d="M 330 207.691406 L 338.566406 241.089844 L 316.136719 220.449219 L 343.863281 220.449219 L 321.433594 241.089844 Z M 330 207.691406 "/>
<path style=" stroke:none;fill-rule:nonzero;fill:rgb(100%,100%,100%);fill-opacity:1;" d="M 330 272.308594 L 338.566406 305.703125 L 316.136719 285.0625 L 343.863281 285.0625 L 321.433594 305.703125 Z M 330 272.308594 "/>
</g>
</svg>
