<!-- Generated by IcoMoon.io -->
<svg version="1.1" xmlns="http://www.w3.org/2000/svg" width="24" height="24" viewBox="0 0 24 24">
<title>remove-table</title>
<path d="M20 2h-16c-1.105 0-2 0.895-2 2v0 16c0 1.105 0.895 2 2 2v0h10v-2h-4v-4h6v-6h4v4h2v-10c0-1.105-0.895-2-2-2v0zM16 8v-4h4v4zM10 8v-4h4v4zM4 8v-4h4v4zM10 14v-4h4v4zM4 14v-4h4v4zM4 20v-4h4v4z"></path>
<path d="M23.54 17.88l-1.42-1.42-2.12 2.13-2.12-2.13-1.42 1.42 2.13 2.12-2.13 2.12 1.42 1.42 2.12-2.13 2.12 2.13 1.42-1.42-2.13-2.12 2.13-2.12z"></path>
</svg>
