<svg version="1.1" xmlns="http://www.w3.org/2000/svg" width="24" height="24" viewBox="0 0 24 24">
<title>taskinprogress</title>
<path d="M14.78 11.21l1.010-1.010c0.22-0.24 0.21-0.58 0-0.79l-1.29-1.25c-0.24-0.22-0.58-0.21-0.78 0l-1.010 1.020 2.070 2.030z"></path>
<path d="M12.12 9.72l-4.17 4.19v2.090h2.080l4.16-4.2-2.070-2.080z"></path>
<path d="M21 19v-14c0-1.1-0.9-2-2-2h-8v2h8v14h-8v2h8c1.1 0 2-0.9 2-2zM9 21v-2h-2v2h2zM5 21v-2h-2c0 1.1 0.9 2 2 2zM3 17h2v-2h-2v2zM3 13v-2h2v2h-2zM5 9v-2h-2v2h2zM3 5h2v-2c-1.1 0-2 0.9-2 2zM7 3v2h2v-2h-2z"></path>
</svg>
