<svg xmlns="http://www.w3.org/2000/svg" width="16" height="16" viewBox="0 0 16 16"><title>status-4</title><path d="M8,2A6,6,0,1,1,2,8,6,6,0,0,1,8,2M8,0a8,8,0,1,0,8,8A8,8,0,0,0,8,0Z" style="fill:#bf4e6a"/><path d="M7.3,9c0-.5.06-.36.18-.66a2.71,2.71,0,0,1,.67-.88,3.18,3.18,0,0,0,.65-.7A1.07,1.07,0,0,0,9,6.19c0-.61-.28-.91-.84-.91a.85.85,0,0,0-.63.24,1,1,0,0,0-.25.68H5.68a2.1,2.1,0,0,1,.66-1.61A2.58,2.58,0,0,1,8.12,4a2.59,2.59,0,0,1,1.77.55,2,2,0,0,1,.63,1.56,1.85,1.85,0,0,1-.21.86,3.41,3.41,0,0,1-.71.9l-.43.41a1.47,1.47,0,0,0-.47.92l0-.21Zm-.15,2.19a.78.78,0,0,1,.24-.59.93.93,0,0,1,1.25,0,.78.78,0,0,1,.25.59.77.77,0,0,1-.24.58A.85.85,0,0,1,8,12a.85.85,0,0,1-.64-.23A.8.8,0,0,1,7.15,11.19Z" style="fill:#bf4e6a"/></svg>