<?xml version="1.0" encoding="utf-8"?>
<!-- Generator: Adobe Illustrator 16.0.3, SVG Export Plug-In . SVG Version: 6.00 Build 0)  -->
<!DOCTYPE svg PUBLIC "-//W3C//DTD SVG 1.1//EN" "http://www.w3.org/Graphics/SVG/1.1/DTD/svg11.dtd">
<svg version="1.1" id="Layer_1" xmlns="http://www.w3.org/2000/svg" xmlns:xlink="http://www.w3.org/1999/xlink" x="0px" y="0px"
	 width="32px" height="32px" viewBox="-7.5 -7.5 32 32" enable-background="new -7.5 -7.5 32 32" xml:space="preserve">
<path fill="#5D96C6" d="M16.5,4.5h-16c-0.5,0-1,0.5-1,1v5c0,0.5,0.5,1,1,1h16c0.5,0,1-0.5,1-1v-5C17.5,5,17,4.5,16.5,4.5z M4,10.5
	c-1.4,0-2.5-1.1-2.5-2.5c0-1.4,1.1-2.5,2.5-2.5S6.5,6.6,6.5,8C6.5,9.4,5.4,10.5,4,10.5z M15.5,8.5c0,0.5-0.5,1-1,1h-6
	c-0.5,0-1-0.5-1-1v-1c0-0.5,0.5-1,1-1h6c0.5,0,1,0.5,1,1V8.5z"/>
</svg>
