<?xml version="1.0" encoding="utf-8"?>
<!-- Generator: Adobe Illustrator 16.0.3, SVG Export Plug-In . SVG Version: 6.00 Build 0)  -->
<!DOCTYPE svg PUBLIC "-//W3C//DTD SVG 1.1//EN" "http://www.w3.org/Graphics/SVG/1.1/DTD/svg11.dtd">
<svg version="1.1" id="Layer_1" xmlns="http://www.w3.org/2000/svg" xmlns:xlink="http://www.w3.org/1999/xlink" x="0px" y="0px"
	 width="32px" height="32px" viewBox="-7.479 -7.505 32 32" enable-background="new -7.479 -7.505 32 32" xml:space="preserve">
<path fill="#5D96C6" d="M16.479,1.5h-16c-0.5,0-0.979,0.484-0.979,0.984v10.001c0,0.5,0.5,1,1,1h6L6.479,14.5h-2
	c-0.5,0-0.979,0.485-0.979,0.985s0.5,1,1,1h8c0.5,0,1-0.5,1-1S12.979,14.5,12.479,14.5h-2v-1l6.021-0.015
	c0.5,0,0.979-0.485,0.979-0.985v-10C17.479,2,16.979,1.5,16.479,1.5z M15.5,10.485c0,0.5-0.5,1.015-1,1.015h-12
	c-0.5,0-1-0.515-1-1.015V4.484c0-0.5,0.5-1,1-1h12c0.5,0,1,0.5,1,1V10.485z"/>
</svg>
