<?xml version="1.0" encoding="utf-8"?>
<!-- Generator: Adobe Illustrator 22.0.1, SVG Export Plug-In . SVG Version: 6.00 Build 0)  -->
<svg version="1.1" id="Layer_1" xmlns="http://www.w3.org/2000/svg" xmlns:xlink="http://www.w3.org/1999/xlink" x="0px" y="0px"
	 width="200px" height="200px" viewBox="0 0 200 200" style="enable-background:new 0 0 200 200;" xml:space="preserve">
<style type="text/css">
	.st0{fill:#363640;}
	.st1{fill:rgba(255, 255, 255, 0.6);}
	.st2{fill:#03A9F4;}
</style>
<circle class="st0" cx="100" cy="100" r="100"/>
<g>
	<path class="st1" d="M98.2,17h-0.9v-5.6H96v-0.6l2.2-0.2C98.2,10.6,98.2,17,98.2,17z"/>
	<path class="st1" d="M104.9,17h-4.1v-0.6l2.1-2.3c0.4-0.4,0.6-0.8,0.8-1c0.1-0.2,0.2-0.5,0.2-0.8s-0.1-0.6-0.3-0.8
		c-0.2-0.2-0.4-0.3-0.7-0.3c-0.4,0-0.8,0.1-1,0.3s-0.3,0.5-0.3,1h-0.8l0,0c0-0.6,0.2-1,0.5-1.4s0.9-0.6,1.6-0.6c0.6,0,1,0.2,1.4,0.5
		c0.3,0.3,0.5,0.8,0.5,1.3c0,0.3-0.1,0.7-0.3,1c-0.2,0.4-0.5,0.7-0.9,1.1l-1.7,1.8l0,0h3.1L104.9,17L104.9,17z"/>
</g>
<g>
	<path class="st1" d="M181.4,97.4h0.8c0.4,0,0.7-0.1,0.8-0.3c0.2-0.2,0.2-0.5,0.2-0.8c0-0.4-0.1-0.6-0.3-0.8s-0.5-0.3-0.8-0.3
		s-0.6,0.1-0.8,0.3c-0.2,0.2-0.3,0.5-0.3,0.8h-0.8l0,0c0-0.5,0.2-0.9,0.5-1.2c0.4-0.3,0.8-0.5,1.4-0.5c0.6,0,1.1,0.2,1.4,0.5
		c0.4,0.3,0.5,0.8,0.5,1.3c0,0.3-0.1,0.5-0.2,0.8c-0.2,0.3-0.4,0.5-0.7,0.6c0.4,0.1,0.7,0.3,0.8,0.6c0.2,0.3,0.2,0.6,0.2,0.9
		c0,0.6-0.2,1-0.6,1.4c-0.4,0.3-0.9,0.5-1.5,0.5s-1.1-0.2-1.4-0.5c-0.4-0.3-0.6-0.7-0.6-1.3l0,0h0.8c0,0.3,0.1,0.6,0.3,0.8
		c0.2,0.2,0.5,0.3,0.9,0.3s0.7-0.1,0.9-0.3c0.2-0.2,0.3-0.5,0.3-0.9s-0.1-0.7-0.3-0.9c-0.2-0.2-0.5-0.3-0.9-0.3h-0.8v-0.7H181.4z"/>
</g>
<g>
	<path class="st1" d="M16,100.4c0.4,0,0.8-0.2,1-0.5c0.3-0.3,0.4-0.8,0.4-1.4v-0.3c-0.1,0.2-0.3,0.4-0.5,0.5s-0.5,0.2-0.7,0.2
		c-0.6,0-1.1-0.2-1.5-0.6s-0.5-0.9-0.5-1.6c0-0.6,0.2-1.2,0.6-1.6c0.4-0.4,0.9-0.6,1.4-0.6c0.7,0,1.2,0.2,1.6,0.6s0.6,1,0.6,1.8v1.5
		c0,0.8-0.2,1.5-0.6,1.9s-1,0.7-1.6,0.7c-0.2,0-0.5,0-0.7-0.1c-0.2,0-0.4-0.1-0.6-0.2L15,100c0.2,0.1,0.4,0.2,0.5,0.2
		C15.5,100.4,15.7,100.4,16,100.4z M16.1,98.2c0.3,0,0.6-0.1,0.8-0.2c0.2-0.1,0.4-0.3,0.5-0.5v-0.6c0-0.6-0.1-1-0.3-1.3
		c-0.2-0.3-0.5-0.4-0.9-0.4c-0.3,0-0.6,0.1-0.8,0.4s-0.3,0.6-0.3,1.1c0,0.4,0.1,0.8,0.3,1.1C15.5,98,15.7,98.2,16.1,98.2z"/>
</g>
<g>
	<path class="st1" d="M174.7,136.8h0.9v0.7h-0.9v1.5h-0.9v-1.5H171V137l2.8-4.4h0.9V136.8z M171.9,136.8h2v-3l0,0l-0.1,0.2
		L171.9,136.8z"/>
</g>
<g>
	<path class="st1" d="M175.4,60h-4.1v-0.6l2.1-2.3c0.4-0.4,0.6-0.8,0.8-1c0.1-0.2,0.2-0.5,0.2-0.8s-0.1-0.6-0.3-0.8
		s-0.4-0.3-0.7-0.3c-0.4,0-0.8,0.1-1,0.3s-0.3,0.5-0.3,1h-0.8l0,0c0-0.6,0.2-1,0.5-1.4s0.9-0.6,1.6-0.6c0.6,0,1,0.2,1.4,0.5
		c0.3,0.3,0.5,0.8,0.5,1.3c0,0.3-0.1,0.7-0.3,1c-0.2,0.4-0.5,0.7-0.9,1.1l-1.7,1.8l0,0h3.1V60H175.4z"/>
</g>
<g>
	<path class="st1" d="M30.2,134.3c0,0.3-0.1,0.6-0.3,0.9c-0.2,0.3-0.4,0.4-0.8,0.6c0.4,0.1,0.7,0.3,0.9,0.6c0.2,0.3,0.3,0.6,0.3,1
		c0,0.6-0.2,1-0.6,1.4c-0.4,0.3-0.9,0.5-1.5,0.5s-1.1-0.2-1.5-0.5s-0.6-0.8-0.6-1.4c0-0.4,0.1-0.7,0.3-1s0.5-0.5,0.9-0.6
		c-0.3-0.1-0.6-0.3-0.8-0.6c-0.2-0.3-0.3-0.5-0.3-0.9c0-0.6,0.2-1,0.5-1.3s0.8-0.5,1.4-0.5s1,0.2,1.4,0.5
		C30,133.3,30.2,133.7,30.2,134.3z M29.5,137.2c0-0.3-0.1-0.6-0.3-0.9c-0.2-0.2-0.5-0.3-0.9-0.3s-0.7,0.1-0.9,0.3
		c-0.2,0.2-0.3,0.5-0.3,0.9s0.1,0.6,0.3,0.9c0.2,0.2,0.5,0.3,0.9,0.3s0.7-0.1,0.9-0.3S29.5,137.6,29.5,137.2z M29.3,134.3
		c0-0.3-0.1-0.6-0.3-0.8c-0.2-0.2-0.4-0.3-0.7-0.3c-0.3,0-0.6,0.1-0.7,0.3c-0.2,0.2-0.3,0.5-0.3,0.8s0.1,0.6,0.3,0.8
		c0.2,0.2,0.4,0.3,0.8,0.3c0.3,0,0.6-0.1,0.7-0.3S29.3,134.6,29.3,134.3z"/>
</g>
<g>
	<path class="st1" d="M26.2,60h-0.9v-5.6H24v-0.6l2.2-0.2C26.2,53.6,26.2,60,26.2,60z"/>
	<path class="st1" d="M32.8,57.6c0,0.8-0.2,1.4-0.5,1.9c-0.4,0.4-0.9,0.7-1.5,0.7s-1.1-0.2-1.5-0.7s-0.5-1.1-0.5-1.9V56
		c0-0.8,0.2-1.4,0.5-1.9c0.4-0.4,0.9-0.7,1.5-0.7s1.1,0.2,1.5,0.7c0.4,0.4,0.5,1.1,0.5,1.9V57.6z M32,55.9c0-0.6-0.1-1-0.3-1.2
		c-0.2-0.3-0.5-0.4-0.9-0.4s-0.7,0.1-0.9,0.4c-0.2,0.3-0.3,0.7-0.3,1.2v1.9c0,0.6,0.1,1,0.3,1.3c0.2,0.3,0.5,0.4,0.9,0.4
		s0.7-0.1,0.9-0.4c0.2-0.3,0.3-0.7,0.3-1.3V55.9z"/>
</g>
<g>
	<path class="st1" d="M140.5,169.1l0.4-3.5h3.2v0.8h-2.5l-0.2,1.8c0.1-0.1,0.3-0.2,0.5-0.2c0.2-0.1,0.4-0.1,0.6-0.1
		c0.6,0,1.1,0.2,1.4,0.6c0.3,0.4,0.5,0.9,0.5,1.6c0,0.6-0.2,1.2-0.5,1.5c-0.3,0.4-0.8,0.6-1.5,0.6c-0.5,0-1-0.1-1.4-0.4
		c-0.4-0.3-0.5-0.7-0.5-1.3l0,0h0.8c0,0.3,0.1,0.6,0.3,0.8s0.5,0.3,0.8,0.3c0.4,0,0.7-0.1,0.9-0.4c0.2-0.3,0.3-0.6,0.3-1.1
		c0-0.4-0.1-0.7-0.3-1s-0.5-0.4-0.8-0.4s-0.6,0.1-0.7,0.2c-0.2,0.1-0.3,0.3-0.3,0.5L140.5,169.1z"/>
</g>
<g>
	<path class="st1" d="M142.7,29h-0.9v-5.6h-1.3v-0.6l2.2-0.2V29z"/>
</g>
<g>
	<path class="st1" d="M61.4,166.3c-0.8,0.9-1.3,1.7-1.6,2.4s-0.5,1.6-0.6,2.6l-0.1,0.7h-0.9l0.1-0.7c0.1-1,0.4-1.9,0.7-2.7
		s0.8-1.6,1.5-2.3H57v-0.7h4.3L61.4,166.3L61.4,166.3z"/>
</g>
<g>
	<path class="st1" d="M57.2,29h-0.9v-5.6H55v-0.6l2.2-0.2V29z"/>
	<path class="st1" d="M62.2,29h-0.9v-5.6H60v-0.6l2.2-0.2V29z"/>
</g>
<g>
	<path class="st1" d="M100.7,180.5c0.2,0,0.4,0,0.7,0.1c0.2,0,0.4,0.1,0.5,0.2l-0.2,0.7c-0.1-0.1-0.3-0.1-0.5-0.2
		c-0.2,0-0.3-0.1-0.6-0.1c-0.5,0-0.8,0.2-1.1,0.5c-0.3,0.4-0.4,0.8-0.4,1.4v0.1c0.2-0.2,0.4-0.3,0.6-0.4c0.2-0.1,0.5-0.1,0.8-0.1
		c0.6,0,1,0.2,1.4,0.6c0.3,0.4,0.5,0.9,0.5,1.5c0,0.7-0.2,1.2-0.5,1.6c-0.4,0.4-0.8,0.6-1.4,0.6s-1.1-0.2-1.6-0.7s-0.6-1.1-0.6-1.9
		v-1.2c0-0.8,0.2-1.5,0.7-2S100,180.5,100.7,180.5z M100.4,183.4c-0.3,0-0.5,0.1-0.8,0.2c-0.2,0.1-0.4,0.3-0.5,0.5v0.5
		c0,0.6,0.1,1,0.4,1.4s0.6,0.5,0.9,0.5c0.4,0,0.6-0.1,0.8-0.5c0.2-0.3,0.3-0.7,0.3-1.1c0-0.4-0.1-0.8-0.3-1
		C101.1,183.5,100.8,183.4,100.4,183.4z"/>
</g>
<circle class="st2" cx="100" cy="100" r="6"/>
</svg>
